%TF.GenerationSoftware,KiCad,Pcbnew,(5.1.6-0-10_14)*%
%TF.CreationDate,2022-02-28T20:49:00-06:00*%
%TF.ProjectId,Bonsai_C4,426f6e73-6169-45f4-9334-2e6b69636164,rev?*%
%TF.SameCoordinates,Original*%
%TF.FileFunction,Paste,Top*%
%TF.FilePolarity,Positive*%
%FSLAX46Y46*%
G04 Gerber Fmt 4.6, Leading zero omitted, Abs format (unit mm)*
G04 Created by KiCad (PCBNEW (5.1.6-0-10_14)) date 2022-02-28 20:49:00*
%MOMM*%
%LPD*%
G01*
G04 APERTURE LIST*
%ADD10R,0.550000X1.500000*%
%ADD11R,0.650000X1.060000*%
%ADD12R,0.700000X0.600000*%
%ADD13R,1.300000X1.400000*%
%ADD14R,0.650000X0.400000*%
%ADD15R,0.660000X0.300000*%
%ADD16R,0.600000X0.700000*%
%ADD17R,1.060000X0.650000*%
%ADD18R,1.778000X2.032000*%
%ADD19R,1.500000X1.000000*%
G04 APERTURE END LIST*
%TO.C,J3*%
G36*
G01*
X105470000Y-102125000D02*
X105470000Y-102965000D01*
G75*
G02*
X105320000Y-103115000I-150000J0D01*
G01*
X105020000Y-103115000D01*
G75*
G02*
X104870000Y-102965000I0J150000D01*
G01*
X104870000Y-102125000D01*
G75*
G02*
X105020000Y-101975000I150000J0D01*
G01*
X105320000Y-101975000D01*
G75*
G02*
X105470000Y-102125000I0J-150000D01*
G01*
G37*
G36*
G01*
X104670000Y-102125000D02*
X104670000Y-102965000D01*
G75*
G02*
X104520000Y-103115000I-150000J0D01*
G01*
X104220000Y-103115000D01*
G75*
G02*
X104070000Y-102965000I0J150000D01*
G01*
X104070000Y-102125000D01*
G75*
G02*
X104220000Y-101975000I150000J0D01*
G01*
X104520000Y-101975000D01*
G75*
G02*
X104670000Y-102125000I0J-150000D01*
G01*
G37*
G36*
G01*
X110370000Y-102125000D02*
X110370000Y-102965000D01*
G75*
G02*
X110220000Y-103115000I-150000J0D01*
G01*
X109920000Y-103115000D01*
G75*
G02*
X109770000Y-102965000I0J150000D01*
G01*
X109770000Y-102125000D01*
G75*
G02*
X109920000Y-101975000I150000J0D01*
G01*
X110220000Y-101975000D01*
G75*
G02*
X110370000Y-102125000I0J-150000D01*
G01*
G37*
G36*
G01*
X107520000Y-102050000D02*
X107520000Y-103040000D01*
G75*
G02*
X107445000Y-103115000I-75000J0D01*
G01*
X107295000Y-103115000D01*
G75*
G02*
X107220000Y-103040000I0J75000D01*
G01*
X107220000Y-102050000D01*
G75*
G02*
X107295000Y-101975000I75000J0D01*
G01*
X107445000Y-101975000D01*
G75*
G02*
X107520000Y-102050000I0J-75000D01*
G01*
G37*
G36*
G01*
X107020000Y-102050000D02*
X107020000Y-103040000D01*
G75*
G02*
X106945000Y-103115000I-75000J0D01*
G01*
X106795000Y-103115000D01*
G75*
G02*
X106720000Y-103040000I0J75000D01*
G01*
X106720000Y-102050000D01*
G75*
G02*
X106795000Y-101975000I75000J0D01*
G01*
X106945000Y-101975000D01*
G75*
G02*
X107020000Y-102050000I0J-75000D01*
G01*
G37*
G36*
G01*
X106520000Y-102050000D02*
X106520000Y-103040000D01*
G75*
G02*
X106445000Y-103115000I-75000J0D01*
G01*
X106295000Y-103115000D01*
G75*
G02*
X106220000Y-103040000I0J75000D01*
G01*
X106220000Y-102050000D01*
G75*
G02*
X106295000Y-101975000I75000J0D01*
G01*
X106445000Y-101975000D01*
G75*
G02*
X106520000Y-102050000I0J-75000D01*
G01*
G37*
G36*
G01*
X106020000Y-102050000D02*
X106020000Y-103040000D01*
G75*
G02*
X105945000Y-103115000I-75000J0D01*
G01*
X105795000Y-103115000D01*
G75*
G02*
X105720000Y-103040000I0J75000D01*
G01*
X105720000Y-102050000D01*
G75*
G02*
X105795000Y-101975000I75000J0D01*
G01*
X105945000Y-101975000D01*
G75*
G02*
X106020000Y-102050000I0J-75000D01*
G01*
G37*
G36*
G01*
X108020000Y-102050000D02*
X108020000Y-103040000D01*
G75*
G02*
X107945000Y-103115000I-75000J0D01*
G01*
X107795000Y-103115000D01*
G75*
G02*
X107720000Y-103040000I0J75000D01*
G01*
X107720000Y-102050000D01*
G75*
G02*
X107795000Y-101975000I75000J0D01*
G01*
X107945000Y-101975000D01*
G75*
G02*
X108020000Y-102050000I0J-75000D01*
G01*
G37*
G36*
G01*
X108520000Y-102050000D02*
X108520000Y-103040000D01*
G75*
G02*
X108445000Y-103115000I-75000J0D01*
G01*
X108295000Y-103115000D01*
G75*
G02*
X108220000Y-103040000I0J75000D01*
G01*
X108220000Y-102050000D01*
G75*
G02*
X108295000Y-101975000I75000J0D01*
G01*
X108445000Y-101975000D01*
G75*
G02*
X108520000Y-102050000I0J-75000D01*
G01*
G37*
G36*
G01*
X109020000Y-102050000D02*
X109020000Y-103040000D01*
G75*
G02*
X108945000Y-103115000I-75000J0D01*
G01*
X108795000Y-103115000D01*
G75*
G02*
X108720000Y-103040000I0J75000D01*
G01*
X108720000Y-102050000D01*
G75*
G02*
X108795000Y-101975000I75000J0D01*
G01*
X108945000Y-101975000D01*
G75*
G02*
X109020000Y-102050000I0J-75000D01*
G01*
G37*
G36*
G01*
X109520000Y-102050000D02*
X109520000Y-103040000D01*
G75*
G02*
X109445000Y-103115000I-75000J0D01*
G01*
X109295000Y-103115000D01*
G75*
G02*
X109220000Y-103040000I0J75000D01*
G01*
X109220000Y-102050000D01*
G75*
G02*
X109295000Y-101975000I75000J0D01*
G01*
X109445000Y-101975000D01*
G75*
G02*
X109520000Y-102050000I0J-75000D01*
G01*
G37*
G36*
G01*
X111170000Y-102130000D02*
X111170000Y-102960000D01*
G75*
G02*
X111020000Y-103110000I-150000J0D01*
G01*
X110720000Y-103110000D01*
G75*
G02*
X110570000Y-102960000I0J150000D01*
G01*
X110570000Y-102130000D01*
G75*
G02*
X110720000Y-101980000I150000J0D01*
G01*
X111020000Y-101980000D01*
G75*
G02*
X111170000Y-102130000I0J-150000D01*
G01*
G37*
%TD*%
D10*
%TO.C,K1*%
X105995000Y-127780000D03*
X109245000Y-127780000D03*
%TD*%
%TO.C,U3*%
G36*
G01*
X107101717Y-120344717D02*
X106517283Y-120344717D01*
G75*
G02*
X106267283Y-120094717I0J250000D01*
G01*
X106267283Y-119510283D01*
G75*
G02*
X106517283Y-119260283I250000J0D01*
G01*
X107101717Y-119260283D01*
G75*
G02*
X107351717Y-119510283I0J-250000D01*
G01*
X107351717Y-120094717D01*
G75*
G02*
X107101717Y-120344717I-250000J0D01*
G01*
G37*
G36*
G01*
X108376717Y-120344717D02*
X107792283Y-120344717D01*
G75*
G02*
X107542283Y-120094717I0J250000D01*
G01*
X107542283Y-119510283D01*
G75*
G02*
X107792283Y-119260283I250000J0D01*
G01*
X108376717Y-119260283D01*
G75*
G02*
X108626717Y-119510283I0J-250000D01*
G01*
X108626717Y-120094717D01*
G75*
G02*
X108376717Y-120344717I-250000J0D01*
G01*
G37*
G36*
G01*
X109651717Y-120344717D02*
X109067283Y-120344717D01*
G75*
G02*
X108817283Y-120094717I0J250000D01*
G01*
X108817283Y-119510283D01*
G75*
G02*
X109067283Y-119260283I250000J0D01*
G01*
X109651717Y-119260283D01*
G75*
G02*
X109901717Y-119510283I0J-250000D01*
G01*
X109901717Y-120094717D01*
G75*
G02*
X109651717Y-120344717I-250000J0D01*
G01*
G37*
G36*
G01*
X110926717Y-120344717D02*
X110342283Y-120344717D01*
G75*
G02*
X110092283Y-120094717I0J250000D01*
G01*
X110092283Y-119510283D01*
G75*
G02*
X110342283Y-119260283I250000J0D01*
G01*
X110926717Y-119260283D01*
G75*
G02*
X111176717Y-119510283I0J-250000D01*
G01*
X111176717Y-120094717D01*
G75*
G02*
X110926717Y-120344717I-250000J0D01*
G01*
G37*
G36*
G01*
X107101717Y-119069717D02*
X106517283Y-119069717D01*
G75*
G02*
X106267283Y-118819717I0J250000D01*
G01*
X106267283Y-118235283D01*
G75*
G02*
X106517283Y-117985283I250000J0D01*
G01*
X107101717Y-117985283D01*
G75*
G02*
X107351717Y-118235283I0J-250000D01*
G01*
X107351717Y-118819717D01*
G75*
G02*
X107101717Y-119069717I-250000J0D01*
G01*
G37*
G36*
G01*
X108376717Y-119069717D02*
X107792283Y-119069717D01*
G75*
G02*
X107542283Y-118819717I0J250000D01*
G01*
X107542283Y-118235283D01*
G75*
G02*
X107792283Y-117985283I250000J0D01*
G01*
X108376717Y-117985283D01*
G75*
G02*
X108626717Y-118235283I0J-250000D01*
G01*
X108626717Y-118819717D01*
G75*
G02*
X108376717Y-119069717I-250000J0D01*
G01*
G37*
G36*
G01*
X109651717Y-119069717D02*
X109067283Y-119069717D01*
G75*
G02*
X108817283Y-118819717I0J250000D01*
G01*
X108817283Y-118235283D01*
G75*
G02*
X109067283Y-117985283I250000J0D01*
G01*
X109651717Y-117985283D01*
G75*
G02*
X109901717Y-118235283I0J-250000D01*
G01*
X109901717Y-118819717D01*
G75*
G02*
X109651717Y-119069717I-250000J0D01*
G01*
G37*
G36*
G01*
X110926717Y-119069717D02*
X110342283Y-119069717D01*
G75*
G02*
X110092283Y-118819717I0J250000D01*
G01*
X110092283Y-118235283D01*
G75*
G02*
X110342283Y-117985283I250000J0D01*
G01*
X110926717Y-117985283D01*
G75*
G02*
X111176717Y-118235283I0J-250000D01*
G01*
X111176717Y-118819717D01*
G75*
G02*
X110926717Y-119069717I-250000J0D01*
G01*
G37*
G36*
G01*
X107101717Y-117794717D02*
X106517283Y-117794717D01*
G75*
G02*
X106267283Y-117544717I0J250000D01*
G01*
X106267283Y-116960283D01*
G75*
G02*
X106517283Y-116710283I250000J0D01*
G01*
X107101717Y-116710283D01*
G75*
G02*
X107351717Y-116960283I0J-250000D01*
G01*
X107351717Y-117544717D01*
G75*
G02*
X107101717Y-117794717I-250000J0D01*
G01*
G37*
G36*
G01*
X108376717Y-117794717D02*
X107792283Y-117794717D01*
G75*
G02*
X107542283Y-117544717I0J250000D01*
G01*
X107542283Y-116960283D01*
G75*
G02*
X107792283Y-116710283I250000J0D01*
G01*
X108376717Y-116710283D01*
G75*
G02*
X108626717Y-116960283I0J-250000D01*
G01*
X108626717Y-117544717D01*
G75*
G02*
X108376717Y-117794717I-250000J0D01*
G01*
G37*
G36*
G01*
X109651717Y-117794717D02*
X109067283Y-117794717D01*
G75*
G02*
X108817283Y-117544717I0J250000D01*
G01*
X108817283Y-116960283D01*
G75*
G02*
X109067283Y-116710283I250000J0D01*
G01*
X109651717Y-116710283D01*
G75*
G02*
X109901717Y-116960283I0J-250000D01*
G01*
X109901717Y-117544717D01*
G75*
G02*
X109651717Y-117794717I-250000J0D01*
G01*
G37*
G36*
G01*
X110926717Y-117794717D02*
X110342283Y-117794717D01*
G75*
G02*
X110092283Y-117544717I0J250000D01*
G01*
X110092283Y-116960283D01*
G75*
G02*
X110342283Y-116710283I250000J0D01*
G01*
X110926717Y-116710283D01*
G75*
G02*
X111176717Y-116960283I0J-250000D01*
G01*
X111176717Y-117544717D01*
G75*
G02*
X110926717Y-117794717I-250000J0D01*
G01*
G37*
G36*
G01*
X107101717Y-116519717D02*
X106517283Y-116519717D01*
G75*
G02*
X106267283Y-116269717I0J250000D01*
G01*
X106267283Y-115685283D01*
G75*
G02*
X106517283Y-115435283I250000J0D01*
G01*
X107101717Y-115435283D01*
G75*
G02*
X107351717Y-115685283I0J-250000D01*
G01*
X107351717Y-116269717D01*
G75*
G02*
X107101717Y-116519717I-250000J0D01*
G01*
G37*
G36*
G01*
X108376717Y-116519717D02*
X107792283Y-116519717D01*
G75*
G02*
X107542283Y-116269717I0J250000D01*
G01*
X107542283Y-115685283D01*
G75*
G02*
X107792283Y-115435283I250000J0D01*
G01*
X108376717Y-115435283D01*
G75*
G02*
X108626717Y-115685283I0J-250000D01*
G01*
X108626717Y-116269717D01*
G75*
G02*
X108376717Y-116519717I-250000J0D01*
G01*
G37*
G36*
G01*
X109651717Y-116519717D02*
X109067283Y-116519717D01*
G75*
G02*
X108817283Y-116269717I0J250000D01*
G01*
X108817283Y-115685283D01*
G75*
G02*
X109067283Y-115435283I250000J0D01*
G01*
X109651717Y-115435283D01*
G75*
G02*
X109901717Y-115685283I0J-250000D01*
G01*
X109901717Y-116269717D01*
G75*
G02*
X109651717Y-116519717I-250000J0D01*
G01*
G37*
G36*
G01*
X110926717Y-116519717D02*
X110342283Y-116519717D01*
G75*
G02*
X110092283Y-116269717I0J250000D01*
G01*
X110092283Y-115685283D01*
G75*
G02*
X110342283Y-115435283I250000J0D01*
G01*
X110926717Y-115435283D01*
G75*
G02*
X111176717Y-115685283I0J-250000D01*
G01*
X111176717Y-116269717D01*
G75*
G02*
X110926717Y-116519717I-250000J0D01*
G01*
G37*
G36*
G01*
X106034500Y-121765000D02*
X105909500Y-121765000D01*
G75*
G02*
X105847000Y-121702500I0J62500D01*
G01*
X105847000Y-120952500D01*
G75*
G02*
X105909500Y-120890000I62500J0D01*
G01*
X106034500Y-120890000D01*
G75*
G02*
X106097000Y-120952500I0J-62500D01*
G01*
X106097000Y-121702500D01*
G75*
G02*
X106034500Y-121765000I-62500J0D01*
G01*
G37*
G36*
G01*
X106534500Y-121765000D02*
X106409500Y-121765000D01*
G75*
G02*
X106347000Y-121702500I0J62500D01*
G01*
X106347000Y-120952500D01*
G75*
G02*
X106409500Y-120890000I62500J0D01*
G01*
X106534500Y-120890000D01*
G75*
G02*
X106597000Y-120952500I0J-62500D01*
G01*
X106597000Y-121702500D01*
G75*
G02*
X106534500Y-121765000I-62500J0D01*
G01*
G37*
G36*
G01*
X107034500Y-121765000D02*
X106909500Y-121765000D01*
G75*
G02*
X106847000Y-121702500I0J62500D01*
G01*
X106847000Y-120952500D01*
G75*
G02*
X106909500Y-120890000I62500J0D01*
G01*
X107034500Y-120890000D01*
G75*
G02*
X107097000Y-120952500I0J-62500D01*
G01*
X107097000Y-121702500D01*
G75*
G02*
X107034500Y-121765000I-62500J0D01*
G01*
G37*
G36*
G01*
X107534500Y-121765000D02*
X107409500Y-121765000D01*
G75*
G02*
X107347000Y-121702500I0J62500D01*
G01*
X107347000Y-120952500D01*
G75*
G02*
X107409500Y-120890000I62500J0D01*
G01*
X107534500Y-120890000D01*
G75*
G02*
X107597000Y-120952500I0J-62500D01*
G01*
X107597000Y-121702500D01*
G75*
G02*
X107534500Y-121765000I-62500J0D01*
G01*
G37*
G36*
G01*
X108034500Y-121765000D02*
X107909500Y-121765000D01*
G75*
G02*
X107847000Y-121702500I0J62500D01*
G01*
X107847000Y-120952500D01*
G75*
G02*
X107909500Y-120890000I62500J0D01*
G01*
X108034500Y-120890000D01*
G75*
G02*
X108097000Y-120952500I0J-62500D01*
G01*
X108097000Y-121702500D01*
G75*
G02*
X108034500Y-121765000I-62500J0D01*
G01*
G37*
G36*
G01*
X108534500Y-121765000D02*
X108409500Y-121765000D01*
G75*
G02*
X108347000Y-121702500I0J62500D01*
G01*
X108347000Y-120952500D01*
G75*
G02*
X108409500Y-120890000I62500J0D01*
G01*
X108534500Y-120890000D01*
G75*
G02*
X108597000Y-120952500I0J-62500D01*
G01*
X108597000Y-121702500D01*
G75*
G02*
X108534500Y-121765000I-62500J0D01*
G01*
G37*
G36*
G01*
X109034500Y-121765000D02*
X108909500Y-121765000D01*
G75*
G02*
X108847000Y-121702500I0J62500D01*
G01*
X108847000Y-120952500D01*
G75*
G02*
X108909500Y-120890000I62500J0D01*
G01*
X109034500Y-120890000D01*
G75*
G02*
X109097000Y-120952500I0J-62500D01*
G01*
X109097000Y-121702500D01*
G75*
G02*
X109034500Y-121765000I-62500J0D01*
G01*
G37*
G36*
G01*
X109534500Y-121765000D02*
X109409500Y-121765000D01*
G75*
G02*
X109347000Y-121702500I0J62500D01*
G01*
X109347000Y-120952500D01*
G75*
G02*
X109409500Y-120890000I62500J0D01*
G01*
X109534500Y-120890000D01*
G75*
G02*
X109597000Y-120952500I0J-62500D01*
G01*
X109597000Y-121702500D01*
G75*
G02*
X109534500Y-121765000I-62500J0D01*
G01*
G37*
G36*
G01*
X110034500Y-121765000D02*
X109909500Y-121765000D01*
G75*
G02*
X109847000Y-121702500I0J62500D01*
G01*
X109847000Y-120952500D01*
G75*
G02*
X109909500Y-120890000I62500J0D01*
G01*
X110034500Y-120890000D01*
G75*
G02*
X110097000Y-120952500I0J-62500D01*
G01*
X110097000Y-121702500D01*
G75*
G02*
X110034500Y-121765000I-62500J0D01*
G01*
G37*
G36*
G01*
X110534500Y-121765000D02*
X110409500Y-121765000D01*
G75*
G02*
X110347000Y-121702500I0J62500D01*
G01*
X110347000Y-120952500D01*
G75*
G02*
X110409500Y-120890000I62500J0D01*
G01*
X110534500Y-120890000D01*
G75*
G02*
X110597000Y-120952500I0J-62500D01*
G01*
X110597000Y-121702500D01*
G75*
G02*
X110534500Y-121765000I-62500J0D01*
G01*
G37*
G36*
G01*
X111034500Y-121765000D02*
X110909500Y-121765000D01*
G75*
G02*
X110847000Y-121702500I0J62500D01*
G01*
X110847000Y-120952500D01*
G75*
G02*
X110909500Y-120890000I62500J0D01*
G01*
X111034500Y-120890000D01*
G75*
G02*
X111097000Y-120952500I0J-62500D01*
G01*
X111097000Y-121702500D01*
G75*
G02*
X111034500Y-121765000I-62500J0D01*
G01*
G37*
G36*
G01*
X111534500Y-121765000D02*
X111409500Y-121765000D01*
G75*
G02*
X111347000Y-121702500I0J62500D01*
G01*
X111347000Y-120952500D01*
G75*
G02*
X111409500Y-120890000I62500J0D01*
G01*
X111534500Y-120890000D01*
G75*
G02*
X111597000Y-120952500I0J-62500D01*
G01*
X111597000Y-121702500D01*
G75*
G02*
X111534500Y-121765000I-62500J0D01*
G01*
G37*
G36*
G01*
X112534500Y-120765000D02*
X111784500Y-120765000D01*
G75*
G02*
X111722000Y-120702500I0J62500D01*
G01*
X111722000Y-120577500D01*
G75*
G02*
X111784500Y-120515000I62500J0D01*
G01*
X112534500Y-120515000D01*
G75*
G02*
X112597000Y-120577500I0J-62500D01*
G01*
X112597000Y-120702500D01*
G75*
G02*
X112534500Y-120765000I-62500J0D01*
G01*
G37*
G36*
G01*
X112534500Y-120265000D02*
X111784500Y-120265000D01*
G75*
G02*
X111722000Y-120202500I0J62500D01*
G01*
X111722000Y-120077500D01*
G75*
G02*
X111784500Y-120015000I62500J0D01*
G01*
X112534500Y-120015000D01*
G75*
G02*
X112597000Y-120077500I0J-62500D01*
G01*
X112597000Y-120202500D01*
G75*
G02*
X112534500Y-120265000I-62500J0D01*
G01*
G37*
G36*
G01*
X112534500Y-119765000D02*
X111784500Y-119765000D01*
G75*
G02*
X111722000Y-119702500I0J62500D01*
G01*
X111722000Y-119577500D01*
G75*
G02*
X111784500Y-119515000I62500J0D01*
G01*
X112534500Y-119515000D01*
G75*
G02*
X112597000Y-119577500I0J-62500D01*
G01*
X112597000Y-119702500D01*
G75*
G02*
X112534500Y-119765000I-62500J0D01*
G01*
G37*
G36*
G01*
X112534500Y-119265000D02*
X111784500Y-119265000D01*
G75*
G02*
X111722000Y-119202500I0J62500D01*
G01*
X111722000Y-119077500D01*
G75*
G02*
X111784500Y-119015000I62500J0D01*
G01*
X112534500Y-119015000D01*
G75*
G02*
X112597000Y-119077500I0J-62500D01*
G01*
X112597000Y-119202500D01*
G75*
G02*
X112534500Y-119265000I-62500J0D01*
G01*
G37*
G36*
G01*
X112534500Y-118765000D02*
X111784500Y-118765000D01*
G75*
G02*
X111722000Y-118702500I0J62500D01*
G01*
X111722000Y-118577500D01*
G75*
G02*
X111784500Y-118515000I62500J0D01*
G01*
X112534500Y-118515000D01*
G75*
G02*
X112597000Y-118577500I0J-62500D01*
G01*
X112597000Y-118702500D01*
G75*
G02*
X112534500Y-118765000I-62500J0D01*
G01*
G37*
G36*
G01*
X112534500Y-118265000D02*
X111784500Y-118265000D01*
G75*
G02*
X111722000Y-118202500I0J62500D01*
G01*
X111722000Y-118077500D01*
G75*
G02*
X111784500Y-118015000I62500J0D01*
G01*
X112534500Y-118015000D01*
G75*
G02*
X112597000Y-118077500I0J-62500D01*
G01*
X112597000Y-118202500D01*
G75*
G02*
X112534500Y-118265000I-62500J0D01*
G01*
G37*
G36*
G01*
X112534500Y-117765000D02*
X111784500Y-117765000D01*
G75*
G02*
X111722000Y-117702500I0J62500D01*
G01*
X111722000Y-117577500D01*
G75*
G02*
X111784500Y-117515000I62500J0D01*
G01*
X112534500Y-117515000D01*
G75*
G02*
X112597000Y-117577500I0J-62500D01*
G01*
X112597000Y-117702500D01*
G75*
G02*
X112534500Y-117765000I-62500J0D01*
G01*
G37*
G36*
G01*
X112534500Y-117265000D02*
X111784500Y-117265000D01*
G75*
G02*
X111722000Y-117202500I0J62500D01*
G01*
X111722000Y-117077500D01*
G75*
G02*
X111784500Y-117015000I62500J0D01*
G01*
X112534500Y-117015000D01*
G75*
G02*
X112597000Y-117077500I0J-62500D01*
G01*
X112597000Y-117202500D01*
G75*
G02*
X112534500Y-117265000I-62500J0D01*
G01*
G37*
G36*
G01*
X112534500Y-116765000D02*
X111784500Y-116765000D01*
G75*
G02*
X111722000Y-116702500I0J62500D01*
G01*
X111722000Y-116577500D01*
G75*
G02*
X111784500Y-116515000I62500J0D01*
G01*
X112534500Y-116515000D01*
G75*
G02*
X112597000Y-116577500I0J-62500D01*
G01*
X112597000Y-116702500D01*
G75*
G02*
X112534500Y-116765000I-62500J0D01*
G01*
G37*
G36*
G01*
X112534500Y-116265000D02*
X111784500Y-116265000D01*
G75*
G02*
X111722000Y-116202500I0J62500D01*
G01*
X111722000Y-116077500D01*
G75*
G02*
X111784500Y-116015000I62500J0D01*
G01*
X112534500Y-116015000D01*
G75*
G02*
X112597000Y-116077500I0J-62500D01*
G01*
X112597000Y-116202500D01*
G75*
G02*
X112534500Y-116265000I-62500J0D01*
G01*
G37*
G36*
G01*
X112534500Y-115765000D02*
X111784500Y-115765000D01*
G75*
G02*
X111722000Y-115702500I0J62500D01*
G01*
X111722000Y-115577500D01*
G75*
G02*
X111784500Y-115515000I62500J0D01*
G01*
X112534500Y-115515000D01*
G75*
G02*
X112597000Y-115577500I0J-62500D01*
G01*
X112597000Y-115702500D01*
G75*
G02*
X112534500Y-115765000I-62500J0D01*
G01*
G37*
G36*
G01*
X112534500Y-115265000D02*
X111784500Y-115265000D01*
G75*
G02*
X111722000Y-115202500I0J62500D01*
G01*
X111722000Y-115077500D01*
G75*
G02*
X111784500Y-115015000I62500J0D01*
G01*
X112534500Y-115015000D01*
G75*
G02*
X112597000Y-115077500I0J-62500D01*
G01*
X112597000Y-115202500D01*
G75*
G02*
X112534500Y-115265000I-62500J0D01*
G01*
G37*
G36*
G01*
X111534500Y-114890000D02*
X111409500Y-114890000D01*
G75*
G02*
X111347000Y-114827500I0J62500D01*
G01*
X111347000Y-114077500D01*
G75*
G02*
X111409500Y-114015000I62500J0D01*
G01*
X111534500Y-114015000D01*
G75*
G02*
X111597000Y-114077500I0J-62500D01*
G01*
X111597000Y-114827500D01*
G75*
G02*
X111534500Y-114890000I-62500J0D01*
G01*
G37*
G36*
G01*
X111034500Y-114890000D02*
X110909500Y-114890000D01*
G75*
G02*
X110847000Y-114827500I0J62500D01*
G01*
X110847000Y-114077500D01*
G75*
G02*
X110909500Y-114015000I62500J0D01*
G01*
X111034500Y-114015000D01*
G75*
G02*
X111097000Y-114077500I0J-62500D01*
G01*
X111097000Y-114827500D01*
G75*
G02*
X111034500Y-114890000I-62500J0D01*
G01*
G37*
G36*
G01*
X110534500Y-114890000D02*
X110409500Y-114890000D01*
G75*
G02*
X110347000Y-114827500I0J62500D01*
G01*
X110347000Y-114077500D01*
G75*
G02*
X110409500Y-114015000I62500J0D01*
G01*
X110534500Y-114015000D01*
G75*
G02*
X110597000Y-114077500I0J-62500D01*
G01*
X110597000Y-114827500D01*
G75*
G02*
X110534500Y-114890000I-62500J0D01*
G01*
G37*
G36*
G01*
X110034500Y-114890000D02*
X109909500Y-114890000D01*
G75*
G02*
X109847000Y-114827500I0J62500D01*
G01*
X109847000Y-114077500D01*
G75*
G02*
X109909500Y-114015000I62500J0D01*
G01*
X110034500Y-114015000D01*
G75*
G02*
X110097000Y-114077500I0J-62500D01*
G01*
X110097000Y-114827500D01*
G75*
G02*
X110034500Y-114890000I-62500J0D01*
G01*
G37*
G36*
G01*
X109534500Y-114890000D02*
X109409500Y-114890000D01*
G75*
G02*
X109347000Y-114827500I0J62500D01*
G01*
X109347000Y-114077500D01*
G75*
G02*
X109409500Y-114015000I62500J0D01*
G01*
X109534500Y-114015000D01*
G75*
G02*
X109597000Y-114077500I0J-62500D01*
G01*
X109597000Y-114827500D01*
G75*
G02*
X109534500Y-114890000I-62500J0D01*
G01*
G37*
G36*
G01*
X109034500Y-114890000D02*
X108909500Y-114890000D01*
G75*
G02*
X108847000Y-114827500I0J62500D01*
G01*
X108847000Y-114077500D01*
G75*
G02*
X108909500Y-114015000I62500J0D01*
G01*
X109034500Y-114015000D01*
G75*
G02*
X109097000Y-114077500I0J-62500D01*
G01*
X109097000Y-114827500D01*
G75*
G02*
X109034500Y-114890000I-62500J0D01*
G01*
G37*
G36*
G01*
X108534500Y-114890000D02*
X108409500Y-114890000D01*
G75*
G02*
X108347000Y-114827500I0J62500D01*
G01*
X108347000Y-114077500D01*
G75*
G02*
X108409500Y-114015000I62500J0D01*
G01*
X108534500Y-114015000D01*
G75*
G02*
X108597000Y-114077500I0J-62500D01*
G01*
X108597000Y-114827500D01*
G75*
G02*
X108534500Y-114890000I-62500J0D01*
G01*
G37*
G36*
G01*
X108034500Y-114890000D02*
X107909500Y-114890000D01*
G75*
G02*
X107847000Y-114827500I0J62500D01*
G01*
X107847000Y-114077500D01*
G75*
G02*
X107909500Y-114015000I62500J0D01*
G01*
X108034500Y-114015000D01*
G75*
G02*
X108097000Y-114077500I0J-62500D01*
G01*
X108097000Y-114827500D01*
G75*
G02*
X108034500Y-114890000I-62500J0D01*
G01*
G37*
G36*
G01*
X107534500Y-114890000D02*
X107409500Y-114890000D01*
G75*
G02*
X107347000Y-114827500I0J62500D01*
G01*
X107347000Y-114077500D01*
G75*
G02*
X107409500Y-114015000I62500J0D01*
G01*
X107534500Y-114015000D01*
G75*
G02*
X107597000Y-114077500I0J-62500D01*
G01*
X107597000Y-114827500D01*
G75*
G02*
X107534500Y-114890000I-62500J0D01*
G01*
G37*
G36*
G01*
X107034500Y-114890000D02*
X106909500Y-114890000D01*
G75*
G02*
X106847000Y-114827500I0J62500D01*
G01*
X106847000Y-114077500D01*
G75*
G02*
X106909500Y-114015000I62500J0D01*
G01*
X107034500Y-114015000D01*
G75*
G02*
X107097000Y-114077500I0J-62500D01*
G01*
X107097000Y-114827500D01*
G75*
G02*
X107034500Y-114890000I-62500J0D01*
G01*
G37*
G36*
G01*
X106534500Y-114890000D02*
X106409500Y-114890000D01*
G75*
G02*
X106347000Y-114827500I0J62500D01*
G01*
X106347000Y-114077500D01*
G75*
G02*
X106409500Y-114015000I62500J0D01*
G01*
X106534500Y-114015000D01*
G75*
G02*
X106597000Y-114077500I0J-62500D01*
G01*
X106597000Y-114827500D01*
G75*
G02*
X106534500Y-114890000I-62500J0D01*
G01*
G37*
G36*
G01*
X106034500Y-114890000D02*
X105909500Y-114890000D01*
G75*
G02*
X105847000Y-114827500I0J62500D01*
G01*
X105847000Y-114077500D01*
G75*
G02*
X105909500Y-114015000I62500J0D01*
G01*
X106034500Y-114015000D01*
G75*
G02*
X106097000Y-114077500I0J-62500D01*
G01*
X106097000Y-114827500D01*
G75*
G02*
X106034500Y-114890000I-62500J0D01*
G01*
G37*
G36*
G01*
X105659500Y-115265000D02*
X104909500Y-115265000D01*
G75*
G02*
X104847000Y-115202500I0J62500D01*
G01*
X104847000Y-115077500D01*
G75*
G02*
X104909500Y-115015000I62500J0D01*
G01*
X105659500Y-115015000D01*
G75*
G02*
X105722000Y-115077500I0J-62500D01*
G01*
X105722000Y-115202500D01*
G75*
G02*
X105659500Y-115265000I-62500J0D01*
G01*
G37*
G36*
G01*
X105659500Y-115765000D02*
X104909500Y-115765000D01*
G75*
G02*
X104847000Y-115702500I0J62500D01*
G01*
X104847000Y-115577500D01*
G75*
G02*
X104909500Y-115515000I62500J0D01*
G01*
X105659500Y-115515000D01*
G75*
G02*
X105722000Y-115577500I0J-62500D01*
G01*
X105722000Y-115702500D01*
G75*
G02*
X105659500Y-115765000I-62500J0D01*
G01*
G37*
G36*
G01*
X105659500Y-116265000D02*
X104909500Y-116265000D01*
G75*
G02*
X104847000Y-116202500I0J62500D01*
G01*
X104847000Y-116077500D01*
G75*
G02*
X104909500Y-116015000I62500J0D01*
G01*
X105659500Y-116015000D01*
G75*
G02*
X105722000Y-116077500I0J-62500D01*
G01*
X105722000Y-116202500D01*
G75*
G02*
X105659500Y-116265000I-62500J0D01*
G01*
G37*
G36*
G01*
X105659500Y-116765000D02*
X104909500Y-116765000D01*
G75*
G02*
X104847000Y-116702500I0J62500D01*
G01*
X104847000Y-116577500D01*
G75*
G02*
X104909500Y-116515000I62500J0D01*
G01*
X105659500Y-116515000D01*
G75*
G02*
X105722000Y-116577500I0J-62500D01*
G01*
X105722000Y-116702500D01*
G75*
G02*
X105659500Y-116765000I-62500J0D01*
G01*
G37*
G36*
G01*
X105659500Y-117265000D02*
X104909500Y-117265000D01*
G75*
G02*
X104847000Y-117202500I0J62500D01*
G01*
X104847000Y-117077500D01*
G75*
G02*
X104909500Y-117015000I62500J0D01*
G01*
X105659500Y-117015000D01*
G75*
G02*
X105722000Y-117077500I0J-62500D01*
G01*
X105722000Y-117202500D01*
G75*
G02*
X105659500Y-117265000I-62500J0D01*
G01*
G37*
G36*
G01*
X105659500Y-117765000D02*
X104909500Y-117765000D01*
G75*
G02*
X104847000Y-117702500I0J62500D01*
G01*
X104847000Y-117577500D01*
G75*
G02*
X104909500Y-117515000I62500J0D01*
G01*
X105659500Y-117515000D01*
G75*
G02*
X105722000Y-117577500I0J-62500D01*
G01*
X105722000Y-117702500D01*
G75*
G02*
X105659500Y-117765000I-62500J0D01*
G01*
G37*
G36*
G01*
X105659500Y-118265000D02*
X104909500Y-118265000D01*
G75*
G02*
X104847000Y-118202500I0J62500D01*
G01*
X104847000Y-118077500D01*
G75*
G02*
X104909500Y-118015000I62500J0D01*
G01*
X105659500Y-118015000D01*
G75*
G02*
X105722000Y-118077500I0J-62500D01*
G01*
X105722000Y-118202500D01*
G75*
G02*
X105659500Y-118265000I-62500J0D01*
G01*
G37*
G36*
G01*
X105659500Y-118765000D02*
X104909500Y-118765000D01*
G75*
G02*
X104847000Y-118702500I0J62500D01*
G01*
X104847000Y-118577500D01*
G75*
G02*
X104909500Y-118515000I62500J0D01*
G01*
X105659500Y-118515000D01*
G75*
G02*
X105722000Y-118577500I0J-62500D01*
G01*
X105722000Y-118702500D01*
G75*
G02*
X105659500Y-118765000I-62500J0D01*
G01*
G37*
G36*
G01*
X105659500Y-119265000D02*
X104909500Y-119265000D01*
G75*
G02*
X104847000Y-119202500I0J62500D01*
G01*
X104847000Y-119077500D01*
G75*
G02*
X104909500Y-119015000I62500J0D01*
G01*
X105659500Y-119015000D01*
G75*
G02*
X105722000Y-119077500I0J-62500D01*
G01*
X105722000Y-119202500D01*
G75*
G02*
X105659500Y-119265000I-62500J0D01*
G01*
G37*
G36*
G01*
X105659500Y-119765000D02*
X104909500Y-119765000D01*
G75*
G02*
X104847000Y-119702500I0J62500D01*
G01*
X104847000Y-119577500D01*
G75*
G02*
X104909500Y-119515000I62500J0D01*
G01*
X105659500Y-119515000D01*
G75*
G02*
X105722000Y-119577500I0J-62500D01*
G01*
X105722000Y-119702500D01*
G75*
G02*
X105659500Y-119765000I-62500J0D01*
G01*
G37*
G36*
G01*
X105659500Y-120265000D02*
X104909500Y-120265000D01*
G75*
G02*
X104847000Y-120202500I0J62500D01*
G01*
X104847000Y-120077500D01*
G75*
G02*
X104909500Y-120015000I62500J0D01*
G01*
X105659500Y-120015000D01*
G75*
G02*
X105722000Y-120077500I0J-62500D01*
G01*
X105722000Y-120202500D01*
G75*
G02*
X105659500Y-120265000I-62500J0D01*
G01*
G37*
G36*
G01*
X105659500Y-120765000D02*
X104909500Y-120765000D01*
G75*
G02*
X104847000Y-120702500I0J62500D01*
G01*
X104847000Y-120577500D01*
G75*
G02*
X104909500Y-120515000I62500J0D01*
G01*
X105659500Y-120515000D01*
G75*
G02*
X105722000Y-120577500I0J-62500D01*
G01*
X105722000Y-120702500D01*
G75*
G02*
X105659500Y-120765000I-62500J0D01*
G01*
G37*
%TD*%
%TO.C,C11*%
G36*
G01*
X102678000Y-111195500D02*
X102678000Y-111540500D01*
G75*
G02*
X102530500Y-111688000I-147500J0D01*
G01*
X102235500Y-111688000D01*
G75*
G02*
X102088000Y-111540500I0J147500D01*
G01*
X102088000Y-111195500D01*
G75*
G02*
X102235500Y-111048000I147500J0D01*
G01*
X102530500Y-111048000D01*
G75*
G02*
X102678000Y-111195500I0J-147500D01*
G01*
G37*
G36*
G01*
X103648000Y-111195500D02*
X103648000Y-111540500D01*
G75*
G02*
X103500500Y-111688000I-147500J0D01*
G01*
X103205500Y-111688000D01*
G75*
G02*
X103058000Y-111540500I0J147500D01*
G01*
X103058000Y-111195500D01*
G75*
G02*
X103205500Y-111048000I147500J0D01*
G01*
X103500500Y-111048000D01*
G75*
G02*
X103648000Y-111195500I0J-147500D01*
G01*
G37*
%TD*%
D11*
%TO.C,U2*%
X103114000Y-109412000D03*
X104064000Y-109412000D03*
X102164000Y-109412000D03*
X102164000Y-107212000D03*
X103114000Y-107212000D03*
X104064000Y-107212000D03*
%TD*%
%TO.C,R9*%
G36*
G01*
X113626500Y-121018000D02*
X113281500Y-121018000D01*
G75*
G02*
X113134000Y-120870500I0J147500D01*
G01*
X113134000Y-120575500D01*
G75*
G02*
X113281500Y-120428000I147500J0D01*
G01*
X113626500Y-120428000D01*
G75*
G02*
X113774000Y-120575500I0J-147500D01*
G01*
X113774000Y-120870500D01*
G75*
G02*
X113626500Y-121018000I-147500J0D01*
G01*
G37*
G36*
G01*
X113626500Y-121988000D02*
X113281500Y-121988000D01*
G75*
G02*
X113134000Y-121840500I0J147500D01*
G01*
X113134000Y-121545500D01*
G75*
G02*
X113281500Y-121398000I147500J0D01*
G01*
X113626500Y-121398000D01*
G75*
G02*
X113774000Y-121545500I0J-147500D01*
G01*
X113774000Y-121840500D01*
G75*
G02*
X113626500Y-121988000I-147500J0D01*
G01*
G37*
%TD*%
%TO.C,R8*%
G36*
G01*
X108863000Y-112922500D02*
X108863000Y-112577500D01*
G75*
G02*
X109010500Y-112430000I147500J0D01*
G01*
X109305500Y-112430000D01*
G75*
G02*
X109453000Y-112577500I0J-147500D01*
G01*
X109453000Y-112922500D01*
G75*
G02*
X109305500Y-113070000I-147500J0D01*
G01*
X109010500Y-113070000D01*
G75*
G02*
X108863000Y-112922500I0J147500D01*
G01*
G37*
G36*
G01*
X107893000Y-112922500D02*
X107893000Y-112577500D01*
G75*
G02*
X108040500Y-112430000I147500J0D01*
G01*
X108335500Y-112430000D01*
G75*
G02*
X108483000Y-112577500I0J-147500D01*
G01*
X108483000Y-112922500D01*
G75*
G02*
X108335500Y-113070000I-147500J0D01*
G01*
X108040500Y-113070000D01*
G75*
G02*
X107893000Y-112922500I0J147500D01*
G01*
G37*
%TD*%
D12*
%TO.C,D5*%
X110330000Y-111530000D03*
X110330000Y-112930000D03*
%TD*%
D13*
%TO.C,D4*%
X105691000Y-107561000D03*
X108591000Y-107561000D03*
%TD*%
%TO.C,C6*%
G36*
G01*
X113634500Y-112731000D02*
X113289500Y-112731000D01*
G75*
G02*
X113142000Y-112583500I0J147500D01*
G01*
X113142000Y-112288500D01*
G75*
G02*
X113289500Y-112141000I147500J0D01*
G01*
X113634500Y-112141000D01*
G75*
G02*
X113782000Y-112288500I0J-147500D01*
G01*
X113782000Y-112583500D01*
G75*
G02*
X113634500Y-112731000I-147500J0D01*
G01*
G37*
G36*
G01*
X113634500Y-111761000D02*
X113289500Y-111761000D01*
G75*
G02*
X113142000Y-111613500I0J147500D01*
G01*
X113142000Y-111318500D01*
G75*
G02*
X113289500Y-111171000I147500J0D01*
G01*
X113634500Y-111171000D01*
G75*
G02*
X113782000Y-111318500I0J-147500D01*
G01*
X113782000Y-111613500D01*
G75*
G02*
X113634500Y-111761000I-147500J0D01*
G01*
G37*
%TD*%
D12*
%TO.C,D1*%
X108905000Y-111702000D03*
X108905000Y-110302000D03*
%TD*%
%TO.C,C14*%
G36*
G01*
X113273500Y-117127000D02*
X113618500Y-117127000D01*
G75*
G02*
X113766000Y-117274500I0J-147500D01*
G01*
X113766000Y-117569500D01*
G75*
G02*
X113618500Y-117717000I-147500J0D01*
G01*
X113273500Y-117717000D01*
G75*
G02*
X113126000Y-117569500I0J147500D01*
G01*
X113126000Y-117274500D01*
G75*
G02*
X113273500Y-117127000I147500J0D01*
G01*
G37*
G36*
G01*
X113273500Y-116157000D02*
X113618500Y-116157000D01*
G75*
G02*
X113766000Y-116304500I0J-147500D01*
G01*
X113766000Y-116599500D01*
G75*
G02*
X113618500Y-116747000I-147500J0D01*
G01*
X113273500Y-116747000D01*
G75*
G02*
X113126000Y-116599500I0J147500D01*
G01*
X113126000Y-116304500D01*
G75*
G02*
X113273500Y-116157000I147500J0D01*
G01*
G37*
%TD*%
D14*
%TO.C,U5*%
X103859000Y-112625000D03*
X103859000Y-113925000D03*
X101959000Y-113275000D03*
X101959000Y-113925000D03*
X101959000Y-112625000D03*
%TD*%
%TO.C,R7*%
G36*
G01*
X112122000Y-128487500D02*
X112122000Y-128142500D01*
G75*
G02*
X112269500Y-127995000I147500J0D01*
G01*
X112564500Y-127995000D01*
G75*
G02*
X112712000Y-128142500I0J-147500D01*
G01*
X112712000Y-128487500D01*
G75*
G02*
X112564500Y-128635000I-147500J0D01*
G01*
X112269500Y-128635000D01*
G75*
G02*
X112122000Y-128487500I0J147500D01*
G01*
G37*
G36*
G01*
X111152000Y-128487500D02*
X111152000Y-128142500D01*
G75*
G02*
X111299500Y-127995000I147500J0D01*
G01*
X111594500Y-127995000D01*
G75*
G02*
X111742000Y-128142500I0J-147500D01*
G01*
X111742000Y-128487500D01*
G75*
G02*
X111594500Y-128635000I-147500J0D01*
G01*
X111299500Y-128635000D01*
G75*
G02*
X111152000Y-128487500I0J147500D01*
G01*
G37*
%TD*%
%TO.C,R6*%
G36*
G01*
X112182000Y-112580500D02*
X112182000Y-112235500D01*
G75*
G02*
X112329500Y-112088000I147500J0D01*
G01*
X112624500Y-112088000D01*
G75*
G02*
X112772000Y-112235500I0J-147500D01*
G01*
X112772000Y-112580500D01*
G75*
G02*
X112624500Y-112728000I-147500J0D01*
G01*
X112329500Y-112728000D01*
G75*
G02*
X112182000Y-112580500I0J147500D01*
G01*
G37*
G36*
G01*
X111212000Y-112580500D02*
X111212000Y-112235500D01*
G75*
G02*
X111359500Y-112088000I147500J0D01*
G01*
X111654500Y-112088000D01*
G75*
G02*
X111802000Y-112235500I0J-147500D01*
G01*
X111802000Y-112580500D01*
G75*
G02*
X111654500Y-112728000I-147500J0D01*
G01*
X111359500Y-112728000D01*
G75*
G02*
X111212000Y-112580500I0J147500D01*
G01*
G37*
%TD*%
%TO.C,R5*%
G36*
G01*
X111799000Y-111277500D02*
X111799000Y-111622500D01*
G75*
G02*
X111651500Y-111770000I-147500J0D01*
G01*
X111356500Y-111770000D01*
G75*
G02*
X111209000Y-111622500I0J147500D01*
G01*
X111209000Y-111277500D01*
G75*
G02*
X111356500Y-111130000I147500J0D01*
G01*
X111651500Y-111130000D01*
G75*
G02*
X111799000Y-111277500I0J-147500D01*
G01*
G37*
G36*
G01*
X112769000Y-111277500D02*
X112769000Y-111622500D01*
G75*
G02*
X112621500Y-111770000I-147500J0D01*
G01*
X112326500Y-111770000D01*
G75*
G02*
X112179000Y-111622500I0J147500D01*
G01*
X112179000Y-111277500D01*
G75*
G02*
X112326500Y-111130000I147500J0D01*
G01*
X112621500Y-111130000D01*
G75*
G02*
X112769000Y-111277500I0J-147500D01*
G01*
G37*
%TD*%
D15*
%TO.C,Q2*%
X101982000Y-116967000D03*
X101982000Y-115667000D03*
X103822000Y-116317000D03*
X101982000Y-116317000D03*
X103822000Y-115667000D03*
X103822000Y-116967000D03*
%TD*%
D16*
%TO.C,D2*%
X111300000Y-127145000D03*
X112700000Y-127145000D03*
%TD*%
D17*
%TO.C,U1*%
X113132000Y-108205000D03*
X113132000Y-110105000D03*
X110932000Y-110105000D03*
X110932000Y-109155000D03*
X110932000Y-108205000D03*
%TD*%
D14*
%TO.C,U4*%
X107519000Y-109524000D03*
X107519000Y-110824000D03*
X105619000Y-110174000D03*
X105619000Y-110824000D03*
X105619000Y-109524000D03*
%TD*%
D15*
%TO.C,Q1*%
X113272000Y-124390000D03*
X113272000Y-125690000D03*
X111432000Y-125040000D03*
X113272000Y-125040000D03*
X111432000Y-125690000D03*
X111432000Y-124390000D03*
%TD*%
%TO.C,C2*%
G36*
G01*
X113274500Y-115252000D02*
X113619500Y-115252000D01*
G75*
G02*
X113767000Y-115399500I0J-147500D01*
G01*
X113767000Y-115694500D01*
G75*
G02*
X113619500Y-115842000I-147500J0D01*
G01*
X113274500Y-115842000D01*
G75*
G02*
X113127000Y-115694500I0J147500D01*
G01*
X113127000Y-115399500D01*
G75*
G02*
X113274500Y-115252000I147500J0D01*
G01*
G37*
G36*
G01*
X113274500Y-114282000D02*
X113619500Y-114282000D01*
G75*
G02*
X113767000Y-114429500I0J-147500D01*
G01*
X113767000Y-114724500D01*
G75*
G02*
X113619500Y-114872000I-147500J0D01*
G01*
X113274500Y-114872000D01*
G75*
G02*
X113127000Y-114724500I0J147500D01*
G01*
X113127000Y-114429500D01*
G75*
G02*
X113274500Y-114282000I147500J0D01*
G01*
G37*
%TD*%
%TO.C,D3*%
G36*
G01*
X102327500Y-124541000D02*
X101982500Y-124541000D01*
G75*
G02*
X101835000Y-124393500I0J147500D01*
G01*
X101835000Y-124098500D01*
G75*
G02*
X101982500Y-123951000I147500J0D01*
G01*
X102327500Y-123951000D01*
G75*
G02*
X102475000Y-124098500I0J-147500D01*
G01*
X102475000Y-124393500D01*
G75*
G02*
X102327500Y-124541000I-147500J0D01*
G01*
G37*
G36*
G01*
X102327500Y-125511000D02*
X101982500Y-125511000D01*
G75*
G02*
X101835000Y-125363500I0J147500D01*
G01*
X101835000Y-125068500D01*
G75*
G02*
X101982500Y-124921000I147500J0D01*
G01*
X102327500Y-124921000D01*
G75*
G02*
X102475000Y-125068500I0J-147500D01*
G01*
X102475000Y-125363500D01*
G75*
G02*
X102327500Y-125511000I-147500J0D01*
G01*
G37*
%TD*%
D18*
%TO.C,Y1*%
X109668000Y-124880000D03*
X105350000Y-124880000D03*
%TD*%
%TO.C,C3*%
G36*
G01*
X111046000Y-122797500D02*
X111046000Y-122452500D01*
G75*
G02*
X111193500Y-122305000I147500J0D01*
G01*
X111488500Y-122305000D01*
G75*
G02*
X111636000Y-122452500I0J-147500D01*
G01*
X111636000Y-122797500D01*
G75*
G02*
X111488500Y-122945000I-147500J0D01*
G01*
X111193500Y-122945000D01*
G75*
G02*
X111046000Y-122797500I0J147500D01*
G01*
G37*
G36*
G01*
X110076000Y-122797500D02*
X110076000Y-122452500D01*
G75*
G02*
X110223500Y-122305000I147500J0D01*
G01*
X110518500Y-122305000D01*
G75*
G02*
X110666000Y-122452500I0J-147500D01*
G01*
X110666000Y-122797500D01*
G75*
G02*
X110518500Y-122945000I-147500J0D01*
G01*
X110223500Y-122945000D01*
G75*
G02*
X110076000Y-122797500I0J147500D01*
G01*
G37*
%TD*%
%TO.C,C12*%
G36*
G01*
X113185500Y-99787000D02*
X113530500Y-99787000D01*
G75*
G02*
X113678000Y-99934500I0J-147500D01*
G01*
X113678000Y-100229500D01*
G75*
G02*
X113530500Y-100377000I-147500J0D01*
G01*
X113185500Y-100377000D01*
G75*
G02*
X113038000Y-100229500I0J147500D01*
G01*
X113038000Y-99934500D01*
G75*
G02*
X113185500Y-99787000I147500J0D01*
G01*
G37*
G36*
G01*
X113185500Y-98817000D02*
X113530500Y-98817000D01*
G75*
G02*
X113678000Y-98964500I0J-147500D01*
G01*
X113678000Y-99259500D01*
G75*
G02*
X113530500Y-99407000I-147500J0D01*
G01*
X113185500Y-99407000D01*
G75*
G02*
X113038000Y-99259500I0J147500D01*
G01*
X113038000Y-98964500D01*
G75*
G02*
X113185500Y-98817000I147500J0D01*
G01*
G37*
%TD*%
%TO.C,FB1*%
G36*
G01*
X101648500Y-99840000D02*
X101993500Y-99840000D01*
G75*
G02*
X102141000Y-99987500I0J-147500D01*
G01*
X102141000Y-100282500D01*
G75*
G02*
X101993500Y-100430000I-147500J0D01*
G01*
X101648500Y-100430000D01*
G75*
G02*
X101501000Y-100282500I0J147500D01*
G01*
X101501000Y-99987500D01*
G75*
G02*
X101648500Y-99840000I147500J0D01*
G01*
G37*
G36*
G01*
X101648500Y-98870000D02*
X101993500Y-98870000D01*
G75*
G02*
X102141000Y-99017500I0J-147500D01*
G01*
X102141000Y-99312500D01*
G75*
G02*
X101993500Y-99460000I-147500J0D01*
G01*
X101648500Y-99460000D01*
G75*
G02*
X101501000Y-99312500I0J147500D01*
G01*
X101501000Y-99017500D01*
G75*
G02*
X101648500Y-98870000I147500J0D01*
G01*
G37*
%TD*%
%TO.C,R4*%
G36*
G01*
X102938500Y-124921000D02*
X103283500Y-124921000D01*
G75*
G02*
X103431000Y-125068500I0J-147500D01*
G01*
X103431000Y-125363500D01*
G75*
G02*
X103283500Y-125511000I-147500J0D01*
G01*
X102938500Y-125511000D01*
G75*
G02*
X102791000Y-125363500I0J147500D01*
G01*
X102791000Y-125068500D01*
G75*
G02*
X102938500Y-124921000I147500J0D01*
G01*
G37*
G36*
G01*
X102938500Y-123951000D02*
X103283500Y-123951000D01*
G75*
G02*
X103431000Y-124098500I0J-147500D01*
G01*
X103431000Y-124393500D01*
G75*
G02*
X103283500Y-124541000I-147500J0D01*
G01*
X102938500Y-124541000D01*
G75*
G02*
X102791000Y-124393500I0J147500D01*
G01*
X102791000Y-124098500D01*
G75*
G02*
X102938500Y-123951000I147500J0D01*
G01*
G37*
%TD*%
%TO.C,R3*%
G36*
G01*
X101993500Y-101374000D02*
X101648500Y-101374000D01*
G75*
G02*
X101501000Y-101226500I0J147500D01*
G01*
X101501000Y-100931500D01*
G75*
G02*
X101648500Y-100784000I147500J0D01*
G01*
X101993500Y-100784000D01*
G75*
G02*
X102141000Y-100931500I0J-147500D01*
G01*
X102141000Y-101226500D01*
G75*
G02*
X101993500Y-101374000I-147500J0D01*
G01*
G37*
G36*
G01*
X101993500Y-102344000D02*
X101648500Y-102344000D01*
G75*
G02*
X101501000Y-102196500I0J147500D01*
G01*
X101501000Y-101901500D01*
G75*
G02*
X101648500Y-101754000I147500J0D01*
G01*
X101993500Y-101754000D01*
G75*
G02*
X102141000Y-101901500I0J-147500D01*
G01*
X102141000Y-102196500D01*
G75*
G02*
X101993500Y-102344000I-147500J0D01*
G01*
G37*
%TD*%
%TO.C,R2*%
G36*
G01*
X113179500Y-101765000D02*
X113524500Y-101765000D01*
G75*
G02*
X113672000Y-101912500I0J-147500D01*
G01*
X113672000Y-102207500D01*
G75*
G02*
X113524500Y-102355000I-147500J0D01*
G01*
X113179500Y-102355000D01*
G75*
G02*
X113032000Y-102207500I0J147500D01*
G01*
X113032000Y-101912500D01*
G75*
G02*
X113179500Y-101765000I147500J0D01*
G01*
G37*
G36*
G01*
X113179500Y-100795000D02*
X113524500Y-100795000D01*
G75*
G02*
X113672000Y-100942500I0J-147500D01*
G01*
X113672000Y-101237500D01*
G75*
G02*
X113524500Y-101385000I-147500J0D01*
G01*
X113179500Y-101385000D01*
G75*
G02*
X113032000Y-101237500I0J147500D01*
G01*
X113032000Y-100942500D01*
G75*
G02*
X113179500Y-100795000I147500J0D01*
G01*
G37*
%TD*%
%TO.C,R1*%
G36*
G01*
X101593500Y-118961000D02*
X101938500Y-118961000D01*
G75*
G02*
X102086000Y-119108500I0J-147500D01*
G01*
X102086000Y-119403500D01*
G75*
G02*
X101938500Y-119551000I-147500J0D01*
G01*
X101593500Y-119551000D01*
G75*
G02*
X101446000Y-119403500I0J147500D01*
G01*
X101446000Y-119108500D01*
G75*
G02*
X101593500Y-118961000I147500J0D01*
G01*
G37*
G36*
G01*
X101593500Y-117991000D02*
X101938500Y-117991000D01*
G75*
G02*
X102086000Y-118138500I0J-147500D01*
G01*
X102086000Y-118433500D01*
G75*
G02*
X101938500Y-118581000I-147500J0D01*
G01*
X101593500Y-118581000D01*
G75*
G02*
X101446000Y-118433500I0J147500D01*
G01*
X101446000Y-118138500D01*
G75*
G02*
X101593500Y-117991000I147500J0D01*
G01*
G37*
%TD*%
%TO.C,C9*%
G36*
G01*
X109143000Y-122797500D02*
X109143000Y-122452500D01*
G75*
G02*
X109290500Y-122305000I147500J0D01*
G01*
X109585500Y-122305000D01*
G75*
G02*
X109733000Y-122452500I0J-147500D01*
G01*
X109733000Y-122797500D01*
G75*
G02*
X109585500Y-122945000I-147500J0D01*
G01*
X109290500Y-122945000D01*
G75*
G02*
X109143000Y-122797500I0J147500D01*
G01*
G37*
G36*
G01*
X108173000Y-122797500D02*
X108173000Y-122452500D01*
G75*
G02*
X108320500Y-122305000I147500J0D01*
G01*
X108615500Y-122305000D01*
G75*
G02*
X108763000Y-122452500I0J-147500D01*
G01*
X108763000Y-122797500D01*
G75*
G02*
X108615500Y-122945000I-147500J0D01*
G01*
X108320500Y-122945000D01*
G75*
G02*
X108173000Y-122797500I0J147500D01*
G01*
G37*
%TD*%
%TO.C,C8*%
G36*
G01*
X106793000Y-122441500D02*
X106793000Y-122786500D01*
G75*
G02*
X106645500Y-122934000I-147500J0D01*
G01*
X106350500Y-122934000D01*
G75*
G02*
X106203000Y-122786500I0J147500D01*
G01*
X106203000Y-122441500D01*
G75*
G02*
X106350500Y-122294000I147500J0D01*
G01*
X106645500Y-122294000D01*
G75*
G02*
X106793000Y-122441500I0J-147500D01*
G01*
G37*
G36*
G01*
X107763000Y-122441500D02*
X107763000Y-122786500D01*
G75*
G02*
X107615500Y-122934000I-147500J0D01*
G01*
X107320500Y-122934000D01*
G75*
G02*
X107173000Y-122786500I0J147500D01*
G01*
X107173000Y-122441500D01*
G75*
G02*
X107320500Y-122294000I147500J0D01*
G01*
X107615500Y-122294000D01*
G75*
G02*
X107763000Y-122441500I0J-147500D01*
G01*
G37*
%TD*%
%TO.C,C7*%
G36*
G01*
X112732000Y-122977500D02*
X112732000Y-123322500D01*
G75*
G02*
X112584500Y-123470000I-147500J0D01*
G01*
X112289500Y-123470000D01*
G75*
G02*
X112142000Y-123322500I0J147500D01*
G01*
X112142000Y-122977500D01*
G75*
G02*
X112289500Y-122830000I147500J0D01*
G01*
X112584500Y-122830000D01*
G75*
G02*
X112732000Y-122977500I0J-147500D01*
G01*
G37*
G36*
G01*
X113702000Y-122977500D02*
X113702000Y-123322500D01*
G75*
G02*
X113554500Y-123470000I-147500J0D01*
G01*
X113259500Y-123470000D01*
G75*
G02*
X113112000Y-123322500I0J147500D01*
G01*
X113112000Y-122977500D01*
G75*
G02*
X113259500Y-122830000I147500J0D01*
G01*
X113554500Y-122830000D01*
G75*
G02*
X113702000Y-122977500I0J-147500D01*
G01*
G37*
%TD*%
%TO.C,C4*%
G36*
G01*
X104265500Y-120618000D02*
X103920500Y-120618000D01*
G75*
G02*
X103773000Y-120470500I0J147500D01*
G01*
X103773000Y-120175500D01*
G75*
G02*
X103920500Y-120028000I147500J0D01*
G01*
X104265500Y-120028000D01*
G75*
G02*
X104413000Y-120175500I0J-147500D01*
G01*
X104413000Y-120470500D01*
G75*
G02*
X104265500Y-120618000I-147500J0D01*
G01*
G37*
G36*
G01*
X104265500Y-121588000D02*
X103920500Y-121588000D01*
G75*
G02*
X103773000Y-121440500I0J147500D01*
G01*
X103773000Y-121145500D01*
G75*
G02*
X103920500Y-120998000I147500J0D01*
G01*
X104265500Y-120998000D01*
G75*
G02*
X104413000Y-121145500I0J-147500D01*
G01*
X104413000Y-121440500D01*
G75*
G02*
X104265500Y-121588000I-147500J0D01*
G01*
G37*
%TD*%
%TO.C,C1*%
G36*
G01*
X105697000Y-113399500D02*
X105697000Y-113054500D01*
G75*
G02*
X105844500Y-112907000I147500J0D01*
G01*
X106139500Y-112907000D01*
G75*
G02*
X106287000Y-113054500I0J-147500D01*
G01*
X106287000Y-113399500D01*
G75*
G02*
X106139500Y-113547000I-147500J0D01*
G01*
X105844500Y-113547000D01*
G75*
G02*
X105697000Y-113399500I0J147500D01*
G01*
G37*
G36*
G01*
X104727000Y-113399500D02*
X104727000Y-113054500D01*
G75*
G02*
X104874500Y-112907000I147500J0D01*
G01*
X105169500Y-112907000D01*
G75*
G02*
X105317000Y-113054500I0J-147500D01*
G01*
X105317000Y-113399500D01*
G75*
G02*
X105169500Y-113547000I-147500J0D01*
G01*
X104874500Y-113547000D01*
G75*
G02*
X104727000Y-113399500I0J147500D01*
G01*
G37*
%TD*%
D19*
%TO.C,F1*%
X110313000Y-104313000D03*
X110313000Y-106513000D03*
%TD*%
%TO.C,C10*%
G36*
G01*
X108961000Y-109081500D02*
X108961000Y-109426500D01*
G75*
G02*
X108813500Y-109574000I-147500J0D01*
G01*
X108518500Y-109574000D01*
G75*
G02*
X108371000Y-109426500I0J147500D01*
G01*
X108371000Y-109081500D01*
G75*
G02*
X108518500Y-108934000I147500J0D01*
G01*
X108813500Y-108934000D01*
G75*
G02*
X108961000Y-109081500I0J-147500D01*
G01*
G37*
G36*
G01*
X109931000Y-109081500D02*
X109931000Y-109426500D01*
G75*
G02*
X109783500Y-109574000I-147500J0D01*
G01*
X109488500Y-109574000D01*
G75*
G02*
X109341000Y-109426500I0J147500D01*
G01*
X109341000Y-109081500D01*
G75*
G02*
X109488500Y-108934000I147500J0D01*
G01*
X109783500Y-108934000D01*
G75*
G02*
X109931000Y-109081500I0J-147500D01*
G01*
G37*
%TD*%
M02*
