M48
; DRILL file {KiCad (5.1.6-0-10_14)} date Monday, February 28, 2022 at 08:48:32 PM
; FORMAT={-:-/ absolute / metric / decimal}
; #@! TF.CreationDate,2022-02-28T20:48:32-06:00
; #@! TF.GenerationSoftware,Kicad,Pcbnew,(5.1.6-0-10_14)
; #@! TF.FileFunction,Plated,1,4,PTH
FMAT,2
METRIC
T1C0.200
T2C0.400
T3C0.600
T4C1.000
%
G90
G05
T1
X100.41Y-111.44
X100.65Y-101.06
X100.956Y-116.573
X101.024Y-109.41
X101.081Y-98.878
X101.14Y-108.67
X101.15Y-111.34
X101.49Y-103.11
X101.49Y-120.13
X101.5Y-114.79
X101.505Y-122.852
X101.81Y-100.13
X101.82Y-125.94
X101.821Y-101.079
X101.821Y-102.049
X101.822Y-97.44
X101.823Y-115.659
X101.838Y-116.959
X101.959Y-113.925
X102.022Y-120.781
X102.16Y-116.314
X102.35Y-102.67
X102.383Y-111.368
X102.58Y-99.03
X102.682Y-108.251
X102.841Y-117.149
X102.912Y-118.303
X103.103Y-122.524
X103.174Y-115.029
X103.228Y-120.79
X103.28Y-126.89
X103.32Y-118.98
X103.353Y-111.368
X103.522Y-108.291
X103.545Y-106.066
X103.819Y-116.251
X103.89Y-114.425
X103.994Y-116.978
X104.108Y-118.387
X104.151Y-120.381
X104.37Y-102.688
X104.41Y-126.465
X104.452Y-115.6
X104.546Y-116.41
X104.64Y-114.182
X104.809Y-106.488
X104.813Y-117.168
X104.989Y-118.14
X104.992Y-119.139
X105.107Y-108.774
X105.266Y-115.569
X105.285Y-116.64
X105.34Y-127.1
X105.398Y-122.757
X105.52Y-126.25
X105.574Y-117.64
X105.58Y-113.82
X105.589Y-118.638
X105.619Y-110.824
X105.87Y-102.225
X106.44Y-111.24
X106.497Y-122.615
X106.5Y-110.11
X106.858Y-125.479
X106.93Y-124.26
X106.94Y-107.77
X107.26Y-111.53
X108.076Y-111.367
X108.18Y-113.66
X108.188Y-112.75
X108.19Y-124.31
X108.213Y-125.524
X108.22Y-127.09
X108.83Y-113.36
X108.87Y-102.225
X108.972Y-121.585
X109.12Y-106.42
X109.42Y-111.03
X109.438Y-122.625
X109.468Y-121.056
X109.471Y-114.209
X109.48Y-112.66
X109.613Y-126.607
X109.619Y-113.413
X109.971Y-114.705
X110.09Y-128.04
X110.142Y-110.626
X110.33Y-127.17
X110.4Y-123.368
X110.47Y-121.494
X110.471Y-114.18
X110.7Y-112.3
X110.87Y-102.605
X110.971Y-114.706
X111.339Y-122.623
X111.507Y-112.408
X111.899Y-117.64
X111.904Y-118.651
X111.908Y-116.64
X111.928Y-121.096
X111.969Y-120.139
X111.973Y-115.635
X112.405Y-117.141
X112.412Y-118.13
X112.427Y-123.15
X112.46Y-122.03
X112.692Y-114.284
X113.29Y-126.14
X113.352Y-101.09
X113.356Y-102.029
X113.358Y-100.082
X113.359Y-98.304
X113.43Y-127.17
X113.444Y-120.733
X113.463Y-111.466
X113.502Y-121.666
X113.506Y-118.201
X113.507Y-123.177
X113.56Y-113.18
X113.611Y-118.916
X113.879Y-110.795
X114.2Y-116.484
X114.633Y-113.918
X114.71Y-119.069
X106.172Y-115.34
X106.172Y-120.44
X106.472Y-117.89
X107.447Y-116.615
X107.447Y-119.165
X108.722Y-115.34
X108.722Y-117.89
X108.722Y-120.44
X109.997Y-116.615
X109.997Y-119.165
X111.072Y-117.89
X111.272Y-115.34
X111.272Y-120.44
T2
X103.665Y-103.764
X106.364Y-106.197
X110.43Y-105.467
X111.87Y-107.2
X112.052Y-109.88
X112.636Y-113.461
X112.83Y-109.13
X114.373Y-98.687
T4
X102.54Y-105.08
X105.08Y-105.08
X107.62Y-105.08
X112.68Y-105.12
X115.24Y-100.0
X115.24Y-102.54
X115.24Y-105.08
X115.24Y-107.62
X115.24Y-110.16
X115.24Y-112.7
X115.24Y-115.24
X115.24Y-117.78
X115.24Y-120.32
X115.24Y-122.86
X115.24Y-125.4
X115.24Y-127.94
X100.0Y-100.0
X100.0Y-102.54
X100.0Y-105.08
X100.0Y-107.62
X100.0Y-110.16
X100.0Y-112.7
X100.0Y-115.24
X100.0Y-117.78
X100.0Y-120.32
X100.0Y-122.86
X100.0Y-125.4
X100.0Y-127.94
T3
G00X103.3Y-98.2
M15
G01X103.3Y-97.4
M16
G05
G00X103.3Y-102.53
M15
G01X103.3Y-101.43
M16
G05
G00X111.94Y-98.2
M15
G01X111.94Y-97.4
M16
G05
G00X111.94Y-102.525
M15
G01X111.94Y-101.425
M16
G05
T0
M30
