%TF.GenerationSoftware,KiCad,Pcbnew,(5.1.6-0-10_14)*%
%TF.CreationDate,2022-03-04T18:56:52-06:00*%
%TF.ProjectId,Bonsai_C4,426f6e73-6169-45f4-9334-2e6b69636164,rev?*%
%TF.SameCoordinates,Original*%
%TF.FileFunction,Copper,L2,Inr*%
%TF.FilePolarity,Positive*%
%FSLAX46Y46*%
G04 Gerber Fmt 4.6, Leading zero omitted, Abs format (unit mm)*
G04 Created by KiCad (PCBNEW (5.1.6-0-10_14)) date 2022-03-04 18:56:52*
%MOMM*%
%LPD*%
G01*
G04 APERTURE LIST*
%TA.AperFunction,ViaPad*%
%ADD10C,1.700000*%
%TD*%
%TA.AperFunction,ViaPad*%
%ADD11O,1.700000X1.700000*%
%TD*%
%TA.AperFunction,ViaPad*%
%ADD12O,1.100000X2.200000*%
%TD*%
%TA.AperFunction,ViaPad*%
%ADD13O,1.300000X1.900000*%
%TD*%
%TA.AperFunction,ViaPad*%
%ADD14C,0.500000*%
%TD*%
%TA.AperFunction,ViaPad*%
%ADD15C,0.250000*%
%TD*%
%TA.AperFunction,ViaPad*%
%ADD16C,0.800000*%
%TD*%
%TA.AperFunction,ViaPad*%
%ADD17C,0.450000*%
%TD*%
%TA.AperFunction,ViaPad*%
%ADD18C,0.350000*%
%TD*%
%TA.AperFunction,Conductor*%
%ADD19C,0.450000*%
%TD*%
%TA.AperFunction,Conductor*%
%ADD20C,0.127000*%
%TD*%
%TA.AperFunction,Conductor*%
%ADD21C,0.250000*%
%TD*%
%TA.AperFunction,Conductor*%
%ADD22C,0.190000*%
%TD*%
%TA.AperFunction,Conductor*%
%ADD23C,0.500000*%
%TD*%
%TA.AperFunction,Conductor*%
%ADD24C,0.350000*%
%TD*%
%TA.AperFunction,Conductor*%
%ADD25C,0.200000*%
%TD*%
G04 APERTURE END LIST*
D10*
%TO.N,/PD3*%
%TO.C,J4*%
X100000000Y-100000000D03*
D11*
%TO.N,/PD2*%
X100000000Y-102540000D03*
%TO.N,GND*%
X100000000Y-105080000D03*
%TO.N,/PD0*%
X100000000Y-112700000D03*
%TO.N,/PD1*%
X100000000Y-110160000D03*
D10*
%TO.N,GND*%
X100000000Y-107620000D03*
%TO.N,/B10*%
X100000000Y-122860000D03*
D11*
%TO.N,/B8*%
X100000000Y-117780000D03*
D10*
%TO.N,/A4*%
X100000000Y-115240000D03*
D11*
%TO.N,/A8*%
X100000000Y-125400000D03*
%TO.N,/B0*%
X100000000Y-127940000D03*
%TO.N,/A3*%
X100000000Y-120320000D03*
%TD*%
D10*
%TO.N,+5V*%
%TO.C,J5*%
X115240000Y-100000000D03*
D11*
%TO.N,GND*%
X115240000Y-102540000D03*
%TO.N,/DFU*%
X115240000Y-105080000D03*
%TO.N,/A6*%
X115240000Y-112700000D03*
%TO.N,/A7*%
X115240000Y-110160000D03*
D10*
%TO.N,+3V3*%
X115240000Y-107620000D03*
%TO.N,/B14*%
X115240000Y-122860000D03*
D11*
%TO.N,/A1*%
X115240000Y-117780000D03*
D10*
%TO.N,/A5*%
X115240000Y-115240000D03*
D11*
%TO.N,/B15*%
X115240000Y-125400000D03*
%TO.N,/B1*%
X115240000Y-127940000D03*
%TO.N,/B13*%
X115240000Y-120320000D03*
%TD*%
%TO.N,/D+*%
%TO.C,J1*%
X102540000Y-105080000D03*
%TO.N,/D-*%
X105080000Y-105080000D03*
D10*
%TO.N,VBUS*%
X107620000Y-105080000D03*
%TD*%
%TO.N,/A10_5V*%
%TO.C,J2*%
X112680000Y-105120000D03*
%TD*%
D12*
%TO.N,Net-(FB1-Pad1)*%
%TO.C,J3*%
X103320000Y-102000000D03*
D13*
X103320000Y-97800000D03*
X111920000Y-97800000D03*
D12*
X111920000Y-102000000D03*
%TD*%
D14*
%TO.N,GND*%
%TO.C,U3*%
X106172000Y-120440000D03*
X106172000Y-117890000D03*
X106172000Y-115340000D03*
X107447000Y-119165000D03*
X107447000Y-116615000D03*
X108722000Y-120440000D03*
X108722000Y-117890000D03*
X108722000Y-115340000D03*
X109997000Y-119165000D03*
X109997000Y-116615000D03*
X111272000Y-120440000D03*
X111272000Y-117890000D03*
X111272000Y-115340000D03*
%TD*%
D15*
%TO.N,GND*%
X113463000Y-111466000D03*
X101821000Y-102049000D03*
X113358000Y-100082000D03*
D16*
X106364000Y-106197000D03*
D15*
X109438000Y-122625000D03*
X111341000Y-122625000D03*
X109468000Y-121056000D03*
X105619000Y-110824000D03*
D17*
X102681784Y-108250856D03*
X113878955Y-110795454D03*
X114199761Y-116483619D03*
D15*
X101959000Y-113925000D03*
X113356000Y-102029000D03*
X111973168Y-115634990D03*
X103994000Y-116978000D03*
X112426990Y-123150000D03*
X106496761Y-122615239D03*
X106825000Y-124136000D03*
X106858000Y-125479000D03*
X108213000Y-125524000D03*
X104809000Y-106488000D03*
X103545000Y-106066000D03*
X110870000Y-102605000D03*
X104370000Y-102688000D03*
D16*
X103665309Y-103763691D03*
D15*
X102383010Y-111367990D03*
X101833019Y-100268916D03*
X104116202Y-120346202D03*
D16*
X112051988Y-109880000D03*
D15*
X108190000Y-124310000D03*
D17*
X110250000Y-127740000D03*
D15*
X105520000Y-126250000D03*
X105480000Y-127210000D03*
X105520000Y-113690000D03*
D17*
X103174436Y-115028510D03*
X101777172Y-119875929D03*
D16*
%TO.N,+5V*%
X114373000Y-98687000D03*
X111870000Y-107200000D03*
D15*
%TO.N,+3V3*%
X113317000Y-125676000D03*
D17*
X110400000Y-123368000D03*
X109663000Y-126436002D03*
D16*
X112636133Y-113460933D03*
D17*
X105398000Y-122757000D03*
D15*
X103353000Y-111368000D03*
D16*
X112830000Y-109130000D03*
D15*
X108188078Y-112750000D03*
D16*
%TO.N,Net-(D1-Pad2)*%
X110430000Y-105467000D03*
D17*
X108075768Y-111367469D03*
%TO.N,VBUS*%
X110226356Y-110817020D03*
X109120000Y-106420000D03*
D15*
%TO.N,/A3*%
X112262863Y-121873863D03*
%TO.N,Net-(J3-PadA5)*%
X113352000Y-101090000D03*
X108870000Y-102225000D03*
%TO.N,Net-(J3-PadB5)*%
X105870000Y-102225000D03*
X101821000Y-101079000D03*
%TO.N,/NRST*%
X108972000Y-121585000D03*
X113477030Y-123147637D03*
%TO.N,/BOOT0*%
X105589000Y-118638000D03*
X103626000Y-116315000D03*
%TO.N,/B0*%
X112402000Y-118140000D03*
X103280000Y-126890000D03*
%TO.N,/B1*%
X111899000Y-117640000D03*
%TO.N,/B2*%
X112405000Y-117141000D03*
X113443637Y-120733363D03*
X113611000Y-118916000D03*
X102160000Y-116314000D03*
X101521058Y-114763337D03*
%TO.N,/B7*%
X104989000Y-118140000D03*
X101480000Y-102910000D03*
X102350000Y-102670000D03*
X102520000Y-98990000D03*
D17*
X101140000Y-108670000D03*
D15*
%TO.N,/B6*%
X105574000Y-117640000D03*
X104090000Y-118400000D03*
X101024479Y-109410000D03*
X101024479Y-111370655D03*
D17*
X103120980Y-120790457D03*
D18*
%TO.N,/A10*%
X106434000Y-110176000D03*
D15*
X109460000Y-112840000D03*
%TO.N,/B13*%
X110971000Y-114706000D03*
%TO.N,/B9*%
X100625086Y-111392893D03*
%TO.N,/B15*%
X109971000Y-114705000D03*
%TO.N,/B8*%
X104992000Y-119139000D03*
%TO.N,/B14*%
X110471000Y-114180000D03*
%TO.N,/A2*%
X111471000Y-121507000D03*
%TO.N,/DFU*%
X113272000Y-125040000D03*
D18*
X114756000Y-114041000D03*
X113623451Y-113358549D03*
D15*
X114710243Y-119068635D03*
%TO.N,/B10*%
X111908000Y-116640000D03*
X100956000Y-116573000D03*
X103890000Y-114400014D03*
D17*
%TO.N,/A15*%
X101822000Y-97440000D03*
D15*
X105230000Y-115604480D03*
D17*
%TO.N,Net-(C12-Pad1)*%
X113359000Y-98304000D03*
X101081133Y-98877986D03*
X102841490Y-117148510D03*
X102911515Y-118302532D03*
D15*
X110330000Y-127170000D03*
X109000000Y-127690000D03*
D17*
X113430000Y-127170000D03*
D15*
%TO.N,/VBUS_DET*%
X111507000Y-112408000D03*
%TO.N,Net-(D3-Pad-)*%
X101504969Y-122852294D03*
X101798069Y-115659441D03*
D17*
%TO.N,Net-(D5-Pad1)*%
X103522000Y-108291000D03*
X105107000Y-108774000D03*
D15*
X110700000Y-112300000D03*
D17*
%TO.N,/A10_5V*%
X109565743Y-110891954D03*
D15*
%TO.N,/A8*%
X109471000Y-114209000D03*
X101789947Y-120390000D03*
%TO.N,/A4*%
X111969000Y-120139000D03*
%TO.N,/A6*%
X113506000Y-118201000D03*
%TO.N,/A7*%
X111914000Y-118641000D03*
%TO.N,/A0_FRAM_CS*%
X110474000Y-121490000D03*
X106330000Y-111180000D03*
X108220000Y-113350000D03*
X104460000Y-115850000D03*
X104640000Y-114190000D03*
%TO.N,/B3_SCK*%
X101840000Y-125940000D03*
X104410000Y-126465000D03*
X108660000Y-113240000D03*
X104427024Y-116310000D03*
%TO.N,/B4_MISO*%
X106940000Y-107770000D03*
X106849363Y-111270637D03*
X105284508Y-116640000D03*
D17*
%TO.N,/B12_FLASH_CS*%
X112692000Y-114284000D03*
D15*
%TO.N,/B5_MOSI*%
X104994000Y-117140000D03*
D17*
X103103000Y-122524000D03*
X103320000Y-118780000D03*
D15*
X109490000Y-113370000D03*
%TO.N,Net-(Q2-Pad6)*%
X113482000Y-121666000D03*
X101838000Y-116959000D03*
X111928000Y-121096000D03*
%TO.N,/PD2*%
X100650000Y-101060002D03*
%TD*%
D19*
%TO.N,/A3*%
X112251000Y-121878000D02*
X112289000Y-121878000D01*
D20*
X111230863Y-121873863D02*
X112262863Y-121873863D01*
X110880000Y-121390000D02*
X110880000Y-121523000D01*
X109611491Y-120121491D02*
X110880000Y-121390000D01*
X110880000Y-121523000D02*
X111230863Y-121873863D01*
X109611491Y-120060509D02*
X109611491Y-120121491D01*
D21*
X105310215Y-119928511D02*
X104219785Y-119928511D01*
X105373727Y-119864999D02*
X105310215Y-119928511D01*
X101747782Y-121169999D02*
X100849999Y-121169999D01*
X100849999Y-121169999D02*
X100000000Y-120320000D01*
X109611491Y-120060509D02*
X109232073Y-120060509D01*
X103900217Y-119898509D02*
X103790215Y-120008511D01*
X109232073Y-120060509D02*
X109036563Y-119864999D01*
X104219785Y-119928511D02*
X104189783Y-119898509D01*
X102909270Y-120008511D02*
X101747782Y-121169999D01*
X109036563Y-119864999D02*
X105373727Y-119864999D01*
X104189783Y-119898509D02*
X103900217Y-119898509D01*
X103790215Y-120008511D02*
X102909270Y-120008511D01*
D22*
%TO.N,Net-(J3-PadA5)*%
X108870000Y-102225000D02*
X108870000Y-101522000D01*
X108870000Y-101522000D02*
X109869000Y-100523000D01*
X112785000Y-100523000D02*
X113352000Y-101090000D01*
X109869000Y-100523000D02*
X112785000Y-100523000D01*
D23*
X113352000Y-101090000D02*
X113278500Y-101016500D01*
X108870000Y-102225000D02*
X108870000Y-102101000D01*
D20*
%TO.N,Net-(J3-PadB5)*%
X105870000Y-102225000D02*
X105870000Y-100648000D01*
X105870000Y-100648000D02*
X105377000Y-100155000D01*
X102745000Y-100155000D02*
X101821000Y-101079000D01*
X105377000Y-100155000D02*
X102745000Y-100155000D01*
D23*
X105870000Y-102225000D02*
X105870000Y-102154000D01*
X101821000Y-101079000D02*
X101865500Y-101034500D01*
D19*
%TO.N,/NRST*%
X108975000Y-121443750D02*
X108975000Y-121583250D01*
D20*
X109918000Y-121927000D02*
X111323000Y-123332000D01*
X112266008Y-123490000D02*
X113134667Y-123490000D01*
X112108008Y-123332000D02*
X112266008Y-123490000D01*
X113134667Y-123490000D02*
X113477030Y-123147637D01*
X108972000Y-121543000D02*
X109356000Y-121927000D01*
X109356000Y-121927000D02*
X109918000Y-121927000D01*
X111323000Y-123332000D02*
X112108008Y-123332000D01*
D24*
%TO.N,/BOOT0*%
X105589000Y-118638000D02*
X105590000Y-118638000D01*
D19*
X105589000Y-118637000D02*
X105508000Y-118637000D01*
D24*
X103626000Y-116315000D02*
X103626000Y-116317000D01*
D19*
X103626000Y-116315000D02*
X103626000Y-116509000D01*
D20*
X105589000Y-118638000D02*
X104590020Y-118638000D01*
X104590020Y-118638000D02*
X104444501Y-118492481D01*
X104444501Y-118167519D02*
X103626000Y-117349018D01*
X104444501Y-118492481D02*
X104444501Y-118167519D01*
X103626000Y-117349018D02*
X103626000Y-116315000D01*
D24*
%TO.N,/B7*%
X104989000Y-118140000D02*
X104990000Y-118140000D01*
D19*
X104989000Y-118140000D02*
X104989000Y-118045000D01*
D20*
X104317011Y-114337993D02*
X103536029Y-113557011D01*
X104332501Y-116716471D02*
X104088509Y-116472479D01*
X101362989Y-112042989D02*
X101362989Y-108892989D01*
X104317011Y-115430080D02*
X104317011Y-114337993D01*
X104989000Y-118140000D02*
X104332501Y-117483501D01*
X104332501Y-117483501D02*
X104332501Y-116716471D01*
X104088509Y-115658582D02*
X104317011Y-115430080D01*
X101362989Y-108892989D02*
X101140000Y-108670000D01*
X102877011Y-113557011D02*
X101362989Y-112042989D01*
X104088509Y-116472479D02*
X104088509Y-115658582D01*
X103536029Y-113557011D02*
X102877011Y-113557011D01*
D24*
%TO.N,/B6*%
X105574000Y-117640000D02*
X105575000Y-117639000D01*
D20*
X101890000Y-117450000D02*
X101220000Y-117450000D01*
X100781510Y-117011510D02*
X100774364Y-117011510D01*
X100774364Y-117011510D02*
X100500000Y-116737146D01*
X100500000Y-116737146D02*
X100500000Y-116365854D01*
X103280000Y-117590000D02*
X103280000Y-116930000D01*
X102630000Y-116710000D02*
X101890000Y-117450000D01*
X104090000Y-118400000D02*
X103280000Y-117590000D01*
X103280000Y-116930000D02*
X103060000Y-116710000D01*
X101064479Y-111410655D02*
X101024479Y-111370655D01*
X103060000Y-116710000D02*
X102630000Y-116710000D01*
X101220000Y-117450000D02*
X100781510Y-117011510D01*
X100500000Y-116365854D02*
X101064479Y-115801375D01*
X101064479Y-115801375D02*
X101064479Y-111410655D01*
D19*
%TO.N,/A10*%
X106434000Y-110176000D02*
X106475500Y-110217500D01*
D20*
X109460000Y-112840000D02*
X109460000Y-112616496D01*
X108649483Y-111805979D02*
X107816492Y-111805979D01*
X107816492Y-111805979D02*
X107187865Y-111177352D01*
X107187865Y-111177352D02*
X107187865Y-110929865D01*
X109460000Y-112616496D02*
X108649483Y-111805979D01*
X107187865Y-110929865D02*
X106434000Y-110176000D01*
D19*
%TO.N,/B13*%
X110971000Y-114706000D02*
X110971000Y-114707000D01*
D20*
X110704000Y-116099555D02*
X110704000Y-115149776D01*
X110758499Y-117643519D02*
X110837512Y-117564506D01*
X115240000Y-120320000D02*
X114327000Y-120320000D01*
X110758499Y-118176355D02*
X110758499Y-117643519D01*
X110971000Y-114882776D02*
X110971000Y-114706000D01*
X113137508Y-119130508D02*
X111712652Y-119130508D01*
X110837512Y-116233067D02*
X110704000Y-116099555D01*
X110837512Y-117564506D02*
X110837512Y-116233067D01*
X114327000Y-120320000D02*
X113137508Y-119130508D01*
X110704000Y-115149776D02*
X110971000Y-114882776D01*
X111712652Y-119130508D02*
X110758499Y-118176355D01*
D19*
%TO.N,/B15*%
X109971000Y-114705000D02*
X109970000Y-114704000D01*
D20*
X109971000Y-115955018D02*
X109533499Y-116392519D01*
X109971000Y-114705000D02*
X109971000Y-115955018D01*
X109533499Y-116392519D02*
X109533499Y-117884425D01*
X109533499Y-117884425D02*
X111395074Y-119746000D01*
X111395074Y-119746000D02*
X112962248Y-119746000D01*
X114390001Y-124550001D02*
X115240000Y-125400000D01*
X113922000Y-124082000D02*
X114390001Y-124550001D01*
X112962248Y-119746000D02*
X113922000Y-120705752D01*
X113922000Y-120705752D02*
X113922000Y-124082000D01*
D19*
%TO.N,/B8*%
X104992000Y-119139000D02*
X104991000Y-119140000D01*
D21*
X103681274Y-119140000D02*
X104991000Y-119140000D01*
X103531273Y-119290001D02*
X103681274Y-119140000D01*
X101510001Y-119290001D02*
X103531273Y-119290001D01*
X100000000Y-117780000D02*
X101510001Y-119290001D01*
D19*
%TO.N,/B14*%
X110471000Y-114180000D02*
X110470000Y-114180000D01*
D20*
X114212011Y-121832011D02*
X115240000Y-122860000D01*
X114212011Y-120604011D02*
X114212011Y-121832011D01*
X113029000Y-119421000D02*
X114212011Y-120604011D01*
X111532537Y-119421000D02*
X113029000Y-119421000D01*
X110431488Y-117362049D02*
X110431488Y-118319951D01*
X110510501Y-116368519D02*
X110510501Y-117283036D01*
X110376989Y-116235007D02*
X110510501Y-116368519D01*
X110376989Y-115014324D02*
X110376989Y-116235007D01*
X110471000Y-114180000D02*
X110471000Y-114920313D01*
X110471000Y-114920313D02*
X110376989Y-115014324D01*
X110431488Y-118319951D02*
X111532537Y-119421000D01*
X110510501Y-117283036D02*
X110431488Y-117362049D01*
%TO.N,/DFU*%
X113543615Y-112986615D02*
X113543615Y-113410385D01*
X112977000Y-112420000D02*
X113543615Y-112986615D01*
X114167000Y-118525392D02*
X114710243Y-119068635D01*
X114167000Y-117255000D02*
X114167000Y-118525392D01*
X114730000Y-116692000D02*
X114167000Y-117255000D01*
X114730000Y-116323000D02*
X114730000Y-116692000D01*
X114126499Y-115719499D02*
X114730000Y-116323000D01*
X114126499Y-114670501D02*
X114126499Y-115719499D01*
X114756000Y-114041000D02*
X114126499Y-114670501D01*
D19*
X114756000Y-114041000D02*
X114712000Y-114085000D01*
X113623451Y-113358549D02*
X113623451Y-113345451D01*
X114710243Y-119068635D02*
X114668804Y-119027196D01*
D20*
X113680000Y-109414000D02*
X112977000Y-110117000D01*
X113680000Y-106640000D02*
X113680000Y-109414000D01*
X115240000Y-105080000D02*
X113680000Y-106640000D01*
X112977000Y-110117000D02*
X112977000Y-112420000D01*
D19*
%TO.N,/B10*%
X100956000Y-116573000D02*
X100956000Y-116530000D01*
D20*
X102434986Y-114400014D02*
X103890000Y-114400014D01*
X101459559Y-115375441D02*
X102434986Y-114400014D01*
X100956000Y-116573000D02*
X101459559Y-116069441D01*
X101459559Y-116069441D02*
X101459559Y-115375441D01*
%TO.N,/A15*%
X101640000Y-111770000D02*
X103150000Y-113280000D01*
X104830000Y-113280000D02*
X105105001Y-113555001D01*
X103150000Y-113280000D02*
X104830000Y-113280000D01*
X101113501Y-99530501D02*
X101113501Y-107984519D01*
X100610000Y-98652000D02*
X100610000Y-99027000D01*
X105105001Y-115479481D02*
X105230000Y-115604480D01*
X100610000Y-99027000D02*
X101113501Y-99530501D01*
X101640000Y-108511018D02*
X101640000Y-111770000D01*
X105105001Y-113555001D02*
X105105001Y-115479481D01*
X101113501Y-107984519D02*
X101640000Y-108511018D01*
X101822000Y-97440000D02*
X100610000Y-98652000D01*
%TO.N,Net-(C12-Pad1)*%
X101877986Y-98877986D02*
X101081133Y-98877986D01*
X102328501Y-99328501D02*
X101877986Y-98877986D01*
X102682481Y-99328501D02*
X102328501Y-99328501D01*
X102899483Y-99111499D02*
X102682481Y-99328501D01*
X112551501Y-99111499D02*
X102899483Y-99111499D01*
X113359000Y-98304000D02*
X112551501Y-99111499D01*
X102841490Y-117148510D02*
X102841490Y-118232507D01*
X102841490Y-118232507D02*
X102911515Y-118302532D01*
D21*
%TO.N,Net-(D5-Pad1)*%
X108900000Y-110985000D02*
X108900000Y-111500000D01*
X106689000Y-108774000D02*
X108900000Y-110985000D01*
X105107000Y-108774000D02*
X106689000Y-108774000D01*
X110490000Y-112090000D02*
X110700000Y-112300000D01*
X109490000Y-112090000D02*
X110490000Y-112090000D01*
X108900000Y-111500000D02*
X109490000Y-112090000D01*
D20*
%TO.N,/A10_5V*%
X109565743Y-110573756D02*
X109565743Y-110891954D01*
X110613000Y-109526499D02*
X109565743Y-110573756D01*
X110613000Y-107187000D02*
X110613000Y-109526499D01*
X110613000Y-107187000D02*
X112680000Y-105120000D01*
D19*
%TO.N,/A8*%
X109471000Y-114209000D02*
X109472000Y-114208000D01*
D20*
X104380000Y-119590000D02*
X104290000Y-119500000D01*
X104290000Y-119500000D02*
X103820000Y-119500000D01*
X103820000Y-119500000D02*
X103650000Y-119670000D01*
X109471000Y-114209000D02*
X109471000Y-116063266D01*
X109471000Y-116063266D02*
X109256488Y-116277778D01*
X109256488Y-116277778D02*
X109256488Y-116413512D01*
X109256488Y-116413512D02*
X106820000Y-118850000D01*
X105233511Y-119526489D02*
X105170000Y-119590000D01*
X105170000Y-119590000D02*
X104380000Y-119590000D01*
X101966723Y-120390000D02*
X101789947Y-120390000D01*
X102686723Y-119670000D02*
X101966723Y-120390000D01*
X103650000Y-119670000D02*
X102686723Y-119670000D01*
X106810000Y-118850000D02*
X106133511Y-119526489D01*
X106820000Y-118850000D02*
X106810000Y-118850000D01*
X106133511Y-119526489D02*
X105233511Y-119526489D01*
%TO.N,/A6*%
X115240000Y-112700000D02*
X115240000Y-112867321D01*
X115240000Y-112867321D02*
X113506000Y-114601321D01*
X113506000Y-114601321D02*
X113506000Y-118201000D01*
D19*
X113506000Y-118201000D02*
X113506000Y-118144000D01*
%TO.N,/A7*%
X111914000Y-118641000D02*
X111915000Y-118642000D01*
D20*
X115240000Y-110160000D02*
X114061952Y-111338048D01*
X114061952Y-113582906D02*
X113067489Y-114577369D01*
X113067489Y-114577369D02*
X113067489Y-118144529D01*
X113067489Y-118144529D02*
X112571018Y-118641000D01*
X114061952Y-111338048D02*
X114061952Y-113582906D01*
X112571018Y-118641000D02*
X111914000Y-118641000D01*
%TO.N,/A5*%
X115240000Y-115240000D02*
X115240009Y-115239991D01*
%TO.N,/A0_FRAM_CS*%
X106330000Y-111180000D02*
X106330000Y-111230000D01*
X106330000Y-111230000D02*
X107490000Y-112390000D01*
X107490000Y-112390000D02*
X108400000Y-112390000D01*
X108400000Y-112390000D02*
X108450000Y-112390000D01*
X108450000Y-112390000D02*
X108560000Y-112500000D01*
X108560000Y-112500000D02*
X108560000Y-112860000D01*
X108220000Y-113200000D02*
X108220000Y-113350000D01*
X108560000Y-112860000D02*
X108220000Y-113200000D01*
%TO.N,/B3_SCK*%
X108462989Y-113613787D02*
X108462989Y-114515259D01*
X108660000Y-113416776D02*
X108462989Y-113613787D01*
X104552023Y-116185001D02*
X104427024Y-116310000D01*
X106793247Y-116185001D02*
X104552023Y-116185001D01*
X108462989Y-114515259D02*
X106793247Y-116185001D01*
X108660000Y-113240000D02*
X108660000Y-113416776D01*
%TO.N,/B4_MISO*%
X106849363Y-111270637D02*
X107661716Y-112082990D01*
X108534742Y-112082990D02*
X109013353Y-112561601D01*
X109013353Y-113654751D02*
X108740000Y-113928104D01*
X108740000Y-113928104D02*
X108740000Y-114630000D01*
X107661716Y-112082990D02*
X108534742Y-112082990D01*
X109013353Y-112561601D02*
X109013353Y-113654751D01*
X108740000Y-114630000D02*
X106730000Y-116640000D01*
X106730000Y-116640000D02*
X105284508Y-116640000D01*
D24*
%TO.N,/B5_MOSI*%
X104994000Y-117140000D02*
X104993000Y-117140000D01*
D20*
X109185501Y-115562481D02*
X109185501Y-114543647D01*
X107607982Y-117140000D02*
X109185501Y-115562481D01*
X104994000Y-117140000D02*
X107607982Y-117140000D01*
X109032491Y-114390637D02*
X109032491Y-114027363D01*
X109032491Y-114027363D02*
X109290363Y-113769491D01*
X109185501Y-114543647D02*
X109032491Y-114390637D01*
X109290363Y-113569637D02*
X109490000Y-113370000D01*
X109290363Y-113769491D02*
X109290363Y-113569637D01*
%TD*%
D25*
%TO.N,GND*%
G36*
X105565087Y-120443176D02*
G01*
X105577368Y-120561517D01*
X105612500Y-120675189D01*
X105665606Y-120774543D01*
X105786826Y-120786990D01*
X106133816Y-120440000D01*
X106119674Y-120425858D01*
X106157858Y-120387674D01*
X106172000Y-120401816D01*
X106186142Y-120387674D01*
X106224326Y-120425858D01*
X106210184Y-120440000D01*
X106557174Y-120786990D01*
X106678394Y-120774543D01*
X106733930Y-120669323D01*
X106767871Y-120555289D01*
X106778913Y-120436824D01*
X106769280Y-120343999D01*
X108124331Y-120343999D01*
X108115087Y-120443176D01*
X108127368Y-120561517D01*
X108162500Y-120675189D01*
X108215606Y-120774543D01*
X108336826Y-120786990D01*
X108683816Y-120440000D01*
X108669674Y-120425858D01*
X108707858Y-120387674D01*
X108722000Y-120401816D01*
X108736142Y-120387674D01*
X108774326Y-120425858D01*
X108760184Y-120440000D01*
X109107174Y-120786990D01*
X109228394Y-120774543D01*
X109283930Y-120669323D01*
X109317871Y-120555289D01*
X109319342Y-120539509D01*
X109439075Y-120539509D01*
X110094840Y-121195274D01*
X110049515Y-121263108D01*
X110013407Y-121350281D01*
X109995000Y-121442823D01*
X109995000Y-121515064D01*
X109938509Y-121509500D01*
X109938502Y-121509500D01*
X109918000Y-121507481D01*
X109897498Y-121509500D01*
X109554000Y-121509500D01*
X109554000Y-121415311D01*
X109545622Y-121330246D01*
X109512514Y-121221104D01*
X109458750Y-121120519D01*
X109386395Y-121032355D01*
X109298230Y-120960000D01*
X109197645Y-120906236D01*
X109088503Y-120873128D01*
X109064311Y-120870745D01*
X109068990Y-120825174D01*
X108722000Y-120478184D01*
X108375010Y-120825174D01*
X108387457Y-120946394D01*
X108492677Y-121001930D01*
X108571934Y-121025520D01*
X108563605Y-121032355D01*
X108491250Y-121120520D01*
X108437486Y-121221105D01*
X108404378Y-121330247D01*
X108396000Y-121415312D01*
X108396000Y-121611689D01*
X108404378Y-121696754D01*
X108437486Y-121805896D01*
X108491250Y-121906481D01*
X108563606Y-121994645D01*
X108651770Y-122067000D01*
X108752355Y-122120764D01*
X108861497Y-122153872D01*
X108975000Y-122165051D01*
X109001050Y-122162485D01*
X109046287Y-122207722D01*
X109059355Y-122223645D01*
X109075277Y-122236712D01*
X109075284Y-122236719D01*
X109116755Y-122270753D01*
X109122927Y-122275818D01*
X109195457Y-122314586D01*
X109250282Y-122331217D01*
X109274155Y-122338459D01*
X109282464Y-122339277D01*
X109335491Y-122344500D01*
X109335497Y-122344500D01*
X109355999Y-122346519D01*
X109376501Y-122344500D01*
X109745066Y-122344500D01*
X110217467Y-122816902D01*
X110125740Y-122854896D01*
X110030909Y-122918261D01*
X109950261Y-122998909D01*
X109886896Y-123093740D01*
X109843250Y-123199112D01*
X109821000Y-123310973D01*
X109821000Y-123425027D01*
X109843250Y-123536888D01*
X109886896Y-123642260D01*
X109950261Y-123737091D01*
X110030909Y-123817739D01*
X110125740Y-123881104D01*
X110231112Y-123924750D01*
X110342973Y-123947000D01*
X110457027Y-123947000D01*
X110568888Y-123924750D01*
X110674260Y-123881104D01*
X110769091Y-123817739D01*
X110849739Y-123737091D01*
X110913104Y-123642260D01*
X110951098Y-123550533D01*
X111013288Y-123612723D01*
X111026355Y-123628645D01*
X111042277Y-123641712D01*
X111042284Y-123641719D01*
X111083755Y-123675753D01*
X111089927Y-123680818D01*
X111162457Y-123719586D01*
X111217282Y-123736217D01*
X111241155Y-123743459D01*
X111249464Y-123744277D01*
X111302491Y-123749500D01*
X111302497Y-123749500D01*
X111322999Y-123751519D01*
X111343501Y-123749500D01*
X111935075Y-123749500D01*
X111956287Y-123770712D01*
X111969363Y-123786645D01*
X112032935Y-123838818D01*
X112105465Y-123877586D01*
X112184164Y-123901459D01*
X112245499Y-123907500D01*
X112245506Y-123907500D01*
X112266008Y-123909519D01*
X112286510Y-123907500D01*
X113114165Y-123907500D01*
X113134667Y-123909519D01*
X113155169Y-123907500D01*
X113155176Y-123907500D01*
X113216511Y-123901459D01*
X113295210Y-123877586D01*
X113367740Y-123838818D01*
X113431312Y-123786645D01*
X113444384Y-123770717D01*
X113504501Y-123710600D01*
X113504501Y-124061488D01*
X113502481Y-124082000D01*
X113510541Y-124163844D01*
X113534415Y-124242543D01*
X113573183Y-124315073D01*
X113612281Y-124362715D01*
X113612289Y-124362723D01*
X113625356Y-124378645D01*
X113641278Y-124391712D01*
X114145564Y-124895998D01*
X114082269Y-125048806D01*
X114036000Y-125281416D01*
X114036000Y-125518584D01*
X114082269Y-125751194D01*
X114173029Y-125970308D01*
X114304792Y-126167505D01*
X114472495Y-126335208D01*
X114669692Y-126466971D01*
X114888806Y-126557731D01*
X115121416Y-126604000D01*
X115358584Y-126604000D01*
X115591194Y-126557731D01*
X115810308Y-126466971D01*
X116007505Y-126335208D01*
X116131000Y-126211713D01*
X116131000Y-127128287D01*
X116007505Y-127004792D01*
X115810308Y-126873029D01*
X115591194Y-126782269D01*
X115358584Y-126736000D01*
X115121416Y-126736000D01*
X114888806Y-126782269D01*
X114669692Y-126873029D01*
X114472495Y-127004792D01*
X114304792Y-127172495D01*
X114173029Y-127369692D01*
X114082269Y-127588806D01*
X114036000Y-127821416D01*
X114036000Y-128058584D01*
X114082269Y-128291194D01*
X114173029Y-128510308D01*
X114304792Y-128707505D01*
X114357166Y-128759879D01*
X100883592Y-128759121D01*
X100935208Y-128707505D01*
X101066971Y-128510308D01*
X101157731Y-128291194D01*
X101204000Y-128058584D01*
X101204000Y-127821416D01*
X101168476Y-127642823D01*
X108521000Y-127642823D01*
X108521000Y-127737177D01*
X108539407Y-127829719D01*
X108575515Y-127916892D01*
X108627936Y-127995345D01*
X108694655Y-128062064D01*
X108773108Y-128114485D01*
X108860281Y-128150593D01*
X108952823Y-128169000D01*
X109047177Y-128169000D01*
X109139719Y-128150593D01*
X109226892Y-128114485D01*
X109305345Y-128062064D01*
X109372064Y-127995345D01*
X109424485Y-127916892D01*
X109460593Y-127829719D01*
X109479000Y-127737177D01*
X109479000Y-127642823D01*
X109460593Y-127550281D01*
X109424485Y-127463108D01*
X109372064Y-127384655D01*
X109305345Y-127317936D01*
X109226892Y-127265515D01*
X109139719Y-127229407D01*
X109047177Y-127211000D01*
X108952823Y-127211000D01*
X108860281Y-127229407D01*
X108773108Y-127265515D01*
X108694655Y-127317936D01*
X108627936Y-127384655D01*
X108575515Y-127463108D01*
X108539407Y-127550281D01*
X108521000Y-127642823D01*
X101168476Y-127642823D01*
X101157731Y-127588806D01*
X101066971Y-127369692D01*
X100935208Y-127172495D01*
X100767505Y-127004792D01*
X100570308Y-126873029D01*
X100497385Y-126842823D01*
X102801000Y-126842823D01*
X102801000Y-126937177D01*
X102819407Y-127029719D01*
X102855515Y-127116892D01*
X102907936Y-127195345D01*
X102974655Y-127262064D01*
X103053108Y-127314485D01*
X103140281Y-127350593D01*
X103232823Y-127369000D01*
X103327177Y-127369000D01*
X103419719Y-127350593D01*
X103506892Y-127314485D01*
X103585345Y-127262064D01*
X103652064Y-127195345D01*
X103704485Y-127116892D01*
X103740593Y-127029719D01*
X103759000Y-126937177D01*
X103759000Y-126842823D01*
X103740593Y-126750281D01*
X103704485Y-126663108D01*
X103652064Y-126584655D01*
X103585345Y-126517936D01*
X103506892Y-126465515D01*
X103419719Y-126429407D01*
X103361480Y-126417823D01*
X103931000Y-126417823D01*
X103931000Y-126512177D01*
X103949407Y-126604719D01*
X103985515Y-126691892D01*
X104037936Y-126770345D01*
X104104655Y-126837064D01*
X104183108Y-126889485D01*
X104270281Y-126925593D01*
X104362823Y-126944000D01*
X104457177Y-126944000D01*
X104549719Y-126925593D01*
X104636892Y-126889485D01*
X104715345Y-126837064D01*
X104782064Y-126770345D01*
X104834485Y-126691892D01*
X104870593Y-126604719D01*
X104889000Y-126512177D01*
X104889000Y-126417823D01*
X104881273Y-126378975D01*
X109084000Y-126378975D01*
X109084000Y-126493029D01*
X109106250Y-126604890D01*
X109149896Y-126710262D01*
X109213261Y-126805093D01*
X109293909Y-126885741D01*
X109388740Y-126949106D01*
X109494112Y-126992752D01*
X109605973Y-127015002D01*
X109720027Y-127015002D01*
X109831888Y-126992752D01*
X109895942Y-126966220D01*
X109869407Y-127030281D01*
X109851000Y-127122823D01*
X109851000Y-127217177D01*
X109869407Y-127309719D01*
X109905515Y-127396892D01*
X109957936Y-127475345D01*
X110024655Y-127542064D01*
X110103108Y-127594485D01*
X110190281Y-127630593D01*
X110282823Y-127649000D01*
X110377177Y-127649000D01*
X110469719Y-127630593D01*
X110556892Y-127594485D01*
X110635345Y-127542064D01*
X110702064Y-127475345D01*
X110754485Y-127396892D01*
X110790593Y-127309719D01*
X110809000Y-127217177D01*
X110809000Y-127122823D01*
X110807041Y-127112973D01*
X112851000Y-127112973D01*
X112851000Y-127227027D01*
X112873250Y-127338888D01*
X112916896Y-127444260D01*
X112980261Y-127539091D01*
X113060909Y-127619739D01*
X113155740Y-127683104D01*
X113261112Y-127726750D01*
X113372973Y-127749000D01*
X113487027Y-127749000D01*
X113598888Y-127726750D01*
X113704260Y-127683104D01*
X113799091Y-127619739D01*
X113879739Y-127539091D01*
X113943104Y-127444260D01*
X113986750Y-127338888D01*
X114009000Y-127227027D01*
X114009000Y-127112973D01*
X113986750Y-127001112D01*
X113943104Y-126895740D01*
X113879739Y-126800909D01*
X113799091Y-126720261D01*
X113704260Y-126656896D01*
X113598888Y-126613250D01*
X113487027Y-126591000D01*
X113372973Y-126591000D01*
X113261112Y-126613250D01*
X113155740Y-126656896D01*
X113060909Y-126720261D01*
X112980261Y-126800909D01*
X112916896Y-126895740D01*
X112873250Y-127001112D01*
X112851000Y-127112973D01*
X110807041Y-127112973D01*
X110790593Y-127030281D01*
X110754485Y-126943108D01*
X110702064Y-126864655D01*
X110635345Y-126797936D01*
X110556892Y-126745515D01*
X110469719Y-126709407D01*
X110377177Y-126691000D01*
X110282823Y-126691000D01*
X110190281Y-126709407D01*
X110171469Y-126717199D01*
X110176104Y-126710262D01*
X110219750Y-126604890D01*
X110242000Y-126493029D01*
X110242000Y-126378975D01*
X110219750Y-126267114D01*
X110176104Y-126161742D01*
X110112739Y-126066911D01*
X110032091Y-125986263D01*
X109937260Y-125922898D01*
X109831888Y-125879252D01*
X109720027Y-125857002D01*
X109605973Y-125857002D01*
X109494112Y-125879252D01*
X109388740Y-125922898D01*
X109293909Y-125986263D01*
X109213261Y-126066911D01*
X109149896Y-126161742D01*
X109106250Y-126267114D01*
X109084000Y-126378975D01*
X104881273Y-126378975D01*
X104870593Y-126325281D01*
X104834485Y-126238108D01*
X104782064Y-126159655D01*
X104715345Y-126092936D01*
X104636892Y-126040515D01*
X104549719Y-126004407D01*
X104457177Y-125986000D01*
X104362823Y-125986000D01*
X104270281Y-126004407D01*
X104183108Y-126040515D01*
X104104655Y-126092936D01*
X104037936Y-126159655D01*
X103985515Y-126238108D01*
X103949407Y-126325281D01*
X103931000Y-126417823D01*
X103361480Y-126417823D01*
X103327177Y-126411000D01*
X103232823Y-126411000D01*
X103140281Y-126429407D01*
X103053108Y-126465515D01*
X102974655Y-126517936D01*
X102907936Y-126584655D01*
X102855515Y-126663108D01*
X102819407Y-126750281D01*
X102801000Y-126842823D01*
X100497385Y-126842823D01*
X100351194Y-126782269D01*
X100118584Y-126736000D01*
X99881416Y-126736000D01*
X99648806Y-126782269D01*
X99429692Y-126873029D01*
X99232495Y-127004792D01*
X99109000Y-127128287D01*
X99109000Y-126211713D01*
X99232495Y-126335208D01*
X99429692Y-126466971D01*
X99648806Y-126557731D01*
X99881416Y-126604000D01*
X100118584Y-126604000D01*
X100351194Y-126557731D01*
X100570308Y-126466971D01*
X100767505Y-126335208D01*
X100935208Y-126167505D01*
X101066971Y-125970308D01*
X101099066Y-125892823D01*
X101361000Y-125892823D01*
X101361000Y-125987177D01*
X101379407Y-126079719D01*
X101415515Y-126166892D01*
X101467936Y-126245345D01*
X101534655Y-126312064D01*
X101613108Y-126364485D01*
X101700281Y-126400593D01*
X101792823Y-126419000D01*
X101887177Y-126419000D01*
X101979719Y-126400593D01*
X102066892Y-126364485D01*
X102145345Y-126312064D01*
X102212064Y-126245345D01*
X102264485Y-126166892D01*
X102300593Y-126079719D01*
X102319000Y-125987177D01*
X102319000Y-125892823D01*
X102300593Y-125800281D01*
X102264485Y-125713108D01*
X102212064Y-125634655D01*
X102145345Y-125567936D01*
X102066892Y-125515515D01*
X101979719Y-125479407D01*
X101887177Y-125461000D01*
X101792823Y-125461000D01*
X101700281Y-125479407D01*
X101613108Y-125515515D01*
X101534655Y-125567936D01*
X101467936Y-125634655D01*
X101415515Y-125713108D01*
X101379407Y-125800281D01*
X101361000Y-125892823D01*
X101099066Y-125892823D01*
X101157731Y-125751194D01*
X101204000Y-125518584D01*
X101204000Y-125281416D01*
X101157731Y-125048806D01*
X101134543Y-124992823D01*
X112793000Y-124992823D01*
X112793000Y-125087177D01*
X112811407Y-125179719D01*
X112847515Y-125266892D01*
X112899936Y-125345345D01*
X112937049Y-125382458D01*
X112892515Y-125449108D01*
X112856407Y-125536281D01*
X112838000Y-125628823D01*
X112838000Y-125723177D01*
X112856407Y-125815719D01*
X112892515Y-125902892D01*
X112944936Y-125981345D01*
X113011655Y-126048064D01*
X113090108Y-126100485D01*
X113177281Y-126136593D01*
X113269823Y-126155000D01*
X113364177Y-126155000D01*
X113456719Y-126136593D01*
X113543892Y-126100485D01*
X113622345Y-126048064D01*
X113689064Y-125981345D01*
X113741485Y-125902892D01*
X113777593Y-125815719D01*
X113796000Y-125723177D01*
X113796000Y-125628823D01*
X113777593Y-125536281D01*
X113741485Y-125449108D01*
X113689064Y-125370655D01*
X113651951Y-125333542D01*
X113696485Y-125266892D01*
X113732593Y-125179719D01*
X113751000Y-125087177D01*
X113751000Y-124992823D01*
X113732593Y-124900281D01*
X113696485Y-124813108D01*
X113644064Y-124734655D01*
X113577345Y-124667936D01*
X113498892Y-124615515D01*
X113411719Y-124579407D01*
X113319177Y-124561000D01*
X113224823Y-124561000D01*
X113132281Y-124579407D01*
X113045108Y-124615515D01*
X112966655Y-124667936D01*
X112899936Y-124734655D01*
X112847515Y-124813108D01*
X112811407Y-124900281D01*
X112793000Y-124992823D01*
X101134543Y-124992823D01*
X101066971Y-124829692D01*
X100935208Y-124632495D01*
X100767505Y-124464792D01*
X100570308Y-124333029D01*
X100351194Y-124242269D01*
X100118584Y-124196000D01*
X99881416Y-124196000D01*
X99648806Y-124242269D01*
X99429692Y-124333029D01*
X99232495Y-124464792D01*
X99109000Y-124588287D01*
X99109000Y-123671713D01*
X99232495Y-123795208D01*
X99429692Y-123926971D01*
X99648806Y-124017731D01*
X99881416Y-124064000D01*
X100118584Y-124064000D01*
X100351194Y-124017731D01*
X100570308Y-123926971D01*
X100767505Y-123795208D01*
X100935208Y-123627505D01*
X101066971Y-123430308D01*
X101157731Y-123211194D01*
X101162497Y-123187231D01*
X101199624Y-123224358D01*
X101278077Y-123276779D01*
X101365250Y-123312887D01*
X101457792Y-123331294D01*
X101552146Y-123331294D01*
X101644688Y-123312887D01*
X101731861Y-123276779D01*
X101810314Y-123224358D01*
X101877033Y-123157639D01*
X101929454Y-123079186D01*
X101965562Y-122992013D01*
X101983969Y-122899471D01*
X101983969Y-122805117D01*
X101965562Y-122712575D01*
X101929454Y-122625402D01*
X101877033Y-122546949D01*
X101810314Y-122480230D01*
X101790474Y-122466973D01*
X102524000Y-122466973D01*
X102524000Y-122581027D01*
X102546250Y-122692888D01*
X102589896Y-122798260D01*
X102653261Y-122893091D01*
X102733909Y-122973739D01*
X102828740Y-123037104D01*
X102934112Y-123080750D01*
X103045973Y-123103000D01*
X103160027Y-123103000D01*
X103271888Y-123080750D01*
X103377260Y-123037104D01*
X103472091Y-122973739D01*
X103552739Y-122893091D01*
X103616104Y-122798260D01*
X103656815Y-122699973D01*
X104819000Y-122699973D01*
X104819000Y-122814027D01*
X104841250Y-122925888D01*
X104884896Y-123031260D01*
X104948261Y-123126091D01*
X105028909Y-123206739D01*
X105123740Y-123270104D01*
X105229112Y-123313750D01*
X105340973Y-123336000D01*
X105455027Y-123336000D01*
X105566888Y-123313750D01*
X105672260Y-123270104D01*
X105767091Y-123206739D01*
X105847739Y-123126091D01*
X105911104Y-123031260D01*
X105954750Y-122925888D01*
X105977000Y-122814027D01*
X105977000Y-122699973D01*
X105954750Y-122588112D01*
X105911104Y-122482740D01*
X105847739Y-122387909D01*
X105767091Y-122307261D01*
X105672260Y-122243896D01*
X105566888Y-122200250D01*
X105455027Y-122178000D01*
X105340973Y-122178000D01*
X105229112Y-122200250D01*
X105123740Y-122243896D01*
X105028909Y-122307261D01*
X104948261Y-122387909D01*
X104884896Y-122482740D01*
X104841250Y-122588112D01*
X104819000Y-122699973D01*
X103656815Y-122699973D01*
X103659750Y-122692888D01*
X103682000Y-122581027D01*
X103682000Y-122466973D01*
X103659750Y-122355112D01*
X103616104Y-122249740D01*
X103552739Y-122154909D01*
X103472091Y-122074261D01*
X103377260Y-122010896D01*
X103271888Y-121967250D01*
X103160027Y-121945000D01*
X103045973Y-121945000D01*
X102934112Y-121967250D01*
X102828740Y-122010896D01*
X102733909Y-122074261D01*
X102653261Y-122154909D01*
X102589896Y-122249740D01*
X102546250Y-122355112D01*
X102524000Y-122466973D01*
X101790474Y-122466973D01*
X101731861Y-122427809D01*
X101644688Y-122391701D01*
X101552146Y-122373294D01*
X101457792Y-122373294D01*
X101365250Y-122391701D01*
X101278077Y-122427809D01*
X101199624Y-122480230D01*
X101159940Y-122519914D01*
X101157731Y-122508806D01*
X101066971Y-122289692D01*
X100935208Y-122092495D01*
X100767505Y-121924792D01*
X100570308Y-121793029D01*
X100351194Y-121702269D01*
X100118584Y-121656000D01*
X99881416Y-121656000D01*
X99648806Y-121702269D01*
X99429692Y-121793029D01*
X99232495Y-121924792D01*
X99109000Y-122048287D01*
X99109000Y-121131713D01*
X99232495Y-121255208D01*
X99429692Y-121386971D01*
X99648806Y-121477731D01*
X99881416Y-121524000D01*
X100118584Y-121524000D01*
X100351194Y-121477731D01*
X100442502Y-121439910D01*
X100494656Y-121492064D01*
X100509656Y-121510342D01*
X100545083Y-121539415D01*
X100582593Y-121570199D01*
X100625526Y-121593147D01*
X100665807Y-121614678D01*
X100756099Y-121642068D01*
X100826473Y-121648999D01*
X100826477Y-121648999D01*
X100849998Y-121651316D01*
X100873519Y-121648999D01*
X101724259Y-121648999D01*
X101747782Y-121651316D01*
X101771305Y-121648999D01*
X101771308Y-121648999D01*
X101841682Y-121642068D01*
X101931974Y-121614678D01*
X102015187Y-121570199D01*
X102088125Y-121510342D01*
X102103129Y-121492059D01*
X102585205Y-121009984D01*
X102607876Y-121064717D01*
X102671241Y-121159548D01*
X102751889Y-121240196D01*
X102846720Y-121303561D01*
X102952092Y-121347207D01*
X103063953Y-121369457D01*
X103178007Y-121369457D01*
X103289868Y-121347207D01*
X103395240Y-121303561D01*
X103490071Y-121240196D01*
X103570719Y-121159548D01*
X103634084Y-121064717D01*
X103677730Y-120959345D01*
X103699980Y-120847484D01*
X103699980Y-120825174D01*
X105825010Y-120825174D01*
X105837457Y-120946394D01*
X105942677Y-121001930D01*
X106056711Y-121035871D01*
X106175176Y-121046913D01*
X106293517Y-121034632D01*
X106407189Y-120999500D01*
X106506543Y-120946394D01*
X106518990Y-120825174D01*
X106172000Y-120478184D01*
X105825010Y-120825174D01*
X103699980Y-120825174D01*
X103699980Y-120733430D01*
X103677730Y-120621569D01*
X103634084Y-120516197D01*
X103614916Y-120487511D01*
X103766692Y-120487511D01*
X103790215Y-120489828D01*
X103813738Y-120487511D01*
X103813741Y-120487511D01*
X103884115Y-120480580D01*
X103974407Y-120453190D01*
X104057620Y-120408711D01*
X104083277Y-120387655D01*
X104125885Y-120400580D01*
X104196259Y-120407511D01*
X104196264Y-120407511D01*
X104219784Y-120409828D01*
X104243305Y-120407511D01*
X105286692Y-120407511D01*
X105310215Y-120409828D01*
X105333738Y-120407511D01*
X105333741Y-120407511D01*
X105404115Y-120400580D01*
X105494407Y-120373190D01*
X105549019Y-120343999D01*
X105574331Y-120343999D01*
X105565087Y-120443176D01*
G37*
X105565087Y-120443176D02*
X105577368Y-120561517D01*
X105612500Y-120675189D01*
X105665606Y-120774543D01*
X105786826Y-120786990D01*
X106133816Y-120440000D01*
X106119674Y-120425858D01*
X106157858Y-120387674D01*
X106172000Y-120401816D01*
X106186142Y-120387674D01*
X106224326Y-120425858D01*
X106210184Y-120440000D01*
X106557174Y-120786990D01*
X106678394Y-120774543D01*
X106733930Y-120669323D01*
X106767871Y-120555289D01*
X106778913Y-120436824D01*
X106769280Y-120343999D01*
X108124331Y-120343999D01*
X108115087Y-120443176D01*
X108127368Y-120561517D01*
X108162500Y-120675189D01*
X108215606Y-120774543D01*
X108336826Y-120786990D01*
X108683816Y-120440000D01*
X108669674Y-120425858D01*
X108707858Y-120387674D01*
X108722000Y-120401816D01*
X108736142Y-120387674D01*
X108774326Y-120425858D01*
X108760184Y-120440000D01*
X109107174Y-120786990D01*
X109228394Y-120774543D01*
X109283930Y-120669323D01*
X109317871Y-120555289D01*
X109319342Y-120539509D01*
X109439075Y-120539509D01*
X110094840Y-121195274D01*
X110049515Y-121263108D01*
X110013407Y-121350281D01*
X109995000Y-121442823D01*
X109995000Y-121515064D01*
X109938509Y-121509500D01*
X109938502Y-121509500D01*
X109918000Y-121507481D01*
X109897498Y-121509500D01*
X109554000Y-121509500D01*
X109554000Y-121415311D01*
X109545622Y-121330246D01*
X109512514Y-121221104D01*
X109458750Y-121120519D01*
X109386395Y-121032355D01*
X109298230Y-120960000D01*
X109197645Y-120906236D01*
X109088503Y-120873128D01*
X109064311Y-120870745D01*
X109068990Y-120825174D01*
X108722000Y-120478184D01*
X108375010Y-120825174D01*
X108387457Y-120946394D01*
X108492677Y-121001930D01*
X108571934Y-121025520D01*
X108563605Y-121032355D01*
X108491250Y-121120520D01*
X108437486Y-121221105D01*
X108404378Y-121330247D01*
X108396000Y-121415312D01*
X108396000Y-121611689D01*
X108404378Y-121696754D01*
X108437486Y-121805896D01*
X108491250Y-121906481D01*
X108563606Y-121994645D01*
X108651770Y-122067000D01*
X108752355Y-122120764D01*
X108861497Y-122153872D01*
X108975000Y-122165051D01*
X109001050Y-122162485D01*
X109046287Y-122207722D01*
X109059355Y-122223645D01*
X109075277Y-122236712D01*
X109075284Y-122236719D01*
X109116755Y-122270753D01*
X109122927Y-122275818D01*
X109195457Y-122314586D01*
X109250282Y-122331217D01*
X109274155Y-122338459D01*
X109282464Y-122339277D01*
X109335491Y-122344500D01*
X109335497Y-122344500D01*
X109355999Y-122346519D01*
X109376501Y-122344500D01*
X109745066Y-122344500D01*
X110217467Y-122816902D01*
X110125740Y-122854896D01*
X110030909Y-122918261D01*
X109950261Y-122998909D01*
X109886896Y-123093740D01*
X109843250Y-123199112D01*
X109821000Y-123310973D01*
X109821000Y-123425027D01*
X109843250Y-123536888D01*
X109886896Y-123642260D01*
X109950261Y-123737091D01*
X110030909Y-123817739D01*
X110125740Y-123881104D01*
X110231112Y-123924750D01*
X110342973Y-123947000D01*
X110457027Y-123947000D01*
X110568888Y-123924750D01*
X110674260Y-123881104D01*
X110769091Y-123817739D01*
X110849739Y-123737091D01*
X110913104Y-123642260D01*
X110951098Y-123550533D01*
X111013288Y-123612723D01*
X111026355Y-123628645D01*
X111042277Y-123641712D01*
X111042284Y-123641719D01*
X111083755Y-123675753D01*
X111089927Y-123680818D01*
X111162457Y-123719586D01*
X111217282Y-123736217D01*
X111241155Y-123743459D01*
X111249464Y-123744277D01*
X111302491Y-123749500D01*
X111302497Y-123749500D01*
X111322999Y-123751519D01*
X111343501Y-123749500D01*
X111935075Y-123749500D01*
X111956287Y-123770712D01*
X111969363Y-123786645D01*
X112032935Y-123838818D01*
X112105465Y-123877586D01*
X112184164Y-123901459D01*
X112245499Y-123907500D01*
X112245506Y-123907500D01*
X112266008Y-123909519D01*
X112286510Y-123907500D01*
X113114165Y-123907500D01*
X113134667Y-123909519D01*
X113155169Y-123907500D01*
X113155176Y-123907500D01*
X113216511Y-123901459D01*
X113295210Y-123877586D01*
X113367740Y-123838818D01*
X113431312Y-123786645D01*
X113444384Y-123770717D01*
X113504501Y-123710600D01*
X113504501Y-124061488D01*
X113502481Y-124082000D01*
X113510541Y-124163844D01*
X113534415Y-124242543D01*
X113573183Y-124315073D01*
X113612281Y-124362715D01*
X113612289Y-124362723D01*
X113625356Y-124378645D01*
X113641278Y-124391712D01*
X114145564Y-124895998D01*
X114082269Y-125048806D01*
X114036000Y-125281416D01*
X114036000Y-125518584D01*
X114082269Y-125751194D01*
X114173029Y-125970308D01*
X114304792Y-126167505D01*
X114472495Y-126335208D01*
X114669692Y-126466971D01*
X114888806Y-126557731D01*
X115121416Y-126604000D01*
X115358584Y-126604000D01*
X115591194Y-126557731D01*
X115810308Y-126466971D01*
X116007505Y-126335208D01*
X116131000Y-126211713D01*
X116131000Y-127128287D01*
X116007505Y-127004792D01*
X115810308Y-126873029D01*
X115591194Y-126782269D01*
X115358584Y-126736000D01*
X115121416Y-126736000D01*
X114888806Y-126782269D01*
X114669692Y-126873029D01*
X114472495Y-127004792D01*
X114304792Y-127172495D01*
X114173029Y-127369692D01*
X114082269Y-127588806D01*
X114036000Y-127821416D01*
X114036000Y-128058584D01*
X114082269Y-128291194D01*
X114173029Y-128510308D01*
X114304792Y-128707505D01*
X114357166Y-128759879D01*
X100883592Y-128759121D01*
X100935208Y-128707505D01*
X101066971Y-128510308D01*
X101157731Y-128291194D01*
X101204000Y-128058584D01*
X101204000Y-127821416D01*
X101168476Y-127642823D01*
X108521000Y-127642823D01*
X108521000Y-127737177D01*
X108539407Y-127829719D01*
X108575515Y-127916892D01*
X108627936Y-127995345D01*
X108694655Y-128062064D01*
X108773108Y-128114485D01*
X108860281Y-128150593D01*
X108952823Y-128169000D01*
X109047177Y-128169000D01*
X109139719Y-128150593D01*
X109226892Y-128114485D01*
X109305345Y-128062064D01*
X109372064Y-127995345D01*
X109424485Y-127916892D01*
X109460593Y-127829719D01*
X109479000Y-127737177D01*
X109479000Y-127642823D01*
X109460593Y-127550281D01*
X109424485Y-127463108D01*
X109372064Y-127384655D01*
X109305345Y-127317936D01*
X109226892Y-127265515D01*
X109139719Y-127229407D01*
X109047177Y-127211000D01*
X108952823Y-127211000D01*
X108860281Y-127229407D01*
X108773108Y-127265515D01*
X108694655Y-127317936D01*
X108627936Y-127384655D01*
X108575515Y-127463108D01*
X108539407Y-127550281D01*
X108521000Y-127642823D01*
X101168476Y-127642823D01*
X101157731Y-127588806D01*
X101066971Y-127369692D01*
X100935208Y-127172495D01*
X100767505Y-127004792D01*
X100570308Y-126873029D01*
X100497385Y-126842823D01*
X102801000Y-126842823D01*
X102801000Y-126937177D01*
X102819407Y-127029719D01*
X102855515Y-127116892D01*
X102907936Y-127195345D01*
X102974655Y-127262064D01*
X103053108Y-127314485D01*
X103140281Y-127350593D01*
X103232823Y-127369000D01*
X103327177Y-127369000D01*
X103419719Y-127350593D01*
X103506892Y-127314485D01*
X103585345Y-127262064D01*
X103652064Y-127195345D01*
X103704485Y-127116892D01*
X103740593Y-127029719D01*
X103759000Y-126937177D01*
X103759000Y-126842823D01*
X103740593Y-126750281D01*
X103704485Y-126663108D01*
X103652064Y-126584655D01*
X103585345Y-126517936D01*
X103506892Y-126465515D01*
X103419719Y-126429407D01*
X103361480Y-126417823D01*
X103931000Y-126417823D01*
X103931000Y-126512177D01*
X103949407Y-126604719D01*
X103985515Y-126691892D01*
X104037936Y-126770345D01*
X104104655Y-126837064D01*
X104183108Y-126889485D01*
X104270281Y-126925593D01*
X104362823Y-126944000D01*
X104457177Y-126944000D01*
X104549719Y-126925593D01*
X104636892Y-126889485D01*
X104715345Y-126837064D01*
X104782064Y-126770345D01*
X104834485Y-126691892D01*
X104870593Y-126604719D01*
X104889000Y-126512177D01*
X104889000Y-126417823D01*
X104881273Y-126378975D01*
X109084000Y-126378975D01*
X109084000Y-126493029D01*
X109106250Y-126604890D01*
X109149896Y-126710262D01*
X109213261Y-126805093D01*
X109293909Y-126885741D01*
X109388740Y-126949106D01*
X109494112Y-126992752D01*
X109605973Y-127015002D01*
X109720027Y-127015002D01*
X109831888Y-126992752D01*
X109895942Y-126966220D01*
X109869407Y-127030281D01*
X109851000Y-127122823D01*
X109851000Y-127217177D01*
X109869407Y-127309719D01*
X109905515Y-127396892D01*
X109957936Y-127475345D01*
X110024655Y-127542064D01*
X110103108Y-127594485D01*
X110190281Y-127630593D01*
X110282823Y-127649000D01*
X110377177Y-127649000D01*
X110469719Y-127630593D01*
X110556892Y-127594485D01*
X110635345Y-127542064D01*
X110702064Y-127475345D01*
X110754485Y-127396892D01*
X110790593Y-127309719D01*
X110809000Y-127217177D01*
X110809000Y-127122823D01*
X110807041Y-127112973D01*
X112851000Y-127112973D01*
X112851000Y-127227027D01*
X112873250Y-127338888D01*
X112916896Y-127444260D01*
X112980261Y-127539091D01*
X113060909Y-127619739D01*
X113155740Y-127683104D01*
X113261112Y-127726750D01*
X113372973Y-127749000D01*
X113487027Y-127749000D01*
X113598888Y-127726750D01*
X113704260Y-127683104D01*
X113799091Y-127619739D01*
X113879739Y-127539091D01*
X113943104Y-127444260D01*
X113986750Y-127338888D01*
X114009000Y-127227027D01*
X114009000Y-127112973D01*
X113986750Y-127001112D01*
X113943104Y-126895740D01*
X113879739Y-126800909D01*
X113799091Y-126720261D01*
X113704260Y-126656896D01*
X113598888Y-126613250D01*
X113487027Y-126591000D01*
X113372973Y-126591000D01*
X113261112Y-126613250D01*
X113155740Y-126656896D01*
X113060909Y-126720261D01*
X112980261Y-126800909D01*
X112916896Y-126895740D01*
X112873250Y-127001112D01*
X112851000Y-127112973D01*
X110807041Y-127112973D01*
X110790593Y-127030281D01*
X110754485Y-126943108D01*
X110702064Y-126864655D01*
X110635345Y-126797936D01*
X110556892Y-126745515D01*
X110469719Y-126709407D01*
X110377177Y-126691000D01*
X110282823Y-126691000D01*
X110190281Y-126709407D01*
X110171469Y-126717199D01*
X110176104Y-126710262D01*
X110219750Y-126604890D01*
X110242000Y-126493029D01*
X110242000Y-126378975D01*
X110219750Y-126267114D01*
X110176104Y-126161742D01*
X110112739Y-126066911D01*
X110032091Y-125986263D01*
X109937260Y-125922898D01*
X109831888Y-125879252D01*
X109720027Y-125857002D01*
X109605973Y-125857002D01*
X109494112Y-125879252D01*
X109388740Y-125922898D01*
X109293909Y-125986263D01*
X109213261Y-126066911D01*
X109149896Y-126161742D01*
X109106250Y-126267114D01*
X109084000Y-126378975D01*
X104881273Y-126378975D01*
X104870593Y-126325281D01*
X104834485Y-126238108D01*
X104782064Y-126159655D01*
X104715345Y-126092936D01*
X104636892Y-126040515D01*
X104549719Y-126004407D01*
X104457177Y-125986000D01*
X104362823Y-125986000D01*
X104270281Y-126004407D01*
X104183108Y-126040515D01*
X104104655Y-126092936D01*
X104037936Y-126159655D01*
X103985515Y-126238108D01*
X103949407Y-126325281D01*
X103931000Y-126417823D01*
X103361480Y-126417823D01*
X103327177Y-126411000D01*
X103232823Y-126411000D01*
X103140281Y-126429407D01*
X103053108Y-126465515D01*
X102974655Y-126517936D01*
X102907936Y-126584655D01*
X102855515Y-126663108D01*
X102819407Y-126750281D01*
X102801000Y-126842823D01*
X100497385Y-126842823D01*
X100351194Y-126782269D01*
X100118584Y-126736000D01*
X99881416Y-126736000D01*
X99648806Y-126782269D01*
X99429692Y-126873029D01*
X99232495Y-127004792D01*
X99109000Y-127128287D01*
X99109000Y-126211713D01*
X99232495Y-126335208D01*
X99429692Y-126466971D01*
X99648806Y-126557731D01*
X99881416Y-126604000D01*
X100118584Y-126604000D01*
X100351194Y-126557731D01*
X100570308Y-126466971D01*
X100767505Y-126335208D01*
X100935208Y-126167505D01*
X101066971Y-125970308D01*
X101099066Y-125892823D01*
X101361000Y-125892823D01*
X101361000Y-125987177D01*
X101379407Y-126079719D01*
X101415515Y-126166892D01*
X101467936Y-126245345D01*
X101534655Y-126312064D01*
X101613108Y-126364485D01*
X101700281Y-126400593D01*
X101792823Y-126419000D01*
X101887177Y-126419000D01*
X101979719Y-126400593D01*
X102066892Y-126364485D01*
X102145345Y-126312064D01*
X102212064Y-126245345D01*
X102264485Y-126166892D01*
X102300593Y-126079719D01*
X102319000Y-125987177D01*
X102319000Y-125892823D01*
X102300593Y-125800281D01*
X102264485Y-125713108D01*
X102212064Y-125634655D01*
X102145345Y-125567936D01*
X102066892Y-125515515D01*
X101979719Y-125479407D01*
X101887177Y-125461000D01*
X101792823Y-125461000D01*
X101700281Y-125479407D01*
X101613108Y-125515515D01*
X101534655Y-125567936D01*
X101467936Y-125634655D01*
X101415515Y-125713108D01*
X101379407Y-125800281D01*
X101361000Y-125892823D01*
X101099066Y-125892823D01*
X101157731Y-125751194D01*
X101204000Y-125518584D01*
X101204000Y-125281416D01*
X101157731Y-125048806D01*
X101134543Y-124992823D01*
X112793000Y-124992823D01*
X112793000Y-125087177D01*
X112811407Y-125179719D01*
X112847515Y-125266892D01*
X112899936Y-125345345D01*
X112937049Y-125382458D01*
X112892515Y-125449108D01*
X112856407Y-125536281D01*
X112838000Y-125628823D01*
X112838000Y-125723177D01*
X112856407Y-125815719D01*
X112892515Y-125902892D01*
X112944936Y-125981345D01*
X113011655Y-126048064D01*
X113090108Y-126100485D01*
X113177281Y-126136593D01*
X113269823Y-126155000D01*
X113364177Y-126155000D01*
X113456719Y-126136593D01*
X113543892Y-126100485D01*
X113622345Y-126048064D01*
X113689064Y-125981345D01*
X113741485Y-125902892D01*
X113777593Y-125815719D01*
X113796000Y-125723177D01*
X113796000Y-125628823D01*
X113777593Y-125536281D01*
X113741485Y-125449108D01*
X113689064Y-125370655D01*
X113651951Y-125333542D01*
X113696485Y-125266892D01*
X113732593Y-125179719D01*
X113751000Y-125087177D01*
X113751000Y-124992823D01*
X113732593Y-124900281D01*
X113696485Y-124813108D01*
X113644064Y-124734655D01*
X113577345Y-124667936D01*
X113498892Y-124615515D01*
X113411719Y-124579407D01*
X113319177Y-124561000D01*
X113224823Y-124561000D01*
X113132281Y-124579407D01*
X113045108Y-124615515D01*
X112966655Y-124667936D01*
X112899936Y-124734655D01*
X112847515Y-124813108D01*
X112811407Y-124900281D01*
X112793000Y-124992823D01*
X101134543Y-124992823D01*
X101066971Y-124829692D01*
X100935208Y-124632495D01*
X100767505Y-124464792D01*
X100570308Y-124333029D01*
X100351194Y-124242269D01*
X100118584Y-124196000D01*
X99881416Y-124196000D01*
X99648806Y-124242269D01*
X99429692Y-124333029D01*
X99232495Y-124464792D01*
X99109000Y-124588287D01*
X99109000Y-123671713D01*
X99232495Y-123795208D01*
X99429692Y-123926971D01*
X99648806Y-124017731D01*
X99881416Y-124064000D01*
X100118584Y-124064000D01*
X100351194Y-124017731D01*
X100570308Y-123926971D01*
X100767505Y-123795208D01*
X100935208Y-123627505D01*
X101066971Y-123430308D01*
X101157731Y-123211194D01*
X101162497Y-123187231D01*
X101199624Y-123224358D01*
X101278077Y-123276779D01*
X101365250Y-123312887D01*
X101457792Y-123331294D01*
X101552146Y-123331294D01*
X101644688Y-123312887D01*
X101731861Y-123276779D01*
X101810314Y-123224358D01*
X101877033Y-123157639D01*
X101929454Y-123079186D01*
X101965562Y-122992013D01*
X101983969Y-122899471D01*
X101983969Y-122805117D01*
X101965562Y-122712575D01*
X101929454Y-122625402D01*
X101877033Y-122546949D01*
X101810314Y-122480230D01*
X101790474Y-122466973D01*
X102524000Y-122466973D01*
X102524000Y-122581027D01*
X102546250Y-122692888D01*
X102589896Y-122798260D01*
X102653261Y-122893091D01*
X102733909Y-122973739D01*
X102828740Y-123037104D01*
X102934112Y-123080750D01*
X103045973Y-123103000D01*
X103160027Y-123103000D01*
X103271888Y-123080750D01*
X103377260Y-123037104D01*
X103472091Y-122973739D01*
X103552739Y-122893091D01*
X103616104Y-122798260D01*
X103656815Y-122699973D01*
X104819000Y-122699973D01*
X104819000Y-122814027D01*
X104841250Y-122925888D01*
X104884896Y-123031260D01*
X104948261Y-123126091D01*
X105028909Y-123206739D01*
X105123740Y-123270104D01*
X105229112Y-123313750D01*
X105340973Y-123336000D01*
X105455027Y-123336000D01*
X105566888Y-123313750D01*
X105672260Y-123270104D01*
X105767091Y-123206739D01*
X105847739Y-123126091D01*
X105911104Y-123031260D01*
X105954750Y-122925888D01*
X105977000Y-122814027D01*
X105977000Y-122699973D01*
X105954750Y-122588112D01*
X105911104Y-122482740D01*
X105847739Y-122387909D01*
X105767091Y-122307261D01*
X105672260Y-122243896D01*
X105566888Y-122200250D01*
X105455027Y-122178000D01*
X105340973Y-122178000D01*
X105229112Y-122200250D01*
X105123740Y-122243896D01*
X105028909Y-122307261D01*
X104948261Y-122387909D01*
X104884896Y-122482740D01*
X104841250Y-122588112D01*
X104819000Y-122699973D01*
X103656815Y-122699973D01*
X103659750Y-122692888D01*
X103682000Y-122581027D01*
X103682000Y-122466973D01*
X103659750Y-122355112D01*
X103616104Y-122249740D01*
X103552739Y-122154909D01*
X103472091Y-122074261D01*
X103377260Y-122010896D01*
X103271888Y-121967250D01*
X103160027Y-121945000D01*
X103045973Y-121945000D01*
X102934112Y-121967250D01*
X102828740Y-122010896D01*
X102733909Y-122074261D01*
X102653261Y-122154909D01*
X102589896Y-122249740D01*
X102546250Y-122355112D01*
X102524000Y-122466973D01*
X101790474Y-122466973D01*
X101731861Y-122427809D01*
X101644688Y-122391701D01*
X101552146Y-122373294D01*
X101457792Y-122373294D01*
X101365250Y-122391701D01*
X101278077Y-122427809D01*
X101199624Y-122480230D01*
X101159940Y-122519914D01*
X101157731Y-122508806D01*
X101066971Y-122289692D01*
X100935208Y-122092495D01*
X100767505Y-121924792D01*
X100570308Y-121793029D01*
X100351194Y-121702269D01*
X100118584Y-121656000D01*
X99881416Y-121656000D01*
X99648806Y-121702269D01*
X99429692Y-121793029D01*
X99232495Y-121924792D01*
X99109000Y-122048287D01*
X99109000Y-121131713D01*
X99232495Y-121255208D01*
X99429692Y-121386971D01*
X99648806Y-121477731D01*
X99881416Y-121524000D01*
X100118584Y-121524000D01*
X100351194Y-121477731D01*
X100442502Y-121439910D01*
X100494656Y-121492064D01*
X100509656Y-121510342D01*
X100545083Y-121539415D01*
X100582593Y-121570199D01*
X100625526Y-121593147D01*
X100665807Y-121614678D01*
X100756099Y-121642068D01*
X100826473Y-121648999D01*
X100826477Y-121648999D01*
X100849998Y-121651316D01*
X100873519Y-121648999D01*
X101724259Y-121648999D01*
X101747782Y-121651316D01*
X101771305Y-121648999D01*
X101771308Y-121648999D01*
X101841682Y-121642068D01*
X101931974Y-121614678D01*
X102015187Y-121570199D01*
X102088125Y-121510342D01*
X102103129Y-121492059D01*
X102585205Y-121009984D01*
X102607876Y-121064717D01*
X102671241Y-121159548D01*
X102751889Y-121240196D01*
X102846720Y-121303561D01*
X102952092Y-121347207D01*
X103063953Y-121369457D01*
X103178007Y-121369457D01*
X103289868Y-121347207D01*
X103395240Y-121303561D01*
X103490071Y-121240196D01*
X103570719Y-121159548D01*
X103634084Y-121064717D01*
X103677730Y-120959345D01*
X103699980Y-120847484D01*
X103699980Y-120825174D01*
X105825010Y-120825174D01*
X105837457Y-120946394D01*
X105942677Y-121001930D01*
X106056711Y-121035871D01*
X106175176Y-121046913D01*
X106293517Y-121034632D01*
X106407189Y-120999500D01*
X106506543Y-120946394D01*
X106518990Y-120825174D01*
X106172000Y-120478184D01*
X105825010Y-120825174D01*
X103699980Y-120825174D01*
X103699980Y-120733430D01*
X103677730Y-120621569D01*
X103634084Y-120516197D01*
X103614916Y-120487511D01*
X103766692Y-120487511D01*
X103790215Y-120489828D01*
X103813738Y-120487511D01*
X103813741Y-120487511D01*
X103884115Y-120480580D01*
X103974407Y-120453190D01*
X104057620Y-120408711D01*
X104083277Y-120387655D01*
X104125885Y-120400580D01*
X104196259Y-120407511D01*
X104196264Y-120407511D01*
X104219784Y-120409828D01*
X104243305Y-120407511D01*
X105286692Y-120407511D01*
X105310215Y-120409828D01*
X105333738Y-120407511D01*
X105333741Y-120407511D01*
X105404115Y-120400580D01*
X105494407Y-120373190D01*
X105549019Y-120343999D01*
X105574331Y-120343999D01*
X105565087Y-120443176D01*
G36*
X113064467Y-120438653D02*
G01*
X113019152Y-120506471D01*
X112983044Y-120593644D01*
X112964637Y-120686186D01*
X112964637Y-120780540D01*
X112983044Y-120873082D01*
X113019152Y-120960255D01*
X113071573Y-121038708D01*
X113138292Y-121105427D01*
X113216745Y-121157848D01*
X113303918Y-121193956D01*
X113351885Y-121203497D01*
X113342281Y-121205407D01*
X113255108Y-121241515D01*
X113176655Y-121293936D01*
X113109936Y-121360655D01*
X113057515Y-121439108D01*
X113021407Y-121526281D01*
X113003000Y-121618823D01*
X113003000Y-121713177D01*
X113021407Y-121805719D01*
X113057515Y-121892892D01*
X113109936Y-121971345D01*
X113176655Y-122038064D01*
X113255108Y-122090485D01*
X113342281Y-122126593D01*
X113434823Y-122145000D01*
X113504500Y-122145000D01*
X113504501Y-122668637D01*
X113429853Y-122668637D01*
X113337311Y-122687044D01*
X113250138Y-122723152D01*
X113171685Y-122775573D01*
X113104966Y-122842292D01*
X113052545Y-122920745D01*
X113016437Y-123007918D01*
X113013984Y-123020249D01*
X112961733Y-123072500D01*
X112438942Y-123072500D01*
X112417726Y-123051284D01*
X112404653Y-123035355D01*
X112341081Y-122983182D01*
X112268551Y-122944414D01*
X112189852Y-122920541D01*
X112128517Y-122914500D01*
X112128510Y-122914500D01*
X112108008Y-122912481D01*
X112087506Y-122914500D01*
X111495935Y-122914500D01*
X110545580Y-121964146D01*
X110613719Y-121950593D01*
X110686862Y-121920296D01*
X110921146Y-122154580D01*
X110934218Y-122170508D01*
X110950146Y-122183580D01*
X110950147Y-122183581D01*
X110975567Y-122204442D01*
X110997790Y-122222681D01*
X111070320Y-122261449D01*
X111149019Y-122285322D01*
X111210354Y-122291363D01*
X111210363Y-122291363D01*
X111230862Y-122293382D01*
X111251361Y-122291363D01*
X111842003Y-122291363D01*
X111927769Y-122361750D01*
X112028354Y-122415514D01*
X112137496Y-122448622D01*
X112222561Y-122457000D01*
X112317439Y-122457000D01*
X112402504Y-122448622D01*
X112511646Y-122415514D01*
X112612231Y-122361750D01*
X112700395Y-122289395D01*
X112772750Y-122201231D01*
X112826514Y-122100646D01*
X112859622Y-121991504D01*
X112870801Y-121878000D01*
X112859622Y-121764496D01*
X112826514Y-121655354D01*
X112772750Y-121554769D01*
X112700395Y-121466605D01*
X112612231Y-121394250D01*
X112511646Y-121340486D01*
X112402504Y-121307378D01*
X112360620Y-121303253D01*
X112388593Y-121235719D01*
X112407000Y-121143177D01*
X112407000Y-121048823D01*
X112388593Y-120956281D01*
X112352485Y-120869108D01*
X112300064Y-120790655D01*
X112233345Y-120723936D01*
X112154892Y-120671515D01*
X112067719Y-120635407D01*
X111980205Y-120618000D01*
X112016177Y-120618000D01*
X112108719Y-120599593D01*
X112195892Y-120563485D01*
X112274345Y-120511064D01*
X112341064Y-120444345D01*
X112393485Y-120365892D01*
X112429593Y-120278719D01*
X112448000Y-120186177D01*
X112448000Y-120163500D01*
X112789314Y-120163500D01*
X113064467Y-120438653D01*
G37*
X113064467Y-120438653D02*
X113019152Y-120506471D01*
X112983044Y-120593644D01*
X112964637Y-120686186D01*
X112964637Y-120780540D01*
X112983044Y-120873082D01*
X113019152Y-120960255D01*
X113071573Y-121038708D01*
X113138292Y-121105427D01*
X113216745Y-121157848D01*
X113303918Y-121193956D01*
X113351885Y-121203497D01*
X113342281Y-121205407D01*
X113255108Y-121241515D01*
X113176655Y-121293936D01*
X113109936Y-121360655D01*
X113057515Y-121439108D01*
X113021407Y-121526281D01*
X113003000Y-121618823D01*
X113003000Y-121713177D01*
X113021407Y-121805719D01*
X113057515Y-121892892D01*
X113109936Y-121971345D01*
X113176655Y-122038064D01*
X113255108Y-122090485D01*
X113342281Y-122126593D01*
X113434823Y-122145000D01*
X113504500Y-122145000D01*
X113504501Y-122668637D01*
X113429853Y-122668637D01*
X113337311Y-122687044D01*
X113250138Y-122723152D01*
X113171685Y-122775573D01*
X113104966Y-122842292D01*
X113052545Y-122920745D01*
X113016437Y-123007918D01*
X113013984Y-123020249D01*
X112961733Y-123072500D01*
X112438942Y-123072500D01*
X112417726Y-123051284D01*
X112404653Y-123035355D01*
X112341081Y-122983182D01*
X112268551Y-122944414D01*
X112189852Y-122920541D01*
X112128517Y-122914500D01*
X112128510Y-122914500D01*
X112108008Y-122912481D01*
X112087506Y-122914500D01*
X111495935Y-122914500D01*
X110545580Y-121964146D01*
X110613719Y-121950593D01*
X110686862Y-121920296D01*
X110921146Y-122154580D01*
X110934218Y-122170508D01*
X110950146Y-122183580D01*
X110950147Y-122183581D01*
X110975567Y-122204442D01*
X110997790Y-122222681D01*
X111070320Y-122261449D01*
X111149019Y-122285322D01*
X111210354Y-122291363D01*
X111210363Y-122291363D01*
X111230862Y-122293382D01*
X111251361Y-122291363D01*
X111842003Y-122291363D01*
X111927769Y-122361750D01*
X112028354Y-122415514D01*
X112137496Y-122448622D01*
X112222561Y-122457000D01*
X112317439Y-122457000D01*
X112402504Y-122448622D01*
X112511646Y-122415514D01*
X112612231Y-122361750D01*
X112700395Y-122289395D01*
X112772750Y-122201231D01*
X112826514Y-122100646D01*
X112859622Y-121991504D01*
X112870801Y-121878000D01*
X112859622Y-121764496D01*
X112826514Y-121655354D01*
X112772750Y-121554769D01*
X112700395Y-121466605D01*
X112612231Y-121394250D01*
X112511646Y-121340486D01*
X112402504Y-121307378D01*
X112360620Y-121303253D01*
X112388593Y-121235719D01*
X112407000Y-121143177D01*
X112407000Y-121048823D01*
X112388593Y-120956281D01*
X112352485Y-120869108D01*
X112300064Y-120790655D01*
X112233345Y-120723936D01*
X112154892Y-120671515D01*
X112067719Y-120635407D01*
X111980205Y-120618000D01*
X112016177Y-120618000D01*
X112108719Y-120599593D01*
X112195892Y-120563485D01*
X112274345Y-120511064D01*
X112341064Y-120444345D01*
X112393485Y-120365892D01*
X112429593Y-120278719D01*
X112448000Y-120186177D01*
X112448000Y-120163500D01*
X112789314Y-120163500D01*
X113064467Y-120438653D01*
G36*
X99232495Y-118715208D02*
G01*
X99429692Y-118846971D01*
X99648806Y-118937731D01*
X99881416Y-118984000D01*
X100118584Y-118984000D01*
X100351194Y-118937731D01*
X100442502Y-118899910D01*
X101154658Y-119612066D01*
X101169658Y-119630344D01*
X101207143Y-119661106D01*
X101242595Y-119690201D01*
X101325808Y-119734680D01*
X101353198Y-119742988D01*
X101416101Y-119762070D01*
X101486475Y-119769001D01*
X101486478Y-119769001D01*
X101510001Y-119771318D01*
X101533524Y-119769001D01*
X101997288Y-119769001D01*
X101852275Y-119914014D01*
X101837124Y-119911000D01*
X101742770Y-119911000D01*
X101650228Y-119929407D01*
X101563055Y-119965515D01*
X101484602Y-120017936D01*
X101417883Y-120084655D01*
X101365462Y-120163108D01*
X101329354Y-120250281D01*
X101310947Y-120342823D01*
X101310947Y-120437177D01*
X101329354Y-120529719D01*
X101365462Y-120616892D01*
X101414979Y-120690999D01*
X101149527Y-120690999D01*
X101157731Y-120671194D01*
X101204000Y-120438584D01*
X101204000Y-120201416D01*
X101157731Y-119968806D01*
X101066971Y-119749692D01*
X100935208Y-119552495D01*
X100767505Y-119384792D01*
X100570308Y-119253029D01*
X100351194Y-119162269D01*
X100118584Y-119116000D01*
X99881416Y-119116000D01*
X99648806Y-119162269D01*
X99429692Y-119253029D01*
X99232495Y-119384792D01*
X99109000Y-119508287D01*
X99109000Y-118591713D01*
X99232495Y-118715208D01*
G37*
X99232495Y-118715208D02*
X99429692Y-118846971D01*
X99648806Y-118937731D01*
X99881416Y-118984000D01*
X100118584Y-118984000D01*
X100351194Y-118937731D01*
X100442502Y-118899910D01*
X101154658Y-119612066D01*
X101169658Y-119630344D01*
X101207143Y-119661106D01*
X101242595Y-119690201D01*
X101325808Y-119734680D01*
X101353198Y-119742988D01*
X101416101Y-119762070D01*
X101486475Y-119769001D01*
X101486478Y-119769001D01*
X101510001Y-119771318D01*
X101533524Y-119769001D01*
X101997288Y-119769001D01*
X101852275Y-119914014D01*
X101837124Y-119911000D01*
X101742770Y-119911000D01*
X101650228Y-119929407D01*
X101563055Y-119965515D01*
X101484602Y-120017936D01*
X101417883Y-120084655D01*
X101365462Y-120163108D01*
X101329354Y-120250281D01*
X101310947Y-120342823D01*
X101310947Y-120437177D01*
X101329354Y-120529719D01*
X101365462Y-120616892D01*
X101414979Y-120690999D01*
X101149527Y-120690999D01*
X101157731Y-120671194D01*
X101204000Y-120438584D01*
X101204000Y-120201416D01*
X101157731Y-119968806D01*
X101066971Y-119749692D01*
X100935208Y-119552495D01*
X100767505Y-119384792D01*
X100570308Y-119253029D01*
X100351194Y-119162269D01*
X100118584Y-119116000D01*
X99881416Y-119116000D01*
X99648806Y-119162269D01*
X99429692Y-119253029D01*
X99232495Y-119384792D01*
X99109000Y-119508287D01*
X99109000Y-118591713D01*
X99232495Y-118715208D01*
G36*
X108774326Y-117875858D02*
G01*
X108760184Y-117890000D01*
X109107174Y-118236990D01*
X109228394Y-118224543D01*
X109246962Y-118189364D01*
X109252777Y-118194137D01*
X109698161Y-118639521D01*
X109662457Y-118658606D01*
X109650010Y-118779826D01*
X109997000Y-119126816D01*
X110011142Y-119112674D01*
X110049326Y-119150858D01*
X110035184Y-119165000D01*
X110382174Y-119511990D01*
X110503394Y-119499543D01*
X110522322Y-119463682D01*
X110973161Y-119914521D01*
X110937457Y-119933606D01*
X110925010Y-120054826D01*
X111272000Y-120401816D01*
X111286142Y-120387674D01*
X111324326Y-120425858D01*
X111310184Y-120440000D01*
X111324326Y-120454142D01*
X111286142Y-120492326D01*
X111272000Y-120478184D01*
X111257858Y-120492326D01*
X111219674Y-120454142D01*
X111233816Y-120440000D01*
X110886826Y-120093010D01*
X110765606Y-120105457D01*
X110710070Y-120210677D01*
X110676129Y-120324711D01*
X110665087Y-120443176D01*
X110677368Y-120561517D01*
X110693211Y-120612777D01*
X110087549Y-120007115D01*
X110083560Y-119966609D01*
X110056170Y-119876317D01*
X110011691Y-119793104D01*
X109993814Y-119771320D01*
X110000176Y-119771913D01*
X110118517Y-119759632D01*
X110232189Y-119724500D01*
X110331543Y-119671394D01*
X110343990Y-119550174D01*
X109997000Y-119203184D01*
X109982858Y-119217326D01*
X109944674Y-119179142D01*
X109958816Y-119165000D01*
X109611826Y-118818010D01*
X109490606Y-118830457D01*
X109435070Y-118935677D01*
X109401129Y-119049711D01*
X109390087Y-119168176D01*
X109402368Y-119286517D01*
X109437500Y-119400189D01*
X109490606Y-119499543D01*
X109611824Y-119511990D01*
X109549090Y-119574724D01*
X109555875Y-119581509D01*
X109430480Y-119581509D01*
X109391910Y-119542939D01*
X109376906Y-119524656D01*
X109303968Y-119464799D01*
X109220755Y-119420320D01*
X109130463Y-119392930D01*
X109060089Y-119385999D01*
X109060086Y-119385999D01*
X109036563Y-119383682D01*
X109013040Y-119385999D01*
X108011408Y-119385999D01*
X108042871Y-119280289D01*
X108053913Y-119161824D01*
X108041632Y-119043483D01*
X108006500Y-118929811D01*
X107953394Y-118830457D01*
X107832174Y-118818010D01*
X107485184Y-119165000D01*
X107499326Y-119179142D01*
X107461142Y-119217326D01*
X107447000Y-119203184D01*
X107432858Y-119217326D01*
X107394674Y-119179142D01*
X107408816Y-119165000D01*
X107394674Y-119150858D01*
X107432858Y-119112674D01*
X107447000Y-119126816D01*
X107793990Y-118779826D01*
X107781543Y-118658606D01*
X107676323Y-118603070D01*
X107661713Y-118598721D01*
X107985260Y-118275174D01*
X108375010Y-118275174D01*
X108387457Y-118396394D01*
X108492677Y-118451930D01*
X108606711Y-118485871D01*
X108725176Y-118496913D01*
X108843517Y-118484632D01*
X108957189Y-118449500D01*
X109056543Y-118396394D01*
X109068990Y-118275174D01*
X108722000Y-117928184D01*
X108375010Y-118275174D01*
X107985260Y-118275174D01*
X108156065Y-118104369D01*
X108162500Y-118125189D01*
X108215606Y-118224543D01*
X108336826Y-118236990D01*
X108683816Y-117890000D01*
X108669674Y-117875858D01*
X108707858Y-117837674D01*
X108722000Y-117851816D01*
X108736142Y-117837674D01*
X108774326Y-117875858D01*
G37*
X108774326Y-117875858D02*
X108760184Y-117890000D01*
X109107174Y-118236990D01*
X109228394Y-118224543D01*
X109246962Y-118189364D01*
X109252777Y-118194137D01*
X109698161Y-118639521D01*
X109662457Y-118658606D01*
X109650010Y-118779826D01*
X109997000Y-119126816D01*
X110011142Y-119112674D01*
X110049326Y-119150858D01*
X110035184Y-119165000D01*
X110382174Y-119511990D01*
X110503394Y-119499543D01*
X110522322Y-119463682D01*
X110973161Y-119914521D01*
X110937457Y-119933606D01*
X110925010Y-120054826D01*
X111272000Y-120401816D01*
X111286142Y-120387674D01*
X111324326Y-120425858D01*
X111310184Y-120440000D01*
X111324326Y-120454142D01*
X111286142Y-120492326D01*
X111272000Y-120478184D01*
X111257858Y-120492326D01*
X111219674Y-120454142D01*
X111233816Y-120440000D01*
X110886826Y-120093010D01*
X110765606Y-120105457D01*
X110710070Y-120210677D01*
X110676129Y-120324711D01*
X110665087Y-120443176D01*
X110677368Y-120561517D01*
X110693211Y-120612777D01*
X110087549Y-120007115D01*
X110083560Y-119966609D01*
X110056170Y-119876317D01*
X110011691Y-119793104D01*
X109993814Y-119771320D01*
X110000176Y-119771913D01*
X110118517Y-119759632D01*
X110232189Y-119724500D01*
X110331543Y-119671394D01*
X110343990Y-119550174D01*
X109997000Y-119203184D01*
X109982858Y-119217326D01*
X109944674Y-119179142D01*
X109958816Y-119165000D01*
X109611826Y-118818010D01*
X109490606Y-118830457D01*
X109435070Y-118935677D01*
X109401129Y-119049711D01*
X109390087Y-119168176D01*
X109402368Y-119286517D01*
X109437500Y-119400189D01*
X109490606Y-119499543D01*
X109611824Y-119511990D01*
X109549090Y-119574724D01*
X109555875Y-119581509D01*
X109430480Y-119581509D01*
X109391910Y-119542939D01*
X109376906Y-119524656D01*
X109303968Y-119464799D01*
X109220755Y-119420320D01*
X109130463Y-119392930D01*
X109060089Y-119385999D01*
X109060086Y-119385999D01*
X109036563Y-119383682D01*
X109013040Y-119385999D01*
X108011408Y-119385999D01*
X108042871Y-119280289D01*
X108053913Y-119161824D01*
X108041632Y-119043483D01*
X108006500Y-118929811D01*
X107953394Y-118830457D01*
X107832174Y-118818010D01*
X107485184Y-119165000D01*
X107499326Y-119179142D01*
X107461142Y-119217326D01*
X107447000Y-119203184D01*
X107432858Y-119217326D01*
X107394674Y-119179142D01*
X107408816Y-119165000D01*
X107394674Y-119150858D01*
X107432858Y-119112674D01*
X107447000Y-119126816D01*
X107793990Y-118779826D01*
X107781543Y-118658606D01*
X107676323Y-118603070D01*
X107661713Y-118598721D01*
X107985260Y-118275174D01*
X108375010Y-118275174D01*
X108387457Y-118396394D01*
X108492677Y-118451930D01*
X108606711Y-118485871D01*
X108725176Y-118496913D01*
X108843517Y-118484632D01*
X108957189Y-118449500D01*
X109056543Y-118396394D01*
X109068990Y-118275174D01*
X108722000Y-117928184D01*
X108375010Y-118275174D01*
X107985260Y-118275174D01*
X108156065Y-118104369D01*
X108162500Y-118125189D01*
X108215606Y-118224543D01*
X108336826Y-118236990D01*
X108683816Y-117890000D01*
X108669674Y-117875858D01*
X108707858Y-117837674D01*
X108722000Y-117851816D01*
X108736142Y-117837674D01*
X108774326Y-117875858D01*
G36*
X106580057Y-118499509D02*
G01*
X106576927Y-118501182D01*
X106544864Y-118527496D01*
X106536576Y-118534298D01*
X106513355Y-118553355D01*
X106500283Y-118569283D01*
X105960577Y-119108989D01*
X105926562Y-119108989D01*
X106000395Y-119048395D01*
X106072750Y-118960231D01*
X106126514Y-118859646D01*
X106159622Y-118750504D01*
X106170801Y-118637000D01*
X106159622Y-118523496D01*
X106150871Y-118494648D01*
X106175176Y-118496913D01*
X106293517Y-118484632D01*
X106407189Y-118449500D01*
X106506543Y-118396394D01*
X106518990Y-118275174D01*
X106172000Y-117928184D01*
X106157858Y-117942326D01*
X106119674Y-117904142D01*
X106133816Y-117890000D01*
X106119674Y-117875858D01*
X106157858Y-117837674D01*
X106172000Y-117851816D01*
X106186142Y-117837674D01*
X106224326Y-117875858D01*
X106210184Y-117890000D01*
X106557174Y-118236990D01*
X106678394Y-118224543D01*
X106733930Y-118119323D01*
X106767871Y-118005289D01*
X106778913Y-117886824D01*
X106766632Y-117768483D01*
X106731500Y-117654811D01*
X106679486Y-117557500D01*
X107522066Y-117557500D01*
X106580057Y-118499509D01*
G37*
X106580057Y-118499509D02*
X106576927Y-118501182D01*
X106544864Y-118527496D01*
X106536576Y-118534298D01*
X106513355Y-118553355D01*
X106500283Y-118569283D01*
X105960577Y-119108989D01*
X105926562Y-119108989D01*
X106000395Y-119048395D01*
X106072750Y-118960231D01*
X106126514Y-118859646D01*
X106159622Y-118750504D01*
X106170801Y-118637000D01*
X106159622Y-118523496D01*
X106150871Y-118494648D01*
X106175176Y-118496913D01*
X106293517Y-118484632D01*
X106407189Y-118449500D01*
X106506543Y-118396394D01*
X106518990Y-118275174D01*
X106172000Y-117928184D01*
X106157858Y-117942326D01*
X106119674Y-117904142D01*
X106133816Y-117890000D01*
X106119674Y-117875858D01*
X106157858Y-117837674D01*
X106172000Y-117851816D01*
X106186142Y-117837674D01*
X106224326Y-117875858D01*
X106210184Y-117890000D01*
X106557174Y-118236990D01*
X106678394Y-118224543D01*
X106733930Y-118119323D01*
X106767871Y-118005289D01*
X106778913Y-117886824D01*
X106766632Y-117768483D01*
X106731500Y-117654811D01*
X106679486Y-117557500D01*
X107522066Y-117557500D01*
X106580057Y-118499509D01*
G36*
X111324326Y-117875858D02*
G01*
X111310184Y-117890000D01*
X111324326Y-117904142D01*
X111286142Y-117942326D01*
X111272000Y-117928184D01*
X111257858Y-117942326D01*
X111219674Y-117904142D01*
X111233816Y-117890000D01*
X111219674Y-117875858D01*
X111257858Y-117837674D01*
X111272000Y-117851816D01*
X111286142Y-117837674D01*
X111324326Y-117875858D01*
G37*
X111324326Y-117875858D02*
X111310184Y-117890000D01*
X111324326Y-117904142D01*
X111286142Y-117942326D01*
X111272000Y-117928184D01*
X111257858Y-117942326D01*
X111219674Y-117904142D01*
X111233816Y-117890000D01*
X111219674Y-117875858D01*
X111257858Y-117837674D01*
X111272000Y-117851816D01*
X111286142Y-117837674D01*
X111324326Y-117875858D01*
G36*
X113647976Y-98906934D02*
G01*
X113704814Y-99044153D01*
X113787330Y-99167647D01*
X113892353Y-99272670D01*
X114015847Y-99355186D01*
X114153066Y-99412024D01*
X114181107Y-99417602D01*
X114173029Y-99429692D01*
X114082269Y-99648806D01*
X114036000Y-99881416D01*
X114036000Y-100118584D01*
X114082269Y-100351194D01*
X114173029Y-100570308D01*
X114304792Y-100767505D01*
X114472495Y-100935208D01*
X114669692Y-101066971D01*
X114888806Y-101157731D01*
X115121416Y-101204000D01*
X115358584Y-101204000D01*
X115591194Y-101157731D01*
X115810308Y-101066971D01*
X116007505Y-100935208D01*
X116131001Y-100811712D01*
X116131001Y-101738131D01*
X116076897Y-101674425D01*
X115891951Y-101527786D01*
X115681951Y-101420046D01*
X115454967Y-101355345D01*
X115267000Y-101424802D01*
X115267000Y-102513000D01*
X115287000Y-102513000D01*
X115287000Y-102567000D01*
X115267000Y-102567000D01*
X115267000Y-103655198D01*
X115454967Y-103724655D01*
X115681951Y-103659954D01*
X115891951Y-103552214D01*
X116076897Y-103405575D01*
X116131001Y-103341869D01*
X116131001Y-104268288D01*
X116007505Y-104144792D01*
X115810308Y-104013029D01*
X115591194Y-103922269D01*
X115358584Y-103876000D01*
X115121416Y-103876000D01*
X114888806Y-103922269D01*
X114669692Y-104013029D01*
X114472495Y-104144792D01*
X114304792Y-104312495D01*
X114173029Y-104509692D01*
X114082269Y-104728806D01*
X114036000Y-104961416D01*
X114036000Y-105198584D01*
X114082269Y-105431194D01*
X114145564Y-105584002D01*
X113399283Y-106330283D01*
X113383355Y-106343355D01*
X113370284Y-106359282D01*
X113370281Y-106359285D01*
X113340296Y-106395823D01*
X113331182Y-106406928D01*
X113292414Y-106479458D01*
X113283066Y-106510274D01*
X113270097Y-106553029D01*
X113268541Y-106558157D01*
X113262500Y-106619492D01*
X113262500Y-106619498D01*
X113260481Y-106640000D01*
X113262500Y-106660502D01*
X113262501Y-108512160D01*
X113187153Y-108461814D01*
X113049934Y-108404976D01*
X112904262Y-108376000D01*
X112755738Y-108376000D01*
X112610066Y-108404976D01*
X112472847Y-108461814D01*
X112349353Y-108544330D01*
X112244330Y-108649353D01*
X112161814Y-108772847D01*
X112104976Y-108910066D01*
X112076000Y-109055738D01*
X112076000Y-109204262D01*
X112104976Y-109349934D01*
X112161814Y-109487153D01*
X112244330Y-109610647D01*
X112349353Y-109715670D01*
X112472847Y-109798186D01*
X112610066Y-109855024D01*
X112646032Y-109862178D01*
X112639126Y-109870593D01*
X112628182Y-109883928D01*
X112589414Y-109956458D01*
X112565541Y-110035157D01*
X112559500Y-110096492D01*
X112559500Y-110096498D01*
X112557481Y-110117000D01*
X112559500Y-110137502D01*
X112559501Y-112399488D01*
X112557481Y-112420000D01*
X112565541Y-112501844D01*
X112589415Y-112580543D01*
X112628183Y-112653073D01*
X112667281Y-112700715D01*
X112667289Y-112700723D01*
X112672385Y-112706933D01*
X112561871Y-112706933D01*
X112416199Y-112735909D01*
X112278980Y-112792747D01*
X112155486Y-112875263D01*
X112050463Y-112980286D01*
X111967947Y-113103780D01*
X111911109Y-113240999D01*
X111882133Y-113386671D01*
X111882133Y-113535195D01*
X111911109Y-113680867D01*
X111967947Y-113818086D01*
X112050463Y-113941580D01*
X112155486Y-114046603D01*
X112161862Y-114050863D01*
X112135250Y-114115112D01*
X112113000Y-114226973D01*
X112113000Y-114341027D01*
X112135250Y-114452888D01*
X112178896Y-114558260D01*
X112242261Y-114653091D01*
X112322909Y-114733739D01*
X112417740Y-114797104D01*
X112523112Y-114840750D01*
X112634973Y-114863000D01*
X112649989Y-114863000D01*
X112649990Y-116728608D01*
X112631892Y-116716515D01*
X112544719Y-116680407D01*
X112452177Y-116662000D01*
X112387000Y-116662000D01*
X112387000Y-116592823D01*
X112368593Y-116500281D01*
X112332485Y-116413108D01*
X112280064Y-116334655D01*
X112213345Y-116267936D01*
X112134892Y-116215515D01*
X112047719Y-116179407D01*
X111955177Y-116161000D01*
X111860823Y-116161000D01*
X111768281Y-116179407D01*
X111681108Y-116215515D01*
X111602655Y-116267936D01*
X111535936Y-116334655D01*
X111483515Y-116413108D01*
X111447407Y-116500281D01*
X111429000Y-116592823D01*
X111429000Y-116687177D01*
X111447407Y-116779719D01*
X111483515Y-116866892D01*
X111535936Y-116945345D01*
X111602655Y-117012064D01*
X111681108Y-117064485D01*
X111768281Y-117100593D01*
X111860823Y-117119000D01*
X111926000Y-117119000D01*
X111926000Y-117161000D01*
X111851823Y-117161000D01*
X111759281Y-117179407D01*
X111672108Y-117215515D01*
X111593655Y-117267936D01*
X111526936Y-117334655D01*
X111523511Y-117339781D01*
X111501323Y-117328070D01*
X111387289Y-117294129D01*
X111268824Y-117283087D01*
X111255012Y-117284520D01*
X111255012Y-116253565D01*
X111257031Y-116233066D01*
X111255012Y-116212567D01*
X111255012Y-116212558D01*
X111248971Y-116151223D01*
X111225098Y-116072524D01*
X111186330Y-115999994D01*
X111134157Y-115936422D01*
X111121500Y-115926035D01*
X111121500Y-115925391D01*
X111156711Y-115935871D01*
X111275176Y-115946913D01*
X111393517Y-115934632D01*
X111507189Y-115899500D01*
X111606543Y-115846394D01*
X111618990Y-115725174D01*
X111272000Y-115378184D01*
X111257858Y-115392326D01*
X111219674Y-115354142D01*
X111233816Y-115340000D01*
X111310184Y-115340000D01*
X111657174Y-115686990D01*
X111778394Y-115674543D01*
X111833930Y-115569323D01*
X111867871Y-115455289D01*
X111878913Y-115336824D01*
X111866632Y-115218483D01*
X111831500Y-115104811D01*
X111778394Y-115005457D01*
X111657174Y-114993010D01*
X111310184Y-115340000D01*
X111233816Y-115340000D01*
X111219674Y-115325858D01*
X111257858Y-115287674D01*
X111272000Y-115301816D01*
X111618990Y-114954826D01*
X111606543Y-114833606D01*
X111543603Y-114800386D01*
X111550000Y-114735438D01*
X111550000Y-114677561D01*
X111541622Y-114592496D01*
X111508514Y-114483354D01*
X111454750Y-114382769D01*
X111382395Y-114294605D01*
X111294230Y-114222250D01*
X111193645Y-114168486D01*
X111084503Y-114135378D01*
X111048053Y-114131788D01*
X111041622Y-114066496D01*
X111008514Y-113957354D01*
X110954750Y-113856769D01*
X110882395Y-113768605D01*
X110794231Y-113696250D01*
X110693646Y-113642486D01*
X110584504Y-113609378D01*
X110499439Y-113601000D01*
X110441561Y-113601000D01*
X110356496Y-113609378D01*
X110247354Y-113642486D01*
X110146769Y-113696250D01*
X110058605Y-113768605D01*
X109986250Y-113856769D01*
X109963516Y-113899301D01*
X109955749Y-113884769D01*
X109883395Y-113796605D01*
X109805077Y-113732332D01*
X109862064Y-113675345D01*
X109914485Y-113596892D01*
X109950593Y-113509719D01*
X109969000Y-113417177D01*
X109969000Y-113322823D01*
X109950593Y-113230281D01*
X109914485Y-113143108D01*
X109874022Y-113082551D01*
X109884485Y-113066892D01*
X109920593Y-112979719D01*
X109939000Y-112887177D01*
X109939000Y-112792823D01*
X109920593Y-112700281D01*
X109884485Y-112613108D01*
X109878269Y-112603805D01*
X109877500Y-112595996D01*
X109877500Y-112595988D01*
X109874842Y-112569000D01*
X110291593Y-112569000D01*
X110327932Y-112605339D01*
X110327936Y-112605345D01*
X110394655Y-112672064D01*
X110414332Y-112685212D01*
X110432595Y-112700200D01*
X110453433Y-112711338D01*
X110473108Y-112724485D01*
X110494965Y-112733538D01*
X110515807Y-112744679D01*
X110538424Y-112751540D01*
X110560281Y-112760593D01*
X110583486Y-112765208D01*
X110606099Y-112772068D01*
X110629619Y-112774385D01*
X110652823Y-112779000D01*
X110676477Y-112779000D01*
X110700000Y-112781317D01*
X110723523Y-112779000D01*
X110747177Y-112779000D01*
X110770381Y-112774385D01*
X110793900Y-112772068D01*
X110816512Y-112765209D01*
X110839719Y-112760593D01*
X110861579Y-112751538D01*
X110884192Y-112744679D01*
X110905032Y-112733540D01*
X110926892Y-112724485D01*
X110946568Y-112711338D01*
X110967405Y-112700200D01*
X110985668Y-112685212D01*
X111005345Y-112672064D01*
X111022078Y-112655331D01*
X111040342Y-112640342D01*
X111055331Y-112622078D01*
X111070800Y-112606609D01*
X111082515Y-112634892D01*
X111134936Y-112713345D01*
X111201655Y-112780064D01*
X111280108Y-112832485D01*
X111367281Y-112868593D01*
X111459823Y-112887000D01*
X111554177Y-112887000D01*
X111646719Y-112868593D01*
X111733892Y-112832485D01*
X111812345Y-112780064D01*
X111879064Y-112713345D01*
X111931485Y-112634892D01*
X111967593Y-112547719D01*
X111986000Y-112455177D01*
X111986000Y-112360823D01*
X111967593Y-112268281D01*
X111931485Y-112181108D01*
X111879064Y-112102655D01*
X111812345Y-112035936D01*
X111733892Y-111983515D01*
X111646719Y-111947407D01*
X111554177Y-111929000D01*
X111459823Y-111929000D01*
X111367281Y-111947407D01*
X111280108Y-111983515D01*
X111201655Y-112035936D01*
X111136704Y-112100887D01*
X111133538Y-112094965D01*
X111124485Y-112073108D01*
X111111338Y-112053433D01*
X111100200Y-112032595D01*
X111085212Y-112014332D01*
X111072064Y-111994655D01*
X111005345Y-111927936D01*
X111005339Y-111927932D01*
X110845347Y-111767940D01*
X110830343Y-111749657D01*
X110757405Y-111689800D01*
X110674192Y-111645321D01*
X110583900Y-111617931D01*
X110513526Y-111611000D01*
X110513523Y-111611000D01*
X110490000Y-111608683D01*
X110466477Y-111611000D01*
X109688408Y-111611000D01*
X109548362Y-111470954D01*
X109622770Y-111470954D01*
X109734631Y-111448704D01*
X109840003Y-111405058D01*
X109934834Y-111341693D01*
X109948683Y-111327844D01*
X109952096Y-111330124D01*
X110057468Y-111373770D01*
X110169329Y-111396020D01*
X110283383Y-111396020D01*
X110395244Y-111373770D01*
X110500616Y-111330124D01*
X110595447Y-111266759D01*
X110676095Y-111186111D01*
X110739460Y-111091280D01*
X110783106Y-110985908D01*
X110805356Y-110874047D01*
X110805356Y-110759993D01*
X110783106Y-110648132D01*
X110739460Y-110542760D01*
X110676095Y-110447929D01*
X110595447Y-110367281D01*
X110500616Y-110303916D01*
X110447867Y-110282067D01*
X110893723Y-109836211D01*
X110909645Y-109823144D01*
X110922712Y-109807222D01*
X110922719Y-109807215D01*
X110961817Y-109759573D01*
X110963470Y-109756481D01*
X111000586Y-109687042D01*
X111024459Y-109608343D01*
X111030500Y-109547008D01*
X111030500Y-109547002D01*
X111032519Y-109526500D01*
X111030500Y-109505998D01*
X111030500Y-107359934D01*
X111116029Y-107274405D01*
X111144976Y-107419934D01*
X111201814Y-107557153D01*
X111284330Y-107680647D01*
X111389353Y-107785670D01*
X111512847Y-107868186D01*
X111650066Y-107925024D01*
X111795738Y-107954000D01*
X111944262Y-107954000D01*
X112089934Y-107925024D01*
X112227153Y-107868186D01*
X112350647Y-107785670D01*
X112455670Y-107680647D01*
X112538186Y-107557153D01*
X112595024Y-107419934D01*
X112624000Y-107274262D01*
X112624000Y-107125738D01*
X112595024Y-106980066D01*
X112538186Y-106842847D01*
X112455670Y-106719353D01*
X112350647Y-106614330D01*
X112227153Y-106531814D01*
X112089934Y-106474976D01*
X111944405Y-106446029D01*
X112175998Y-106214436D01*
X112328806Y-106277731D01*
X112561416Y-106324000D01*
X112798584Y-106324000D01*
X113031194Y-106277731D01*
X113250308Y-106186971D01*
X113447505Y-106055208D01*
X113615208Y-105887505D01*
X113746971Y-105690308D01*
X113837731Y-105471194D01*
X113884000Y-105238584D01*
X113884000Y-105001416D01*
X113837731Y-104768806D01*
X113746971Y-104549692D01*
X113615208Y-104352495D01*
X113447505Y-104184792D01*
X113250308Y-104053029D01*
X113031194Y-103962269D01*
X112798584Y-103916000D01*
X112561416Y-103916000D01*
X112328806Y-103962269D01*
X112109692Y-104053029D01*
X111912495Y-104184792D01*
X111744792Y-104352495D01*
X111613029Y-104549692D01*
X111522269Y-104768806D01*
X111476000Y-105001416D01*
X111476000Y-105238584D01*
X111522269Y-105471194D01*
X111585564Y-105624002D01*
X110332283Y-106877283D01*
X110316355Y-106890355D01*
X110303284Y-106906282D01*
X110303281Y-106906285D01*
X110283078Y-106930903D01*
X110264182Y-106953928D01*
X110225414Y-107026458D01*
X110201541Y-107105157D01*
X110195500Y-107166492D01*
X110195500Y-107166498D01*
X110193481Y-107187000D01*
X110195500Y-107207502D01*
X110195501Y-109353563D01*
X109285026Y-110264039D01*
X109269098Y-110277111D01*
X109256027Y-110293038D01*
X109256024Y-110293041D01*
X109239682Y-110312954D01*
X109216925Y-110340684D01*
X109178157Y-110413214D01*
X109157476Y-110481391D01*
X109116004Y-110522863D01*
X109115710Y-110523302D01*
X107044347Y-108451940D01*
X107029343Y-108433657D01*
X106956405Y-108373800D01*
X106873192Y-108329321D01*
X106782900Y-108301931D01*
X106712526Y-108295000D01*
X106712523Y-108295000D01*
X106689000Y-108292683D01*
X106665477Y-108295000D01*
X105432299Y-108295000D01*
X105381260Y-108260896D01*
X105275888Y-108217250D01*
X105164027Y-108195000D01*
X105049973Y-108195000D01*
X104938112Y-108217250D01*
X104832740Y-108260896D01*
X104737909Y-108324261D01*
X104657261Y-108404909D01*
X104593896Y-108499740D01*
X104550250Y-108605112D01*
X104528000Y-108716973D01*
X104528000Y-108831027D01*
X104550250Y-108942888D01*
X104593896Y-109048260D01*
X104657261Y-109143091D01*
X104737909Y-109223739D01*
X104832740Y-109287104D01*
X104938112Y-109330750D01*
X105049973Y-109353000D01*
X105164027Y-109353000D01*
X105275888Y-109330750D01*
X105381260Y-109287104D01*
X105432299Y-109253000D01*
X106490593Y-109253000D01*
X108026061Y-110788469D01*
X108018741Y-110788469D01*
X107906880Y-110810719D01*
X107801508Y-110854365D01*
X107706677Y-110917730D01*
X107626029Y-110998378D01*
X107615333Y-111014386D01*
X107605365Y-111004418D01*
X107605365Y-110950363D01*
X107607384Y-110929864D01*
X107605365Y-110909365D01*
X107605365Y-110909356D01*
X107599324Y-110848021D01*
X107575451Y-110769322D01*
X107536683Y-110696792D01*
X107531618Y-110690620D01*
X107497584Y-110649149D01*
X107497577Y-110649142D01*
X107484510Y-110633220D01*
X107468588Y-110620153D01*
X107056357Y-110207922D01*
X107046121Y-110103997D01*
X107013014Y-109994855D01*
X106959250Y-109894269D01*
X106905024Y-109828195D01*
X106823305Y-109746476D01*
X106757231Y-109692250D01*
X106656645Y-109638486D01*
X106547504Y-109605379D01*
X106434000Y-109594200D01*
X106320496Y-109605379D01*
X106211355Y-109638486D01*
X106110769Y-109692250D01*
X106022605Y-109764605D01*
X105950250Y-109852769D01*
X105896486Y-109953355D01*
X105863379Y-110062496D01*
X105852200Y-110176000D01*
X105863379Y-110289504D01*
X105896486Y-110398645D01*
X105950250Y-110499231D01*
X106004476Y-110565305D01*
X106086195Y-110647024D01*
X106152269Y-110701250D01*
X106188003Y-110720350D01*
X106103108Y-110755515D01*
X106024655Y-110807936D01*
X105957936Y-110874655D01*
X105905515Y-110953108D01*
X105869407Y-111040281D01*
X105851000Y-111132823D01*
X105851000Y-111227177D01*
X105869407Y-111319719D01*
X105905515Y-111406892D01*
X105957936Y-111485345D01*
X106024655Y-111552064D01*
X106103108Y-111604485D01*
X106121789Y-111612223D01*
X107180281Y-112670715D01*
X107193355Y-112686645D01*
X107209283Y-112699717D01*
X107209285Y-112699719D01*
X107236610Y-112722144D01*
X107256927Y-112738818D01*
X107329457Y-112777586D01*
X107408156Y-112801459D01*
X107469491Y-112807500D01*
X107469498Y-112807500D01*
X107490000Y-112809519D01*
X107510502Y-112807500D01*
X107711131Y-112807500D01*
X107727485Y-112889719D01*
X107763593Y-112976892D01*
X107816014Y-113055345D01*
X107824899Y-113064230D01*
X107816621Y-113091521D01*
X107795515Y-113123108D01*
X107759407Y-113210281D01*
X107741000Y-113302823D01*
X107741000Y-113397177D01*
X107759407Y-113489719D01*
X107795515Y-113576892D01*
X107847936Y-113655345D01*
X107914655Y-113722064D01*
X107993108Y-113774485D01*
X108045489Y-113796182D01*
X108045490Y-114342324D01*
X106620313Y-115767501D01*
X106602133Y-115767501D01*
X106619910Y-115749724D01*
X106557176Y-115686990D01*
X106678394Y-115674543D01*
X106733930Y-115569323D01*
X106767871Y-115455289D01*
X106778913Y-115336824D01*
X106766632Y-115218483D01*
X106731500Y-115104811D01*
X106678394Y-115005457D01*
X106557174Y-114993010D01*
X106210184Y-115340000D01*
X106224326Y-115354142D01*
X106186142Y-115392326D01*
X106172000Y-115378184D01*
X106157858Y-115392326D01*
X106119674Y-115354142D01*
X106133816Y-115340000D01*
X105786826Y-114993010D01*
X105665606Y-115005457D01*
X105610070Y-115110677D01*
X105576129Y-115224711D01*
X105571995Y-115269066D01*
X105535345Y-115232416D01*
X105522501Y-115223834D01*
X105522501Y-114954826D01*
X105825010Y-114954826D01*
X106172000Y-115301816D01*
X106518990Y-114954826D01*
X106506543Y-114833606D01*
X106401323Y-114778070D01*
X106287289Y-114744129D01*
X106168824Y-114733087D01*
X106050483Y-114745368D01*
X105936811Y-114780500D01*
X105837457Y-114833606D01*
X105825010Y-114954826D01*
X105522501Y-114954826D01*
X105522501Y-113575499D01*
X105524520Y-113555000D01*
X105522501Y-113534501D01*
X105522501Y-113534492D01*
X105516460Y-113473157D01*
X105492587Y-113394458D01*
X105453819Y-113321928D01*
X105426731Y-113288922D01*
X105414720Y-113274286D01*
X105414718Y-113274284D01*
X105401646Y-113258356D01*
X105385719Y-113245285D01*
X105139717Y-112999283D01*
X105126645Y-112983355D01*
X105105628Y-112966106D01*
X105096411Y-112958542D01*
X105063073Y-112931182D01*
X104990543Y-112892414D01*
X104911844Y-112868541D01*
X104850509Y-112862500D01*
X104850502Y-112862500D01*
X104830000Y-112860481D01*
X104809498Y-112862500D01*
X103322934Y-112862500D01*
X102057500Y-111597066D01*
X102057500Y-111320823D01*
X102874000Y-111320823D01*
X102874000Y-111415177D01*
X102892407Y-111507719D01*
X102928515Y-111594892D01*
X102980936Y-111673345D01*
X103047655Y-111740064D01*
X103126108Y-111792485D01*
X103213281Y-111828593D01*
X103305823Y-111847000D01*
X103400177Y-111847000D01*
X103492719Y-111828593D01*
X103579892Y-111792485D01*
X103658345Y-111740064D01*
X103725064Y-111673345D01*
X103777485Y-111594892D01*
X103813593Y-111507719D01*
X103832000Y-111415177D01*
X103832000Y-111320823D01*
X103813593Y-111228281D01*
X103777485Y-111141108D01*
X103725064Y-111062655D01*
X103658345Y-110995936D01*
X103579892Y-110943515D01*
X103492719Y-110907407D01*
X103400177Y-110889000D01*
X103305823Y-110889000D01*
X103213281Y-110907407D01*
X103126108Y-110943515D01*
X103047655Y-110995936D01*
X102980936Y-111062655D01*
X102928515Y-111141108D01*
X102892407Y-111228281D01*
X102874000Y-111320823D01*
X102057500Y-111320823D01*
X102057500Y-108531519D01*
X102059519Y-108511017D01*
X102057500Y-108490515D01*
X102057500Y-108490509D01*
X102051459Y-108429174D01*
X102027586Y-108350475D01*
X101988818Y-108277945D01*
X101974826Y-108260896D01*
X101952732Y-108233973D01*
X102943000Y-108233973D01*
X102943000Y-108348027D01*
X102965250Y-108459888D01*
X103008896Y-108565260D01*
X103072261Y-108660091D01*
X103152909Y-108740739D01*
X103247740Y-108804104D01*
X103353112Y-108847750D01*
X103464973Y-108870000D01*
X103579027Y-108870000D01*
X103690888Y-108847750D01*
X103796260Y-108804104D01*
X103891091Y-108740739D01*
X103971739Y-108660091D01*
X104035104Y-108565260D01*
X104078750Y-108459888D01*
X104101000Y-108348027D01*
X104101000Y-108233973D01*
X104078750Y-108122112D01*
X104035104Y-108016740D01*
X103971739Y-107921909D01*
X103891091Y-107841261D01*
X103796260Y-107777896D01*
X103690888Y-107734250D01*
X103633440Y-107722823D01*
X106461000Y-107722823D01*
X106461000Y-107817177D01*
X106479407Y-107909719D01*
X106515515Y-107996892D01*
X106567936Y-108075345D01*
X106634655Y-108142064D01*
X106713108Y-108194485D01*
X106800281Y-108230593D01*
X106892823Y-108249000D01*
X106987177Y-108249000D01*
X107079719Y-108230593D01*
X107166892Y-108194485D01*
X107245345Y-108142064D01*
X107312064Y-108075345D01*
X107364485Y-107996892D01*
X107400593Y-107909719D01*
X107419000Y-107817177D01*
X107419000Y-107722823D01*
X107400593Y-107630281D01*
X107364485Y-107543108D01*
X107312064Y-107464655D01*
X107245345Y-107397936D01*
X107166892Y-107345515D01*
X107079719Y-107309407D01*
X106987177Y-107291000D01*
X106892823Y-107291000D01*
X106800281Y-107309407D01*
X106713108Y-107345515D01*
X106634655Y-107397936D01*
X106567936Y-107464655D01*
X106515515Y-107543108D01*
X106479407Y-107630281D01*
X106461000Y-107722823D01*
X103633440Y-107722823D01*
X103579027Y-107712000D01*
X103464973Y-107712000D01*
X103353112Y-107734250D01*
X103247740Y-107777896D01*
X103152909Y-107841261D01*
X103072261Y-107921909D01*
X103008896Y-108016740D01*
X102965250Y-108122112D01*
X102943000Y-108233973D01*
X101952732Y-108233973D01*
X101949719Y-108230302D01*
X101949712Y-108230295D01*
X101936645Y-108214373D01*
X101920724Y-108201307D01*
X101531001Y-107811585D01*
X101531001Y-106362973D01*
X108541000Y-106362973D01*
X108541000Y-106477027D01*
X108563250Y-106588888D01*
X108606896Y-106694260D01*
X108670261Y-106789091D01*
X108750909Y-106869739D01*
X108845740Y-106933104D01*
X108951112Y-106976750D01*
X109062973Y-106999000D01*
X109177027Y-106999000D01*
X109288888Y-106976750D01*
X109394260Y-106933104D01*
X109489091Y-106869739D01*
X109569739Y-106789091D01*
X109633104Y-106694260D01*
X109676750Y-106588888D01*
X109699000Y-106477027D01*
X109699000Y-106362973D01*
X109676750Y-106251112D01*
X109633104Y-106145740D01*
X109569739Y-106050909D01*
X109489091Y-105970261D01*
X109394260Y-105906896D01*
X109288888Y-105863250D01*
X109177027Y-105841000D01*
X109062973Y-105841000D01*
X108951112Y-105863250D01*
X108845740Y-105906896D01*
X108750909Y-105970261D01*
X108670261Y-106050909D01*
X108606896Y-106145740D01*
X108563250Y-106251112D01*
X108541000Y-106362973D01*
X101531001Y-106362973D01*
X101531001Y-105737069D01*
X101604792Y-105847505D01*
X101772495Y-106015208D01*
X101969692Y-106146971D01*
X102188806Y-106237731D01*
X102421416Y-106284000D01*
X102658584Y-106284000D01*
X102891194Y-106237731D01*
X103110308Y-106146971D01*
X103307505Y-106015208D01*
X103475208Y-105847505D01*
X103606971Y-105650308D01*
X103697731Y-105431194D01*
X103744000Y-105198584D01*
X103744000Y-104961416D01*
X103876000Y-104961416D01*
X103876000Y-105198584D01*
X103922269Y-105431194D01*
X104013029Y-105650308D01*
X104144792Y-105847505D01*
X104312495Y-106015208D01*
X104509692Y-106146971D01*
X104728806Y-106237731D01*
X104961416Y-106284000D01*
X105198584Y-106284000D01*
X105431194Y-106237731D01*
X105650308Y-106146971D01*
X105847505Y-106015208D01*
X106015208Y-105847505D01*
X106146971Y-105650308D01*
X106237731Y-105431194D01*
X106284000Y-105198584D01*
X106284000Y-104961416D01*
X106416000Y-104961416D01*
X106416000Y-105198584D01*
X106462269Y-105431194D01*
X106553029Y-105650308D01*
X106684792Y-105847505D01*
X106852495Y-106015208D01*
X107049692Y-106146971D01*
X107268806Y-106237731D01*
X107501416Y-106284000D01*
X107738584Y-106284000D01*
X107971194Y-106237731D01*
X108190308Y-106146971D01*
X108387505Y-106015208D01*
X108555208Y-105847505D01*
X108686971Y-105650308D01*
X108777731Y-105431194D01*
X108785380Y-105392738D01*
X109676000Y-105392738D01*
X109676000Y-105541262D01*
X109704976Y-105686934D01*
X109761814Y-105824153D01*
X109844330Y-105947647D01*
X109949353Y-106052670D01*
X110072847Y-106135186D01*
X110210066Y-106192024D01*
X110355738Y-106221000D01*
X110504262Y-106221000D01*
X110649934Y-106192024D01*
X110787153Y-106135186D01*
X110910647Y-106052670D01*
X111015670Y-105947647D01*
X111098186Y-105824153D01*
X111155024Y-105686934D01*
X111184000Y-105541262D01*
X111184000Y-105392738D01*
X111155024Y-105247066D01*
X111098186Y-105109847D01*
X111015670Y-104986353D01*
X110910647Y-104881330D01*
X110787153Y-104798814D01*
X110649934Y-104741976D01*
X110504262Y-104713000D01*
X110355738Y-104713000D01*
X110210066Y-104741976D01*
X110072847Y-104798814D01*
X109949353Y-104881330D01*
X109844330Y-104986353D01*
X109761814Y-105109847D01*
X109704976Y-105247066D01*
X109676000Y-105392738D01*
X108785380Y-105392738D01*
X108824000Y-105198584D01*
X108824000Y-104961416D01*
X108777731Y-104728806D01*
X108686971Y-104509692D01*
X108555208Y-104312495D01*
X108387505Y-104144792D01*
X108190308Y-104013029D01*
X107971194Y-103922269D01*
X107738584Y-103876000D01*
X107501416Y-103876000D01*
X107268806Y-103922269D01*
X107049692Y-104013029D01*
X106852495Y-104144792D01*
X106684792Y-104312495D01*
X106553029Y-104509692D01*
X106462269Y-104728806D01*
X106416000Y-104961416D01*
X106284000Y-104961416D01*
X106237731Y-104728806D01*
X106146971Y-104509692D01*
X106015208Y-104312495D01*
X105847505Y-104144792D01*
X105650308Y-104013029D01*
X105431194Y-103922269D01*
X105198584Y-103876000D01*
X104961416Y-103876000D01*
X104728806Y-103922269D01*
X104509692Y-104013029D01*
X104312495Y-104144792D01*
X104144792Y-104312495D01*
X104013029Y-104509692D01*
X103922269Y-104728806D01*
X103876000Y-104961416D01*
X103744000Y-104961416D01*
X103697731Y-104728806D01*
X103606971Y-104509692D01*
X103475208Y-104312495D01*
X103307505Y-104144792D01*
X103110308Y-104013029D01*
X102891194Y-103922269D01*
X102658584Y-103876000D01*
X102421416Y-103876000D01*
X102188806Y-103922269D01*
X101969692Y-104013029D01*
X101772495Y-104144792D01*
X101604792Y-104312495D01*
X101531001Y-104422931D01*
X101531001Y-103388239D01*
X101619719Y-103370593D01*
X101706892Y-103334485D01*
X101785345Y-103282064D01*
X101852064Y-103215345D01*
X101904485Y-103136892D01*
X101940593Y-103049719D01*
X101959000Y-102957177D01*
X101959000Y-102947005D01*
X101977936Y-102975345D01*
X102044655Y-103042064D01*
X102123108Y-103094485D01*
X102210281Y-103130593D01*
X102302823Y-103149000D01*
X102397177Y-103149000D01*
X102489719Y-103130593D01*
X102576892Y-103094485D01*
X102590133Y-103085637D01*
X102677683Y-103192317D01*
X102815334Y-103305285D01*
X102972380Y-103389228D01*
X103142785Y-103440920D01*
X103320000Y-103458374D01*
X103497214Y-103440920D01*
X103667619Y-103389228D01*
X103824665Y-103305285D01*
X103962317Y-103192317D01*
X104075285Y-103054666D01*
X104159228Y-102897620D01*
X104210920Y-102727215D01*
X104224000Y-102594410D01*
X104224000Y-101903250D01*
X104297163Y-101976413D01*
X104408373Y-102050722D01*
X104531943Y-102101906D01*
X104663124Y-102128000D01*
X104796876Y-102128000D01*
X104928057Y-102101906D01*
X105051627Y-102050722D01*
X105162837Y-101976413D01*
X105257413Y-101881837D01*
X105331722Y-101770627D01*
X105382906Y-101647057D01*
X105409000Y-101515876D01*
X105409000Y-101382124D01*
X105382906Y-101250943D01*
X105331722Y-101127373D01*
X105257413Y-101016163D01*
X105162837Y-100921587D01*
X105051627Y-100847278D01*
X104928057Y-100796094D01*
X104796876Y-100770000D01*
X104663124Y-100770000D01*
X104531943Y-100796094D01*
X104408373Y-100847278D01*
X104297163Y-100921587D01*
X104202587Y-101016163D01*
X104152895Y-101090532D01*
X104075285Y-100945334D01*
X103962317Y-100807683D01*
X103824666Y-100694715D01*
X103667620Y-100610772D01*
X103541455Y-100572500D01*
X105204066Y-100572500D01*
X105452501Y-100820935D01*
X105452500Y-101715273D01*
X105440842Y-101724841D01*
X105365363Y-101816812D01*
X105309277Y-101921741D01*
X105274740Y-102035595D01*
X105266000Y-102124333D01*
X105266000Y-102254666D01*
X105274740Y-102343404D01*
X105309277Y-102457258D01*
X105365363Y-102562187D01*
X105440841Y-102654159D01*
X105532812Y-102729637D01*
X105637741Y-102785723D01*
X105751595Y-102820260D01*
X105870000Y-102831922D01*
X105988404Y-102820260D01*
X106102258Y-102785723D01*
X106207187Y-102729637D01*
X106299159Y-102654159D01*
X106374637Y-102562188D01*
X106430723Y-102457259D01*
X106465260Y-102343405D01*
X106474000Y-102254667D01*
X106474000Y-102124334D01*
X106468780Y-102071333D01*
X108266000Y-102071333D01*
X108266000Y-102254666D01*
X108274740Y-102343404D01*
X108309277Y-102457258D01*
X108365363Y-102562187D01*
X108440841Y-102654159D01*
X108532812Y-102729637D01*
X108637741Y-102785723D01*
X108751595Y-102820260D01*
X108870000Y-102831922D01*
X108988404Y-102820260D01*
X109102258Y-102785723D01*
X109207187Y-102729637D01*
X109299159Y-102654159D01*
X109374637Y-102562188D01*
X109430723Y-102457259D01*
X109465260Y-102343405D01*
X109474000Y-102254667D01*
X109474000Y-102071334D01*
X109465260Y-101982596D01*
X109430723Y-101868742D01*
X109374637Y-101763813D01*
X109324392Y-101702589D01*
X109925736Y-101101246D01*
X109908278Y-101127373D01*
X109857094Y-101250943D01*
X109831000Y-101382124D01*
X109831000Y-101515876D01*
X109857094Y-101647057D01*
X109908278Y-101770627D01*
X109982587Y-101881837D01*
X110077163Y-101976413D01*
X110188373Y-102050722D01*
X110311943Y-102101906D01*
X110443124Y-102128000D01*
X110576876Y-102128000D01*
X110708057Y-102101906D01*
X110831627Y-102050722D01*
X110942837Y-101976413D01*
X111016001Y-101903249D01*
X111016000Y-102594409D01*
X111029080Y-102727214D01*
X111080772Y-102897619D01*
X111164715Y-103054665D01*
X111277683Y-103192317D01*
X111415334Y-103305285D01*
X111572380Y-103389228D01*
X111742785Y-103440920D01*
X111920000Y-103458374D01*
X112097214Y-103440920D01*
X112267619Y-103389228D01*
X112424665Y-103305285D01*
X112562317Y-103192317D01*
X112675285Y-103054666D01*
X112759228Y-102897620D01*
X112802501Y-102754967D01*
X114055346Y-102754967D01*
X114063257Y-102794745D01*
X114135566Y-103019421D01*
X114250318Y-103225673D01*
X114403103Y-103405575D01*
X114588049Y-103552214D01*
X114798049Y-103659954D01*
X115025033Y-103724655D01*
X115213000Y-103655198D01*
X115213000Y-102567000D01*
X114124827Y-102567000D01*
X114055346Y-102754967D01*
X112802501Y-102754967D01*
X112810920Y-102727215D01*
X112824000Y-102594410D01*
X112824000Y-102325033D01*
X114055346Y-102325033D01*
X114124827Y-102513000D01*
X115213000Y-102513000D01*
X115213000Y-101424802D01*
X115025033Y-101355345D01*
X114798049Y-101420046D01*
X114588049Y-101527786D01*
X114403103Y-101674425D01*
X114250318Y-101854327D01*
X114135566Y-102060579D01*
X114063257Y-102285255D01*
X114055346Y-102325033D01*
X112824000Y-102325033D01*
X112824000Y-101414779D01*
X112830430Y-101422614D01*
X112945886Y-101538070D01*
X113014813Y-101594637D01*
X113119742Y-101650723D01*
X113233596Y-101685260D01*
X113352000Y-101696922D01*
X113470404Y-101685260D01*
X113584259Y-101650723D01*
X113689187Y-101594637D01*
X113781158Y-101519158D01*
X113856637Y-101427187D01*
X113912723Y-101322259D01*
X113947260Y-101208404D01*
X113958922Y-101090000D01*
X113947260Y-100971596D01*
X113912723Y-100857742D01*
X113856637Y-100752813D01*
X113800070Y-100683886D01*
X113684614Y-100568430D01*
X113615687Y-100511863D01*
X113510759Y-100455778D01*
X113396904Y-100421240D01*
X113309625Y-100412644D01*
X113118091Y-100221110D01*
X113104027Y-100203973D01*
X113035658Y-100147864D01*
X112957656Y-100106171D01*
X112873019Y-100080497D01*
X112807053Y-100074000D01*
X112785000Y-100071828D01*
X112762947Y-100074000D01*
X109891049Y-100074000D01*
X109868999Y-100071828D01*
X109846949Y-100074000D01*
X109846947Y-100074000D01*
X109780981Y-100080497D01*
X109696344Y-100106171D01*
X109618342Y-100147864D01*
X109549973Y-100203973D01*
X109535914Y-100221104D01*
X108568105Y-101188914D01*
X108550974Y-101202973D01*
X108536916Y-101220103D01*
X108494865Y-101271342D01*
X108453172Y-101349344D01*
X108427497Y-101433981D01*
X108418828Y-101522000D01*
X108421001Y-101544063D01*
X108421001Y-101696018D01*
X108365363Y-101763812D01*
X108309277Y-101868741D01*
X108274740Y-101982595D01*
X108266000Y-102071333D01*
X106468780Y-102071333D01*
X106465260Y-102035596D01*
X106430723Y-101921742D01*
X106374637Y-101816813D01*
X106299159Y-101724841D01*
X106287500Y-101715273D01*
X106287500Y-100668498D01*
X106289519Y-100647999D01*
X106287500Y-100627500D01*
X106287500Y-100627491D01*
X106281459Y-100566156D01*
X106257586Y-100487457D01*
X106218818Y-100414927D01*
X106166645Y-100351355D01*
X106150717Y-100338283D01*
X105686717Y-99874283D01*
X105673645Y-99858355D01*
X105610073Y-99806182D01*
X105537543Y-99767414D01*
X105458844Y-99743541D01*
X105397509Y-99737500D01*
X105397502Y-99737500D01*
X105377000Y-99735481D01*
X105356498Y-99737500D01*
X102772435Y-99737500D01*
X102843024Y-99716087D01*
X102915554Y-99677319D01*
X102979126Y-99625146D01*
X102992198Y-99609218D01*
X103072417Y-99528999D01*
X112530999Y-99528999D01*
X112551501Y-99531018D01*
X112572003Y-99528999D01*
X112572010Y-99528999D01*
X112633345Y-99522958D01*
X112712044Y-99499085D01*
X112784574Y-99460317D01*
X112848146Y-99408144D01*
X112861220Y-99392214D01*
X113370435Y-98883000D01*
X113416027Y-98883000D01*
X113527888Y-98860750D01*
X113630348Y-98818310D01*
X113647976Y-98906934D01*
G37*
X113647976Y-98906934D02*
X113704814Y-99044153D01*
X113787330Y-99167647D01*
X113892353Y-99272670D01*
X114015847Y-99355186D01*
X114153066Y-99412024D01*
X114181107Y-99417602D01*
X114173029Y-99429692D01*
X114082269Y-99648806D01*
X114036000Y-99881416D01*
X114036000Y-100118584D01*
X114082269Y-100351194D01*
X114173029Y-100570308D01*
X114304792Y-100767505D01*
X114472495Y-100935208D01*
X114669692Y-101066971D01*
X114888806Y-101157731D01*
X115121416Y-101204000D01*
X115358584Y-101204000D01*
X115591194Y-101157731D01*
X115810308Y-101066971D01*
X116007505Y-100935208D01*
X116131001Y-100811712D01*
X116131001Y-101738131D01*
X116076897Y-101674425D01*
X115891951Y-101527786D01*
X115681951Y-101420046D01*
X115454967Y-101355345D01*
X115267000Y-101424802D01*
X115267000Y-102513000D01*
X115287000Y-102513000D01*
X115287000Y-102567000D01*
X115267000Y-102567000D01*
X115267000Y-103655198D01*
X115454967Y-103724655D01*
X115681951Y-103659954D01*
X115891951Y-103552214D01*
X116076897Y-103405575D01*
X116131001Y-103341869D01*
X116131001Y-104268288D01*
X116007505Y-104144792D01*
X115810308Y-104013029D01*
X115591194Y-103922269D01*
X115358584Y-103876000D01*
X115121416Y-103876000D01*
X114888806Y-103922269D01*
X114669692Y-104013029D01*
X114472495Y-104144792D01*
X114304792Y-104312495D01*
X114173029Y-104509692D01*
X114082269Y-104728806D01*
X114036000Y-104961416D01*
X114036000Y-105198584D01*
X114082269Y-105431194D01*
X114145564Y-105584002D01*
X113399283Y-106330283D01*
X113383355Y-106343355D01*
X113370284Y-106359282D01*
X113370281Y-106359285D01*
X113340296Y-106395823D01*
X113331182Y-106406928D01*
X113292414Y-106479458D01*
X113283066Y-106510274D01*
X113270097Y-106553029D01*
X113268541Y-106558157D01*
X113262500Y-106619492D01*
X113262500Y-106619498D01*
X113260481Y-106640000D01*
X113262500Y-106660502D01*
X113262501Y-108512160D01*
X113187153Y-108461814D01*
X113049934Y-108404976D01*
X112904262Y-108376000D01*
X112755738Y-108376000D01*
X112610066Y-108404976D01*
X112472847Y-108461814D01*
X112349353Y-108544330D01*
X112244330Y-108649353D01*
X112161814Y-108772847D01*
X112104976Y-108910066D01*
X112076000Y-109055738D01*
X112076000Y-109204262D01*
X112104976Y-109349934D01*
X112161814Y-109487153D01*
X112244330Y-109610647D01*
X112349353Y-109715670D01*
X112472847Y-109798186D01*
X112610066Y-109855024D01*
X112646032Y-109862178D01*
X112639126Y-109870593D01*
X112628182Y-109883928D01*
X112589414Y-109956458D01*
X112565541Y-110035157D01*
X112559500Y-110096492D01*
X112559500Y-110096498D01*
X112557481Y-110117000D01*
X112559500Y-110137502D01*
X112559501Y-112399488D01*
X112557481Y-112420000D01*
X112565541Y-112501844D01*
X112589415Y-112580543D01*
X112628183Y-112653073D01*
X112667281Y-112700715D01*
X112667289Y-112700723D01*
X112672385Y-112706933D01*
X112561871Y-112706933D01*
X112416199Y-112735909D01*
X112278980Y-112792747D01*
X112155486Y-112875263D01*
X112050463Y-112980286D01*
X111967947Y-113103780D01*
X111911109Y-113240999D01*
X111882133Y-113386671D01*
X111882133Y-113535195D01*
X111911109Y-113680867D01*
X111967947Y-113818086D01*
X112050463Y-113941580D01*
X112155486Y-114046603D01*
X112161862Y-114050863D01*
X112135250Y-114115112D01*
X112113000Y-114226973D01*
X112113000Y-114341027D01*
X112135250Y-114452888D01*
X112178896Y-114558260D01*
X112242261Y-114653091D01*
X112322909Y-114733739D01*
X112417740Y-114797104D01*
X112523112Y-114840750D01*
X112634973Y-114863000D01*
X112649989Y-114863000D01*
X112649990Y-116728608D01*
X112631892Y-116716515D01*
X112544719Y-116680407D01*
X112452177Y-116662000D01*
X112387000Y-116662000D01*
X112387000Y-116592823D01*
X112368593Y-116500281D01*
X112332485Y-116413108D01*
X112280064Y-116334655D01*
X112213345Y-116267936D01*
X112134892Y-116215515D01*
X112047719Y-116179407D01*
X111955177Y-116161000D01*
X111860823Y-116161000D01*
X111768281Y-116179407D01*
X111681108Y-116215515D01*
X111602655Y-116267936D01*
X111535936Y-116334655D01*
X111483515Y-116413108D01*
X111447407Y-116500281D01*
X111429000Y-116592823D01*
X111429000Y-116687177D01*
X111447407Y-116779719D01*
X111483515Y-116866892D01*
X111535936Y-116945345D01*
X111602655Y-117012064D01*
X111681108Y-117064485D01*
X111768281Y-117100593D01*
X111860823Y-117119000D01*
X111926000Y-117119000D01*
X111926000Y-117161000D01*
X111851823Y-117161000D01*
X111759281Y-117179407D01*
X111672108Y-117215515D01*
X111593655Y-117267936D01*
X111526936Y-117334655D01*
X111523511Y-117339781D01*
X111501323Y-117328070D01*
X111387289Y-117294129D01*
X111268824Y-117283087D01*
X111255012Y-117284520D01*
X111255012Y-116253565D01*
X111257031Y-116233066D01*
X111255012Y-116212567D01*
X111255012Y-116212558D01*
X111248971Y-116151223D01*
X111225098Y-116072524D01*
X111186330Y-115999994D01*
X111134157Y-115936422D01*
X111121500Y-115926035D01*
X111121500Y-115925391D01*
X111156711Y-115935871D01*
X111275176Y-115946913D01*
X111393517Y-115934632D01*
X111507189Y-115899500D01*
X111606543Y-115846394D01*
X111618990Y-115725174D01*
X111272000Y-115378184D01*
X111257858Y-115392326D01*
X111219674Y-115354142D01*
X111233816Y-115340000D01*
X111310184Y-115340000D01*
X111657174Y-115686990D01*
X111778394Y-115674543D01*
X111833930Y-115569323D01*
X111867871Y-115455289D01*
X111878913Y-115336824D01*
X111866632Y-115218483D01*
X111831500Y-115104811D01*
X111778394Y-115005457D01*
X111657174Y-114993010D01*
X111310184Y-115340000D01*
X111233816Y-115340000D01*
X111219674Y-115325858D01*
X111257858Y-115287674D01*
X111272000Y-115301816D01*
X111618990Y-114954826D01*
X111606543Y-114833606D01*
X111543603Y-114800386D01*
X111550000Y-114735438D01*
X111550000Y-114677561D01*
X111541622Y-114592496D01*
X111508514Y-114483354D01*
X111454750Y-114382769D01*
X111382395Y-114294605D01*
X111294230Y-114222250D01*
X111193645Y-114168486D01*
X111084503Y-114135378D01*
X111048053Y-114131788D01*
X111041622Y-114066496D01*
X111008514Y-113957354D01*
X110954750Y-113856769D01*
X110882395Y-113768605D01*
X110794231Y-113696250D01*
X110693646Y-113642486D01*
X110584504Y-113609378D01*
X110499439Y-113601000D01*
X110441561Y-113601000D01*
X110356496Y-113609378D01*
X110247354Y-113642486D01*
X110146769Y-113696250D01*
X110058605Y-113768605D01*
X109986250Y-113856769D01*
X109963516Y-113899301D01*
X109955749Y-113884769D01*
X109883395Y-113796605D01*
X109805077Y-113732332D01*
X109862064Y-113675345D01*
X109914485Y-113596892D01*
X109950593Y-113509719D01*
X109969000Y-113417177D01*
X109969000Y-113322823D01*
X109950593Y-113230281D01*
X109914485Y-113143108D01*
X109874022Y-113082551D01*
X109884485Y-113066892D01*
X109920593Y-112979719D01*
X109939000Y-112887177D01*
X109939000Y-112792823D01*
X109920593Y-112700281D01*
X109884485Y-112613108D01*
X109878269Y-112603805D01*
X109877500Y-112595996D01*
X109877500Y-112595988D01*
X109874842Y-112569000D01*
X110291593Y-112569000D01*
X110327932Y-112605339D01*
X110327936Y-112605345D01*
X110394655Y-112672064D01*
X110414332Y-112685212D01*
X110432595Y-112700200D01*
X110453433Y-112711338D01*
X110473108Y-112724485D01*
X110494965Y-112733538D01*
X110515807Y-112744679D01*
X110538424Y-112751540D01*
X110560281Y-112760593D01*
X110583486Y-112765208D01*
X110606099Y-112772068D01*
X110629619Y-112774385D01*
X110652823Y-112779000D01*
X110676477Y-112779000D01*
X110700000Y-112781317D01*
X110723523Y-112779000D01*
X110747177Y-112779000D01*
X110770381Y-112774385D01*
X110793900Y-112772068D01*
X110816512Y-112765209D01*
X110839719Y-112760593D01*
X110861579Y-112751538D01*
X110884192Y-112744679D01*
X110905032Y-112733540D01*
X110926892Y-112724485D01*
X110946568Y-112711338D01*
X110967405Y-112700200D01*
X110985668Y-112685212D01*
X111005345Y-112672064D01*
X111022078Y-112655331D01*
X111040342Y-112640342D01*
X111055331Y-112622078D01*
X111070800Y-112606609D01*
X111082515Y-112634892D01*
X111134936Y-112713345D01*
X111201655Y-112780064D01*
X111280108Y-112832485D01*
X111367281Y-112868593D01*
X111459823Y-112887000D01*
X111554177Y-112887000D01*
X111646719Y-112868593D01*
X111733892Y-112832485D01*
X111812345Y-112780064D01*
X111879064Y-112713345D01*
X111931485Y-112634892D01*
X111967593Y-112547719D01*
X111986000Y-112455177D01*
X111986000Y-112360823D01*
X111967593Y-112268281D01*
X111931485Y-112181108D01*
X111879064Y-112102655D01*
X111812345Y-112035936D01*
X111733892Y-111983515D01*
X111646719Y-111947407D01*
X111554177Y-111929000D01*
X111459823Y-111929000D01*
X111367281Y-111947407D01*
X111280108Y-111983515D01*
X111201655Y-112035936D01*
X111136704Y-112100887D01*
X111133538Y-112094965D01*
X111124485Y-112073108D01*
X111111338Y-112053433D01*
X111100200Y-112032595D01*
X111085212Y-112014332D01*
X111072064Y-111994655D01*
X111005345Y-111927936D01*
X111005339Y-111927932D01*
X110845347Y-111767940D01*
X110830343Y-111749657D01*
X110757405Y-111689800D01*
X110674192Y-111645321D01*
X110583900Y-111617931D01*
X110513526Y-111611000D01*
X110513523Y-111611000D01*
X110490000Y-111608683D01*
X110466477Y-111611000D01*
X109688408Y-111611000D01*
X109548362Y-111470954D01*
X109622770Y-111470954D01*
X109734631Y-111448704D01*
X109840003Y-111405058D01*
X109934834Y-111341693D01*
X109948683Y-111327844D01*
X109952096Y-111330124D01*
X110057468Y-111373770D01*
X110169329Y-111396020D01*
X110283383Y-111396020D01*
X110395244Y-111373770D01*
X110500616Y-111330124D01*
X110595447Y-111266759D01*
X110676095Y-111186111D01*
X110739460Y-111091280D01*
X110783106Y-110985908D01*
X110805356Y-110874047D01*
X110805356Y-110759993D01*
X110783106Y-110648132D01*
X110739460Y-110542760D01*
X110676095Y-110447929D01*
X110595447Y-110367281D01*
X110500616Y-110303916D01*
X110447867Y-110282067D01*
X110893723Y-109836211D01*
X110909645Y-109823144D01*
X110922712Y-109807222D01*
X110922719Y-109807215D01*
X110961817Y-109759573D01*
X110963470Y-109756481D01*
X111000586Y-109687042D01*
X111024459Y-109608343D01*
X111030500Y-109547008D01*
X111030500Y-109547002D01*
X111032519Y-109526500D01*
X111030500Y-109505998D01*
X111030500Y-107359934D01*
X111116029Y-107274405D01*
X111144976Y-107419934D01*
X111201814Y-107557153D01*
X111284330Y-107680647D01*
X111389353Y-107785670D01*
X111512847Y-107868186D01*
X111650066Y-107925024D01*
X111795738Y-107954000D01*
X111944262Y-107954000D01*
X112089934Y-107925024D01*
X112227153Y-107868186D01*
X112350647Y-107785670D01*
X112455670Y-107680647D01*
X112538186Y-107557153D01*
X112595024Y-107419934D01*
X112624000Y-107274262D01*
X112624000Y-107125738D01*
X112595024Y-106980066D01*
X112538186Y-106842847D01*
X112455670Y-106719353D01*
X112350647Y-106614330D01*
X112227153Y-106531814D01*
X112089934Y-106474976D01*
X111944405Y-106446029D01*
X112175998Y-106214436D01*
X112328806Y-106277731D01*
X112561416Y-106324000D01*
X112798584Y-106324000D01*
X113031194Y-106277731D01*
X113250308Y-106186971D01*
X113447505Y-106055208D01*
X113615208Y-105887505D01*
X113746971Y-105690308D01*
X113837731Y-105471194D01*
X113884000Y-105238584D01*
X113884000Y-105001416D01*
X113837731Y-104768806D01*
X113746971Y-104549692D01*
X113615208Y-104352495D01*
X113447505Y-104184792D01*
X113250308Y-104053029D01*
X113031194Y-103962269D01*
X112798584Y-103916000D01*
X112561416Y-103916000D01*
X112328806Y-103962269D01*
X112109692Y-104053029D01*
X111912495Y-104184792D01*
X111744792Y-104352495D01*
X111613029Y-104549692D01*
X111522269Y-104768806D01*
X111476000Y-105001416D01*
X111476000Y-105238584D01*
X111522269Y-105471194D01*
X111585564Y-105624002D01*
X110332283Y-106877283D01*
X110316355Y-106890355D01*
X110303284Y-106906282D01*
X110303281Y-106906285D01*
X110283078Y-106930903D01*
X110264182Y-106953928D01*
X110225414Y-107026458D01*
X110201541Y-107105157D01*
X110195500Y-107166492D01*
X110195500Y-107166498D01*
X110193481Y-107187000D01*
X110195500Y-107207502D01*
X110195501Y-109353563D01*
X109285026Y-110264039D01*
X109269098Y-110277111D01*
X109256027Y-110293038D01*
X109256024Y-110293041D01*
X109239682Y-110312954D01*
X109216925Y-110340684D01*
X109178157Y-110413214D01*
X109157476Y-110481391D01*
X109116004Y-110522863D01*
X109115710Y-110523302D01*
X107044347Y-108451940D01*
X107029343Y-108433657D01*
X106956405Y-108373800D01*
X106873192Y-108329321D01*
X106782900Y-108301931D01*
X106712526Y-108295000D01*
X106712523Y-108295000D01*
X106689000Y-108292683D01*
X106665477Y-108295000D01*
X105432299Y-108295000D01*
X105381260Y-108260896D01*
X105275888Y-108217250D01*
X105164027Y-108195000D01*
X105049973Y-108195000D01*
X104938112Y-108217250D01*
X104832740Y-108260896D01*
X104737909Y-108324261D01*
X104657261Y-108404909D01*
X104593896Y-108499740D01*
X104550250Y-108605112D01*
X104528000Y-108716973D01*
X104528000Y-108831027D01*
X104550250Y-108942888D01*
X104593896Y-109048260D01*
X104657261Y-109143091D01*
X104737909Y-109223739D01*
X104832740Y-109287104D01*
X104938112Y-109330750D01*
X105049973Y-109353000D01*
X105164027Y-109353000D01*
X105275888Y-109330750D01*
X105381260Y-109287104D01*
X105432299Y-109253000D01*
X106490593Y-109253000D01*
X108026061Y-110788469D01*
X108018741Y-110788469D01*
X107906880Y-110810719D01*
X107801508Y-110854365D01*
X107706677Y-110917730D01*
X107626029Y-110998378D01*
X107615333Y-111014386D01*
X107605365Y-111004418D01*
X107605365Y-110950363D01*
X107607384Y-110929864D01*
X107605365Y-110909365D01*
X107605365Y-110909356D01*
X107599324Y-110848021D01*
X107575451Y-110769322D01*
X107536683Y-110696792D01*
X107531618Y-110690620D01*
X107497584Y-110649149D01*
X107497577Y-110649142D01*
X107484510Y-110633220D01*
X107468588Y-110620153D01*
X107056357Y-110207922D01*
X107046121Y-110103997D01*
X107013014Y-109994855D01*
X106959250Y-109894269D01*
X106905024Y-109828195D01*
X106823305Y-109746476D01*
X106757231Y-109692250D01*
X106656645Y-109638486D01*
X106547504Y-109605379D01*
X106434000Y-109594200D01*
X106320496Y-109605379D01*
X106211355Y-109638486D01*
X106110769Y-109692250D01*
X106022605Y-109764605D01*
X105950250Y-109852769D01*
X105896486Y-109953355D01*
X105863379Y-110062496D01*
X105852200Y-110176000D01*
X105863379Y-110289504D01*
X105896486Y-110398645D01*
X105950250Y-110499231D01*
X106004476Y-110565305D01*
X106086195Y-110647024D01*
X106152269Y-110701250D01*
X106188003Y-110720350D01*
X106103108Y-110755515D01*
X106024655Y-110807936D01*
X105957936Y-110874655D01*
X105905515Y-110953108D01*
X105869407Y-111040281D01*
X105851000Y-111132823D01*
X105851000Y-111227177D01*
X105869407Y-111319719D01*
X105905515Y-111406892D01*
X105957936Y-111485345D01*
X106024655Y-111552064D01*
X106103108Y-111604485D01*
X106121789Y-111612223D01*
X107180281Y-112670715D01*
X107193355Y-112686645D01*
X107209283Y-112699717D01*
X107209285Y-112699719D01*
X107236610Y-112722144D01*
X107256927Y-112738818D01*
X107329457Y-112777586D01*
X107408156Y-112801459D01*
X107469491Y-112807500D01*
X107469498Y-112807500D01*
X107490000Y-112809519D01*
X107510502Y-112807500D01*
X107711131Y-112807500D01*
X107727485Y-112889719D01*
X107763593Y-112976892D01*
X107816014Y-113055345D01*
X107824899Y-113064230D01*
X107816621Y-113091521D01*
X107795515Y-113123108D01*
X107759407Y-113210281D01*
X107741000Y-113302823D01*
X107741000Y-113397177D01*
X107759407Y-113489719D01*
X107795515Y-113576892D01*
X107847936Y-113655345D01*
X107914655Y-113722064D01*
X107993108Y-113774485D01*
X108045489Y-113796182D01*
X108045490Y-114342324D01*
X106620313Y-115767501D01*
X106602133Y-115767501D01*
X106619910Y-115749724D01*
X106557176Y-115686990D01*
X106678394Y-115674543D01*
X106733930Y-115569323D01*
X106767871Y-115455289D01*
X106778913Y-115336824D01*
X106766632Y-115218483D01*
X106731500Y-115104811D01*
X106678394Y-115005457D01*
X106557174Y-114993010D01*
X106210184Y-115340000D01*
X106224326Y-115354142D01*
X106186142Y-115392326D01*
X106172000Y-115378184D01*
X106157858Y-115392326D01*
X106119674Y-115354142D01*
X106133816Y-115340000D01*
X105786826Y-114993010D01*
X105665606Y-115005457D01*
X105610070Y-115110677D01*
X105576129Y-115224711D01*
X105571995Y-115269066D01*
X105535345Y-115232416D01*
X105522501Y-115223834D01*
X105522501Y-114954826D01*
X105825010Y-114954826D01*
X106172000Y-115301816D01*
X106518990Y-114954826D01*
X106506543Y-114833606D01*
X106401323Y-114778070D01*
X106287289Y-114744129D01*
X106168824Y-114733087D01*
X106050483Y-114745368D01*
X105936811Y-114780500D01*
X105837457Y-114833606D01*
X105825010Y-114954826D01*
X105522501Y-114954826D01*
X105522501Y-113575499D01*
X105524520Y-113555000D01*
X105522501Y-113534501D01*
X105522501Y-113534492D01*
X105516460Y-113473157D01*
X105492587Y-113394458D01*
X105453819Y-113321928D01*
X105426731Y-113288922D01*
X105414720Y-113274286D01*
X105414718Y-113274284D01*
X105401646Y-113258356D01*
X105385719Y-113245285D01*
X105139717Y-112999283D01*
X105126645Y-112983355D01*
X105105628Y-112966106D01*
X105096411Y-112958542D01*
X105063073Y-112931182D01*
X104990543Y-112892414D01*
X104911844Y-112868541D01*
X104850509Y-112862500D01*
X104850502Y-112862500D01*
X104830000Y-112860481D01*
X104809498Y-112862500D01*
X103322934Y-112862500D01*
X102057500Y-111597066D01*
X102057500Y-111320823D01*
X102874000Y-111320823D01*
X102874000Y-111415177D01*
X102892407Y-111507719D01*
X102928515Y-111594892D01*
X102980936Y-111673345D01*
X103047655Y-111740064D01*
X103126108Y-111792485D01*
X103213281Y-111828593D01*
X103305823Y-111847000D01*
X103400177Y-111847000D01*
X103492719Y-111828593D01*
X103579892Y-111792485D01*
X103658345Y-111740064D01*
X103725064Y-111673345D01*
X103777485Y-111594892D01*
X103813593Y-111507719D01*
X103832000Y-111415177D01*
X103832000Y-111320823D01*
X103813593Y-111228281D01*
X103777485Y-111141108D01*
X103725064Y-111062655D01*
X103658345Y-110995936D01*
X103579892Y-110943515D01*
X103492719Y-110907407D01*
X103400177Y-110889000D01*
X103305823Y-110889000D01*
X103213281Y-110907407D01*
X103126108Y-110943515D01*
X103047655Y-110995936D01*
X102980936Y-111062655D01*
X102928515Y-111141108D01*
X102892407Y-111228281D01*
X102874000Y-111320823D01*
X102057500Y-111320823D01*
X102057500Y-108531519D01*
X102059519Y-108511017D01*
X102057500Y-108490515D01*
X102057500Y-108490509D01*
X102051459Y-108429174D01*
X102027586Y-108350475D01*
X101988818Y-108277945D01*
X101974826Y-108260896D01*
X101952732Y-108233973D01*
X102943000Y-108233973D01*
X102943000Y-108348027D01*
X102965250Y-108459888D01*
X103008896Y-108565260D01*
X103072261Y-108660091D01*
X103152909Y-108740739D01*
X103247740Y-108804104D01*
X103353112Y-108847750D01*
X103464973Y-108870000D01*
X103579027Y-108870000D01*
X103690888Y-108847750D01*
X103796260Y-108804104D01*
X103891091Y-108740739D01*
X103971739Y-108660091D01*
X104035104Y-108565260D01*
X104078750Y-108459888D01*
X104101000Y-108348027D01*
X104101000Y-108233973D01*
X104078750Y-108122112D01*
X104035104Y-108016740D01*
X103971739Y-107921909D01*
X103891091Y-107841261D01*
X103796260Y-107777896D01*
X103690888Y-107734250D01*
X103633440Y-107722823D01*
X106461000Y-107722823D01*
X106461000Y-107817177D01*
X106479407Y-107909719D01*
X106515515Y-107996892D01*
X106567936Y-108075345D01*
X106634655Y-108142064D01*
X106713108Y-108194485D01*
X106800281Y-108230593D01*
X106892823Y-108249000D01*
X106987177Y-108249000D01*
X107079719Y-108230593D01*
X107166892Y-108194485D01*
X107245345Y-108142064D01*
X107312064Y-108075345D01*
X107364485Y-107996892D01*
X107400593Y-107909719D01*
X107419000Y-107817177D01*
X107419000Y-107722823D01*
X107400593Y-107630281D01*
X107364485Y-107543108D01*
X107312064Y-107464655D01*
X107245345Y-107397936D01*
X107166892Y-107345515D01*
X107079719Y-107309407D01*
X106987177Y-107291000D01*
X106892823Y-107291000D01*
X106800281Y-107309407D01*
X106713108Y-107345515D01*
X106634655Y-107397936D01*
X106567936Y-107464655D01*
X106515515Y-107543108D01*
X106479407Y-107630281D01*
X106461000Y-107722823D01*
X103633440Y-107722823D01*
X103579027Y-107712000D01*
X103464973Y-107712000D01*
X103353112Y-107734250D01*
X103247740Y-107777896D01*
X103152909Y-107841261D01*
X103072261Y-107921909D01*
X103008896Y-108016740D01*
X102965250Y-108122112D01*
X102943000Y-108233973D01*
X101952732Y-108233973D01*
X101949719Y-108230302D01*
X101949712Y-108230295D01*
X101936645Y-108214373D01*
X101920724Y-108201307D01*
X101531001Y-107811585D01*
X101531001Y-106362973D01*
X108541000Y-106362973D01*
X108541000Y-106477027D01*
X108563250Y-106588888D01*
X108606896Y-106694260D01*
X108670261Y-106789091D01*
X108750909Y-106869739D01*
X108845740Y-106933104D01*
X108951112Y-106976750D01*
X109062973Y-106999000D01*
X109177027Y-106999000D01*
X109288888Y-106976750D01*
X109394260Y-106933104D01*
X109489091Y-106869739D01*
X109569739Y-106789091D01*
X109633104Y-106694260D01*
X109676750Y-106588888D01*
X109699000Y-106477027D01*
X109699000Y-106362973D01*
X109676750Y-106251112D01*
X109633104Y-106145740D01*
X109569739Y-106050909D01*
X109489091Y-105970261D01*
X109394260Y-105906896D01*
X109288888Y-105863250D01*
X109177027Y-105841000D01*
X109062973Y-105841000D01*
X108951112Y-105863250D01*
X108845740Y-105906896D01*
X108750909Y-105970261D01*
X108670261Y-106050909D01*
X108606896Y-106145740D01*
X108563250Y-106251112D01*
X108541000Y-106362973D01*
X101531001Y-106362973D01*
X101531001Y-105737069D01*
X101604792Y-105847505D01*
X101772495Y-106015208D01*
X101969692Y-106146971D01*
X102188806Y-106237731D01*
X102421416Y-106284000D01*
X102658584Y-106284000D01*
X102891194Y-106237731D01*
X103110308Y-106146971D01*
X103307505Y-106015208D01*
X103475208Y-105847505D01*
X103606971Y-105650308D01*
X103697731Y-105431194D01*
X103744000Y-105198584D01*
X103744000Y-104961416D01*
X103876000Y-104961416D01*
X103876000Y-105198584D01*
X103922269Y-105431194D01*
X104013029Y-105650308D01*
X104144792Y-105847505D01*
X104312495Y-106015208D01*
X104509692Y-106146971D01*
X104728806Y-106237731D01*
X104961416Y-106284000D01*
X105198584Y-106284000D01*
X105431194Y-106237731D01*
X105650308Y-106146971D01*
X105847505Y-106015208D01*
X106015208Y-105847505D01*
X106146971Y-105650308D01*
X106237731Y-105431194D01*
X106284000Y-105198584D01*
X106284000Y-104961416D01*
X106416000Y-104961416D01*
X106416000Y-105198584D01*
X106462269Y-105431194D01*
X106553029Y-105650308D01*
X106684792Y-105847505D01*
X106852495Y-106015208D01*
X107049692Y-106146971D01*
X107268806Y-106237731D01*
X107501416Y-106284000D01*
X107738584Y-106284000D01*
X107971194Y-106237731D01*
X108190308Y-106146971D01*
X108387505Y-106015208D01*
X108555208Y-105847505D01*
X108686971Y-105650308D01*
X108777731Y-105431194D01*
X108785380Y-105392738D01*
X109676000Y-105392738D01*
X109676000Y-105541262D01*
X109704976Y-105686934D01*
X109761814Y-105824153D01*
X109844330Y-105947647D01*
X109949353Y-106052670D01*
X110072847Y-106135186D01*
X110210066Y-106192024D01*
X110355738Y-106221000D01*
X110504262Y-106221000D01*
X110649934Y-106192024D01*
X110787153Y-106135186D01*
X110910647Y-106052670D01*
X111015670Y-105947647D01*
X111098186Y-105824153D01*
X111155024Y-105686934D01*
X111184000Y-105541262D01*
X111184000Y-105392738D01*
X111155024Y-105247066D01*
X111098186Y-105109847D01*
X111015670Y-104986353D01*
X110910647Y-104881330D01*
X110787153Y-104798814D01*
X110649934Y-104741976D01*
X110504262Y-104713000D01*
X110355738Y-104713000D01*
X110210066Y-104741976D01*
X110072847Y-104798814D01*
X109949353Y-104881330D01*
X109844330Y-104986353D01*
X109761814Y-105109847D01*
X109704976Y-105247066D01*
X109676000Y-105392738D01*
X108785380Y-105392738D01*
X108824000Y-105198584D01*
X108824000Y-104961416D01*
X108777731Y-104728806D01*
X108686971Y-104509692D01*
X108555208Y-104312495D01*
X108387505Y-104144792D01*
X108190308Y-104013029D01*
X107971194Y-103922269D01*
X107738584Y-103876000D01*
X107501416Y-103876000D01*
X107268806Y-103922269D01*
X107049692Y-104013029D01*
X106852495Y-104144792D01*
X106684792Y-104312495D01*
X106553029Y-104509692D01*
X106462269Y-104728806D01*
X106416000Y-104961416D01*
X106284000Y-104961416D01*
X106237731Y-104728806D01*
X106146971Y-104509692D01*
X106015208Y-104312495D01*
X105847505Y-104144792D01*
X105650308Y-104013029D01*
X105431194Y-103922269D01*
X105198584Y-103876000D01*
X104961416Y-103876000D01*
X104728806Y-103922269D01*
X104509692Y-104013029D01*
X104312495Y-104144792D01*
X104144792Y-104312495D01*
X104013029Y-104509692D01*
X103922269Y-104728806D01*
X103876000Y-104961416D01*
X103744000Y-104961416D01*
X103697731Y-104728806D01*
X103606971Y-104509692D01*
X103475208Y-104312495D01*
X103307505Y-104144792D01*
X103110308Y-104013029D01*
X102891194Y-103922269D01*
X102658584Y-103876000D01*
X102421416Y-103876000D01*
X102188806Y-103922269D01*
X101969692Y-104013029D01*
X101772495Y-104144792D01*
X101604792Y-104312495D01*
X101531001Y-104422931D01*
X101531001Y-103388239D01*
X101619719Y-103370593D01*
X101706892Y-103334485D01*
X101785345Y-103282064D01*
X101852064Y-103215345D01*
X101904485Y-103136892D01*
X101940593Y-103049719D01*
X101959000Y-102957177D01*
X101959000Y-102947005D01*
X101977936Y-102975345D01*
X102044655Y-103042064D01*
X102123108Y-103094485D01*
X102210281Y-103130593D01*
X102302823Y-103149000D01*
X102397177Y-103149000D01*
X102489719Y-103130593D01*
X102576892Y-103094485D01*
X102590133Y-103085637D01*
X102677683Y-103192317D01*
X102815334Y-103305285D01*
X102972380Y-103389228D01*
X103142785Y-103440920D01*
X103320000Y-103458374D01*
X103497214Y-103440920D01*
X103667619Y-103389228D01*
X103824665Y-103305285D01*
X103962317Y-103192317D01*
X104075285Y-103054666D01*
X104159228Y-102897620D01*
X104210920Y-102727215D01*
X104224000Y-102594410D01*
X104224000Y-101903250D01*
X104297163Y-101976413D01*
X104408373Y-102050722D01*
X104531943Y-102101906D01*
X104663124Y-102128000D01*
X104796876Y-102128000D01*
X104928057Y-102101906D01*
X105051627Y-102050722D01*
X105162837Y-101976413D01*
X105257413Y-101881837D01*
X105331722Y-101770627D01*
X105382906Y-101647057D01*
X105409000Y-101515876D01*
X105409000Y-101382124D01*
X105382906Y-101250943D01*
X105331722Y-101127373D01*
X105257413Y-101016163D01*
X105162837Y-100921587D01*
X105051627Y-100847278D01*
X104928057Y-100796094D01*
X104796876Y-100770000D01*
X104663124Y-100770000D01*
X104531943Y-100796094D01*
X104408373Y-100847278D01*
X104297163Y-100921587D01*
X104202587Y-101016163D01*
X104152895Y-101090532D01*
X104075285Y-100945334D01*
X103962317Y-100807683D01*
X103824666Y-100694715D01*
X103667620Y-100610772D01*
X103541455Y-100572500D01*
X105204066Y-100572500D01*
X105452501Y-100820935D01*
X105452500Y-101715273D01*
X105440842Y-101724841D01*
X105365363Y-101816812D01*
X105309277Y-101921741D01*
X105274740Y-102035595D01*
X105266000Y-102124333D01*
X105266000Y-102254666D01*
X105274740Y-102343404D01*
X105309277Y-102457258D01*
X105365363Y-102562187D01*
X105440841Y-102654159D01*
X105532812Y-102729637D01*
X105637741Y-102785723D01*
X105751595Y-102820260D01*
X105870000Y-102831922D01*
X105988404Y-102820260D01*
X106102258Y-102785723D01*
X106207187Y-102729637D01*
X106299159Y-102654159D01*
X106374637Y-102562188D01*
X106430723Y-102457259D01*
X106465260Y-102343405D01*
X106474000Y-102254667D01*
X106474000Y-102124334D01*
X106468780Y-102071333D01*
X108266000Y-102071333D01*
X108266000Y-102254666D01*
X108274740Y-102343404D01*
X108309277Y-102457258D01*
X108365363Y-102562187D01*
X108440841Y-102654159D01*
X108532812Y-102729637D01*
X108637741Y-102785723D01*
X108751595Y-102820260D01*
X108870000Y-102831922D01*
X108988404Y-102820260D01*
X109102258Y-102785723D01*
X109207187Y-102729637D01*
X109299159Y-102654159D01*
X109374637Y-102562188D01*
X109430723Y-102457259D01*
X109465260Y-102343405D01*
X109474000Y-102254667D01*
X109474000Y-102071334D01*
X109465260Y-101982596D01*
X109430723Y-101868742D01*
X109374637Y-101763813D01*
X109324392Y-101702589D01*
X109925736Y-101101246D01*
X109908278Y-101127373D01*
X109857094Y-101250943D01*
X109831000Y-101382124D01*
X109831000Y-101515876D01*
X109857094Y-101647057D01*
X109908278Y-101770627D01*
X109982587Y-101881837D01*
X110077163Y-101976413D01*
X110188373Y-102050722D01*
X110311943Y-102101906D01*
X110443124Y-102128000D01*
X110576876Y-102128000D01*
X110708057Y-102101906D01*
X110831627Y-102050722D01*
X110942837Y-101976413D01*
X111016001Y-101903249D01*
X111016000Y-102594409D01*
X111029080Y-102727214D01*
X111080772Y-102897619D01*
X111164715Y-103054665D01*
X111277683Y-103192317D01*
X111415334Y-103305285D01*
X111572380Y-103389228D01*
X111742785Y-103440920D01*
X111920000Y-103458374D01*
X112097214Y-103440920D01*
X112267619Y-103389228D01*
X112424665Y-103305285D01*
X112562317Y-103192317D01*
X112675285Y-103054666D01*
X112759228Y-102897620D01*
X112802501Y-102754967D01*
X114055346Y-102754967D01*
X114063257Y-102794745D01*
X114135566Y-103019421D01*
X114250318Y-103225673D01*
X114403103Y-103405575D01*
X114588049Y-103552214D01*
X114798049Y-103659954D01*
X115025033Y-103724655D01*
X115213000Y-103655198D01*
X115213000Y-102567000D01*
X114124827Y-102567000D01*
X114055346Y-102754967D01*
X112802501Y-102754967D01*
X112810920Y-102727215D01*
X112824000Y-102594410D01*
X112824000Y-102325033D01*
X114055346Y-102325033D01*
X114124827Y-102513000D01*
X115213000Y-102513000D01*
X115213000Y-101424802D01*
X115025033Y-101355345D01*
X114798049Y-101420046D01*
X114588049Y-101527786D01*
X114403103Y-101674425D01*
X114250318Y-101854327D01*
X114135566Y-102060579D01*
X114063257Y-102285255D01*
X114055346Y-102325033D01*
X112824000Y-102325033D01*
X112824000Y-101414779D01*
X112830430Y-101422614D01*
X112945886Y-101538070D01*
X113014813Y-101594637D01*
X113119742Y-101650723D01*
X113233596Y-101685260D01*
X113352000Y-101696922D01*
X113470404Y-101685260D01*
X113584259Y-101650723D01*
X113689187Y-101594637D01*
X113781158Y-101519158D01*
X113856637Y-101427187D01*
X113912723Y-101322259D01*
X113947260Y-101208404D01*
X113958922Y-101090000D01*
X113947260Y-100971596D01*
X113912723Y-100857742D01*
X113856637Y-100752813D01*
X113800070Y-100683886D01*
X113684614Y-100568430D01*
X113615687Y-100511863D01*
X113510759Y-100455778D01*
X113396904Y-100421240D01*
X113309625Y-100412644D01*
X113118091Y-100221110D01*
X113104027Y-100203973D01*
X113035658Y-100147864D01*
X112957656Y-100106171D01*
X112873019Y-100080497D01*
X112807053Y-100074000D01*
X112785000Y-100071828D01*
X112762947Y-100074000D01*
X109891049Y-100074000D01*
X109868999Y-100071828D01*
X109846949Y-100074000D01*
X109846947Y-100074000D01*
X109780981Y-100080497D01*
X109696344Y-100106171D01*
X109618342Y-100147864D01*
X109549973Y-100203973D01*
X109535914Y-100221104D01*
X108568105Y-101188914D01*
X108550974Y-101202973D01*
X108536916Y-101220103D01*
X108494865Y-101271342D01*
X108453172Y-101349344D01*
X108427497Y-101433981D01*
X108418828Y-101522000D01*
X108421001Y-101544063D01*
X108421001Y-101696018D01*
X108365363Y-101763812D01*
X108309277Y-101868741D01*
X108274740Y-101982595D01*
X108266000Y-102071333D01*
X106468780Y-102071333D01*
X106465260Y-102035596D01*
X106430723Y-101921742D01*
X106374637Y-101816813D01*
X106299159Y-101724841D01*
X106287500Y-101715273D01*
X106287500Y-100668498D01*
X106289519Y-100647999D01*
X106287500Y-100627500D01*
X106287500Y-100627491D01*
X106281459Y-100566156D01*
X106257586Y-100487457D01*
X106218818Y-100414927D01*
X106166645Y-100351355D01*
X106150717Y-100338283D01*
X105686717Y-99874283D01*
X105673645Y-99858355D01*
X105610073Y-99806182D01*
X105537543Y-99767414D01*
X105458844Y-99743541D01*
X105397509Y-99737500D01*
X105397502Y-99737500D01*
X105377000Y-99735481D01*
X105356498Y-99737500D01*
X102772435Y-99737500D01*
X102843024Y-99716087D01*
X102915554Y-99677319D01*
X102979126Y-99625146D01*
X102992198Y-99609218D01*
X103072417Y-99528999D01*
X112530999Y-99528999D01*
X112551501Y-99531018D01*
X112572003Y-99528999D01*
X112572010Y-99528999D01*
X112633345Y-99522958D01*
X112712044Y-99499085D01*
X112784574Y-99460317D01*
X112848146Y-99408144D01*
X112861220Y-99392214D01*
X113370435Y-98883000D01*
X113416027Y-98883000D01*
X113527888Y-98860750D01*
X113630348Y-98818310D01*
X113647976Y-98906934D01*
G36*
X114312500Y-116495934D02*
G01*
X114312500Y-116519066D01*
X113923500Y-116908066D01*
X113923500Y-116106934D01*
X114312500Y-116495934D01*
G37*
X114312500Y-116495934D02*
X114312500Y-116519066D01*
X113923500Y-116908066D01*
X113923500Y-116106934D01*
X114312500Y-116495934D01*
G36*
X108768001Y-115319533D02*
G01*
X108768001Y-115332183D01*
X108760184Y-115340000D01*
X108768001Y-115347817D01*
X108768001Y-115360467D01*
X108736142Y-115392326D01*
X108722000Y-115378184D01*
X108375010Y-115725174D01*
X108380352Y-115777196D01*
X107884196Y-116273352D01*
X107832174Y-116268010D01*
X107485184Y-116615000D01*
X107499326Y-116629142D01*
X107461142Y-116667326D01*
X107447000Y-116653184D01*
X107432858Y-116667326D01*
X107394674Y-116629142D01*
X107408816Y-116615000D01*
X107394674Y-116600858D01*
X107432858Y-116562674D01*
X107447000Y-116576816D01*
X107793990Y-116229826D01*
X107788088Y-116172346D01*
X108279346Y-115681088D01*
X108336826Y-115686990D01*
X108683816Y-115340000D01*
X108669674Y-115325858D01*
X108707858Y-115287674D01*
X108722000Y-115301816D01*
X108736142Y-115287674D01*
X108768001Y-115319533D01*
G37*
X108768001Y-115319533D02*
X108768001Y-115332183D01*
X108760184Y-115340000D01*
X108768001Y-115347817D01*
X108768001Y-115360467D01*
X108736142Y-115392326D01*
X108722000Y-115378184D01*
X108375010Y-115725174D01*
X108380352Y-115777196D01*
X107884196Y-116273352D01*
X107832174Y-116268010D01*
X107485184Y-116615000D01*
X107499326Y-116629142D01*
X107461142Y-116667326D01*
X107447000Y-116653184D01*
X107432858Y-116667326D01*
X107394674Y-116629142D01*
X107408816Y-116615000D01*
X107394674Y-116600858D01*
X107432858Y-116562674D01*
X107447000Y-116576816D01*
X107793990Y-116229826D01*
X107788088Y-116172346D01*
X108279346Y-115681088D01*
X108336826Y-115686990D01*
X108683816Y-115340000D01*
X108669674Y-115325858D01*
X108707858Y-115287674D01*
X108722000Y-115301816D01*
X108736142Y-115287674D01*
X108768001Y-115319533D01*
G36*
X110049326Y-116600858D02*
G01*
X110035184Y-116615000D01*
X110049326Y-116629142D01*
X110011142Y-116667326D01*
X109997000Y-116653184D01*
X109982858Y-116667326D01*
X109950999Y-116635467D01*
X109950999Y-116622817D01*
X109958816Y-116615000D01*
X109950999Y-116607183D01*
X109950999Y-116594533D01*
X109982858Y-116562674D01*
X109997000Y-116576816D01*
X110011142Y-116562674D01*
X110049326Y-116600858D01*
G37*
X110049326Y-116600858D02*
X110035184Y-116615000D01*
X110049326Y-116629142D01*
X110011142Y-116667326D01*
X109997000Y-116653184D01*
X109982858Y-116667326D01*
X109950999Y-116635467D01*
X109950999Y-116622817D01*
X109958816Y-116615000D01*
X109950999Y-116607183D01*
X109950999Y-116594533D01*
X109982858Y-116562674D01*
X109997000Y-116576816D01*
X110011142Y-116562674D01*
X110049326Y-116600858D01*
G36*
X103663108Y-114824499D02*
G01*
X103750281Y-114860607D01*
X103842823Y-114879014D01*
X103899512Y-114879014D01*
X103899511Y-115257146D01*
X103807788Y-115348869D01*
X103791865Y-115361937D01*
X103778798Y-115377859D01*
X103778790Y-115377867D01*
X103739692Y-115425509D01*
X103700924Y-115498039D01*
X103677050Y-115576738D01*
X103668990Y-115658582D01*
X103671010Y-115679093D01*
X103671010Y-115737632D01*
X103626000Y-115733199D01*
X103512496Y-115744378D01*
X103403354Y-115777486D01*
X103302769Y-115831250D01*
X103214605Y-115903605D01*
X103142250Y-115991770D01*
X103088486Y-116092355D01*
X103055378Y-116201497D01*
X103047000Y-116286562D01*
X103047000Y-116291761D01*
X103039498Y-116292500D01*
X102650501Y-116292500D01*
X102639000Y-116291367D01*
X102639000Y-116266823D01*
X102620593Y-116174281D01*
X102584485Y-116087108D01*
X102532064Y-116008655D01*
X102465345Y-115941936D01*
X102386892Y-115889515D01*
X102299719Y-115853407D01*
X102241028Y-115841733D01*
X102258662Y-115799160D01*
X102277069Y-115706618D01*
X102277069Y-115612264D01*
X102258662Y-115519722D01*
X102222554Y-115432549D01*
X102170133Y-115354096D01*
X102120736Y-115304699D01*
X102607921Y-114817514D01*
X103652654Y-114817514D01*
X103663108Y-114824499D01*
G37*
X103663108Y-114824499D02*
X103750281Y-114860607D01*
X103842823Y-114879014D01*
X103899512Y-114879014D01*
X103899511Y-115257146D01*
X103807788Y-115348869D01*
X103791865Y-115361937D01*
X103778798Y-115377859D01*
X103778790Y-115377867D01*
X103739692Y-115425509D01*
X103700924Y-115498039D01*
X103677050Y-115576738D01*
X103668990Y-115658582D01*
X103671010Y-115679093D01*
X103671010Y-115737632D01*
X103626000Y-115733199D01*
X103512496Y-115744378D01*
X103403354Y-115777486D01*
X103302769Y-115831250D01*
X103214605Y-115903605D01*
X103142250Y-115991770D01*
X103088486Y-116092355D01*
X103055378Y-116201497D01*
X103047000Y-116286562D01*
X103047000Y-116291761D01*
X103039498Y-116292500D01*
X102650501Y-116292500D01*
X102639000Y-116291367D01*
X102639000Y-116266823D01*
X102620593Y-116174281D01*
X102584485Y-116087108D01*
X102532064Y-116008655D01*
X102465345Y-115941936D01*
X102386892Y-115889515D01*
X102299719Y-115853407D01*
X102241028Y-115841733D01*
X102258662Y-115799160D01*
X102277069Y-115706618D01*
X102277069Y-115612264D01*
X102258662Y-115519722D01*
X102222554Y-115432549D01*
X102170133Y-115354096D01*
X102120736Y-115304699D01*
X102607921Y-114817514D01*
X103652654Y-114817514D01*
X103663108Y-114824499D01*
G36*
X102567292Y-113837726D02*
G01*
X102580366Y-113853656D01*
X102596294Y-113866728D01*
X102596295Y-113866729D01*
X102605953Y-113874655D01*
X102643938Y-113905829D01*
X102716468Y-113944597D01*
X102795167Y-113968470D01*
X102856502Y-113974511D01*
X102856511Y-113974511D01*
X102877010Y-113976530D01*
X102897509Y-113974511D01*
X103363095Y-113974511D01*
X103371098Y-113982514D01*
X102455487Y-113982514D01*
X102434985Y-113980495D01*
X102414483Y-113982514D01*
X102414477Y-113982514D01*
X102361450Y-113987737D01*
X102353141Y-113988555D01*
X102333989Y-113994365D01*
X102274443Y-114012428D01*
X102201913Y-114051196D01*
X102201911Y-114051197D01*
X102201912Y-114051197D01*
X102154270Y-114090295D01*
X102154263Y-114090302D01*
X102138341Y-114103369D01*
X102125274Y-114119291D01*
X101839848Y-114404718D01*
X101826403Y-114391273D01*
X101747950Y-114338852D01*
X101660777Y-114302744D01*
X101568235Y-114284337D01*
X101481979Y-114284337D01*
X101481979Y-112752413D01*
X102567292Y-113837726D01*
G37*
X102567292Y-113837726D02*
X102580366Y-113853656D01*
X102596294Y-113866728D01*
X102596295Y-113866729D01*
X102605953Y-113874655D01*
X102643938Y-113905829D01*
X102716468Y-113944597D01*
X102795167Y-113968470D01*
X102856502Y-113974511D01*
X102856511Y-113974511D01*
X102877010Y-113976530D01*
X102897509Y-113974511D01*
X103363095Y-113974511D01*
X103371098Y-113982514D01*
X102455487Y-113982514D01*
X102434985Y-113980495D01*
X102414483Y-113982514D01*
X102414477Y-113982514D01*
X102361450Y-113987737D01*
X102353141Y-113988555D01*
X102333989Y-113994365D01*
X102274443Y-114012428D01*
X102201913Y-114051196D01*
X102201911Y-114051197D01*
X102201912Y-114051197D01*
X102154270Y-114090295D01*
X102154263Y-114090302D01*
X102138341Y-114103369D01*
X102125274Y-114119291D01*
X101839848Y-114404718D01*
X101826403Y-114391273D01*
X101747950Y-114338852D01*
X101660777Y-114302744D01*
X101568235Y-114284337D01*
X101481979Y-114284337D01*
X101481979Y-112752413D01*
X102567292Y-113837726D01*
G36*
X114173029Y-108190308D02*
G01*
X114304792Y-108387505D01*
X114472495Y-108555208D01*
X114669692Y-108686971D01*
X114888806Y-108777731D01*
X115121416Y-108824000D01*
X115358584Y-108824000D01*
X115591194Y-108777731D01*
X115810308Y-108686971D01*
X116007505Y-108555208D01*
X116131001Y-108431712D01*
X116131001Y-109348288D01*
X116007505Y-109224792D01*
X115810308Y-109093029D01*
X115591194Y-109002269D01*
X115358584Y-108956000D01*
X115121416Y-108956000D01*
X114888806Y-109002269D01*
X114669692Y-109093029D01*
X114472495Y-109224792D01*
X114304792Y-109392495D01*
X114173029Y-109589692D01*
X114082269Y-109808806D01*
X114036000Y-110041416D01*
X114036000Y-110278584D01*
X114082269Y-110511194D01*
X114145564Y-110664002D01*
X113781235Y-111028331D01*
X113765307Y-111041403D01*
X113752236Y-111057330D01*
X113752233Y-111057333D01*
X113738547Y-111074010D01*
X113713134Y-111104976D01*
X113674366Y-111177506D01*
X113667973Y-111198581D01*
X113650493Y-111256204D01*
X113650198Y-111259196D01*
X113644452Y-111317540D01*
X113644452Y-111317546D01*
X113642433Y-111338048D01*
X113644452Y-111358550D01*
X113644453Y-112497019D01*
X113394500Y-112247066D01*
X113394500Y-110289934D01*
X113960722Y-109723712D01*
X113976645Y-109710645D01*
X113989712Y-109694723D01*
X113989719Y-109694716D01*
X114028817Y-109647074D01*
X114028857Y-109647000D01*
X114067586Y-109574543D01*
X114091459Y-109495844D01*
X114097500Y-109434509D01*
X114097500Y-109434500D01*
X114099519Y-109414001D01*
X114097500Y-109393502D01*
X114097500Y-108007965D01*
X114173029Y-108190308D01*
G37*
X114173029Y-108190308D02*
X114304792Y-108387505D01*
X114472495Y-108555208D01*
X114669692Y-108686971D01*
X114888806Y-108777731D01*
X115121416Y-108824000D01*
X115358584Y-108824000D01*
X115591194Y-108777731D01*
X115810308Y-108686971D01*
X116007505Y-108555208D01*
X116131001Y-108431712D01*
X116131001Y-109348288D01*
X116007505Y-109224792D01*
X115810308Y-109093029D01*
X115591194Y-109002269D01*
X115358584Y-108956000D01*
X115121416Y-108956000D01*
X114888806Y-109002269D01*
X114669692Y-109093029D01*
X114472495Y-109224792D01*
X114304792Y-109392495D01*
X114173029Y-109589692D01*
X114082269Y-109808806D01*
X114036000Y-110041416D01*
X114036000Y-110278584D01*
X114082269Y-110511194D01*
X114145564Y-110664002D01*
X113781235Y-111028331D01*
X113765307Y-111041403D01*
X113752236Y-111057330D01*
X113752233Y-111057333D01*
X113738547Y-111074010D01*
X113713134Y-111104976D01*
X113674366Y-111177506D01*
X113667973Y-111198581D01*
X113650493Y-111256204D01*
X113650198Y-111259196D01*
X113644452Y-111317540D01*
X113644452Y-111317546D01*
X113642433Y-111338048D01*
X113644452Y-111358550D01*
X113644453Y-112497019D01*
X113394500Y-112247066D01*
X113394500Y-110289934D01*
X113960722Y-109723712D01*
X113976645Y-109710645D01*
X113989712Y-109694723D01*
X113989719Y-109694716D01*
X114028817Y-109647074D01*
X114028857Y-109647000D01*
X114067586Y-109574543D01*
X114091459Y-109495844D01*
X114097500Y-109434509D01*
X114097500Y-109434500D01*
X114099519Y-109414001D01*
X114097500Y-109393502D01*
X114097500Y-108007965D01*
X114173029Y-108190308D01*
G36*
X99232495Y-103475208D02*
G01*
X99429692Y-103606971D01*
X99648806Y-103697731D01*
X99881416Y-103744000D01*
X100118584Y-103744000D01*
X100351194Y-103697731D01*
X100570308Y-103606971D01*
X100696001Y-103522985D01*
X100696002Y-104102713D01*
X100651951Y-104067786D01*
X100441951Y-103960046D01*
X100214967Y-103895345D01*
X100027000Y-103964802D01*
X100027000Y-105053000D01*
X100047000Y-105053000D01*
X100047000Y-105107000D01*
X100027000Y-105107000D01*
X100027000Y-106195198D01*
X100214967Y-106264655D01*
X100441951Y-106199954D01*
X100651951Y-106092214D01*
X100696002Y-106057287D01*
X100696002Y-106640532D01*
X100689097Y-106625604D01*
X100481860Y-106510274D01*
X100256104Y-106437592D01*
X100020507Y-106410347D01*
X99784122Y-106429590D01*
X99556032Y-106494579D01*
X99345005Y-106602818D01*
X99310903Y-106625604D01*
X99226424Y-106808241D01*
X100000000Y-107581816D01*
X100014142Y-107567674D01*
X100052326Y-107605858D01*
X100038184Y-107620000D01*
X100052326Y-107634142D01*
X100014142Y-107672326D01*
X100000000Y-107658184D01*
X99226424Y-108431759D01*
X99310903Y-108614396D01*
X99518140Y-108729726D01*
X99743896Y-108802408D01*
X99979493Y-108829653D01*
X100215878Y-108810410D01*
X100443968Y-108745421D01*
X100561000Y-108685393D01*
X100561000Y-108727027D01*
X100583250Y-108838888D01*
X100626896Y-108944260D01*
X100690261Y-109039091D01*
X100704120Y-109052950D01*
X100652415Y-109104655D01*
X100632442Y-109134546D01*
X100570308Y-109093029D01*
X100351194Y-109002269D01*
X100118584Y-108956000D01*
X99881416Y-108956000D01*
X99648806Y-109002269D01*
X99429692Y-109093029D01*
X99232495Y-109224792D01*
X99109000Y-109348287D01*
X99109000Y-108356923D01*
X99188241Y-108393576D01*
X99961816Y-107620000D01*
X99188241Y-106846424D01*
X99109000Y-106883077D01*
X99109000Y-105881870D01*
X99163103Y-105945575D01*
X99348049Y-106092214D01*
X99558049Y-106199954D01*
X99785033Y-106264655D01*
X99973000Y-106195198D01*
X99973000Y-105107000D01*
X99953000Y-105107000D01*
X99953000Y-105053000D01*
X99973000Y-105053000D01*
X99973000Y-103964802D01*
X99785033Y-103895345D01*
X99558049Y-103960046D01*
X99348049Y-104067786D01*
X99163103Y-104214425D01*
X99109000Y-104278130D01*
X99109000Y-103351713D01*
X99232495Y-103475208D01*
G37*
X99232495Y-103475208D02*
X99429692Y-103606971D01*
X99648806Y-103697731D01*
X99881416Y-103744000D01*
X100118584Y-103744000D01*
X100351194Y-103697731D01*
X100570308Y-103606971D01*
X100696001Y-103522985D01*
X100696002Y-104102713D01*
X100651951Y-104067786D01*
X100441951Y-103960046D01*
X100214967Y-103895345D01*
X100027000Y-103964802D01*
X100027000Y-105053000D01*
X100047000Y-105053000D01*
X100047000Y-105107000D01*
X100027000Y-105107000D01*
X100027000Y-106195198D01*
X100214967Y-106264655D01*
X100441951Y-106199954D01*
X100651951Y-106092214D01*
X100696002Y-106057287D01*
X100696002Y-106640532D01*
X100689097Y-106625604D01*
X100481860Y-106510274D01*
X100256104Y-106437592D01*
X100020507Y-106410347D01*
X99784122Y-106429590D01*
X99556032Y-106494579D01*
X99345005Y-106602818D01*
X99310903Y-106625604D01*
X99226424Y-106808241D01*
X100000000Y-107581816D01*
X100014142Y-107567674D01*
X100052326Y-107605858D01*
X100038184Y-107620000D01*
X100052326Y-107634142D01*
X100014142Y-107672326D01*
X100000000Y-107658184D01*
X99226424Y-108431759D01*
X99310903Y-108614396D01*
X99518140Y-108729726D01*
X99743896Y-108802408D01*
X99979493Y-108829653D01*
X100215878Y-108810410D01*
X100443968Y-108745421D01*
X100561000Y-108685393D01*
X100561000Y-108727027D01*
X100583250Y-108838888D01*
X100626896Y-108944260D01*
X100690261Y-109039091D01*
X100704120Y-109052950D01*
X100652415Y-109104655D01*
X100632442Y-109134546D01*
X100570308Y-109093029D01*
X100351194Y-109002269D01*
X100118584Y-108956000D01*
X99881416Y-108956000D01*
X99648806Y-109002269D01*
X99429692Y-109093029D01*
X99232495Y-109224792D01*
X99109000Y-109348287D01*
X99109000Y-108356923D01*
X99188241Y-108393576D01*
X99961816Y-107620000D01*
X99188241Y-106846424D01*
X99109000Y-106883077D01*
X99109000Y-105881870D01*
X99163103Y-105945575D01*
X99348049Y-106092214D01*
X99558049Y-106199954D01*
X99785033Y-106264655D01*
X99973000Y-106195198D01*
X99973000Y-105107000D01*
X99953000Y-105107000D01*
X99953000Y-105053000D01*
X99973000Y-105053000D01*
X99973000Y-103964802D01*
X99785033Y-103895345D01*
X99558049Y-103960046D01*
X99348049Y-104067786D01*
X99163103Y-104214425D01*
X99109000Y-104278130D01*
X99109000Y-103351713D01*
X99232495Y-103475208D01*
G36*
X102564716Y-100945334D02*
G01*
X102480773Y-101102380D01*
X102429081Y-101272785D01*
X102416001Y-101405590D01*
X102416000Y-102194744D01*
X102397177Y-102191000D01*
X102302823Y-102191000D01*
X102210281Y-102209407D01*
X102123108Y-102245515D01*
X102044655Y-102297936D01*
X101977936Y-102364655D01*
X101925515Y-102443108D01*
X101889407Y-102530281D01*
X101871000Y-102622823D01*
X101871000Y-102632995D01*
X101852064Y-102604655D01*
X101785345Y-102537936D01*
X101706892Y-102485515D01*
X101619719Y-102449407D01*
X101531001Y-102431761D01*
X101531001Y-101608859D01*
X101588741Y-101639722D01*
X101702596Y-101674260D01*
X101821000Y-101685922D01*
X101939404Y-101674260D01*
X102053259Y-101639722D01*
X102158187Y-101583637D01*
X102227114Y-101527070D01*
X102313570Y-101440614D01*
X102370137Y-101371687D01*
X102426223Y-101266758D01*
X102460760Y-101152903D01*
X102472422Y-101034500D01*
X102470944Y-101019490D01*
X102654494Y-100835940D01*
X102564716Y-100945334D01*
G37*
X102564716Y-100945334D02*
X102480773Y-101102380D01*
X102429081Y-101272785D01*
X102416001Y-101405590D01*
X102416000Y-102194744D01*
X102397177Y-102191000D01*
X102302823Y-102191000D01*
X102210281Y-102209407D01*
X102123108Y-102245515D01*
X102044655Y-102297936D01*
X101977936Y-102364655D01*
X101925515Y-102443108D01*
X101889407Y-102530281D01*
X101871000Y-102622823D01*
X101871000Y-102632995D01*
X101852064Y-102604655D01*
X101785345Y-102537936D01*
X101706892Y-102485515D01*
X101619719Y-102449407D01*
X101531001Y-102431761D01*
X101531001Y-101608859D01*
X101588741Y-101639722D01*
X101702596Y-101674260D01*
X101821000Y-101685922D01*
X101939404Y-101674260D01*
X102053259Y-101639722D01*
X102158187Y-101583637D01*
X102227114Y-101527070D01*
X102313570Y-101440614D01*
X102370137Y-101371687D01*
X102426223Y-101266758D01*
X102460760Y-101152903D01*
X102472422Y-101034500D01*
X102470944Y-101019490D01*
X102654494Y-100835940D01*
X102564716Y-100945334D01*
G36*
X102018784Y-99609218D02*
G01*
X102031856Y-99625146D01*
X102095428Y-99677319D01*
X102167958Y-99716087D01*
X102246657Y-99739960D01*
X102307992Y-99746001D01*
X102308001Y-99746001D01*
X102328500Y-99748020D01*
X102348999Y-99746001D01*
X102655046Y-99746001D01*
X102584457Y-99767414D01*
X102511927Y-99806182D01*
X102448355Y-99858355D01*
X102435283Y-99874283D01*
X101880510Y-100429056D01*
X101865500Y-100427578D01*
X101747097Y-100439240D01*
X101633242Y-100473777D01*
X101531001Y-100528426D01*
X101531001Y-99551003D01*
X101533020Y-99530501D01*
X101531001Y-99509999D01*
X101531001Y-99509992D01*
X101524960Y-99448657D01*
X101521867Y-99438459D01*
X101514594Y-99414485D01*
X101501087Y-99369958D01*
X101468659Y-99309290D01*
X101482463Y-99295486D01*
X101705052Y-99295486D01*
X102018784Y-99609218D01*
G37*
X102018784Y-99609218D02*
X102031856Y-99625146D01*
X102095428Y-99677319D01*
X102167958Y-99716087D01*
X102246657Y-99739960D01*
X102307992Y-99746001D01*
X102308001Y-99746001D01*
X102328500Y-99748020D01*
X102348999Y-99746001D01*
X102655046Y-99746001D01*
X102584457Y-99767414D01*
X102511927Y-99806182D01*
X102448355Y-99858355D01*
X102435283Y-99874283D01*
X101880510Y-100429056D01*
X101865500Y-100427578D01*
X101747097Y-100439240D01*
X101633242Y-100473777D01*
X101531001Y-100528426D01*
X101531001Y-99551003D01*
X101533020Y-99530501D01*
X101531001Y-99509999D01*
X101531001Y-99509992D01*
X101524960Y-99448657D01*
X101521867Y-99438459D01*
X101514594Y-99414485D01*
X101501087Y-99369958D01*
X101468659Y-99309290D01*
X101482463Y-99295486D01*
X101705052Y-99295486D01*
X102018784Y-99609218D01*
%TD*%
M02*
