%TF.GenerationSoftware,KiCad,Pcbnew,(5.1.6-0-10_14)*%
%TF.CreationDate,2022-03-04T18:56:52-06:00*%
%TF.ProjectId,Bonsai_C4,426f6e73-6169-45f4-9334-2e6b69636164,rev?*%
%TF.SameCoordinates,Original*%
%TF.FileFunction,Paste,Bot*%
%TF.FilePolarity,Positive*%
%FSLAX46Y46*%
G04 Gerber Fmt 4.6, Leading zero omitted, Abs format (unit mm)*
G04 Created by KiCad (PCBNEW (5.1.6-0-10_14)) date 2022-03-04 18:56:52*
%MOMM*%
%LPD*%
G01*
G04 APERTURE LIST*
G04 APERTURE END LIST*
%TO.C,C13*%
G36*
G01*
X111197500Y-108860000D02*
X111542500Y-108860000D01*
G75*
G02*
X111690000Y-109007500I0J-147500D01*
G01*
X111690000Y-109302500D01*
G75*
G02*
X111542500Y-109450000I-147500J0D01*
G01*
X111197500Y-109450000D01*
G75*
G02*
X111050000Y-109302500I0J147500D01*
G01*
X111050000Y-109007500D01*
G75*
G02*
X111197500Y-108860000I147500J0D01*
G01*
G37*
G36*
G01*
X111197500Y-107890000D02*
X111542500Y-107890000D01*
G75*
G02*
X111690000Y-108037500I0J-147500D01*
G01*
X111690000Y-108332500D01*
G75*
G02*
X111542500Y-108480000I-147500J0D01*
G01*
X111197500Y-108480000D01*
G75*
G02*
X111050000Y-108332500I0J147500D01*
G01*
X111050000Y-108037500D01*
G75*
G02*
X111197500Y-107890000I147500J0D01*
G01*
G37*
%TD*%
%TO.C,U7*%
G36*
G01*
X106140000Y-112265000D02*
X106440000Y-112265000D01*
G75*
G02*
X106590000Y-112415000I0J-150000D01*
G01*
X106590000Y-113765000D01*
G75*
G02*
X106440000Y-113915000I-150000J0D01*
G01*
X106140000Y-113915000D01*
G75*
G02*
X105990000Y-113765000I0J150000D01*
G01*
X105990000Y-112415000D01*
G75*
G02*
X106140000Y-112265000I150000J0D01*
G01*
G37*
G36*
G01*
X107410000Y-112265000D02*
X107710000Y-112265000D01*
G75*
G02*
X107860000Y-112415000I0J-150000D01*
G01*
X107860000Y-113765000D01*
G75*
G02*
X107710000Y-113915000I-150000J0D01*
G01*
X107410000Y-113915000D01*
G75*
G02*
X107260000Y-113765000I0J150000D01*
G01*
X107260000Y-112415000D01*
G75*
G02*
X107410000Y-112265000I150000J0D01*
G01*
G37*
G36*
G01*
X108680000Y-112265000D02*
X108980000Y-112265000D01*
G75*
G02*
X109130000Y-112415000I0J-150000D01*
G01*
X109130000Y-113765000D01*
G75*
G02*
X108980000Y-113915000I-150000J0D01*
G01*
X108680000Y-113915000D01*
G75*
G02*
X108530000Y-113765000I0J150000D01*
G01*
X108530000Y-112415000D01*
G75*
G02*
X108680000Y-112265000I150000J0D01*
G01*
G37*
G36*
G01*
X109950000Y-112265000D02*
X110250000Y-112265000D01*
G75*
G02*
X110400000Y-112415000I0J-150000D01*
G01*
X110400000Y-113765000D01*
G75*
G02*
X110250000Y-113915000I-150000J0D01*
G01*
X109950000Y-113915000D01*
G75*
G02*
X109800000Y-113765000I0J150000D01*
G01*
X109800000Y-112415000D01*
G75*
G02*
X109950000Y-112265000I150000J0D01*
G01*
G37*
G36*
G01*
X109950000Y-107015000D02*
X110250000Y-107015000D01*
G75*
G02*
X110400000Y-107165000I0J-150000D01*
G01*
X110400000Y-108515000D01*
G75*
G02*
X110250000Y-108665000I-150000J0D01*
G01*
X109950000Y-108665000D01*
G75*
G02*
X109800000Y-108515000I0J150000D01*
G01*
X109800000Y-107165000D01*
G75*
G02*
X109950000Y-107015000I150000J0D01*
G01*
G37*
G36*
G01*
X108680000Y-107015000D02*
X108980000Y-107015000D01*
G75*
G02*
X109130000Y-107165000I0J-150000D01*
G01*
X109130000Y-108515000D01*
G75*
G02*
X108980000Y-108665000I-150000J0D01*
G01*
X108680000Y-108665000D01*
G75*
G02*
X108530000Y-108515000I0J150000D01*
G01*
X108530000Y-107165000D01*
G75*
G02*
X108680000Y-107015000I150000J0D01*
G01*
G37*
G36*
G01*
X107410000Y-107015000D02*
X107710000Y-107015000D01*
G75*
G02*
X107860000Y-107165000I0J-150000D01*
G01*
X107860000Y-108515000D01*
G75*
G02*
X107710000Y-108665000I-150000J0D01*
G01*
X107410000Y-108665000D01*
G75*
G02*
X107260000Y-108515000I0J150000D01*
G01*
X107260000Y-107165000D01*
G75*
G02*
X107410000Y-107015000I150000J0D01*
G01*
G37*
G36*
G01*
X106140000Y-107015000D02*
X106440000Y-107015000D01*
G75*
G02*
X106590000Y-107165000I0J-150000D01*
G01*
X106590000Y-108515000D01*
G75*
G02*
X106440000Y-108665000I-150000J0D01*
G01*
X106140000Y-108665000D01*
G75*
G02*
X105990000Y-108515000I0J150000D01*
G01*
X105990000Y-107165000D01*
G75*
G02*
X106140000Y-107015000I150000J0D01*
G01*
G37*
%TD*%
%TO.C,U6*%
G36*
G01*
X105210000Y-123775000D02*
X105210000Y-124075000D01*
G75*
G02*
X105060000Y-124225000I-150000J0D01*
G01*
X103760000Y-124225000D01*
G75*
G02*
X103610000Y-124075000I0J150000D01*
G01*
X103610000Y-123775000D01*
G75*
G02*
X103760000Y-123625000I150000J0D01*
G01*
X105060000Y-123625000D01*
G75*
G02*
X105210000Y-123775000I0J-150000D01*
G01*
G37*
G36*
G01*
X105210000Y-125045000D02*
X105210000Y-125345000D01*
G75*
G02*
X105060000Y-125495000I-150000J0D01*
G01*
X103760000Y-125495000D01*
G75*
G02*
X103610000Y-125345000I0J150000D01*
G01*
X103610000Y-125045000D01*
G75*
G02*
X103760000Y-124895000I150000J0D01*
G01*
X105060000Y-124895000D01*
G75*
G02*
X105210000Y-125045000I0J-150000D01*
G01*
G37*
G36*
G01*
X105210000Y-126315000D02*
X105210000Y-126615000D01*
G75*
G02*
X105060000Y-126765000I-150000J0D01*
G01*
X103760000Y-126765000D01*
G75*
G02*
X103610000Y-126615000I0J150000D01*
G01*
X103610000Y-126315000D01*
G75*
G02*
X103760000Y-126165000I150000J0D01*
G01*
X105060000Y-126165000D01*
G75*
G02*
X105210000Y-126315000I0J-150000D01*
G01*
G37*
G36*
G01*
X105210000Y-127585000D02*
X105210000Y-127885000D01*
G75*
G02*
X105060000Y-128035000I-150000J0D01*
G01*
X103760000Y-128035000D01*
G75*
G02*
X103610000Y-127885000I0J150000D01*
G01*
X103610000Y-127585000D01*
G75*
G02*
X103760000Y-127435000I150000J0D01*
G01*
X105060000Y-127435000D01*
G75*
G02*
X105210000Y-127585000I0J-150000D01*
G01*
G37*
G36*
G01*
X112410000Y-127585000D02*
X112410000Y-127885000D01*
G75*
G02*
X112260000Y-128035000I-150000J0D01*
G01*
X110960000Y-128035000D01*
G75*
G02*
X110810000Y-127885000I0J150000D01*
G01*
X110810000Y-127585000D01*
G75*
G02*
X110960000Y-127435000I150000J0D01*
G01*
X112260000Y-127435000D01*
G75*
G02*
X112410000Y-127585000I0J-150000D01*
G01*
G37*
G36*
G01*
X112410000Y-126315000D02*
X112410000Y-126615000D01*
G75*
G02*
X112260000Y-126765000I-150000J0D01*
G01*
X110960000Y-126765000D01*
G75*
G02*
X110810000Y-126615000I0J150000D01*
G01*
X110810000Y-126315000D01*
G75*
G02*
X110960000Y-126165000I150000J0D01*
G01*
X112260000Y-126165000D01*
G75*
G02*
X112410000Y-126315000I0J-150000D01*
G01*
G37*
G36*
G01*
X112410000Y-125045000D02*
X112410000Y-125345000D01*
G75*
G02*
X112260000Y-125495000I-150000J0D01*
G01*
X110960000Y-125495000D01*
G75*
G02*
X110810000Y-125345000I0J150000D01*
G01*
X110810000Y-125045000D01*
G75*
G02*
X110960000Y-124895000I150000J0D01*
G01*
X112260000Y-124895000D01*
G75*
G02*
X112410000Y-125045000I0J-150000D01*
G01*
G37*
G36*
G01*
X112410000Y-123775000D02*
X112410000Y-124075000D01*
G75*
G02*
X112260000Y-124225000I-150000J0D01*
G01*
X110960000Y-124225000D01*
G75*
G02*
X110810000Y-124075000I0J150000D01*
G01*
X110810000Y-123775000D01*
G75*
G02*
X110960000Y-123625000I150000J0D01*
G01*
X112260000Y-123625000D01*
G75*
G02*
X112410000Y-123775000I0J-150000D01*
G01*
G37*
%TD*%
%TO.C,C5*%
G36*
G01*
X109850000Y-122317500D02*
X109850000Y-122662500D01*
G75*
G02*
X109702500Y-122810000I-147500J0D01*
G01*
X109407500Y-122810000D01*
G75*
G02*
X109260000Y-122662500I0J147500D01*
G01*
X109260000Y-122317500D01*
G75*
G02*
X109407500Y-122170000I147500J0D01*
G01*
X109702500Y-122170000D01*
G75*
G02*
X109850000Y-122317500I0J-147500D01*
G01*
G37*
G36*
G01*
X110820000Y-122317500D02*
X110820000Y-122662500D01*
G75*
G02*
X110672500Y-122810000I-147500J0D01*
G01*
X110377500Y-122810000D01*
G75*
G02*
X110230000Y-122662500I0J147500D01*
G01*
X110230000Y-122317500D01*
G75*
G02*
X110377500Y-122170000I147500J0D01*
G01*
X110672500Y-122170000D01*
G75*
G02*
X110820000Y-122317500I0J-147500D01*
G01*
G37*
%TD*%
M02*
