%TF.GenerationSoftware,KiCad,Pcbnew,(5.1.6-0-10_14)*%
%TF.CreationDate,2022-03-04T18:56:52-06:00*%
%TF.ProjectId,Bonsai_C4,426f6e73-6169-45f4-9334-2e6b69636164,rev?*%
%TF.SameCoordinates,Original*%
%TF.FileFunction,Copper,L4,Bot*%
%TF.FilePolarity,Positive*%
%FSLAX46Y46*%
G04 Gerber Fmt 4.6, Leading zero omitted, Abs format (unit mm)*
G04 Created by KiCad (PCBNEW (5.1.6-0-10_14)) date 2022-03-04 18:56:52*
%MOMM*%
%LPD*%
G01*
G04 APERTURE LIST*
%TA.AperFunction,EtchedComponent*%
%ADD10C,0.100000*%
%TD*%
%TA.AperFunction,ComponentPad*%
%ADD11C,1.700000*%
%TD*%
%TA.AperFunction,ComponentPad*%
%ADD12O,1.700000X1.700000*%
%TD*%
%TA.AperFunction,SMDPad,CuDef*%
%ADD13C,0.100000*%
%TD*%
%TA.AperFunction,SMDPad,CuDef*%
%ADD14R,1.000000X1.500000*%
%TD*%
%TA.AperFunction,SMDPad,CuDef*%
%ADD15R,1.000000X1.000000*%
%TD*%
%TA.AperFunction,ComponentPad*%
%ADD16O,1.100000X2.200000*%
%TD*%
%TA.AperFunction,ComponentPad*%
%ADD17O,1.300000X1.900000*%
%TD*%
%TA.AperFunction,ViaPad*%
%ADD18C,0.500000*%
%TD*%
%TA.AperFunction,ViaPad*%
%ADD19C,0.250000*%
%TD*%
%TA.AperFunction,ViaPad*%
%ADD20C,0.800000*%
%TD*%
%TA.AperFunction,ViaPad*%
%ADD21C,0.450000*%
%TD*%
%TA.AperFunction,ViaPad*%
%ADD22C,0.350000*%
%TD*%
%TA.AperFunction,Conductor*%
%ADD23C,0.127000*%
%TD*%
%TA.AperFunction,Conductor*%
%ADD24C,0.220000*%
%TD*%
%TA.AperFunction,Conductor*%
%ADD25C,0.500000*%
%TD*%
%TA.AperFunction,Conductor*%
%ADD26C,0.250000*%
%TD*%
%TA.AperFunction,Conductor*%
%ADD27C,0.380000*%
%TD*%
%TA.AperFunction,Conductor*%
%ADD28C,0.450000*%
%TD*%
G04 APERTURE END LIST*
D10*
%TO.C,JP4*%
G36*
X102710000Y-113050000D02*
G01*
X103210000Y-113050000D01*
X103210000Y-112450000D01*
X102710000Y-112450000D01*
X102710000Y-113050000D01*
G37*
%TO.C,JP3*%
G36*
X102670000Y-110480000D02*
G01*
X103170000Y-110480000D01*
X103170000Y-109880000D01*
X102670000Y-109880000D01*
X102670000Y-110480000D01*
G37*
%TO.C,JP1*%
G36*
X106629000Y-98643000D02*
G01*
X107129000Y-98643000D01*
X107129000Y-98043000D01*
X106629000Y-98043000D01*
X106629000Y-98643000D01*
G37*
%TO.C,JP2*%
G36*
X106673000Y-101153000D02*
G01*
X107173000Y-101153000D01*
X107173000Y-100553000D01*
X106673000Y-100553000D01*
X106673000Y-101153000D01*
G37*
%TD*%
%TO.P,C13,2*%
%TO.N,GND*%
%TA.AperFunction,SMDPad,CuDef*%
G36*
G01*
X111197500Y-108860000D02*
X111542500Y-108860000D01*
G75*
G02*
X111690000Y-109007500I0J-147500D01*
G01*
X111690000Y-109302500D01*
G75*
G02*
X111542500Y-109450000I-147500J0D01*
G01*
X111197500Y-109450000D01*
G75*
G02*
X111050000Y-109302500I0J147500D01*
G01*
X111050000Y-109007500D01*
G75*
G02*
X111197500Y-108860000I147500J0D01*
G01*
G37*
%TD.AperFunction*%
%TO.P,C13,1*%
%TO.N,+3V3*%
%TA.AperFunction,SMDPad,CuDef*%
G36*
G01*
X111197500Y-107890000D02*
X111542500Y-107890000D01*
G75*
G02*
X111690000Y-108037500I0J-147500D01*
G01*
X111690000Y-108332500D01*
G75*
G02*
X111542500Y-108480000I-147500J0D01*
G01*
X111197500Y-108480000D01*
G75*
G02*
X111050000Y-108332500I0J147500D01*
G01*
X111050000Y-108037500D01*
G75*
G02*
X111197500Y-107890000I147500J0D01*
G01*
G37*
%TD.AperFunction*%
%TD*%
D11*
%TO.P,J4,1*%
%TO.N,/PD3*%
X100000000Y-100000000D03*
D12*
%TO.P,J4,2*%
%TO.N,/PD2*%
X100000000Y-102540000D03*
%TO.P,J4,3*%
%TO.N,GND*%
X100000000Y-105080000D03*
%TO.P,J4,6*%
%TO.N,/PD0*%
X100000000Y-112700000D03*
%TO.P,J4,5*%
%TO.N,/PD1*%
X100000000Y-110160000D03*
D11*
%TO.P,J4,4*%
%TO.N,GND*%
X100000000Y-107620000D03*
%TO.P,J4,10*%
%TO.N,/B10*%
X100000000Y-122860000D03*
D12*
%TO.P,J4,8*%
%TO.N,/B8*%
X100000000Y-117780000D03*
D11*
%TO.P,J4,7*%
%TO.N,/A4*%
X100000000Y-115240000D03*
D12*
%TO.P,J4,11*%
%TO.N,/A8*%
X100000000Y-125400000D03*
%TO.P,J4,12*%
%TO.N,/B0*%
X100000000Y-127940000D03*
%TO.P,J4,9*%
%TO.N,/A3*%
X100000000Y-120320000D03*
%TD*%
D11*
%TO.P,J5,1*%
%TO.N,+5V*%
X115240000Y-100000000D03*
D12*
%TO.P,J5,2*%
%TO.N,GND*%
X115240000Y-102540000D03*
%TO.P,J5,3*%
%TO.N,/DFU*%
X115240000Y-105080000D03*
%TO.P,J5,6*%
%TO.N,/A6*%
X115240000Y-112700000D03*
%TO.P,J5,5*%
%TO.N,/A7*%
X115240000Y-110160000D03*
D11*
%TO.P,J5,4*%
%TO.N,+3V3*%
X115240000Y-107620000D03*
%TO.P,J5,10*%
%TO.N,/B14*%
X115240000Y-122860000D03*
D12*
%TO.P,J5,8*%
%TO.N,/A1*%
X115240000Y-117780000D03*
D11*
%TO.P,J5,7*%
%TO.N,/A5*%
X115240000Y-115240000D03*
D12*
%TO.P,J5,11*%
%TO.N,/B15*%
X115240000Y-125400000D03*
%TO.P,J5,12*%
%TO.N,/B1*%
X115240000Y-127940000D03*
%TO.P,J5,9*%
%TO.N,/B13*%
X115240000Y-120320000D03*
%TD*%
%TO.P,J1,3*%
%TO.N,/D+*%
X102540000Y-105080000D03*
%TO.P,J1,2*%
%TO.N,/D-*%
X105080000Y-105080000D03*
D11*
%TO.P,J1,1*%
%TO.N,VBUS*%
X107620000Y-105080000D03*
%TD*%
%TO.P,J2,1*%
%TO.N,/A10_5V*%
X112680000Y-105120000D03*
%TD*%
%TA.AperFunction,SMDPad,CuDef*%
D13*
%TO.P,JP4,1*%
%TO.N,/B6*%
G36*
X102860000Y-113500000D02*
G01*
X102310000Y-113500000D01*
X102310000Y-113499398D01*
X102285466Y-113499398D01*
X102236635Y-113494588D01*
X102188510Y-113485016D01*
X102141555Y-113470772D01*
X102096222Y-113451995D01*
X102052949Y-113428864D01*
X102012150Y-113401604D01*
X101974221Y-113370476D01*
X101939524Y-113335779D01*
X101908396Y-113297850D01*
X101881136Y-113257051D01*
X101858005Y-113213778D01*
X101839228Y-113168445D01*
X101824984Y-113121490D01*
X101815412Y-113073365D01*
X101810602Y-113024534D01*
X101810602Y-113000000D01*
X101810000Y-113000000D01*
X101810000Y-112500000D01*
X101810602Y-112500000D01*
X101810602Y-112475466D01*
X101815412Y-112426635D01*
X101824984Y-112378510D01*
X101839228Y-112331555D01*
X101858005Y-112286222D01*
X101881136Y-112242949D01*
X101908396Y-112202150D01*
X101939524Y-112164221D01*
X101974221Y-112129524D01*
X102012150Y-112098396D01*
X102052949Y-112071136D01*
X102096222Y-112048005D01*
X102141555Y-112029228D01*
X102188510Y-112014984D01*
X102236635Y-112005412D01*
X102285466Y-112000602D01*
X102310000Y-112000602D01*
X102310000Y-112000000D01*
X102860000Y-112000000D01*
X102860000Y-113500000D01*
G37*
%TD.AperFunction*%
D14*
%TO.P,JP4,2*%
%TO.N,/PD0*%
X103610000Y-112750000D03*
%TA.AperFunction,SMDPad,CuDef*%
D13*
%TO.P,JP4,3*%
%TO.N,/B9*%
G36*
X104910000Y-112000602D02*
G01*
X104934534Y-112000602D01*
X104983365Y-112005412D01*
X105031490Y-112014984D01*
X105078445Y-112029228D01*
X105123778Y-112048005D01*
X105167051Y-112071136D01*
X105207850Y-112098396D01*
X105245779Y-112129524D01*
X105280476Y-112164221D01*
X105311604Y-112202150D01*
X105338864Y-112242949D01*
X105361995Y-112286222D01*
X105380772Y-112331555D01*
X105395016Y-112378510D01*
X105404588Y-112426635D01*
X105409398Y-112475466D01*
X105409398Y-112500000D01*
X105410000Y-112500000D01*
X105410000Y-113000000D01*
X105409398Y-113000000D01*
X105409398Y-113024534D01*
X105404588Y-113073365D01*
X105395016Y-113121490D01*
X105380772Y-113168445D01*
X105361995Y-113213778D01*
X105338864Y-113257051D01*
X105311604Y-113297850D01*
X105280476Y-113335779D01*
X105245779Y-113370476D01*
X105207850Y-113401604D01*
X105167051Y-113428864D01*
X105123778Y-113451995D01*
X105078445Y-113470772D01*
X105031490Y-113485016D01*
X104983365Y-113494588D01*
X104934534Y-113499398D01*
X104910000Y-113499398D01*
X104910000Y-113500000D01*
X104360000Y-113500000D01*
X104360000Y-112000000D01*
X104910000Y-112000000D01*
X104910000Y-112000602D01*
G37*
%TD.AperFunction*%
%TD*%
%TA.AperFunction,SMDPad,CuDef*%
%TO.P,JP3,1*%
%TO.N,/B9*%
G36*
X102820000Y-110930000D02*
G01*
X102270000Y-110930000D01*
X102270000Y-110929398D01*
X102245466Y-110929398D01*
X102196635Y-110924588D01*
X102148510Y-110915016D01*
X102101555Y-110900772D01*
X102056222Y-110881995D01*
X102012949Y-110858864D01*
X101972150Y-110831604D01*
X101934221Y-110800476D01*
X101899524Y-110765779D01*
X101868396Y-110727850D01*
X101841136Y-110687051D01*
X101818005Y-110643778D01*
X101799228Y-110598445D01*
X101784984Y-110551490D01*
X101775412Y-110503365D01*
X101770602Y-110454534D01*
X101770602Y-110430000D01*
X101770000Y-110430000D01*
X101770000Y-109930000D01*
X101770602Y-109930000D01*
X101770602Y-109905466D01*
X101775412Y-109856635D01*
X101784984Y-109808510D01*
X101799228Y-109761555D01*
X101818005Y-109716222D01*
X101841136Y-109672949D01*
X101868396Y-109632150D01*
X101899524Y-109594221D01*
X101934221Y-109559524D01*
X101972150Y-109528396D01*
X102012949Y-109501136D01*
X102056222Y-109478005D01*
X102101555Y-109459228D01*
X102148510Y-109444984D01*
X102196635Y-109435412D01*
X102245466Y-109430602D01*
X102270000Y-109430602D01*
X102270000Y-109430000D01*
X102820000Y-109430000D01*
X102820000Y-110930000D01*
G37*
%TD.AperFunction*%
D14*
%TO.P,JP3,2*%
%TO.N,/PD1*%
X103570000Y-110180000D03*
%TA.AperFunction,SMDPad,CuDef*%
D13*
%TO.P,JP3,3*%
%TO.N,/B6*%
G36*
X104870000Y-109430602D02*
G01*
X104894534Y-109430602D01*
X104943365Y-109435412D01*
X104991490Y-109444984D01*
X105038445Y-109459228D01*
X105083778Y-109478005D01*
X105127051Y-109501136D01*
X105167850Y-109528396D01*
X105205779Y-109559524D01*
X105240476Y-109594221D01*
X105271604Y-109632150D01*
X105298864Y-109672949D01*
X105321995Y-109716222D01*
X105340772Y-109761555D01*
X105355016Y-109808510D01*
X105364588Y-109856635D01*
X105369398Y-109905466D01*
X105369398Y-109930000D01*
X105370000Y-109930000D01*
X105370000Y-110430000D01*
X105369398Y-110430000D01*
X105369398Y-110454534D01*
X105364588Y-110503365D01*
X105355016Y-110551490D01*
X105340772Y-110598445D01*
X105321995Y-110643778D01*
X105298864Y-110687051D01*
X105271604Y-110727850D01*
X105240476Y-110765779D01*
X105205779Y-110800476D01*
X105167850Y-110831604D01*
X105127051Y-110858864D01*
X105083778Y-110881995D01*
X105038445Y-110900772D01*
X104991490Y-110915016D01*
X104943365Y-110924588D01*
X104894534Y-110929398D01*
X104870000Y-110929398D01*
X104870000Y-110930000D01*
X104320000Y-110930000D01*
X104320000Y-109430000D01*
X104870000Y-109430000D01*
X104870000Y-109430602D01*
G37*
%TD.AperFunction*%
%TD*%
D15*
%TO.P,J8,1*%
%TO.N,/VBUS_DET*%
X111500000Y-112730000D03*
%TD*%
D16*
%TO.P,J3,S*%
%TO.N,Net-(FB1-Pad1)*%
X103320000Y-102000000D03*
D17*
X103320000Y-97800000D03*
X111920000Y-97800000D03*
D16*
X111920000Y-102000000D03*
%TD*%
%TA.AperFunction,SMDPad,CuDef*%
D13*
%TO.P,JP1,1*%
%TO.N,/A15*%
G36*
X106779000Y-99093000D02*
G01*
X106229000Y-99093000D01*
X106229000Y-99092398D01*
X106204466Y-99092398D01*
X106155635Y-99087588D01*
X106107510Y-99078016D01*
X106060555Y-99063772D01*
X106015222Y-99044995D01*
X105971949Y-99021864D01*
X105931150Y-98994604D01*
X105893221Y-98963476D01*
X105858524Y-98928779D01*
X105827396Y-98890850D01*
X105800136Y-98850051D01*
X105777005Y-98806778D01*
X105758228Y-98761445D01*
X105743984Y-98714490D01*
X105734412Y-98666365D01*
X105729602Y-98617534D01*
X105729602Y-98593000D01*
X105729000Y-98593000D01*
X105729000Y-98093000D01*
X105729602Y-98093000D01*
X105729602Y-98068466D01*
X105734412Y-98019635D01*
X105743984Y-97971510D01*
X105758228Y-97924555D01*
X105777005Y-97879222D01*
X105800136Y-97835949D01*
X105827396Y-97795150D01*
X105858524Y-97757221D01*
X105893221Y-97722524D01*
X105931150Y-97691396D01*
X105971949Y-97664136D01*
X106015222Y-97641005D01*
X106060555Y-97622228D01*
X106107510Y-97607984D01*
X106155635Y-97598412D01*
X106204466Y-97593602D01*
X106229000Y-97593602D01*
X106229000Y-97593000D01*
X106779000Y-97593000D01*
X106779000Y-99093000D01*
G37*
%TD.AperFunction*%
D14*
%TO.P,JP1,2*%
%TO.N,/PD2*%
X107529000Y-98343000D03*
%TA.AperFunction,SMDPad,CuDef*%
D13*
%TO.P,JP1,3*%
%TO.N,/B7*%
G36*
X108829000Y-97593602D02*
G01*
X108853534Y-97593602D01*
X108902365Y-97598412D01*
X108950490Y-97607984D01*
X108997445Y-97622228D01*
X109042778Y-97641005D01*
X109086051Y-97664136D01*
X109126850Y-97691396D01*
X109164779Y-97722524D01*
X109199476Y-97757221D01*
X109230604Y-97795150D01*
X109257864Y-97835949D01*
X109280995Y-97879222D01*
X109299772Y-97924555D01*
X109314016Y-97971510D01*
X109323588Y-98019635D01*
X109328398Y-98068466D01*
X109328398Y-98093000D01*
X109329000Y-98093000D01*
X109329000Y-98593000D01*
X109328398Y-98593000D01*
X109328398Y-98617534D01*
X109323588Y-98666365D01*
X109314016Y-98714490D01*
X109299772Y-98761445D01*
X109280995Y-98806778D01*
X109257864Y-98850051D01*
X109230604Y-98890850D01*
X109199476Y-98928779D01*
X109164779Y-98963476D01*
X109126850Y-98994604D01*
X109086051Y-99021864D01*
X109042778Y-99044995D01*
X108997445Y-99063772D01*
X108950490Y-99078016D01*
X108902365Y-99087588D01*
X108853534Y-99092398D01*
X108829000Y-99092398D01*
X108829000Y-99093000D01*
X108279000Y-99093000D01*
X108279000Y-97593000D01*
X108829000Y-97593000D01*
X108829000Y-97593602D01*
G37*
%TD.AperFunction*%
%TD*%
%TA.AperFunction,SMDPad,CuDef*%
%TO.P,JP2,1*%
%TO.N,/B7*%
G36*
X106823000Y-101603000D02*
G01*
X106273000Y-101603000D01*
X106273000Y-101602398D01*
X106248466Y-101602398D01*
X106199635Y-101597588D01*
X106151510Y-101588016D01*
X106104555Y-101573772D01*
X106059222Y-101554995D01*
X106015949Y-101531864D01*
X105975150Y-101504604D01*
X105937221Y-101473476D01*
X105902524Y-101438779D01*
X105871396Y-101400850D01*
X105844136Y-101360051D01*
X105821005Y-101316778D01*
X105802228Y-101271445D01*
X105787984Y-101224490D01*
X105778412Y-101176365D01*
X105773602Y-101127534D01*
X105773602Y-101103000D01*
X105773000Y-101103000D01*
X105773000Y-100603000D01*
X105773602Y-100603000D01*
X105773602Y-100578466D01*
X105778412Y-100529635D01*
X105787984Y-100481510D01*
X105802228Y-100434555D01*
X105821005Y-100389222D01*
X105844136Y-100345949D01*
X105871396Y-100305150D01*
X105902524Y-100267221D01*
X105937221Y-100232524D01*
X105975150Y-100201396D01*
X106015949Y-100174136D01*
X106059222Y-100151005D01*
X106104555Y-100132228D01*
X106151510Y-100117984D01*
X106199635Y-100108412D01*
X106248466Y-100103602D01*
X106273000Y-100103602D01*
X106273000Y-100103000D01*
X106823000Y-100103000D01*
X106823000Y-101603000D01*
G37*
%TD.AperFunction*%
D14*
%TO.P,JP2,2*%
%TO.N,/PD3*%
X107573000Y-100853000D03*
%TA.AperFunction,SMDPad,CuDef*%
D13*
%TO.P,JP2,3*%
%TO.N,/A15*%
G36*
X108873000Y-100103602D02*
G01*
X108897534Y-100103602D01*
X108946365Y-100108412D01*
X108994490Y-100117984D01*
X109041445Y-100132228D01*
X109086778Y-100151005D01*
X109130051Y-100174136D01*
X109170850Y-100201396D01*
X109208779Y-100232524D01*
X109243476Y-100267221D01*
X109274604Y-100305150D01*
X109301864Y-100345949D01*
X109324995Y-100389222D01*
X109343772Y-100434555D01*
X109358016Y-100481510D01*
X109367588Y-100529635D01*
X109372398Y-100578466D01*
X109372398Y-100603000D01*
X109373000Y-100603000D01*
X109373000Y-101103000D01*
X109372398Y-101103000D01*
X109372398Y-101127534D01*
X109367588Y-101176365D01*
X109358016Y-101224490D01*
X109343772Y-101271445D01*
X109324995Y-101316778D01*
X109301864Y-101360051D01*
X109274604Y-101400850D01*
X109243476Y-101438779D01*
X109208779Y-101473476D01*
X109170850Y-101504604D01*
X109130051Y-101531864D01*
X109086778Y-101554995D01*
X109041445Y-101573772D01*
X108994490Y-101588016D01*
X108946365Y-101597588D01*
X108897534Y-101602398D01*
X108873000Y-101602398D01*
X108873000Y-101603000D01*
X108323000Y-101603000D01*
X108323000Y-100103000D01*
X108873000Y-100103000D01*
X108873000Y-100103602D01*
G37*
%TD.AperFunction*%
%TD*%
D18*
%TO.N,GND*%
%TO.C,U3*%
X106172000Y-120440000D03*
X106172000Y-117890000D03*
X106172000Y-115340000D03*
X107447000Y-119165000D03*
X107447000Y-116615000D03*
X108722000Y-120440000D03*
X108722000Y-117890000D03*
X108722000Y-115340000D03*
X109997000Y-119165000D03*
X109997000Y-116615000D03*
X111272000Y-120440000D03*
X111272000Y-117890000D03*
X111272000Y-115340000D03*
%TD*%
%TO.P,U7,8*%
%TO.N,+3V3*%
%TA.AperFunction,SMDPad,CuDef*%
G36*
G01*
X106140000Y-112265000D02*
X106440000Y-112265000D01*
G75*
G02*
X106590000Y-112415000I0J-150000D01*
G01*
X106590000Y-113765000D01*
G75*
G02*
X106440000Y-113915000I-150000J0D01*
G01*
X106140000Y-113915000D01*
G75*
G02*
X105990000Y-113765000I0J150000D01*
G01*
X105990000Y-112415000D01*
G75*
G02*
X106140000Y-112265000I150000J0D01*
G01*
G37*
%TD.AperFunction*%
%TO.P,U7,7*%
%TA.AperFunction,SMDPad,CuDef*%
G36*
G01*
X107410000Y-112265000D02*
X107710000Y-112265000D01*
G75*
G02*
X107860000Y-112415000I0J-150000D01*
G01*
X107860000Y-113765000D01*
G75*
G02*
X107710000Y-113915000I-150000J0D01*
G01*
X107410000Y-113915000D01*
G75*
G02*
X107260000Y-113765000I0J150000D01*
G01*
X107260000Y-112415000D01*
G75*
G02*
X107410000Y-112265000I150000J0D01*
G01*
G37*
%TD.AperFunction*%
%TO.P,U7,6*%
%TO.N,/B3_SCK*%
%TA.AperFunction,SMDPad,CuDef*%
G36*
G01*
X108680000Y-112265000D02*
X108980000Y-112265000D01*
G75*
G02*
X109130000Y-112415000I0J-150000D01*
G01*
X109130000Y-113765000D01*
G75*
G02*
X108980000Y-113915000I-150000J0D01*
G01*
X108680000Y-113915000D01*
G75*
G02*
X108530000Y-113765000I0J150000D01*
G01*
X108530000Y-112415000D01*
G75*
G02*
X108680000Y-112265000I150000J0D01*
G01*
G37*
%TD.AperFunction*%
%TO.P,U7,5*%
%TO.N,/B5_MOSI*%
%TA.AperFunction,SMDPad,CuDef*%
G36*
G01*
X109950000Y-112265000D02*
X110250000Y-112265000D01*
G75*
G02*
X110400000Y-112415000I0J-150000D01*
G01*
X110400000Y-113765000D01*
G75*
G02*
X110250000Y-113915000I-150000J0D01*
G01*
X109950000Y-113915000D01*
G75*
G02*
X109800000Y-113765000I0J150000D01*
G01*
X109800000Y-112415000D01*
G75*
G02*
X109950000Y-112265000I150000J0D01*
G01*
G37*
%TD.AperFunction*%
%TO.P,U7,4*%
%TO.N,GND*%
%TA.AperFunction,SMDPad,CuDef*%
G36*
G01*
X109950000Y-107015000D02*
X110250000Y-107015000D01*
G75*
G02*
X110400000Y-107165000I0J-150000D01*
G01*
X110400000Y-108515000D01*
G75*
G02*
X110250000Y-108665000I-150000J0D01*
G01*
X109950000Y-108665000D01*
G75*
G02*
X109800000Y-108515000I0J150000D01*
G01*
X109800000Y-107165000D01*
G75*
G02*
X109950000Y-107015000I150000J0D01*
G01*
G37*
%TD.AperFunction*%
%TO.P,U7,3*%
%TO.N,+3V3*%
%TA.AperFunction,SMDPad,CuDef*%
G36*
G01*
X108680000Y-107015000D02*
X108980000Y-107015000D01*
G75*
G02*
X109130000Y-107165000I0J-150000D01*
G01*
X109130000Y-108515000D01*
G75*
G02*
X108980000Y-108665000I-150000J0D01*
G01*
X108680000Y-108665000D01*
G75*
G02*
X108530000Y-108515000I0J150000D01*
G01*
X108530000Y-107165000D01*
G75*
G02*
X108680000Y-107015000I150000J0D01*
G01*
G37*
%TD.AperFunction*%
%TO.P,U7,2*%
%TO.N,/B4_MISO*%
%TA.AperFunction,SMDPad,CuDef*%
G36*
G01*
X107410000Y-107015000D02*
X107710000Y-107015000D01*
G75*
G02*
X107860000Y-107165000I0J-150000D01*
G01*
X107860000Y-108515000D01*
G75*
G02*
X107710000Y-108665000I-150000J0D01*
G01*
X107410000Y-108665000D01*
G75*
G02*
X107260000Y-108515000I0J150000D01*
G01*
X107260000Y-107165000D01*
G75*
G02*
X107410000Y-107015000I150000J0D01*
G01*
G37*
%TD.AperFunction*%
%TO.P,U7,1*%
%TO.N,/A0_FRAM_CS*%
%TA.AperFunction,SMDPad,CuDef*%
G36*
G01*
X106140000Y-107015000D02*
X106440000Y-107015000D01*
G75*
G02*
X106590000Y-107165000I0J-150000D01*
G01*
X106590000Y-108515000D01*
G75*
G02*
X106440000Y-108665000I-150000J0D01*
G01*
X106140000Y-108665000D01*
G75*
G02*
X105990000Y-108515000I0J150000D01*
G01*
X105990000Y-107165000D01*
G75*
G02*
X106140000Y-107015000I150000J0D01*
G01*
G37*
%TD.AperFunction*%
%TD*%
%TO.P,U6,8*%
%TO.N,+3V3*%
%TA.AperFunction,SMDPad,CuDef*%
G36*
G01*
X105210000Y-123775000D02*
X105210000Y-124075000D01*
G75*
G02*
X105060000Y-124225000I-150000J0D01*
G01*
X103760000Y-124225000D01*
G75*
G02*
X103610000Y-124075000I0J150000D01*
G01*
X103610000Y-123775000D01*
G75*
G02*
X103760000Y-123625000I150000J0D01*
G01*
X105060000Y-123625000D01*
G75*
G02*
X105210000Y-123775000I0J-150000D01*
G01*
G37*
%TD.AperFunction*%
%TO.P,U6,7*%
%TO.N,Net-(U6-Pad7)*%
%TA.AperFunction,SMDPad,CuDef*%
G36*
G01*
X105210000Y-125045000D02*
X105210000Y-125345000D01*
G75*
G02*
X105060000Y-125495000I-150000J0D01*
G01*
X103760000Y-125495000D01*
G75*
G02*
X103610000Y-125345000I0J150000D01*
G01*
X103610000Y-125045000D01*
G75*
G02*
X103760000Y-124895000I150000J0D01*
G01*
X105060000Y-124895000D01*
G75*
G02*
X105210000Y-125045000I0J-150000D01*
G01*
G37*
%TD.AperFunction*%
%TO.P,U6,6*%
%TO.N,/B3_SCK*%
%TA.AperFunction,SMDPad,CuDef*%
G36*
G01*
X105210000Y-126315000D02*
X105210000Y-126615000D01*
G75*
G02*
X105060000Y-126765000I-150000J0D01*
G01*
X103760000Y-126765000D01*
G75*
G02*
X103610000Y-126615000I0J150000D01*
G01*
X103610000Y-126315000D01*
G75*
G02*
X103760000Y-126165000I150000J0D01*
G01*
X105060000Y-126165000D01*
G75*
G02*
X105210000Y-126315000I0J-150000D01*
G01*
G37*
%TD.AperFunction*%
%TO.P,U6,5*%
%TO.N,/B5_MOSI*%
%TA.AperFunction,SMDPad,CuDef*%
G36*
G01*
X105210000Y-127585000D02*
X105210000Y-127885000D01*
G75*
G02*
X105060000Y-128035000I-150000J0D01*
G01*
X103760000Y-128035000D01*
G75*
G02*
X103610000Y-127885000I0J150000D01*
G01*
X103610000Y-127585000D01*
G75*
G02*
X103760000Y-127435000I150000J0D01*
G01*
X105060000Y-127435000D01*
G75*
G02*
X105210000Y-127585000I0J-150000D01*
G01*
G37*
%TD.AperFunction*%
%TO.P,U6,4*%
%TO.N,GND*%
%TA.AperFunction,SMDPad,CuDef*%
G36*
G01*
X112410000Y-127585000D02*
X112410000Y-127885000D01*
G75*
G02*
X112260000Y-128035000I-150000J0D01*
G01*
X110960000Y-128035000D01*
G75*
G02*
X110810000Y-127885000I0J150000D01*
G01*
X110810000Y-127585000D01*
G75*
G02*
X110960000Y-127435000I150000J0D01*
G01*
X112260000Y-127435000D01*
G75*
G02*
X112410000Y-127585000I0J-150000D01*
G01*
G37*
%TD.AperFunction*%
%TO.P,U6,3*%
%TO.N,Net-(U6-Pad3)*%
%TA.AperFunction,SMDPad,CuDef*%
G36*
G01*
X112410000Y-126315000D02*
X112410000Y-126615000D01*
G75*
G02*
X112260000Y-126765000I-150000J0D01*
G01*
X110960000Y-126765000D01*
G75*
G02*
X110810000Y-126615000I0J150000D01*
G01*
X110810000Y-126315000D01*
G75*
G02*
X110960000Y-126165000I150000J0D01*
G01*
X112260000Y-126165000D01*
G75*
G02*
X112410000Y-126315000I0J-150000D01*
G01*
G37*
%TD.AperFunction*%
%TO.P,U6,2*%
%TO.N,/B4_MISO*%
%TA.AperFunction,SMDPad,CuDef*%
G36*
G01*
X112410000Y-125045000D02*
X112410000Y-125345000D01*
G75*
G02*
X112260000Y-125495000I-150000J0D01*
G01*
X110960000Y-125495000D01*
G75*
G02*
X110810000Y-125345000I0J150000D01*
G01*
X110810000Y-125045000D01*
G75*
G02*
X110960000Y-124895000I150000J0D01*
G01*
X112260000Y-124895000D01*
G75*
G02*
X112410000Y-125045000I0J-150000D01*
G01*
G37*
%TD.AperFunction*%
%TO.P,U6,1*%
%TO.N,/B12_FLASH_CS*%
%TA.AperFunction,SMDPad,CuDef*%
G36*
G01*
X112410000Y-123775000D02*
X112410000Y-124075000D01*
G75*
G02*
X112260000Y-124225000I-150000J0D01*
G01*
X110960000Y-124225000D01*
G75*
G02*
X110810000Y-124075000I0J150000D01*
G01*
X110810000Y-123775000D01*
G75*
G02*
X110960000Y-123625000I150000J0D01*
G01*
X112260000Y-123625000D01*
G75*
G02*
X112410000Y-123775000I0J-150000D01*
G01*
G37*
%TD.AperFunction*%
%TD*%
%TO.P,C5,2*%
%TO.N,GND*%
%TA.AperFunction,SMDPad,CuDef*%
G36*
G01*
X109850000Y-122317500D02*
X109850000Y-122662500D01*
G75*
G02*
X109702500Y-122810000I-147500J0D01*
G01*
X109407500Y-122810000D01*
G75*
G02*
X109260000Y-122662500I0J147500D01*
G01*
X109260000Y-122317500D01*
G75*
G02*
X109407500Y-122170000I147500J0D01*
G01*
X109702500Y-122170000D01*
G75*
G02*
X109850000Y-122317500I0J-147500D01*
G01*
G37*
%TD.AperFunction*%
%TO.P,C5,1*%
%TO.N,+3V3*%
%TA.AperFunction,SMDPad,CuDef*%
G36*
G01*
X110820000Y-122317500D02*
X110820000Y-122662500D01*
G75*
G02*
X110672500Y-122810000I-147500J0D01*
G01*
X110377500Y-122810000D01*
G75*
G02*
X110230000Y-122662500I0J147500D01*
G01*
X110230000Y-122317500D01*
G75*
G02*
X110377500Y-122170000I147500J0D01*
G01*
X110672500Y-122170000D01*
G75*
G02*
X110820000Y-122317500I0J-147500D01*
G01*
G37*
%TD.AperFunction*%
%TD*%
D15*
%TO.P,J15,1*%
%TO.N,/BOOT0*%
X106410000Y-118922000D03*
%TD*%
%TO.P,J16,1*%
%TO.N,/NRST*%
X108281000Y-121436000D03*
%TD*%
%TO.P,J14,1*%
%TO.N,/B2*%
X109995000Y-117938000D03*
%TD*%
D19*
%TO.N,GND*%
X113463000Y-111466000D03*
X101821000Y-102049000D03*
X113358000Y-100082000D03*
D20*
X106364000Y-106197000D03*
D19*
X109438000Y-122625000D03*
X111341000Y-122625000D03*
X109468000Y-121056000D03*
X105619000Y-110824000D03*
D21*
X102681784Y-108250856D03*
X113878955Y-110795454D03*
X114199761Y-116483619D03*
D19*
X101959000Y-113925000D03*
X113356000Y-102029000D03*
X111973168Y-115634990D03*
X103994000Y-116978000D03*
X112426990Y-123150000D03*
X106496761Y-122615239D03*
X106825000Y-124136000D03*
X106858000Y-125479000D03*
X108213000Y-125524000D03*
X104809000Y-106488000D03*
X103545000Y-106066000D03*
X110870000Y-102605000D03*
X104370000Y-102688000D03*
D20*
X103665309Y-103763691D03*
D19*
X102383010Y-111367990D03*
X101833019Y-100268916D03*
X104116202Y-120346202D03*
D20*
X112051988Y-109880000D03*
D19*
X108190000Y-124310000D03*
D21*
X110250000Y-127740000D03*
D19*
X105520000Y-126250000D03*
X105480000Y-127210000D03*
X105520000Y-113690000D03*
D21*
X103174436Y-115028510D03*
X101777172Y-119875929D03*
D20*
%TO.N,+5V*%
X114373000Y-98687000D03*
X111870000Y-107200000D03*
D19*
%TO.N,+3V3*%
X113317000Y-125676000D03*
D21*
X110400000Y-123368000D03*
X109663000Y-126436002D03*
D20*
X112636133Y-113460933D03*
D21*
X105398000Y-122757000D03*
D19*
X103353000Y-111368000D03*
D20*
X112830000Y-109130000D03*
D19*
X108188078Y-112750000D03*
D20*
%TO.N,Net-(D1-Pad2)*%
X110430000Y-105467000D03*
D21*
X108075768Y-111367469D03*
%TO.N,VBUS*%
X110226356Y-110817020D03*
X109120000Y-106420000D03*
D19*
%TO.N,/A3*%
X112262863Y-121873863D03*
%TO.N,Net-(J3-PadA5)*%
X113352000Y-101090000D03*
X108870000Y-102225000D03*
%TO.N,Net-(J3-PadB5)*%
X105870000Y-102225000D03*
X101821000Y-101079000D03*
%TO.N,/NRST*%
X108972000Y-121585000D03*
X113477030Y-123147637D03*
%TO.N,/BOOT0*%
X105589000Y-118638000D03*
X103626000Y-116315000D03*
%TO.N,/B0*%
X112402000Y-118140000D03*
X103280000Y-126890000D03*
%TO.N,/B1*%
X111899000Y-117640000D03*
%TO.N,/B2*%
X112405000Y-117141000D03*
X113443637Y-120733363D03*
X113611000Y-118916000D03*
X102160000Y-116314000D03*
X101521058Y-114763337D03*
%TO.N,/B7*%
X104989000Y-118140000D03*
X101480000Y-102910000D03*
X102350000Y-102670000D03*
X102520000Y-98990000D03*
D21*
X101140000Y-108670000D03*
D19*
%TO.N,/B6*%
X105574000Y-117640000D03*
X104090000Y-118400000D03*
X101024479Y-109410000D03*
X101024479Y-111370655D03*
D21*
X103120980Y-120790457D03*
D22*
%TO.N,/A10*%
X106434000Y-110176000D03*
D19*
X109460000Y-112840000D03*
%TO.N,/B13*%
X110971000Y-114706000D03*
%TO.N,/B9*%
X100625086Y-111392893D03*
%TO.N,/B15*%
X109971000Y-114705000D03*
%TO.N,/B8*%
X104992000Y-119139000D03*
%TO.N,/B14*%
X110471000Y-114180000D03*
%TO.N,/A2*%
X111471000Y-121507000D03*
%TO.N,/DFU*%
X113272000Y-125040000D03*
D22*
X114756000Y-114041000D03*
X113623451Y-113358549D03*
D19*
X114710243Y-119068635D03*
%TO.N,/B10*%
X111908000Y-116640000D03*
X100956000Y-116573000D03*
X103890000Y-114400014D03*
D21*
%TO.N,/A15*%
X101822000Y-97440000D03*
D19*
X105230000Y-115604480D03*
D21*
%TO.N,Net-(C12-Pad1)*%
X113359000Y-98304000D03*
X101081133Y-98877986D03*
X102841490Y-117148510D03*
X102911515Y-118302532D03*
D19*
X110330000Y-127170000D03*
X109000000Y-127690000D03*
D21*
X113430000Y-127170000D03*
D19*
%TO.N,/VBUS_DET*%
X111507000Y-112408000D03*
%TO.N,Net-(D3-Pad-)*%
X101504969Y-122852294D03*
X101798069Y-115659441D03*
D21*
%TO.N,Net-(D5-Pad1)*%
X103522000Y-108291000D03*
X105107000Y-108774000D03*
D19*
X110700000Y-112300000D03*
D21*
%TO.N,/A10_5V*%
X109565743Y-110891954D03*
D19*
%TO.N,/A8*%
X109471000Y-114209000D03*
X101789947Y-120390000D03*
%TO.N,/A4*%
X111969000Y-120139000D03*
%TO.N,/A6*%
X113506000Y-118201000D03*
%TO.N,/A7*%
X111914000Y-118641000D03*
%TO.N,/A0_FRAM_CS*%
X110474000Y-121490000D03*
X106330000Y-111180000D03*
X108220000Y-113350000D03*
X104460000Y-115850000D03*
X104640000Y-114190000D03*
%TO.N,/B3_SCK*%
X101840000Y-125940000D03*
X104410000Y-126465000D03*
X108660000Y-113240000D03*
X104427024Y-116310000D03*
%TO.N,/B4_MISO*%
X106940000Y-107770000D03*
X106849363Y-111270637D03*
X105284508Y-116640000D03*
D21*
%TO.N,/B12_FLASH_CS*%
X112692000Y-114284000D03*
D19*
%TO.N,/B5_MOSI*%
X104994000Y-117140000D03*
D21*
X103103000Y-122524000D03*
X103320000Y-118780000D03*
D19*
X109490000Y-113370000D03*
%TO.N,Net-(Q2-Pad6)*%
X113482000Y-121666000D03*
X101838000Y-116959000D03*
X111928000Y-121096000D03*
%TO.N,/PD2*%
X100650000Y-101060002D03*
%TD*%
D23*
%TO.N,GND*%
X111901988Y-109730000D02*
X112051988Y-109880000D01*
X111170000Y-109730000D02*
X111901988Y-109730000D01*
D24*
X110710000Y-109730000D02*
X111170000Y-109730000D01*
X110100000Y-109120000D02*
X110710000Y-109730000D01*
X110100000Y-107840000D02*
X110100000Y-109120000D01*
D25*
X111610000Y-127735000D02*
X110243726Y-127735000D01*
X110245000Y-127735000D02*
X110250000Y-127740000D01*
X110243726Y-127735000D02*
X110245000Y-127735000D01*
D26*
X111370000Y-109198012D02*
X112051988Y-109880000D01*
X111370000Y-109155000D02*
X111370000Y-109198012D01*
D25*
%TO.N,+5V*%
X112603001Y-103819999D02*
X112055999Y-103819999D01*
X113939999Y-102483001D02*
X112603001Y-103819999D01*
X111379999Y-106709999D02*
X111870000Y-107200000D01*
X111379999Y-104495999D02*
X111379999Y-106709999D01*
X113939999Y-101915999D02*
X113939999Y-102483001D01*
X112055999Y-103819999D02*
X111379999Y-104495999D01*
X114373000Y-101482998D02*
X113939999Y-101915999D01*
X114373000Y-98687000D02*
X114373000Y-101482998D01*
%TO.N,+3V3*%
X110375000Y-123393000D02*
X110400000Y-123368000D01*
X112636133Y-111641133D02*
X112636133Y-113460933D01*
X112636133Y-113460933D02*
X112579067Y-113460933D01*
X112579067Y-113460933D02*
X112012000Y-114028000D01*
X112012000Y-114028000D02*
X112012000Y-114539000D01*
X113065000Y-115592000D02*
X113065000Y-116589000D01*
X112012000Y-114539000D02*
X113065000Y-115592000D01*
X109402867Y-111641133D02*
X112636133Y-111641133D01*
D27*
X112983999Y-119379999D02*
X112983999Y-116670001D01*
X112983999Y-116670001D02*
X113065000Y-116589000D01*
D28*
X112983999Y-119379999D02*
X112877020Y-119486978D01*
X112877020Y-119486978D02*
X112877020Y-120510128D01*
X112877020Y-120510128D02*
X112843628Y-120543520D01*
X112843628Y-121017252D02*
X112951991Y-121125615D01*
X112843628Y-120543520D02*
X112843628Y-121017252D01*
D25*
X105916000Y-123275000D02*
X105398000Y-122757000D01*
D26*
X103361000Y-111360000D02*
X103353000Y-111368000D01*
X105530000Y-111360000D02*
X103361000Y-111360000D01*
X106144000Y-111974000D02*
X105530000Y-111360000D01*
X106403000Y-111974000D02*
X106144000Y-111974000D01*
D25*
X112636133Y-111641133D02*
X112880001Y-111397265D01*
X112880001Y-111397265D02*
X112880001Y-109451031D01*
D26*
X109070000Y-111974000D02*
X109402867Y-111641133D01*
X107660000Y-112990000D02*
X107560000Y-113090000D01*
X107660000Y-112780000D02*
X107660000Y-112990000D01*
X107690000Y-112750000D02*
X107660000Y-112780000D01*
X108188078Y-112750000D02*
X107690000Y-112750000D01*
D24*
X108830000Y-107510000D02*
X108830000Y-107840000D01*
X109700000Y-106640000D02*
X108830000Y-107510000D01*
X110540000Y-106640000D02*
X109700000Y-106640000D01*
X110890000Y-106990000D02*
X110540000Y-106640000D01*
X111170000Y-107505156D02*
X110890000Y-107225156D01*
X110890000Y-107225156D02*
X110890000Y-106990000D01*
D25*
X105916000Y-123275000D02*
X106355000Y-123275000D01*
X110177990Y-123590010D02*
X110400000Y-123368000D01*
X106355000Y-123275000D02*
X106670010Y-123590010D01*
X106670010Y-123590010D02*
X107439990Y-123590010D01*
D23*
X109663000Y-123623020D02*
X109629990Y-123590010D01*
D25*
X109629990Y-123590010D02*
X110177990Y-123590010D01*
D23*
X109663000Y-126436002D02*
X109663000Y-123623020D01*
D25*
X107439990Y-123590010D02*
X109629990Y-123590010D01*
D23*
X113317000Y-125676000D02*
X113096000Y-125676000D01*
X113096000Y-125676000D02*
X112826500Y-125406500D01*
D25*
X110543010Y-123224990D02*
X111555010Y-123224990D01*
X110400000Y-123368000D02*
X110543010Y-123224990D01*
X111555010Y-123224990D02*
X112155001Y-122624999D01*
X112951991Y-122381991D02*
X112951991Y-121125615D01*
X112708983Y-122624999D02*
X112951991Y-122381991D01*
X112155001Y-122624999D02*
X112708983Y-122624999D01*
D23*
X112826500Y-125406500D02*
X112826500Y-125046500D01*
X111038920Y-124668002D02*
X110177990Y-123807072D01*
X112448002Y-124668002D02*
X111038920Y-124668002D01*
X110177990Y-123807072D02*
X110177990Y-123590010D01*
X112826500Y-125046500D02*
X112448002Y-124668002D01*
D25*
X104410000Y-123925000D02*
X104410000Y-123290000D01*
X104943000Y-122757000D02*
X105398000Y-122757000D01*
X104410000Y-123290000D02*
X104943000Y-122757000D01*
D26*
X110525000Y-123243000D02*
X110400000Y-123368000D01*
X110525000Y-122490000D02*
X110525000Y-123243000D01*
X106290000Y-112120000D02*
X106144000Y-111974000D01*
X106290000Y-113090000D02*
X106290000Y-112120000D01*
X107560000Y-113090000D02*
X107560000Y-112020000D01*
X107560000Y-112020000D02*
X107606000Y-111974000D01*
X107606000Y-111974000D02*
X109070000Y-111974000D01*
X106144000Y-111974000D02*
X107606000Y-111974000D01*
X111885000Y-108185000D02*
X112830000Y-109130000D01*
X111370000Y-108185000D02*
X111885000Y-108185000D01*
X111370000Y-107705156D02*
X111170000Y-107505156D01*
X111370000Y-108185000D02*
X111370000Y-107705156D01*
D23*
%TO.N,/NRST*%
X108430000Y-121585000D02*
X108281000Y-121436000D01*
X108972000Y-121585000D02*
X108430000Y-121585000D01*
D28*
%TO.N,/BOOT0*%
X105589000Y-118638000D02*
X105508000Y-118638000D01*
D23*
X106126000Y-118638000D02*
X106410000Y-118922000D01*
X105589000Y-118638000D02*
X106126000Y-118638000D01*
D28*
%TO.N,/B0*%
X112402000Y-118140000D02*
X112398000Y-118140000D01*
D23*
X112366510Y-120400490D02*
X112366510Y-121291490D01*
X112402000Y-118140000D02*
X112438510Y-118176510D01*
X112438510Y-118176510D02*
X112438510Y-120328490D01*
X112366510Y-121291490D02*
X112125437Y-121532563D01*
X112438510Y-120328490D02*
X112366510Y-120400490D01*
X104703510Y-122176490D02*
X103280000Y-123600000D01*
X103280000Y-123600000D02*
X103280000Y-126890000D01*
X108963510Y-122176490D02*
X108973510Y-122176490D01*
X108963510Y-122176490D02*
X104703510Y-122176490D01*
X112125435Y-121532565D02*
X112366510Y-121291490D01*
X111712490Y-121945510D02*
X112125435Y-121532565D01*
X109194490Y-121945510D02*
X111712490Y-121945510D01*
X108963510Y-122176490D02*
X109194490Y-121945510D01*
D28*
%TO.N,/B1*%
X111899000Y-117640000D02*
X111909000Y-117640000D01*
%TO.N,/B2*%
X113452885Y-120724115D02*
X113443637Y-120733363D01*
X113452885Y-120721885D02*
X113452885Y-120724115D01*
D23*
X113443637Y-120733363D02*
X113443637Y-119682363D01*
X113611000Y-119515000D02*
X113611000Y-118916000D01*
X113443637Y-119682363D02*
X113611000Y-119515000D01*
D28*
X113611000Y-118916000D02*
X113611000Y-118972000D01*
D23*
X109995000Y-117147000D02*
X110001000Y-117141000D01*
X109995000Y-117938000D02*
X109995000Y-117147000D01*
X112405000Y-117141000D02*
X110001000Y-117141000D01*
D28*
X112405000Y-117141000D02*
X112318000Y-117141000D01*
X101475000Y-114736000D02*
X101502337Y-114763337D01*
X101502337Y-114763337D02*
X101521058Y-114763337D01*
D23*
X109050734Y-117141000D02*
X110001000Y-117141000D01*
X106765284Y-114855550D02*
X109050734Y-117141000D01*
X102231752Y-114590000D02*
X103500000Y-114590000D01*
X102058415Y-114763337D02*
X102231752Y-114590000D01*
X103765550Y-114855550D02*
X106765284Y-114855550D01*
X103500000Y-114590000D02*
X103765550Y-114855550D01*
X101521058Y-114763337D02*
X102058415Y-114763337D01*
%TO.N,/B7*%
X106229000Y-100809000D02*
X106273000Y-100853000D01*
X102350000Y-100910000D02*
X102740000Y-100520000D01*
X105940000Y-100520000D02*
X106273000Y-100853000D01*
X102350000Y-102670000D02*
X102350000Y-100910000D01*
X104990000Y-100520000D02*
X105940000Y-100520000D01*
X102740000Y-100520000D02*
X104990000Y-100520000D01*
X108801000Y-98315000D02*
X108829000Y-98343000D01*
X106110000Y-100690000D02*
X106273000Y-100853000D01*
X108829000Y-98343000D02*
X108829000Y-98251000D01*
X108829000Y-98251000D02*
X108750000Y-98172000D01*
X108750000Y-98172000D02*
X108750000Y-97060000D01*
X108750000Y-97060000D02*
X108120000Y-96430000D01*
X108120000Y-96430000D02*
X105810000Y-96430000D01*
X105810000Y-96430000D02*
X104450000Y-97790000D01*
X104450000Y-97790000D02*
X104450000Y-98191187D01*
X104450000Y-98191187D02*
X103651187Y-98990000D01*
X103651187Y-98990000D02*
X102520000Y-98990000D01*
X101480000Y-102910000D02*
X101140000Y-103250000D01*
X101140000Y-103250000D02*
X101140000Y-108670000D01*
D28*
%TO.N,/B6*%
X105574000Y-117640000D02*
X105487000Y-117640000D01*
D23*
X105574000Y-117640000D02*
X104796000Y-117640000D01*
X104796000Y-117640000D02*
X104106000Y-118330000D01*
X104106000Y-118330000D02*
X104106000Y-118384000D01*
X104106000Y-118384000D02*
X104090000Y-118400000D01*
X104870000Y-110180000D02*
X104870000Y-109250000D01*
X101644479Y-108790000D02*
X101024479Y-109410000D01*
X104410000Y-108790000D02*
X101644479Y-108790000D01*
X104870000Y-109250000D02*
X104410000Y-108790000D01*
X101024479Y-111464479D02*
X101024479Y-111370655D01*
X102310000Y-112750000D02*
X101024479Y-111464479D01*
X104106000Y-118330000D02*
X104106000Y-119805437D01*
X104106000Y-119805437D02*
X103120980Y-120790457D01*
%TO.N,/B9*%
X104710000Y-111710000D02*
X104910000Y-111910000D01*
X104910000Y-111910000D02*
X104910000Y-112750000D01*
X102970000Y-111560000D02*
X103120000Y-111710000D01*
X102270000Y-110180000D02*
X102270000Y-110550000D01*
X103120000Y-111710000D02*
X104710000Y-111710000D01*
X102970000Y-111250000D02*
X102970000Y-111560000D01*
X102270000Y-110550000D02*
X102970000Y-111250000D01*
X101600000Y-110180000D02*
X100625086Y-111154914D01*
X100625086Y-111154914D02*
X100625086Y-111392893D01*
X102270000Y-110180000D02*
X101600000Y-110180000D01*
D28*
%TO.N,/A2*%
X111471000Y-121507000D02*
X111471000Y-121504000D01*
D23*
%TO.N,/B10*%
X110791991Y-116650009D02*
X111843325Y-116650009D01*
D28*
X111908000Y-116640000D02*
X111853334Y-116640000D01*
X100956000Y-116573000D02*
X100956000Y-116583000D01*
D23*
X101063501Y-120202992D02*
X101063501Y-121796499D01*
X101080999Y-119531368D02*
X101061660Y-119550707D01*
X101080999Y-116697999D02*
X101080999Y-119531368D01*
X100956000Y-116573000D02*
X101080999Y-116697999D01*
X101061660Y-119550707D02*
X101061661Y-120201152D01*
X101061661Y-120201152D02*
X101063501Y-120202992D01*
X101063501Y-121796499D02*
X100000000Y-122860000D01*
X104049986Y-114560000D02*
X103890000Y-114400014D01*
X108701982Y-114560000D02*
X104049986Y-114560000D01*
X110775982Y-116634000D02*
X108701982Y-114560000D01*
%TO.N,/A15*%
X108801000Y-100258000D02*
X108840000Y-100297000D01*
X108829000Y-100809000D02*
X108873000Y-100853000D01*
X108873000Y-100853000D02*
X108873000Y-99783000D01*
X106490000Y-99600000D02*
X106229000Y-99339000D01*
X108873000Y-99783000D02*
X108867498Y-99788502D01*
X108867498Y-99788502D02*
X108460000Y-99788502D01*
X106229000Y-99339000D02*
X106229000Y-98620010D01*
X108460000Y-99788502D02*
X108271498Y-99600000D01*
X108271498Y-99600000D02*
X106490000Y-99600000D01*
X108873000Y-99783000D02*
X109027000Y-99783000D01*
X109027000Y-99783000D02*
X109760000Y-99050000D01*
X109760000Y-97307000D02*
X108265000Y-95812000D01*
X109760000Y-99050000D02*
X109760000Y-97307000D01*
X108265000Y-95812000D02*
X103450000Y-95812000D01*
X103450000Y-95812000D02*
X101822000Y-97440000D01*
D26*
%TO.N,Net-(C12-Pad1)*%
X102854000Y-117221000D02*
X102854000Y-117161020D01*
X102854000Y-117161020D02*
X102841490Y-117148510D01*
D23*
X110330000Y-127170000D02*
X113430000Y-127170000D01*
X102460989Y-121153497D02*
X102682478Y-120932008D01*
X102881498Y-118332549D02*
X102911515Y-118302532D01*
X102834741Y-128262989D02*
X102460989Y-127889237D01*
X102682478Y-120932008D02*
X102682478Y-120507124D01*
X102881498Y-120308104D02*
X102881498Y-118332549D01*
X102682478Y-120507124D02*
X102881498Y-120308104D01*
X102460989Y-127889237D02*
X102460989Y-121153497D01*
X105225259Y-128262989D02*
X102834741Y-128262989D01*
X109000000Y-127690000D02*
X105798248Y-127690000D01*
X105798248Y-127690000D02*
X105225259Y-128262989D01*
D26*
%TO.N,Net-(D5-Pad1)*%
X104624000Y-108291000D02*
X105107000Y-108774000D01*
X103522000Y-108291000D02*
X104624000Y-108291000D01*
D28*
%TO.N,/A8*%
X109471000Y-114209000D02*
X109463000Y-114209000D01*
%TO.N,/A4*%
X112000000Y-120138000D02*
X111964269Y-120138000D01*
D23*
X110531499Y-118701499D02*
X111969000Y-120139000D01*
X108473009Y-118326991D02*
X108847517Y-118701499D01*
X108473009Y-118323009D02*
X108473009Y-118326991D01*
X105282561Y-115132561D02*
X108473009Y-118323009D01*
X103717923Y-115132561D02*
X105282561Y-115132561D01*
X102270000Y-115480000D02*
X103370484Y-115480000D01*
X102030000Y-115240000D02*
X102270000Y-115480000D01*
X108847517Y-118701499D02*
X110531499Y-118701499D01*
X103370484Y-115480000D02*
X103717923Y-115132561D01*
X100000000Y-115240000D02*
X102030000Y-115240000D01*
D28*
%TO.N,/A0_FRAM_CS*%
X110474000Y-121486000D02*
X110478000Y-121490000D01*
D23*
X110474000Y-121486000D02*
X110474000Y-121490000D01*
X106290000Y-107840000D02*
X106290000Y-109630000D01*
X106290000Y-109630000D02*
X106010000Y-109910000D01*
X106010000Y-110860000D02*
X106330000Y-111180000D01*
X106010000Y-109910000D02*
X106010000Y-110860000D01*
X108220000Y-113769082D02*
X107799082Y-114190000D01*
X107799082Y-114190000D02*
X104640000Y-114190000D01*
X108220000Y-113350000D02*
X108220000Y-113769082D01*
X105380000Y-116250000D02*
X104860000Y-116250000D01*
X104860000Y-116250000D02*
X104460000Y-115850000D01*
X110474000Y-121344000D02*
X105380000Y-116250000D01*
X110474000Y-121490000D02*
X110474000Y-121344000D01*
%TO.N,/B3_SCK*%
X108810000Y-113090000D02*
X108660000Y-113240000D01*
X108830000Y-113090000D02*
X108810000Y-113090000D01*
X101904999Y-120915983D02*
X102128457Y-120692525D01*
X102128457Y-120692525D02*
X102128457Y-120277641D01*
X101904999Y-125875001D02*
X101904999Y-120915983D01*
X103108237Y-117587011D02*
X103502018Y-117193230D01*
X102195994Y-117960772D02*
X102569755Y-117587011D01*
X102221927Y-118637151D02*
X102195993Y-118611217D01*
X102195993Y-118611217D02*
X102195994Y-117960772D01*
X104110236Y-116310000D02*
X104427024Y-116310000D01*
X102128457Y-120277641D02*
X102221927Y-120184171D01*
X102221927Y-120184171D02*
X102221927Y-118637151D01*
X102569755Y-117587011D02*
X103108237Y-117587011D01*
X103502018Y-116918218D02*
X104110236Y-116310000D01*
X101840000Y-125940000D02*
X101904999Y-125875001D01*
X103502018Y-117193230D02*
X103502018Y-116918218D01*
%TO.N,/B4_MISO*%
X107490000Y-107770000D02*
X107560000Y-107840000D01*
X106940000Y-107770000D02*
X107490000Y-107770000D01*
X106940000Y-107770000D02*
X106940000Y-111180000D01*
X106940000Y-111180000D02*
X106849363Y-111270637D01*
X102719999Y-128539999D02*
X102183978Y-128003978D01*
X102405467Y-120392383D02*
X102498938Y-120298912D01*
X105950000Y-128050000D02*
X105460000Y-128540000D01*
X102473004Y-118496476D02*
X102473004Y-118075514D01*
X110575000Y-125195000D02*
X110350000Y-125420000D01*
X110350000Y-125420000D02*
X110350000Y-126530000D01*
X110350000Y-126530000D02*
X109620000Y-127260000D01*
X104461489Y-116958363D02*
X104779852Y-116640000D01*
X109620000Y-127260000D02*
X109620000Y-127630000D01*
X105460000Y-128540000D02*
X102719999Y-128539999D01*
X109200000Y-128050000D02*
X105950000Y-128050000D01*
X102183979Y-121038755D02*
X102405467Y-120817267D01*
X102405467Y-120817267D02*
X102405467Y-120392383D01*
X102498938Y-120298912D02*
X102498938Y-118522410D01*
X102498938Y-118522410D02*
X102473004Y-118496476D01*
X104779852Y-116640000D02*
X105284508Y-116640000D01*
X103607469Y-117864022D02*
X104461489Y-117010002D01*
X104461489Y-117010002D02*
X104461489Y-116958363D01*
X102684496Y-117864022D02*
X103607469Y-117864022D01*
X102183978Y-128003978D02*
X102183979Y-121038755D01*
X111610000Y-125195000D02*
X110575000Y-125195000D01*
X102473004Y-118075514D02*
X102684496Y-117864022D01*
X109620000Y-127630000D02*
X109200000Y-128050000D01*
%TO.N,/B12_FLASH_CS*%
X114170000Y-118070018D02*
X113684501Y-117584519D01*
X112165000Y-123925000D02*
X114170000Y-121920000D01*
X113684501Y-117584519D02*
X113684501Y-115276501D01*
X114170000Y-121920000D02*
X114170000Y-118070018D01*
X113684501Y-115276501D02*
X112692000Y-114284000D01*
X111610000Y-123925000D02*
X112165000Y-123925000D01*
%TO.N,/B5_MOSI*%
X103103000Y-122524000D02*
X103103000Y-122822000D01*
X103103000Y-122822000D02*
X102738000Y-123187000D01*
X102738000Y-123187000D02*
X102738000Y-127254000D01*
D28*
X104994000Y-117140000D02*
X104900000Y-117140000D01*
D23*
X104994000Y-117140000D02*
X104724734Y-117140000D01*
X103320000Y-118544734D02*
X103320000Y-118780000D01*
X104724734Y-117140000D02*
X103320000Y-118544734D01*
X103219000Y-127735000D02*
X102738000Y-127254000D01*
X104410000Y-127735000D02*
X103219000Y-127735000D01*
X109820000Y-113370000D02*
X110100000Y-113090000D01*
X109490000Y-113370000D02*
X109820000Y-113370000D01*
D28*
%TO.N,Net-(Q2-Pad6)*%
X101838000Y-116959000D02*
X101838000Y-116963000D01*
X111928000Y-121096000D02*
X111879500Y-121047500D01*
D23*
X110561001Y-120971001D02*
X111803001Y-120971001D01*
X111803001Y-120971001D02*
X111928000Y-121096000D01*
X105560000Y-115970000D02*
X110561001Y-120971001D01*
X103832664Y-115409572D02*
X104509572Y-115409572D01*
X104509572Y-115409572D02*
X105070000Y-115970000D01*
X102283236Y-116959000D02*
X103832664Y-115409572D01*
X105070000Y-115970000D02*
X105560000Y-115970000D01*
X101838000Y-116959000D02*
X102283236Y-116959000D01*
%TO.N,/PD3*%
X100000000Y-100000000D02*
X100024565Y-100024565D01*
X100000000Y-100929016D02*
X100000000Y-100000000D01*
X101818502Y-102747518D02*
X100000000Y-100929016D01*
X103503982Y-104470000D02*
X101818502Y-102784520D01*
X105330000Y-103200000D02*
X104060000Y-104470000D01*
X101818502Y-102784520D02*
X101818502Y-102747518D01*
X106210000Y-103200000D02*
X105330000Y-103200000D01*
X104060000Y-104470000D02*
X103503982Y-104470000D01*
X107573000Y-101837000D02*
X106210000Y-103200000D01*
X107573000Y-100853000D02*
X107573000Y-101837000D01*
%TO.N,/PD2*%
X100391750Y-102540000D02*
X100195875Y-102344125D01*
X107358752Y-97295752D02*
X105336000Y-97295752D01*
X101669585Y-99930415D02*
X100650000Y-100950000D01*
X103681337Y-99930415D02*
X101669585Y-99930415D01*
X105336000Y-97295752D02*
X105336000Y-98275752D01*
X100650000Y-100950000D02*
X100650000Y-101060002D01*
X107529000Y-97466000D02*
X107358752Y-97295752D01*
X105336000Y-98275752D02*
X103681337Y-99930415D01*
X107529000Y-98343000D02*
X107529000Y-97466000D01*
%TO.N,/PD0*%
X100000000Y-112700000D02*
X100090000Y-112700000D01*
X100090000Y-112700000D02*
X101720000Y-114330000D01*
X101720000Y-114330000D02*
X102080000Y-114330000D01*
X102080000Y-114330000D02*
X102530000Y-113880000D01*
X102530000Y-113880000D02*
X103410000Y-113880000D01*
X103610000Y-113680000D02*
X103610000Y-112750000D01*
X103410000Y-113880000D02*
X103610000Y-113680000D01*
%TO.N,/PD1*%
X100000000Y-110160000D02*
X101034348Y-110160000D01*
X101034348Y-110160000D02*
X102127337Y-109067011D01*
X102127337Y-109067011D02*
X103334011Y-109067011D01*
X103334011Y-109067011D02*
X103570000Y-109303000D01*
X103570000Y-109303000D02*
X103570000Y-110180000D01*
%TD*%
M02*
