%TF.GenerationSoftware,KiCad,Pcbnew,(5.1.6-0-10_14)*%
%TF.CreationDate,2022-03-04T18:56:52-06:00*%
%TF.ProjectId,Bonsai_C4,426f6e73-6169-45f4-9334-2e6b69636164,rev?*%
%TF.SameCoordinates,Original*%
%TF.FileFunction,Soldermask,Bot*%
%TF.FilePolarity,Negative*%
%FSLAX46Y46*%
G04 Gerber Fmt 4.6, Leading zero omitted, Abs format (unit mm)*
G04 Created by KiCad (PCBNEW (5.1.6-0-10_14)) date 2022-03-04 18:56:52*
%MOMM*%
%LPD*%
G01*
G04 APERTURE LIST*
%ADD10C,1.800000*%
%ADD11O,1.800000X1.800000*%
%ADD12C,0.100000*%
%ADD13R,1.100000X1.600000*%
%ADD14R,1.100000X1.100000*%
%ADD15O,1.200000X2.300000*%
%ADD16O,1.400000X2.000000*%
%ADD17C,0.750000*%
%ADD18C,2.100000*%
G04 APERTURE END LIST*
%TO.C,C13*%
G36*
G01*
X111172500Y-108810000D02*
X111567500Y-108810000D01*
G75*
G02*
X111740000Y-108982500I0J-172500D01*
G01*
X111740000Y-109327500D01*
G75*
G02*
X111567500Y-109500000I-172500J0D01*
G01*
X111172500Y-109500000D01*
G75*
G02*
X111000000Y-109327500I0J172500D01*
G01*
X111000000Y-108982500D01*
G75*
G02*
X111172500Y-108810000I172500J0D01*
G01*
G37*
G36*
G01*
X111172500Y-107840000D02*
X111567500Y-107840000D01*
G75*
G02*
X111740000Y-108012500I0J-172500D01*
G01*
X111740000Y-108357500D01*
G75*
G02*
X111567500Y-108530000I-172500J0D01*
G01*
X111172500Y-108530000D01*
G75*
G02*
X111000000Y-108357500I0J172500D01*
G01*
X111000000Y-108012500D01*
G75*
G02*
X111172500Y-107840000I172500J0D01*
G01*
G37*
%TD*%
D10*
%TO.C,J4*%
X100000000Y-100000000D03*
D11*
X100000000Y-102540000D03*
X100000000Y-105080000D03*
X100000000Y-112700000D03*
X100000000Y-110160000D03*
D10*
X100000000Y-107620000D03*
X100000000Y-122860000D03*
D11*
X100000000Y-117780000D03*
D10*
X100000000Y-115240000D03*
D11*
X100000000Y-125400000D03*
X100000000Y-127940000D03*
X100000000Y-120320000D03*
%TD*%
D10*
%TO.C,J5*%
X115240000Y-100000000D03*
D11*
X115240000Y-102540000D03*
X115240000Y-105080000D03*
X115240000Y-112700000D03*
X115240000Y-110160000D03*
D10*
X115240000Y-107620000D03*
X115240000Y-122860000D03*
D11*
X115240000Y-117780000D03*
D10*
X115240000Y-115240000D03*
D11*
X115240000Y-125400000D03*
X115240000Y-127940000D03*
X115240000Y-120320000D03*
%TD*%
%TO.C,J1*%
X102540000Y-105080000D03*
X105080000Y-105080000D03*
D10*
X107620000Y-105080000D03*
%TD*%
%TO.C,J2*%
X112680000Y-105120000D03*
%TD*%
D12*
%TO.C,JP4*%
G36*
X102869755Y-111950961D02*
G01*
X102879134Y-111953806D01*
X102887779Y-111958427D01*
X102895355Y-111964645D01*
X102901573Y-111972221D01*
X102906194Y-111980866D01*
X102909039Y-111990245D01*
X102910000Y-112000000D01*
X102910000Y-113500000D01*
X102909039Y-113509755D01*
X102906194Y-113519134D01*
X102901573Y-113527779D01*
X102895355Y-113535355D01*
X102887779Y-113541573D01*
X102879134Y-113546194D01*
X102869755Y-113549039D01*
X102860000Y-113550000D01*
X102310000Y-113550000D01*
X102303889Y-113549398D01*
X102285466Y-113549398D01*
X102280565Y-113549157D01*
X102231734Y-113544347D01*
X102226881Y-113543627D01*
X102178756Y-113534055D01*
X102173995Y-113532863D01*
X102127040Y-113518619D01*
X102122421Y-113516966D01*
X102077088Y-113498189D01*
X102072651Y-113496091D01*
X102029378Y-113472960D01*
X102025171Y-113470438D01*
X101984372Y-113443178D01*
X101980430Y-113440254D01*
X101942501Y-113409126D01*
X101938866Y-113405831D01*
X101904169Y-113371134D01*
X101900874Y-113367499D01*
X101869746Y-113329570D01*
X101866822Y-113325628D01*
X101839562Y-113284829D01*
X101837040Y-113280622D01*
X101813909Y-113237349D01*
X101811811Y-113232912D01*
X101793034Y-113187579D01*
X101791381Y-113182960D01*
X101777137Y-113136005D01*
X101775945Y-113131244D01*
X101766373Y-113083119D01*
X101765653Y-113078266D01*
X101760843Y-113029435D01*
X101760602Y-113024534D01*
X101760602Y-113006111D01*
X101760000Y-113000000D01*
X101760000Y-112500000D01*
X101760602Y-112493889D01*
X101760602Y-112475466D01*
X101760843Y-112470565D01*
X101765653Y-112421734D01*
X101766373Y-112416881D01*
X101775945Y-112368756D01*
X101777137Y-112363995D01*
X101791381Y-112317040D01*
X101793034Y-112312421D01*
X101811811Y-112267088D01*
X101813909Y-112262651D01*
X101837040Y-112219378D01*
X101839562Y-112215171D01*
X101866822Y-112174372D01*
X101869746Y-112170430D01*
X101900874Y-112132501D01*
X101904169Y-112128866D01*
X101938866Y-112094169D01*
X101942501Y-112090874D01*
X101980430Y-112059746D01*
X101984372Y-112056822D01*
X102025171Y-112029562D01*
X102029378Y-112027040D01*
X102072651Y-112003909D01*
X102077088Y-112001811D01*
X102122421Y-111983034D01*
X102127040Y-111981381D01*
X102173995Y-111967137D01*
X102178756Y-111965945D01*
X102226881Y-111956373D01*
X102231734Y-111955653D01*
X102280565Y-111950843D01*
X102285466Y-111950602D01*
X102303889Y-111950602D01*
X102310000Y-111950000D01*
X102860000Y-111950000D01*
X102869755Y-111950961D01*
G37*
D13*
X103610000Y-112750000D03*
D12*
G36*
X104916111Y-111950602D02*
G01*
X104934534Y-111950602D01*
X104939435Y-111950843D01*
X104988266Y-111955653D01*
X104993119Y-111956373D01*
X105041244Y-111965945D01*
X105046005Y-111967137D01*
X105092960Y-111981381D01*
X105097579Y-111983034D01*
X105142912Y-112001811D01*
X105147349Y-112003909D01*
X105190622Y-112027040D01*
X105194829Y-112029562D01*
X105235628Y-112056822D01*
X105239570Y-112059746D01*
X105277499Y-112090874D01*
X105281134Y-112094169D01*
X105315831Y-112128866D01*
X105319126Y-112132501D01*
X105350254Y-112170430D01*
X105353178Y-112174372D01*
X105380438Y-112215171D01*
X105382960Y-112219378D01*
X105406091Y-112262651D01*
X105408189Y-112267088D01*
X105426966Y-112312421D01*
X105428619Y-112317040D01*
X105442863Y-112363995D01*
X105444055Y-112368756D01*
X105453627Y-112416881D01*
X105454347Y-112421734D01*
X105459157Y-112470565D01*
X105459398Y-112475466D01*
X105459398Y-112493889D01*
X105460000Y-112500000D01*
X105460000Y-113000000D01*
X105459398Y-113006111D01*
X105459398Y-113024534D01*
X105459157Y-113029435D01*
X105454347Y-113078266D01*
X105453627Y-113083119D01*
X105444055Y-113131244D01*
X105442863Y-113136005D01*
X105428619Y-113182960D01*
X105426966Y-113187579D01*
X105408189Y-113232912D01*
X105406091Y-113237349D01*
X105382960Y-113280622D01*
X105380438Y-113284829D01*
X105353178Y-113325628D01*
X105350254Y-113329570D01*
X105319126Y-113367499D01*
X105315831Y-113371134D01*
X105281134Y-113405831D01*
X105277499Y-113409126D01*
X105239570Y-113440254D01*
X105235628Y-113443178D01*
X105194829Y-113470438D01*
X105190622Y-113472960D01*
X105147349Y-113496091D01*
X105142912Y-113498189D01*
X105097579Y-113516966D01*
X105092960Y-113518619D01*
X105046005Y-113532863D01*
X105041244Y-113534055D01*
X104993119Y-113543627D01*
X104988266Y-113544347D01*
X104939435Y-113549157D01*
X104934534Y-113549398D01*
X104916111Y-113549398D01*
X104910000Y-113550000D01*
X104360000Y-113550000D01*
X104350245Y-113549039D01*
X104340866Y-113546194D01*
X104332221Y-113541573D01*
X104324645Y-113535355D01*
X104318427Y-113527779D01*
X104313806Y-113519134D01*
X104310961Y-113509755D01*
X104310000Y-113500000D01*
X104310000Y-112000000D01*
X104310961Y-111990245D01*
X104313806Y-111980866D01*
X104318427Y-111972221D01*
X104324645Y-111964645D01*
X104332221Y-111958427D01*
X104340866Y-111953806D01*
X104350245Y-111950961D01*
X104360000Y-111950000D01*
X104910000Y-111950000D01*
X104916111Y-111950602D01*
G37*
%TD*%
%TO.C,JP3*%
G36*
X102829755Y-109380961D02*
G01*
X102839134Y-109383806D01*
X102847779Y-109388427D01*
X102855355Y-109394645D01*
X102861573Y-109402221D01*
X102866194Y-109410866D01*
X102869039Y-109420245D01*
X102870000Y-109430000D01*
X102870000Y-110930000D01*
X102869039Y-110939755D01*
X102866194Y-110949134D01*
X102861573Y-110957779D01*
X102855355Y-110965355D01*
X102847779Y-110971573D01*
X102839134Y-110976194D01*
X102829755Y-110979039D01*
X102820000Y-110980000D01*
X102270000Y-110980000D01*
X102263889Y-110979398D01*
X102245466Y-110979398D01*
X102240565Y-110979157D01*
X102191734Y-110974347D01*
X102186881Y-110973627D01*
X102138756Y-110964055D01*
X102133995Y-110962863D01*
X102087040Y-110948619D01*
X102082421Y-110946966D01*
X102037088Y-110928189D01*
X102032651Y-110926091D01*
X101989378Y-110902960D01*
X101985171Y-110900438D01*
X101944372Y-110873178D01*
X101940430Y-110870254D01*
X101902501Y-110839126D01*
X101898866Y-110835831D01*
X101864169Y-110801134D01*
X101860874Y-110797499D01*
X101829746Y-110759570D01*
X101826822Y-110755628D01*
X101799562Y-110714829D01*
X101797040Y-110710622D01*
X101773909Y-110667349D01*
X101771811Y-110662912D01*
X101753034Y-110617579D01*
X101751381Y-110612960D01*
X101737137Y-110566005D01*
X101735945Y-110561244D01*
X101726373Y-110513119D01*
X101725653Y-110508266D01*
X101720843Y-110459435D01*
X101720602Y-110454534D01*
X101720602Y-110436111D01*
X101720000Y-110430000D01*
X101720000Y-109930000D01*
X101720602Y-109923889D01*
X101720602Y-109905466D01*
X101720843Y-109900565D01*
X101725653Y-109851734D01*
X101726373Y-109846881D01*
X101735945Y-109798756D01*
X101737137Y-109793995D01*
X101751381Y-109747040D01*
X101753034Y-109742421D01*
X101771811Y-109697088D01*
X101773909Y-109692651D01*
X101797040Y-109649378D01*
X101799562Y-109645171D01*
X101826822Y-109604372D01*
X101829746Y-109600430D01*
X101860874Y-109562501D01*
X101864169Y-109558866D01*
X101898866Y-109524169D01*
X101902501Y-109520874D01*
X101940430Y-109489746D01*
X101944372Y-109486822D01*
X101985171Y-109459562D01*
X101989378Y-109457040D01*
X102032651Y-109433909D01*
X102037088Y-109431811D01*
X102082421Y-109413034D01*
X102087040Y-109411381D01*
X102133995Y-109397137D01*
X102138756Y-109395945D01*
X102186881Y-109386373D01*
X102191734Y-109385653D01*
X102240565Y-109380843D01*
X102245466Y-109380602D01*
X102263889Y-109380602D01*
X102270000Y-109380000D01*
X102820000Y-109380000D01*
X102829755Y-109380961D01*
G37*
D13*
X103570000Y-110180000D03*
D12*
G36*
X104876111Y-109380602D02*
G01*
X104894534Y-109380602D01*
X104899435Y-109380843D01*
X104948266Y-109385653D01*
X104953119Y-109386373D01*
X105001244Y-109395945D01*
X105006005Y-109397137D01*
X105052960Y-109411381D01*
X105057579Y-109413034D01*
X105102912Y-109431811D01*
X105107349Y-109433909D01*
X105150622Y-109457040D01*
X105154829Y-109459562D01*
X105195628Y-109486822D01*
X105199570Y-109489746D01*
X105237499Y-109520874D01*
X105241134Y-109524169D01*
X105275831Y-109558866D01*
X105279126Y-109562501D01*
X105310254Y-109600430D01*
X105313178Y-109604372D01*
X105340438Y-109645171D01*
X105342960Y-109649378D01*
X105366091Y-109692651D01*
X105368189Y-109697088D01*
X105386966Y-109742421D01*
X105388619Y-109747040D01*
X105402863Y-109793995D01*
X105404055Y-109798756D01*
X105413627Y-109846881D01*
X105414347Y-109851734D01*
X105419157Y-109900565D01*
X105419398Y-109905466D01*
X105419398Y-109923889D01*
X105420000Y-109930000D01*
X105420000Y-110430000D01*
X105419398Y-110436111D01*
X105419398Y-110454534D01*
X105419157Y-110459435D01*
X105414347Y-110508266D01*
X105413627Y-110513119D01*
X105404055Y-110561244D01*
X105402863Y-110566005D01*
X105388619Y-110612960D01*
X105386966Y-110617579D01*
X105368189Y-110662912D01*
X105366091Y-110667349D01*
X105342960Y-110710622D01*
X105340438Y-110714829D01*
X105313178Y-110755628D01*
X105310254Y-110759570D01*
X105279126Y-110797499D01*
X105275831Y-110801134D01*
X105241134Y-110835831D01*
X105237499Y-110839126D01*
X105199570Y-110870254D01*
X105195628Y-110873178D01*
X105154829Y-110900438D01*
X105150622Y-110902960D01*
X105107349Y-110926091D01*
X105102912Y-110928189D01*
X105057579Y-110946966D01*
X105052960Y-110948619D01*
X105006005Y-110962863D01*
X105001244Y-110964055D01*
X104953119Y-110973627D01*
X104948266Y-110974347D01*
X104899435Y-110979157D01*
X104894534Y-110979398D01*
X104876111Y-110979398D01*
X104870000Y-110980000D01*
X104320000Y-110980000D01*
X104310245Y-110979039D01*
X104300866Y-110976194D01*
X104292221Y-110971573D01*
X104284645Y-110965355D01*
X104278427Y-110957779D01*
X104273806Y-110949134D01*
X104270961Y-110939755D01*
X104270000Y-110930000D01*
X104270000Y-109430000D01*
X104270961Y-109420245D01*
X104273806Y-109410866D01*
X104278427Y-109402221D01*
X104284645Y-109394645D01*
X104292221Y-109388427D01*
X104300866Y-109383806D01*
X104310245Y-109380961D01*
X104320000Y-109380000D01*
X104870000Y-109380000D01*
X104876111Y-109380602D01*
G37*
%TD*%
D14*
%TO.C,J8*%
X111500000Y-112730000D03*
%TD*%
D15*
%TO.C,J3*%
X103320000Y-102000000D03*
D16*
X103320000Y-97800000D03*
D17*
X104730000Y-101449000D03*
X110510000Y-101449000D03*
D16*
X111920000Y-97800000D03*
D15*
X111920000Y-102000000D03*
%TD*%
D12*
%TO.C,JP1*%
G36*
X106788755Y-97543961D02*
G01*
X106798134Y-97546806D01*
X106806779Y-97551427D01*
X106814355Y-97557645D01*
X106820573Y-97565221D01*
X106825194Y-97573866D01*
X106828039Y-97583245D01*
X106829000Y-97593000D01*
X106829000Y-99093000D01*
X106828039Y-99102755D01*
X106825194Y-99112134D01*
X106820573Y-99120779D01*
X106814355Y-99128355D01*
X106806779Y-99134573D01*
X106798134Y-99139194D01*
X106788755Y-99142039D01*
X106779000Y-99143000D01*
X106229000Y-99143000D01*
X106222889Y-99142398D01*
X106204466Y-99142398D01*
X106199565Y-99142157D01*
X106150734Y-99137347D01*
X106145881Y-99136627D01*
X106097756Y-99127055D01*
X106092995Y-99125863D01*
X106046040Y-99111619D01*
X106041421Y-99109966D01*
X105996088Y-99091189D01*
X105991651Y-99089091D01*
X105948378Y-99065960D01*
X105944171Y-99063438D01*
X105903372Y-99036178D01*
X105899430Y-99033254D01*
X105861501Y-99002126D01*
X105857866Y-98998831D01*
X105823169Y-98964134D01*
X105819874Y-98960499D01*
X105788746Y-98922570D01*
X105785822Y-98918628D01*
X105758562Y-98877829D01*
X105756040Y-98873622D01*
X105732909Y-98830349D01*
X105730811Y-98825912D01*
X105712034Y-98780579D01*
X105710381Y-98775960D01*
X105696137Y-98729005D01*
X105694945Y-98724244D01*
X105685373Y-98676119D01*
X105684653Y-98671266D01*
X105679843Y-98622435D01*
X105679602Y-98617534D01*
X105679602Y-98599111D01*
X105679000Y-98593000D01*
X105679000Y-98093000D01*
X105679602Y-98086889D01*
X105679602Y-98068466D01*
X105679843Y-98063565D01*
X105684653Y-98014734D01*
X105685373Y-98009881D01*
X105694945Y-97961756D01*
X105696137Y-97956995D01*
X105710381Y-97910040D01*
X105712034Y-97905421D01*
X105730811Y-97860088D01*
X105732909Y-97855651D01*
X105756040Y-97812378D01*
X105758562Y-97808171D01*
X105785822Y-97767372D01*
X105788746Y-97763430D01*
X105819874Y-97725501D01*
X105823169Y-97721866D01*
X105857866Y-97687169D01*
X105861501Y-97683874D01*
X105899430Y-97652746D01*
X105903372Y-97649822D01*
X105944171Y-97622562D01*
X105948378Y-97620040D01*
X105991651Y-97596909D01*
X105996088Y-97594811D01*
X106041421Y-97576034D01*
X106046040Y-97574381D01*
X106092995Y-97560137D01*
X106097756Y-97558945D01*
X106145881Y-97549373D01*
X106150734Y-97548653D01*
X106199565Y-97543843D01*
X106204466Y-97543602D01*
X106222889Y-97543602D01*
X106229000Y-97543000D01*
X106779000Y-97543000D01*
X106788755Y-97543961D01*
G37*
D13*
X107529000Y-98343000D03*
D12*
G36*
X108835111Y-97543602D02*
G01*
X108853534Y-97543602D01*
X108858435Y-97543843D01*
X108907266Y-97548653D01*
X108912119Y-97549373D01*
X108960244Y-97558945D01*
X108965005Y-97560137D01*
X109011960Y-97574381D01*
X109016579Y-97576034D01*
X109061912Y-97594811D01*
X109066349Y-97596909D01*
X109109622Y-97620040D01*
X109113829Y-97622562D01*
X109154628Y-97649822D01*
X109158570Y-97652746D01*
X109196499Y-97683874D01*
X109200134Y-97687169D01*
X109234831Y-97721866D01*
X109238126Y-97725501D01*
X109269254Y-97763430D01*
X109272178Y-97767372D01*
X109299438Y-97808171D01*
X109301960Y-97812378D01*
X109325091Y-97855651D01*
X109327189Y-97860088D01*
X109345966Y-97905421D01*
X109347619Y-97910040D01*
X109361863Y-97956995D01*
X109363055Y-97961756D01*
X109372627Y-98009881D01*
X109373347Y-98014734D01*
X109378157Y-98063565D01*
X109378398Y-98068466D01*
X109378398Y-98086889D01*
X109379000Y-98093000D01*
X109379000Y-98593000D01*
X109378398Y-98599111D01*
X109378398Y-98617534D01*
X109378157Y-98622435D01*
X109373347Y-98671266D01*
X109372627Y-98676119D01*
X109363055Y-98724244D01*
X109361863Y-98729005D01*
X109347619Y-98775960D01*
X109345966Y-98780579D01*
X109327189Y-98825912D01*
X109325091Y-98830349D01*
X109301960Y-98873622D01*
X109299438Y-98877829D01*
X109272178Y-98918628D01*
X109269254Y-98922570D01*
X109238126Y-98960499D01*
X109234831Y-98964134D01*
X109200134Y-98998831D01*
X109196499Y-99002126D01*
X109158570Y-99033254D01*
X109154628Y-99036178D01*
X109113829Y-99063438D01*
X109109622Y-99065960D01*
X109066349Y-99089091D01*
X109061912Y-99091189D01*
X109016579Y-99109966D01*
X109011960Y-99111619D01*
X108965005Y-99125863D01*
X108960244Y-99127055D01*
X108912119Y-99136627D01*
X108907266Y-99137347D01*
X108858435Y-99142157D01*
X108853534Y-99142398D01*
X108835111Y-99142398D01*
X108829000Y-99143000D01*
X108279000Y-99143000D01*
X108269245Y-99142039D01*
X108259866Y-99139194D01*
X108251221Y-99134573D01*
X108243645Y-99128355D01*
X108237427Y-99120779D01*
X108232806Y-99112134D01*
X108229961Y-99102755D01*
X108229000Y-99093000D01*
X108229000Y-97593000D01*
X108229961Y-97583245D01*
X108232806Y-97573866D01*
X108237427Y-97565221D01*
X108243645Y-97557645D01*
X108251221Y-97551427D01*
X108259866Y-97546806D01*
X108269245Y-97543961D01*
X108279000Y-97543000D01*
X108829000Y-97543000D01*
X108835111Y-97543602D01*
G37*
%TD*%
%TO.C,JP2*%
G36*
X106832755Y-100053961D02*
G01*
X106842134Y-100056806D01*
X106850779Y-100061427D01*
X106858355Y-100067645D01*
X106864573Y-100075221D01*
X106869194Y-100083866D01*
X106872039Y-100093245D01*
X106873000Y-100103000D01*
X106873000Y-101603000D01*
X106872039Y-101612755D01*
X106869194Y-101622134D01*
X106864573Y-101630779D01*
X106858355Y-101638355D01*
X106850779Y-101644573D01*
X106842134Y-101649194D01*
X106832755Y-101652039D01*
X106823000Y-101653000D01*
X106273000Y-101653000D01*
X106266889Y-101652398D01*
X106248466Y-101652398D01*
X106243565Y-101652157D01*
X106194734Y-101647347D01*
X106189881Y-101646627D01*
X106141756Y-101637055D01*
X106136995Y-101635863D01*
X106090040Y-101621619D01*
X106085421Y-101619966D01*
X106040088Y-101601189D01*
X106035651Y-101599091D01*
X105992378Y-101575960D01*
X105988171Y-101573438D01*
X105947372Y-101546178D01*
X105943430Y-101543254D01*
X105905501Y-101512126D01*
X105901866Y-101508831D01*
X105867169Y-101474134D01*
X105863874Y-101470499D01*
X105832746Y-101432570D01*
X105829822Y-101428628D01*
X105802562Y-101387829D01*
X105800040Y-101383622D01*
X105776909Y-101340349D01*
X105774811Y-101335912D01*
X105756034Y-101290579D01*
X105754381Y-101285960D01*
X105740137Y-101239005D01*
X105738945Y-101234244D01*
X105729373Y-101186119D01*
X105728653Y-101181266D01*
X105723843Y-101132435D01*
X105723602Y-101127534D01*
X105723602Y-101109111D01*
X105723000Y-101103000D01*
X105723000Y-100603000D01*
X105723602Y-100596889D01*
X105723602Y-100578466D01*
X105723843Y-100573565D01*
X105728653Y-100524734D01*
X105729373Y-100519881D01*
X105738945Y-100471756D01*
X105740137Y-100466995D01*
X105754381Y-100420040D01*
X105756034Y-100415421D01*
X105774811Y-100370088D01*
X105776909Y-100365651D01*
X105800040Y-100322378D01*
X105802562Y-100318171D01*
X105829822Y-100277372D01*
X105832746Y-100273430D01*
X105863874Y-100235501D01*
X105867169Y-100231866D01*
X105901866Y-100197169D01*
X105905501Y-100193874D01*
X105943430Y-100162746D01*
X105947372Y-100159822D01*
X105988171Y-100132562D01*
X105992378Y-100130040D01*
X106035651Y-100106909D01*
X106040088Y-100104811D01*
X106085421Y-100086034D01*
X106090040Y-100084381D01*
X106136995Y-100070137D01*
X106141756Y-100068945D01*
X106189881Y-100059373D01*
X106194734Y-100058653D01*
X106243565Y-100053843D01*
X106248466Y-100053602D01*
X106266889Y-100053602D01*
X106273000Y-100053000D01*
X106823000Y-100053000D01*
X106832755Y-100053961D01*
G37*
D13*
X107573000Y-100853000D03*
D12*
G36*
X108879111Y-100053602D02*
G01*
X108897534Y-100053602D01*
X108902435Y-100053843D01*
X108951266Y-100058653D01*
X108956119Y-100059373D01*
X109004244Y-100068945D01*
X109009005Y-100070137D01*
X109055960Y-100084381D01*
X109060579Y-100086034D01*
X109105912Y-100104811D01*
X109110349Y-100106909D01*
X109153622Y-100130040D01*
X109157829Y-100132562D01*
X109198628Y-100159822D01*
X109202570Y-100162746D01*
X109240499Y-100193874D01*
X109244134Y-100197169D01*
X109278831Y-100231866D01*
X109282126Y-100235501D01*
X109313254Y-100273430D01*
X109316178Y-100277372D01*
X109343438Y-100318171D01*
X109345960Y-100322378D01*
X109369091Y-100365651D01*
X109371189Y-100370088D01*
X109389966Y-100415421D01*
X109391619Y-100420040D01*
X109405863Y-100466995D01*
X109407055Y-100471756D01*
X109416627Y-100519881D01*
X109417347Y-100524734D01*
X109422157Y-100573565D01*
X109422398Y-100578466D01*
X109422398Y-100596889D01*
X109423000Y-100603000D01*
X109423000Y-101103000D01*
X109422398Y-101109111D01*
X109422398Y-101127534D01*
X109422157Y-101132435D01*
X109417347Y-101181266D01*
X109416627Y-101186119D01*
X109407055Y-101234244D01*
X109405863Y-101239005D01*
X109391619Y-101285960D01*
X109389966Y-101290579D01*
X109371189Y-101335912D01*
X109369091Y-101340349D01*
X109345960Y-101383622D01*
X109343438Y-101387829D01*
X109316178Y-101428628D01*
X109313254Y-101432570D01*
X109282126Y-101470499D01*
X109278831Y-101474134D01*
X109244134Y-101508831D01*
X109240499Y-101512126D01*
X109202570Y-101543254D01*
X109198628Y-101546178D01*
X109157829Y-101573438D01*
X109153622Y-101575960D01*
X109110349Y-101599091D01*
X109105912Y-101601189D01*
X109060579Y-101619966D01*
X109055960Y-101621619D01*
X109009005Y-101635863D01*
X109004244Y-101637055D01*
X108956119Y-101646627D01*
X108951266Y-101647347D01*
X108902435Y-101652157D01*
X108897534Y-101652398D01*
X108879111Y-101652398D01*
X108873000Y-101653000D01*
X108323000Y-101653000D01*
X108313245Y-101652039D01*
X108303866Y-101649194D01*
X108295221Y-101644573D01*
X108287645Y-101638355D01*
X108281427Y-101630779D01*
X108276806Y-101622134D01*
X108273961Y-101612755D01*
X108273000Y-101603000D01*
X108273000Y-100103000D01*
X108273961Y-100093245D01*
X108276806Y-100083866D01*
X108281427Y-100075221D01*
X108287645Y-100067645D01*
X108295221Y-100061427D01*
X108303866Y-100056806D01*
X108313245Y-100053961D01*
X108323000Y-100053000D01*
X108873000Y-100053000D01*
X108879111Y-100053602D01*
G37*
%TD*%
%TO.C,U7*%
G36*
G01*
X106115000Y-112215000D02*
X106465000Y-112215000D01*
G75*
G02*
X106640000Y-112390000I0J-175000D01*
G01*
X106640000Y-113790000D01*
G75*
G02*
X106465000Y-113965000I-175000J0D01*
G01*
X106115000Y-113965000D01*
G75*
G02*
X105940000Y-113790000I0J175000D01*
G01*
X105940000Y-112390000D01*
G75*
G02*
X106115000Y-112215000I175000J0D01*
G01*
G37*
G36*
G01*
X107385000Y-112215000D02*
X107735000Y-112215000D01*
G75*
G02*
X107910000Y-112390000I0J-175000D01*
G01*
X107910000Y-113790000D01*
G75*
G02*
X107735000Y-113965000I-175000J0D01*
G01*
X107385000Y-113965000D01*
G75*
G02*
X107210000Y-113790000I0J175000D01*
G01*
X107210000Y-112390000D01*
G75*
G02*
X107385000Y-112215000I175000J0D01*
G01*
G37*
G36*
G01*
X108655000Y-112215000D02*
X109005000Y-112215000D01*
G75*
G02*
X109180000Y-112390000I0J-175000D01*
G01*
X109180000Y-113790000D01*
G75*
G02*
X109005000Y-113965000I-175000J0D01*
G01*
X108655000Y-113965000D01*
G75*
G02*
X108480000Y-113790000I0J175000D01*
G01*
X108480000Y-112390000D01*
G75*
G02*
X108655000Y-112215000I175000J0D01*
G01*
G37*
G36*
G01*
X109925000Y-112215000D02*
X110275000Y-112215000D01*
G75*
G02*
X110450000Y-112390000I0J-175000D01*
G01*
X110450000Y-113790000D01*
G75*
G02*
X110275000Y-113965000I-175000J0D01*
G01*
X109925000Y-113965000D01*
G75*
G02*
X109750000Y-113790000I0J175000D01*
G01*
X109750000Y-112390000D01*
G75*
G02*
X109925000Y-112215000I175000J0D01*
G01*
G37*
G36*
G01*
X109925000Y-106965000D02*
X110275000Y-106965000D01*
G75*
G02*
X110450000Y-107140000I0J-175000D01*
G01*
X110450000Y-108540000D01*
G75*
G02*
X110275000Y-108715000I-175000J0D01*
G01*
X109925000Y-108715000D01*
G75*
G02*
X109750000Y-108540000I0J175000D01*
G01*
X109750000Y-107140000D01*
G75*
G02*
X109925000Y-106965000I175000J0D01*
G01*
G37*
G36*
G01*
X108655000Y-106965000D02*
X109005000Y-106965000D01*
G75*
G02*
X109180000Y-107140000I0J-175000D01*
G01*
X109180000Y-108540000D01*
G75*
G02*
X109005000Y-108715000I-175000J0D01*
G01*
X108655000Y-108715000D01*
G75*
G02*
X108480000Y-108540000I0J175000D01*
G01*
X108480000Y-107140000D01*
G75*
G02*
X108655000Y-106965000I175000J0D01*
G01*
G37*
G36*
G01*
X107385000Y-106965000D02*
X107735000Y-106965000D01*
G75*
G02*
X107910000Y-107140000I0J-175000D01*
G01*
X107910000Y-108540000D01*
G75*
G02*
X107735000Y-108715000I-175000J0D01*
G01*
X107385000Y-108715000D01*
G75*
G02*
X107210000Y-108540000I0J175000D01*
G01*
X107210000Y-107140000D01*
G75*
G02*
X107385000Y-106965000I175000J0D01*
G01*
G37*
G36*
G01*
X106115000Y-106965000D02*
X106465000Y-106965000D01*
G75*
G02*
X106640000Y-107140000I0J-175000D01*
G01*
X106640000Y-108540000D01*
G75*
G02*
X106465000Y-108715000I-175000J0D01*
G01*
X106115000Y-108715000D01*
G75*
G02*
X105940000Y-108540000I0J175000D01*
G01*
X105940000Y-107140000D01*
G75*
G02*
X106115000Y-106965000I175000J0D01*
G01*
G37*
%TD*%
%TO.C,U6*%
G36*
G01*
X105260000Y-123750000D02*
X105260000Y-124100000D01*
G75*
G02*
X105085000Y-124275000I-175000J0D01*
G01*
X103735000Y-124275000D01*
G75*
G02*
X103560000Y-124100000I0J175000D01*
G01*
X103560000Y-123750000D01*
G75*
G02*
X103735000Y-123575000I175000J0D01*
G01*
X105085000Y-123575000D01*
G75*
G02*
X105260000Y-123750000I0J-175000D01*
G01*
G37*
G36*
G01*
X105260000Y-125020000D02*
X105260000Y-125370000D01*
G75*
G02*
X105085000Y-125545000I-175000J0D01*
G01*
X103735000Y-125545000D01*
G75*
G02*
X103560000Y-125370000I0J175000D01*
G01*
X103560000Y-125020000D01*
G75*
G02*
X103735000Y-124845000I175000J0D01*
G01*
X105085000Y-124845000D01*
G75*
G02*
X105260000Y-125020000I0J-175000D01*
G01*
G37*
G36*
G01*
X105260000Y-126290000D02*
X105260000Y-126640000D01*
G75*
G02*
X105085000Y-126815000I-175000J0D01*
G01*
X103735000Y-126815000D01*
G75*
G02*
X103560000Y-126640000I0J175000D01*
G01*
X103560000Y-126290000D01*
G75*
G02*
X103735000Y-126115000I175000J0D01*
G01*
X105085000Y-126115000D01*
G75*
G02*
X105260000Y-126290000I0J-175000D01*
G01*
G37*
G36*
G01*
X105260000Y-127560000D02*
X105260000Y-127910000D01*
G75*
G02*
X105085000Y-128085000I-175000J0D01*
G01*
X103735000Y-128085000D01*
G75*
G02*
X103560000Y-127910000I0J175000D01*
G01*
X103560000Y-127560000D01*
G75*
G02*
X103735000Y-127385000I175000J0D01*
G01*
X105085000Y-127385000D01*
G75*
G02*
X105260000Y-127560000I0J-175000D01*
G01*
G37*
G36*
G01*
X112460000Y-127560000D02*
X112460000Y-127910000D01*
G75*
G02*
X112285000Y-128085000I-175000J0D01*
G01*
X110935000Y-128085000D01*
G75*
G02*
X110760000Y-127910000I0J175000D01*
G01*
X110760000Y-127560000D01*
G75*
G02*
X110935000Y-127385000I175000J0D01*
G01*
X112285000Y-127385000D01*
G75*
G02*
X112460000Y-127560000I0J-175000D01*
G01*
G37*
G36*
G01*
X112460000Y-126290000D02*
X112460000Y-126640000D01*
G75*
G02*
X112285000Y-126815000I-175000J0D01*
G01*
X110935000Y-126815000D01*
G75*
G02*
X110760000Y-126640000I0J175000D01*
G01*
X110760000Y-126290000D01*
G75*
G02*
X110935000Y-126115000I175000J0D01*
G01*
X112285000Y-126115000D01*
G75*
G02*
X112460000Y-126290000I0J-175000D01*
G01*
G37*
G36*
G01*
X112460000Y-125020000D02*
X112460000Y-125370000D01*
G75*
G02*
X112285000Y-125545000I-175000J0D01*
G01*
X110935000Y-125545000D01*
G75*
G02*
X110760000Y-125370000I0J175000D01*
G01*
X110760000Y-125020000D01*
G75*
G02*
X110935000Y-124845000I175000J0D01*
G01*
X112285000Y-124845000D01*
G75*
G02*
X112460000Y-125020000I0J-175000D01*
G01*
G37*
G36*
G01*
X112460000Y-123750000D02*
X112460000Y-124100000D01*
G75*
G02*
X112285000Y-124275000I-175000J0D01*
G01*
X110935000Y-124275000D01*
G75*
G02*
X110760000Y-124100000I0J175000D01*
G01*
X110760000Y-123750000D01*
G75*
G02*
X110935000Y-123575000I175000J0D01*
G01*
X112285000Y-123575000D01*
G75*
G02*
X112460000Y-123750000I0J-175000D01*
G01*
G37*
%TD*%
%TO.C,C5*%
G36*
G01*
X109900000Y-122292500D02*
X109900000Y-122687500D01*
G75*
G02*
X109727500Y-122860000I-172500J0D01*
G01*
X109382500Y-122860000D01*
G75*
G02*
X109210000Y-122687500I0J172500D01*
G01*
X109210000Y-122292500D01*
G75*
G02*
X109382500Y-122120000I172500J0D01*
G01*
X109727500Y-122120000D01*
G75*
G02*
X109900000Y-122292500I0J-172500D01*
G01*
G37*
G36*
G01*
X110870000Y-122292500D02*
X110870000Y-122687500D01*
G75*
G02*
X110697500Y-122860000I-172500J0D01*
G01*
X110352500Y-122860000D01*
G75*
G02*
X110180000Y-122687500I0J172500D01*
G01*
X110180000Y-122292500D01*
G75*
G02*
X110352500Y-122120000I172500J0D01*
G01*
X110697500Y-122120000D01*
G75*
G02*
X110870000Y-122292500I0J-172500D01*
G01*
G37*
%TD*%
D14*
%TO.C,J15*%
X106410000Y-118922000D03*
%TD*%
%TO.C,J16*%
X108281000Y-121436000D03*
%TD*%
%TO.C,J14*%
X109995000Y-117938000D03*
%TD*%
D18*
%TO.C,MH2*%
X115110000Y-96780000D03*
%TD*%
%TO.C,MH1*%
X100130000Y-96780000D03*
%TD*%
M02*
