%TF.GenerationSoftware,KiCad,Pcbnew,(5.1.6-0-10_14)*%
%TF.CreationDate,2022-03-04T18:56:52-06:00*%
%TF.ProjectId,Bonsai_C4,426f6e73-6169-45f4-9334-2e6b69636164,rev?*%
%TF.SameCoordinates,Original*%
%TF.FileFunction,Legend,Bot*%
%TF.FilePolarity,Positive*%
%FSLAX46Y46*%
G04 Gerber Fmt 4.6, Leading zero omitted, Abs format (unit mm)*
G04 Created by KiCad (PCBNEW (5.1.6-0-10_14)) date 2022-03-04 18:56:52*
%MOMM*%
%LPD*%
G01*
G04 APERTURE LIST*
%ADD10C,0.100000*%
%ADD11C,0.120000*%
G04 APERTURE END LIST*
D10*
X109990000Y-114745000D02*
X109890000Y-114778333D01*
X109856666Y-114811666D01*
X109823333Y-114878333D01*
X109823333Y-114978333D01*
X109856666Y-115045000D01*
X109890000Y-115078333D01*
X109956666Y-115111666D01*
X110223333Y-115111666D01*
X110223333Y-114411666D01*
X109990000Y-114411666D01*
X109923333Y-114445000D01*
X109890000Y-114478333D01*
X109856666Y-114545000D01*
X109856666Y-114611666D01*
X109890000Y-114678333D01*
X109923333Y-114711666D01*
X109990000Y-114745000D01*
X110223333Y-114745000D01*
X109423333Y-115111666D02*
X109490000Y-115078333D01*
X109523333Y-115045000D01*
X109556666Y-114978333D01*
X109556666Y-114778333D01*
X109523333Y-114711666D01*
X109490000Y-114678333D01*
X109423333Y-114645000D01*
X109323333Y-114645000D01*
X109256666Y-114678333D01*
X109223333Y-114711666D01*
X109190000Y-114778333D01*
X109190000Y-114978333D01*
X109223333Y-115045000D01*
X109256666Y-115078333D01*
X109323333Y-115111666D01*
X109423333Y-115111666D01*
X108890000Y-114645000D02*
X108890000Y-115111666D01*
X108890000Y-114711666D02*
X108856666Y-114678333D01*
X108790000Y-114645000D01*
X108690000Y-114645000D01*
X108623333Y-114678333D01*
X108590000Y-114745000D01*
X108590000Y-115111666D01*
X108290000Y-115078333D02*
X108223333Y-115111666D01*
X108090000Y-115111666D01*
X108023333Y-115078333D01*
X107990000Y-115011666D01*
X107990000Y-114978333D01*
X108023333Y-114911666D01*
X108090000Y-114878333D01*
X108190000Y-114878333D01*
X108256666Y-114845000D01*
X108290000Y-114778333D01*
X108290000Y-114745000D01*
X108256666Y-114678333D01*
X108190000Y-114645000D01*
X108090000Y-114645000D01*
X108023333Y-114678333D01*
X107390000Y-115111666D02*
X107390000Y-114745000D01*
X107423333Y-114678333D01*
X107490000Y-114645000D01*
X107623333Y-114645000D01*
X107690000Y-114678333D01*
X107390000Y-115078333D02*
X107456666Y-115111666D01*
X107623333Y-115111666D01*
X107690000Y-115078333D01*
X107723333Y-115011666D01*
X107723333Y-114945000D01*
X107690000Y-114878333D01*
X107623333Y-114845000D01*
X107456666Y-114845000D01*
X107390000Y-114811666D01*
X107056666Y-115111666D02*
X107056666Y-114645000D01*
X107056666Y-114411666D02*
X107090000Y-114445000D01*
X107056666Y-114478333D01*
X107023333Y-114445000D01*
X107056666Y-114411666D01*
X107056666Y-114478333D01*
X105790000Y-115045000D02*
X105823333Y-115078333D01*
X105923333Y-115111666D01*
X105990000Y-115111666D01*
X106090000Y-115078333D01*
X106156666Y-115011666D01*
X106190000Y-114945000D01*
X106223333Y-114811666D01*
X106223333Y-114711666D01*
X106190000Y-114578333D01*
X106156666Y-114511666D01*
X106090000Y-114445000D01*
X105990000Y-114411666D01*
X105923333Y-114411666D01*
X105823333Y-114445000D01*
X105790000Y-114478333D01*
X105190000Y-114645000D02*
X105190000Y-115111666D01*
X105356666Y-114378333D02*
X105523333Y-114878333D01*
X105090000Y-114878333D01*
X109856666Y-116228333D02*
X109923333Y-116261666D01*
X110056666Y-116261666D01*
X110123333Y-116228333D01*
X110156666Y-116195000D01*
X110190000Y-116128333D01*
X110190000Y-115928333D01*
X110156666Y-115861666D01*
X110123333Y-115828333D01*
X110056666Y-115795000D01*
X109923333Y-115795000D01*
X109856666Y-115828333D01*
X109256666Y-115795000D02*
X109256666Y-116261666D01*
X109556666Y-115795000D02*
X109556666Y-116161666D01*
X109523333Y-116228333D01*
X109456666Y-116261666D01*
X109356666Y-116261666D01*
X109290000Y-116228333D01*
X109256666Y-116195000D01*
X108956666Y-116228333D02*
X108890000Y-116261666D01*
X108756666Y-116261666D01*
X108690000Y-116228333D01*
X108656666Y-116161666D01*
X108656666Y-116128333D01*
X108690000Y-116061666D01*
X108756666Y-116028333D01*
X108856666Y-116028333D01*
X108923333Y-115995000D01*
X108956666Y-115928333D01*
X108956666Y-115895000D01*
X108923333Y-115828333D01*
X108856666Y-115795000D01*
X108756666Y-115795000D01*
X108690000Y-115828333D01*
X108456666Y-115795000D02*
X108190000Y-115795000D01*
X108356666Y-115561666D02*
X108356666Y-116161666D01*
X108323333Y-116228333D01*
X108256666Y-116261666D01*
X108190000Y-116261666D01*
X107856666Y-116261666D02*
X107923333Y-116228333D01*
X107956666Y-116195000D01*
X107990000Y-116128333D01*
X107990000Y-115928333D01*
X107956666Y-115861666D01*
X107923333Y-115828333D01*
X107856666Y-115795000D01*
X107756666Y-115795000D01*
X107690000Y-115828333D01*
X107656666Y-115861666D01*
X107623333Y-115928333D01*
X107623333Y-116128333D01*
X107656666Y-116195000D01*
X107690000Y-116228333D01*
X107756666Y-116261666D01*
X107856666Y-116261666D01*
X107323333Y-116261666D02*
X107323333Y-115795000D01*
X107323333Y-115861666D02*
X107290000Y-115828333D01*
X107223333Y-115795000D01*
X107123333Y-115795000D01*
X107056666Y-115828333D01*
X107023333Y-115895000D01*
X107023333Y-116261666D01*
X107023333Y-115895000D02*
X106990000Y-115828333D01*
X106923333Y-115795000D01*
X106823333Y-115795000D01*
X106756666Y-115828333D01*
X106723333Y-115895000D01*
X106723333Y-116261666D01*
X106390000Y-116261666D02*
X106390000Y-115561666D01*
X106156666Y-116061666D01*
X105923333Y-115561666D01*
X105923333Y-116261666D01*
X105590000Y-116261666D02*
X105590000Y-115561666D01*
X105190000Y-116261666D02*
X105490000Y-115861666D01*
X105190000Y-115561666D02*
X105590000Y-115961666D01*
X105250000Y-119196666D02*
X105283333Y-119296666D01*
X105316666Y-119330000D01*
X105383333Y-119363333D01*
X105483333Y-119363333D01*
X105550000Y-119330000D01*
X105583333Y-119296666D01*
X105616666Y-119230000D01*
X105616666Y-118963333D01*
X104916666Y-118963333D01*
X104916666Y-119196666D01*
X104950000Y-119263333D01*
X104983333Y-119296666D01*
X105050000Y-119330000D01*
X105116666Y-119330000D01*
X105183333Y-119296666D01*
X105216666Y-119263333D01*
X105250000Y-119196666D01*
X105250000Y-118963333D01*
X104916666Y-119796666D02*
X104916666Y-119930000D01*
X104950000Y-119996666D01*
X105016666Y-120063333D01*
X105150000Y-120096666D01*
X105383333Y-120096666D01*
X105516666Y-120063333D01*
X105583333Y-119996666D01*
X105616666Y-119930000D01*
X105616666Y-119796666D01*
X105583333Y-119730000D01*
X105516666Y-119663333D01*
X105383333Y-119630000D01*
X105150000Y-119630000D01*
X105016666Y-119663333D01*
X104950000Y-119730000D01*
X104916666Y-119796666D01*
X104916666Y-120530000D02*
X104916666Y-120663333D01*
X104950000Y-120730000D01*
X105016666Y-120796666D01*
X105150000Y-120830000D01*
X105383333Y-120830000D01*
X105516666Y-120796666D01*
X105583333Y-120730000D01*
X105616666Y-120663333D01*
X105616666Y-120530000D01*
X105583333Y-120463333D01*
X105516666Y-120396666D01*
X105383333Y-120363333D01*
X105150000Y-120363333D01*
X105016666Y-120396666D01*
X104950000Y-120463333D01*
X104916666Y-120530000D01*
X104916666Y-121030000D02*
X104916666Y-121430000D01*
X105616666Y-121230000D02*
X104916666Y-121230000D01*
X104916666Y-121796666D02*
X104916666Y-121863333D01*
X104950000Y-121930000D01*
X104983333Y-121963333D01*
X105050000Y-121996666D01*
X105183333Y-122030000D01*
X105350000Y-122030000D01*
X105483333Y-121996666D01*
X105550000Y-121963333D01*
X105583333Y-121930000D01*
X105616666Y-121863333D01*
X105616666Y-121796666D01*
X105583333Y-121730000D01*
X105550000Y-121696666D01*
X105483333Y-121663333D01*
X105350000Y-121630000D01*
X105183333Y-121630000D01*
X105050000Y-121663333D01*
X104983333Y-121696666D01*
X104950000Y-121730000D01*
X104916666Y-121796666D01*
D11*
X100910000Y-99480000D02*
X101210000Y-99250000D01*
X100610000Y-101710000D02*
X101180000Y-100940000D01*
D10*
X114400000Y-104700000D02*
X113880000Y-103940000D01*
X101140000Y-114000000D02*
X100660000Y-113490000D01*
X101410000Y-108640000D02*
X100760000Y-109370000D01*
X103996666Y-114206666D02*
X103296666Y-114206666D01*
X103296666Y-114473333D01*
X103330000Y-114540000D01*
X103363333Y-114573333D01*
X103430000Y-114606666D01*
X103530000Y-114606666D01*
X103596666Y-114573333D01*
X103630000Y-114540000D01*
X103663333Y-114473333D01*
X103663333Y-114206666D01*
X103996666Y-114906666D02*
X103296666Y-114906666D01*
X103296666Y-115073333D01*
X103330000Y-115173333D01*
X103396666Y-115240000D01*
X103463333Y-115273333D01*
X103596666Y-115306666D01*
X103696666Y-115306666D01*
X103830000Y-115273333D01*
X103896666Y-115240000D01*
X103963333Y-115173333D01*
X103996666Y-115073333D01*
X103996666Y-114906666D01*
X103996666Y-115973333D02*
X103996666Y-115573333D01*
X103996666Y-115773333D02*
X103296666Y-115773333D01*
X103396666Y-115706666D01*
X103463333Y-115640000D01*
X103496666Y-115573333D01*
X104230000Y-116440000D02*
X103230000Y-116440000D01*
X103996666Y-116940000D02*
X103296666Y-116940000D01*
X103296666Y-117206666D01*
X103330000Y-117273333D01*
X103363333Y-117306666D01*
X103430000Y-117340000D01*
X103530000Y-117340000D01*
X103596666Y-117306666D01*
X103630000Y-117273333D01*
X103663333Y-117206666D01*
X103663333Y-116940000D01*
X103996666Y-117640000D02*
X103296666Y-117640000D01*
X103296666Y-117806666D01*
X103330000Y-117906666D01*
X103396666Y-117973333D01*
X103463333Y-118006666D01*
X103596666Y-118040000D01*
X103696666Y-118040000D01*
X103830000Y-118006666D01*
X103896666Y-117973333D01*
X103963333Y-117906666D01*
X103996666Y-117806666D01*
X103996666Y-117640000D01*
X103296666Y-118473333D02*
X103296666Y-118540000D01*
X103330000Y-118606666D01*
X103363333Y-118640000D01*
X103430000Y-118673333D01*
X103563333Y-118706666D01*
X103730000Y-118706666D01*
X103863333Y-118673333D01*
X103930000Y-118640000D01*
X103963333Y-118606666D01*
X103996666Y-118540000D01*
X103996666Y-118473333D01*
X103963333Y-118406666D01*
X103930000Y-118373333D01*
X103863333Y-118340000D01*
X103730000Y-118306666D01*
X103563333Y-118306666D01*
X103430000Y-118340000D01*
X103363333Y-118373333D01*
X103330000Y-118406666D01*
X103296666Y-118473333D01*
X112073333Y-106446666D02*
X111740000Y-106446666D01*
X112140000Y-106646666D02*
X111906666Y-105946666D01*
X111673333Y-106646666D01*
X111073333Y-106646666D02*
X111473333Y-106646666D01*
X111273333Y-106646666D02*
X111273333Y-105946666D01*
X111340000Y-106046666D01*
X111406666Y-106113333D01*
X111473333Y-106146666D01*
X110640000Y-105946666D02*
X110573333Y-105946666D01*
X110506666Y-105980000D01*
X110473333Y-106013333D01*
X110440000Y-106080000D01*
X110406666Y-106213333D01*
X110406666Y-106380000D01*
X110440000Y-106513333D01*
X110473333Y-106580000D01*
X110506666Y-106613333D01*
X110573333Y-106646666D01*
X110640000Y-106646666D01*
X110706666Y-106613333D01*
X110740000Y-106580000D01*
X110773333Y-106513333D01*
X110806666Y-106380000D01*
X110806666Y-106213333D01*
X110773333Y-106080000D01*
X110740000Y-106013333D01*
X110706666Y-105980000D01*
X110640000Y-105946666D01*
X109906666Y-106913333D02*
X109940000Y-106880000D01*
X110006666Y-106780000D01*
X110040000Y-106713333D01*
X110073333Y-106613333D01*
X110106666Y-106446666D01*
X110106666Y-106313333D01*
X110073333Y-106146666D01*
X110040000Y-106046666D01*
X110006666Y-105980000D01*
X109940000Y-105880000D01*
X109906666Y-105846666D01*
X109306666Y-105946666D02*
X109640000Y-105946666D01*
X109673333Y-106280000D01*
X109640000Y-106246666D01*
X109573333Y-106213333D01*
X109406666Y-106213333D01*
X109340000Y-106246666D01*
X109306666Y-106280000D01*
X109273333Y-106346666D01*
X109273333Y-106513333D01*
X109306666Y-106580000D01*
X109340000Y-106613333D01*
X109406666Y-106646666D01*
X109573333Y-106646666D01*
X109640000Y-106613333D01*
X109673333Y-106580000D01*
X109073333Y-105946666D02*
X108840000Y-106646666D01*
X108606666Y-105946666D01*
X108440000Y-106913333D02*
X108406666Y-106880000D01*
X108340000Y-106780000D01*
X108306666Y-106713333D01*
X108273333Y-106613333D01*
X108240000Y-106446666D01*
X108240000Y-106313333D01*
X108273333Y-106146666D01*
X108306666Y-106046666D01*
X108340000Y-105980000D01*
X108406666Y-105880000D01*
X108440000Y-105846666D01*
X113820000Y-115466666D02*
X113486666Y-115466666D01*
X113886666Y-115666666D02*
X113653333Y-114966666D01*
X113420000Y-115666666D01*
X112853333Y-114966666D02*
X113186666Y-114966666D01*
X113220000Y-115300000D01*
X113186666Y-115266666D01*
X113120000Y-115233333D01*
X112953333Y-115233333D01*
X112886666Y-115266666D01*
X112853333Y-115300000D01*
X112820000Y-115366666D01*
X112820000Y-115533333D01*
X112853333Y-115600000D01*
X112886666Y-115633333D01*
X112953333Y-115666666D01*
X113120000Y-115666666D01*
X113186666Y-115633333D01*
X113220000Y-115600000D01*
X113800000Y-117926666D02*
X113466666Y-117926666D01*
X113866666Y-118126666D02*
X113633333Y-117426666D01*
X113400000Y-118126666D01*
X112800000Y-118126666D02*
X113200000Y-118126666D01*
X113000000Y-118126666D02*
X113000000Y-117426666D01*
X113066666Y-117526666D01*
X113133333Y-117593333D01*
X113200000Y-117626666D01*
X113686666Y-120300000D02*
X113586666Y-120333333D01*
X113553333Y-120366666D01*
X113520000Y-120433333D01*
X113520000Y-120533333D01*
X113553333Y-120600000D01*
X113586666Y-120633333D01*
X113653333Y-120666666D01*
X113920000Y-120666666D01*
X113920000Y-119966666D01*
X113686666Y-119966666D01*
X113620000Y-120000000D01*
X113586666Y-120033333D01*
X113553333Y-120100000D01*
X113553333Y-120166666D01*
X113586666Y-120233333D01*
X113620000Y-120266666D01*
X113686666Y-120300000D01*
X113920000Y-120300000D01*
X112853333Y-120666666D02*
X113253333Y-120666666D01*
X113053333Y-120666666D02*
X113053333Y-119966666D01*
X113120000Y-120066666D01*
X113186666Y-120133333D01*
X113253333Y-120166666D01*
X112620000Y-119966666D02*
X112186666Y-119966666D01*
X112420000Y-120233333D01*
X112320000Y-120233333D01*
X112253333Y-120266666D01*
X112220000Y-120300000D01*
X112186666Y-120366666D01*
X112186666Y-120533333D01*
X112220000Y-120600000D01*
X112253333Y-120633333D01*
X112320000Y-120666666D01*
X112520000Y-120666666D01*
X112586666Y-120633333D01*
X112620000Y-120600000D01*
X113666666Y-122770000D02*
X113566666Y-122803333D01*
X113533333Y-122836666D01*
X113500000Y-122903333D01*
X113500000Y-123003333D01*
X113533333Y-123070000D01*
X113566666Y-123103333D01*
X113633333Y-123136666D01*
X113900000Y-123136666D01*
X113900000Y-122436666D01*
X113666666Y-122436666D01*
X113600000Y-122470000D01*
X113566666Y-122503333D01*
X113533333Y-122570000D01*
X113533333Y-122636666D01*
X113566666Y-122703333D01*
X113600000Y-122736666D01*
X113666666Y-122770000D01*
X113900000Y-122770000D01*
X112833333Y-123136666D02*
X113233333Y-123136666D01*
X113033333Y-123136666D02*
X113033333Y-122436666D01*
X113100000Y-122536666D01*
X113166666Y-122603333D01*
X113233333Y-122636666D01*
X112233333Y-122670000D02*
X112233333Y-123136666D01*
X112400000Y-122403333D02*
X112566666Y-122903333D01*
X112133333Y-122903333D01*
X113626666Y-125430000D02*
X113526666Y-125463333D01*
X113493333Y-125496666D01*
X113460000Y-125563333D01*
X113460000Y-125663333D01*
X113493333Y-125730000D01*
X113526666Y-125763333D01*
X113593333Y-125796666D01*
X113860000Y-125796666D01*
X113860000Y-125096666D01*
X113626666Y-125096666D01*
X113560000Y-125130000D01*
X113526666Y-125163333D01*
X113493333Y-125230000D01*
X113493333Y-125296666D01*
X113526666Y-125363333D01*
X113560000Y-125396666D01*
X113626666Y-125430000D01*
X113860000Y-125430000D01*
X112793333Y-125796666D02*
X113193333Y-125796666D01*
X112993333Y-125796666D02*
X112993333Y-125096666D01*
X113060000Y-125196666D01*
X113126666Y-125263333D01*
X113193333Y-125296666D01*
X112160000Y-125096666D02*
X112493333Y-125096666D01*
X112526666Y-125430000D01*
X112493333Y-125396666D01*
X112426666Y-125363333D01*
X112260000Y-125363333D01*
X112193333Y-125396666D01*
X112160000Y-125430000D01*
X112126666Y-125496666D01*
X112126666Y-125663333D01*
X112160000Y-125730000D01*
X112193333Y-125763333D01*
X112260000Y-125796666D01*
X112426666Y-125796666D01*
X112493333Y-125763333D01*
X112526666Y-125730000D01*
X113633333Y-127930000D02*
X113533333Y-127963333D01*
X113500000Y-127996666D01*
X113466666Y-128063333D01*
X113466666Y-128163333D01*
X113500000Y-128230000D01*
X113533333Y-128263333D01*
X113600000Y-128296666D01*
X113866666Y-128296666D01*
X113866666Y-127596666D01*
X113633333Y-127596666D01*
X113566666Y-127630000D01*
X113533333Y-127663333D01*
X113500000Y-127730000D01*
X113500000Y-127796666D01*
X113533333Y-127863333D01*
X113566666Y-127896666D01*
X113633333Y-127930000D01*
X113866666Y-127930000D01*
X112800000Y-128296666D02*
X113200000Y-128296666D01*
X113000000Y-128296666D02*
X113000000Y-127596666D01*
X113066666Y-127696666D01*
X113133333Y-127763333D01*
X113200000Y-127796666D01*
X102253333Y-127670000D02*
X102153333Y-127703333D01*
X102120000Y-127736666D01*
X102086666Y-127803333D01*
X102086666Y-127903333D01*
X102120000Y-127970000D01*
X102153333Y-128003333D01*
X102220000Y-128036666D01*
X102486666Y-128036666D01*
X102486666Y-127336666D01*
X102253333Y-127336666D01*
X102186666Y-127370000D01*
X102153333Y-127403333D01*
X102120000Y-127470000D01*
X102120000Y-127536666D01*
X102153333Y-127603333D01*
X102186666Y-127636666D01*
X102253333Y-127670000D01*
X102486666Y-127670000D01*
X101653333Y-127336666D02*
X101586666Y-127336666D01*
X101520000Y-127370000D01*
X101486666Y-127403333D01*
X101453333Y-127470000D01*
X101420000Y-127603333D01*
X101420000Y-127770000D01*
X101453333Y-127903333D01*
X101486666Y-127970000D01*
X101520000Y-128003333D01*
X101586666Y-128036666D01*
X101653333Y-128036666D01*
X101720000Y-128003333D01*
X101753333Y-127970000D01*
X101786666Y-127903333D01*
X101820000Y-127770000D01*
X101820000Y-127603333D01*
X101786666Y-127470000D01*
X101753333Y-127403333D01*
X101720000Y-127370000D01*
X101653333Y-127336666D01*
X102330000Y-125476666D02*
X101996666Y-125476666D01*
X102396666Y-125676666D02*
X102163333Y-124976666D01*
X101930000Y-125676666D01*
X101596666Y-125276666D02*
X101663333Y-125243333D01*
X101696666Y-125210000D01*
X101730000Y-125143333D01*
X101730000Y-125110000D01*
X101696666Y-125043333D01*
X101663333Y-125010000D01*
X101596666Y-124976666D01*
X101463333Y-124976666D01*
X101396666Y-125010000D01*
X101363333Y-125043333D01*
X101330000Y-125110000D01*
X101330000Y-125143333D01*
X101363333Y-125210000D01*
X101396666Y-125243333D01*
X101463333Y-125276666D01*
X101596666Y-125276666D01*
X101663333Y-125310000D01*
X101696666Y-125343333D01*
X101730000Y-125410000D01*
X101730000Y-125543333D01*
X101696666Y-125610000D01*
X101663333Y-125643333D01*
X101596666Y-125676666D01*
X101463333Y-125676666D01*
X101396666Y-125643333D01*
X101363333Y-125610000D01*
X101330000Y-125543333D01*
X101330000Y-125410000D01*
X101363333Y-125343333D01*
X101396666Y-125310000D01*
X101463333Y-125276666D01*
X102786666Y-122800000D02*
X102686666Y-122833333D01*
X102653333Y-122866666D01*
X102620000Y-122933333D01*
X102620000Y-123033333D01*
X102653333Y-123100000D01*
X102686666Y-123133333D01*
X102753333Y-123166666D01*
X103020000Y-123166666D01*
X103020000Y-122466666D01*
X102786666Y-122466666D01*
X102720000Y-122500000D01*
X102686666Y-122533333D01*
X102653333Y-122600000D01*
X102653333Y-122666666D01*
X102686666Y-122733333D01*
X102720000Y-122766666D01*
X102786666Y-122800000D01*
X103020000Y-122800000D01*
X101953333Y-123166666D02*
X102353333Y-123166666D01*
X102153333Y-123166666D02*
X102153333Y-122466666D01*
X102220000Y-122566666D01*
X102286666Y-122633333D01*
X102353333Y-122666666D01*
X101520000Y-122466666D02*
X101453333Y-122466666D01*
X101386666Y-122500000D01*
X101353333Y-122533333D01*
X101320000Y-122600000D01*
X101286666Y-122733333D01*
X101286666Y-122900000D01*
X101320000Y-123033333D01*
X101353333Y-123100000D01*
X101386666Y-123133333D01*
X101453333Y-123166666D01*
X101520000Y-123166666D01*
X101586666Y-123133333D01*
X101620000Y-123100000D01*
X101653333Y-123033333D01*
X101686666Y-122900000D01*
X101686666Y-122733333D01*
X101653333Y-122600000D01*
X101620000Y-122533333D01*
X101586666Y-122500000D01*
X101520000Y-122466666D01*
X102340000Y-120546666D02*
X102006666Y-120546666D01*
X102406666Y-120746666D02*
X102173333Y-120046666D01*
X101940000Y-120746666D01*
X101773333Y-120046666D02*
X101340000Y-120046666D01*
X101573333Y-120313333D01*
X101473333Y-120313333D01*
X101406666Y-120346666D01*
X101373333Y-120380000D01*
X101340000Y-120446666D01*
X101340000Y-120613333D01*
X101373333Y-120680000D01*
X101406666Y-120713333D01*
X101473333Y-120746666D01*
X101673333Y-120746666D01*
X101740000Y-120713333D01*
X101773333Y-120680000D01*
X102153333Y-117790000D02*
X102053333Y-117823333D01*
X102020000Y-117856666D01*
X101986666Y-117923333D01*
X101986666Y-118023333D01*
X102020000Y-118090000D01*
X102053333Y-118123333D01*
X102120000Y-118156666D01*
X102386666Y-118156666D01*
X102386666Y-117456666D01*
X102153333Y-117456666D01*
X102086666Y-117490000D01*
X102053333Y-117523333D01*
X102020000Y-117590000D01*
X102020000Y-117656666D01*
X102053333Y-117723333D01*
X102086666Y-117756666D01*
X102153333Y-117790000D01*
X102386666Y-117790000D01*
X101586666Y-117756666D02*
X101653333Y-117723333D01*
X101686666Y-117690000D01*
X101720000Y-117623333D01*
X101720000Y-117590000D01*
X101686666Y-117523333D01*
X101653333Y-117490000D01*
X101586666Y-117456666D01*
X101453333Y-117456666D01*
X101386666Y-117490000D01*
X101353333Y-117523333D01*
X101320000Y-117590000D01*
X101320000Y-117623333D01*
X101353333Y-117690000D01*
X101386666Y-117723333D01*
X101453333Y-117756666D01*
X101586666Y-117756666D01*
X101653333Y-117790000D01*
X101686666Y-117823333D01*
X101720000Y-117890000D01*
X101720000Y-118023333D01*
X101686666Y-118090000D01*
X101653333Y-118123333D01*
X101586666Y-118156666D01*
X101453333Y-118156666D01*
X101386666Y-118123333D01*
X101353333Y-118090000D01*
X101320000Y-118023333D01*
X101320000Y-117890000D01*
X101353333Y-117823333D01*
X101386666Y-117790000D01*
X101453333Y-117756666D01*
X102300000Y-115586666D02*
X101966666Y-115586666D01*
X102366666Y-115786666D02*
X102133333Y-115086666D01*
X101900000Y-115786666D01*
X101366666Y-115320000D02*
X101366666Y-115786666D01*
X101533333Y-115053333D02*
X101700000Y-115553333D01*
X101266666Y-115553333D01*
X102163333Y-114250000D02*
X102063333Y-114283333D01*
X102030000Y-114316666D01*
X101996666Y-114383333D01*
X101996666Y-114483333D01*
X102030000Y-114550000D01*
X102063333Y-114583333D01*
X102130000Y-114616666D01*
X102396666Y-114616666D01*
X102396666Y-113916666D01*
X102163333Y-113916666D01*
X102096666Y-113950000D01*
X102063333Y-113983333D01*
X102030000Y-114050000D01*
X102030000Y-114116666D01*
X102063333Y-114183333D01*
X102096666Y-114216666D01*
X102163333Y-114250000D01*
X102396666Y-114250000D01*
X101396666Y-113916666D02*
X101530000Y-113916666D01*
X101596666Y-113950000D01*
X101630000Y-113983333D01*
X101696666Y-114083333D01*
X101730000Y-114216666D01*
X101730000Y-114483333D01*
X101696666Y-114550000D01*
X101663333Y-114583333D01*
X101596666Y-114616666D01*
X101463333Y-114616666D01*
X101396666Y-114583333D01*
X101363333Y-114550000D01*
X101330000Y-114483333D01*
X101330000Y-114316666D01*
X101363333Y-114250000D01*
X101396666Y-114216666D01*
X101463333Y-114183333D01*
X101596666Y-114183333D01*
X101663333Y-114216666D01*
X101696666Y-114250000D01*
X101730000Y-114316666D01*
X102173333Y-108050000D02*
X102073333Y-108083333D01*
X102040000Y-108116666D01*
X102006666Y-108183333D01*
X102006666Y-108283333D01*
X102040000Y-108350000D01*
X102073333Y-108383333D01*
X102140000Y-108416666D01*
X102406666Y-108416666D01*
X102406666Y-107716666D01*
X102173333Y-107716666D01*
X102106666Y-107750000D01*
X102073333Y-107783333D01*
X102040000Y-107850000D01*
X102040000Y-107916666D01*
X102073333Y-107983333D01*
X102106666Y-108016666D01*
X102173333Y-108050000D01*
X102406666Y-108050000D01*
X101673333Y-108416666D02*
X101540000Y-108416666D01*
X101473333Y-108383333D01*
X101440000Y-108350000D01*
X101373333Y-108250000D01*
X101340000Y-108116666D01*
X101340000Y-107850000D01*
X101373333Y-107783333D01*
X101406666Y-107750000D01*
X101473333Y-107716666D01*
X101606666Y-107716666D01*
X101673333Y-107750000D01*
X101706666Y-107783333D01*
X101740000Y-107850000D01*
X101740000Y-108016666D01*
X101706666Y-108083333D01*
X101673333Y-108116666D01*
X101606666Y-108150000D01*
X101473333Y-108150000D01*
X101406666Y-108116666D01*
X101373333Y-108083333D01*
X101340000Y-108016666D01*
X113516666Y-102090000D02*
X113583333Y-102056666D01*
X113683333Y-102056666D01*
X113783333Y-102090000D01*
X113850000Y-102156666D01*
X113883333Y-102223333D01*
X113916666Y-102356666D01*
X113916666Y-102456666D01*
X113883333Y-102590000D01*
X113850000Y-102656666D01*
X113783333Y-102723333D01*
X113683333Y-102756666D01*
X113616666Y-102756666D01*
X113516666Y-102723333D01*
X113483333Y-102690000D01*
X113483333Y-102456666D01*
X113616666Y-102456666D01*
X113493333Y-99756666D02*
X113826666Y-99756666D01*
X113860000Y-100090000D01*
X113826666Y-100056666D01*
X113760000Y-100023333D01*
X113593333Y-100023333D01*
X113526666Y-100056666D01*
X113493333Y-100090000D01*
X113460000Y-100156666D01*
X113460000Y-100323333D01*
X113493333Y-100390000D01*
X113526666Y-100423333D01*
X113593333Y-100456666D01*
X113760000Y-100456666D01*
X113826666Y-100423333D01*
X113860000Y-100390000D01*
X113260000Y-99756666D02*
X113026666Y-100456666D01*
X112793333Y-99756666D01*
X102846666Y-103796666D02*
X102846666Y-103096666D01*
X102680000Y-103096666D01*
X102580000Y-103130000D01*
X102513333Y-103196666D01*
X102480000Y-103263333D01*
X102446666Y-103396666D01*
X102446666Y-103496666D01*
X102480000Y-103630000D01*
X102513333Y-103696666D01*
X102580000Y-103763333D01*
X102680000Y-103796666D01*
X102846666Y-103796666D01*
X102146666Y-103530000D02*
X101613333Y-103530000D01*
X101880000Y-103796666D02*
X101880000Y-103263333D01*
X102023333Y-98710000D02*
X101923333Y-98743333D01*
X101890000Y-98776666D01*
X101856666Y-98843333D01*
X101856666Y-98943333D01*
X101890000Y-99010000D01*
X101923333Y-99043333D01*
X101990000Y-99076666D01*
X102256666Y-99076666D01*
X102256666Y-98376666D01*
X102023333Y-98376666D01*
X101956666Y-98410000D01*
X101923333Y-98443333D01*
X101890000Y-98510000D01*
X101890000Y-98576666D01*
X101923333Y-98643333D01*
X101956666Y-98676666D01*
X102023333Y-98710000D01*
X102256666Y-98710000D01*
X101623333Y-98376666D02*
X101156666Y-98376666D01*
X101456666Y-99076666D01*
X103033333Y-100596666D02*
X102700000Y-100596666D01*
X103100000Y-100796666D02*
X102866666Y-100096666D01*
X102633333Y-100796666D01*
X102033333Y-100796666D02*
X102433333Y-100796666D01*
X102233333Y-100796666D02*
X102233333Y-100096666D01*
X102300000Y-100196666D01*
X102366666Y-100263333D01*
X102433333Y-100296666D01*
X101400000Y-100096666D02*
X101733333Y-100096666D01*
X101766666Y-100430000D01*
X101733333Y-100396666D01*
X101666666Y-100363333D01*
X101500000Y-100363333D01*
X101433333Y-100396666D01*
X101400000Y-100430000D01*
X101366666Y-100496666D01*
X101366666Y-100663333D01*
X101400000Y-100730000D01*
X101433333Y-100763333D01*
X101500000Y-100796666D01*
X101666666Y-100796666D01*
X101733333Y-100763333D01*
X101766666Y-100730000D01*
X101550000Y-106960000D02*
X100876000Y-106955000D01*
X101620000Y-106560000D02*
X100734000Y-105929000D01*
X103233333Y-106650000D02*
X103300000Y-106616666D01*
X103400000Y-106616666D01*
X103500000Y-106650000D01*
X103566666Y-106716666D01*
X103600000Y-106783333D01*
X103633333Y-106916666D01*
X103633333Y-107016666D01*
X103600000Y-107150000D01*
X103566666Y-107216666D01*
X103500000Y-107283333D01*
X103400000Y-107316666D01*
X103333333Y-107316666D01*
X103233333Y-107283333D01*
X103200000Y-107250000D01*
X103200000Y-107016666D01*
X103333333Y-107016666D01*
X102900000Y-107316666D02*
X102900000Y-106616666D01*
X102500000Y-107316666D01*
X102500000Y-106616666D01*
X102166666Y-107316666D02*
X102166666Y-106616666D01*
X102000000Y-106616666D01*
X101900000Y-106650000D01*
X101833333Y-106716666D01*
X101800000Y-106783333D01*
X101766666Y-106916666D01*
X101766666Y-107016666D01*
X101800000Y-107150000D01*
X101833333Y-107216666D01*
X101900000Y-107283333D01*
X102000000Y-107316666D01*
X102166666Y-107316666D01*
X105436666Y-103756666D02*
X105436666Y-103056666D01*
X105270000Y-103056666D01*
X105170000Y-103090000D01*
X105103333Y-103156666D01*
X105070000Y-103223333D01*
X105036666Y-103356666D01*
X105036666Y-103456666D01*
X105070000Y-103590000D01*
X105103333Y-103656666D01*
X105170000Y-103723333D01*
X105270000Y-103756666D01*
X105436666Y-103756666D01*
X104736666Y-103490000D02*
X104203333Y-103490000D01*
X108933333Y-103056666D02*
X108700000Y-103756666D01*
X108466666Y-103056666D01*
X108000000Y-103390000D02*
X107900000Y-103423333D01*
X107866666Y-103456666D01*
X107833333Y-103523333D01*
X107833333Y-103623333D01*
X107866666Y-103690000D01*
X107900000Y-103723333D01*
X107966666Y-103756666D01*
X108233333Y-103756666D01*
X108233333Y-103056666D01*
X108000000Y-103056666D01*
X107933333Y-103090000D01*
X107900000Y-103123333D01*
X107866666Y-103190000D01*
X107866666Y-103256666D01*
X107900000Y-103323333D01*
X107933333Y-103356666D01*
X108000000Y-103390000D01*
X108233333Y-103390000D01*
X107533333Y-103056666D02*
X107533333Y-103623333D01*
X107500000Y-103690000D01*
X107466666Y-103723333D01*
X107400000Y-103756666D01*
X107266666Y-103756666D01*
X107200000Y-103723333D01*
X107166666Y-103690000D01*
X107133333Y-103623333D01*
X107133333Y-103056666D01*
X106833333Y-103723333D02*
X106733333Y-103756666D01*
X106566666Y-103756666D01*
X106500000Y-103723333D01*
X106466666Y-103690000D01*
X106433333Y-103623333D01*
X106433333Y-103556666D01*
X106466666Y-103490000D01*
X106500000Y-103456666D01*
X106566666Y-103423333D01*
X106700000Y-103390000D01*
X106766666Y-103356666D01*
X106800000Y-103323333D01*
X106833333Y-103256666D01*
X106833333Y-103190000D01*
X106800000Y-103123333D01*
X106766666Y-103090000D01*
X106700000Y-103056666D01*
X106533333Y-103056666D01*
X106433333Y-103090000D01*
X113880000Y-103786666D02*
X113880000Y-103086666D01*
X113713333Y-103086666D01*
X113613333Y-103120000D01*
X113546666Y-103186666D01*
X113513333Y-103253333D01*
X113480000Y-103386666D01*
X113480000Y-103486666D01*
X113513333Y-103620000D01*
X113546666Y-103686666D01*
X113613333Y-103753333D01*
X113713333Y-103786666D01*
X113880000Y-103786666D01*
X112946666Y-103420000D02*
X113180000Y-103420000D01*
X113180000Y-103786666D02*
X113180000Y-103086666D01*
X112846666Y-103086666D01*
X112580000Y-103086666D02*
X112580000Y-103653333D01*
X112546666Y-103720000D01*
X112513333Y-103753333D01*
X112446666Y-103786666D01*
X112313333Y-103786666D01*
X112246666Y-103753333D01*
X112213333Y-103720000D01*
X112180000Y-103653333D01*
X112180000Y-103086666D01*
X114103333Y-107466666D02*
X113670000Y-107466666D01*
X113903333Y-107733333D01*
X113803333Y-107733333D01*
X113736666Y-107766666D01*
X113703333Y-107800000D01*
X113670000Y-107866666D01*
X113670000Y-108033333D01*
X113703333Y-108100000D01*
X113736666Y-108133333D01*
X113803333Y-108166666D01*
X114003333Y-108166666D01*
X114070000Y-108133333D01*
X114103333Y-108100000D01*
X113370000Y-108100000D02*
X113336666Y-108133333D01*
X113370000Y-108166666D01*
X113403333Y-108133333D01*
X113370000Y-108100000D01*
X113370000Y-108166666D01*
X113103333Y-107466666D02*
X112670000Y-107466666D01*
X112903333Y-107733333D01*
X112803333Y-107733333D01*
X112736666Y-107766666D01*
X112703333Y-107800000D01*
X112670000Y-107866666D01*
X112670000Y-108033333D01*
X112703333Y-108100000D01*
X112736666Y-108133333D01*
X112803333Y-108166666D01*
X113003333Y-108166666D01*
X113070000Y-108133333D01*
X113103333Y-108100000D01*
X112470000Y-107466666D02*
X112236666Y-108166666D01*
X112003333Y-107466666D01*
X113830000Y-110326666D02*
X113496666Y-110326666D01*
X113896666Y-110526666D02*
X113663333Y-109826666D01*
X113430000Y-110526666D01*
X113263333Y-109826666D02*
X112796666Y-109826666D01*
X113096666Y-110526666D01*
X113870000Y-112786666D02*
X113536666Y-112786666D01*
X113936666Y-112986666D02*
X113703333Y-112286666D01*
X113470000Y-112986666D01*
X112936666Y-112286666D02*
X113070000Y-112286666D01*
X113136666Y-112320000D01*
X113170000Y-112353333D01*
X113236666Y-112453333D01*
X113270000Y-112586666D01*
X113270000Y-112853333D01*
X113236666Y-112920000D01*
X113203333Y-112953333D01*
X113136666Y-112986666D01*
X113003333Y-112986666D01*
X112936666Y-112953333D01*
X112903333Y-112920000D01*
X112870000Y-112853333D01*
X112870000Y-112686666D01*
X112903333Y-112620000D01*
X112936666Y-112586666D01*
X113003333Y-112553333D01*
X113136666Y-112553333D01*
X113203333Y-112586666D01*
X113236666Y-112620000D01*
X113270000Y-112686666D01*
X111716666Y-113590000D02*
X111716666Y-113923333D01*
X111916666Y-113523333D02*
X111216666Y-113756666D01*
X111916666Y-113990000D01*
X111916666Y-114256666D02*
X111916666Y-114390000D01*
X111883333Y-114456666D01*
X111850000Y-114490000D01*
X111750000Y-114556666D01*
X111616666Y-114590000D01*
X111350000Y-114590000D01*
X111283333Y-114556666D01*
X111250000Y-114523333D01*
X111216666Y-114456666D01*
X111216666Y-114323333D01*
X111250000Y-114256666D01*
X111283333Y-114223333D01*
X111350000Y-114190000D01*
X111516666Y-114190000D01*
X111583333Y-114223333D01*
X111616666Y-114256666D01*
X111650000Y-114323333D01*
X111650000Y-114456666D01*
X111616666Y-114523333D01*
X111583333Y-114556666D01*
X111516666Y-114590000D01*
X109783333Y-96621666D02*
X109783333Y-95921666D01*
X109516666Y-95921666D01*
X109450000Y-95955000D01*
X109416666Y-95988333D01*
X109383333Y-96055000D01*
X109383333Y-96155000D01*
X109416666Y-96221666D01*
X109450000Y-96255000D01*
X109516666Y-96288333D01*
X109783333Y-96288333D01*
X109083333Y-96621666D02*
X109083333Y-95921666D01*
X108916666Y-95921666D01*
X108816666Y-95955000D01*
X108750000Y-96021666D01*
X108716666Y-96088333D01*
X108683333Y-96221666D01*
X108683333Y-96321666D01*
X108716666Y-96455000D01*
X108750000Y-96521666D01*
X108816666Y-96588333D01*
X108916666Y-96621666D01*
X109083333Y-96621666D01*
X108416666Y-95988333D02*
X108383333Y-95955000D01*
X108316666Y-95921666D01*
X108150000Y-95921666D01*
X108083333Y-95955000D01*
X108050000Y-95988333D01*
X108016666Y-96055000D01*
X108016666Y-96121666D01*
X108050000Y-96221666D01*
X108450000Y-96621666D01*
X108016666Y-96621666D01*
X107550000Y-96855000D02*
X107550000Y-95855000D01*
X107050000Y-96621666D02*
X107050000Y-95921666D01*
X106783333Y-95921666D01*
X106716666Y-95955000D01*
X106683333Y-95988333D01*
X106650000Y-96055000D01*
X106650000Y-96155000D01*
X106683333Y-96221666D01*
X106716666Y-96255000D01*
X106783333Y-96288333D01*
X107050000Y-96288333D01*
X106350000Y-96621666D02*
X106350000Y-95921666D01*
X106183333Y-95921666D01*
X106083333Y-95955000D01*
X106016666Y-96021666D01*
X105983333Y-96088333D01*
X105950000Y-96221666D01*
X105950000Y-96321666D01*
X105983333Y-96455000D01*
X106016666Y-96521666D01*
X106083333Y-96588333D01*
X106183333Y-96621666D01*
X106350000Y-96621666D01*
X105716666Y-95921666D02*
X105283333Y-95921666D01*
X105516666Y-96188333D01*
X105416666Y-96188333D01*
X105350000Y-96221666D01*
X105316666Y-96255000D01*
X105283333Y-96321666D01*
X105283333Y-96488333D01*
X105316666Y-96555000D01*
X105350000Y-96588333D01*
X105416666Y-96621666D01*
X105616666Y-96621666D01*
X105683333Y-96588333D01*
X105716666Y-96555000D01*
X108840000Y-117506666D02*
X108873333Y-117606666D01*
X108906666Y-117640000D01*
X108973333Y-117673333D01*
X109073333Y-117673333D01*
X109140000Y-117640000D01*
X109173333Y-117606666D01*
X109206666Y-117540000D01*
X109206666Y-117273333D01*
X108506666Y-117273333D01*
X108506666Y-117506666D01*
X108540000Y-117573333D01*
X108573333Y-117606666D01*
X108640000Y-117640000D01*
X108706666Y-117640000D01*
X108773333Y-117606666D01*
X108806666Y-117573333D01*
X108840000Y-117506666D01*
X108840000Y-117273333D01*
X108573333Y-117940000D02*
X108540000Y-117973333D01*
X108506666Y-118040000D01*
X108506666Y-118206666D01*
X108540000Y-118273333D01*
X108573333Y-118306666D01*
X108640000Y-118340000D01*
X108706666Y-118340000D01*
X108806666Y-118306666D01*
X109206666Y-117906666D01*
X109206666Y-118340000D01*
X107546666Y-120130000D02*
X106846666Y-120130000D01*
X107546666Y-120530000D01*
X106846666Y-120530000D01*
X107546666Y-121263333D02*
X107213333Y-121030000D01*
X107546666Y-120863333D02*
X106846666Y-120863333D01*
X106846666Y-121130000D01*
X106880000Y-121196666D01*
X106913333Y-121230000D01*
X106980000Y-121263333D01*
X107080000Y-121263333D01*
X107146666Y-121230000D01*
X107180000Y-121196666D01*
X107213333Y-121130000D01*
X107213333Y-120863333D01*
X107513333Y-121530000D02*
X107546666Y-121630000D01*
X107546666Y-121796666D01*
X107513333Y-121863333D01*
X107480000Y-121896666D01*
X107413333Y-121930000D01*
X107346666Y-121930000D01*
X107280000Y-121896666D01*
X107246666Y-121863333D01*
X107213333Y-121796666D01*
X107180000Y-121663333D01*
X107146666Y-121596666D01*
X107113333Y-121563333D01*
X107046666Y-121530000D01*
X106980000Y-121530000D01*
X106913333Y-121563333D01*
X106880000Y-121596666D01*
X106846666Y-121663333D01*
X106846666Y-121830000D01*
X106880000Y-121930000D01*
X106846666Y-122130000D02*
X106846666Y-122530000D01*
X107546666Y-122330000D02*
X106846666Y-122330000D01*
D11*
%TO.C,JP4*%
X102410000Y-111550000D02*
X102710000Y-111250000D01*
X102110000Y-111250000D02*
X102710000Y-111250000D01*
X102410000Y-111550000D02*
X102110000Y-111250000D01*
X101560000Y-112450000D02*
X101560000Y-113050000D01*
X105010000Y-111750000D02*
X102210000Y-111750000D01*
X105660000Y-113050000D02*
X105660000Y-112450000D01*
X102210000Y-113750000D02*
X105010000Y-113750000D01*
X101560000Y-113050000D02*
G75*
G03*
X102260000Y-113750000I700000J0D01*
G01*
X102260000Y-111750000D02*
G75*
G03*
X101560000Y-112450000I0J-700000D01*
G01*
X105660000Y-112450000D02*
G75*
G03*
X104960000Y-111750000I-700000J0D01*
G01*
X104960000Y-113750000D02*
G75*
G03*
X105660000Y-113050000I0J700000D01*
G01*
%TO.C,JP3*%
X102370000Y-108980000D02*
X102670000Y-108680000D01*
X102070000Y-108680000D02*
X102670000Y-108680000D01*
X102370000Y-108980000D02*
X102070000Y-108680000D01*
X101520000Y-109880000D02*
X101520000Y-110480000D01*
X104970000Y-109180000D02*
X102170000Y-109180000D01*
X105620000Y-110480000D02*
X105620000Y-109880000D01*
X102170000Y-111180000D02*
X104970000Y-111180000D01*
X101520000Y-110480000D02*
G75*
G03*
X102220000Y-111180000I700000J0D01*
G01*
X102220000Y-109180000D02*
G75*
G03*
X101520000Y-109880000I0J-700000D01*
G01*
X105620000Y-109880000D02*
G75*
G03*
X104920000Y-109180000I-700000J0D01*
G01*
X104920000Y-111180000D02*
G75*
G03*
X105620000Y-110480000I0J700000D01*
G01*
%TO.C,JP1*%
X106329000Y-97143000D02*
X106629000Y-96843000D01*
X106029000Y-96843000D02*
X106629000Y-96843000D01*
X106329000Y-97143000D02*
X106029000Y-96843000D01*
X105479000Y-98043000D02*
X105479000Y-98643000D01*
X108929000Y-97343000D02*
X106129000Y-97343000D01*
X109579000Y-98643000D02*
X109579000Y-98043000D01*
X106129000Y-99343000D02*
X108929000Y-99343000D01*
X105479000Y-98643000D02*
G75*
G03*
X106179000Y-99343000I700000J0D01*
G01*
X106179000Y-97343000D02*
G75*
G03*
X105479000Y-98043000I0J-700000D01*
G01*
X109579000Y-98043000D02*
G75*
G03*
X108879000Y-97343000I-700000J0D01*
G01*
X108879000Y-99343000D02*
G75*
G03*
X109579000Y-98643000I0J700000D01*
G01*
%TO.C,JP2*%
X106373000Y-99653000D02*
X106673000Y-99353000D01*
X106073000Y-99353000D02*
X106673000Y-99353000D01*
X106373000Y-99653000D02*
X106073000Y-99353000D01*
X105523000Y-100553000D02*
X105523000Y-101153000D01*
X108973000Y-99853000D02*
X106173000Y-99853000D01*
X109623000Y-101153000D02*
X109623000Y-100553000D01*
X106173000Y-101853000D02*
X108973000Y-101853000D01*
X105523000Y-101153000D02*
G75*
G03*
X106223000Y-101853000I700000J0D01*
G01*
X106223000Y-99853000D02*
G75*
G03*
X105523000Y-100553000I0J-700000D01*
G01*
X109623000Y-100553000D02*
G75*
G03*
X108923000Y-99853000I-700000J0D01*
G01*
X108923000Y-101853000D02*
G75*
G03*
X109623000Y-101153000I0J700000D01*
G01*
%TO.C,U7*%
X110755000Y-110465000D02*
X110755000Y-112415000D01*
X110755000Y-110465000D02*
X110755000Y-108515000D01*
X105635000Y-110465000D02*
X105635000Y-112415000D01*
X105635000Y-110465000D02*
X105635000Y-107015000D01*
%TO.C,U6*%
X108010000Y-128555000D02*
X105285000Y-128555000D01*
X105285000Y-128555000D02*
X105285000Y-128295000D01*
X108010000Y-128555000D02*
X110735000Y-128555000D01*
X110735000Y-128555000D02*
X110735000Y-128295000D01*
X108010000Y-123105000D02*
X105285000Y-123105000D01*
X105285000Y-123105000D02*
X105285000Y-123365000D01*
X108010000Y-123105000D02*
X110735000Y-123105000D01*
X110735000Y-123105000D02*
X110735000Y-123365000D01*
X110735000Y-123365000D02*
X112410000Y-123365000D01*
%TD*%
M02*
