%TF.GenerationSoftware,KiCad,Pcbnew,(5.1.6-0-10_14)*%
%TF.CreationDate,2022-03-04T18:56:52-06:00*%
%TF.ProjectId,Bonsai_C4,426f6e73-6169-45f4-9334-2e6b69636164,rev?*%
%TF.SameCoordinates,Original*%
%TF.FileFunction,Other,Fab,Top*%
%FSLAX46Y46*%
G04 Gerber Fmt 4.6, Leading zero omitted, Abs format (unit mm)*
G04 Created by KiCad (PCBNEW (5.1.6-0-10_14)) date 2022-03-04 18:56:52*
%MOMM*%
%LPD*%
G01*
G04 APERTURE LIST*
%ADD10C,0.150000*%
%ADD11C,0.100000*%
%ADD12C,0.120000*%
%ADD13C,0.050000*%
%ADD14C,0.025400*%
%ADD15C,0.066040*%
%ADD16C,0.040000*%
%ADD17C,0.075000*%
%ADD18C,0.063500*%
G04 APERTURE END LIST*
D10*
X120395595Y-99642380D02*
X120395595Y-98642380D01*
X120776547Y-98642380D01*
X120871785Y-98690000D01*
X120919404Y-98737619D01*
X120967023Y-98832857D01*
X120967023Y-98975714D01*
X120919404Y-99070952D01*
X120871785Y-99118571D01*
X120776547Y-99166190D01*
X120395595Y-99166190D01*
X121967023Y-99547142D02*
X121919404Y-99594761D01*
X121776547Y-99642380D01*
X121681309Y-99642380D01*
X121538452Y-99594761D01*
X121443214Y-99499523D01*
X121395595Y-99404285D01*
X121347976Y-99213809D01*
X121347976Y-99070952D01*
X121395595Y-98880476D01*
X121443214Y-98785238D01*
X121538452Y-98690000D01*
X121681309Y-98642380D01*
X121776547Y-98642380D01*
X121919404Y-98690000D01*
X121967023Y-98737619D01*
X122728928Y-99118571D02*
X122871785Y-99166190D01*
X122919404Y-99213809D01*
X122967023Y-99309047D01*
X122967023Y-99451904D01*
X122919404Y-99547142D01*
X122871785Y-99594761D01*
X122776547Y-99642380D01*
X122395595Y-99642380D01*
X122395595Y-98642380D01*
X122728928Y-98642380D01*
X122824166Y-98690000D01*
X122871785Y-98737619D01*
X122919404Y-98832857D01*
X122919404Y-98928095D01*
X122871785Y-99023333D01*
X122824166Y-99070952D01*
X122728928Y-99118571D01*
X122395595Y-99118571D01*
X124014642Y-98975714D02*
X124395595Y-98975714D01*
X124157500Y-98642380D02*
X124157500Y-99499523D01*
X124205119Y-99594761D01*
X124300357Y-99642380D01*
X124395595Y-99642380D01*
X124728928Y-99642380D02*
X124728928Y-98642380D01*
X125157500Y-99642380D02*
X125157500Y-99118571D01*
X125109880Y-99023333D01*
X125014642Y-98975714D01*
X124871785Y-98975714D01*
X124776547Y-99023333D01*
X124728928Y-99070952D01*
X125633690Y-99642380D02*
X125633690Y-98975714D01*
X125633690Y-98642380D02*
X125586071Y-98690000D01*
X125633690Y-98737619D01*
X125681309Y-98690000D01*
X125633690Y-98642380D01*
X125633690Y-98737619D01*
X126538452Y-99594761D02*
X126443214Y-99642380D01*
X126252738Y-99642380D01*
X126157500Y-99594761D01*
X126109880Y-99547142D01*
X126062261Y-99451904D01*
X126062261Y-99166190D01*
X126109880Y-99070952D01*
X126157500Y-99023333D01*
X126252738Y-98975714D01*
X126443214Y-98975714D01*
X126538452Y-99023333D01*
X126967023Y-99642380D02*
X126967023Y-98642380D01*
X127062261Y-99261428D02*
X127347976Y-99642380D01*
X127347976Y-98975714D02*
X126967023Y-99356666D01*
X127776547Y-98975714D02*
X127776547Y-99642380D01*
X127776547Y-99070952D02*
X127824166Y-99023333D01*
X127919404Y-98975714D01*
X128062261Y-98975714D01*
X128157500Y-99023333D01*
X128205119Y-99118571D01*
X128205119Y-99642380D01*
X129062261Y-99594761D02*
X128967023Y-99642380D01*
X128776547Y-99642380D01*
X128681309Y-99594761D01*
X128633690Y-99499523D01*
X128633690Y-99118571D01*
X128681309Y-99023333D01*
X128776547Y-98975714D01*
X128967023Y-98975714D01*
X129062261Y-99023333D01*
X129109880Y-99118571D01*
X129109880Y-99213809D01*
X128633690Y-99309047D01*
X129490833Y-99594761D02*
X129586071Y-99642380D01*
X129776547Y-99642380D01*
X129871785Y-99594761D01*
X129919404Y-99499523D01*
X129919404Y-99451904D01*
X129871785Y-99356666D01*
X129776547Y-99309047D01*
X129633690Y-99309047D01*
X129538452Y-99261428D01*
X129490833Y-99166190D01*
X129490833Y-99118571D01*
X129538452Y-99023333D01*
X129633690Y-98975714D01*
X129776547Y-98975714D01*
X129871785Y-99023333D01*
X130300357Y-99594761D02*
X130395595Y-99642380D01*
X130586071Y-99642380D01*
X130681309Y-99594761D01*
X130728928Y-99499523D01*
X130728928Y-99451904D01*
X130681309Y-99356666D01*
X130586071Y-99309047D01*
X130443214Y-99309047D01*
X130347976Y-99261428D01*
X130300357Y-99166190D01*
X130300357Y-99118571D01*
X130347976Y-99023333D01*
X130443214Y-98975714D01*
X130586071Y-98975714D01*
X130681309Y-99023333D01*
X131157500Y-99547142D02*
X131205119Y-99594761D01*
X131157500Y-99642380D01*
X131109880Y-99594761D01*
X131157500Y-99547142D01*
X131157500Y-99642380D01*
X131157500Y-99023333D02*
X131205119Y-99070952D01*
X131157500Y-99118571D01*
X131109880Y-99070952D01*
X131157500Y-99023333D01*
X131157500Y-99118571D01*
X132919404Y-99642380D02*
X132347976Y-99642380D01*
X132633690Y-99642380D02*
X132633690Y-98642380D01*
X132538452Y-98785238D01*
X132443214Y-98880476D01*
X132347976Y-98928095D01*
X133347976Y-99547142D02*
X133395595Y-99594761D01*
X133347976Y-99642380D01*
X133300357Y-99594761D01*
X133347976Y-99547142D01*
X133347976Y-99642380D01*
X134252738Y-98642380D02*
X134062261Y-98642380D01*
X133967023Y-98690000D01*
X133919404Y-98737619D01*
X133824166Y-98880476D01*
X133776547Y-99070952D01*
X133776547Y-99451904D01*
X133824166Y-99547142D01*
X133871785Y-99594761D01*
X133967023Y-99642380D01*
X134157500Y-99642380D01*
X134252738Y-99594761D01*
X134300357Y-99547142D01*
X134347976Y-99451904D01*
X134347976Y-99213809D01*
X134300357Y-99118571D01*
X134252738Y-99070952D01*
X134157500Y-99023333D01*
X133967023Y-99023333D01*
X133871785Y-99070952D01*
X133824166Y-99118571D01*
X133776547Y-99213809D01*
X134776547Y-99642380D02*
X134776547Y-98975714D01*
X134776547Y-99070952D02*
X134824166Y-99023333D01*
X134919404Y-98975714D01*
X135062261Y-98975714D01*
X135157500Y-99023333D01*
X135205119Y-99118571D01*
X135205119Y-99642380D01*
X135205119Y-99118571D02*
X135252738Y-99023333D01*
X135347976Y-98975714D01*
X135490833Y-98975714D01*
X135586071Y-99023333D01*
X135633690Y-99118571D01*
X135633690Y-99642380D01*
X136109880Y-99642380D02*
X136109880Y-98975714D01*
X136109880Y-99070952D02*
X136157500Y-99023333D01*
X136252738Y-98975714D01*
X136395595Y-98975714D01*
X136490833Y-99023333D01*
X136538452Y-99118571D01*
X136538452Y-99642380D01*
X136538452Y-99118571D02*
X136586071Y-99023333D01*
X136681309Y-98975714D01*
X136824166Y-98975714D01*
X136919404Y-99023333D01*
X136967023Y-99118571D01*
X136967023Y-99642380D01*
X120871785Y-101292380D02*
X120395595Y-101292380D01*
X120395595Y-100292380D01*
X121633690Y-101292380D02*
X121633690Y-100768571D01*
X121586071Y-100673333D01*
X121490833Y-100625714D01*
X121300357Y-100625714D01*
X121205119Y-100673333D01*
X121633690Y-101244761D02*
X121538452Y-101292380D01*
X121300357Y-101292380D01*
X121205119Y-101244761D01*
X121157500Y-101149523D01*
X121157500Y-101054285D01*
X121205119Y-100959047D01*
X121300357Y-100911428D01*
X121538452Y-100911428D01*
X121633690Y-100863809D01*
X122014642Y-100625714D02*
X122252738Y-101292380D01*
X122490833Y-100625714D02*
X122252738Y-101292380D01*
X122157500Y-101530476D01*
X122109880Y-101578095D01*
X122014642Y-101625714D01*
X123252738Y-101244761D02*
X123157500Y-101292380D01*
X122967023Y-101292380D01*
X122871785Y-101244761D01*
X122824166Y-101149523D01*
X122824166Y-100768571D01*
X122871785Y-100673333D01*
X122967023Y-100625714D01*
X123157500Y-100625714D01*
X123252738Y-100673333D01*
X123300357Y-100768571D01*
X123300357Y-100863809D01*
X122824166Y-100959047D01*
X123728928Y-101292380D02*
X123728928Y-100625714D01*
X123728928Y-100816190D02*
X123776547Y-100720952D01*
X123824166Y-100673333D01*
X123919404Y-100625714D01*
X124014642Y-100625714D01*
X125538452Y-101244761D02*
X125443214Y-101292380D01*
X125252738Y-101292380D01*
X125157500Y-101244761D01*
X125109880Y-101197142D01*
X125062261Y-101101904D01*
X125062261Y-100816190D01*
X125109880Y-100720952D01*
X125157500Y-100673333D01*
X125252738Y-100625714D01*
X125443214Y-100625714D01*
X125538452Y-100673333D01*
X126109880Y-101292380D02*
X126014642Y-101244761D01*
X125967023Y-101197142D01*
X125919404Y-101101904D01*
X125919404Y-100816190D01*
X125967023Y-100720952D01*
X126014642Y-100673333D01*
X126109880Y-100625714D01*
X126252738Y-100625714D01*
X126347976Y-100673333D01*
X126395595Y-100720952D01*
X126443214Y-100816190D01*
X126443214Y-101101904D01*
X126395595Y-101197142D01*
X126347976Y-101244761D01*
X126252738Y-101292380D01*
X126109880Y-101292380D01*
X127300357Y-100625714D02*
X127300357Y-101292380D01*
X126871785Y-100625714D02*
X126871785Y-101149523D01*
X126919404Y-101244761D01*
X127014642Y-101292380D01*
X127157500Y-101292380D01*
X127252738Y-101244761D01*
X127300357Y-101197142D01*
X127776547Y-100625714D02*
X127776547Y-101292380D01*
X127776547Y-100720952D02*
X127824166Y-100673333D01*
X127919404Y-100625714D01*
X128062261Y-100625714D01*
X128157500Y-100673333D01*
X128205119Y-100768571D01*
X128205119Y-101292380D01*
X128538452Y-100625714D02*
X128919404Y-100625714D01*
X128681309Y-100292380D02*
X128681309Y-101149523D01*
X128728928Y-101244761D01*
X128824166Y-101292380D01*
X128919404Y-101292380D01*
X129252738Y-101197142D02*
X129300357Y-101244761D01*
X129252738Y-101292380D01*
X129205119Y-101244761D01*
X129252738Y-101197142D01*
X129252738Y-101292380D01*
X129252738Y-100673333D02*
X129300357Y-100720952D01*
X129252738Y-100768571D01*
X129205119Y-100720952D01*
X129252738Y-100673333D01*
X129252738Y-100768571D01*
X130919404Y-100625714D02*
X130919404Y-101292380D01*
X130681309Y-100244761D02*
X130443214Y-100959047D01*
X131062261Y-100959047D01*
X132681309Y-101292380D02*
X132205119Y-101292380D01*
X132205119Y-100292380D01*
X133443214Y-101292380D02*
X133443214Y-100768571D01*
X133395595Y-100673333D01*
X133300357Y-100625714D01*
X133109880Y-100625714D01*
X133014642Y-100673333D01*
X133443214Y-101244761D02*
X133347976Y-101292380D01*
X133109880Y-101292380D01*
X133014642Y-101244761D01*
X132967023Y-101149523D01*
X132967023Y-101054285D01*
X133014642Y-100959047D01*
X133109880Y-100911428D01*
X133347976Y-100911428D01*
X133443214Y-100863809D01*
X133824166Y-100625714D02*
X134062261Y-101292380D01*
X134300357Y-100625714D02*
X134062261Y-101292380D01*
X133967023Y-101530476D01*
X133919404Y-101578095D01*
X133824166Y-101625714D01*
X135062261Y-101244761D02*
X134967023Y-101292380D01*
X134776547Y-101292380D01*
X134681309Y-101244761D01*
X134633690Y-101149523D01*
X134633690Y-100768571D01*
X134681309Y-100673333D01*
X134776547Y-100625714D01*
X134967023Y-100625714D01*
X135062261Y-100673333D01*
X135109880Y-100768571D01*
X135109880Y-100863809D01*
X134633690Y-100959047D01*
X135538452Y-101292380D02*
X135538452Y-100625714D01*
X135538452Y-100816190D02*
X135586071Y-100720952D01*
X135633690Y-100673333D01*
X135728928Y-100625714D01*
X135824166Y-100625714D01*
X120967023Y-102847142D02*
X120919404Y-102894761D01*
X120776547Y-102942380D01*
X120681309Y-102942380D01*
X120538452Y-102894761D01*
X120443214Y-102799523D01*
X120395595Y-102704285D01*
X120347976Y-102513809D01*
X120347976Y-102370952D01*
X120395595Y-102180476D01*
X120443214Y-102085238D01*
X120538452Y-101990000D01*
X120681309Y-101942380D01*
X120776547Y-101942380D01*
X120919404Y-101990000D01*
X120967023Y-102037619D01*
X121538452Y-102942380D02*
X121443214Y-102894761D01*
X121395595Y-102847142D01*
X121347976Y-102751904D01*
X121347976Y-102466190D01*
X121395595Y-102370952D01*
X121443214Y-102323333D01*
X121538452Y-102275714D01*
X121681309Y-102275714D01*
X121776547Y-102323333D01*
X121824166Y-102370952D01*
X121871785Y-102466190D01*
X121871785Y-102751904D01*
X121824166Y-102847142D01*
X121776547Y-102894761D01*
X121681309Y-102942380D01*
X121538452Y-102942380D01*
X122300357Y-102275714D02*
X122300357Y-103275714D01*
X122300357Y-102323333D02*
X122395595Y-102275714D01*
X122586071Y-102275714D01*
X122681309Y-102323333D01*
X122728928Y-102370952D01*
X122776547Y-102466190D01*
X122776547Y-102751904D01*
X122728928Y-102847142D01*
X122681309Y-102894761D01*
X122586071Y-102942380D01*
X122395595Y-102942380D01*
X122300357Y-102894761D01*
X123205119Y-102275714D02*
X123205119Y-103275714D01*
X123205119Y-102323333D02*
X123300357Y-102275714D01*
X123490833Y-102275714D01*
X123586071Y-102323333D01*
X123633690Y-102370952D01*
X123681309Y-102466190D01*
X123681309Y-102751904D01*
X123633690Y-102847142D01*
X123586071Y-102894761D01*
X123490833Y-102942380D01*
X123300357Y-102942380D01*
X123205119Y-102894761D01*
X124490833Y-102894761D02*
X124395595Y-102942380D01*
X124205119Y-102942380D01*
X124109880Y-102894761D01*
X124062261Y-102799523D01*
X124062261Y-102418571D01*
X124109880Y-102323333D01*
X124205119Y-102275714D01*
X124395595Y-102275714D01*
X124490833Y-102323333D01*
X124538452Y-102418571D01*
X124538452Y-102513809D01*
X124062261Y-102609047D01*
X124967023Y-102942380D02*
X124967023Y-102275714D01*
X124967023Y-102466190D02*
X125014642Y-102370952D01*
X125062261Y-102323333D01*
X125157500Y-102275714D01*
X125252738Y-102275714D01*
X126252738Y-102275714D02*
X126443214Y-102942380D01*
X126633690Y-102466190D01*
X126824166Y-102942380D01*
X127014642Y-102275714D01*
X127776547Y-102894761D02*
X127681309Y-102942380D01*
X127490833Y-102942380D01*
X127395595Y-102894761D01*
X127347976Y-102799523D01*
X127347976Y-102418571D01*
X127395595Y-102323333D01*
X127490833Y-102275714D01*
X127681309Y-102275714D01*
X127776547Y-102323333D01*
X127824166Y-102418571D01*
X127824166Y-102513809D01*
X127347976Y-102609047D01*
X128252738Y-102942380D02*
X128252738Y-102275714D01*
X128252738Y-101942380D02*
X128205119Y-101990000D01*
X128252738Y-102037619D01*
X128300357Y-101990000D01*
X128252738Y-101942380D01*
X128252738Y-102037619D01*
X129157500Y-102275714D02*
X129157500Y-103085238D01*
X129109880Y-103180476D01*
X129062261Y-103228095D01*
X128967023Y-103275714D01*
X128824166Y-103275714D01*
X128728928Y-103228095D01*
X129157500Y-102894761D02*
X129062261Y-102942380D01*
X128871785Y-102942380D01*
X128776547Y-102894761D01*
X128728928Y-102847142D01*
X128681309Y-102751904D01*
X128681309Y-102466190D01*
X128728928Y-102370952D01*
X128776547Y-102323333D01*
X128871785Y-102275714D01*
X129062261Y-102275714D01*
X129157500Y-102323333D01*
X129633690Y-102942380D02*
X129633690Y-101942380D01*
X130062261Y-102942380D02*
X130062261Y-102418571D01*
X130014642Y-102323333D01*
X129919404Y-102275714D01*
X129776547Y-102275714D01*
X129681309Y-102323333D01*
X129633690Y-102370952D01*
X130395595Y-102275714D02*
X130776547Y-102275714D01*
X130538452Y-101942380D02*
X130538452Y-102799523D01*
X130586071Y-102894761D01*
X130681309Y-102942380D01*
X130776547Y-102942380D01*
X131109880Y-102847142D02*
X131157500Y-102894761D01*
X131109880Y-102942380D01*
X131062261Y-102894761D01*
X131109880Y-102847142D01*
X131109880Y-102942380D01*
X131109880Y-102323333D02*
X131157500Y-102370952D01*
X131109880Y-102418571D01*
X131062261Y-102370952D01*
X131109880Y-102323333D01*
X131109880Y-102418571D01*
X132871785Y-102942380D02*
X132300357Y-102942380D01*
X132586071Y-102942380D02*
X132586071Y-101942380D01*
X132490833Y-102085238D01*
X132395595Y-102180476D01*
X132300357Y-102228095D01*
X133443214Y-102942380D02*
X133347976Y-102894761D01*
X133300357Y-102847142D01*
X133252738Y-102751904D01*
X133252738Y-102466190D01*
X133300357Y-102370952D01*
X133347976Y-102323333D01*
X133443214Y-102275714D01*
X133586071Y-102275714D01*
X133681309Y-102323333D01*
X133728928Y-102370952D01*
X133776547Y-102466190D01*
X133776547Y-102751904D01*
X133728928Y-102847142D01*
X133681309Y-102894761D01*
X133586071Y-102942380D01*
X133443214Y-102942380D01*
X134109880Y-102275714D02*
X134633690Y-102275714D01*
X134109880Y-102942380D01*
X134633690Y-102942380D01*
X120728928Y-104068571D02*
X120395595Y-104068571D01*
X120395595Y-104592380D02*
X120395595Y-103592380D01*
X120871785Y-103592380D01*
X121252738Y-104592380D02*
X121252738Y-103925714D01*
X121252738Y-103592380D02*
X121205119Y-103640000D01*
X121252738Y-103687619D01*
X121300357Y-103640000D01*
X121252738Y-103592380D01*
X121252738Y-103687619D01*
X121728928Y-103925714D02*
X121728928Y-104592380D01*
X121728928Y-104020952D02*
X121776547Y-103973333D01*
X121871785Y-103925714D01*
X122014642Y-103925714D01*
X122109880Y-103973333D01*
X122157500Y-104068571D01*
X122157500Y-104592380D01*
X122633690Y-104592380D02*
X122633690Y-103925714D01*
X122633690Y-103592380D02*
X122586071Y-103640000D01*
X122633690Y-103687619D01*
X122681309Y-103640000D01*
X122633690Y-103592380D01*
X122633690Y-103687619D01*
X123062261Y-104544761D02*
X123157500Y-104592380D01*
X123347976Y-104592380D01*
X123443214Y-104544761D01*
X123490833Y-104449523D01*
X123490833Y-104401904D01*
X123443214Y-104306666D01*
X123347976Y-104259047D01*
X123205119Y-104259047D01*
X123109880Y-104211428D01*
X123062261Y-104116190D01*
X123062261Y-104068571D01*
X123109880Y-103973333D01*
X123205119Y-103925714D01*
X123347976Y-103925714D01*
X123443214Y-103973333D01*
X123919404Y-104592380D02*
X123919404Y-103592380D01*
X124347976Y-104592380D02*
X124347976Y-104068571D01*
X124300357Y-103973333D01*
X124205119Y-103925714D01*
X124062261Y-103925714D01*
X123967023Y-103973333D01*
X123919404Y-104020952D01*
X124824166Y-104497142D02*
X124871785Y-104544761D01*
X124824166Y-104592380D01*
X124776547Y-104544761D01*
X124824166Y-104497142D01*
X124824166Y-104592380D01*
X124824166Y-103973333D02*
X124871785Y-104020952D01*
X124824166Y-104068571D01*
X124776547Y-104020952D01*
X124824166Y-103973333D01*
X124824166Y-104068571D01*
X126062261Y-104068571D02*
X126395595Y-104068571D01*
X126538452Y-104592380D02*
X126062261Y-104592380D01*
X126062261Y-103592380D01*
X126538452Y-103592380D01*
X126967023Y-104592380D02*
X126967023Y-103592380D01*
X127538452Y-104592380D01*
X127538452Y-103592380D01*
X128014642Y-104592380D02*
X128014642Y-103592380D01*
X129014642Y-103640000D02*
X128919404Y-103592380D01*
X128776547Y-103592380D01*
X128633690Y-103640000D01*
X128538452Y-103735238D01*
X128490833Y-103830476D01*
X128443214Y-104020952D01*
X128443214Y-104163809D01*
X128490833Y-104354285D01*
X128538452Y-104449523D01*
X128633690Y-104544761D01*
X128776547Y-104592380D01*
X128871785Y-104592380D01*
X129014642Y-104544761D01*
X129062261Y-104497142D01*
X129062261Y-104163809D01*
X128871785Y-104163809D01*
X120728928Y-105718571D02*
X120871785Y-105766190D01*
X120919404Y-105813809D01*
X120967023Y-105909047D01*
X120967023Y-106051904D01*
X120919404Y-106147142D01*
X120871785Y-106194761D01*
X120776547Y-106242380D01*
X120395595Y-106242380D01*
X120395595Y-105242380D01*
X120728928Y-105242380D01*
X120824166Y-105290000D01*
X120871785Y-105337619D01*
X120919404Y-105432857D01*
X120919404Y-105528095D01*
X120871785Y-105623333D01*
X120824166Y-105670952D01*
X120728928Y-105718571D01*
X120395595Y-105718571D01*
X121538452Y-106242380D02*
X121443214Y-106194761D01*
X121395595Y-106099523D01*
X121395595Y-105242380D01*
X122347976Y-106242380D02*
X122347976Y-105718571D01*
X122300357Y-105623333D01*
X122205119Y-105575714D01*
X122014642Y-105575714D01*
X121919404Y-105623333D01*
X122347976Y-106194761D02*
X122252738Y-106242380D01*
X122014642Y-106242380D01*
X121919404Y-106194761D01*
X121871785Y-106099523D01*
X121871785Y-106004285D01*
X121919404Y-105909047D01*
X122014642Y-105861428D01*
X122252738Y-105861428D01*
X122347976Y-105813809D01*
X123252738Y-106194761D02*
X123157500Y-106242380D01*
X122967023Y-106242380D01*
X122871785Y-106194761D01*
X122824166Y-106147142D01*
X122776547Y-106051904D01*
X122776547Y-105766190D01*
X122824166Y-105670952D01*
X122871785Y-105623333D01*
X122967023Y-105575714D01*
X123157500Y-105575714D01*
X123252738Y-105623333D01*
X123681309Y-106242380D02*
X123681309Y-105242380D01*
X123776547Y-105861428D02*
X124062261Y-106242380D01*
X124062261Y-105575714D02*
X123681309Y-105956666D01*
X125205119Y-106194761D02*
X125300357Y-106242380D01*
X125490833Y-106242380D01*
X125586071Y-106194761D01*
X125633690Y-106099523D01*
X125633690Y-106051904D01*
X125586071Y-105956666D01*
X125490833Y-105909047D01*
X125347976Y-105909047D01*
X125252738Y-105861428D01*
X125205119Y-105766190D01*
X125205119Y-105718571D01*
X125252738Y-105623333D01*
X125347976Y-105575714D01*
X125490833Y-105575714D01*
X125586071Y-105623333D01*
X126205119Y-106242380D02*
X126109880Y-106194761D01*
X126062261Y-106147142D01*
X126014642Y-106051904D01*
X126014642Y-105766190D01*
X126062261Y-105670952D01*
X126109880Y-105623333D01*
X126205119Y-105575714D01*
X126347976Y-105575714D01*
X126443214Y-105623333D01*
X126490833Y-105670952D01*
X126538452Y-105766190D01*
X126538452Y-106051904D01*
X126490833Y-106147142D01*
X126443214Y-106194761D01*
X126347976Y-106242380D01*
X126205119Y-106242380D01*
X127109880Y-106242380D02*
X127014642Y-106194761D01*
X126967023Y-106099523D01*
X126967023Y-105242380D01*
X127919404Y-106242380D02*
X127919404Y-105242380D01*
X127919404Y-106194761D02*
X127824166Y-106242380D01*
X127633690Y-106242380D01*
X127538452Y-106194761D01*
X127490833Y-106147142D01*
X127443214Y-106051904D01*
X127443214Y-105766190D01*
X127490833Y-105670952D01*
X127538452Y-105623333D01*
X127633690Y-105575714D01*
X127824166Y-105575714D01*
X127919404Y-105623333D01*
X128776547Y-106194761D02*
X128681309Y-106242380D01*
X128490833Y-106242380D01*
X128395595Y-106194761D01*
X128347976Y-106099523D01*
X128347976Y-105718571D01*
X128395595Y-105623333D01*
X128490833Y-105575714D01*
X128681309Y-105575714D01*
X128776547Y-105623333D01*
X128824166Y-105718571D01*
X128824166Y-105813809D01*
X128347976Y-105909047D01*
X129252738Y-106242380D02*
X129252738Y-105575714D01*
X129252738Y-105766190D02*
X129300357Y-105670952D01*
X129347976Y-105623333D01*
X129443214Y-105575714D01*
X129538452Y-105575714D01*
X129871785Y-106242380D02*
X129871785Y-105575714D01*
X129871785Y-105670952D02*
X129919404Y-105623333D01*
X130014642Y-105575714D01*
X130157500Y-105575714D01*
X130252738Y-105623333D01*
X130300357Y-105718571D01*
X130300357Y-106242380D01*
X130300357Y-105718571D02*
X130347976Y-105623333D01*
X130443214Y-105575714D01*
X130586071Y-105575714D01*
X130681309Y-105623333D01*
X130728928Y-105718571D01*
X130728928Y-106242380D01*
X131633690Y-106242380D02*
X131633690Y-105718571D01*
X131586071Y-105623333D01*
X131490833Y-105575714D01*
X131300357Y-105575714D01*
X131205119Y-105623333D01*
X131633690Y-106194761D02*
X131538452Y-106242380D01*
X131300357Y-106242380D01*
X131205119Y-106194761D01*
X131157500Y-106099523D01*
X131157500Y-106004285D01*
X131205119Y-105909047D01*
X131300357Y-105861428D01*
X131538452Y-105861428D01*
X131633690Y-105813809D01*
X132062261Y-106194761D02*
X132157500Y-106242380D01*
X132347976Y-106242380D01*
X132443214Y-106194761D01*
X132490833Y-106099523D01*
X132490833Y-106051904D01*
X132443214Y-105956666D01*
X132347976Y-105909047D01*
X132205119Y-105909047D01*
X132109880Y-105861428D01*
X132062261Y-105766190D01*
X132062261Y-105718571D01*
X132109880Y-105623333D01*
X132205119Y-105575714D01*
X132347976Y-105575714D01*
X132443214Y-105623333D01*
X132919404Y-106242380D02*
X132919404Y-105242380D01*
X133014642Y-105861428D02*
X133300357Y-106242380D01*
X133300357Y-105575714D02*
X132919404Y-105956666D01*
X133776547Y-106194761D02*
X133776547Y-106242380D01*
X133728928Y-106337619D01*
X133681309Y-106385238D01*
X134871785Y-105575714D02*
X135062261Y-106242380D01*
X135252738Y-105766190D01*
X135443214Y-106242380D01*
X135633690Y-105575714D01*
X136014642Y-106242380D02*
X136014642Y-105242380D01*
X136443214Y-106242380D02*
X136443214Y-105718571D01*
X136395595Y-105623333D01*
X136300357Y-105575714D01*
X136157500Y-105575714D01*
X136062261Y-105623333D01*
X136014642Y-105670952D01*
X136919404Y-106242380D02*
X136919404Y-105575714D01*
X136919404Y-105242380D02*
X136871785Y-105290000D01*
X136919404Y-105337619D01*
X136967023Y-105290000D01*
X136919404Y-105242380D01*
X136919404Y-105337619D01*
X137252738Y-105575714D02*
X137633690Y-105575714D01*
X137395595Y-105242380D02*
X137395595Y-106099523D01*
X137443214Y-106194761D01*
X137538452Y-106242380D01*
X137633690Y-106242380D01*
X138347976Y-106194761D02*
X138252738Y-106242380D01*
X138062261Y-106242380D01*
X137967023Y-106194761D01*
X137919404Y-106099523D01*
X137919404Y-105718571D01*
X137967023Y-105623333D01*
X138062261Y-105575714D01*
X138252738Y-105575714D01*
X138347976Y-105623333D01*
X138395595Y-105718571D01*
X138395595Y-105813809D01*
X137919404Y-105909047D01*
X139728928Y-106242380D02*
X139633690Y-106194761D01*
X139586071Y-106099523D01*
X139586071Y-105242380D01*
X140490833Y-106194761D02*
X140395595Y-106242380D01*
X140205119Y-106242380D01*
X140109880Y-106194761D01*
X140062261Y-106099523D01*
X140062261Y-105718571D01*
X140109880Y-105623333D01*
X140205119Y-105575714D01*
X140395595Y-105575714D01*
X140490833Y-105623333D01*
X140538452Y-105718571D01*
X140538452Y-105813809D01*
X140062261Y-105909047D01*
X141395595Y-105575714D02*
X141395595Y-106385238D01*
X141347976Y-106480476D01*
X141300357Y-106528095D01*
X141205119Y-106575714D01*
X141062261Y-106575714D01*
X140967023Y-106528095D01*
X141395595Y-106194761D02*
X141300357Y-106242380D01*
X141109880Y-106242380D01*
X141014642Y-106194761D01*
X140967023Y-106147142D01*
X140919404Y-106051904D01*
X140919404Y-105766190D01*
X140967023Y-105670952D01*
X141014642Y-105623333D01*
X141109880Y-105575714D01*
X141300357Y-105575714D01*
X141395595Y-105623333D01*
X142252738Y-106194761D02*
X142157500Y-106242380D01*
X141967023Y-106242380D01*
X141871785Y-106194761D01*
X141824166Y-106099523D01*
X141824166Y-105718571D01*
X141871785Y-105623333D01*
X141967023Y-105575714D01*
X142157500Y-105575714D01*
X142252738Y-105623333D01*
X142300357Y-105718571D01*
X142300357Y-105813809D01*
X141824166Y-105909047D01*
X142728928Y-105575714D02*
X142728928Y-106242380D01*
X142728928Y-105670952D02*
X142776547Y-105623333D01*
X142871785Y-105575714D01*
X143014642Y-105575714D01*
X143109880Y-105623333D01*
X143157500Y-105718571D01*
X143157500Y-106242380D01*
X144062261Y-106242380D02*
X144062261Y-105242380D01*
X144062261Y-106194761D02*
X143967023Y-106242380D01*
X143776547Y-106242380D01*
X143681309Y-106194761D01*
X143633690Y-106147142D01*
X143586071Y-106051904D01*
X143586071Y-105766190D01*
X143633690Y-105670952D01*
X143681309Y-105623333D01*
X143776547Y-105575714D01*
X143967023Y-105575714D01*
X144062261Y-105623333D01*
X145300357Y-106242380D02*
X145300357Y-105575714D01*
X145300357Y-105242380D02*
X145252738Y-105290000D01*
X145300357Y-105337619D01*
X145347976Y-105290000D01*
X145300357Y-105242380D01*
X145300357Y-105337619D01*
X145776547Y-105575714D02*
X145776547Y-106242380D01*
X145776547Y-105670952D02*
X145824166Y-105623333D01*
X145919404Y-105575714D01*
X146062261Y-105575714D01*
X146157500Y-105623333D01*
X146205119Y-105718571D01*
X146205119Y-106242380D01*
X146681309Y-106242380D02*
X146681309Y-105242380D01*
X146776547Y-105861428D02*
X147062261Y-106242380D01*
X147062261Y-105575714D02*
X146681309Y-105956666D01*
X120347976Y-107844761D02*
X120490833Y-107892380D01*
X120728928Y-107892380D01*
X120824166Y-107844761D01*
X120871785Y-107797142D01*
X120919404Y-107701904D01*
X120919404Y-107606666D01*
X120871785Y-107511428D01*
X120824166Y-107463809D01*
X120728928Y-107416190D01*
X120538452Y-107368571D01*
X120443214Y-107320952D01*
X120395595Y-107273333D01*
X120347976Y-107178095D01*
X120347976Y-107082857D01*
X120395595Y-106987619D01*
X120443214Y-106940000D01*
X120538452Y-106892380D01*
X120776547Y-106892380D01*
X120919404Y-106940000D01*
X121347976Y-107892380D02*
X121347976Y-107225714D01*
X121347976Y-107320952D02*
X121395595Y-107273333D01*
X121490833Y-107225714D01*
X121633690Y-107225714D01*
X121728928Y-107273333D01*
X121776547Y-107368571D01*
X121776547Y-107892380D01*
X121776547Y-107368571D02*
X121824166Y-107273333D01*
X121919404Y-107225714D01*
X122062261Y-107225714D01*
X122157500Y-107273333D01*
X122205119Y-107368571D01*
X122205119Y-107892380D01*
X122824166Y-107892380D02*
X122728928Y-107844761D01*
X122681309Y-107797142D01*
X122633690Y-107701904D01*
X122633690Y-107416190D01*
X122681309Y-107320952D01*
X122728928Y-107273333D01*
X122824166Y-107225714D01*
X122967023Y-107225714D01*
X123062261Y-107273333D01*
X123109880Y-107320952D01*
X123157500Y-107416190D01*
X123157500Y-107701904D01*
X123109880Y-107797142D01*
X123062261Y-107844761D01*
X122967023Y-107892380D01*
X122824166Y-107892380D01*
X123728928Y-107892380D02*
X123633690Y-107844761D01*
X123586071Y-107797142D01*
X123538452Y-107701904D01*
X123538452Y-107416190D01*
X123586071Y-107320952D01*
X123633690Y-107273333D01*
X123728928Y-107225714D01*
X123871785Y-107225714D01*
X123967023Y-107273333D01*
X124014642Y-107320952D01*
X124062261Y-107416190D01*
X124062261Y-107701904D01*
X124014642Y-107797142D01*
X123967023Y-107844761D01*
X123871785Y-107892380D01*
X123728928Y-107892380D01*
X124347976Y-107225714D02*
X124728928Y-107225714D01*
X124490833Y-106892380D02*
X124490833Y-107749523D01*
X124538452Y-107844761D01*
X124633690Y-107892380D01*
X124728928Y-107892380D01*
X125062261Y-107892380D02*
X125062261Y-106892380D01*
X125490833Y-107892380D02*
X125490833Y-107368571D01*
X125443214Y-107273333D01*
X125347976Y-107225714D01*
X125205119Y-107225714D01*
X125109880Y-107273333D01*
X125062261Y-107320952D01*
X127157500Y-107892380D02*
X127157500Y-107368571D01*
X127109880Y-107273333D01*
X127014642Y-107225714D01*
X126824166Y-107225714D01*
X126728928Y-107273333D01*
X127157500Y-107844761D02*
X127062261Y-107892380D01*
X126824166Y-107892380D01*
X126728928Y-107844761D01*
X126681309Y-107749523D01*
X126681309Y-107654285D01*
X126728928Y-107559047D01*
X126824166Y-107511428D01*
X127062261Y-107511428D01*
X127157500Y-107463809D01*
X127776547Y-107892380D02*
X127681309Y-107844761D01*
X127633690Y-107749523D01*
X127633690Y-106892380D01*
X128300357Y-107892380D02*
X128205119Y-107844761D01*
X128157500Y-107749523D01*
X128157500Y-106892380D01*
X129824166Y-107844761D02*
X129728928Y-107892380D01*
X129538452Y-107892380D01*
X129443214Y-107844761D01*
X129395595Y-107749523D01*
X129395595Y-107368571D01*
X129443214Y-107273333D01*
X129538452Y-107225714D01*
X129728928Y-107225714D01*
X129824166Y-107273333D01*
X129871785Y-107368571D01*
X129871785Y-107463809D01*
X129395595Y-107559047D01*
X130728928Y-107892380D02*
X130728928Y-106892380D01*
X130728928Y-107844761D02*
X130633690Y-107892380D01*
X130443214Y-107892380D01*
X130347976Y-107844761D01*
X130300357Y-107797142D01*
X130252738Y-107701904D01*
X130252738Y-107416190D01*
X130300357Y-107320952D01*
X130347976Y-107273333D01*
X130443214Y-107225714D01*
X130633690Y-107225714D01*
X130728928Y-107273333D01*
X131633690Y-107225714D02*
X131633690Y-108035238D01*
X131586071Y-108130476D01*
X131538452Y-108178095D01*
X131443214Y-108225714D01*
X131300357Y-108225714D01*
X131205119Y-108178095D01*
X131633690Y-107844761D02*
X131538452Y-107892380D01*
X131347976Y-107892380D01*
X131252738Y-107844761D01*
X131205119Y-107797142D01*
X131157500Y-107701904D01*
X131157500Y-107416190D01*
X131205119Y-107320952D01*
X131252738Y-107273333D01*
X131347976Y-107225714D01*
X131538452Y-107225714D01*
X131633690Y-107273333D01*
X132490833Y-107844761D02*
X132395595Y-107892380D01*
X132205119Y-107892380D01*
X132109880Y-107844761D01*
X132062261Y-107749523D01*
X132062261Y-107368571D01*
X132109880Y-107273333D01*
X132205119Y-107225714D01*
X132395595Y-107225714D01*
X132490833Y-107273333D01*
X132538452Y-107368571D01*
X132538452Y-107463809D01*
X132062261Y-107559047D01*
X132919404Y-107844761D02*
X133014642Y-107892380D01*
X133205119Y-107892380D01*
X133300357Y-107844761D01*
X133347976Y-107749523D01*
X133347976Y-107701904D01*
X133300357Y-107606666D01*
X133205119Y-107559047D01*
X133062261Y-107559047D01*
X132967023Y-107511428D01*
X132919404Y-107416190D01*
X132919404Y-107368571D01*
X132967023Y-107273333D01*
X133062261Y-107225714D01*
X133205119Y-107225714D01*
X133300357Y-107273333D01*
X134824166Y-108273333D02*
X134776547Y-108225714D01*
X134681309Y-108082857D01*
X134633690Y-107987619D01*
X134586071Y-107844761D01*
X134538452Y-107606666D01*
X134538452Y-107416190D01*
X134586071Y-107178095D01*
X134633690Y-107035238D01*
X134681309Y-106940000D01*
X134776547Y-106797142D01*
X134824166Y-106749523D01*
X135633690Y-107892380D02*
X135633690Y-106892380D01*
X135633690Y-107844761D02*
X135538452Y-107892380D01*
X135347976Y-107892380D01*
X135252738Y-107844761D01*
X135205119Y-107797142D01*
X135157500Y-107701904D01*
X135157500Y-107416190D01*
X135205119Y-107320952D01*
X135252738Y-107273333D01*
X135347976Y-107225714D01*
X135538452Y-107225714D01*
X135633690Y-107273333D01*
X136490833Y-107844761D02*
X136395595Y-107892380D01*
X136205119Y-107892380D01*
X136109880Y-107844761D01*
X136062261Y-107749523D01*
X136062261Y-107368571D01*
X136109880Y-107273333D01*
X136205119Y-107225714D01*
X136395595Y-107225714D01*
X136490833Y-107273333D01*
X136538452Y-107368571D01*
X136538452Y-107463809D01*
X136062261Y-107559047D01*
X136967023Y-107225714D02*
X136967023Y-108225714D01*
X136967023Y-107273333D02*
X137062261Y-107225714D01*
X137252738Y-107225714D01*
X137347976Y-107273333D01*
X137395595Y-107320952D01*
X137443214Y-107416190D01*
X137443214Y-107701904D01*
X137395595Y-107797142D01*
X137347976Y-107844761D01*
X137252738Y-107892380D01*
X137062261Y-107892380D01*
X136967023Y-107844761D01*
X138300357Y-107892380D02*
X138300357Y-107368571D01*
X138252738Y-107273333D01*
X138157500Y-107225714D01*
X137967023Y-107225714D01*
X137871785Y-107273333D01*
X138300357Y-107844761D02*
X138205119Y-107892380D01*
X137967023Y-107892380D01*
X137871785Y-107844761D01*
X137824166Y-107749523D01*
X137824166Y-107654285D01*
X137871785Y-107559047D01*
X137967023Y-107511428D01*
X138205119Y-107511428D01*
X138300357Y-107463809D01*
X138776547Y-107225714D02*
X138776547Y-107892380D01*
X138776547Y-107320952D02*
X138824166Y-107273333D01*
X138919404Y-107225714D01*
X139062261Y-107225714D01*
X139157500Y-107273333D01*
X139205119Y-107368571D01*
X139205119Y-107892380D01*
X140062261Y-107844761D02*
X139967023Y-107892380D01*
X139776547Y-107892380D01*
X139681309Y-107844761D01*
X139633690Y-107749523D01*
X139633690Y-107368571D01*
X139681309Y-107273333D01*
X139776547Y-107225714D01*
X139967023Y-107225714D01*
X140062261Y-107273333D01*
X140109880Y-107368571D01*
X140109880Y-107463809D01*
X139633690Y-107559047D01*
X140681309Y-107892380D02*
X140586071Y-107844761D01*
X140538452Y-107749523D01*
X140538452Y-106892380D01*
X141062261Y-107892380D02*
X141062261Y-107225714D01*
X141062261Y-106892380D02*
X141014642Y-106940000D01*
X141062261Y-106987619D01*
X141109880Y-106940000D01*
X141062261Y-106892380D01*
X141062261Y-106987619D01*
X141538452Y-107225714D02*
X141538452Y-107892380D01*
X141538452Y-107320952D02*
X141586071Y-107273333D01*
X141681309Y-107225714D01*
X141824166Y-107225714D01*
X141919404Y-107273333D01*
X141967023Y-107368571D01*
X141967023Y-107892380D01*
X142871785Y-107225714D02*
X142871785Y-108035238D01*
X142824166Y-108130476D01*
X142776547Y-108178095D01*
X142681309Y-108225714D01*
X142538452Y-108225714D01*
X142443214Y-108178095D01*
X142871785Y-107844761D02*
X142776547Y-107892380D01*
X142586071Y-107892380D01*
X142490833Y-107844761D01*
X142443214Y-107797142D01*
X142395595Y-107701904D01*
X142395595Y-107416190D01*
X142443214Y-107320952D01*
X142490833Y-107273333D01*
X142586071Y-107225714D01*
X142776547Y-107225714D01*
X142871785Y-107273333D01*
X144109880Y-107892380D02*
X144109880Y-107225714D01*
X144109880Y-107416190D02*
X144157500Y-107320952D01*
X144205119Y-107273333D01*
X144300357Y-107225714D01*
X144395595Y-107225714D01*
X144871785Y-107892380D02*
X144776547Y-107844761D01*
X144728928Y-107797142D01*
X144681309Y-107701904D01*
X144681309Y-107416190D01*
X144728928Y-107320952D01*
X144776547Y-107273333D01*
X144871785Y-107225714D01*
X145014642Y-107225714D01*
X145109880Y-107273333D01*
X145157500Y-107320952D01*
X145205119Y-107416190D01*
X145205119Y-107701904D01*
X145157500Y-107797142D01*
X145109880Y-107844761D01*
X145014642Y-107892380D01*
X144871785Y-107892380D01*
X146062261Y-107225714D02*
X146062261Y-107892380D01*
X145633690Y-107225714D02*
X145633690Y-107749523D01*
X145681309Y-107844761D01*
X145776547Y-107892380D01*
X145919404Y-107892380D01*
X146014642Y-107844761D01*
X146062261Y-107797142D01*
X146395595Y-107225714D02*
X146776547Y-107225714D01*
X146538452Y-106892380D02*
X146538452Y-107749523D01*
X146586071Y-107844761D01*
X146681309Y-107892380D01*
X146776547Y-107892380D01*
X147490833Y-107844761D02*
X147395595Y-107892380D01*
X147205119Y-107892380D01*
X147109880Y-107844761D01*
X147062261Y-107749523D01*
X147062261Y-107368571D01*
X147109880Y-107273333D01*
X147205119Y-107225714D01*
X147395595Y-107225714D01*
X147490833Y-107273333D01*
X147538452Y-107368571D01*
X147538452Y-107463809D01*
X147062261Y-107559047D01*
X147967023Y-107892380D02*
X147967023Y-107225714D01*
X147967023Y-107416190D02*
X148014642Y-107320952D01*
X148062261Y-107273333D01*
X148157500Y-107225714D01*
X148252738Y-107225714D01*
X149490833Y-107892380D02*
X149395595Y-107844761D01*
X149347976Y-107797142D01*
X149300357Y-107701904D01*
X149300357Y-107416190D01*
X149347976Y-107320952D01*
X149395595Y-107273333D01*
X149490833Y-107225714D01*
X149633690Y-107225714D01*
X149728928Y-107273333D01*
X149776547Y-107320952D01*
X149824166Y-107416190D01*
X149824166Y-107701904D01*
X149776547Y-107797142D01*
X149728928Y-107844761D01*
X149633690Y-107892380D01*
X149490833Y-107892380D01*
X150252738Y-107892380D02*
X150252738Y-107225714D01*
X150252738Y-107416190D02*
X150300357Y-107320952D01*
X150347976Y-107273333D01*
X150443214Y-107225714D01*
X150538452Y-107225714D01*
X151586071Y-107844761D02*
X151681309Y-107892380D01*
X151871785Y-107892380D01*
X151967023Y-107844761D01*
X152014642Y-107749523D01*
X152014642Y-107701904D01*
X151967023Y-107606666D01*
X151871785Y-107559047D01*
X151728928Y-107559047D01*
X151633690Y-107511428D01*
X151586071Y-107416190D01*
X151586071Y-107368571D01*
X151633690Y-107273333D01*
X151728928Y-107225714D01*
X151871785Y-107225714D01*
X151967023Y-107273333D01*
X152871785Y-107892380D02*
X152871785Y-107368571D01*
X152824166Y-107273333D01*
X152728928Y-107225714D01*
X152538452Y-107225714D01*
X152443214Y-107273333D01*
X152871785Y-107844761D02*
X152776547Y-107892380D01*
X152538452Y-107892380D01*
X152443214Y-107844761D01*
X152395595Y-107749523D01*
X152395595Y-107654285D01*
X152443214Y-107559047D01*
X152538452Y-107511428D01*
X152776547Y-107511428D01*
X152871785Y-107463809D01*
X153347976Y-107225714D02*
X153347976Y-107892380D01*
X153347976Y-107320952D02*
X153395595Y-107273333D01*
X153490833Y-107225714D01*
X153633690Y-107225714D01*
X153728928Y-107273333D01*
X153776547Y-107368571D01*
X153776547Y-107892380D01*
X154681309Y-107892380D02*
X154681309Y-106892380D01*
X154681309Y-107844761D02*
X154586071Y-107892380D01*
X154395595Y-107892380D01*
X154300357Y-107844761D01*
X154252738Y-107797142D01*
X154205119Y-107701904D01*
X154205119Y-107416190D01*
X154252738Y-107320952D01*
X154300357Y-107273333D01*
X154395595Y-107225714D01*
X154586071Y-107225714D01*
X154681309Y-107273333D01*
X155157499Y-107892380D02*
X155157499Y-107225714D01*
X155157499Y-106892380D02*
X155109880Y-106940000D01*
X155157499Y-106987619D01*
X155205119Y-106940000D01*
X155157499Y-106892380D01*
X155157499Y-106987619D01*
X155633690Y-107225714D02*
X155633690Y-107892380D01*
X155633690Y-107320952D02*
X155681309Y-107273333D01*
X155776547Y-107225714D01*
X155919404Y-107225714D01*
X156014642Y-107273333D01*
X156062261Y-107368571D01*
X156062261Y-107892380D01*
X156967023Y-107225714D02*
X156967023Y-108035238D01*
X156919404Y-108130476D01*
X156871785Y-108178095D01*
X156776547Y-108225714D01*
X156633690Y-108225714D01*
X156538452Y-108178095D01*
X156967023Y-107844761D02*
X156871785Y-107892380D01*
X156681309Y-107892380D01*
X156586071Y-107844761D01*
X156538452Y-107797142D01*
X156490833Y-107701904D01*
X156490833Y-107416190D01*
X156538452Y-107320952D01*
X156586071Y-107273333D01*
X156681309Y-107225714D01*
X156871785Y-107225714D01*
X156967023Y-107273333D01*
X158205119Y-107892380D02*
X158205119Y-106892380D01*
X158205119Y-107273333D02*
X158300357Y-107225714D01*
X158490833Y-107225714D01*
X158586071Y-107273333D01*
X158633690Y-107320952D01*
X158681309Y-107416190D01*
X158681309Y-107701904D01*
X158633690Y-107797142D01*
X158586071Y-107844761D01*
X158490833Y-107892380D01*
X158300357Y-107892380D01*
X158205119Y-107844761D01*
X159014642Y-107225714D02*
X159252738Y-107892380D01*
X159490833Y-107225714D02*
X159252738Y-107892380D01*
X159157499Y-108130476D01*
X159109880Y-108178095D01*
X159014642Y-108225714D01*
X160633690Y-107892380D02*
X160633690Y-106892380D01*
X161062261Y-107892380D02*
X161062261Y-107368571D01*
X161014642Y-107273333D01*
X160919404Y-107225714D01*
X160776547Y-107225714D01*
X160681309Y-107273333D01*
X160633690Y-107320952D01*
X161967023Y-107892380D02*
X161967023Y-107368571D01*
X161919404Y-107273333D01*
X161824166Y-107225714D01*
X161633690Y-107225714D01*
X161538452Y-107273333D01*
X161967023Y-107844761D02*
X161871785Y-107892380D01*
X161633690Y-107892380D01*
X161538452Y-107844761D01*
X161490833Y-107749523D01*
X161490833Y-107654285D01*
X161538452Y-107559047D01*
X161633690Y-107511428D01*
X161871785Y-107511428D01*
X161967023Y-107463809D01*
X162443214Y-107225714D02*
X162443214Y-107892380D01*
X162443214Y-107320952D02*
X162490833Y-107273333D01*
X162586071Y-107225714D01*
X162728928Y-107225714D01*
X162824166Y-107273333D01*
X162871785Y-107368571D01*
X162871785Y-107892380D01*
X163776547Y-107892380D02*
X163776547Y-106892380D01*
X163776547Y-107844761D02*
X163681309Y-107892380D01*
X163490833Y-107892380D01*
X163395595Y-107844761D01*
X163347976Y-107797142D01*
X163300357Y-107701904D01*
X163300357Y-107416190D01*
X163347976Y-107320952D01*
X163395595Y-107273333D01*
X163490833Y-107225714D01*
X163681309Y-107225714D01*
X163776547Y-107273333D01*
X164157499Y-108273333D02*
X164205119Y-108225714D01*
X164300357Y-108082857D01*
X164347976Y-107987619D01*
X164395595Y-107844761D01*
X164443214Y-107606666D01*
X164443214Y-107416190D01*
X164395595Y-107178095D01*
X164347976Y-107035238D01*
X164300357Y-106940000D01*
X164205119Y-106797142D01*
X164157499Y-106749523D01*
X120252738Y-108542380D02*
X120586071Y-109542380D01*
X120919404Y-108542380D01*
X121252738Y-109542380D02*
X121252738Y-108875714D01*
X121252738Y-108542380D02*
X121205119Y-108590000D01*
X121252738Y-108637619D01*
X121300357Y-108590000D01*
X121252738Y-108542380D01*
X121252738Y-108637619D01*
X122157500Y-109542380D02*
X122157500Y-109018571D01*
X122109880Y-108923333D01*
X122014642Y-108875714D01*
X121824166Y-108875714D01*
X121728928Y-108923333D01*
X122157500Y-109494761D02*
X122062261Y-109542380D01*
X121824166Y-109542380D01*
X121728928Y-109494761D01*
X121681309Y-109399523D01*
X121681309Y-109304285D01*
X121728928Y-109209047D01*
X121824166Y-109161428D01*
X122062261Y-109161428D01*
X122157500Y-109113809D01*
X122633690Y-109161428D02*
X123395595Y-109161428D01*
X123871785Y-109542380D02*
X123871785Y-108875714D01*
X123871785Y-108542380D02*
X123824166Y-108590000D01*
X123871785Y-108637619D01*
X123919404Y-108590000D01*
X123871785Y-108542380D01*
X123871785Y-108637619D01*
X124347976Y-108875714D02*
X124347976Y-109542380D01*
X124347976Y-108970952D02*
X124395595Y-108923333D01*
X124490833Y-108875714D01*
X124633690Y-108875714D01*
X124728928Y-108923333D01*
X124776547Y-109018571D01*
X124776547Y-109542380D01*
X125252738Y-109161428D02*
X126014642Y-109161428D01*
X126490833Y-108875714D02*
X126490833Y-109875714D01*
X126490833Y-108923333D02*
X126586071Y-108875714D01*
X126776547Y-108875714D01*
X126871785Y-108923333D01*
X126919404Y-108970952D01*
X126967023Y-109066190D01*
X126967023Y-109351904D01*
X126919404Y-109447142D01*
X126871785Y-109494761D01*
X126776547Y-109542380D01*
X126586071Y-109542380D01*
X126490833Y-109494761D01*
X127824166Y-109542380D02*
X127824166Y-109018571D01*
X127776547Y-108923333D01*
X127681309Y-108875714D01*
X127490833Y-108875714D01*
X127395595Y-108923333D01*
X127824166Y-109494761D02*
X127728928Y-109542380D01*
X127490833Y-109542380D01*
X127395595Y-109494761D01*
X127347976Y-109399523D01*
X127347976Y-109304285D01*
X127395595Y-109209047D01*
X127490833Y-109161428D01*
X127728928Y-109161428D01*
X127824166Y-109113809D01*
X128728928Y-109542380D02*
X128728928Y-108542380D01*
X128728928Y-109494761D02*
X128633690Y-109542380D01*
X128443214Y-109542380D01*
X128347976Y-109494761D01*
X128300357Y-109447142D01*
X128252738Y-109351904D01*
X128252738Y-109066190D01*
X128300357Y-108970952D01*
X128347976Y-108923333D01*
X128443214Y-108875714D01*
X128633690Y-108875714D01*
X128728928Y-108923333D01*
X130395595Y-108875714D02*
X130395595Y-109542380D01*
X129967023Y-108875714D02*
X129967023Y-109399523D01*
X130014642Y-109494761D01*
X130109880Y-109542380D01*
X130252738Y-109542380D01*
X130347976Y-109494761D01*
X130395595Y-109447142D01*
X130824166Y-109494761D02*
X130919404Y-109542380D01*
X131109880Y-109542380D01*
X131205119Y-109494761D01*
X131252738Y-109399523D01*
X131252738Y-109351904D01*
X131205119Y-109256666D01*
X131109880Y-109209047D01*
X130967023Y-109209047D01*
X130871785Y-109161428D01*
X130824166Y-109066190D01*
X130824166Y-109018571D01*
X130871785Y-108923333D01*
X130967023Y-108875714D01*
X131109880Y-108875714D01*
X131205119Y-108923333D01*
X132062261Y-109494761D02*
X131967023Y-109542380D01*
X131776547Y-109542380D01*
X131681309Y-109494761D01*
X131633690Y-109399523D01*
X131633690Y-109018571D01*
X131681309Y-108923333D01*
X131776547Y-108875714D01*
X131967023Y-108875714D01*
X132062261Y-108923333D01*
X132109880Y-109018571D01*
X132109880Y-109113809D01*
X131633690Y-109209047D01*
X132967023Y-109542380D02*
X132967023Y-108542380D01*
X132967023Y-109494761D02*
X132871785Y-109542380D01*
X132681309Y-109542380D01*
X132586071Y-109494761D01*
X132538452Y-109447142D01*
X132490833Y-109351904D01*
X132490833Y-109066190D01*
X132538452Y-108970952D01*
X132586071Y-108923333D01*
X132681309Y-108875714D01*
X132871785Y-108875714D01*
X132967023Y-108923333D01*
X134062261Y-108875714D02*
X134443214Y-108875714D01*
X134205119Y-109542380D02*
X134205119Y-108685238D01*
X134252738Y-108590000D01*
X134347976Y-108542380D01*
X134443214Y-108542380D01*
X134919404Y-109542380D02*
X134824166Y-109494761D01*
X134776547Y-109447142D01*
X134728928Y-109351904D01*
X134728928Y-109066190D01*
X134776547Y-108970952D01*
X134824166Y-108923333D01*
X134919404Y-108875714D01*
X135062261Y-108875714D01*
X135157500Y-108923333D01*
X135205119Y-108970952D01*
X135252738Y-109066190D01*
X135252738Y-109351904D01*
X135205119Y-109447142D01*
X135157500Y-109494761D01*
X135062261Y-109542380D01*
X134919404Y-109542380D01*
X135681309Y-109542380D02*
X135681309Y-108875714D01*
X135681309Y-109066190D02*
X135728928Y-108970952D01*
X135776547Y-108923333D01*
X135871785Y-108875714D01*
X135967023Y-108875714D01*
X137014642Y-109494761D02*
X137109880Y-109542380D01*
X137300357Y-109542380D01*
X137395595Y-109494761D01*
X137443214Y-109399523D01*
X137443214Y-109351904D01*
X137395595Y-109256666D01*
X137300357Y-109209047D01*
X137157500Y-109209047D01*
X137062261Y-109161428D01*
X137014642Y-109066190D01*
X137014642Y-109018571D01*
X137062261Y-108923333D01*
X137157500Y-108875714D01*
X137300357Y-108875714D01*
X137395595Y-108923333D01*
X138014642Y-109542380D02*
X137919404Y-109494761D01*
X137871785Y-109447142D01*
X137824166Y-109351904D01*
X137824166Y-109066190D01*
X137871785Y-108970952D01*
X137919404Y-108923333D01*
X138014642Y-108875714D01*
X138157500Y-108875714D01*
X138252738Y-108923333D01*
X138300357Y-108970952D01*
X138347976Y-109066190D01*
X138347976Y-109351904D01*
X138300357Y-109447142D01*
X138252738Y-109494761D01*
X138157500Y-109542380D01*
X138014642Y-109542380D01*
X138776547Y-109542380D02*
X138776547Y-108875714D01*
X138776547Y-108970952D02*
X138824166Y-108923333D01*
X138919404Y-108875714D01*
X139062261Y-108875714D01*
X139157500Y-108923333D01*
X139205119Y-109018571D01*
X139205119Y-109542380D01*
X139205119Y-109018571D02*
X139252738Y-108923333D01*
X139347976Y-108875714D01*
X139490833Y-108875714D01*
X139586071Y-108923333D01*
X139633690Y-109018571D01*
X139633690Y-109542380D01*
X140490833Y-109494761D02*
X140395595Y-109542380D01*
X140205119Y-109542380D01*
X140109880Y-109494761D01*
X140062261Y-109399523D01*
X140062261Y-109018571D01*
X140109880Y-108923333D01*
X140205119Y-108875714D01*
X140395595Y-108875714D01*
X140490833Y-108923333D01*
X140538452Y-109018571D01*
X140538452Y-109113809D01*
X140062261Y-109209047D01*
X141919404Y-108542380D02*
X142014642Y-108542380D01*
X142109880Y-108590000D01*
X142157500Y-108637619D01*
X142205119Y-108732857D01*
X142252738Y-108923333D01*
X142252738Y-109161428D01*
X142205119Y-109351904D01*
X142157500Y-109447142D01*
X142109880Y-109494761D01*
X142014642Y-109542380D01*
X141919404Y-109542380D01*
X141824166Y-109494761D01*
X141776547Y-109447142D01*
X141728928Y-109351904D01*
X141681309Y-109161428D01*
X141681309Y-108923333D01*
X141728928Y-108732857D01*
X141776547Y-108637619D01*
X141824166Y-108590000D01*
X141919404Y-108542380D01*
X142681309Y-109447142D02*
X142728928Y-109494761D01*
X142681309Y-109542380D01*
X142633690Y-109494761D01*
X142681309Y-109447142D01*
X142681309Y-109542380D01*
X143681309Y-109542380D02*
X143109880Y-109542380D01*
X143395595Y-109542380D02*
X143395595Y-108542380D01*
X143300357Y-108685238D01*
X143205119Y-108780476D01*
X143109880Y-108828095D01*
X144586071Y-108542380D02*
X144109880Y-108542380D01*
X144062261Y-109018571D01*
X144109880Y-108970952D01*
X144205119Y-108923333D01*
X144443214Y-108923333D01*
X144538452Y-108970952D01*
X144586071Y-109018571D01*
X144633690Y-109113809D01*
X144633690Y-109351904D01*
X144586071Y-109447142D01*
X144538452Y-109494761D01*
X144443214Y-109542380D01*
X144205119Y-109542380D01*
X144109880Y-109494761D01*
X144062261Y-109447142D01*
X145062261Y-109542380D02*
X145062261Y-108875714D01*
X145062261Y-108970952D02*
X145109880Y-108923333D01*
X145205119Y-108875714D01*
X145347976Y-108875714D01*
X145443214Y-108923333D01*
X145490833Y-109018571D01*
X145490833Y-109542380D01*
X145490833Y-109018571D02*
X145538452Y-108923333D01*
X145633690Y-108875714D01*
X145776547Y-108875714D01*
X145871785Y-108923333D01*
X145919404Y-109018571D01*
X145919404Y-109542380D01*
X146395595Y-109542380D02*
X146395595Y-108875714D01*
X146395595Y-108970952D02*
X146443214Y-108923333D01*
X146538452Y-108875714D01*
X146681309Y-108875714D01*
X146776547Y-108923333D01*
X146824166Y-109018571D01*
X146824166Y-109542380D01*
X146824166Y-109018571D02*
X146871785Y-108923333D01*
X146967023Y-108875714D01*
X147109880Y-108875714D01*
X147205119Y-108923333D01*
X147252738Y-109018571D01*
X147252738Y-109542380D01*
X148490833Y-108875714D02*
X148490833Y-109875714D01*
X148490833Y-108923333D02*
X148586071Y-108875714D01*
X148776547Y-108875714D01*
X148871785Y-108923333D01*
X148919404Y-108970952D01*
X148967023Y-109066190D01*
X148967023Y-109351904D01*
X148919404Y-109447142D01*
X148871785Y-109494761D01*
X148776547Y-109542380D01*
X148586071Y-109542380D01*
X148490833Y-109494761D01*
X149538452Y-109542380D02*
X149443214Y-109494761D01*
X149395595Y-109399523D01*
X149395595Y-108542380D01*
X150347976Y-109542380D02*
X150347976Y-109018571D01*
X150300357Y-108923333D01*
X150205119Y-108875714D01*
X150014642Y-108875714D01*
X149919404Y-108923333D01*
X150347976Y-109494761D02*
X150252738Y-109542380D01*
X150014642Y-109542380D01*
X149919404Y-109494761D01*
X149871785Y-109399523D01*
X149871785Y-109304285D01*
X149919404Y-109209047D01*
X150014642Y-109161428D01*
X150252738Y-109161428D01*
X150347976Y-109113809D01*
X150681309Y-108875714D02*
X151062261Y-108875714D01*
X150824166Y-108542380D02*
X150824166Y-109399523D01*
X150871785Y-109494761D01*
X150967023Y-109542380D01*
X151062261Y-109542380D01*
X151776547Y-109494761D02*
X151681309Y-109542380D01*
X151490833Y-109542380D01*
X151395595Y-109494761D01*
X151347976Y-109399523D01*
X151347976Y-109018571D01*
X151395595Y-108923333D01*
X151490833Y-108875714D01*
X151681309Y-108875714D01*
X151776547Y-108923333D01*
X151824166Y-109018571D01*
X151824166Y-109113809D01*
X151347976Y-109209047D01*
X152681309Y-109542380D02*
X152681309Y-108542380D01*
X152681309Y-109494761D02*
X152586071Y-109542380D01*
X152395595Y-109542380D01*
X152300357Y-109494761D01*
X152252738Y-109447142D01*
X152205119Y-109351904D01*
X152205119Y-109066190D01*
X152252738Y-108970952D01*
X152300357Y-108923333D01*
X152395595Y-108875714D01*
X152586071Y-108875714D01*
X152681309Y-108923333D01*
X153919404Y-109542380D02*
X153919404Y-108542380D01*
X154347976Y-109542380D02*
X154347976Y-109018571D01*
X154300357Y-108923333D01*
X154205119Y-108875714D01*
X154062261Y-108875714D01*
X153967023Y-108923333D01*
X153919404Y-108970952D01*
X154967023Y-109542380D02*
X154871785Y-109494761D01*
X154824166Y-109447142D01*
X154776547Y-109351904D01*
X154776547Y-109066190D01*
X154824166Y-108970952D01*
X154871785Y-108923333D01*
X154967023Y-108875714D01*
X155109880Y-108875714D01*
X155205119Y-108923333D01*
X155252738Y-108970952D01*
X155300357Y-109066190D01*
X155300357Y-109351904D01*
X155252738Y-109447142D01*
X155205119Y-109494761D01*
X155109880Y-109542380D01*
X154967023Y-109542380D01*
X155871785Y-109542380D02*
X155776547Y-109494761D01*
X155728928Y-109399523D01*
X155728928Y-108542380D01*
X156633690Y-109494761D02*
X156538452Y-109542380D01*
X156347976Y-109542380D01*
X156252738Y-109494761D01*
X156205119Y-109399523D01*
X156205119Y-109018571D01*
X156252738Y-108923333D01*
X156347976Y-108875714D01*
X156538452Y-108875714D01*
X156633690Y-108923333D01*
X156681309Y-109018571D01*
X156681309Y-109113809D01*
X156205119Y-109209047D01*
X157062261Y-109494761D02*
X157157499Y-109542380D01*
X157347976Y-109542380D01*
X157443214Y-109494761D01*
X157490833Y-109399523D01*
X157490833Y-109351904D01*
X157443214Y-109256666D01*
X157347976Y-109209047D01*
X157205119Y-109209047D01*
X157109880Y-109161428D01*
X157062261Y-109066190D01*
X157062261Y-109018571D01*
X157109880Y-108923333D01*
X157205119Y-108875714D01*
X157347976Y-108875714D01*
X157443214Y-108923333D01*
X157919404Y-109447142D02*
X157967023Y-109494761D01*
X157919404Y-109542380D01*
X157871785Y-109494761D01*
X157919404Y-109447142D01*
X157919404Y-109542380D01*
X159157499Y-109018571D02*
X159490833Y-109018571D01*
X159633690Y-109542380D02*
X159157499Y-109542380D01*
X159157499Y-108542380D01*
X159633690Y-108542380D01*
X160062261Y-108875714D02*
X160062261Y-109875714D01*
X160062261Y-108923333D02*
X160157499Y-108875714D01*
X160347976Y-108875714D01*
X160443214Y-108923333D01*
X160490833Y-108970952D01*
X160538452Y-109066190D01*
X160538452Y-109351904D01*
X160490833Y-109447142D01*
X160443214Y-109494761D01*
X160347976Y-109542380D01*
X160157499Y-109542380D01*
X160062261Y-109494761D01*
X161109880Y-109542380D02*
X161014642Y-109494761D01*
X160967023Y-109447142D01*
X160919404Y-109351904D01*
X160919404Y-109066190D01*
X160967023Y-108970952D01*
X161014642Y-108923333D01*
X161109880Y-108875714D01*
X161252738Y-108875714D01*
X161347976Y-108923333D01*
X161395595Y-108970952D01*
X161443214Y-109066190D01*
X161443214Y-109351904D01*
X161395595Y-109447142D01*
X161347976Y-109494761D01*
X161252738Y-109542380D01*
X161109880Y-109542380D01*
X161776547Y-109542380D02*
X162300357Y-108875714D01*
X161776547Y-108875714D02*
X162300357Y-109542380D01*
X162586071Y-108875714D02*
X162824166Y-109542380D01*
X163062261Y-108875714D02*
X162824166Y-109542380D01*
X162728928Y-109780476D01*
X162681309Y-109828095D01*
X162586071Y-109875714D01*
X164062261Y-108875714D02*
X164443214Y-108875714D01*
X164205119Y-109542380D02*
X164205119Y-108685238D01*
X164252738Y-108590000D01*
X164347976Y-108542380D01*
X164443214Y-108542380D01*
X164776547Y-109542380D02*
X164776547Y-108875714D01*
X164776547Y-108542380D02*
X164728928Y-108590000D01*
X164776547Y-108637619D01*
X164824166Y-108590000D01*
X164776547Y-108542380D01*
X164776547Y-108637619D01*
X165395595Y-109542380D02*
X165300357Y-109494761D01*
X165252738Y-109399523D01*
X165252738Y-108542380D01*
X165919404Y-109542380D02*
X165824166Y-109494761D01*
X165776547Y-109399523D01*
X165776547Y-108542380D01*
X167490833Y-109542380D02*
X167490833Y-109018571D01*
X167443214Y-108923333D01*
X167347976Y-108875714D01*
X167157499Y-108875714D01*
X167062261Y-108923333D01*
X167490833Y-109494761D02*
X167395595Y-109542380D01*
X167157499Y-109542380D01*
X167062261Y-109494761D01*
X167014642Y-109399523D01*
X167014642Y-109304285D01*
X167062261Y-109209047D01*
X167157499Y-109161428D01*
X167395595Y-109161428D01*
X167490833Y-109113809D01*
X167967023Y-108875714D02*
X167967023Y-109542380D01*
X167967023Y-108970952D02*
X168014642Y-108923333D01*
X168109880Y-108875714D01*
X168252738Y-108875714D01*
X168347976Y-108923333D01*
X168395595Y-109018571D01*
X168395595Y-109542380D01*
X169300357Y-109542380D02*
X169300357Y-108542380D01*
X169300357Y-109494761D02*
X169205119Y-109542380D01*
X169014642Y-109542380D01*
X168919404Y-109494761D01*
X168871785Y-109447142D01*
X168824166Y-109351904D01*
X168824166Y-109066190D01*
X168871785Y-108970952D01*
X168919404Y-108923333D01*
X169014642Y-108875714D01*
X169205119Y-108875714D01*
X169300357Y-108923333D01*
X170967023Y-109494761D02*
X170871785Y-109542380D01*
X170681309Y-109542380D01*
X170586071Y-109494761D01*
X170538452Y-109447142D01*
X170490833Y-109351904D01*
X170490833Y-109066190D01*
X170538452Y-108970952D01*
X170586071Y-108923333D01*
X170681309Y-108875714D01*
X170871785Y-108875714D01*
X170967023Y-108923333D01*
X171824166Y-109542380D02*
X171824166Y-109018571D01*
X171776547Y-108923333D01*
X171681309Y-108875714D01*
X171490833Y-108875714D01*
X171395595Y-108923333D01*
X171824166Y-109494761D02*
X171728928Y-109542380D01*
X171490833Y-109542380D01*
X171395595Y-109494761D01*
X171347976Y-109399523D01*
X171347976Y-109304285D01*
X171395595Y-109209047D01*
X171490833Y-109161428D01*
X171728928Y-109161428D01*
X171824166Y-109113809D01*
X172300357Y-108875714D02*
X172300357Y-109875714D01*
X172300357Y-108923333D02*
X172395595Y-108875714D01*
X172586071Y-108875714D01*
X172681309Y-108923333D01*
X172728928Y-108970952D01*
X172776547Y-109066190D01*
X172776547Y-109351904D01*
X172728928Y-109447142D01*
X172681309Y-109494761D01*
X172586071Y-109542380D01*
X172395595Y-109542380D01*
X172300357Y-109494761D01*
X173967023Y-109542380D02*
X173967023Y-108875714D01*
X173967023Y-108542380D02*
X173919404Y-108590000D01*
X173967023Y-108637619D01*
X174014642Y-108590000D01*
X173967023Y-108542380D01*
X173967023Y-108637619D01*
X174300357Y-108875714D02*
X174681309Y-108875714D01*
X174443214Y-109542380D02*
X174443214Y-108685238D01*
X174490833Y-108590000D01*
X174586071Y-108542380D01*
X174681309Y-108542380D01*
X175776547Y-108875714D02*
X175776547Y-109542380D01*
X175776547Y-108970952D02*
X175824166Y-108923333D01*
X175919404Y-108875714D01*
X176062261Y-108875714D01*
X176157499Y-108923333D01*
X176205119Y-109018571D01*
X176205119Y-109542380D01*
X177062261Y-109494761D02*
X176967023Y-109542380D01*
X176776547Y-109542380D01*
X176681309Y-109494761D01*
X176633690Y-109399523D01*
X176633690Y-109018571D01*
X176681309Y-108923333D01*
X176776547Y-108875714D01*
X176967023Y-108875714D01*
X177062261Y-108923333D01*
X177109880Y-109018571D01*
X177109880Y-109113809D01*
X176633690Y-109209047D01*
X177919404Y-109494761D02*
X177824166Y-109542380D01*
X177633690Y-109542380D01*
X177538452Y-109494761D01*
X177490833Y-109399523D01*
X177490833Y-109018571D01*
X177538452Y-108923333D01*
X177633690Y-108875714D01*
X177824166Y-108875714D01*
X177919404Y-108923333D01*
X177967023Y-109018571D01*
X177967023Y-109113809D01*
X177490833Y-109209047D01*
X178824166Y-109542380D02*
X178824166Y-108542380D01*
X178824166Y-109494761D02*
X178728928Y-109542380D01*
X178538452Y-109542380D01*
X178443214Y-109494761D01*
X178395595Y-109447142D01*
X178347976Y-109351904D01*
X178347976Y-109066190D01*
X178395595Y-108970952D01*
X178443214Y-108923333D01*
X178538452Y-108875714D01*
X178728928Y-108875714D01*
X178824166Y-108923333D01*
X179681309Y-109494761D02*
X179586071Y-109542380D01*
X179395595Y-109542380D01*
X179300357Y-109494761D01*
X179252738Y-109399523D01*
X179252738Y-109018571D01*
X179300357Y-108923333D01*
X179395595Y-108875714D01*
X179586071Y-108875714D01*
X179681309Y-108923333D01*
X179728928Y-109018571D01*
X179728928Y-109113809D01*
X179252738Y-109209047D01*
X180586071Y-109542380D02*
X180586071Y-108542380D01*
X180586071Y-109494761D02*
X180490833Y-109542380D01*
X180300357Y-109542380D01*
X180205119Y-109494761D01*
X180157499Y-109447142D01*
X180109880Y-109351904D01*
X180109880Y-109066190D01*
X180157499Y-108970952D01*
X180205119Y-108923333D01*
X180300357Y-108875714D01*
X180490833Y-108875714D01*
X180586071Y-108923333D01*
D11*
%TO.C,J4*%
X100000000Y-98730000D02*
X101270000Y-98730000D01*
X101270000Y-98730000D02*
X101270000Y-129210000D01*
X101270000Y-129210000D02*
X98730000Y-129210000D01*
X98730000Y-129210000D02*
X98730000Y-100000000D01*
X98730000Y-100000000D02*
X100000000Y-98730000D01*
%TO.C,J5*%
X115240000Y-98730000D02*
X116510000Y-98730000D01*
X116510000Y-98730000D02*
X116510000Y-129210000D01*
X116510000Y-129210000D02*
X113970000Y-129210000D01*
X113970000Y-129210000D02*
X113970000Y-100000000D01*
X113970000Y-100000000D02*
X115240000Y-98730000D01*
%TO.C,J1*%
X107620000Y-103810000D02*
X108890000Y-105080000D01*
X101270000Y-103810000D02*
X107620000Y-103810000D01*
X101270000Y-106350000D02*
X101270000Y-103810000D01*
X108890000Y-106350000D02*
X101270000Y-106350000D01*
X108890000Y-105080000D02*
X108890000Y-106350000D01*
%TO.C,J2*%
X111410000Y-105120000D02*
X112680000Y-103850000D01*
X111410000Y-106390000D02*
X111410000Y-105120000D01*
X113950000Y-106390000D02*
X111410000Y-106390000D01*
X113950000Y-103850000D02*
X113950000Y-106390000D01*
X112680000Y-103850000D02*
X113950000Y-103850000D01*
%TO.C,C11*%
X102368000Y-111118000D02*
X103368000Y-111118000D01*
X102368000Y-111618000D02*
X102368000Y-111118000D01*
X103368000Y-111618000D02*
X102368000Y-111618000D01*
X103368000Y-111118000D02*
X103368000Y-111618000D01*
D12*
%TO.C,J3*%
X112620000Y-102100000D02*
X112620000Y-96700000D01*
X112620000Y-96700000D02*
X102620000Y-96700000D01*
X102620000Y-96700000D02*
X102620000Y-102100000D01*
X102620000Y-102100000D02*
X112620000Y-102100000D01*
D13*
X112620000Y-98000000D02*
X108520000Y-102100000D01*
X112620000Y-99000000D02*
X109520000Y-102100000D01*
X111920000Y-96700000D02*
X109520000Y-99000000D01*
X112620000Y-100000000D02*
X110520000Y-102100000D01*
X112620000Y-101000000D02*
X111520000Y-102100000D01*
X108520000Y-100100000D02*
X106520000Y-102100000D01*
X109520000Y-100100000D02*
X107520000Y-102100000D01*
X112620000Y-97000000D02*
X110520000Y-99000000D01*
X110920000Y-96700000D02*
X108520000Y-99000000D01*
X107520000Y-100100000D02*
X105520000Y-102100000D01*
X106520000Y-100100000D02*
X104520000Y-102100000D01*
X109920000Y-96700000D02*
X107520000Y-99000000D01*
X108920000Y-96700000D02*
X106520000Y-99000000D01*
X105520000Y-100100000D02*
X103520000Y-102100000D01*
X104520000Y-100100000D02*
X102620000Y-102000000D01*
X107920000Y-96700000D02*
X105520000Y-99000000D01*
X106920000Y-96700000D02*
X102620000Y-101000000D01*
X105920000Y-96700000D02*
X102620000Y-100000000D01*
X104920000Y-96700000D02*
X102620000Y-99000000D01*
X103920000Y-96700000D02*
X102620000Y-98000000D01*
D11*
%TO.C,U3*%
X105222000Y-120390000D02*
X105222000Y-114390000D01*
X105222000Y-114390000D02*
X112222000Y-114390000D01*
X112222000Y-114390000D02*
X112222000Y-121390000D01*
X112222000Y-121390000D02*
X106222000Y-121390000D01*
X106222000Y-121390000D02*
X105222000Y-120390000D01*
D14*
%TO.C,K1*%
X105780000Y-126420000D02*
X109380000Y-126420000D01*
X109380000Y-126420000D02*
X109380000Y-128920000D01*
X109380000Y-128920000D02*
X105780000Y-128920000D01*
X105780000Y-128920000D02*
X105780000Y-126420000D01*
D11*
%TO.C,U2*%
X104014000Y-107412000D02*
X104664000Y-108062000D01*
X104664000Y-109212000D02*
X104664000Y-108062000D01*
X104014000Y-107412000D02*
X101564000Y-107412000D01*
X101564000Y-109212000D02*
X101564000Y-107412000D01*
X104664000Y-109212000D02*
X101564000Y-109212000D01*
%TO.C,R9*%
X113704000Y-121708000D02*
X113204000Y-121708000D01*
X113204000Y-121708000D02*
X113204000Y-120708000D01*
X113204000Y-120708000D02*
X113704000Y-120708000D01*
X113704000Y-120708000D02*
X113704000Y-121708000D01*
%TO.C,R8*%
X108173000Y-113000000D02*
X108173000Y-112500000D01*
X108173000Y-112500000D02*
X109173000Y-112500000D01*
X109173000Y-112500000D02*
X109173000Y-113000000D01*
X109173000Y-113000000D02*
X108173000Y-113000000D01*
%TO.C,D5*%
X110330000Y-112130000D02*
X110330000Y-111980000D01*
X110130000Y-112130000D02*
X110330000Y-112430000D01*
X110530000Y-112130000D02*
X110130000Y-112130000D01*
X110330000Y-112430000D02*
X110530000Y-112130000D01*
X110330000Y-112430000D02*
X110330000Y-112580000D01*
X110530000Y-112430000D02*
X110130000Y-112430000D01*
X110780000Y-112880000D02*
X109880000Y-112880000D01*
X110780000Y-111580000D02*
X110780000Y-112880000D01*
X109880000Y-111580000D02*
X110780000Y-111580000D01*
X109880000Y-112880000D02*
X109880000Y-111580000D01*
%TO.C,D4*%
X108541000Y-108461000D02*
X105741000Y-108461000D01*
X105741000Y-108461000D02*
X105741000Y-106661000D01*
X105741000Y-106661000D02*
X108541000Y-106661000D01*
X108541000Y-106661000D02*
X108541000Y-108461000D01*
D12*
X107741000Y-108111000D02*
X107741000Y-107011000D01*
X106891000Y-108111000D02*
X107741000Y-107561000D01*
X107741000Y-107561000D02*
X106891000Y-107011000D01*
X106891000Y-107011000D02*
X106891000Y-108111000D01*
D11*
%TO.C,C6*%
X113712000Y-111451000D02*
X113712000Y-112451000D01*
X113212000Y-111451000D02*
X113712000Y-111451000D01*
X113212000Y-112451000D02*
X113212000Y-111451000D01*
X113712000Y-112451000D02*
X113212000Y-112451000D01*
%TO.C,D1*%
X109355000Y-110352000D02*
X109355000Y-111652000D01*
X109355000Y-111652000D02*
X108455000Y-111652000D01*
X108455000Y-111652000D02*
X108455000Y-110352000D01*
X108455000Y-110352000D02*
X109355000Y-110352000D01*
X108705000Y-110802000D02*
X109105000Y-110802000D01*
X108905000Y-110802000D02*
X108905000Y-110652000D01*
X108905000Y-110802000D02*
X108705000Y-111102000D01*
X108705000Y-111102000D02*
X109105000Y-111102000D01*
X109105000Y-111102000D02*
X108905000Y-110802000D01*
X108905000Y-111102000D02*
X108905000Y-111252000D01*
%TO.C,C14*%
X113196000Y-116437000D02*
X113696000Y-116437000D01*
X113696000Y-116437000D02*
X113696000Y-117437000D01*
X113696000Y-117437000D02*
X113196000Y-117437000D01*
X113196000Y-117437000D02*
X113196000Y-116437000D01*
%TO.C,U5*%
X102734000Y-112175000D02*
X102234000Y-112675000D01*
X103584000Y-114375000D02*
X102234000Y-114375000D01*
X103584000Y-112175000D02*
X103584000Y-114375000D01*
X102234000Y-112675000D02*
X102234000Y-114375000D01*
X103584000Y-112175000D02*
X102734000Y-112175000D01*
%TO.C,R7*%
X112432000Y-128565000D02*
X111432000Y-128565000D01*
X112432000Y-128065000D02*
X112432000Y-128565000D01*
X111432000Y-128065000D02*
X112432000Y-128065000D01*
X111432000Y-128565000D02*
X111432000Y-128065000D01*
%TO.C,R6*%
X112492000Y-112658000D02*
X111492000Y-112658000D01*
X112492000Y-112158000D02*
X112492000Y-112658000D01*
X111492000Y-112158000D02*
X112492000Y-112158000D01*
X111492000Y-112658000D02*
X111492000Y-112158000D01*
%TO.C,R5*%
X111489000Y-111200000D02*
X112489000Y-111200000D01*
X111489000Y-111700000D02*
X111489000Y-111200000D01*
X112489000Y-111700000D02*
X111489000Y-111700000D01*
X112489000Y-111200000D02*
X112489000Y-111700000D01*
%TO.C,Q2*%
X102227000Y-117417000D02*
X103077000Y-117417000D01*
X103577000Y-116917000D02*
X103577000Y-115217000D01*
X102227000Y-117417000D02*
X102227000Y-115217000D01*
X102227000Y-115217000D02*
X103577000Y-115217000D01*
X103077000Y-117417000D02*
X103577000Y-116917000D01*
%TO.C,D2*%
X111900000Y-127145000D02*
X111750000Y-127145000D01*
X111900000Y-127345000D02*
X112200000Y-127145000D01*
X111900000Y-126945000D02*
X111900000Y-127345000D01*
X112200000Y-127145000D02*
X111900000Y-126945000D01*
X112200000Y-127145000D02*
X112350000Y-127145000D01*
X112200000Y-126945000D02*
X112200000Y-127345000D01*
X112650000Y-126695000D02*
X112650000Y-127595000D01*
X111350000Y-126695000D02*
X112650000Y-126695000D01*
X111350000Y-127595000D02*
X111350000Y-126695000D01*
X112650000Y-127595000D02*
X111350000Y-127595000D01*
%TO.C,U1*%
X112932000Y-107605000D02*
X112932000Y-110705000D01*
X112932000Y-110705000D02*
X111132000Y-110705000D01*
X111132000Y-108255000D02*
X111132000Y-110705000D01*
X112932000Y-107605000D02*
X111782000Y-107605000D01*
X111132000Y-108255000D02*
X111782000Y-107605000D01*
%TO.C,U4*%
X106394000Y-109074000D02*
X105894000Y-109574000D01*
X107244000Y-111274000D02*
X105894000Y-111274000D01*
X107244000Y-109074000D02*
X107244000Y-111274000D01*
X105894000Y-109574000D02*
X105894000Y-111274000D01*
X107244000Y-109074000D02*
X106394000Y-109074000D01*
%TO.C,Q1*%
X112177000Y-123940000D02*
X111677000Y-124440000D01*
X113027000Y-126140000D02*
X111677000Y-126140000D01*
X113027000Y-123940000D02*
X113027000Y-126140000D01*
X111677000Y-124440000D02*
X111677000Y-126140000D01*
X113027000Y-123940000D02*
X112177000Y-123940000D01*
%TO.C,C2*%
X113197000Y-114562000D02*
X113697000Y-114562000D01*
X113697000Y-114562000D02*
X113697000Y-115562000D01*
X113697000Y-115562000D02*
X113197000Y-115562000D01*
X113197000Y-115562000D02*
X113197000Y-114562000D01*
%TO.C,D3*%
X102405000Y-125231000D02*
X101905000Y-125231000D01*
X101905000Y-125231000D02*
X101905000Y-124231000D01*
X101905000Y-124231000D02*
X102405000Y-124231000D01*
X102405000Y-124231000D02*
X102405000Y-125231000D01*
X102405000Y-125131000D02*
X101905000Y-125131000D01*
X102405000Y-125031000D02*
X101905000Y-125031000D01*
D15*
%TO.C,Y1*%
X104969000Y-126531000D02*
X104969000Y-123229000D01*
X104969000Y-123229000D02*
X110049000Y-123229000D01*
X110049000Y-126531000D02*
X110049000Y-123229000D01*
X104969000Y-126531000D02*
X110049000Y-126531000D01*
D11*
%TO.C,C3*%
X110356000Y-122875000D02*
X110356000Y-122375000D01*
X110356000Y-122375000D02*
X111356000Y-122375000D01*
X111356000Y-122375000D02*
X111356000Y-122875000D01*
X111356000Y-122875000D02*
X110356000Y-122875000D01*
%TO.C,C12*%
X113108000Y-99097000D02*
X113608000Y-99097000D01*
X113608000Y-99097000D02*
X113608000Y-100097000D01*
X113608000Y-100097000D02*
X113108000Y-100097000D01*
X113108000Y-100097000D02*
X113108000Y-99097000D01*
%TO.C,FB1*%
X101571000Y-100150000D02*
X101571000Y-99150000D01*
X102071000Y-100150000D02*
X101571000Y-100150000D01*
X102071000Y-99150000D02*
X102071000Y-100150000D01*
X101571000Y-99150000D02*
X102071000Y-99150000D01*
%TO.C,R4*%
X102861000Y-124231000D02*
X103361000Y-124231000D01*
X103361000Y-124231000D02*
X103361000Y-125231000D01*
X103361000Y-125231000D02*
X102861000Y-125231000D01*
X102861000Y-125231000D02*
X102861000Y-124231000D01*
%TO.C,R3*%
X102071000Y-102064000D02*
X101571000Y-102064000D01*
X101571000Y-102064000D02*
X101571000Y-101064000D01*
X101571000Y-101064000D02*
X102071000Y-101064000D01*
X102071000Y-101064000D02*
X102071000Y-102064000D01*
%TO.C,R2*%
X113102000Y-101075000D02*
X113602000Y-101075000D01*
X113602000Y-101075000D02*
X113602000Y-102075000D01*
X113602000Y-102075000D02*
X113102000Y-102075000D01*
X113102000Y-102075000D02*
X113102000Y-101075000D01*
%TO.C,R1*%
X101516000Y-118271000D02*
X102016000Y-118271000D01*
X102016000Y-118271000D02*
X102016000Y-119271000D01*
X102016000Y-119271000D02*
X101516000Y-119271000D01*
X101516000Y-119271000D02*
X101516000Y-118271000D01*
%TO.C,C9*%
X108453000Y-122875000D02*
X108453000Y-122375000D01*
X108453000Y-122375000D02*
X109453000Y-122375000D01*
X109453000Y-122375000D02*
X109453000Y-122875000D01*
X109453000Y-122875000D02*
X108453000Y-122875000D01*
%TO.C,C8*%
X107483000Y-122364000D02*
X107483000Y-122864000D01*
X107483000Y-122864000D02*
X106483000Y-122864000D01*
X106483000Y-122864000D02*
X106483000Y-122364000D01*
X106483000Y-122364000D02*
X107483000Y-122364000D01*
%TO.C,C7*%
X113422000Y-122900000D02*
X113422000Y-123400000D01*
X113422000Y-123400000D02*
X112422000Y-123400000D01*
X112422000Y-123400000D02*
X112422000Y-122900000D01*
X112422000Y-122900000D02*
X113422000Y-122900000D01*
%TO.C,C4*%
X104343000Y-121308000D02*
X103843000Y-121308000D01*
X103843000Y-121308000D02*
X103843000Y-120308000D01*
X103843000Y-120308000D02*
X104343000Y-120308000D01*
X104343000Y-120308000D02*
X104343000Y-121308000D01*
%TO.C,C1*%
X105007000Y-113477000D02*
X105007000Y-112977000D01*
X105007000Y-112977000D02*
X106007000Y-112977000D01*
X106007000Y-112977000D02*
X106007000Y-113477000D01*
X106007000Y-113477000D02*
X105007000Y-113477000D01*
D15*
%TO.C,F1*%
X111063000Y-107013000D02*
X111063000Y-103813000D01*
X111063000Y-103813000D02*
X109563000Y-103813000D01*
X109563000Y-107013000D02*
X109563000Y-103813000D01*
X111063000Y-107013000D02*
X109563000Y-107013000D01*
D11*
%TO.C,C10*%
X108651000Y-109004000D02*
X109651000Y-109004000D01*
X108651000Y-109504000D02*
X108651000Y-109004000D01*
X109651000Y-109504000D02*
X108651000Y-109504000D01*
X109651000Y-109004000D02*
X109651000Y-109504000D01*
%TD*%
%TO.C,C11*%
D16*
X102707285Y-111457285D02*
X102695380Y-111469190D01*
X102659666Y-111481095D01*
X102635857Y-111481095D01*
X102600142Y-111469190D01*
X102576333Y-111445380D01*
X102564428Y-111421571D01*
X102552523Y-111373952D01*
X102552523Y-111338238D01*
X102564428Y-111290619D01*
X102576333Y-111266809D01*
X102600142Y-111243000D01*
X102635857Y-111231095D01*
X102659666Y-111231095D01*
X102695380Y-111243000D01*
X102707285Y-111254904D01*
X102945380Y-111481095D02*
X102802523Y-111481095D01*
X102873952Y-111481095D02*
X102873952Y-111231095D01*
X102850142Y-111266809D01*
X102826333Y-111290619D01*
X102802523Y-111302523D01*
X103183476Y-111481095D02*
X103040619Y-111481095D01*
X103112047Y-111481095D02*
X103112047Y-111231095D01*
X103088238Y-111266809D01*
X103064428Y-111290619D01*
X103040619Y-111302523D01*
%TO.C,J3*%
D11*
X107296666Y-99296666D02*
X107296666Y-99796666D01*
X107263333Y-99896666D01*
X107196666Y-99963333D01*
X107096666Y-99996666D01*
X107030000Y-99996666D01*
X107563333Y-99296666D02*
X107996666Y-99296666D01*
X107763333Y-99563333D01*
X107863333Y-99563333D01*
X107930000Y-99596666D01*
X107963333Y-99630000D01*
X107996666Y-99696666D01*
X107996666Y-99863333D01*
X107963333Y-99930000D01*
X107930000Y-99963333D01*
X107863333Y-99996666D01*
X107663333Y-99996666D01*
X107596666Y-99963333D01*
X107563333Y-99930000D01*
%TO.C,U3*%
D10*
X108174380Y-118651904D02*
X108983904Y-118651904D01*
X109079142Y-118604285D01*
X109126761Y-118556666D01*
X109174380Y-118461428D01*
X109174380Y-118270952D01*
X109126761Y-118175714D01*
X109079142Y-118128095D01*
X108983904Y-118080476D01*
X108174380Y-118080476D01*
X108174380Y-117699523D02*
X108174380Y-117080476D01*
X108555333Y-117413809D01*
X108555333Y-117270952D01*
X108602952Y-117175714D01*
X108650571Y-117128095D01*
X108745809Y-117080476D01*
X108983904Y-117080476D01*
X109079142Y-117128095D01*
X109126761Y-117175714D01*
X109174380Y-117270952D01*
X109174380Y-117556666D01*
X109126761Y-117651904D01*
X109079142Y-117699523D01*
%TO.C,K1*%
D12*
X106989523Y-128031904D02*
X106989523Y-127231904D01*
X107446666Y-128031904D02*
X107103809Y-127574761D01*
X107446666Y-127231904D02*
X106989523Y-127689047D01*
X108208571Y-128031904D02*
X107751428Y-128031904D01*
X107980000Y-128031904D02*
X107980000Y-127231904D01*
X107903809Y-127346190D01*
X107827619Y-127422380D01*
X107751428Y-127460476D01*
%TO.C,U2*%
D17*
X102733047Y-108038190D02*
X102733047Y-108442952D01*
X102756857Y-108490571D01*
X102780666Y-108514380D01*
X102828285Y-108538190D01*
X102923523Y-108538190D01*
X102971142Y-108514380D01*
X102994952Y-108490571D01*
X103018761Y-108442952D01*
X103018761Y-108038190D01*
X103233047Y-108085809D02*
X103256857Y-108062000D01*
X103304476Y-108038190D01*
X103423523Y-108038190D01*
X103471142Y-108062000D01*
X103494952Y-108085809D01*
X103518761Y-108133428D01*
X103518761Y-108181047D01*
X103494952Y-108252476D01*
X103209238Y-108538190D01*
X103518761Y-108538190D01*
%TO.C,R9*%
D16*
X113567095Y-121249666D02*
X113448047Y-121333000D01*
X113567095Y-121392523D02*
X113317095Y-121392523D01*
X113317095Y-121297285D01*
X113329000Y-121273476D01*
X113340904Y-121261571D01*
X113364714Y-121249666D01*
X113400428Y-121249666D01*
X113424238Y-121261571D01*
X113436142Y-121273476D01*
X113448047Y-121297285D01*
X113448047Y-121392523D01*
X113567095Y-121130619D02*
X113567095Y-121083000D01*
X113555190Y-121059190D01*
X113543285Y-121047285D01*
X113507571Y-121023476D01*
X113459952Y-121011571D01*
X113364714Y-121011571D01*
X113340904Y-121023476D01*
X113329000Y-121035380D01*
X113317095Y-121059190D01*
X113317095Y-121106809D01*
X113329000Y-121130619D01*
X113340904Y-121142523D01*
X113364714Y-121154428D01*
X113424238Y-121154428D01*
X113448047Y-121142523D01*
X113459952Y-121130619D01*
X113471857Y-121106809D01*
X113471857Y-121059190D01*
X113459952Y-121035380D01*
X113448047Y-121023476D01*
X113424238Y-121011571D01*
%TO.C,R8*%
X108631333Y-112863095D02*
X108548000Y-112744047D01*
X108488476Y-112863095D02*
X108488476Y-112613095D01*
X108583714Y-112613095D01*
X108607523Y-112625000D01*
X108619428Y-112636904D01*
X108631333Y-112660714D01*
X108631333Y-112696428D01*
X108619428Y-112720238D01*
X108607523Y-112732142D01*
X108583714Y-112744047D01*
X108488476Y-112744047D01*
X108774190Y-112720238D02*
X108750380Y-112708333D01*
X108738476Y-112696428D01*
X108726571Y-112672619D01*
X108726571Y-112660714D01*
X108738476Y-112636904D01*
X108750380Y-112625000D01*
X108774190Y-112613095D01*
X108821809Y-112613095D01*
X108845619Y-112625000D01*
X108857523Y-112636904D01*
X108869428Y-112660714D01*
X108869428Y-112672619D01*
X108857523Y-112696428D01*
X108845619Y-112708333D01*
X108821809Y-112720238D01*
X108774190Y-112720238D01*
X108750380Y-112732142D01*
X108738476Y-112744047D01*
X108726571Y-112767857D01*
X108726571Y-112815476D01*
X108738476Y-112839285D01*
X108750380Y-112851190D01*
X108774190Y-112863095D01*
X108821809Y-112863095D01*
X108845619Y-112851190D01*
X108857523Y-112839285D01*
X108869428Y-112815476D01*
X108869428Y-112767857D01*
X108857523Y-112744047D01*
X108845619Y-112732142D01*
X108821809Y-112720238D01*
%TO.C,D5*%
D18*
X110314904Y-113457476D02*
X110060904Y-113457476D01*
X110060904Y-113397000D01*
X110073000Y-113360714D01*
X110097190Y-113336523D01*
X110121380Y-113324428D01*
X110169761Y-113312333D01*
X110206047Y-113312333D01*
X110254428Y-113324428D01*
X110278619Y-113336523D01*
X110302809Y-113360714D01*
X110314904Y-113397000D01*
X110314904Y-113457476D01*
X110060904Y-113082523D02*
X110060904Y-113203476D01*
X110181857Y-113215571D01*
X110169761Y-113203476D01*
X110157666Y-113179285D01*
X110157666Y-113118809D01*
X110169761Y-113094619D01*
X110181857Y-113082523D01*
X110206047Y-113070428D01*
X110266523Y-113070428D01*
X110290714Y-113082523D01*
X110302809Y-113094619D01*
X110314904Y-113118809D01*
X110314904Y-113179285D01*
X110302809Y-113203476D01*
X110290714Y-113215571D01*
%TO.C,D4*%
D11*
X108773333Y-108326666D02*
X108773333Y-107626666D01*
X108940000Y-107626666D01*
X109040000Y-107660000D01*
X109106666Y-107726666D01*
X109140000Y-107793333D01*
X109173333Y-107926666D01*
X109173333Y-108026666D01*
X109140000Y-108160000D01*
X109106666Y-108226666D01*
X109040000Y-108293333D01*
X108940000Y-108326666D01*
X108773333Y-108326666D01*
X109773333Y-107860000D02*
X109773333Y-108326666D01*
X109606666Y-107593333D02*
X109440000Y-108093333D01*
X109873333Y-108093333D01*
%TO.C,C6*%
D16*
X113551285Y-111992666D02*
X113563190Y-112004571D01*
X113575095Y-112040285D01*
X113575095Y-112064095D01*
X113563190Y-112099809D01*
X113539380Y-112123619D01*
X113515571Y-112135523D01*
X113467952Y-112147428D01*
X113432238Y-112147428D01*
X113384619Y-112135523D01*
X113360809Y-112123619D01*
X113337000Y-112099809D01*
X113325095Y-112064095D01*
X113325095Y-112040285D01*
X113337000Y-112004571D01*
X113348904Y-111992666D01*
X113325095Y-111778380D02*
X113325095Y-111826000D01*
X113337000Y-111849809D01*
X113348904Y-111861714D01*
X113384619Y-111885523D01*
X113432238Y-111897428D01*
X113527476Y-111897428D01*
X113551285Y-111885523D01*
X113563190Y-111873619D01*
X113575095Y-111849809D01*
X113575095Y-111802190D01*
X113563190Y-111778380D01*
X113551285Y-111766476D01*
X113527476Y-111754571D01*
X113467952Y-111754571D01*
X113444142Y-111766476D01*
X113432238Y-111778380D01*
X113420333Y-111802190D01*
X113420333Y-111849809D01*
X113432238Y-111873619D01*
X113444142Y-111885523D01*
X113467952Y-111897428D01*
%TO.C,D1*%
D18*
X109854904Y-110707476D02*
X109600904Y-110707476D01*
X109600904Y-110647000D01*
X109613000Y-110610714D01*
X109637190Y-110586523D01*
X109661380Y-110574428D01*
X109709761Y-110562333D01*
X109746047Y-110562333D01*
X109794428Y-110574428D01*
X109818619Y-110586523D01*
X109842809Y-110610714D01*
X109854904Y-110647000D01*
X109854904Y-110707476D01*
X109854904Y-110320428D02*
X109854904Y-110465571D01*
X109854904Y-110393000D02*
X109600904Y-110393000D01*
X109637190Y-110417190D01*
X109661380Y-110441380D01*
X109673476Y-110465571D01*
%TO.C,C14*%
D16*
X113535285Y-117097714D02*
X113547190Y-117109619D01*
X113559095Y-117145333D01*
X113559095Y-117169142D01*
X113547190Y-117204857D01*
X113523380Y-117228666D01*
X113499571Y-117240571D01*
X113451952Y-117252476D01*
X113416238Y-117252476D01*
X113368619Y-117240571D01*
X113344809Y-117228666D01*
X113321000Y-117204857D01*
X113309095Y-117169142D01*
X113309095Y-117145333D01*
X113321000Y-117109619D01*
X113332904Y-117097714D01*
X113559095Y-116859619D02*
X113559095Y-117002476D01*
X113559095Y-116931047D02*
X113309095Y-116931047D01*
X113344809Y-116954857D01*
X113368619Y-116978666D01*
X113380523Y-117002476D01*
X113392428Y-116645333D02*
X113559095Y-116645333D01*
X113297190Y-116704857D02*
X113475761Y-116764380D01*
X113475761Y-116609619D01*
%TO.C,U5*%
D17*
X102635190Y-113655952D02*
X103039952Y-113655952D01*
X103087571Y-113632142D01*
X103111380Y-113608333D01*
X103135190Y-113560714D01*
X103135190Y-113465476D01*
X103111380Y-113417857D01*
X103087571Y-113394047D01*
X103039952Y-113370238D01*
X102635190Y-113370238D01*
X102635190Y-112894047D02*
X102635190Y-113132142D01*
X102873285Y-113155952D01*
X102849476Y-113132142D01*
X102825666Y-113084523D01*
X102825666Y-112965476D01*
X102849476Y-112917857D01*
X102873285Y-112894047D01*
X102920904Y-112870238D01*
X103039952Y-112870238D01*
X103087571Y-112894047D01*
X103111380Y-112917857D01*
X103135190Y-112965476D01*
X103135190Y-113084523D01*
X103111380Y-113132142D01*
X103087571Y-113155952D01*
%TO.C,R7*%
D16*
X111890333Y-128428095D02*
X111807000Y-128309047D01*
X111747476Y-128428095D02*
X111747476Y-128178095D01*
X111842714Y-128178095D01*
X111866523Y-128190000D01*
X111878428Y-128201904D01*
X111890333Y-128225714D01*
X111890333Y-128261428D01*
X111878428Y-128285238D01*
X111866523Y-128297142D01*
X111842714Y-128309047D01*
X111747476Y-128309047D01*
X111973666Y-128178095D02*
X112140333Y-128178095D01*
X112033190Y-128428095D01*
%TO.C,R6*%
X111950333Y-112521095D02*
X111867000Y-112402047D01*
X111807476Y-112521095D02*
X111807476Y-112271095D01*
X111902714Y-112271095D01*
X111926523Y-112283000D01*
X111938428Y-112294904D01*
X111950333Y-112318714D01*
X111950333Y-112354428D01*
X111938428Y-112378238D01*
X111926523Y-112390142D01*
X111902714Y-112402047D01*
X111807476Y-112402047D01*
X112164619Y-112271095D02*
X112117000Y-112271095D01*
X112093190Y-112283000D01*
X112081285Y-112294904D01*
X112057476Y-112330619D01*
X112045571Y-112378238D01*
X112045571Y-112473476D01*
X112057476Y-112497285D01*
X112069380Y-112509190D01*
X112093190Y-112521095D01*
X112140809Y-112521095D01*
X112164619Y-112509190D01*
X112176523Y-112497285D01*
X112188428Y-112473476D01*
X112188428Y-112413952D01*
X112176523Y-112390142D01*
X112164619Y-112378238D01*
X112140809Y-112366333D01*
X112093190Y-112366333D01*
X112069380Y-112378238D01*
X112057476Y-112390142D01*
X112045571Y-112413952D01*
%TO.C,R5*%
X111947333Y-111563095D02*
X111864000Y-111444047D01*
X111804476Y-111563095D02*
X111804476Y-111313095D01*
X111899714Y-111313095D01*
X111923523Y-111325000D01*
X111935428Y-111336904D01*
X111947333Y-111360714D01*
X111947333Y-111396428D01*
X111935428Y-111420238D01*
X111923523Y-111432142D01*
X111899714Y-111444047D01*
X111804476Y-111444047D01*
X112173523Y-111313095D02*
X112054476Y-111313095D01*
X112042571Y-111432142D01*
X112054476Y-111420238D01*
X112078285Y-111408333D01*
X112137809Y-111408333D01*
X112161619Y-111420238D01*
X112173523Y-111432142D01*
X112185428Y-111455952D01*
X112185428Y-111515476D01*
X112173523Y-111539285D01*
X112161619Y-111551190D01*
X112137809Y-111563095D01*
X112078285Y-111563095D01*
X112054476Y-111551190D01*
X112042571Y-111539285D01*
%TO.C,Q2*%
D17*
X103175809Y-116364619D02*
X103152000Y-116412238D01*
X103104380Y-116459857D01*
X103032952Y-116531285D01*
X103009142Y-116578904D01*
X103009142Y-116626523D01*
X103128190Y-116602714D02*
X103104380Y-116650333D01*
X103056761Y-116697952D01*
X102961523Y-116721761D01*
X102794857Y-116721761D01*
X102699619Y-116697952D01*
X102652000Y-116650333D01*
X102628190Y-116602714D01*
X102628190Y-116507476D01*
X102652000Y-116459857D01*
X102699619Y-116412238D01*
X102794857Y-116388428D01*
X102961523Y-116388428D01*
X103056761Y-116412238D01*
X103104380Y-116459857D01*
X103128190Y-116507476D01*
X103128190Y-116602714D01*
X102675809Y-116197952D02*
X102652000Y-116174142D01*
X102628190Y-116126523D01*
X102628190Y-116007476D01*
X102652000Y-115959857D01*
X102675809Y-115936047D01*
X102723428Y-115912238D01*
X102771047Y-115912238D01*
X102842476Y-115936047D01*
X103128190Y-116221761D01*
X103128190Y-115912238D01*
%TO.C,D2*%
D18*
X110762523Y-127354904D02*
X110762523Y-127100904D01*
X110823000Y-127100904D01*
X110859285Y-127113000D01*
X110883476Y-127137190D01*
X110895571Y-127161380D01*
X110907666Y-127209761D01*
X110907666Y-127246047D01*
X110895571Y-127294428D01*
X110883476Y-127318619D01*
X110859285Y-127342809D01*
X110823000Y-127354904D01*
X110762523Y-127354904D01*
X111004428Y-127125095D02*
X111016523Y-127113000D01*
X111040714Y-127100904D01*
X111101190Y-127100904D01*
X111125380Y-127113000D01*
X111137476Y-127125095D01*
X111149571Y-127149285D01*
X111149571Y-127173476D01*
X111137476Y-127209761D01*
X110992333Y-127354904D01*
X111149571Y-127354904D01*
%TO.C,U1*%
D17*
X111758190Y-109535952D02*
X112162952Y-109535952D01*
X112210571Y-109512142D01*
X112234380Y-109488333D01*
X112258190Y-109440714D01*
X112258190Y-109345476D01*
X112234380Y-109297857D01*
X112210571Y-109274047D01*
X112162952Y-109250238D01*
X111758190Y-109250238D01*
X112258190Y-108750238D02*
X112258190Y-109035952D01*
X112258190Y-108893095D02*
X111758190Y-108893095D01*
X111829619Y-108940714D01*
X111877238Y-108988333D01*
X111901047Y-109035952D01*
%TO.C,U4*%
X106295190Y-110554952D02*
X106699952Y-110554952D01*
X106747571Y-110531142D01*
X106771380Y-110507333D01*
X106795190Y-110459714D01*
X106795190Y-110364476D01*
X106771380Y-110316857D01*
X106747571Y-110293047D01*
X106699952Y-110269238D01*
X106295190Y-110269238D01*
X106461857Y-109816857D02*
X106795190Y-109816857D01*
X106271380Y-109935904D02*
X106628523Y-110054952D01*
X106628523Y-109745428D01*
%TO.C,Q1*%
X112625809Y-125087619D02*
X112602000Y-125135238D01*
X112554380Y-125182857D01*
X112482952Y-125254285D01*
X112459142Y-125301904D01*
X112459142Y-125349523D01*
X112578190Y-125325714D02*
X112554380Y-125373333D01*
X112506761Y-125420952D01*
X112411523Y-125444761D01*
X112244857Y-125444761D01*
X112149619Y-125420952D01*
X112102000Y-125373333D01*
X112078190Y-125325714D01*
X112078190Y-125230476D01*
X112102000Y-125182857D01*
X112149619Y-125135238D01*
X112244857Y-125111428D01*
X112411523Y-125111428D01*
X112506761Y-125135238D01*
X112554380Y-125182857D01*
X112578190Y-125230476D01*
X112578190Y-125325714D01*
X112578190Y-124635238D02*
X112578190Y-124920952D01*
X112578190Y-124778095D02*
X112078190Y-124778095D01*
X112149619Y-124825714D01*
X112197238Y-124873333D01*
X112221047Y-124920952D01*
%TO.C,C2*%
D16*
X113536285Y-115103666D02*
X113548190Y-115115571D01*
X113560095Y-115151285D01*
X113560095Y-115175095D01*
X113548190Y-115210809D01*
X113524380Y-115234619D01*
X113500571Y-115246523D01*
X113452952Y-115258428D01*
X113417238Y-115258428D01*
X113369619Y-115246523D01*
X113345809Y-115234619D01*
X113322000Y-115210809D01*
X113310095Y-115175095D01*
X113310095Y-115151285D01*
X113322000Y-115115571D01*
X113333904Y-115103666D01*
X113333904Y-115008428D02*
X113322000Y-114996523D01*
X113310095Y-114972714D01*
X113310095Y-114913190D01*
X113322000Y-114889380D01*
X113333904Y-114877476D01*
X113357714Y-114865571D01*
X113381523Y-114865571D01*
X113417238Y-114877476D01*
X113560095Y-115020333D01*
X113560095Y-114865571D01*
%TO.C,D3*%
X102268095Y-124915523D02*
X102018095Y-124915523D01*
X102018095Y-124856000D01*
X102030000Y-124820285D01*
X102053809Y-124796476D01*
X102077619Y-124784571D01*
X102125238Y-124772666D01*
X102160952Y-124772666D01*
X102208571Y-124784571D01*
X102232380Y-124796476D01*
X102256190Y-124820285D01*
X102268095Y-124856000D01*
X102268095Y-124915523D01*
X102018095Y-124689333D02*
X102018095Y-124534571D01*
X102113333Y-124617904D01*
X102113333Y-124582190D01*
X102125238Y-124558380D01*
X102137142Y-124546476D01*
X102160952Y-124534571D01*
X102220476Y-124534571D01*
X102244285Y-124546476D01*
X102256190Y-124558380D01*
X102268095Y-124582190D01*
X102268095Y-124653619D01*
X102256190Y-124677428D01*
X102244285Y-124689333D01*
%TO.C,Y1*%
D10*
X107032809Y-124856190D02*
X107032809Y-125332380D01*
X106699476Y-124332380D02*
X107032809Y-124856190D01*
X107366142Y-124332380D01*
X108223285Y-125332380D02*
X107651857Y-125332380D01*
X107937571Y-125332380D02*
X107937571Y-124332380D01*
X107842333Y-124475238D01*
X107747095Y-124570476D01*
X107651857Y-124618095D01*
%TO.C,C3*%
D16*
X110814333Y-122714285D02*
X110802428Y-122726190D01*
X110766714Y-122738095D01*
X110742904Y-122738095D01*
X110707190Y-122726190D01*
X110683380Y-122702380D01*
X110671476Y-122678571D01*
X110659571Y-122630952D01*
X110659571Y-122595238D01*
X110671476Y-122547619D01*
X110683380Y-122523809D01*
X110707190Y-122500000D01*
X110742904Y-122488095D01*
X110766714Y-122488095D01*
X110802428Y-122500000D01*
X110814333Y-122511904D01*
X110897666Y-122488095D02*
X111052428Y-122488095D01*
X110969095Y-122583333D01*
X111004809Y-122583333D01*
X111028619Y-122595238D01*
X111040523Y-122607142D01*
X111052428Y-122630952D01*
X111052428Y-122690476D01*
X111040523Y-122714285D01*
X111028619Y-122726190D01*
X111004809Y-122738095D01*
X110933380Y-122738095D01*
X110909571Y-122726190D01*
X110897666Y-122714285D01*
%TO.C,C12*%
X113447285Y-99757714D02*
X113459190Y-99769619D01*
X113471095Y-99805333D01*
X113471095Y-99829142D01*
X113459190Y-99864857D01*
X113435380Y-99888666D01*
X113411571Y-99900571D01*
X113363952Y-99912476D01*
X113328238Y-99912476D01*
X113280619Y-99900571D01*
X113256809Y-99888666D01*
X113233000Y-99864857D01*
X113221095Y-99829142D01*
X113221095Y-99805333D01*
X113233000Y-99769619D01*
X113244904Y-99757714D01*
X113471095Y-99519619D02*
X113471095Y-99662476D01*
X113471095Y-99591047D02*
X113221095Y-99591047D01*
X113256809Y-99614857D01*
X113280619Y-99638666D01*
X113292523Y-99662476D01*
X113244904Y-99424380D02*
X113233000Y-99412476D01*
X113221095Y-99388666D01*
X113221095Y-99329142D01*
X113233000Y-99305333D01*
X113244904Y-99293428D01*
X113268714Y-99281523D01*
X113292523Y-99281523D01*
X113328238Y-99293428D01*
X113471095Y-99436285D01*
X113471095Y-99281523D01*
%TO.C,FB1*%
X101803142Y-99858333D02*
X101803142Y-99941666D01*
X101934095Y-99941666D02*
X101684095Y-99941666D01*
X101684095Y-99822619D01*
X101803142Y-99644047D02*
X101815047Y-99608333D01*
X101826952Y-99596428D01*
X101850761Y-99584523D01*
X101886476Y-99584523D01*
X101910285Y-99596428D01*
X101922190Y-99608333D01*
X101934095Y-99632142D01*
X101934095Y-99727380D01*
X101684095Y-99727380D01*
X101684095Y-99644047D01*
X101696000Y-99620238D01*
X101707904Y-99608333D01*
X101731714Y-99596428D01*
X101755523Y-99596428D01*
X101779333Y-99608333D01*
X101791238Y-99620238D01*
X101803142Y-99644047D01*
X101803142Y-99727380D01*
X101934095Y-99346428D02*
X101934095Y-99489285D01*
X101934095Y-99417857D02*
X101684095Y-99417857D01*
X101719809Y-99441666D01*
X101743619Y-99465476D01*
X101755523Y-99489285D01*
%TO.C,R4*%
X103224095Y-124772666D02*
X103105047Y-124856000D01*
X103224095Y-124915523D02*
X102974095Y-124915523D01*
X102974095Y-124820285D01*
X102986000Y-124796476D01*
X102997904Y-124784571D01*
X103021714Y-124772666D01*
X103057428Y-124772666D01*
X103081238Y-124784571D01*
X103093142Y-124796476D01*
X103105047Y-124820285D01*
X103105047Y-124915523D01*
X103057428Y-124558380D02*
X103224095Y-124558380D01*
X102962190Y-124617904D02*
X103140761Y-124677428D01*
X103140761Y-124522666D01*
%TO.C,R3*%
X101934095Y-101605666D02*
X101815047Y-101689000D01*
X101934095Y-101748523D02*
X101684095Y-101748523D01*
X101684095Y-101653285D01*
X101696000Y-101629476D01*
X101707904Y-101617571D01*
X101731714Y-101605666D01*
X101767428Y-101605666D01*
X101791238Y-101617571D01*
X101803142Y-101629476D01*
X101815047Y-101653285D01*
X101815047Y-101748523D01*
X101684095Y-101522333D02*
X101684095Y-101367571D01*
X101779333Y-101450904D01*
X101779333Y-101415190D01*
X101791238Y-101391380D01*
X101803142Y-101379476D01*
X101826952Y-101367571D01*
X101886476Y-101367571D01*
X101910285Y-101379476D01*
X101922190Y-101391380D01*
X101934095Y-101415190D01*
X101934095Y-101486619D01*
X101922190Y-101510428D01*
X101910285Y-101522333D01*
%TO.C,R2*%
X113465095Y-101616666D02*
X113346047Y-101700000D01*
X113465095Y-101759523D02*
X113215095Y-101759523D01*
X113215095Y-101664285D01*
X113227000Y-101640476D01*
X113238904Y-101628571D01*
X113262714Y-101616666D01*
X113298428Y-101616666D01*
X113322238Y-101628571D01*
X113334142Y-101640476D01*
X113346047Y-101664285D01*
X113346047Y-101759523D01*
X113238904Y-101521428D02*
X113227000Y-101509523D01*
X113215095Y-101485714D01*
X113215095Y-101426190D01*
X113227000Y-101402380D01*
X113238904Y-101390476D01*
X113262714Y-101378571D01*
X113286523Y-101378571D01*
X113322238Y-101390476D01*
X113465095Y-101533333D01*
X113465095Y-101378571D01*
%TO.C,R1*%
X101879095Y-118812666D02*
X101760047Y-118896000D01*
X101879095Y-118955523D02*
X101629095Y-118955523D01*
X101629095Y-118860285D01*
X101641000Y-118836476D01*
X101652904Y-118824571D01*
X101676714Y-118812666D01*
X101712428Y-118812666D01*
X101736238Y-118824571D01*
X101748142Y-118836476D01*
X101760047Y-118860285D01*
X101760047Y-118955523D01*
X101879095Y-118574571D02*
X101879095Y-118717428D01*
X101879095Y-118646000D02*
X101629095Y-118646000D01*
X101664809Y-118669809D01*
X101688619Y-118693619D01*
X101700523Y-118717428D01*
%TO.C,C9*%
X108911333Y-122714285D02*
X108899428Y-122726190D01*
X108863714Y-122738095D01*
X108839904Y-122738095D01*
X108804190Y-122726190D01*
X108780380Y-122702380D01*
X108768476Y-122678571D01*
X108756571Y-122630952D01*
X108756571Y-122595238D01*
X108768476Y-122547619D01*
X108780380Y-122523809D01*
X108804190Y-122500000D01*
X108839904Y-122488095D01*
X108863714Y-122488095D01*
X108899428Y-122500000D01*
X108911333Y-122511904D01*
X109030380Y-122738095D02*
X109078000Y-122738095D01*
X109101809Y-122726190D01*
X109113714Y-122714285D01*
X109137523Y-122678571D01*
X109149428Y-122630952D01*
X109149428Y-122535714D01*
X109137523Y-122511904D01*
X109125619Y-122500000D01*
X109101809Y-122488095D01*
X109054190Y-122488095D01*
X109030380Y-122500000D01*
X109018476Y-122511904D01*
X109006571Y-122535714D01*
X109006571Y-122595238D01*
X109018476Y-122619047D01*
X109030380Y-122630952D01*
X109054190Y-122642857D01*
X109101809Y-122642857D01*
X109125619Y-122630952D01*
X109137523Y-122619047D01*
X109149428Y-122595238D01*
%TO.C,C8*%
X106941333Y-122703285D02*
X106929428Y-122715190D01*
X106893714Y-122727095D01*
X106869904Y-122727095D01*
X106834190Y-122715190D01*
X106810380Y-122691380D01*
X106798476Y-122667571D01*
X106786571Y-122619952D01*
X106786571Y-122584238D01*
X106798476Y-122536619D01*
X106810380Y-122512809D01*
X106834190Y-122489000D01*
X106869904Y-122477095D01*
X106893714Y-122477095D01*
X106929428Y-122489000D01*
X106941333Y-122500904D01*
X107084190Y-122584238D02*
X107060380Y-122572333D01*
X107048476Y-122560428D01*
X107036571Y-122536619D01*
X107036571Y-122524714D01*
X107048476Y-122500904D01*
X107060380Y-122489000D01*
X107084190Y-122477095D01*
X107131809Y-122477095D01*
X107155619Y-122489000D01*
X107167523Y-122500904D01*
X107179428Y-122524714D01*
X107179428Y-122536619D01*
X107167523Y-122560428D01*
X107155619Y-122572333D01*
X107131809Y-122584238D01*
X107084190Y-122584238D01*
X107060380Y-122596142D01*
X107048476Y-122608047D01*
X107036571Y-122631857D01*
X107036571Y-122679476D01*
X107048476Y-122703285D01*
X107060380Y-122715190D01*
X107084190Y-122727095D01*
X107131809Y-122727095D01*
X107155619Y-122715190D01*
X107167523Y-122703285D01*
X107179428Y-122679476D01*
X107179428Y-122631857D01*
X107167523Y-122608047D01*
X107155619Y-122596142D01*
X107131809Y-122584238D01*
%TO.C,C7*%
X112880333Y-123239285D02*
X112868428Y-123251190D01*
X112832714Y-123263095D01*
X112808904Y-123263095D01*
X112773190Y-123251190D01*
X112749380Y-123227380D01*
X112737476Y-123203571D01*
X112725571Y-123155952D01*
X112725571Y-123120238D01*
X112737476Y-123072619D01*
X112749380Y-123048809D01*
X112773190Y-123025000D01*
X112808904Y-123013095D01*
X112832714Y-123013095D01*
X112868428Y-123025000D01*
X112880333Y-123036904D01*
X112963666Y-123013095D02*
X113130333Y-123013095D01*
X113023190Y-123263095D01*
%TO.C,C4*%
X104182285Y-120849666D02*
X104194190Y-120861571D01*
X104206095Y-120897285D01*
X104206095Y-120921095D01*
X104194190Y-120956809D01*
X104170380Y-120980619D01*
X104146571Y-120992523D01*
X104098952Y-121004428D01*
X104063238Y-121004428D01*
X104015619Y-120992523D01*
X103991809Y-120980619D01*
X103968000Y-120956809D01*
X103956095Y-120921095D01*
X103956095Y-120897285D01*
X103968000Y-120861571D01*
X103979904Y-120849666D01*
X104039428Y-120635380D02*
X104206095Y-120635380D01*
X103944190Y-120694904D02*
X104122761Y-120754428D01*
X104122761Y-120599666D01*
%TO.C,C1*%
X105465333Y-113316285D02*
X105453428Y-113328190D01*
X105417714Y-113340095D01*
X105393904Y-113340095D01*
X105358190Y-113328190D01*
X105334380Y-113304380D01*
X105322476Y-113280571D01*
X105310571Y-113232952D01*
X105310571Y-113197238D01*
X105322476Y-113149619D01*
X105334380Y-113125809D01*
X105358190Y-113102000D01*
X105393904Y-113090095D01*
X105417714Y-113090095D01*
X105453428Y-113102000D01*
X105465333Y-113113904D01*
X105703428Y-113340095D02*
X105560571Y-113340095D01*
X105632000Y-113340095D02*
X105632000Y-113090095D01*
X105608190Y-113125809D01*
X105584380Y-113149619D01*
X105560571Y-113161523D01*
%TO.C,F1*%
D10*
X110241571Y-105746333D02*
X110241571Y-106079666D01*
X110765380Y-106079666D02*
X109765380Y-106079666D01*
X109765380Y-105603476D01*
X110765380Y-104698714D02*
X110765380Y-105270142D01*
X110765380Y-104984428D02*
X109765380Y-104984428D01*
X109908238Y-105079666D01*
X110003476Y-105174904D01*
X110051095Y-105270142D01*
%TO.C,C10*%
D16*
X108990285Y-109343285D02*
X108978380Y-109355190D01*
X108942666Y-109367095D01*
X108918857Y-109367095D01*
X108883142Y-109355190D01*
X108859333Y-109331380D01*
X108847428Y-109307571D01*
X108835523Y-109259952D01*
X108835523Y-109224238D01*
X108847428Y-109176619D01*
X108859333Y-109152809D01*
X108883142Y-109129000D01*
X108918857Y-109117095D01*
X108942666Y-109117095D01*
X108978380Y-109129000D01*
X108990285Y-109140904D01*
X109228380Y-109367095D02*
X109085523Y-109367095D01*
X109156952Y-109367095D02*
X109156952Y-109117095D01*
X109133142Y-109152809D01*
X109109333Y-109176619D01*
X109085523Y-109188523D01*
X109383142Y-109117095D02*
X109406952Y-109117095D01*
X109430761Y-109129000D01*
X109442666Y-109140904D01*
X109454571Y-109164714D01*
X109466476Y-109212333D01*
X109466476Y-109271857D01*
X109454571Y-109319476D01*
X109442666Y-109343285D01*
X109430761Y-109355190D01*
X109406952Y-109367095D01*
X109383142Y-109367095D01*
X109359333Y-109355190D01*
X109347428Y-109343285D01*
X109335523Y-109319476D01*
X109323619Y-109271857D01*
X109323619Y-109212333D01*
X109335523Y-109164714D01*
X109347428Y-109140904D01*
X109359333Y-109129000D01*
X109383142Y-109117095D01*
%TD*%
M02*
