%TF.GenerationSoftware,KiCad,Pcbnew,(5.1.6-0-10_14)*%
%TF.CreationDate,2022-03-04T18:56:52-06:00*%
%TF.ProjectId,Bonsai_C4,426f6e73-6169-45f4-9334-2e6b69636164,rev?*%
%TF.SameCoordinates,Original*%
%TF.FileFunction,Copper,L3,Inr*%
%TF.FilePolarity,Positive*%
%FSLAX46Y46*%
G04 Gerber Fmt 4.6, Leading zero omitted, Abs format (unit mm)*
G04 Created by KiCad (PCBNEW (5.1.6-0-10_14)) date 2022-03-04 18:56:52*
%MOMM*%
%LPD*%
G01*
G04 APERTURE LIST*
%TA.AperFunction,ViaPad*%
%ADD10C,1.700000*%
%TD*%
%TA.AperFunction,ViaPad*%
%ADD11O,1.700000X1.700000*%
%TD*%
%TA.AperFunction,ViaPad*%
%ADD12O,1.100000X2.200000*%
%TD*%
%TA.AperFunction,ViaPad*%
%ADD13O,1.300000X1.900000*%
%TD*%
%TA.AperFunction,ViaPad*%
%ADD14C,0.500000*%
%TD*%
%TA.AperFunction,ViaPad*%
%ADD15C,0.250000*%
%TD*%
%TA.AperFunction,ViaPad*%
%ADD16C,0.800000*%
%TD*%
%TA.AperFunction,ViaPad*%
%ADD17C,0.450000*%
%TD*%
%TA.AperFunction,ViaPad*%
%ADD18C,0.350000*%
%TD*%
%TA.AperFunction,Conductor*%
%ADD19C,0.500000*%
%TD*%
%TA.AperFunction,Conductor*%
%ADD20C,0.190000*%
%TD*%
%TA.AperFunction,Conductor*%
%ADD21C,0.127000*%
%TD*%
%TA.AperFunction,Conductor*%
%ADD22C,0.450000*%
%TD*%
%TA.AperFunction,Conductor*%
%ADD23C,0.200000*%
%TD*%
G04 APERTURE END LIST*
D10*
%TO.N,/PD3*%
%TO.C,J4*%
X100000000Y-100000000D03*
D11*
%TO.N,/PD2*%
X100000000Y-102540000D03*
%TO.N,GND*%
X100000000Y-105080000D03*
%TO.N,/PD0*%
X100000000Y-112700000D03*
%TO.N,/PD1*%
X100000000Y-110160000D03*
D10*
%TO.N,GND*%
X100000000Y-107620000D03*
%TO.N,/B10*%
X100000000Y-122860000D03*
D11*
%TO.N,/B8*%
X100000000Y-117780000D03*
D10*
%TO.N,/A4*%
X100000000Y-115240000D03*
D11*
%TO.N,/A8*%
X100000000Y-125400000D03*
%TO.N,/B0*%
X100000000Y-127940000D03*
%TO.N,/A3*%
X100000000Y-120320000D03*
%TD*%
D10*
%TO.N,+5V*%
%TO.C,J5*%
X115240000Y-100000000D03*
D11*
%TO.N,GND*%
X115240000Y-102540000D03*
%TO.N,/DFU*%
X115240000Y-105080000D03*
%TO.N,/A6*%
X115240000Y-112700000D03*
%TO.N,/A7*%
X115240000Y-110160000D03*
D10*
%TO.N,+3V3*%
X115240000Y-107620000D03*
%TO.N,/B14*%
X115240000Y-122860000D03*
D11*
%TO.N,/A1*%
X115240000Y-117780000D03*
D10*
%TO.N,/A5*%
X115240000Y-115240000D03*
D11*
%TO.N,/B15*%
X115240000Y-125400000D03*
%TO.N,/B1*%
X115240000Y-127940000D03*
%TO.N,/B13*%
X115240000Y-120320000D03*
%TD*%
%TO.N,/D+*%
%TO.C,J1*%
X102540000Y-105080000D03*
%TO.N,/D-*%
X105080000Y-105080000D03*
D10*
%TO.N,VBUS*%
X107620000Y-105080000D03*
%TD*%
%TO.N,/A10_5V*%
%TO.C,J2*%
X112680000Y-105120000D03*
%TD*%
D12*
%TO.N,Net-(FB1-Pad1)*%
%TO.C,J3*%
X103320000Y-102000000D03*
D13*
X103320000Y-97800000D03*
X111920000Y-97800000D03*
D12*
X111920000Y-102000000D03*
%TD*%
D14*
%TO.N,GND*%
%TO.C,U3*%
X106172000Y-120440000D03*
X106172000Y-117890000D03*
X106172000Y-115340000D03*
X107447000Y-119165000D03*
X107447000Y-116615000D03*
X108722000Y-120440000D03*
X108722000Y-117890000D03*
X108722000Y-115340000D03*
X109997000Y-119165000D03*
X109997000Y-116615000D03*
X111272000Y-120440000D03*
X111272000Y-117890000D03*
X111272000Y-115340000D03*
%TD*%
D15*
%TO.N,GND*%
X113463000Y-111466000D03*
X101821000Y-102049000D03*
X113358000Y-100082000D03*
D16*
X106364000Y-106197000D03*
D15*
X109438000Y-122625000D03*
X111341000Y-122625000D03*
X109468000Y-121056000D03*
X105619000Y-110824000D03*
D17*
X102681784Y-108250856D03*
X113878955Y-110795454D03*
X114199761Y-116483619D03*
D15*
X101959000Y-113925000D03*
X113356000Y-102029000D03*
X111973168Y-115634990D03*
X103994000Y-116978000D03*
X112426990Y-123150000D03*
X106496761Y-122615239D03*
X106825000Y-124136000D03*
X106858000Y-125479000D03*
X108213000Y-125524000D03*
X104809000Y-106488000D03*
X103545000Y-106066000D03*
X110870000Y-102605000D03*
X104370000Y-102688000D03*
D16*
X103665309Y-103763691D03*
D15*
X102383010Y-111367990D03*
X101833019Y-100268916D03*
X104116202Y-120346202D03*
D16*
X112051988Y-109880000D03*
D15*
X108190000Y-124310000D03*
D17*
X110250000Y-127740000D03*
D15*
X105520000Y-126250000D03*
X105480000Y-127210000D03*
X105520000Y-113690000D03*
D17*
X103174436Y-115028510D03*
X101777172Y-119875929D03*
D16*
%TO.N,+5V*%
X114373000Y-98687000D03*
X111870000Y-107200000D03*
D15*
%TO.N,+3V3*%
X113317000Y-125676000D03*
D17*
X110400000Y-123368000D03*
X109663000Y-126436002D03*
D16*
X112636133Y-113460933D03*
D17*
X105398000Y-122757000D03*
D15*
X103353000Y-111368000D03*
D16*
X112830000Y-109130000D03*
D15*
X108188078Y-112750000D03*
D16*
%TO.N,Net-(D1-Pad2)*%
X110430000Y-105467000D03*
D17*
X108075768Y-111367469D03*
%TO.N,VBUS*%
X110226356Y-110817020D03*
X109120000Y-106420000D03*
D15*
%TO.N,/A3*%
X112262863Y-121873863D03*
%TO.N,Net-(J3-PadA5)*%
X113352000Y-101090000D03*
X108870000Y-102225000D03*
%TO.N,Net-(J3-PadB5)*%
X105870000Y-102225000D03*
X101821000Y-101079000D03*
%TO.N,/NRST*%
X108972000Y-121585000D03*
X113477030Y-123147637D03*
%TO.N,/BOOT0*%
X105589000Y-118638000D03*
X103626000Y-116315000D03*
%TO.N,/B0*%
X112402000Y-118140000D03*
X103280000Y-126890000D03*
%TO.N,/B1*%
X111899000Y-117640000D03*
%TO.N,/B2*%
X112405000Y-117141000D03*
X113443637Y-120733363D03*
X113611000Y-118916000D03*
X102160000Y-116314000D03*
X101521058Y-114763337D03*
%TO.N,/B7*%
X104989000Y-118140000D03*
X101480000Y-102910000D03*
X102350000Y-102670000D03*
X102520000Y-98990000D03*
D17*
X101140000Y-108670000D03*
D15*
%TO.N,/B6*%
X105574000Y-117640000D03*
X104090000Y-118400000D03*
X101024479Y-109410000D03*
X101024479Y-111370655D03*
D17*
X103120980Y-120790457D03*
D18*
%TO.N,/A10*%
X106434000Y-110176000D03*
D15*
X109460000Y-112840000D03*
%TO.N,/B13*%
X110971000Y-114706000D03*
%TO.N,/B9*%
X100625086Y-111392893D03*
%TO.N,/B15*%
X109971000Y-114705000D03*
%TO.N,/B8*%
X104992000Y-119139000D03*
%TO.N,/B14*%
X110471000Y-114180000D03*
%TO.N,/A2*%
X111471000Y-121507000D03*
%TO.N,/DFU*%
X113272000Y-125040000D03*
D18*
X114756000Y-114041000D03*
X113623451Y-113358549D03*
D15*
X114710243Y-119068635D03*
%TO.N,/B10*%
X111908000Y-116640000D03*
X100956000Y-116573000D03*
X103890000Y-114400014D03*
D17*
%TO.N,/A15*%
X101822000Y-97440000D03*
D15*
X105230000Y-115604480D03*
D17*
%TO.N,Net-(C12-Pad1)*%
X113359000Y-98304000D03*
X101081133Y-98877986D03*
X102841490Y-117148510D03*
X102911515Y-118302532D03*
D15*
X110330000Y-127170000D03*
X109000000Y-127690000D03*
D17*
X113430000Y-127170000D03*
D15*
%TO.N,/VBUS_DET*%
X111507000Y-112408000D03*
%TO.N,Net-(D3-Pad-)*%
X101504969Y-122852294D03*
X101798069Y-115659441D03*
D17*
%TO.N,Net-(D5-Pad1)*%
X103522000Y-108291000D03*
X105107000Y-108774000D03*
D15*
X110700000Y-112300000D03*
D17*
%TO.N,/A10_5V*%
X109565743Y-110891954D03*
D15*
%TO.N,/A8*%
X109471000Y-114209000D03*
X101789947Y-120390000D03*
%TO.N,/A4*%
X111969000Y-120139000D03*
%TO.N,/A6*%
X113506000Y-118201000D03*
%TO.N,/A7*%
X111914000Y-118641000D03*
%TO.N,/A0_FRAM_CS*%
X110474000Y-121490000D03*
X106330000Y-111180000D03*
X108220000Y-113350000D03*
X104460000Y-115850000D03*
X104640000Y-114190000D03*
%TO.N,/B3_SCK*%
X101840000Y-125940000D03*
X104410000Y-126465000D03*
X108660000Y-113240000D03*
X104427024Y-116310000D03*
%TO.N,/B4_MISO*%
X106940000Y-107770000D03*
X106849363Y-111270637D03*
X105284508Y-116640000D03*
D17*
%TO.N,/B12_FLASH_CS*%
X112692000Y-114284000D03*
D15*
%TO.N,/B5_MOSI*%
X104994000Y-117140000D03*
D17*
X103103000Y-122524000D03*
X103320000Y-118780000D03*
D15*
X109490000Y-113370000D03*
%TO.N,Net-(Q2-Pad6)*%
X113482000Y-121666000D03*
X101838000Y-116959000D03*
X111928000Y-121096000D03*
%TO.N,/PD2*%
X100650000Y-101060002D03*
%TD*%
D19*
%TO.N,Net-(D1-Pad2)*%
X108075768Y-106404232D02*
X108075768Y-111367469D01*
X109013000Y-105467000D02*
X108075768Y-106404232D01*
X110430000Y-105467000D02*
X109013000Y-105467000D01*
D20*
%TO.N,VBUS*%
X109730000Y-107030000D02*
X109120000Y-106420000D01*
X109730000Y-110320664D02*
X109730000Y-107030000D01*
X110226356Y-110817020D02*
X109730000Y-110320664D01*
D21*
%TO.N,/B1*%
X115240000Y-127534002D02*
X115240000Y-127940000D01*
X114176499Y-126470501D02*
X115240000Y-127534002D01*
X111899000Y-118132000D02*
X114176499Y-120409499D01*
X114176499Y-120409499D02*
X114176499Y-126470501D01*
X111899000Y-117640000D02*
X111899000Y-118132000D01*
D22*
X111899000Y-117640000D02*
X111899000Y-117721000D01*
%TO.N,/B2*%
X112405000Y-117141000D02*
X112405000Y-117138000D01*
D21*
X112405000Y-117141000D02*
X112865000Y-117601000D01*
X112865000Y-118170000D02*
X113611000Y-118916000D01*
X112865000Y-117601000D02*
X112865000Y-118170000D01*
D22*
X113611000Y-118916000D02*
X113565000Y-118870000D01*
X102160000Y-116314000D02*
X102157000Y-116317000D01*
X101502500Y-114781500D02*
X101520663Y-114763337D01*
D21*
X101350218Y-114934177D02*
X101521058Y-114763337D01*
X101350218Y-116160218D02*
X101350218Y-114934177D01*
X101507000Y-116317000D02*
X101350218Y-116160218D01*
X102157000Y-116317000D02*
X101507000Y-116317000D01*
D22*
X101520663Y-114763337D02*
X101521058Y-114763337D01*
%TO.N,Net-(D3-Pad-)*%
X101504968Y-122852294D02*
X101443337Y-122790663D01*
X101504969Y-122852294D02*
X101504968Y-122852294D01*
X101862000Y-115659000D02*
X101798510Y-115659000D01*
X101798510Y-115659000D02*
X101798069Y-115659441D01*
D21*
X101069976Y-118257250D02*
X102664000Y-116663226D01*
X101056976Y-121775519D02*
X101069976Y-121762519D01*
X101443337Y-122790663D02*
X101056976Y-122404301D01*
X102664000Y-116663226D02*
X102664000Y-115889000D01*
X102434441Y-115659441D02*
X101798069Y-115659441D01*
X102664000Y-115889000D02*
X102434441Y-115659441D01*
X101056976Y-122404301D02*
X101056976Y-121775519D01*
X101069976Y-121762519D02*
X101069976Y-118257250D01*
%TO.N,/A0_FRAM_CS*%
X104460000Y-115850000D02*
X104460000Y-114370000D01*
X104460000Y-114370000D02*
X104640000Y-114190000D01*
D22*
%TO.N,Net-(Q2-Pad6)*%
X113482000Y-121666000D02*
X113473000Y-121666000D01*
D21*
X113482000Y-121666000D02*
X112912000Y-121096000D01*
X112912000Y-121096000D02*
X111928000Y-121096000D01*
D22*
X111928000Y-121096000D02*
X112019000Y-121096000D01*
%TD*%
D23*
%TO.N,GND*%
G36*
X114058280Y-95916876D02*
G01*
X113910101Y-96138641D01*
X113808034Y-96385053D01*
X113756000Y-96646643D01*
X113756000Y-96913357D01*
X113808034Y-97174947D01*
X113910101Y-97421359D01*
X114058280Y-97643124D01*
X114246876Y-97831720D01*
X114398452Y-97933000D01*
X114298738Y-97933000D01*
X114153066Y-97961976D01*
X114015847Y-98018814D01*
X113899719Y-98096408D01*
X113872104Y-98029740D01*
X113808739Y-97934909D01*
X113728091Y-97854261D01*
X113633260Y-97790896D01*
X113527888Y-97747250D01*
X113416027Y-97725000D01*
X113301973Y-97725000D01*
X113190112Y-97747250D01*
X113084740Y-97790896D01*
X112989909Y-97854261D01*
X112924000Y-97920170D01*
X112924000Y-97450687D01*
X112909472Y-97303183D01*
X112852062Y-97113927D01*
X112758834Y-96939509D01*
X112633370Y-96786630D01*
X112480491Y-96661166D01*
X112306073Y-96567938D01*
X112116818Y-96510528D01*
X111920000Y-96491143D01*
X111723183Y-96510528D01*
X111533928Y-96567938D01*
X111359510Y-96661166D01*
X111206631Y-96786630D01*
X111081167Y-96939509D01*
X110987939Y-97113927D01*
X110930528Y-97303182D01*
X110916000Y-97450686D01*
X110916000Y-98149313D01*
X110930528Y-98296817D01*
X110987938Y-98486072D01*
X111081166Y-98660491D01*
X111206630Y-98813370D01*
X111359509Y-98938834D01*
X111533927Y-99032062D01*
X111723182Y-99089472D01*
X111920000Y-99108857D01*
X112116817Y-99089472D01*
X112306072Y-99032062D01*
X112480491Y-98938834D01*
X112633370Y-98813370D01*
X112758834Y-98660491D01*
X112827075Y-98532821D01*
X112845896Y-98578260D01*
X112909261Y-98673091D01*
X112989909Y-98753739D01*
X113084740Y-98817104D01*
X113190112Y-98860750D01*
X113301973Y-98883000D01*
X113416027Y-98883000D01*
X113527888Y-98860750D01*
X113630348Y-98818310D01*
X113647976Y-98906934D01*
X113704814Y-99044153D01*
X113787330Y-99167647D01*
X113892353Y-99272670D01*
X114015847Y-99355186D01*
X114153066Y-99412024D01*
X114181107Y-99417602D01*
X114173029Y-99429692D01*
X114082269Y-99648806D01*
X114036000Y-99881416D01*
X114036000Y-100118584D01*
X114082269Y-100351194D01*
X114173029Y-100570308D01*
X114304792Y-100767505D01*
X114472495Y-100935208D01*
X114669692Y-101066971D01*
X114888806Y-101157731D01*
X115121416Y-101204000D01*
X115358584Y-101204000D01*
X115591194Y-101157731D01*
X115810308Y-101066971D01*
X116007505Y-100935208D01*
X116131001Y-100811712D01*
X116131001Y-101738131D01*
X116076897Y-101674425D01*
X115891951Y-101527786D01*
X115681951Y-101420046D01*
X115454967Y-101355345D01*
X115267000Y-101424802D01*
X115267000Y-102513000D01*
X115287000Y-102513000D01*
X115287000Y-102567000D01*
X115267000Y-102567000D01*
X115267000Y-103655198D01*
X115454967Y-103724655D01*
X115681951Y-103659954D01*
X115891951Y-103552214D01*
X116076897Y-103405575D01*
X116131001Y-103341869D01*
X116131001Y-104268288D01*
X116007505Y-104144792D01*
X115810308Y-104013029D01*
X115591194Y-103922269D01*
X115358584Y-103876000D01*
X115121416Y-103876000D01*
X114888806Y-103922269D01*
X114669692Y-104013029D01*
X114472495Y-104144792D01*
X114304792Y-104312495D01*
X114173029Y-104509692D01*
X114082269Y-104728806D01*
X114036000Y-104961416D01*
X114036000Y-105198584D01*
X114082269Y-105431194D01*
X114173029Y-105650308D01*
X114304792Y-105847505D01*
X114472495Y-106015208D01*
X114669692Y-106146971D01*
X114888806Y-106237731D01*
X115121416Y-106284000D01*
X115358584Y-106284000D01*
X115591194Y-106237731D01*
X115810308Y-106146971D01*
X116007505Y-106015208D01*
X116131001Y-105891712D01*
X116131001Y-106808288D01*
X116007505Y-106684792D01*
X115810308Y-106553029D01*
X115591194Y-106462269D01*
X115358584Y-106416000D01*
X115121416Y-106416000D01*
X114888806Y-106462269D01*
X114669692Y-106553029D01*
X114472495Y-106684792D01*
X114304792Y-106852495D01*
X114173029Y-107049692D01*
X114082269Y-107268806D01*
X114036000Y-107501416D01*
X114036000Y-107738584D01*
X114082269Y-107971194D01*
X114173029Y-108190308D01*
X114304792Y-108387505D01*
X114472495Y-108555208D01*
X114669692Y-108686971D01*
X114888806Y-108777731D01*
X115121416Y-108824000D01*
X115358584Y-108824000D01*
X115591194Y-108777731D01*
X115810308Y-108686971D01*
X116007505Y-108555208D01*
X116131001Y-108431712D01*
X116131001Y-109348288D01*
X116007505Y-109224792D01*
X115810308Y-109093029D01*
X115591194Y-109002269D01*
X115358584Y-108956000D01*
X115121416Y-108956000D01*
X114888806Y-109002269D01*
X114669692Y-109093029D01*
X114472495Y-109224792D01*
X114304792Y-109392495D01*
X114173029Y-109589692D01*
X114082269Y-109808806D01*
X114036000Y-110041416D01*
X114036000Y-110278584D01*
X114082269Y-110511194D01*
X114173029Y-110730308D01*
X114304792Y-110927505D01*
X114472495Y-111095208D01*
X114669692Y-111226971D01*
X114888806Y-111317731D01*
X115121416Y-111364000D01*
X115358584Y-111364000D01*
X115591194Y-111317731D01*
X115810308Y-111226971D01*
X116007505Y-111095208D01*
X116131001Y-110971712D01*
X116131001Y-111888288D01*
X116007505Y-111764792D01*
X115810308Y-111633029D01*
X115591194Y-111542269D01*
X115358584Y-111496000D01*
X115121416Y-111496000D01*
X114888806Y-111542269D01*
X114669692Y-111633029D01*
X114472495Y-111764792D01*
X114304792Y-111932495D01*
X114173029Y-112129692D01*
X114082269Y-112348806D01*
X114036000Y-112581416D01*
X114036000Y-112818584D01*
X114082269Y-113051194D01*
X114173029Y-113270308D01*
X114304792Y-113467505D01*
X114447918Y-113610631D01*
X114418782Y-113630099D01*
X114345099Y-113703782D01*
X114287206Y-113790424D01*
X114247329Y-113886696D01*
X114227000Y-113988898D01*
X114227000Y-114093102D01*
X114247329Y-114195304D01*
X114287206Y-114291576D01*
X114345099Y-114378218D01*
X114372084Y-114405203D01*
X114304792Y-114472495D01*
X114173029Y-114669692D01*
X114082269Y-114888806D01*
X114036000Y-115121416D01*
X114036000Y-115358584D01*
X114082269Y-115591194D01*
X114173029Y-115810308D01*
X114304792Y-116007505D01*
X114472495Y-116175208D01*
X114669692Y-116306971D01*
X114888806Y-116397731D01*
X115121416Y-116444000D01*
X115358584Y-116444000D01*
X115591194Y-116397731D01*
X115810308Y-116306971D01*
X116007505Y-116175208D01*
X116131000Y-116051713D01*
X116131000Y-116968287D01*
X116007505Y-116844792D01*
X115810308Y-116713029D01*
X115591194Y-116622269D01*
X115358584Y-116576000D01*
X115121416Y-116576000D01*
X114888806Y-116622269D01*
X114669692Y-116713029D01*
X114472495Y-116844792D01*
X114304792Y-117012495D01*
X114173029Y-117209692D01*
X114082269Y-117428806D01*
X114036000Y-117661416D01*
X114036000Y-117898584D01*
X114082269Y-118131194D01*
X114173029Y-118350308D01*
X114304792Y-118547505D01*
X114434247Y-118676960D01*
X114404898Y-118696571D01*
X114338179Y-118763290D01*
X114285758Y-118841743D01*
X114249650Y-118928916D01*
X114231243Y-119021458D01*
X114231243Y-119115812D01*
X114249650Y-119208354D01*
X114285758Y-119295527D01*
X114338179Y-119373980D01*
X114404898Y-119440699D01*
X114411906Y-119445381D01*
X114304792Y-119552495D01*
X114173029Y-119749692D01*
X114153727Y-119796292D01*
X113816231Y-119458796D01*
X113833645Y-119453514D01*
X113934231Y-119399750D01*
X114022395Y-119327395D01*
X114094750Y-119239231D01*
X114148514Y-119138645D01*
X114181621Y-119029504D01*
X114192800Y-118916000D01*
X114181621Y-118802497D01*
X114148514Y-118693355D01*
X114094750Y-118592769D01*
X114040524Y-118526695D01*
X113954305Y-118440476D01*
X113932638Y-118422694D01*
X113966593Y-118340719D01*
X113985000Y-118248177D01*
X113985000Y-118153823D01*
X113966593Y-118061281D01*
X113930485Y-117974108D01*
X113878064Y-117895655D01*
X113811345Y-117828936D01*
X113732892Y-117776515D01*
X113645719Y-117740407D01*
X113553177Y-117722000D01*
X113458823Y-117722000D01*
X113366281Y-117740407D01*
X113282500Y-117775110D01*
X113282500Y-117621498D01*
X113284519Y-117600999D01*
X113282500Y-117580500D01*
X113282500Y-117580491D01*
X113276459Y-117519156D01*
X113252586Y-117440457D01*
X113213818Y-117367927D01*
X113161645Y-117304355D01*
X113145718Y-117291284D01*
X112984000Y-117129566D01*
X112984000Y-117109562D01*
X112975622Y-117024497D01*
X112942514Y-116915355D01*
X112888750Y-116814770D01*
X112816395Y-116726605D01*
X112728231Y-116654250D01*
X112627646Y-116600486D01*
X112518504Y-116567378D01*
X112405000Y-116556199D01*
X112380201Y-116558641D01*
X112368593Y-116500281D01*
X112332485Y-116413108D01*
X112280064Y-116334655D01*
X112213345Y-116267936D01*
X112134892Y-116215515D01*
X112047719Y-116179407D01*
X111955177Y-116161000D01*
X111860823Y-116161000D01*
X111768281Y-116179407D01*
X111681108Y-116215515D01*
X111602655Y-116267936D01*
X111535936Y-116334655D01*
X111483515Y-116413108D01*
X111447407Y-116500281D01*
X111429000Y-116592823D01*
X111429000Y-116687177D01*
X111447407Y-116779719D01*
X111483515Y-116866892D01*
X111535936Y-116945345D01*
X111602655Y-117012064D01*
X111681108Y-117064485D01*
X111732057Y-117085589D01*
X111676354Y-117102486D01*
X111575769Y-117156250D01*
X111487605Y-117228605D01*
X111424694Y-117305262D01*
X111387289Y-117294129D01*
X111268824Y-117283087D01*
X111150483Y-117295368D01*
X111036811Y-117330500D01*
X110937457Y-117383606D01*
X110925010Y-117504826D01*
X111272000Y-117851816D01*
X111286142Y-117837674D01*
X111324326Y-117875858D01*
X111310184Y-117890000D01*
X111324326Y-117904142D01*
X111286142Y-117942326D01*
X111272000Y-117928184D01*
X110925010Y-118275174D01*
X110937457Y-118396394D01*
X111042677Y-118451930D01*
X111156711Y-118485871D01*
X111275176Y-118496913D01*
X111393517Y-118484632D01*
X111470108Y-118460960D01*
X111453407Y-118501281D01*
X111435000Y-118593823D01*
X111435000Y-118688177D01*
X111453407Y-118780719D01*
X111489515Y-118867892D01*
X111541936Y-118946345D01*
X111608655Y-119013064D01*
X111687108Y-119065485D01*
X111774281Y-119101593D01*
X111866823Y-119120000D01*
X111961177Y-119120000D01*
X112053719Y-119101593D01*
X112140892Y-119065485D01*
X112201532Y-119024966D01*
X113430928Y-120254363D01*
X113396460Y-120254363D01*
X113303918Y-120272770D01*
X113216745Y-120308878D01*
X113138292Y-120361299D01*
X113071573Y-120428018D01*
X113019152Y-120506471D01*
X112983044Y-120593644D01*
X112965519Y-120681751D01*
X112932509Y-120678500D01*
X112932502Y-120678500D01*
X112912000Y-120676481D01*
X112891498Y-120678500D01*
X112422956Y-120678500D01*
X112342231Y-120612250D01*
X112241646Y-120558486D01*
X112215324Y-120550501D01*
X112274345Y-120511064D01*
X112341064Y-120444345D01*
X112393485Y-120365892D01*
X112429593Y-120278719D01*
X112448000Y-120186177D01*
X112448000Y-120091823D01*
X112429593Y-119999281D01*
X112393485Y-119912108D01*
X112341064Y-119833655D01*
X112274345Y-119766936D01*
X112195892Y-119714515D01*
X112108719Y-119678407D01*
X112016177Y-119660000D01*
X111921823Y-119660000D01*
X111829281Y-119678407D01*
X111742108Y-119714515D01*
X111663655Y-119766936D01*
X111596936Y-119833655D01*
X111550068Y-119903798D01*
X111501323Y-119878070D01*
X111387289Y-119844129D01*
X111268824Y-119833087D01*
X111150483Y-119845368D01*
X111036811Y-119880500D01*
X110937457Y-119933606D01*
X110925010Y-120054826D01*
X111272000Y-120401816D01*
X111286142Y-120387674D01*
X111324326Y-120425858D01*
X111310184Y-120440000D01*
X111324326Y-120454142D01*
X111286142Y-120492326D01*
X111272000Y-120478184D01*
X110925010Y-120825174D01*
X110937457Y-120946394D01*
X111042677Y-121001930D01*
X111156711Y-121035871D01*
X111275176Y-121046913D01*
X111351817Y-121038959D01*
X111351479Y-121042390D01*
X111331281Y-121046407D01*
X111244108Y-121082515D01*
X111165655Y-121134936D01*
X111098936Y-121201655D01*
X111046515Y-121280108D01*
X111010407Y-121367281D01*
X110992000Y-121459823D01*
X110992000Y-121554177D01*
X111010407Y-121646719D01*
X111046515Y-121733892D01*
X111098936Y-121812345D01*
X111165655Y-121879064D01*
X111244108Y-121931485D01*
X111331281Y-121967593D01*
X111423823Y-121986000D01*
X111518177Y-121986000D01*
X111610719Y-121967593D01*
X111697892Y-121931485D01*
X111776345Y-121879064D01*
X111783863Y-121871546D01*
X111783863Y-121921040D01*
X111802270Y-122013582D01*
X111838378Y-122100755D01*
X111890799Y-122179208D01*
X111957518Y-122245927D01*
X112035971Y-122298348D01*
X112123144Y-122334456D01*
X112215686Y-122352863D01*
X112310040Y-122352863D01*
X112402582Y-122334456D01*
X112489755Y-122298348D01*
X112568208Y-122245927D01*
X112634927Y-122179208D01*
X112687348Y-122100755D01*
X112723456Y-122013582D01*
X112741863Y-121921040D01*
X112741863Y-121826686D01*
X112723456Y-121734144D01*
X112687348Y-121646971D01*
X112634927Y-121568518D01*
X112579909Y-121513500D01*
X112739066Y-121513500D01*
X112891232Y-121665666D01*
X112891199Y-121666000D01*
X112902378Y-121779504D01*
X112935486Y-121888646D01*
X112989250Y-121989231D01*
X113061605Y-122077395D01*
X113149769Y-122149750D01*
X113250354Y-122203514D01*
X113359496Y-122236622D01*
X113444561Y-122245000D01*
X113510439Y-122245000D01*
X113595504Y-122236622D01*
X113704646Y-122203514D01*
X113758999Y-122174461D01*
X113758999Y-122759954D01*
X113703922Y-122723152D01*
X113616749Y-122687044D01*
X113524207Y-122668637D01*
X113429853Y-122668637D01*
X113337311Y-122687044D01*
X113250138Y-122723152D01*
X113171685Y-122775573D01*
X113104966Y-122842292D01*
X113052545Y-122920745D01*
X113016437Y-123007918D01*
X112998030Y-123100460D01*
X112998030Y-123194814D01*
X113016437Y-123287356D01*
X113052545Y-123374529D01*
X113104966Y-123452982D01*
X113171685Y-123519701D01*
X113250138Y-123572122D01*
X113337311Y-123608230D01*
X113429853Y-123626637D01*
X113524207Y-123626637D01*
X113616749Y-123608230D01*
X113703922Y-123572122D01*
X113759000Y-123535320D01*
X113759000Y-125491393D01*
X113741485Y-125449108D01*
X113689064Y-125370655D01*
X113651951Y-125333542D01*
X113696485Y-125266892D01*
X113732593Y-125179719D01*
X113751000Y-125087177D01*
X113751000Y-124992823D01*
X113732593Y-124900281D01*
X113696485Y-124813108D01*
X113644064Y-124734655D01*
X113577345Y-124667936D01*
X113498892Y-124615515D01*
X113411719Y-124579407D01*
X113319177Y-124561000D01*
X113224823Y-124561000D01*
X113132281Y-124579407D01*
X113045108Y-124615515D01*
X112966655Y-124667936D01*
X112899936Y-124734655D01*
X112847515Y-124813108D01*
X112811407Y-124900281D01*
X112793000Y-124992823D01*
X112793000Y-125087177D01*
X112811407Y-125179719D01*
X112847515Y-125266892D01*
X112899936Y-125345345D01*
X112937049Y-125382458D01*
X112892515Y-125449108D01*
X112856407Y-125536281D01*
X112838000Y-125628823D01*
X112838000Y-125723177D01*
X112856407Y-125815719D01*
X112892515Y-125902892D01*
X112944936Y-125981345D01*
X113011655Y-126048064D01*
X113090108Y-126100485D01*
X113177281Y-126136593D01*
X113269823Y-126155000D01*
X113364177Y-126155000D01*
X113456719Y-126136593D01*
X113543892Y-126100485D01*
X113622345Y-126048064D01*
X113689064Y-125981345D01*
X113741485Y-125902892D01*
X113759000Y-125860607D01*
X113759000Y-126449989D01*
X113756980Y-126470501D01*
X113765040Y-126552345D01*
X113788914Y-126631044D01*
X113827682Y-126703574D01*
X113866780Y-126751216D01*
X113866788Y-126751224D01*
X113879855Y-126767146D01*
X113895777Y-126780213D01*
X114298090Y-127182526D01*
X114173029Y-127369692D01*
X114082269Y-127588806D01*
X114036000Y-127821416D01*
X114036000Y-128058584D01*
X114082269Y-128291194D01*
X114173029Y-128510308D01*
X114304792Y-128707505D01*
X114428287Y-128831000D01*
X100811713Y-128831000D01*
X100935208Y-128707505D01*
X101066971Y-128510308D01*
X101157731Y-128291194D01*
X101204000Y-128058584D01*
X101204000Y-127821416D01*
X101168476Y-127642823D01*
X108521000Y-127642823D01*
X108521000Y-127737177D01*
X108539407Y-127829719D01*
X108575515Y-127916892D01*
X108627936Y-127995345D01*
X108694655Y-128062064D01*
X108773108Y-128114485D01*
X108860281Y-128150593D01*
X108952823Y-128169000D01*
X109047177Y-128169000D01*
X109139719Y-128150593D01*
X109226892Y-128114485D01*
X109305345Y-128062064D01*
X109372064Y-127995345D01*
X109424485Y-127916892D01*
X109460593Y-127829719D01*
X109479000Y-127737177D01*
X109479000Y-127642823D01*
X109460593Y-127550281D01*
X109424485Y-127463108D01*
X109372064Y-127384655D01*
X109305345Y-127317936D01*
X109226892Y-127265515D01*
X109139719Y-127229407D01*
X109047177Y-127211000D01*
X108952823Y-127211000D01*
X108860281Y-127229407D01*
X108773108Y-127265515D01*
X108694655Y-127317936D01*
X108627936Y-127384655D01*
X108575515Y-127463108D01*
X108539407Y-127550281D01*
X108521000Y-127642823D01*
X101168476Y-127642823D01*
X101157731Y-127588806D01*
X101066971Y-127369692D01*
X100935208Y-127172495D01*
X100767505Y-127004792D01*
X100570308Y-126873029D01*
X100497385Y-126842823D01*
X102801000Y-126842823D01*
X102801000Y-126937177D01*
X102819407Y-127029719D01*
X102855515Y-127116892D01*
X102907936Y-127195345D01*
X102974655Y-127262064D01*
X103053108Y-127314485D01*
X103140281Y-127350593D01*
X103232823Y-127369000D01*
X103327177Y-127369000D01*
X103419719Y-127350593D01*
X103506892Y-127314485D01*
X103585345Y-127262064D01*
X103652064Y-127195345D01*
X103704485Y-127116892D01*
X103740593Y-127029719D01*
X103759000Y-126937177D01*
X103759000Y-126842823D01*
X103740593Y-126750281D01*
X103704485Y-126663108D01*
X103652064Y-126584655D01*
X103585345Y-126517936D01*
X103506892Y-126465515D01*
X103419719Y-126429407D01*
X103361480Y-126417823D01*
X103931000Y-126417823D01*
X103931000Y-126512177D01*
X103949407Y-126604719D01*
X103985515Y-126691892D01*
X104037936Y-126770345D01*
X104104655Y-126837064D01*
X104183108Y-126889485D01*
X104270281Y-126925593D01*
X104362823Y-126944000D01*
X104457177Y-126944000D01*
X104549719Y-126925593D01*
X104636892Y-126889485D01*
X104715345Y-126837064D01*
X104782064Y-126770345D01*
X104834485Y-126691892D01*
X104870593Y-126604719D01*
X104889000Y-126512177D01*
X104889000Y-126417823D01*
X104881273Y-126378975D01*
X109084000Y-126378975D01*
X109084000Y-126493029D01*
X109106250Y-126604890D01*
X109149896Y-126710262D01*
X109213261Y-126805093D01*
X109293909Y-126885741D01*
X109388740Y-126949106D01*
X109494112Y-126992752D01*
X109605973Y-127015002D01*
X109720027Y-127015002D01*
X109831888Y-126992752D01*
X109895942Y-126966220D01*
X109869407Y-127030281D01*
X109851000Y-127122823D01*
X109851000Y-127217177D01*
X109869407Y-127309719D01*
X109905515Y-127396892D01*
X109957936Y-127475345D01*
X110024655Y-127542064D01*
X110103108Y-127594485D01*
X110190281Y-127630593D01*
X110282823Y-127649000D01*
X110377177Y-127649000D01*
X110469719Y-127630593D01*
X110556892Y-127594485D01*
X110635345Y-127542064D01*
X110702064Y-127475345D01*
X110754485Y-127396892D01*
X110790593Y-127309719D01*
X110809000Y-127217177D01*
X110809000Y-127122823D01*
X110807041Y-127112973D01*
X112851000Y-127112973D01*
X112851000Y-127227027D01*
X112873250Y-127338888D01*
X112916896Y-127444260D01*
X112980261Y-127539091D01*
X113060909Y-127619739D01*
X113155740Y-127683104D01*
X113261112Y-127726750D01*
X113372973Y-127749000D01*
X113487027Y-127749000D01*
X113598888Y-127726750D01*
X113704260Y-127683104D01*
X113799091Y-127619739D01*
X113879739Y-127539091D01*
X113943104Y-127444260D01*
X113986750Y-127338888D01*
X114009000Y-127227027D01*
X114009000Y-127112973D01*
X113986750Y-127001112D01*
X113943104Y-126895740D01*
X113879739Y-126800909D01*
X113799091Y-126720261D01*
X113704260Y-126656896D01*
X113598888Y-126613250D01*
X113487027Y-126591000D01*
X113372973Y-126591000D01*
X113261112Y-126613250D01*
X113155740Y-126656896D01*
X113060909Y-126720261D01*
X112980261Y-126800909D01*
X112916896Y-126895740D01*
X112873250Y-127001112D01*
X112851000Y-127112973D01*
X110807041Y-127112973D01*
X110790593Y-127030281D01*
X110754485Y-126943108D01*
X110702064Y-126864655D01*
X110635345Y-126797936D01*
X110556892Y-126745515D01*
X110469719Y-126709407D01*
X110377177Y-126691000D01*
X110282823Y-126691000D01*
X110190281Y-126709407D01*
X110171469Y-126717199D01*
X110176104Y-126710262D01*
X110219750Y-126604890D01*
X110242000Y-126493029D01*
X110242000Y-126378975D01*
X110219750Y-126267114D01*
X110176104Y-126161742D01*
X110112739Y-126066911D01*
X110032091Y-125986263D01*
X109937260Y-125922898D01*
X109831888Y-125879252D01*
X109720027Y-125857002D01*
X109605973Y-125857002D01*
X109494112Y-125879252D01*
X109388740Y-125922898D01*
X109293909Y-125986263D01*
X109213261Y-126066911D01*
X109149896Y-126161742D01*
X109106250Y-126267114D01*
X109084000Y-126378975D01*
X104881273Y-126378975D01*
X104870593Y-126325281D01*
X104834485Y-126238108D01*
X104782064Y-126159655D01*
X104715345Y-126092936D01*
X104636892Y-126040515D01*
X104549719Y-126004407D01*
X104457177Y-125986000D01*
X104362823Y-125986000D01*
X104270281Y-126004407D01*
X104183108Y-126040515D01*
X104104655Y-126092936D01*
X104037936Y-126159655D01*
X103985515Y-126238108D01*
X103949407Y-126325281D01*
X103931000Y-126417823D01*
X103361480Y-126417823D01*
X103327177Y-126411000D01*
X103232823Y-126411000D01*
X103140281Y-126429407D01*
X103053108Y-126465515D01*
X102974655Y-126517936D01*
X102907936Y-126584655D01*
X102855515Y-126663108D01*
X102819407Y-126750281D01*
X102801000Y-126842823D01*
X100497385Y-126842823D01*
X100351194Y-126782269D01*
X100118584Y-126736000D01*
X99881416Y-126736000D01*
X99648806Y-126782269D01*
X99429692Y-126873029D01*
X99232495Y-127004792D01*
X99109000Y-127128287D01*
X99109000Y-126211713D01*
X99232495Y-126335208D01*
X99429692Y-126466971D01*
X99648806Y-126557731D01*
X99881416Y-126604000D01*
X100118584Y-126604000D01*
X100351194Y-126557731D01*
X100570308Y-126466971D01*
X100767505Y-126335208D01*
X100935208Y-126167505D01*
X101066971Y-125970308D01*
X101099066Y-125892823D01*
X101361000Y-125892823D01*
X101361000Y-125987177D01*
X101379407Y-126079719D01*
X101415515Y-126166892D01*
X101467936Y-126245345D01*
X101534655Y-126312064D01*
X101613108Y-126364485D01*
X101700281Y-126400593D01*
X101792823Y-126419000D01*
X101887177Y-126419000D01*
X101979719Y-126400593D01*
X102066892Y-126364485D01*
X102145345Y-126312064D01*
X102212064Y-126245345D01*
X102264485Y-126166892D01*
X102300593Y-126079719D01*
X102319000Y-125987177D01*
X102319000Y-125892823D01*
X102300593Y-125800281D01*
X102264485Y-125713108D01*
X102212064Y-125634655D01*
X102145345Y-125567936D01*
X102066892Y-125515515D01*
X101979719Y-125479407D01*
X101887177Y-125461000D01*
X101792823Y-125461000D01*
X101700281Y-125479407D01*
X101613108Y-125515515D01*
X101534655Y-125567936D01*
X101467936Y-125634655D01*
X101415515Y-125713108D01*
X101379407Y-125800281D01*
X101361000Y-125892823D01*
X101099066Y-125892823D01*
X101157731Y-125751194D01*
X101204000Y-125518584D01*
X101204000Y-125281416D01*
X101157731Y-125048806D01*
X101066971Y-124829692D01*
X100935208Y-124632495D01*
X100767505Y-124464792D01*
X100570308Y-124333029D01*
X100351194Y-124242269D01*
X100118584Y-124196000D01*
X99881416Y-124196000D01*
X99648806Y-124242269D01*
X99429692Y-124333029D01*
X99232495Y-124464792D01*
X99109000Y-124588287D01*
X99109000Y-123671713D01*
X99232495Y-123795208D01*
X99429692Y-123926971D01*
X99648806Y-124017731D01*
X99881416Y-124064000D01*
X100118584Y-124064000D01*
X100351194Y-124017731D01*
X100570308Y-123926971D01*
X100767505Y-123795208D01*
X100935208Y-123627505D01*
X101066971Y-123430308D01*
X101125227Y-123289667D01*
X101181737Y-123336044D01*
X101282322Y-123389808D01*
X101391464Y-123422916D01*
X101476529Y-123431294D01*
X101476538Y-123431294D01*
X101504967Y-123434094D01*
X101533396Y-123431294D01*
X101533408Y-123431294D01*
X101618473Y-123422916D01*
X101727615Y-123389808D01*
X101828200Y-123336044D01*
X101916364Y-123263689D01*
X101988719Y-123175525D01*
X102042483Y-123074940D01*
X102075591Y-122965798D01*
X102086770Y-122852294D01*
X102075591Y-122738790D01*
X102042483Y-122629648D01*
X101988719Y-122529063D01*
X101937763Y-122466973D01*
X102524000Y-122466973D01*
X102524000Y-122581027D01*
X102546250Y-122692888D01*
X102589896Y-122798260D01*
X102653261Y-122893091D01*
X102733909Y-122973739D01*
X102828740Y-123037104D01*
X102934112Y-123080750D01*
X103045973Y-123103000D01*
X103160027Y-123103000D01*
X103271888Y-123080750D01*
X103377260Y-123037104D01*
X103472091Y-122973739D01*
X103552739Y-122893091D01*
X103616104Y-122798260D01*
X103656815Y-122699973D01*
X104819000Y-122699973D01*
X104819000Y-122814027D01*
X104841250Y-122925888D01*
X104884896Y-123031260D01*
X104948261Y-123126091D01*
X105028909Y-123206739D01*
X105123740Y-123270104D01*
X105229112Y-123313750D01*
X105340973Y-123336000D01*
X105455027Y-123336000D01*
X105566888Y-123313750D01*
X105573592Y-123310973D01*
X109821000Y-123310973D01*
X109821000Y-123425027D01*
X109843250Y-123536888D01*
X109886896Y-123642260D01*
X109950261Y-123737091D01*
X110030909Y-123817739D01*
X110125740Y-123881104D01*
X110231112Y-123924750D01*
X110342973Y-123947000D01*
X110457027Y-123947000D01*
X110568888Y-123924750D01*
X110674260Y-123881104D01*
X110769091Y-123817739D01*
X110849739Y-123737091D01*
X110913104Y-123642260D01*
X110956750Y-123536888D01*
X110979000Y-123425027D01*
X110979000Y-123310973D01*
X110956750Y-123199112D01*
X110913104Y-123093740D01*
X110849739Y-122998909D01*
X110769091Y-122918261D01*
X110674260Y-122854896D01*
X110568888Y-122811250D01*
X110457027Y-122789000D01*
X110342973Y-122789000D01*
X110231112Y-122811250D01*
X110125740Y-122854896D01*
X110030909Y-122918261D01*
X109950261Y-122998909D01*
X109886896Y-123093740D01*
X109843250Y-123199112D01*
X109821000Y-123310973D01*
X105573592Y-123310973D01*
X105672260Y-123270104D01*
X105767091Y-123206739D01*
X105847739Y-123126091D01*
X105911104Y-123031260D01*
X105954750Y-122925888D01*
X105977000Y-122814027D01*
X105977000Y-122699973D01*
X105954750Y-122588112D01*
X105911104Y-122482740D01*
X105847739Y-122387909D01*
X105767091Y-122307261D01*
X105672260Y-122243896D01*
X105566888Y-122200250D01*
X105455027Y-122178000D01*
X105340973Y-122178000D01*
X105229112Y-122200250D01*
X105123740Y-122243896D01*
X105028909Y-122307261D01*
X104948261Y-122387909D01*
X104884896Y-122482740D01*
X104841250Y-122588112D01*
X104819000Y-122699973D01*
X103656815Y-122699973D01*
X103659750Y-122692888D01*
X103682000Y-122581027D01*
X103682000Y-122466973D01*
X103659750Y-122355112D01*
X103616104Y-122249740D01*
X103552739Y-122154909D01*
X103472091Y-122074261D01*
X103377260Y-122010896D01*
X103271888Y-121967250D01*
X103160027Y-121945000D01*
X103045973Y-121945000D01*
X102934112Y-121967250D01*
X102828740Y-122010896D01*
X102733909Y-122074261D01*
X102653261Y-122154909D01*
X102589896Y-122249740D01*
X102546250Y-122355112D01*
X102524000Y-122466973D01*
X101937763Y-122466973D01*
X101916364Y-122440899D01*
X101894265Y-122422763D01*
X101832642Y-122361139D01*
X101766568Y-122306913D01*
X101665982Y-122253149D01*
X101556841Y-122220042D01*
X101474476Y-122211930D01*
X101474476Y-121867304D01*
X101481435Y-121844363D01*
X101487476Y-121783028D01*
X101487476Y-121783020D01*
X101489495Y-121762519D01*
X101487476Y-121742017D01*
X101487476Y-121537823D01*
X108493000Y-121537823D01*
X108493000Y-121632177D01*
X108511407Y-121724719D01*
X108547515Y-121811892D01*
X108599936Y-121890345D01*
X108666655Y-121957064D01*
X108745108Y-122009485D01*
X108832281Y-122045593D01*
X108924823Y-122064000D01*
X109019177Y-122064000D01*
X109111719Y-122045593D01*
X109198892Y-122009485D01*
X109277345Y-121957064D01*
X109344064Y-121890345D01*
X109396485Y-121811892D01*
X109432593Y-121724719D01*
X109451000Y-121632177D01*
X109451000Y-121537823D01*
X109432593Y-121445281D01*
X109431575Y-121442823D01*
X109995000Y-121442823D01*
X109995000Y-121537177D01*
X110013407Y-121629719D01*
X110049515Y-121716892D01*
X110101936Y-121795345D01*
X110168655Y-121862064D01*
X110247108Y-121914485D01*
X110334281Y-121950593D01*
X110426823Y-121969000D01*
X110521177Y-121969000D01*
X110613719Y-121950593D01*
X110700892Y-121914485D01*
X110779345Y-121862064D01*
X110846064Y-121795345D01*
X110898485Y-121716892D01*
X110934593Y-121629719D01*
X110953000Y-121537177D01*
X110953000Y-121442823D01*
X110934593Y-121350281D01*
X110898485Y-121263108D01*
X110846064Y-121184655D01*
X110779345Y-121117936D01*
X110700892Y-121065515D01*
X110613719Y-121029407D01*
X110521177Y-121011000D01*
X110426823Y-121011000D01*
X110334281Y-121029407D01*
X110247108Y-121065515D01*
X110168655Y-121117936D01*
X110101936Y-121184655D01*
X110049515Y-121263108D01*
X110013407Y-121350281D01*
X109995000Y-121442823D01*
X109431575Y-121442823D01*
X109396485Y-121358108D01*
X109344064Y-121279655D01*
X109277345Y-121212936D01*
X109198892Y-121160515D01*
X109111719Y-121124407D01*
X109019177Y-121106000D01*
X108924823Y-121106000D01*
X108832281Y-121124407D01*
X108745108Y-121160515D01*
X108666655Y-121212936D01*
X108599936Y-121279655D01*
X108547515Y-121358108D01*
X108511407Y-121445281D01*
X108493000Y-121537823D01*
X101487476Y-121537823D01*
X101487476Y-120763984D01*
X101563055Y-120814485D01*
X101650228Y-120850593D01*
X101742770Y-120869000D01*
X101837124Y-120869000D01*
X101929666Y-120850593D01*
X102016839Y-120814485D01*
X102095292Y-120762064D01*
X102123926Y-120733430D01*
X102541980Y-120733430D01*
X102541980Y-120847484D01*
X102564230Y-120959345D01*
X102607876Y-121064717D01*
X102671241Y-121159548D01*
X102751889Y-121240196D01*
X102846720Y-121303561D01*
X102952092Y-121347207D01*
X103063953Y-121369457D01*
X103178007Y-121369457D01*
X103289868Y-121347207D01*
X103395240Y-121303561D01*
X103490071Y-121240196D01*
X103570719Y-121159548D01*
X103634084Y-121064717D01*
X103677730Y-120959345D01*
X103699980Y-120847484D01*
X103699980Y-120825174D01*
X105825010Y-120825174D01*
X105837457Y-120946394D01*
X105942677Y-121001930D01*
X106056711Y-121035871D01*
X106175176Y-121046913D01*
X106293517Y-121034632D01*
X106407189Y-120999500D01*
X106506543Y-120946394D01*
X106518990Y-120825174D01*
X108375010Y-120825174D01*
X108387457Y-120946394D01*
X108492677Y-121001930D01*
X108606711Y-121035871D01*
X108725176Y-121046913D01*
X108843517Y-121034632D01*
X108957189Y-120999500D01*
X109056543Y-120946394D01*
X109068990Y-120825174D01*
X108722000Y-120478184D01*
X108375010Y-120825174D01*
X106518990Y-120825174D01*
X106172000Y-120478184D01*
X105825010Y-120825174D01*
X103699980Y-120825174D01*
X103699980Y-120733430D01*
X103677730Y-120621569D01*
X103634084Y-120516197D01*
X103585293Y-120443176D01*
X105565087Y-120443176D01*
X105577368Y-120561517D01*
X105612500Y-120675189D01*
X105665606Y-120774543D01*
X105786826Y-120786990D01*
X106133816Y-120440000D01*
X106210184Y-120440000D01*
X106557174Y-120786990D01*
X106678394Y-120774543D01*
X106733930Y-120669323D01*
X106767871Y-120555289D01*
X106778320Y-120443176D01*
X108115087Y-120443176D01*
X108127368Y-120561517D01*
X108162500Y-120675189D01*
X108215606Y-120774543D01*
X108336826Y-120786990D01*
X108683816Y-120440000D01*
X108760184Y-120440000D01*
X109107174Y-120786990D01*
X109228394Y-120774543D01*
X109283930Y-120669323D01*
X109317871Y-120555289D01*
X109328320Y-120443176D01*
X110665087Y-120443176D01*
X110677368Y-120561517D01*
X110712500Y-120675189D01*
X110765606Y-120774543D01*
X110886826Y-120786990D01*
X111233816Y-120440000D01*
X110886826Y-120093010D01*
X110765606Y-120105457D01*
X110710070Y-120210677D01*
X110676129Y-120324711D01*
X110665087Y-120443176D01*
X109328320Y-120443176D01*
X109328913Y-120436824D01*
X109316632Y-120318483D01*
X109281500Y-120204811D01*
X109228394Y-120105457D01*
X109107174Y-120093010D01*
X108760184Y-120440000D01*
X108683816Y-120440000D01*
X108336826Y-120093010D01*
X108215606Y-120105457D01*
X108160070Y-120210677D01*
X108126129Y-120324711D01*
X108115087Y-120443176D01*
X106778320Y-120443176D01*
X106778913Y-120436824D01*
X106766632Y-120318483D01*
X106731500Y-120204811D01*
X106678394Y-120105457D01*
X106557174Y-120093010D01*
X106210184Y-120440000D01*
X106133816Y-120440000D01*
X105786826Y-120093010D01*
X105665606Y-120105457D01*
X105610070Y-120210677D01*
X105576129Y-120324711D01*
X105565087Y-120443176D01*
X103585293Y-120443176D01*
X103570719Y-120421366D01*
X103490071Y-120340718D01*
X103395240Y-120277353D01*
X103289868Y-120233707D01*
X103178007Y-120211457D01*
X103063953Y-120211457D01*
X102952092Y-120233707D01*
X102846720Y-120277353D01*
X102751889Y-120340718D01*
X102671241Y-120421366D01*
X102607876Y-120516197D01*
X102564230Y-120621569D01*
X102541980Y-120733430D01*
X102123926Y-120733430D01*
X102162011Y-120695345D01*
X102214432Y-120616892D01*
X102250540Y-120529719D01*
X102268947Y-120437177D01*
X102268947Y-120342823D01*
X102250540Y-120250281D01*
X102214432Y-120163108D01*
X102162011Y-120084655D01*
X102132182Y-120054826D01*
X105825010Y-120054826D01*
X106172000Y-120401816D01*
X106518990Y-120054826D01*
X108375010Y-120054826D01*
X108722000Y-120401816D01*
X109068990Y-120054826D01*
X109056543Y-119933606D01*
X108951323Y-119878070D01*
X108837289Y-119844129D01*
X108718824Y-119833087D01*
X108600483Y-119845368D01*
X108486811Y-119880500D01*
X108387457Y-119933606D01*
X108375010Y-120054826D01*
X106518990Y-120054826D01*
X106506543Y-119933606D01*
X106401323Y-119878070D01*
X106287289Y-119844129D01*
X106168824Y-119833087D01*
X106050483Y-119845368D01*
X105936811Y-119880500D01*
X105837457Y-119933606D01*
X105825010Y-120054826D01*
X102132182Y-120054826D01*
X102095292Y-120017936D01*
X102016839Y-119965515D01*
X101929666Y-119929407D01*
X101837124Y-119911000D01*
X101742770Y-119911000D01*
X101650228Y-119929407D01*
X101563055Y-119965515D01*
X101487476Y-120016016D01*
X101487476Y-118430184D01*
X102395905Y-117521755D01*
X102472399Y-117598249D01*
X102567230Y-117661614D01*
X102672602Y-117705260D01*
X102784463Y-117727510D01*
X102834489Y-117727510D01*
X102742627Y-117745782D01*
X102637255Y-117789428D01*
X102542424Y-117852793D01*
X102461776Y-117933441D01*
X102398411Y-118028272D01*
X102354765Y-118133644D01*
X102332515Y-118245505D01*
X102332515Y-118359559D01*
X102354765Y-118471420D01*
X102398411Y-118576792D01*
X102461776Y-118671623D01*
X102542424Y-118752271D01*
X102637255Y-118815636D01*
X102742627Y-118859282D01*
X102745542Y-118859862D01*
X102763250Y-118948888D01*
X102806896Y-119054260D01*
X102870261Y-119149091D01*
X102950909Y-119229739D01*
X103045740Y-119293104D01*
X103151112Y-119336750D01*
X103262973Y-119359000D01*
X103377027Y-119359000D01*
X103488888Y-119336750D01*
X103594260Y-119293104D01*
X103689091Y-119229739D01*
X103769739Y-119149091D01*
X103833104Y-119054260D01*
X103876750Y-118948888D01*
X103898573Y-118839175D01*
X103950281Y-118860593D01*
X104042823Y-118879000D01*
X104137177Y-118879000D01*
X104229719Y-118860593D01*
X104316892Y-118824485D01*
X104395345Y-118772064D01*
X104462064Y-118705345D01*
X104514485Y-118626892D01*
X104550593Y-118539719D01*
X104569000Y-118447177D01*
X104569000Y-118373604D01*
X104616936Y-118445345D01*
X104683655Y-118512064D01*
X104762108Y-118564485D01*
X104849281Y-118600593D01*
X104941823Y-118619000D01*
X105036177Y-118619000D01*
X105110000Y-118604316D01*
X105110000Y-118674087D01*
X105039177Y-118660000D01*
X104944823Y-118660000D01*
X104852281Y-118678407D01*
X104765108Y-118714515D01*
X104686655Y-118766936D01*
X104619936Y-118833655D01*
X104567515Y-118912108D01*
X104531407Y-118999281D01*
X104513000Y-119091823D01*
X104513000Y-119186177D01*
X104531407Y-119278719D01*
X104567515Y-119365892D01*
X104619936Y-119444345D01*
X104686655Y-119511064D01*
X104765108Y-119563485D01*
X104852281Y-119599593D01*
X104944823Y-119618000D01*
X105039177Y-119618000D01*
X105131719Y-119599593D01*
X105218892Y-119563485D01*
X105238813Y-119550174D01*
X107100010Y-119550174D01*
X107112457Y-119671394D01*
X107217677Y-119726930D01*
X107331711Y-119760871D01*
X107450176Y-119771913D01*
X107568517Y-119759632D01*
X107682189Y-119724500D01*
X107781543Y-119671394D01*
X107793990Y-119550174D01*
X109650010Y-119550174D01*
X109662457Y-119671394D01*
X109767677Y-119726930D01*
X109881711Y-119760871D01*
X110000176Y-119771913D01*
X110118517Y-119759632D01*
X110232189Y-119724500D01*
X110331543Y-119671394D01*
X110343990Y-119550174D01*
X109997000Y-119203184D01*
X109650010Y-119550174D01*
X107793990Y-119550174D01*
X107447000Y-119203184D01*
X107100010Y-119550174D01*
X105238813Y-119550174D01*
X105297345Y-119511064D01*
X105364064Y-119444345D01*
X105416485Y-119365892D01*
X105452593Y-119278719D01*
X105471000Y-119186177D01*
X105471000Y-119168176D01*
X106840087Y-119168176D01*
X106852368Y-119286517D01*
X106887500Y-119400189D01*
X106940606Y-119499543D01*
X107061826Y-119511990D01*
X107408816Y-119165000D01*
X107485184Y-119165000D01*
X107832174Y-119511990D01*
X107953394Y-119499543D01*
X108008930Y-119394323D01*
X108042871Y-119280289D01*
X108053320Y-119168176D01*
X109390087Y-119168176D01*
X109402368Y-119286517D01*
X109437500Y-119400189D01*
X109490606Y-119499543D01*
X109611826Y-119511990D01*
X109958816Y-119165000D01*
X110035184Y-119165000D01*
X110382174Y-119511990D01*
X110503394Y-119499543D01*
X110558930Y-119394323D01*
X110592871Y-119280289D01*
X110603913Y-119161824D01*
X110591632Y-119043483D01*
X110556500Y-118929811D01*
X110503394Y-118830457D01*
X110382174Y-118818010D01*
X110035184Y-119165000D01*
X109958816Y-119165000D01*
X109611826Y-118818010D01*
X109490606Y-118830457D01*
X109435070Y-118935677D01*
X109401129Y-119049711D01*
X109390087Y-119168176D01*
X108053320Y-119168176D01*
X108053913Y-119161824D01*
X108041632Y-119043483D01*
X108006500Y-118929811D01*
X107953394Y-118830457D01*
X107832174Y-118818010D01*
X107485184Y-119165000D01*
X107408816Y-119165000D01*
X107061826Y-118818010D01*
X106940606Y-118830457D01*
X106885070Y-118935677D01*
X106851129Y-119049711D01*
X106840087Y-119168176D01*
X105471000Y-119168176D01*
X105471000Y-119102913D01*
X105541823Y-119117000D01*
X105636177Y-119117000D01*
X105728719Y-119098593D01*
X105815892Y-119062485D01*
X105894345Y-119010064D01*
X105961064Y-118943345D01*
X106013485Y-118864892D01*
X106048720Y-118779826D01*
X107100010Y-118779826D01*
X107447000Y-119126816D01*
X107793990Y-118779826D01*
X109650010Y-118779826D01*
X109997000Y-119126816D01*
X110343990Y-118779826D01*
X110331543Y-118658606D01*
X110226323Y-118603070D01*
X110112289Y-118569129D01*
X109993824Y-118558087D01*
X109875483Y-118570368D01*
X109761811Y-118605500D01*
X109662457Y-118658606D01*
X109650010Y-118779826D01*
X107793990Y-118779826D01*
X107781543Y-118658606D01*
X107676323Y-118603070D01*
X107562289Y-118569129D01*
X107443824Y-118558087D01*
X107325483Y-118570368D01*
X107211811Y-118605500D01*
X107112457Y-118658606D01*
X107100010Y-118779826D01*
X106048720Y-118779826D01*
X106049593Y-118777719D01*
X106068000Y-118685177D01*
X106068000Y-118590823D01*
X106049593Y-118498281D01*
X106042729Y-118481709D01*
X106056711Y-118485871D01*
X106175176Y-118496913D01*
X106293517Y-118484632D01*
X106407189Y-118449500D01*
X106506543Y-118396394D01*
X106518990Y-118275174D01*
X108375010Y-118275174D01*
X108387457Y-118396394D01*
X108492677Y-118451930D01*
X108606711Y-118485871D01*
X108725176Y-118496913D01*
X108843517Y-118484632D01*
X108957189Y-118449500D01*
X109056543Y-118396394D01*
X109068990Y-118275174D01*
X108722000Y-117928184D01*
X108375010Y-118275174D01*
X106518990Y-118275174D01*
X106172000Y-117928184D01*
X106157858Y-117942326D01*
X106119674Y-117904142D01*
X106133816Y-117890000D01*
X106210184Y-117890000D01*
X106557174Y-118236990D01*
X106678394Y-118224543D01*
X106733930Y-118119323D01*
X106767871Y-118005289D01*
X106778320Y-117893176D01*
X108115087Y-117893176D01*
X108127368Y-118011517D01*
X108162500Y-118125189D01*
X108215606Y-118224543D01*
X108336826Y-118236990D01*
X108683816Y-117890000D01*
X108760184Y-117890000D01*
X109107174Y-118236990D01*
X109228394Y-118224543D01*
X109283930Y-118119323D01*
X109317871Y-118005289D01*
X109328320Y-117893176D01*
X110665087Y-117893176D01*
X110677368Y-118011517D01*
X110712500Y-118125189D01*
X110765606Y-118224543D01*
X110886826Y-118236990D01*
X111233816Y-117890000D01*
X110886826Y-117543010D01*
X110765606Y-117555457D01*
X110710070Y-117660677D01*
X110676129Y-117774711D01*
X110665087Y-117893176D01*
X109328320Y-117893176D01*
X109328913Y-117886824D01*
X109316632Y-117768483D01*
X109281500Y-117654811D01*
X109228394Y-117555457D01*
X109107174Y-117543010D01*
X108760184Y-117890000D01*
X108683816Y-117890000D01*
X108336826Y-117543010D01*
X108215606Y-117555457D01*
X108160070Y-117660677D01*
X108126129Y-117774711D01*
X108115087Y-117893176D01*
X106778320Y-117893176D01*
X106778913Y-117886824D01*
X106766632Y-117768483D01*
X106731500Y-117654811D01*
X106678394Y-117555457D01*
X106557174Y-117543010D01*
X106210184Y-117890000D01*
X106133816Y-117890000D01*
X106119674Y-117875858D01*
X106157858Y-117837674D01*
X106172000Y-117851816D01*
X106518990Y-117504826D01*
X108375010Y-117504826D01*
X108722000Y-117851816D01*
X109068990Y-117504826D01*
X109056543Y-117383606D01*
X108951323Y-117328070D01*
X108837289Y-117294129D01*
X108718824Y-117283087D01*
X108600483Y-117295368D01*
X108486811Y-117330500D01*
X108387457Y-117383606D01*
X108375010Y-117504826D01*
X106518990Y-117504826D01*
X106506543Y-117383606D01*
X106401323Y-117328070D01*
X106287289Y-117294129D01*
X106168824Y-117283087D01*
X106050483Y-117295368D01*
X105940705Y-117329296D01*
X105879345Y-117267936D01*
X105800892Y-117215515D01*
X105713719Y-117179407D01*
X105621177Y-117161000D01*
X105526823Y-117161000D01*
X105473000Y-117171706D01*
X105473000Y-117092823D01*
X105470715Y-117081337D01*
X105511400Y-117064485D01*
X105589853Y-117012064D01*
X105601743Y-117000174D01*
X107100010Y-117000174D01*
X107112457Y-117121394D01*
X107217677Y-117176930D01*
X107331711Y-117210871D01*
X107450176Y-117221913D01*
X107568517Y-117209632D01*
X107682189Y-117174500D01*
X107781543Y-117121394D01*
X107793990Y-117000174D01*
X109650010Y-117000174D01*
X109662457Y-117121394D01*
X109767677Y-117176930D01*
X109881711Y-117210871D01*
X110000176Y-117221913D01*
X110118517Y-117209632D01*
X110232189Y-117174500D01*
X110331543Y-117121394D01*
X110343990Y-117000174D01*
X109997000Y-116653184D01*
X109650010Y-117000174D01*
X107793990Y-117000174D01*
X107447000Y-116653184D01*
X107100010Y-117000174D01*
X105601743Y-117000174D01*
X105656572Y-116945345D01*
X105708993Y-116866892D01*
X105745101Y-116779719D01*
X105763508Y-116687177D01*
X105763508Y-116618176D01*
X106840087Y-116618176D01*
X106852368Y-116736517D01*
X106887500Y-116850189D01*
X106940606Y-116949543D01*
X107061826Y-116961990D01*
X107408816Y-116615000D01*
X107485184Y-116615000D01*
X107832174Y-116961990D01*
X107953394Y-116949543D01*
X108008930Y-116844323D01*
X108042871Y-116730289D01*
X108053320Y-116618176D01*
X109390087Y-116618176D01*
X109402368Y-116736517D01*
X109437500Y-116850189D01*
X109490606Y-116949543D01*
X109611826Y-116961990D01*
X109958816Y-116615000D01*
X110035184Y-116615000D01*
X110382174Y-116961990D01*
X110503394Y-116949543D01*
X110558930Y-116844323D01*
X110592871Y-116730289D01*
X110603913Y-116611824D01*
X110591632Y-116493483D01*
X110556500Y-116379811D01*
X110503394Y-116280457D01*
X110382174Y-116268010D01*
X110035184Y-116615000D01*
X109958816Y-116615000D01*
X109611826Y-116268010D01*
X109490606Y-116280457D01*
X109435070Y-116385677D01*
X109401129Y-116499711D01*
X109390087Y-116618176D01*
X108053320Y-116618176D01*
X108053913Y-116611824D01*
X108041632Y-116493483D01*
X108006500Y-116379811D01*
X107953394Y-116280457D01*
X107832174Y-116268010D01*
X107485184Y-116615000D01*
X107408816Y-116615000D01*
X107061826Y-116268010D01*
X106940606Y-116280457D01*
X106885070Y-116385677D01*
X106851129Y-116499711D01*
X106840087Y-116618176D01*
X105763508Y-116618176D01*
X105763508Y-116592823D01*
X105745101Y-116500281D01*
X105708993Y-116413108D01*
X105656572Y-116334655D01*
X105589853Y-116267936D01*
X105532818Y-116229826D01*
X107100010Y-116229826D01*
X107447000Y-116576816D01*
X107793990Y-116229826D01*
X109650010Y-116229826D01*
X109997000Y-116576816D01*
X110343990Y-116229826D01*
X110331543Y-116108606D01*
X110226323Y-116053070D01*
X110112289Y-116019129D01*
X109993824Y-116008087D01*
X109875483Y-116020368D01*
X109761811Y-116055500D01*
X109662457Y-116108606D01*
X109650010Y-116229826D01*
X107793990Y-116229826D01*
X107781543Y-116108606D01*
X107676323Y-116053070D01*
X107562289Y-116019129D01*
X107443824Y-116008087D01*
X107325483Y-116020368D01*
X107211811Y-116055500D01*
X107112457Y-116108606D01*
X107100010Y-116229826D01*
X105532818Y-116229826D01*
X105511400Y-116215515D01*
X105424227Y-116179407D01*
X105331685Y-116161000D01*
X105237331Y-116161000D01*
X105144789Y-116179407D01*
X105057616Y-116215515D01*
X104979163Y-116267936D01*
X104912444Y-116334655D01*
X104906024Y-116344263D01*
X104906024Y-116262823D01*
X104887617Y-116170281D01*
X104862539Y-116109737D01*
X104884485Y-116076892D01*
X104920593Y-115989719D01*
X104923453Y-115975342D01*
X104924655Y-115976544D01*
X105003108Y-116028965D01*
X105090281Y-116065073D01*
X105182823Y-116083480D01*
X105277177Y-116083480D01*
X105369719Y-116065073D01*
X105456892Y-116028965D01*
X105535345Y-115976544D01*
X105602064Y-115909825D01*
X105654485Y-115831372D01*
X105690593Y-115744199D01*
X105694376Y-115725174D01*
X105825010Y-115725174D01*
X105837457Y-115846394D01*
X105942677Y-115901930D01*
X106056711Y-115935871D01*
X106175176Y-115946913D01*
X106293517Y-115934632D01*
X106407189Y-115899500D01*
X106506543Y-115846394D01*
X106518990Y-115725174D01*
X108375010Y-115725174D01*
X108387457Y-115846394D01*
X108492677Y-115901930D01*
X108606711Y-115935871D01*
X108725176Y-115946913D01*
X108843517Y-115934632D01*
X108957189Y-115899500D01*
X109056543Y-115846394D01*
X109068990Y-115725174D01*
X110925010Y-115725174D01*
X110937457Y-115846394D01*
X111042677Y-115901930D01*
X111156711Y-115935871D01*
X111275176Y-115946913D01*
X111393517Y-115934632D01*
X111507189Y-115899500D01*
X111606543Y-115846394D01*
X111618990Y-115725174D01*
X111272000Y-115378184D01*
X110925010Y-115725174D01*
X109068990Y-115725174D01*
X108722000Y-115378184D01*
X108375010Y-115725174D01*
X106518990Y-115725174D01*
X106172000Y-115378184D01*
X105825010Y-115725174D01*
X105694376Y-115725174D01*
X105703670Y-115678451D01*
X105786826Y-115686990D01*
X106133816Y-115340000D01*
X106210184Y-115340000D01*
X106557174Y-115686990D01*
X106678394Y-115674543D01*
X106733930Y-115569323D01*
X106767871Y-115455289D01*
X106778320Y-115343176D01*
X108115087Y-115343176D01*
X108127368Y-115461517D01*
X108162500Y-115575189D01*
X108215606Y-115674543D01*
X108336826Y-115686990D01*
X108683816Y-115340000D01*
X108760184Y-115340000D01*
X109107174Y-115686990D01*
X109228394Y-115674543D01*
X109283930Y-115569323D01*
X109317871Y-115455289D01*
X109328913Y-115336824D01*
X109316632Y-115218483D01*
X109281500Y-115104811D01*
X109228394Y-115005457D01*
X109107174Y-114993010D01*
X108760184Y-115340000D01*
X108683816Y-115340000D01*
X108336826Y-114993010D01*
X108215606Y-115005457D01*
X108160070Y-115110677D01*
X108126129Y-115224711D01*
X108115087Y-115343176D01*
X106778320Y-115343176D01*
X106778913Y-115336824D01*
X106766632Y-115218483D01*
X106731500Y-115104811D01*
X106678394Y-115005457D01*
X106557174Y-114993010D01*
X106210184Y-115340000D01*
X106133816Y-115340000D01*
X105786826Y-114993010D01*
X105665606Y-115005457D01*
X105610070Y-115110677D01*
X105576129Y-115224711D01*
X105571995Y-115269066D01*
X105535345Y-115232416D01*
X105456892Y-115179995D01*
X105369719Y-115143887D01*
X105277177Y-115125480D01*
X105182823Y-115125480D01*
X105090281Y-115143887D01*
X105003108Y-115179995D01*
X104924655Y-115232416D01*
X104877500Y-115279571D01*
X104877500Y-114954826D01*
X105825010Y-114954826D01*
X106172000Y-115301816D01*
X106518990Y-114954826D01*
X108375010Y-114954826D01*
X108722000Y-115301816D01*
X109068990Y-114954826D01*
X109056543Y-114833606D01*
X108951323Y-114778070D01*
X108837289Y-114744129D01*
X108718824Y-114733087D01*
X108600483Y-114745368D01*
X108486811Y-114780500D01*
X108387457Y-114833606D01*
X108375010Y-114954826D01*
X106518990Y-114954826D01*
X106506543Y-114833606D01*
X106401323Y-114778070D01*
X106287289Y-114744129D01*
X106168824Y-114733087D01*
X106050483Y-114745368D01*
X105936811Y-114780500D01*
X105837457Y-114833606D01*
X105825010Y-114954826D01*
X104877500Y-114954826D01*
X104877500Y-114607397D01*
X104945345Y-114562064D01*
X105012064Y-114495345D01*
X105064485Y-114416892D01*
X105100593Y-114329719D01*
X105119000Y-114237177D01*
X105119000Y-114142823D01*
X105100593Y-114050281D01*
X105064485Y-113963108D01*
X105012064Y-113884655D01*
X104945345Y-113817936D01*
X104866892Y-113765515D01*
X104779719Y-113729407D01*
X104687177Y-113711000D01*
X104592823Y-113711000D01*
X104500281Y-113729407D01*
X104413108Y-113765515D01*
X104334655Y-113817936D01*
X104267936Y-113884655D01*
X104215515Y-113963108D01*
X104190107Y-114024450D01*
X104116892Y-113975529D01*
X104029719Y-113939421D01*
X103937177Y-113921014D01*
X103842823Y-113921014D01*
X103750281Y-113939421D01*
X103663108Y-113975529D01*
X103584655Y-114027950D01*
X103517936Y-114094669D01*
X103465515Y-114173122D01*
X103429407Y-114260295D01*
X103411000Y-114352837D01*
X103411000Y-114447191D01*
X103429407Y-114539733D01*
X103465515Y-114626906D01*
X103517936Y-114705359D01*
X103584655Y-114772078D01*
X103663108Y-114824499D01*
X103750281Y-114860607D01*
X103842823Y-114879014D01*
X103937177Y-114879014D01*
X104029719Y-114860607D01*
X104042501Y-114855313D01*
X104042500Y-115612654D01*
X104035515Y-115623108D01*
X103999407Y-115710281D01*
X103981000Y-115802823D01*
X103981000Y-115897177D01*
X103999407Y-115989719D01*
X104023323Y-116047457D01*
X103998064Y-116009655D01*
X103931345Y-115942936D01*
X103852892Y-115890515D01*
X103765719Y-115854407D01*
X103673177Y-115836000D01*
X103578823Y-115836000D01*
X103486281Y-115854407D01*
X103399108Y-115890515D01*
X103320655Y-115942936D01*
X103253936Y-116009655D01*
X103201515Y-116088108D01*
X103165407Y-116175281D01*
X103147000Y-116267823D01*
X103147000Y-116362177D01*
X103165407Y-116454719D01*
X103201515Y-116541892D01*
X103253936Y-116620345D01*
X103320655Y-116687064D01*
X103399108Y-116739485D01*
X103486281Y-116775593D01*
X103578823Y-116794000D01*
X103673177Y-116794000D01*
X103765719Y-116775593D01*
X103852892Y-116739485D01*
X103931345Y-116687064D01*
X103998064Y-116620345D01*
X104028182Y-116575270D01*
X104054960Y-116615345D01*
X104121679Y-116682064D01*
X104200132Y-116734485D01*
X104287305Y-116770593D01*
X104379847Y-116789000D01*
X104474201Y-116789000D01*
X104566743Y-116770593D01*
X104653916Y-116734485D01*
X104732369Y-116682064D01*
X104799088Y-116615345D01*
X104805508Y-116605737D01*
X104805508Y-116687177D01*
X104807793Y-116698663D01*
X104767108Y-116715515D01*
X104688655Y-116767936D01*
X104621936Y-116834655D01*
X104569515Y-116913108D01*
X104533407Y-117000281D01*
X104515000Y-117092823D01*
X104515000Y-117187177D01*
X104533407Y-117279719D01*
X104569515Y-117366892D01*
X104621936Y-117445345D01*
X104688655Y-117512064D01*
X104767108Y-117564485D01*
X104854281Y-117600593D01*
X104946823Y-117619000D01*
X105041177Y-117619000D01*
X105095000Y-117608294D01*
X105095000Y-117672700D01*
X105036177Y-117661000D01*
X104941823Y-117661000D01*
X104849281Y-117679407D01*
X104762108Y-117715515D01*
X104683655Y-117767936D01*
X104616936Y-117834655D01*
X104564515Y-117913108D01*
X104528407Y-118000281D01*
X104510000Y-118092823D01*
X104510000Y-118166396D01*
X104462064Y-118094655D01*
X104395345Y-118027936D01*
X104316892Y-117975515D01*
X104229719Y-117939407D01*
X104137177Y-117921000D01*
X104042823Y-117921000D01*
X103950281Y-117939407D01*
X103863108Y-117975515D01*
X103784655Y-118027936D01*
X103717936Y-118094655D01*
X103665515Y-118173108D01*
X103629407Y-118260281D01*
X103624122Y-118286850D01*
X103594260Y-118266896D01*
X103488888Y-118223250D01*
X103485973Y-118222670D01*
X103468265Y-118133644D01*
X103424619Y-118028272D01*
X103361254Y-117933441D01*
X103280606Y-117852793D01*
X103185775Y-117789428D01*
X103080403Y-117745782D01*
X102968542Y-117723532D01*
X102918516Y-117723532D01*
X103010378Y-117705260D01*
X103115750Y-117661614D01*
X103210581Y-117598249D01*
X103291229Y-117517601D01*
X103354594Y-117422770D01*
X103398240Y-117317398D01*
X103420490Y-117205537D01*
X103420490Y-117091483D01*
X103398240Y-116979622D01*
X103354594Y-116874250D01*
X103291229Y-116779419D01*
X103210581Y-116698771D01*
X103115750Y-116635406D01*
X103081500Y-116621219D01*
X103081500Y-115909498D01*
X103083519Y-115888999D01*
X103081500Y-115868500D01*
X103081500Y-115868491D01*
X103075459Y-115807156D01*
X103051586Y-115728457D01*
X103012818Y-115655927D01*
X102960645Y-115592355D01*
X102944712Y-115579279D01*
X102744158Y-115378724D01*
X102731086Y-115362796D01*
X102707180Y-115343176D01*
X102701927Y-115338866D01*
X102667514Y-115310623D01*
X102594984Y-115271855D01*
X102516285Y-115247982D01*
X102454950Y-115241941D01*
X102454943Y-115241941D01*
X102434441Y-115239922D01*
X102413939Y-115241941D01*
X102266493Y-115241941D01*
X102185231Y-115175250D01*
X102084646Y-115121486D01*
X101997777Y-115095135D01*
X102004808Y-115086568D01*
X102058572Y-114985983D01*
X102091680Y-114876841D01*
X102102859Y-114763337D01*
X102091680Y-114649833D01*
X102058572Y-114540691D01*
X102004808Y-114440106D01*
X101932453Y-114351942D01*
X101844289Y-114279587D01*
X101743704Y-114225823D01*
X101634562Y-114192715D01*
X101549497Y-114184337D01*
X101549091Y-114184337D01*
X101520662Y-114181537D01*
X101492233Y-114184337D01*
X101492224Y-114184337D01*
X101407159Y-114192715D01*
X101298017Y-114225823D01*
X101197432Y-114279587D01*
X101109268Y-114351942D01*
X101091138Y-114374034D01*
X101072976Y-114392195D01*
X101018750Y-114458269D01*
X100977397Y-114535635D01*
X100935208Y-114472495D01*
X100767505Y-114304792D01*
X100570308Y-114173029D01*
X100351194Y-114082269D01*
X100118584Y-114036000D01*
X99881416Y-114036000D01*
X99648806Y-114082269D01*
X99429692Y-114173029D01*
X99232495Y-114304792D01*
X99109000Y-114428287D01*
X99109000Y-113511713D01*
X99232495Y-113635208D01*
X99429692Y-113766971D01*
X99648806Y-113857731D01*
X99881416Y-113904000D01*
X100118584Y-113904000D01*
X100351194Y-113857731D01*
X100570308Y-113766971D01*
X100767505Y-113635208D01*
X100935208Y-113467505D01*
X101066971Y-113270308D01*
X101157731Y-113051194D01*
X101204000Y-112818584D01*
X101204000Y-112581416D01*
X101157731Y-112348806D01*
X101066971Y-112129692D01*
X100935208Y-111932495D01*
X100829430Y-111826717D01*
X100851626Y-111817524D01*
X100884760Y-111831248D01*
X100977302Y-111849655D01*
X101071656Y-111849655D01*
X101164198Y-111831248D01*
X101251371Y-111795140D01*
X101329824Y-111742719D01*
X101396543Y-111676000D01*
X101448964Y-111597547D01*
X101485072Y-111510374D01*
X101503479Y-111417832D01*
X101503479Y-111323478D01*
X101485072Y-111230936D01*
X101448964Y-111143763D01*
X101396543Y-111065310D01*
X101329824Y-110998591D01*
X101251371Y-110946170D01*
X101164198Y-110910062D01*
X101071656Y-110891655D01*
X100977302Y-110891655D01*
X100956382Y-110895816D01*
X101066971Y-110730308D01*
X101157731Y-110511194D01*
X101204000Y-110278584D01*
X101204000Y-110041416D01*
X101169578Y-109868365D01*
X101251371Y-109834485D01*
X101329824Y-109782064D01*
X101396543Y-109715345D01*
X101448964Y-109636892D01*
X101485072Y-109549719D01*
X101503479Y-109457177D01*
X101503479Y-109362823D01*
X101488995Y-109290000D01*
X102270000Y-109290000D01*
X102270000Y-111050000D01*
X102271921Y-111069509D01*
X102277612Y-111088268D01*
X102286853Y-111105557D01*
X102299289Y-111120711D01*
X102314443Y-111133147D01*
X102331732Y-111142388D01*
X102350491Y-111148079D01*
X102370000Y-111150000D01*
X102924832Y-111150000D01*
X102892407Y-111228281D01*
X102874000Y-111320823D01*
X102874000Y-111415177D01*
X102892407Y-111507719D01*
X102928515Y-111594892D01*
X102980936Y-111673345D01*
X103047655Y-111740064D01*
X103113039Y-111783752D01*
X102419099Y-111790004D01*
X102400491Y-111791921D01*
X102381732Y-111797612D01*
X102364443Y-111806853D01*
X102349289Y-111819289D01*
X102336853Y-111834443D01*
X102327612Y-111851732D01*
X102321921Y-111870491D01*
X102320000Y-111890000D01*
X102320000Y-113650000D01*
X102321921Y-113669509D01*
X102327612Y-113688268D01*
X102336853Y-113705557D01*
X102349289Y-113720711D01*
X102364443Y-113733147D01*
X102381732Y-113742388D01*
X102400491Y-113748079D01*
X102420000Y-113750000D01*
X103540000Y-113750000D01*
X103560063Y-113747967D01*
X103578790Y-113742170D01*
X103596026Y-113732832D01*
X103611109Y-113720310D01*
X103623460Y-113705086D01*
X103632603Y-113687746D01*
X103638187Y-113668955D01*
X103639998Y-113649435D01*
X103634650Y-112702823D01*
X107709078Y-112702823D01*
X107709078Y-112797177D01*
X107727485Y-112889719D01*
X107763593Y-112976892D01*
X107816014Y-113055345D01*
X107830868Y-113070199D01*
X107795515Y-113123108D01*
X107759407Y-113210281D01*
X107741000Y-113302823D01*
X107741000Y-113397177D01*
X107759407Y-113489719D01*
X107795515Y-113576892D01*
X107847936Y-113655345D01*
X107914655Y-113722064D01*
X107993108Y-113774485D01*
X108080281Y-113810593D01*
X108172823Y-113829000D01*
X108267177Y-113829000D01*
X108359719Y-113810593D01*
X108446892Y-113774485D01*
X108525345Y-113722064D01*
X108542414Y-113704995D01*
X108612823Y-113719000D01*
X108707177Y-113719000D01*
X108799719Y-113700593D01*
X108886892Y-113664485D01*
X108965345Y-113612064D01*
X109032064Y-113545345D01*
X109039533Y-113534166D01*
X109065515Y-113596892D01*
X109117936Y-113675345D01*
X109184655Y-113742064D01*
X109246626Y-113783472D01*
X109244108Y-113784515D01*
X109165655Y-113836936D01*
X109098936Y-113903655D01*
X109046515Y-113982108D01*
X109010407Y-114069281D01*
X108992000Y-114161823D01*
X108992000Y-114256177D01*
X109010407Y-114348719D01*
X109046515Y-114435892D01*
X109098936Y-114514345D01*
X109165655Y-114581064D01*
X109244108Y-114633485D01*
X109331281Y-114669593D01*
X109423823Y-114688000D01*
X109492000Y-114688000D01*
X109492000Y-114752177D01*
X109510407Y-114844719D01*
X109546515Y-114931892D01*
X109598936Y-115010345D01*
X109665655Y-115077064D01*
X109744108Y-115129485D01*
X109831281Y-115165593D01*
X109923823Y-115184000D01*
X110018177Y-115184000D01*
X110110719Y-115165593D01*
X110197892Y-115129485D01*
X110276345Y-115077064D01*
X110343064Y-115010345D01*
X110395485Y-114931892D01*
X110431593Y-114844719D01*
X110450000Y-114752177D01*
X110450000Y-114659000D01*
X110492000Y-114659000D01*
X110492000Y-114753177D01*
X110510407Y-114845719D01*
X110546515Y-114932892D01*
X110598936Y-115011345D01*
X110665655Y-115078064D01*
X110711215Y-115108507D01*
X110710070Y-115110677D01*
X110676129Y-115224711D01*
X110665087Y-115343176D01*
X110677368Y-115461517D01*
X110712500Y-115575189D01*
X110765606Y-115674543D01*
X110886826Y-115686990D01*
X111233816Y-115340000D01*
X111310184Y-115340000D01*
X111657174Y-115686990D01*
X111778394Y-115674543D01*
X111833930Y-115569323D01*
X111867871Y-115455289D01*
X111878913Y-115336824D01*
X111866632Y-115218483D01*
X111831500Y-115104811D01*
X111778394Y-115005457D01*
X111657174Y-114993010D01*
X111310184Y-115340000D01*
X111233816Y-115340000D01*
X111219674Y-115325858D01*
X111257858Y-115287674D01*
X111272000Y-115301816D01*
X111618990Y-114954826D01*
X111606543Y-114833606D01*
X111501323Y-114778070D01*
X111448194Y-114762257D01*
X111450000Y-114753177D01*
X111450000Y-114658823D01*
X111431593Y-114566281D01*
X111395485Y-114479108D01*
X111343064Y-114400655D01*
X111276345Y-114333936D01*
X111197892Y-114281515D01*
X111110719Y-114245407D01*
X111018177Y-114227000D01*
X110950000Y-114227000D01*
X110950000Y-114132823D01*
X110931593Y-114040281D01*
X110895485Y-113953108D01*
X110843064Y-113874655D01*
X110776345Y-113807936D01*
X110697892Y-113755515D01*
X110610719Y-113719407D01*
X110518177Y-113701000D01*
X110423823Y-113701000D01*
X110331281Y-113719407D01*
X110244108Y-113755515D01*
X110165655Y-113807936D01*
X110098936Y-113874655D01*
X110046515Y-113953108D01*
X110010407Y-114040281D01*
X109992000Y-114132823D01*
X109992000Y-114226000D01*
X109950000Y-114226000D01*
X109950000Y-114161823D01*
X109931593Y-114069281D01*
X109895485Y-113982108D01*
X109843064Y-113903655D01*
X109776345Y-113836936D01*
X109714374Y-113795528D01*
X109716892Y-113794485D01*
X109795345Y-113742064D01*
X109862064Y-113675345D01*
X109914485Y-113596892D01*
X109950593Y-113509719D01*
X109969000Y-113417177D01*
X109969000Y-113386671D01*
X111882133Y-113386671D01*
X111882133Y-113535195D01*
X111911109Y-113680867D01*
X111967947Y-113818086D01*
X112050463Y-113941580D01*
X112155486Y-114046603D01*
X112161862Y-114050863D01*
X112135250Y-114115112D01*
X112113000Y-114226973D01*
X112113000Y-114341027D01*
X112135250Y-114452888D01*
X112178896Y-114558260D01*
X112242261Y-114653091D01*
X112322909Y-114733739D01*
X112417740Y-114797104D01*
X112523112Y-114840750D01*
X112634973Y-114863000D01*
X112749027Y-114863000D01*
X112860888Y-114840750D01*
X112966260Y-114797104D01*
X113061091Y-114733739D01*
X113141739Y-114653091D01*
X113205104Y-114558260D01*
X113248750Y-114452888D01*
X113271000Y-114341027D01*
X113271000Y-114226973D01*
X113248750Y-114115112D01*
X113205104Y-114009740D01*
X113184491Y-113978892D01*
X113221803Y-113941580D01*
X113304319Y-113818086D01*
X113316177Y-113789458D01*
X113372875Y-113827343D01*
X113469147Y-113867220D01*
X113571349Y-113887549D01*
X113675553Y-113887549D01*
X113777755Y-113867220D01*
X113874027Y-113827343D01*
X113960669Y-113769450D01*
X114034352Y-113695767D01*
X114092245Y-113609125D01*
X114132122Y-113512853D01*
X114152451Y-113410651D01*
X114152451Y-113306447D01*
X114132122Y-113204245D01*
X114092245Y-113107973D01*
X114034352Y-113021331D01*
X113960669Y-112947648D01*
X113874027Y-112889755D01*
X113777755Y-112849878D01*
X113675553Y-112829549D01*
X113571349Y-112829549D01*
X113469147Y-112849878D01*
X113372875Y-112889755D01*
X113286233Y-112947648D01*
X113234537Y-112999344D01*
X113221803Y-112980286D01*
X113116780Y-112875263D01*
X112993286Y-112792747D01*
X112856067Y-112735909D01*
X112710395Y-112706933D01*
X112561871Y-112706933D01*
X112416199Y-112735909D01*
X112278980Y-112792747D01*
X112155486Y-112875263D01*
X112050463Y-112980286D01*
X111967947Y-113103780D01*
X111911109Y-113240999D01*
X111882133Y-113386671D01*
X109969000Y-113386671D01*
X109969000Y-113322823D01*
X109950593Y-113230281D01*
X109914485Y-113143108D01*
X109874022Y-113082551D01*
X109884485Y-113066892D01*
X109920593Y-112979719D01*
X109939000Y-112887177D01*
X109939000Y-112792823D01*
X109920593Y-112700281D01*
X109884485Y-112613108D01*
X109832064Y-112534655D01*
X109765345Y-112467936D01*
X109686892Y-112415515D01*
X109599719Y-112379407D01*
X109507177Y-112361000D01*
X109412823Y-112361000D01*
X109320281Y-112379407D01*
X109233108Y-112415515D01*
X109154655Y-112467936D01*
X109087936Y-112534655D01*
X109035515Y-112613108D01*
X108999407Y-112700281D01*
X108981000Y-112792823D01*
X108981000Y-112883591D01*
X108965345Y-112867936D01*
X108886892Y-112815515D01*
X108799719Y-112779407D01*
X108707177Y-112761000D01*
X108667078Y-112761000D01*
X108667078Y-112702823D01*
X108648671Y-112610281D01*
X108612563Y-112523108D01*
X108560142Y-112444655D01*
X108493423Y-112377936D01*
X108414970Y-112325515D01*
X108327797Y-112289407D01*
X108235255Y-112271000D01*
X108140901Y-112271000D01*
X108048359Y-112289407D01*
X107961186Y-112325515D01*
X107882733Y-112377936D01*
X107816014Y-112444655D01*
X107763593Y-112523108D01*
X107727485Y-112610281D01*
X107709078Y-112702823D01*
X103634650Y-112702823D01*
X103632108Y-112252823D01*
X110221000Y-112252823D01*
X110221000Y-112347177D01*
X110239407Y-112439719D01*
X110275515Y-112526892D01*
X110327936Y-112605345D01*
X110394655Y-112672064D01*
X110473108Y-112724485D01*
X110560281Y-112760593D01*
X110652823Y-112779000D01*
X110747177Y-112779000D01*
X110839719Y-112760593D01*
X110926892Y-112724485D01*
X111005345Y-112672064D01*
X111070800Y-112606609D01*
X111082515Y-112634892D01*
X111134936Y-112713345D01*
X111201655Y-112780064D01*
X111280108Y-112832485D01*
X111367281Y-112868593D01*
X111459823Y-112887000D01*
X111554177Y-112887000D01*
X111646719Y-112868593D01*
X111733892Y-112832485D01*
X111812345Y-112780064D01*
X111879064Y-112713345D01*
X111931485Y-112634892D01*
X111967593Y-112547719D01*
X111986000Y-112455177D01*
X111986000Y-112360823D01*
X111967593Y-112268281D01*
X111931485Y-112181108D01*
X111879064Y-112102655D01*
X111812345Y-112035936D01*
X111733892Y-111983515D01*
X111646719Y-111947407D01*
X111554177Y-111929000D01*
X111459823Y-111929000D01*
X111367281Y-111947407D01*
X111280108Y-111983515D01*
X111201655Y-112035936D01*
X111136200Y-112101391D01*
X111124485Y-112073108D01*
X111072064Y-111994655D01*
X111005345Y-111927936D01*
X110926892Y-111875515D01*
X110839719Y-111839407D01*
X110747177Y-111821000D01*
X110652823Y-111821000D01*
X110560281Y-111839407D01*
X110473108Y-111875515D01*
X110394655Y-111927936D01*
X110327936Y-111994655D01*
X110275515Y-112073108D01*
X110239407Y-112160281D01*
X110221000Y-112252823D01*
X103632108Y-112252823D01*
X103629998Y-111879435D01*
X103627899Y-111859608D01*
X103622039Y-111840901D01*
X103612643Y-111823696D01*
X103600071Y-111808655D01*
X103584806Y-111796356D01*
X103578504Y-111793060D01*
X103579892Y-111792485D01*
X103658345Y-111740064D01*
X103725064Y-111673345D01*
X103777485Y-111594892D01*
X103813593Y-111507719D01*
X103832000Y-111415177D01*
X103832000Y-111320823D01*
X103813593Y-111228281D01*
X103777485Y-111141108D01*
X103771950Y-111132823D01*
X105851000Y-111132823D01*
X105851000Y-111227177D01*
X105869407Y-111319719D01*
X105905515Y-111406892D01*
X105957936Y-111485345D01*
X106024655Y-111552064D01*
X106103108Y-111604485D01*
X106190281Y-111640593D01*
X106282823Y-111659000D01*
X106377177Y-111659000D01*
X106469719Y-111640593D01*
X106520766Y-111619449D01*
X106544018Y-111642701D01*
X106622471Y-111695122D01*
X106709644Y-111731230D01*
X106802186Y-111749637D01*
X106896540Y-111749637D01*
X106989082Y-111731230D01*
X107076255Y-111695122D01*
X107154708Y-111642701D01*
X107221427Y-111575982D01*
X107273848Y-111497529D01*
X107309956Y-111410356D01*
X107328363Y-111317814D01*
X107328363Y-111223460D01*
X107309956Y-111130918D01*
X107273848Y-111043745D01*
X107221427Y-110965292D01*
X107154708Y-110898573D01*
X107076255Y-110846152D01*
X106989082Y-110810044D01*
X106896540Y-110791637D01*
X106802186Y-110791637D01*
X106709644Y-110810044D01*
X106658597Y-110831188D01*
X106635345Y-110807936D01*
X106556892Y-110755515D01*
X106469719Y-110719407D01*
X106397287Y-110705000D01*
X106486102Y-110705000D01*
X106588304Y-110684671D01*
X106684576Y-110644794D01*
X106771218Y-110586901D01*
X106844901Y-110513218D01*
X106902794Y-110426576D01*
X106942671Y-110330304D01*
X106963000Y-110228102D01*
X106963000Y-110123898D01*
X106942671Y-110021696D01*
X106902794Y-109925424D01*
X106844901Y-109838782D01*
X106771218Y-109765099D01*
X106684576Y-109707206D01*
X106588304Y-109667329D01*
X106486102Y-109647000D01*
X106381898Y-109647000D01*
X106279696Y-109667329D01*
X106183424Y-109707206D01*
X106096782Y-109765099D01*
X106023099Y-109838782D01*
X105965206Y-109925424D01*
X105925329Y-110021696D01*
X105905000Y-110123898D01*
X105905000Y-110228102D01*
X105925329Y-110330304D01*
X105965206Y-110426576D01*
X106023099Y-110513218D01*
X106096782Y-110586901D01*
X106183424Y-110644794D01*
X106279696Y-110684671D01*
X106361788Y-110701000D01*
X106282823Y-110701000D01*
X106190281Y-110719407D01*
X106103108Y-110755515D01*
X106024655Y-110807936D01*
X105957936Y-110874655D01*
X105905515Y-110953108D01*
X105869407Y-111040281D01*
X105851000Y-111132823D01*
X103771950Y-111132823D01*
X103725064Y-111062655D01*
X103658345Y-110995936D01*
X103589436Y-110949892D01*
X103579998Y-109279435D01*
X103577899Y-109259608D01*
X103572039Y-109240901D01*
X103562643Y-109223696D01*
X103550071Y-109208655D01*
X103534806Y-109196356D01*
X103517435Y-109187271D01*
X103498625Y-109181750D01*
X103479099Y-109180004D01*
X102369099Y-109190004D01*
X102350491Y-109191921D01*
X102331732Y-109197612D01*
X102314443Y-109206853D01*
X102299289Y-109219289D01*
X102286853Y-109234443D01*
X102277612Y-109251732D01*
X102271921Y-109270491D01*
X102270000Y-109290000D01*
X101488995Y-109290000D01*
X101485072Y-109270281D01*
X101448964Y-109183108D01*
X101438250Y-109167074D01*
X101509091Y-109119739D01*
X101589739Y-109039091D01*
X101653104Y-108944260D01*
X101696750Y-108838888D01*
X101719000Y-108727027D01*
X101719000Y-108612973D01*
X101696750Y-108501112D01*
X101653104Y-108395740D01*
X101589739Y-108300909D01*
X101522803Y-108233973D01*
X102943000Y-108233973D01*
X102943000Y-108348027D01*
X102965250Y-108459888D01*
X103008896Y-108565260D01*
X103072261Y-108660091D01*
X103152909Y-108740739D01*
X103247740Y-108804104D01*
X103353112Y-108847750D01*
X103464973Y-108870000D01*
X103579027Y-108870000D01*
X103690888Y-108847750D01*
X103796260Y-108804104D01*
X103891091Y-108740739D01*
X103914857Y-108716973D01*
X104528000Y-108716973D01*
X104528000Y-108831027D01*
X104550250Y-108942888D01*
X104593896Y-109048260D01*
X104657261Y-109143091D01*
X104737909Y-109223739D01*
X104832740Y-109287104D01*
X104938112Y-109330750D01*
X105049973Y-109353000D01*
X105164027Y-109353000D01*
X105275888Y-109330750D01*
X105381260Y-109287104D01*
X105476091Y-109223739D01*
X105556739Y-109143091D01*
X105620104Y-109048260D01*
X105663750Y-108942888D01*
X105686000Y-108831027D01*
X105686000Y-108716973D01*
X105663750Y-108605112D01*
X105620104Y-108499740D01*
X105556739Y-108404909D01*
X105476091Y-108324261D01*
X105381260Y-108260896D01*
X105275888Y-108217250D01*
X105164027Y-108195000D01*
X105049973Y-108195000D01*
X104938112Y-108217250D01*
X104832740Y-108260896D01*
X104737909Y-108324261D01*
X104657261Y-108404909D01*
X104593896Y-108499740D01*
X104550250Y-108605112D01*
X104528000Y-108716973D01*
X103914857Y-108716973D01*
X103971739Y-108660091D01*
X104035104Y-108565260D01*
X104078750Y-108459888D01*
X104101000Y-108348027D01*
X104101000Y-108233973D01*
X104078750Y-108122112D01*
X104035104Y-108016740D01*
X103971739Y-107921909D01*
X103891091Y-107841261D01*
X103796260Y-107777896D01*
X103690888Y-107734250D01*
X103633440Y-107722823D01*
X106461000Y-107722823D01*
X106461000Y-107817177D01*
X106479407Y-107909719D01*
X106515515Y-107996892D01*
X106567936Y-108075345D01*
X106634655Y-108142064D01*
X106713108Y-108194485D01*
X106800281Y-108230593D01*
X106892823Y-108249000D01*
X106987177Y-108249000D01*
X107079719Y-108230593D01*
X107166892Y-108194485D01*
X107245345Y-108142064D01*
X107312064Y-108075345D01*
X107364485Y-107996892D01*
X107400593Y-107909719D01*
X107419000Y-107817177D01*
X107419000Y-107722823D01*
X107400593Y-107630281D01*
X107364485Y-107543108D01*
X107312064Y-107464655D01*
X107245345Y-107397936D01*
X107166892Y-107345515D01*
X107079719Y-107309407D01*
X106987177Y-107291000D01*
X106892823Y-107291000D01*
X106800281Y-107309407D01*
X106713108Y-107345515D01*
X106634655Y-107397936D01*
X106567936Y-107464655D01*
X106515515Y-107543108D01*
X106479407Y-107630281D01*
X106461000Y-107722823D01*
X103633440Y-107722823D01*
X103579027Y-107712000D01*
X103464973Y-107712000D01*
X103353112Y-107734250D01*
X103247740Y-107777896D01*
X103152909Y-107841261D01*
X103072261Y-107921909D01*
X103008896Y-108016740D01*
X102965250Y-108122112D01*
X102943000Y-108233973D01*
X101522803Y-108233973D01*
X101509091Y-108220261D01*
X101414260Y-108156896D01*
X101308888Y-108113250D01*
X101197027Y-108091000D01*
X101113222Y-108091000D01*
X101182408Y-107876104D01*
X101209653Y-107640507D01*
X101190410Y-107404122D01*
X101125421Y-107176032D01*
X101017182Y-106965005D01*
X100994396Y-106930903D01*
X100811759Y-106846424D01*
X100038184Y-107620000D01*
X100052326Y-107634142D01*
X100014142Y-107672326D01*
X100000000Y-107658184D01*
X99226424Y-108431759D01*
X99310903Y-108614396D01*
X99518140Y-108729726D01*
X99743896Y-108802408D01*
X99979493Y-108829653D01*
X100215878Y-108810410D01*
X100443968Y-108745421D01*
X100561000Y-108685393D01*
X100561000Y-108727027D01*
X100583250Y-108838888D01*
X100626896Y-108944260D01*
X100690261Y-109039091D01*
X100704120Y-109052950D01*
X100652415Y-109104655D01*
X100632442Y-109134546D01*
X100570308Y-109093029D01*
X100351194Y-109002269D01*
X100118584Y-108956000D01*
X99881416Y-108956000D01*
X99648806Y-109002269D01*
X99429692Y-109093029D01*
X99232495Y-109224792D01*
X99109000Y-109348287D01*
X99109000Y-108356923D01*
X99188241Y-108393576D01*
X99961816Y-107620000D01*
X99188241Y-106846424D01*
X99109000Y-106883077D01*
X99109000Y-106808241D01*
X99226424Y-106808241D01*
X100000000Y-107581816D01*
X100773576Y-106808241D01*
X100689097Y-106625604D01*
X100481860Y-106510274D01*
X100256104Y-106437592D01*
X100020507Y-106410347D01*
X99784122Y-106429590D01*
X99556032Y-106494579D01*
X99345005Y-106602818D01*
X99310903Y-106625604D01*
X99226424Y-106808241D01*
X99109000Y-106808241D01*
X99109000Y-105881870D01*
X99163103Y-105945575D01*
X99348049Y-106092214D01*
X99558049Y-106199954D01*
X99785033Y-106264655D01*
X99973000Y-106195198D01*
X99973000Y-105107000D01*
X100027000Y-105107000D01*
X100027000Y-106195198D01*
X100214967Y-106264655D01*
X100441951Y-106199954D01*
X100651951Y-106092214D01*
X100836897Y-105945575D01*
X100989682Y-105765673D01*
X101104434Y-105559421D01*
X101176743Y-105334745D01*
X101184654Y-105294967D01*
X101115173Y-105107000D01*
X100027000Y-105107000D01*
X99973000Y-105107000D01*
X99953000Y-105107000D01*
X99953000Y-105053000D01*
X99973000Y-105053000D01*
X99973000Y-103964802D01*
X100027000Y-103964802D01*
X100027000Y-105053000D01*
X101115173Y-105053000D01*
X101149026Y-104961416D01*
X101336000Y-104961416D01*
X101336000Y-105198584D01*
X101382269Y-105431194D01*
X101473029Y-105650308D01*
X101604792Y-105847505D01*
X101772495Y-106015208D01*
X101969692Y-106146971D01*
X102188806Y-106237731D01*
X102421416Y-106284000D01*
X102658584Y-106284000D01*
X102891194Y-106237731D01*
X103110308Y-106146971D01*
X103307505Y-106015208D01*
X103475208Y-105847505D01*
X103606971Y-105650308D01*
X103697731Y-105431194D01*
X103744000Y-105198584D01*
X103744000Y-104961416D01*
X103876000Y-104961416D01*
X103876000Y-105198584D01*
X103922269Y-105431194D01*
X104013029Y-105650308D01*
X104144792Y-105847505D01*
X104312495Y-106015208D01*
X104509692Y-106146971D01*
X104728806Y-106237731D01*
X104961416Y-106284000D01*
X105198584Y-106284000D01*
X105431194Y-106237731D01*
X105650308Y-106146971D01*
X105847505Y-106015208D01*
X106015208Y-105847505D01*
X106146971Y-105650308D01*
X106237731Y-105431194D01*
X106284000Y-105198584D01*
X106284000Y-104961416D01*
X106416000Y-104961416D01*
X106416000Y-105198584D01*
X106462269Y-105431194D01*
X106553029Y-105650308D01*
X106684792Y-105847505D01*
X106852495Y-106015208D01*
X107049692Y-106146971D01*
X107268806Y-106237731D01*
X107482221Y-106280182D01*
X107480508Y-106285828D01*
X107468846Y-106404232D01*
X107471768Y-106433899D01*
X107471769Y-111397136D01*
X107480509Y-111485874D01*
X107515046Y-111599728D01*
X107571132Y-111704657D01*
X107646610Y-111796628D01*
X107738581Y-111872106D01*
X107843510Y-111928192D01*
X107957364Y-111962729D01*
X108075768Y-111974391D01*
X108194173Y-111962729D01*
X108308027Y-111928192D01*
X108412956Y-111872106D01*
X108504927Y-111796628D01*
X108580405Y-111704657D01*
X108636491Y-111599728D01*
X108671028Y-111485874D01*
X108679768Y-111397136D01*
X108679768Y-106798598D01*
X108750909Y-106869739D01*
X108845740Y-106933104D01*
X108951112Y-106976750D01*
X109062973Y-106999000D01*
X109064019Y-106999000D01*
X109281001Y-107215983D01*
X109281000Y-110298611D01*
X109278828Y-110320664D01*
X109281000Y-110342716D01*
X109284986Y-110383191D01*
X109196652Y-110442215D01*
X109116004Y-110522863D01*
X109052639Y-110617694D01*
X109008993Y-110723066D01*
X108986743Y-110834927D01*
X108986743Y-110948981D01*
X109008993Y-111060842D01*
X109052639Y-111166214D01*
X109116004Y-111261045D01*
X109196652Y-111341693D01*
X109291483Y-111405058D01*
X109396855Y-111448704D01*
X109508716Y-111470954D01*
X109622770Y-111470954D01*
X109734631Y-111448704D01*
X109840003Y-111405058D01*
X109934834Y-111341693D01*
X109948683Y-111327844D01*
X109952096Y-111330124D01*
X110057468Y-111373770D01*
X110169329Y-111396020D01*
X110283383Y-111396020D01*
X110395244Y-111373770D01*
X110500616Y-111330124D01*
X110595447Y-111266759D01*
X110676095Y-111186111D01*
X110739460Y-111091280D01*
X110783106Y-110985908D01*
X110805356Y-110874047D01*
X110805356Y-110759993D01*
X110783106Y-110648132D01*
X110739460Y-110542760D01*
X110676095Y-110447929D01*
X110595447Y-110367281D01*
X110500616Y-110303916D01*
X110395244Y-110260270D01*
X110283383Y-110238020D01*
X110282337Y-110238020D01*
X110179000Y-110134683D01*
X110179000Y-109055738D01*
X112076000Y-109055738D01*
X112076000Y-109204262D01*
X112104976Y-109349934D01*
X112161814Y-109487153D01*
X112244330Y-109610647D01*
X112349353Y-109715670D01*
X112472847Y-109798186D01*
X112610066Y-109855024D01*
X112755738Y-109884000D01*
X112904262Y-109884000D01*
X113049934Y-109855024D01*
X113187153Y-109798186D01*
X113310647Y-109715670D01*
X113415670Y-109610647D01*
X113498186Y-109487153D01*
X113555024Y-109349934D01*
X113584000Y-109204262D01*
X113584000Y-109055738D01*
X113555024Y-108910066D01*
X113498186Y-108772847D01*
X113415670Y-108649353D01*
X113310647Y-108544330D01*
X113187153Y-108461814D01*
X113049934Y-108404976D01*
X112904262Y-108376000D01*
X112755738Y-108376000D01*
X112610066Y-108404976D01*
X112472847Y-108461814D01*
X112349353Y-108544330D01*
X112244330Y-108649353D01*
X112161814Y-108772847D01*
X112104976Y-108910066D01*
X112076000Y-109055738D01*
X110179000Y-109055738D01*
X110179000Y-107125738D01*
X111116000Y-107125738D01*
X111116000Y-107274262D01*
X111144976Y-107419934D01*
X111201814Y-107557153D01*
X111284330Y-107680647D01*
X111389353Y-107785670D01*
X111512847Y-107868186D01*
X111650066Y-107925024D01*
X111795738Y-107954000D01*
X111944262Y-107954000D01*
X112089934Y-107925024D01*
X112227153Y-107868186D01*
X112350647Y-107785670D01*
X112455670Y-107680647D01*
X112538186Y-107557153D01*
X112595024Y-107419934D01*
X112624000Y-107274262D01*
X112624000Y-107125738D01*
X112595024Y-106980066D01*
X112538186Y-106842847D01*
X112455670Y-106719353D01*
X112350647Y-106614330D01*
X112227153Y-106531814D01*
X112089934Y-106474976D01*
X111944262Y-106446000D01*
X111795738Y-106446000D01*
X111650066Y-106474976D01*
X111512847Y-106531814D01*
X111389353Y-106614330D01*
X111284330Y-106719353D01*
X111201814Y-106842847D01*
X111144976Y-106980066D01*
X111116000Y-107125738D01*
X110179000Y-107125738D01*
X110179000Y-107052050D01*
X110181172Y-107029999D01*
X110175927Y-106976750D01*
X110172503Y-106941981D01*
X110146829Y-106857344D01*
X110105136Y-106779342D01*
X110049027Y-106710973D01*
X110031895Y-106696913D01*
X109699000Y-106364019D01*
X109699000Y-106362973D01*
X109676750Y-106251112D01*
X109633104Y-106145740D01*
X109583164Y-106071000D01*
X109976786Y-106071000D01*
X110072847Y-106135186D01*
X110210066Y-106192024D01*
X110355738Y-106221000D01*
X110504262Y-106221000D01*
X110649934Y-106192024D01*
X110787153Y-106135186D01*
X110910647Y-106052670D01*
X111015670Y-105947647D01*
X111098186Y-105824153D01*
X111155024Y-105686934D01*
X111184000Y-105541262D01*
X111184000Y-105392738D01*
X111155024Y-105247066D01*
X111098186Y-105109847D01*
X111025735Y-105001416D01*
X111476000Y-105001416D01*
X111476000Y-105238584D01*
X111522269Y-105471194D01*
X111613029Y-105690308D01*
X111744792Y-105887505D01*
X111912495Y-106055208D01*
X112109692Y-106186971D01*
X112328806Y-106277731D01*
X112561416Y-106324000D01*
X112798584Y-106324000D01*
X113031194Y-106277731D01*
X113250308Y-106186971D01*
X113447505Y-106055208D01*
X113615208Y-105887505D01*
X113746971Y-105690308D01*
X113837731Y-105471194D01*
X113884000Y-105238584D01*
X113884000Y-105001416D01*
X113837731Y-104768806D01*
X113746971Y-104549692D01*
X113615208Y-104352495D01*
X113447505Y-104184792D01*
X113250308Y-104053029D01*
X113031194Y-103962269D01*
X112798584Y-103916000D01*
X112561416Y-103916000D01*
X112328806Y-103962269D01*
X112109692Y-104053029D01*
X111912495Y-104184792D01*
X111744792Y-104352495D01*
X111613029Y-104549692D01*
X111522269Y-104768806D01*
X111476000Y-105001416D01*
X111025735Y-105001416D01*
X111015670Y-104986353D01*
X110910647Y-104881330D01*
X110787153Y-104798814D01*
X110649934Y-104741976D01*
X110504262Y-104713000D01*
X110355738Y-104713000D01*
X110210066Y-104741976D01*
X110072847Y-104798814D01*
X109976786Y-104863000D01*
X109042666Y-104863000D01*
X109012999Y-104860078D01*
X108894595Y-104871740D01*
X108811195Y-104897039D01*
X108777731Y-104728806D01*
X108686971Y-104509692D01*
X108555208Y-104312495D01*
X108387505Y-104144792D01*
X108190308Y-104013029D01*
X107971194Y-103922269D01*
X107738584Y-103876000D01*
X107501416Y-103876000D01*
X107268806Y-103922269D01*
X107049692Y-104013029D01*
X106852495Y-104144792D01*
X106684792Y-104312495D01*
X106553029Y-104509692D01*
X106462269Y-104728806D01*
X106416000Y-104961416D01*
X106284000Y-104961416D01*
X106237731Y-104728806D01*
X106146971Y-104509692D01*
X106015208Y-104312495D01*
X105847505Y-104144792D01*
X105650308Y-104013029D01*
X105431194Y-103922269D01*
X105198584Y-103876000D01*
X104961416Y-103876000D01*
X104728806Y-103922269D01*
X104509692Y-104013029D01*
X104312495Y-104144792D01*
X104144792Y-104312495D01*
X104013029Y-104509692D01*
X103922269Y-104728806D01*
X103876000Y-104961416D01*
X103744000Y-104961416D01*
X103697731Y-104728806D01*
X103606971Y-104509692D01*
X103475208Y-104312495D01*
X103307505Y-104144792D01*
X103110308Y-104013029D01*
X102891194Y-103922269D01*
X102658584Y-103876000D01*
X102421416Y-103876000D01*
X102188806Y-103922269D01*
X101969692Y-104013029D01*
X101772495Y-104144792D01*
X101604792Y-104312495D01*
X101473029Y-104509692D01*
X101382269Y-104728806D01*
X101336000Y-104961416D01*
X101149026Y-104961416D01*
X101184654Y-104865033D01*
X101176743Y-104825255D01*
X101104434Y-104600579D01*
X100989682Y-104394327D01*
X100836897Y-104214425D01*
X100651951Y-104067786D01*
X100441951Y-103960046D01*
X100214967Y-103895345D01*
X100027000Y-103964802D01*
X99973000Y-103964802D01*
X99785033Y-103895345D01*
X99558049Y-103960046D01*
X99348049Y-104067786D01*
X99163103Y-104214425D01*
X99109000Y-104278130D01*
X99109000Y-103351713D01*
X99232495Y-103475208D01*
X99429692Y-103606971D01*
X99648806Y-103697731D01*
X99881416Y-103744000D01*
X100118584Y-103744000D01*
X100351194Y-103697731D01*
X100570308Y-103606971D01*
X100767505Y-103475208D01*
X100935208Y-103307505D01*
X101053101Y-103131065D01*
X101055515Y-103136892D01*
X101107936Y-103215345D01*
X101174655Y-103282064D01*
X101253108Y-103334485D01*
X101340281Y-103370593D01*
X101432823Y-103389000D01*
X101527177Y-103389000D01*
X101619719Y-103370593D01*
X101706892Y-103334485D01*
X101785345Y-103282064D01*
X101852064Y-103215345D01*
X101904485Y-103136892D01*
X101940593Y-103049719D01*
X101959000Y-102957177D01*
X101959000Y-102947005D01*
X101977936Y-102975345D01*
X102044655Y-103042064D01*
X102123108Y-103094485D01*
X102210281Y-103130593D01*
X102302823Y-103149000D01*
X102397177Y-103149000D01*
X102489719Y-103130593D01*
X102576892Y-103094485D01*
X102590133Y-103085637D01*
X102677683Y-103192317D01*
X102815334Y-103305285D01*
X102972380Y-103389228D01*
X103142785Y-103440920D01*
X103320000Y-103458374D01*
X103497214Y-103440920D01*
X103667619Y-103389228D01*
X103824665Y-103305285D01*
X103962317Y-103192317D01*
X104075285Y-103054666D01*
X104159228Y-102897620D01*
X104210920Y-102727215D01*
X104224000Y-102594410D01*
X104224000Y-102177823D01*
X105391000Y-102177823D01*
X105391000Y-102272177D01*
X105409407Y-102364719D01*
X105445515Y-102451892D01*
X105497936Y-102530345D01*
X105564655Y-102597064D01*
X105643108Y-102649485D01*
X105730281Y-102685593D01*
X105822823Y-102704000D01*
X105917177Y-102704000D01*
X106009719Y-102685593D01*
X106096892Y-102649485D01*
X106175345Y-102597064D01*
X106242064Y-102530345D01*
X106294485Y-102451892D01*
X106330593Y-102364719D01*
X106349000Y-102272177D01*
X106349000Y-102177823D01*
X108391000Y-102177823D01*
X108391000Y-102272177D01*
X108409407Y-102364719D01*
X108445515Y-102451892D01*
X108497936Y-102530345D01*
X108564655Y-102597064D01*
X108643108Y-102649485D01*
X108730281Y-102685593D01*
X108822823Y-102704000D01*
X108917177Y-102704000D01*
X109009719Y-102685593D01*
X109096892Y-102649485D01*
X109175345Y-102597064D01*
X109242064Y-102530345D01*
X109294485Y-102451892D01*
X109330593Y-102364719D01*
X109349000Y-102272177D01*
X109349000Y-102177823D01*
X109330593Y-102085281D01*
X109294485Y-101998108D01*
X109242064Y-101919655D01*
X109175345Y-101852936D01*
X109096892Y-101800515D01*
X109009719Y-101764407D01*
X108917177Y-101746000D01*
X108822823Y-101746000D01*
X108730281Y-101764407D01*
X108643108Y-101800515D01*
X108564655Y-101852936D01*
X108497936Y-101919655D01*
X108445515Y-101998108D01*
X108409407Y-102085281D01*
X108391000Y-102177823D01*
X106349000Y-102177823D01*
X106330593Y-102085281D01*
X106294485Y-101998108D01*
X106242064Y-101919655D01*
X106175345Y-101852936D01*
X106096892Y-101800515D01*
X106009719Y-101764407D01*
X105917177Y-101746000D01*
X105822823Y-101746000D01*
X105730281Y-101764407D01*
X105643108Y-101800515D01*
X105564655Y-101852936D01*
X105497936Y-101919655D01*
X105445515Y-101998108D01*
X105409407Y-102085281D01*
X105391000Y-102177823D01*
X104224000Y-102177823D01*
X104224000Y-101903250D01*
X104297163Y-101976413D01*
X104408373Y-102050722D01*
X104531943Y-102101906D01*
X104663124Y-102128000D01*
X104796876Y-102128000D01*
X104928057Y-102101906D01*
X105051627Y-102050722D01*
X105162837Y-101976413D01*
X105257413Y-101881837D01*
X105331722Y-101770627D01*
X105382906Y-101647057D01*
X105409000Y-101515876D01*
X105409000Y-101382124D01*
X105382906Y-101250943D01*
X105331722Y-101127373D01*
X105257413Y-101016163D01*
X105162837Y-100921587D01*
X105051627Y-100847278D01*
X104928057Y-100796094D01*
X104796876Y-100770000D01*
X104663124Y-100770000D01*
X104531943Y-100796094D01*
X104408373Y-100847278D01*
X104297163Y-100921587D01*
X104202587Y-101016163D01*
X104152895Y-101090532D01*
X104075285Y-100945334D01*
X103962317Y-100807683D01*
X103824666Y-100694715D01*
X103667620Y-100610772D01*
X103497215Y-100559080D01*
X103320000Y-100541626D01*
X103142786Y-100559080D01*
X102972381Y-100610772D01*
X102815335Y-100694715D01*
X102677684Y-100807683D01*
X102564716Y-100945334D01*
X102480773Y-101102380D01*
X102429081Y-101272785D01*
X102416001Y-101405590D01*
X102416000Y-102194744D01*
X102397177Y-102191000D01*
X102302823Y-102191000D01*
X102210281Y-102209407D01*
X102123108Y-102245515D01*
X102044655Y-102297936D01*
X101977936Y-102364655D01*
X101925515Y-102443108D01*
X101889407Y-102530281D01*
X101871000Y-102622823D01*
X101871000Y-102632995D01*
X101852064Y-102604655D01*
X101785345Y-102537936D01*
X101706892Y-102485515D01*
X101619719Y-102449407D01*
X101527177Y-102431000D01*
X101432823Y-102431000D01*
X101340281Y-102449407D01*
X101253108Y-102485515D01*
X101204000Y-102518328D01*
X101204000Y-102421416D01*
X101157731Y-102188806D01*
X101066971Y-101969692D01*
X100935208Y-101772495D01*
X100767505Y-101604792D01*
X100669043Y-101539002D01*
X100697177Y-101539002D01*
X100789719Y-101520595D01*
X100876892Y-101484487D01*
X100955345Y-101432066D01*
X101022064Y-101365347D01*
X101074485Y-101286894D01*
X101110593Y-101199721D01*
X101129000Y-101107179D01*
X101129000Y-101031823D01*
X101342000Y-101031823D01*
X101342000Y-101126177D01*
X101360407Y-101218719D01*
X101396515Y-101305892D01*
X101448936Y-101384345D01*
X101515655Y-101451064D01*
X101594108Y-101503485D01*
X101681281Y-101539593D01*
X101773823Y-101558000D01*
X101868177Y-101558000D01*
X101960719Y-101539593D01*
X102047892Y-101503485D01*
X102126345Y-101451064D01*
X102193064Y-101384345D01*
X102245485Y-101305892D01*
X102281593Y-101218719D01*
X102300000Y-101126177D01*
X102300000Y-101031823D01*
X102281593Y-100939281D01*
X102245485Y-100852108D01*
X102193064Y-100773655D01*
X102126345Y-100706936D01*
X102047892Y-100654515D01*
X101960719Y-100618407D01*
X101868177Y-100600000D01*
X101773823Y-100600000D01*
X101681281Y-100618407D01*
X101594108Y-100654515D01*
X101515655Y-100706936D01*
X101448936Y-100773655D01*
X101396515Y-100852108D01*
X101360407Y-100939281D01*
X101342000Y-101031823D01*
X101129000Y-101031823D01*
X101129000Y-101012825D01*
X101110593Y-100920283D01*
X101074485Y-100833110D01*
X101022064Y-100754657D01*
X100975144Y-100707737D01*
X101066971Y-100570308D01*
X101157731Y-100351194D01*
X101204000Y-100118584D01*
X101204000Y-99970000D01*
X106290000Y-99970000D01*
X106290000Y-101730000D01*
X106291921Y-101749509D01*
X106297612Y-101768268D01*
X106306853Y-101785557D01*
X106319289Y-101800711D01*
X106334443Y-101813147D01*
X106351732Y-101822388D01*
X106370491Y-101828079D01*
X106390000Y-101830000D01*
X107510000Y-101830000D01*
X107530063Y-101827967D01*
X107548790Y-101822170D01*
X107566026Y-101812832D01*
X107581109Y-101800310D01*
X107593460Y-101785086D01*
X107602603Y-101767746D01*
X107608187Y-101748955D01*
X107609998Y-101729435D01*
X107608036Y-101382124D01*
X109831000Y-101382124D01*
X109831000Y-101515876D01*
X109857094Y-101647057D01*
X109908278Y-101770627D01*
X109982587Y-101881837D01*
X110077163Y-101976413D01*
X110188373Y-102050722D01*
X110311943Y-102101906D01*
X110443124Y-102128000D01*
X110576876Y-102128000D01*
X110708057Y-102101906D01*
X110831627Y-102050722D01*
X110942837Y-101976413D01*
X111016001Y-101903249D01*
X111016000Y-102594409D01*
X111029080Y-102727214D01*
X111080772Y-102897619D01*
X111164715Y-103054665D01*
X111277683Y-103192317D01*
X111415334Y-103305285D01*
X111572380Y-103389228D01*
X111742785Y-103440920D01*
X111920000Y-103458374D01*
X112097214Y-103440920D01*
X112267619Y-103389228D01*
X112424665Y-103305285D01*
X112562317Y-103192317D01*
X112675285Y-103054666D01*
X112759228Y-102897620D01*
X112802501Y-102754967D01*
X114055346Y-102754967D01*
X114063257Y-102794745D01*
X114135566Y-103019421D01*
X114250318Y-103225673D01*
X114403103Y-103405575D01*
X114588049Y-103552214D01*
X114798049Y-103659954D01*
X115025033Y-103724655D01*
X115213000Y-103655198D01*
X115213000Y-102567000D01*
X114124827Y-102567000D01*
X114055346Y-102754967D01*
X112802501Y-102754967D01*
X112810920Y-102727215D01*
X112824000Y-102594410D01*
X112824000Y-102325033D01*
X114055346Y-102325033D01*
X114124827Y-102513000D01*
X115213000Y-102513000D01*
X115213000Y-101424802D01*
X115025033Y-101355345D01*
X114798049Y-101420046D01*
X114588049Y-101527786D01*
X114403103Y-101674425D01*
X114250318Y-101854327D01*
X114135566Y-102060579D01*
X114063257Y-102285255D01*
X114055346Y-102325033D01*
X112824000Y-102325033D01*
X112824000Y-101405590D01*
X112810920Y-101272785D01*
X112759228Y-101102380D01*
X112727395Y-101042823D01*
X112873000Y-101042823D01*
X112873000Y-101137177D01*
X112891407Y-101229719D01*
X112927515Y-101316892D01*
X112979936Y-101395345D01*
X113046655Y-101462064D01*
X113125108Y-101514485D01*
X113212281Y-101550593D01*
X113304823Y-101569000D01*
X113399177Y-101569000D01*
X113491719Y-101550593D01*
X113578892Y-101514485D01*
X113657345Y-101462064D01*
X113724064Y-101395345D01*
X113776485Y-101316892D01*
X113812593Y-101229719D01*
X113831000Y-101137177D01*
X113831000Y-101042823D01*
X113812593Y-100950281D01*
X113776485Y-100863108D01*
X113724064Y-100784655D01*
X113657345Y-100717936D01*
X113578892Y-100665515D01*
X113491719Y-100629407D01*
X113399177Y-100611000D01*
X113304823Y-100611000D01*
X113212281Y-100629407D01*
X113125108Y-100665515D01*
X113046655Y-100717936D01*
X112979936Y-100784655D01*
X112927515Y-100863108D01*
X112891407Y-100950281D01*
X112873000Y-101042823D01*
X112727395Y-101042823D01*
X112675285Y-100945334D01*
X112562317Y-100807683D01*
X112424666Y-100694715D01*
X112267620Y-100610772D01*
X112097215Y-100559080D01*
X111920000Y-100541626D01*
X111742786Y-100559080D01*
X111572381Y-100610772D01*
X111415335Y-100694715D01*
X111277684Y-100807683D01*
X111164716Y-100945334D01*
X111087106Y-101090532D01*
X111037413Y-101016163D01*
X110942837Y-100921587D01*
X110831627Y-100847278D01*
X110708057Y-100796094D01*
X110576876Y-100770000D01*
X110443124Y-100770000D01*
X110311943Y-100796094D01*
X110188373Y-100847278D01*
X110077163Y-100921587D01*
X109982587Y-101016163D01*
X109908278Y-101127373D01*
X109857094Y-101250943D01*
X109831000Y-101382124D01*
X107608036Y-101382124D01*
X107599998Y-99959435D01*
X107597899Y-99939608D01*
X107592039Y-99920901D01*
X107582643Y-99903696D01*
X107570071Y-99888655D01*
X107554806Y-99876356D01*
X107537435Y-99867271D01*
X107518625Y-99861750D01*
X107499099Y-99860004D01*
X106389099Y-99870004D01*
X106370491Y-99871921D01*
X106351732Y-99877612D01*
X106334443Y-99886853D01*
X106319289Y-99899289D01*
X106306853Y-99914443D01*
X106297612Y-99931732D01*
X106291921Y-99950491D01*
X106290000Y-99970000D01*
X101204000Y-99970000D01*
X101204000Y-99881416D01*
X101157731Y-99648806D01*
X101078277Y-99456986D01*
X101138160Y-99456986D01*
X101250021Y-99434736D01*
X101355393Y-99391090D01*
X101450224Y-99327725D01*
X101530872Y-99247077D01*
X101594237Y-99152246D01*
X101637883Y-99046874D01*
X101660133Y-98935013D01*
X101660133Y-98820959D01*
X101637883Y-98709098D01*
X101594237Y-98603726D01*
X101530872Y-98508895D01*
X101450224Y-98428247D01*
X101355393Y-98364882D01*
X101250021Y-98321236D01*
X101138160Y-98298986D01*
X101024106Y-98298986D01*
X100912245Y-98321236D01*
X100806873Y-98364882D01*
X100712042Y-98428247D01*
X100631394Y-98508895D01*
X100568029Y-98603726D01*
X100524383Y-98709098D01*
X100502133Y-98820959D01*
X100502133Y-98904790D01*
X100351194Y-98842269D01*
X100118584Y-98796000D01*
X99881416Y-98796000D01*
X99648806Y-98842269D01*
X99429692Y-98933029D01*
X99232495Y-99064792D01*
X99109000Y-99188287D01*
X99109000Y-97673844D01*
X99266876Y-97831720D01*
X99488641Y-97979899D01*
X99735053Y-98081966D01*
X99996643Y-98134000D01*
X100263357Y-98134000D01*
X100524947Y-98081966D01*
X100771359Y-97979899D01*
X100993124Y-97831720D01*
X101181720Y-97643124D01*
X101251336Y-97538936D01*
X101265250Y-97608888D01*
X101308896Y-97714260D01*
X101372261Y-97809091D01*
X101452909Y-97889739D01*
X101547740Y-97953104D01*
X101653112Y-97996750D01*
X101764973Y-98019000D01*
X101879027Y-98019000D01*
X101990888Y-97996750D01*
X102096260Y-97953104D01*
X102191091Y-97889739D01*
X102271739Y-97809091D01*
X102316000Y-97742851D01*
X102316000Y-98149313D01*
X102330528Y-98296817D01*
X102387938Y-98486072D01*
X102408139Y-98523866D01*
X102380281Y-98529407D01*
X102293108Y-98565515D01*
X102214655Y-98617936D01*
X102147936Y-98684655D01*
X102095515Y-98763108D01*
X102059407Y-98850281D01*
X102041000Y-98942823D01*
X102041000Y-99037177D01*
X102059407Y-99129719D01*
X102095515Y-99216892D01*
X102147936Y-99295345D01*
X102214655Y-99362064D01*
X102293108Y-99414485D01*
X102380281Y-99450593D01*
X102472823Y-99469000D01*
X102567177Y-99469000D01*
X102659719Y-99450593D01*
X102746892Y-99414485D01*
X102825345Y-99362064D01*
X102892064Y-99295345D01*
X102944485Y-99216892D01*
X102980593Y-99129719D01*
X102996257Y-99050970D01*
X103123182Y-99089472D01*
X103320000Y-99108857D01*
X103516817Y-99089472D01*
X103706072Y-99032062D01*
X103880491Y-98938834D01*
X104033370Y-98813370D01*
X104158834Y-98660491D01*
X104252062Y-98486073D01*
X104309472Y-98296818D01*
X104324000Y-98149314D01*
X104324000Y-97470000D01*
X106240000Y-97470000D01*
X106240000Y-99230000D01*
X106241921Y-99249509D01*
X106247612Y-99268268D01*
X106256853Y-99285557D01*
X106269289Y-99300711D01*
X106284443Y-99313147D01*
X106301732Y-99322388D01*
X106320491Y-99328079D01*
X106340000Y-99330000D01*
X107460000Y-99330000D01*
X107480063Y-99327967D01*
X107498790Y-99322170D01*
X107516026Y-99312832D01*
X107531109Y-99300310D01*
X107543460Y-99285086D01*
X107552603Y-99267746D01*
X107558187Y-99248955D01*
X107559998Y-99229435D01*
X107549998Y-97459435D01*
X107547899Y-97439608D01*
X107542039Y-97420901D01*
X107532643Y-97403696D01*
X107520071Y-97388655D01*
X107504806Y-97376356D01*
X107487435Y-97367271D01*
X107468625Y-97361750D01*
X107449099Y-97360004D01*
X106339099Y-97370004D01*
X106320491Y-97371921D01*
X106301732Y-97377612D01*
X106284443Y-97386853D01*
X106269289Y-97399289D01*
X106256853Y-97414443D01*
X106247612Y-97431732D01*
X106241921Y-97450491D01*
X106240000Y-97470000D01*
X104324000Y-97470000D01*
X104324000Y-97450687D01*
X104309472Y-97303183D01*
X104252062Y-97113927D01*
X104158834Y-96939509D01*
X104033370Y-96786630D01*
X103880491Y-96661166D01*
X103706073Y-96567938D01*
X103516818Y-96510528D01*
X103320000Y-96491143D01*
X103123183Y-96510528D01*
X102933928Y-96567938D01*
X102759510Y-96661166D01*
X102606631Y-96786630D01*
X102481167Y-96939509D01*
X102387939Y-97113927D01*
X102356530Y-97217467D01*
X102335104Y-97165740D01*
X102271739Y-97070909D01*
X102191091Y-96990261D01*
X102096260Y-96926896D01*
X101990888Y-96883250D01*
X101879027Y-96861000D01*
X101764973Y-96861000D01*
X101653112Y-96883250D01*
X101547740Y-96926896D01*
X101471124Y-96978090D01*
X101484000Y-96913357D01*
X101484000Y-96646643D01*
X101431966Y-96385053D01*
X101329899Y-96138641D01*
X101181720Y-95916876D01*
X101023844Y-95759000D01*
X114216156Y-95759000D01*
X114058280Y-95916876D01*
G37*
X114058280Y-95916876D02*
X113910101Y-96138641D01*
X113808034Y-96385053D01*
X113756000Y-96646643D01*
X113756000Y-96913357D01*
X113808034Y-97174947D01*
X113910101Y-97421359D01*
X114058280Y-97643124D01*
X114246876Y-97831720D01*
X114398452Y-97933000D01*
X114298738Y-97933000D01*
X114153066Y-97961976D01*
X114015847Y-98018814D01*
X113899719Y-98096408D01*
X113872104Y-98029740D01*
X113808739Y-97934909D01*
X113728091Y-97854261D01*
X113633260Y-97790896D01*
X113527888Y-97747250D01*
X113416027Y-97725000D01*
X113301973Y-97725000D01*
X113190112Y-97747250D01*
X113084740Y-97790896D01*
X112989909Y-97854261D01*
X112924000Y-97920170D01*
X112924000Y-97450687D01*
X112909472Y-97303183D01*
X112852062Y-97113927D01*
X112758834Y-96939509D01*
X112633370Y-96786630D01*
X112480491Y-96661166D01*
X112306073Y-96567938D01*
X112116818Y-96510528D01*
X111920000Y-96491143D01*
X111723183Y-96510528D01*
X111533928Y-96567938D01*
X111359510Y-96661166D01*
X111206631Y-96786630D01*
X111081167Y-96939509D01*
X110987939Y-97113927D01*
X110930528Y-97303182D01*
X110916000Y-97450686D01*
X110916000Y-98149313D01*
X110930528Y-98296817D01*
X110987938Y-98486072D01*
X111081166Y-98660491D01*
X111206630Y-98813370D01*
X111359509Y-98938834D01*
X111533927Y-99032062D01*
X111723182Y-99089472D01*
X111920000Y-99108857D01*
X112116817Y-99089472D01*
X112306072Y-99032062D01*
X112480491Y-98938834D01*
X112633370Y-98813370D01*
X112758834Y-98660491D01*
X112827075Y-98532821D01*
X112845896Y-98578260D01*
X112909261Y-98673091D01*
X112989909Y-98753739D01*
X113084740Y-98817104D01*
X113190112Y-98860750D01*
X113301973Y-98883000D01*
X113416027Y-98883000D01*
X113527888Y-98860750D01*
X113630348Y-98818310D01*
X113647976Y-98906934D01*
X113704814Y-99044153D01*
X113787330Y-99167647D01*
X113892353Y-99272670D01*
X114015847Y-99355186D01*
X114153066Y-99412024D01*
X114181107Y-99417602D01*
X114173029Y-99429692D01*
X114082269Y-99648806D01*
X114036000Y-99881416D01*
X114036000Y-100118584D01*
X114082269Y-100351194D01*
X114173029Y-100570308D01*
X114304792Y-100767505D01*
X114472495Y-100935208D01*
X114669692Y-101066971D01*
X114888806Y-101157731D01*
X115121416Y-101204000D01*
X115358584Y-101204000D01*
X115591194Y-101157731D01*
X115810308Y-101066971D01*
X116007505Y-100935208D01*
X116131001Y-100811712D01*
X116131001Y-101738131D01*
X116076897Y-101674425D01*
X115891951Y-101527786D01*
X115681951Y-101420046D01*
X115454967Y-101355345D01*
X115267000Y-101424802D01*
X115267000Y-102513000D01*
X115287000Y-102513000D01*
X115287000Y-102567000D01*
X115267000Y-102567000D01*
X115267000Y-103655198D01*
X115454967Y-103724655D01*
X115681951Y-103659954D01*
X115891951Y-103552214D01*
X116076897Y-103405575D01*
X116131001Y-103341869D01*
X116131001Y-104268288D01*
X116007505Y-104144792D01*
X115810308Y-104013029D01*
X115591194Y-103922269D01*
X115358584Y-103876000D01*
X115121416Y-103876000D01*
X114888806Y-103922269D01*
X114669692Y-104013029D01*
X114472495Y-104144792D01*
X114304792Y-104312495D01*
X114173029Y-104509692D01*
X114082269Y-104728806D01*
X114036000Y-104961416D01*
X114036000Y-105198584D01*
X114082269Y-105431194D01*
X114173029Y-105650308D01*
X114304792Y-105847505D01*
X114472495Y-106015208D01*
X114669692Y-106146971D01*
X114888806Y-106237731D01*
X115121416Y-106284000D01*
X115358584Y-106284000D01*
X115591194Y-106237731D01*
X115810308Y-106146971D01*
X116007505Y-106015208D01*
X116131001Y-105891712D01*
X116131001Y-106808288D01*
X116007505Y-106684792D01*
X115810308Y-106553029D01*
X115591194Y-106462269D01*
X115358584Y-106416000D01*
X115121416Y-106416000D01*
X114888806Y-106462269D01*
X114669692Y-106553029D01*
X114472495Y-106684792D01*
X114304792Y-106852495D01*
X114173029Y-107049692D01*
X114082269Y-107268806D01*
X114036000Y-107501416D01*
X114036000Y-107738584D01*
X114082269Y-107971194D01*
X114173029Y-108190308D01*
X114304792Y-108387505D01*
X114472495Y-108555208D01*
X114669692Y-108686971D01*
X114888806Y-108777731D01*
X115121416Y-108824000D01*
X115358584Y-108824000D01*
X115591194Y-108777731D01*
X115810308Y-108686971D01*
X116007505Y-108555208D01*
X116131001Y-108431712D01*
X116131001Y-109348288D01*
X116007505Y-109224792D01*
X115810308Y-109093029D01*
X115591194Y-109002269D01*
X115358584Y-108956000D01*
X115121416Y-108956000D01*
X114888806Y-109002269D01*
X114669692Y-109093029D01*
X114472495Y-109224792D01*
X114304792Y-109392495D01*
X114173029Y-109589692D01*
X114082269Y-109808806D01*
X114036000Y-110041416D01*
X114036000Y-110278584D01*
X114082269Y-110511194D01*
X114173029Y-110730308D01*
X114304792Y-110927505D01*
X114472495Y-111095208D01*
X114669692Y-111226971D01*
X114888806Y-111317731D01*
X115121416Y-111364000D01*
X115358584Y-111364000D01*
X115591194Y-111317731D01*
X115810308Y-111226971D01*
X116007505Y-111095208D01*
X116131001Y-110971712D01*
X116131001Y-111888288D01*
X116007505Y-111764792D01*
X115810308Y-111633029D01*
X115591194Y-111542269D01*
X115358584Y-111496000D01*
X115121416Y-111496000D01*
X114888806Y-111542269D01*
X114669692Y-111633029D01*
X114472495Y-111764792D01*
X114304792Y-111932495D01*
X114173029Y-112129692D01*
X114082269Y-112348806D01*
X114036000Y-112581416D01*
X114036000Y-112818584D01*
X114082269Y-113051194D01*
X114173029Y-113270308D01*
X114304792Y-113467505D01*
X114447918Y-113610631D01*
X114418782Y-113630099D01*
X114345099Y-113703782D01*
X114287206Y-113790424D01*
X114247329Y-113886696D01*
X114227000Y-113988898D01*
X114227000Y-114093102D01*
X114247329Y-114195304D01*
X114287206Y-114291576D01*
X114345099Y-114378218D01*
X114372084Y-114405203D01*
X114304792Y-114472495D01*
X114173029Y-114669692D01*
X114082269Y-114888806D01*
X114036000Y-115121416D01*
X114036000Y-115358584D01*
X114082269Y-115591194D01*
X114173029Y-115810308D01*
X114304792Y-116007505D01*
X114472495Y-116175208D01*
X114669692Y-116306971D01*
X114888806Y-116397731D01*
X115121416Y-116444000D01*
X115358584Y-116444000D01*
X115591194Y-116397731D01*
X115810308Y-116306971D01*
X116007505Y-116175208D01*
X116131000Y-116051713D01*
X116131000Y-116968287D01*
X116007505Y-116844792D01*
X115810308Y-116713029D01*
X115591194Y-116622269D01*
X115358584Y-116576000D01*
X115121416Y-116576000D01*
X114888806Y-116622269D01*
X114669692Y-116713029D01*
X114472495Y-116844792D01*
X114304792Y-117012495D01*
X114173029Y-117209692D01*
X114082269Y-117428806D01*
X114036000Y-117661416D01*
X114036000Y-117898584D01*
X114082269Y-118131194D01*
X114173029Y-118350308D01*
X114304792Y-118547505D01*
X114434247Y-118676960D01*
X114404898Y-118696571D01*
X114338179Y-118763290D01*
X114285758Y-118841743D01*
X114249650Y-118928916D01*
X114231243Y-119021458D01*
X114231243Y-119115812D01*
X114249650Y-119208354D01*
X114285758Y-119295527D01*
X114338179Y-119373980D01*
X114404898Y-119440699D01*
X114411906Y-119445381D01*
X114304792Y-119552495D01*
X114173029Y-119749692D01*
X114153727Y-119796292D01*
X113816231Y-119458796D01*
X113833645Y-119453514D01*
X113934231Y-119399750D01*
X114022395Y-119327395D01*
X114094750Y-119239231D01*
X114148514Y-119138645D01*
X114181621Y-119029504D01*
X114192800Y-118916000D01*
X114181621Y-118802497D01*
X114148514Y-118693355D01*
X114094750Y-118592769D01*
X114040524Y-118526695D01*
X113954305Y-118440476D01*
X113932638Y-118422694D01*
X113966593Y-118340719D01*
X113985000Y-118248177D01*
X113985000Y-118153823D01*
X113966593Y-118061281D01*
X113930485Y-117974108D01*
X113878064Y-117895655D01*
X113811345Y-117828936D01*
X113732892Y-117776515D01*
X113645719Y-117740407D01*
X113553177Y-117722000D01*
X113458823Y-117722000D01*
X113366281Y-117740407D01*
X113282500Y-117775110D01*
X113282500Y-117621498D01*
X113284519Y-117600999D01*
X113282500Y-117580500D01*
X113282500Y-117580491D01*
X113276459Y-117519156D01*
X113252586Y-117440457D01*
X113213818Y-117367927D01*
X113161645Y-117304355D01*
X113145718Y-117291284D01*
X112984000Y-117129566D01*
X112984000Y-117109562D01*
X112975622Y-117024497D01*
X112942514Y-116915355D01*
X112888750Y-116814770D01*
X112816395Y-116726605D01*
X112728231Y-116654250D01*
X112627646Y-116600486D01*
X112518504Y-116567378D01*
X112405000Y-116556199D01*
X112380201Y-116558641D01*
X112368593Y-116500281D01*
X112332485Y-116413108D01*
X112280064Y-116334655D01*
X112213345Y-116267936D01*
X112134892Y-116215515D01*
X112047719Y-116179407D01*
X111955177Y-116161000D01*
X111860823Y-116161000D01*
X111768281Y-116179407D01*
X111681108Y-116215515D01*
X111602655Y-116267936D01*
X111535936Y-116334655D01*
X111483515Y-116413108D01*
X111447407Y-116500281D01*
X111429000Y-116592823D01*
X111429000Y-116687177D01*
X111447407Y-116779719D01*
X111483515Y-116866892D01*
X111535936Y-116945345D01*
X111602655Y-117012064D01*
X111681108Y-117064485D01*
X111732057Y-117085589D01*
X111676354Y-117102486D01*
X111575769Y-117156250D01*
X111487605Y-117228605D01*
X111424694Y-117305262D01*
X111387289Y-117294129D01*
X111268824Y-117283087D01*
X111150483Y-117295368D01*
X111036811Y-117330500D01*
X110937457Y-117383606D01*
X110925010Y-117504826D01*
X111272000Y-117851816D01*
X111286142Y-117837674D01*
X111324326Y-117875858D01*
X111310184Y-117890000D01*
X111324326Y-117904142D01*
X111286142Y-117942326D01*
X111272000Y-117928184D01*
X110925010Y-118275174D01*
X110937457Y-118396394D01*
X111042677Y-118451930D01*
X111156711Y-118485871D01*
X111275176Y-118496913D01*
X111393517Y-118484632D01*
X111470108Y-118460960D01*
X111453407Y-118501281D01*
X111435000Y-118593823D01*
X111435000Y-118688177D01*
X111453407Y-118780719D01*
X111489515Y-118867892D01*
X111541936Y-118946345D01*
X111608655Y-119013064D01*
X111687108Y-119065485D01*
X111774281Y-119101593D01*
X111866823Y-119120000D01*
X111961177Y-119120000D01*
X112053719Y-119101593D01*
X112140892Y-119065485D01*
X112201532Y-119024966D01*
X113430928Y-120254363D01*
X113396460Y-120254363D01*
X113303918Y-120272770D01*
X113216745Y-120308878D01*
X113138292Y-120361299D01*
X113071573Y-120428018D01*
X113019152Y-120506471D01*
X112983044Y-120593644D01*
X112965519Y-120681751D01*
X112932509Y-120678500D01*
X112932502Y-120678500D01*
X112912000Y-120676481D01*
X112891498Y-120678500D01*
X112422956Y-120678500D01*
X112342231Y-120612250D01*
X112241646Y-120558486D01*
X112215324Y-120550501D01*
X112274345Y-120511064D01*
X112341064Y-120444345D01*
X112393485Y-120365892D01*
X112429593Y-120278719D01*
X112448000Y-120186177D01*
X112448000Y-120091823D01*
X112429593Y-119999281D01*
X112393485Y-119912108D01*
X112341064Y-119833655D01*
X112274345Y-119766936D01*
X112195892Y-119714515D01*
X112108719Y-119678407D01*
X112016177Y-119660000D01*
X111921823Y-119660000D01*
X111829281Y-119678407D01*
X111742108Y-119714515D01*
X111663655Y-119766936D01*
X111596936Y-119833655D01*
X111550068Y-119903798D01*
X111501323Y-119878070D01*
X111387289Y-119844129D01*
X111268824Y-119833087D01*
X111150483Y-119845368D01*
X111036811Y-119880500D01*
X110937457Y-119933606D01*
X110925010Y-120054826D01*
X111272000Y-120401816D01*
X111286142Y-120387674D01*
X111324326Y-120425858D01*
X111310184Y-120440000D01*
X111324326Y-120454142D01*
X111286142Y-120492326D01*
X111272000Y-120478184D01*
X110925010Y-120825174D01*
X110937457Y-120946394D01*
X111042677Y-121001930D01*
X111156711Y-121035871D01*
X111275176Y-121046913D01*
X111351817Y-121038959D01*
X111351479Y-121042390D01*
X111331281Y-121046407D01*
X111244108Y-121082515D01*
X111165655Y-121134936D01*
X111098936Y-121201655D01*
X111046515Y-121280108D01*
X111010407Y-121367281D01*
X110992000Y-121459823D01*
X110992000Y-121554177D01*
X111010407Y-121646719D01*
X111046515Y-121733892D01*
X111098936Y-121812345D01*
X111165655Y-121879064D01*
X111244108Y-121931485D01*
X111331281Y-121967593D01*
X111423823Y-121986000D01*
X111518177Y-121986000D01*
X111610719Y-121967593D01*
X111697892Y-121931485D01*
X111776345Y-121879064D01*
X111783863Y-121871546D01*
X111783863Y-121921040D01*
X111802270Y-122013582D01*
X111838378Y-122100755D01*
X111890799Y-122179208D01*
X111957518Y-122245927D01*
X112035971Y-122298348D01*
X112123144Y-122334456D01*
X112215686Y-122352863D01*
X112310040Y-122352863D01*
X112402582Y-122334456D01*
X112489755Y-122298348D01*
X112568208Y-122245927D01*
X112634927Y-122179208D01*
X112687348Y-122100755D01*
X112723456Y-122013582D01*
X112741863Y-121921040D01*
X112741863Y-121826686D01*
X112723456Y-121734144D01*
X112687348Y-121646971D01*
X112634927Y-121568518D01*
X112579909Y-121513500D01*
X112739066Y-121513500D01*
X112891232Y-121665666D01*
X112891199Y-121666000D01*
X112902378Y-121779504D01*
X112935486Y-121888646D01*
X112989250Y-121989231D01*
X113061605Y-122077395D01*
X113149769Y-122149750D01*
X113250354Y-122203514D01*
X113359496Y-122236622D01*
X113444561Y-122245000D01*
X113510439Y-122245000D01*
X113595504Y-122236622D01*
X113704646Y-122203514D01*
X113758999Y-122174461D01*
X113758999Y-122759954D01*
X113703922Y-122723152D01*
X113616749Y-122687044D01*
X113524207Y-122668637D01*
X113429853Y-122668637D01*
X113337311Y-122687044D01*
X113250138Y-122723152D01*
X113171685Y-122775573D01*
X113104966Y-122842292D01*
X113052545Y-122920745D01*
X113016437Y-123007918D01*
X112998030Y-123100460D01*
X112998030Y-123194814D01*
X113016437Y-123287356D01*
X113052545Y-123374529D01*
X113104966Y-123452982D01*
X113171685Y-123519701D01*
X113250138Y-123572122D01*
X113337311Y-123608230D01*
X113429853Y-123626637D01*
X113524207Y-123626637D01*
X113616749Y-123608230D01*
X113703922Y-123572122D01*
X113759000Y-123535320D01*
X113759000Y-125491393D01*
X113741485Y-125449108D01*
X113689064Y-125370655D01*
X113651951Y-125333542D01*
X113696485Y-125266892D01*
X113732593Y-125179719D01*
X113751000Y-125087177D01*
X113751000Y-124992823D01*
X113732593Y-124900281D01*
X113696485Y-124813108D01*
X113644064Y-124734655D01*
X113577345Y-124667936D01*
X113498892Y-124615515D01*
X113411719Y-124579407D01*
X113319177Y-124561000D01*
X113224823Y-124561000D01*
X113132281Y-124579407D01*
X113045108Y-124615515D01*
X112966655Y-124667936D01*
X112899936Y-124734655D01*
X112847515Y-124813108D01*
X112811407Y-124900281D01*
X112793000Y-124992823D01*
X112793000Y-125087177D01*
X112811407Y-125179719D01*
X112847515Y-125266892D01*
X112899936Y-125345345D01*
X112937049Y-125382458D01*
X112892515Y-125449108D01*
X112856407Y-125536281D01*
X112838000Y-125628823D01*
X112838000Y-125723177D01*
X112856407Y-125815719D01*
X112892515Y-125902892D01*
X112944936Y-125981345D01*
X113011655Y-126048064D01*
X113090108Y-126100485D01*
X113177281Y-126136593D01*
X113269823Y-126155000D01*
X113364177Y-126155000D01*
X113456719Y-126136593D01*
X113543892Y-126100485D01*
X113622345Y-126048064D01*
X113689064Y-125981345D01*
X113741485Y-125902892D01*
X113759000Y-125860607D01*
X113759000Y-126449989D01*
X113756980Y-126470501D01*
X113765040Y-126552345D01*
X113788914Y-126631044D01*
X113827682Y-126703574D01*
X113866780Y-126751216D01*
X113866788Y-126751224D01*
X113879855Y-126767146D01*
X113895777Y-126780213D01*
X114298090Y-127182526D01*
X114173029Y-127369692D01*
X114082269Y-127588806D01*
X114036000Y-127821416D01*
X114036000Y-128058584D01*
X114082269Y-128291194D01*
X114173029Y-128510308D01*
X114304792Y-128707505D01*
X114428287Y-128831000D01*
X100811713Y-128831000D01*
X100935208Y-128707505D01*
X101066971Y-128510308D01*
X101157731Y-128291194D01*
X101204000Y-128058584D01*
X101204000Y-127821416D01*
X101168476Y-127642823D01*
X108521000Y-127642823D01*
X108521000Y-127737177D01*
X108539407Y-127829719D01*
X108575515Y-127916892D01*
X108627936Y-127995345D01*
X108694655Y-128062064D01*
X108773108Y-128114485D01*
X108860281Y-128150593D01*
X108952823Y-128169000D01*
X109047177Y-128169000D01*
X109139719Y-128150593D01*
X109226892Y-128114485D01*
X109305345Y-128062064D01*
X109372064Y-127995345D01*
X109424485Y-127916892D01*
X109460593Y-127829719D01*
X109479000Y-127737177D01*
X109479000Y-127642823D01*
X109460593Y-127550281D01*
X109424485Y-127463108D01*
X109372064Y-127384655D01*
X109305345Y-127317936D01*
X109226892Y-127265515D01*
X109139719Y-127229407D01*
X109047177Y-127211000D01*
X108952823Y-127211000D01*
X108860281Y-127229407D01*
X108773108Y-127265515D01*
X108694655Y-127317936D01*
X108627936Y-127384655D01*
X108575515Y-127463108D01*
X108539407Y-127550281D01*
X108521000Y-127642823D01*
X101168476Y-127642823D01*
X101157731Y-127588806D01*
X101066971Y-127369692D01*
X100935208Y-127172495D01*
X100767505Y-127004792D01*
X100570308Y-126873029D01*
X100497385Y-126842823D01*
X102801000Y-126842823D01*
X102801000Y-126937177D01*
X102819407Y-127029719D01*
X102855515Y-127116892D01*
X102907936Y-127195345D01*
X102974655Y-127262064D01*
X103053108Y-127314485D01*
X103140281Y-127350593D01*
X103232823Y-127369000D01*
X103327177Y-127369000D01*
X103419719Y-127350593D01*
X103506892Y-127314485D01*
X103585345Y-127262064D01*
X103652064Y-127195345D01*
X103704485Y-127116892D01*
X103740593Y-127029719D01*
X103759000Y-126937177D01*
X103759000Y-126842823D01*
X103740593Y-126750281D01*
X103704485Y-126663108D01*
X103652064Y-126584655D01*
X103585345Y-126517936D01*
X103506892Y-126465515D01*
X103419719Y-126429407D01*
X103361480Y-126417823D01*
X103931000Y-126417823D01*
X103931000Y-126512177D01*
X103949407Y-126604719D01*
X103985515Y-126691892D01*
X104037936Y-126770345D01*
X104104655Y-126837064D01*
X104183108Y-126889485D01*
X104270281Y-126925593D01*
X104362823Y-126944000D01*
X104457177Y-126944000D01*
X104549719Y-126925593D01*
X104636892Y-126889485D01*
X104715345Y-126837064D01*
X104782064Y-126770345D01*
X104834485Y-126691892D01*
X104870593Y-126604719D01*
X104889000Y-126512177D01*
X104889000Y-126417823D01*
X104881273Y-126378975D01*
X109084000Y-126378975D01*
X109084000Y-126493029D01*
X109106250Y-126604890D01*
X109149896Y-126710262D01*
X109213261Y-126805093D01*
X109293909Y-126885741D01*
X109388740Y-126949106D01*
X109494112Y-126992752D01*
X109605973Y-127015002D01*
X109720027Y-127015002D01*
X109831888Y-126992752D01*
X109895942Y-126966220D01*
X109869407Y-127030281D01*
X109851000Y-127122823D01*
X109851000Y-127217177D01*
X109869407Y-127309719D01*
X109905515Y-127396892D01*
X109957936Y-127475345D01*
X110024655Y-127542064D01*
X110103108Y-127594485D01*
X110190281Y-127630593D01*
X110282823Y-127649000D01*
X110377177Y-127649000D01*
X110469719Y-127630593D01*
X110556892Y-127594485D01*
X110635345Y-127542064D01*
X110702064Y-127475345D01*
X110754485Y-127396892D01*
X110790593Y-127309719D01*
X110809000Y-127217177D01*
X110809000Y-127122823D01*
X110807041Y-127112973D01*
X112851000Y-127112973D01*
X112851000Y-127227027D01*
X112873250Y-127338888D01*
X112916896Y-127444260D01*
X112980261Y-127539091D01*
X113060909Y-127619739D01*
X113155740Y-127683104D01*
X113261112Y-127726750D01*
X113372973Y-127749000D01*
X113487027Y-127749000D01*
X113598888Y-127726750D01*
X113704260Y-127683104D01*
X113799091Y-127619739D01*
X113879739Y-127539091D01*
X113943104Y-127444260D01*
X113986750Y-127338888D01*
X114009000Y-127227027D01*
X114009000Y-127112973D01*
X113986750Y-127001112D01*
X113943104Y-126895740D01*
X113879739Y-126800909D01*
X113799091Y-126720261D01*
X113704260Y-126656896D01*
X113598888Y-126613250D01*
X113487027Y-126591000D01*
X113372973Y-126591000D01*
X113261112Y-126613250D01*
X113155740Y-126656896D01*
X113060909Y-126720261D01*
X112980261Y-126800909D01*
X112916896Y-126895740D01*
X112873250Y-127001112D01*
X112851000Y-127112973D01*
X110807041Y-127112973D01*
X110790593Y-127030281D01*
X110754485Y-126943108D01*
X110702064Y-126864655D01*
X110635345Y-126797936D01*
X110556892Y-126745515D01*
X110469719Y-126709407D01*
X110377177Y-126691000D01*
X110282823Y-126691000D01*
X110190281Y-126709407D01*
X110171469Y-126717199D01*
X110176104Y-126710262D01*
X110219750Y-126604890D01*
X110242000Y-126493029D01*
X110242000Y-126378975D01*
X110219750Y-126267114D01*
X110176104Y-126161742D01*
X110112739Y-126066911D01*
X110032091Y-125986263D01*
X109937260Y-125922898D01*
X109831888Y-125879252D01*
X109720027Y-125857002D01*
X109605973Y-125857002D01*
X109494112Y-125879252D01*
X109388740Y-125922898D01*
X109293909Y-125986263D01*
X109213261Y-126066911D01*
X109149896Y-126161742D01*
X109106250Y-126267114D01*
X109084000Y-126378975D01*
X104881273Y-126378975D01*
X104870593Y-126325281D01*
X104834485Y-126238108D01*
X104782064Y-126159655D01*
X104715345Y-126092936D01*
X104636892Y-126040515D01*
X104549719Y-126004407D01*
X104457177Y-125986000D01*
X104362823Y-125986000D01*
X104270281Y-126004407D01*
X104183108Y-126040515D01*
X104104655Y-126092936D01*
X104037936Y-126159655D01*
X103985515Y-126238108D01*
X103949407Y-126325281D01*
X103931000Y-126417823D01*
X103361480Y-126417823D01*
X103327177Y-126411000D01*
X103232823Y-126411000D01*
X103140281Y-126429407D01*
X103053108Y-126465515D01*
X102974655Y-126517936D01*
X102907936Y-126584655D01*
X102855515Y-126663108D01*
X102819407Y-126750281D01*
X102801000Y-126842823D01*
X100497385Y-126842823D01*
X100351194Y-126782269D01*
X100118584Y-126736000D01*
X99881416Y-126736000D01*
X99648806Y-126782269D01*
X99429692Y-126873029D01*
X99232495Y-127004792D01*
X99109000Y-127128287D01*
X99109000Y-126211713D01*
X99232495Y-126335208D01*
X99429692Y-126466971D01*
X99648806Y-126557731D01*
X99881416Y-126604000D01*
X100118584Y-126604000D01*
X100351194Y-126557731D01*
X100570308Y-126466971D01*
X100767505Y-126335208D01*
X100935208Y-126167505D01*
X101066971Y-125970308D01*
X101099066Y-125892823D01*
X101361000Y-125892823D01*
X101361000Y-125987177D01*
X101379407Y-126079719D01*
X101415515Y-126166892D01*
X101467936Y-126245345D01*
X101534655Y-126312064D01*
X101613108Y-126364485D01*
X101700281Y-126400593D01*
X101792823Y-126419000D01*
X101887177Y-126419000D01*
X101979719Y-126400593D01*
X102066892Y-126364485D01*
X102145345Y-126312064D01*
X102212064Y-126245345D01*
X102264485Y-126166892D01*
X102300593Y-126079719D01*
X102319000Y-125987177D01*
X102319000Y-125892823D01*
X102300593Y-125800281D01*
X102264485Y-125713108D01*
X102212064Y-125634655D01*
X102145345Y-125567936D01*
X102066892Y-125515515D01*
X101979719Y-125479407D01*
X101887177Y-125461000D01*
X101792823Y-125461000D01*
X101700281Y-125479407D01*
X101613108Y-125515515D01*
X101534655Y-125567936D01*
X101467936Y-125634655D01*
X101415515Y-125713108D01*
X101379407Y-125800281D01*
X101361000Y-125892823D01*
X101099066Y-125892823D01*
X101157731Y-125751194D01*
X101204000Y-125518584D01*
X101204000Y-125281416D01*
X101157731Y-125048806D01*
X101066971Y-124829692D01*
X100935208Y-124632495D01*
X100767505Y-124464792D01*
X100570308Y-124333029D01*
X100351194Y-124242269D01*
X100118584Y-124196000D01*
X99881416Y-124196000D01*
X99648806Y-124242269D01*
X99429692Y-124333029D01*
X99232495Y-124464792D01*
X99109000Y-124588287D01*
X99109000Y-123671713D01*
X99232495Y-123795208D01*
X99429692Y-123926971D01*
X99648806Y-124017731D01*
X99881416Y-124064000D01*
X100118584Y-124064000D01*
X100351194Y-124017731D01*
X100570308Y-123926971D01*
X100767505Y-123795208D01*
X100935208Y-123627505D01*
X101066971Y-123430308D01*
X101125227Y-123289667D01*
X101181737Y-123336044D01*
X101282322Y-123389808D01*
X101391464Y-123422916D01*
X101476529Y-123431294D01*
X101476538Y-123431294D01*
X101504967Y-123434094D01*
X101533396Y-123431294D01*
X101533408Y-123431294D01*
X101618473Y-123422916D01*
X101727615Y-123389808D01*
X101828200Y-123336044D01*
X101916364Y-123263689D01*
X101988719Y-123175525D01*
X102042483Y-123074940D01*
X102075591Y-122965798D01*
X102086770Y-122852294D01*
X102075591Y-122738790D01*
X102042483Y-122629648D01*
X101988719Y-122529063D01*
X101937763Y-122466973D01*
X102524000Y-122466973D01*
X102524000Y-122581027D01*
X102546250Y-122692888D01*
X102589896Y-122798260D01*
X102653261Y-122893091D01*
X102733909Y-122973739D01*
X102828740Y-123037104D01*
X102934112Y-123080750D01*
X103045973Y-123103000D01*
X103160027Y-123103000D01*
X103271888Y-123080750D01*
X103377260Y-123037104D01*
X103472091Y-122973739D01*
X103552739Y-122893091D01*
X103616104Y-122798260D01*
X103656815Y-122699973D01*
X104819000Y-122699973D01*
X104819000Y-122814027D01*
X104841250Y-122925888D01*
X104884896Y-123031260D01*
X104948261Y-123126091D01*
X105028909Y-123206739D01*
X105123740Y-123270104D01*
X105229112Y-123313750D01*
X105340973Y-123336000D01*
X105455027Y-123336000D01*
X105566888Y-123313750D01*
X105573592Y-123310973D01*
X109821000Y-123310973D01*
X109821000Y-123425027D01*
X109843250Y-123536888D01*
X109886896Y-123642260D01*
X109950261Y-123737091D01*
X110030909Y-123817739D01*
X110125740Y-123881104D01*
X110231112Y-123924750D01*
X110342973Y-123947000D01*
X110457027Y-123947000D01*
X110568888Y-123924750D01*
X110674260Y-123881104D01*
X110769091Y-123817739D01*
X110849739Y-123737091D01*
X110913104Y-123642260D01*
X110956750Y-123536888D01*
X110979000Y-123425027D01*
X110979000Y-123310973D01*
X110956750Y-123199112D01*
X110913104Y-123093740D01*
X110849739Y-122998909D01*
X110769091Y-122918261D01*
X110674260Y-122854896D01*
X110568888Y-122811250D01*
X110457027Y-122789000D01*
X110342973Y-122789000D01*
X110231112Y-122811250D01*
X110125740Y-122854896D01*
X110030909Y-122918261D01*
X109950261Y-122998909D01*
X109886896Y-123093740D01*
X109843250Y-123199112D01*
X109821000Y-123310973D01*
X105573592Y-123310973D01*
X105672260Y-123270104D01*
X105767091Y-123206739D01*
X105847739Y-123126091D01*
X105911104Y-123031260D01*
X105954750Y-122925888D01*
X105977000Y-122814027D01*
X105977000Y-122699973D01*
X105954750Y-122588112D01*
X105911104Y-122482740D01*
X105847739Y-122387909D01*
X105767091Y-122307261D01*
X105672260Y-122243896D01*
X105566888Y-122200250D01*
X105455027Y-122178000D01*
X105340973Y-122178000D01*
X105229112Y-122200250D01*
X105123740Y-122243896D01*
X105028909Y-122307261D01*
X104948261Y-122387909D01*
X104884896Y-122482740D01*
X104841250Y-122588112D01*
X104819000Y-122699973D01*
X103656815Y-122699973D01*
X103659750Y-122692888D01*
X103682000Y-122581027D01*
X103682000Y-122466973D01*
X103659750Y-122355112D01*
X103616104Y-122249740D01*
X103552739Y-122154909D01*
X103472091Y-122074261D01*
X103377260Y-122010896D01*
X103271888Y-121967250D01*
X103160027Y-121945000D01*
X103045973Y-121945000D01*
X102934112Y-121967250D01*
X102828740Y-122010896D01*
X102733909Y-122074261D01*
X102653261Y-122154909D01*
X102589896Y-122249740D01*
X102546250Y-122355112D01*
X102524000Y-122466973D01*
X101937763Y-122466973D01*
X101916364Y-122440899D01*
X101894265Y-122422763D01*
X101832642Y-122361139D01*
X101766568Y-122306913D01*
X101665982Y-122253149D01*
X101556841Y-122220042D01*
X101474476Y-122211930D01*
X101474476Y-121867304D01*
X101481435Y-121844363D01*
X101487476Y-121783028D01*
X101487476Y-121783020D01*
X101489495Y-121762519D01*
X101487476Y-121742017D01*
X101487476Y-121537823D01*
X108493000Y-121537823D01*
X108493000Y-121632177D01*
X108511407Y-121724719D01*
X108547515Y-121811892D01*
X108599936Y-121890345D01*
X108666655Y-121957064D01*
X108745108Y-122009485D01*
X108832281Y-122045593D01*
X108924823Y-122064000D01*
X109019177Y-122064000D01*
X109111719Y-122045593D01*
X109198892Y-122009485D01*
X109277345Y-121957064D01*
X109344064Y-121890345D01*
X109396485Y-121811892D01*
X109432593Y-121724719D01*
X109451000Y-121632177D01*
X109451000Y-121537823D01*
X109432593Y-121445281D01*
X109431575Y-121442823D01*
X109995000Y-121442823D01*
X109995000Y-121537177D01*
X110013407Y-121629719D01*
X110049515Y-121716892D01*
X110101936Y-121795345D01*
X110168655Y-121862064D01*
X110247108Y-121914485D01*
X110334281Y-121950593D01*
X110426823Y-121969000D01*
X110521177Y-121969000D01*
X110613719Y-121950593D01*
X110700892Y-121914485D01*
X110779345Y-121862064D01*
X110846064Y-121795345D01*
X110898485Y-121716892D01*
X110934593Y-121629719D01*
X110953000Y-121537177D01*
X110953000Y-121442823D01*
X110934593Y-121350281D01*
X110898485Y-121263108D01*
X110846064Y-121184655D01*
X110779345Y-121117936D01*
X110700892Y-121065515D01*
X110613719Y-121029407D01*
X110521177Y-121011000D01*
X110426823Y-121011000D01*
X110334281Y-121029407D01*
X110247108Y-121065515D01*
X110168655Y-121117936D01*
X110101936Y-121184655D01*
X110049515Y-121263108D01*
X110013407Y-121350281D01*
X109995000Y-121442823D01*
X109431575Y-121442823D01*
X109396485Y-121358108D01*
X109344064Y-121279655D01*
X109277345Y-121212936D01*
X109198892Y-121160515D01*
X109111719Y-121124407D01*
X109019177Y-121106000D01*
X108924823Y-121106000D01*
X108832281Y-121124407D01*
X108745108Y-121160515D01*
X108666655Y-121212936D01*
X108599936Y-121279655D01*
X108547515Y-121358108D01*
X108511407Y-121445281D01*
X108493000Y-121537823D01*
X101487476Y-121537823D01*
X101487476Y-120763984D01*
X101563055Y-120814485D01*
X101650228Y-120850593D01*
X101742770Y-120869000D01*
X101837124Y-120869000D01*
X101929666Y-120850593D01*
X102016839Y-120814485D01*
X102095292Y-120762064D01*
X102123926Y-120733430D01*
X102541980Y-120733430D01*
X102541980Y-120847484D01*
X102564230Y-120959345D01*
X102607876Y-121064717D01*
X102671241Y-121159548D01*
X102751889Y-121240196D01*
X102846720Y-121303561D01*
X102952092Y-121347207D01*
X103063953Y-121369457D01*
X103178007Y-121369457D01*
X103289868Y-121347207D01*
X103395240Y-121303561D01*
X103490071Y-121240196D01*
X103570719Y-121159548D01*
X103634084Y-121064717D01*
X103677730Y-120959345D01*
X103699980Y-120847484D01*
X103699980Y-120825174D01*
X105825010Y-120825174D01*
X105837457Y-120946394D01*
X105942677Y-121001930D01*
X106056711Y-121035871D01*
X106175176Y-121046913D01*
X106293517Y-121034632D01*
X106407189Y-120999500D01*
X106506543Y-120946394D01*
X106518990Y-120825174D01*
X108375010Y-120825174D01*
X108387457Y-120946394D01*
X108492677Y-121001930D01*
X108606711Y-121035871D01*
X108725176Y-121046913D01*
X108843517Y-121034632D01*
X108957189Y-120999500D01*
X109056543Y-120946394D01*
X109068990Y-120825174D01*
X108722000Y-120478184D01*
X108375010Y-120825174D01*
X106518990Y-120825174D01*
X106172000Y-120478184D01*
X105825010Y-120825174D01*
X103699980Y-120825174D01*
X103699980Y-120733430D01*
X103677730Y-120621569D01*
X103634084Y-120516197D01*
X103585293Y-120443176D01*
X105565087Y-120443176D01*
X105577368Y-120561517D01*
X105612500Y-120675189D01*
X105665606Y-120774543D01*
X105786826Y-120786990D01*
X106133816Y-120440000D01*
X106210184Y-120440000D01*
X106557174Y-120786990D01*
X106678394Y-120774543D01*
X106733930Y-120669323D01*
X106767871Y-120555289D01*
X106778320Y-120443176D01*
X108115087Y-120443176D01*
X108127368Y-120561517D01*
X108162500Y-120675189D01*
X108215606Y-120774543D01*
X108336826Y-120786990D01*
X108683816Y-120440000D01*
X108760184Y-120440000D01*
X109107174Y-120786990D01*
X109228394Y-120774543D01*
X109283930Y-120669323D01*
X109317871Y-120555289D01*
X109328320Y-120443176D01*
X110665087Y-120443176D01*
X110677368Y-120561517D01*
X110712500Y-120675189D01*
X110765606Y-120774543D01*
X110886826Y-120786990D01*
X111233816Y-120440000D01*
X110886826Y-120093010D01*
X110765606Y-120105457D01*
X110710070Y-120210677D01*
X110676129Y-120324711D01*
X110665087Y-120443176D01*
X109328320Y-120443176D01*
X109328913Y-120436824D01*
X109316632Y-120318483D01*
X109281500Y-120204811D01*
X109228394Y-120105457D01*
X109107174Y-120093010D01*
X108760184Y-120440000D01*
X108683816Y-120440000D01*
X108336826Y-120093010D01*
X108215606Y-120105457D01*
X108160070Y-120210677D01*
X108126129Y-120324711D01*
X108115087Y-120443176D01*
X106778320Y-120443176D01*
X106778913Y-120436824D01*
X106766632Y-120318483D01*
X106731500Y-120204811D01*
X106678394Y-120105457D01*
X106557174Y-120093010D01*
X106210184Y-120440000D01*
X106133816Y-120440000D01*
X105786826Y-120093010D01*
X105665606Y-120105457D01*
X105610070Y-120210677D01*
X105576129Y-120324711D01*
X105565087Y-120443176D01*
X103585293Y-120443176D01*
X103570719Y-120421366D01*
X103490071Y-120340718D01*
X103395240Y-120277353D01*
X103289868Y-120233707D01*
X103178007Y-120211457D01*
X103063953Y-120211457D01*
X102952092Y-120233707D01*
X102846720Y-120277353D01*
X102751889Y-120340718D01*
X102671241Y-120421366D01*
X102607876Y-120516197D01*
X102564230Y-120621569D01*
X102541980Y-120733430D01*
X102123926Y-120733430D01*
X102162011Y-120695345D01*
X102214432Y-120616892D01*
X102250540Y-120529719D01*
X102268947Y-120437177D01*
X102268947Y-120342823D01*
X102250540Y-120250281D01*
X102214432Y-120163108D01*
X102162011Y-120084655D01*
X102132182Y-120054826D01*
X105825010Y-120054826D01*
X106172000Y-120401816D01*
X106518990Y-120054826D01*
X108375010Y-120054826D01*
X108722000Y-120401816D01*
X109068990Y-120054826D01*
X109056543Y-119933606D01*
X108951323Y-119878070D01*
X108837289Y-119844129D01*
X108718824Y-119833087D01*
X108600483Y-119845368D01*
X108486811Y-119880500D01*
X108387457Y-119933606D01*
X108375010Y-120054826D01*
X106518990Y-120054826D01*
X106506543Y-119933606D01*
X106401323Y-119878070D01*
X106287289Y-119844129D01*
X106168824Y-119833087D01*
X106050483Y-119845368D01*
X105936811Y-119880500D01*
X105837457Y-119933606D01*
X105825010Y-120054826D01*
X102132182Y-120054826D01*
X102095292Y-120017936D01*
X102016839Y-119965515D01*
X101929666Y-119929407D01*
X101837124Y-119911000D01*
X101742770Y-119911000D01*
X101650228Y-119929407D01*
X101563055Y-119965515D01*
X101487476Y-120016016D01*
X101487476Y-118430184D01*
X102395905Y-117521755D01*
X102472399Y-117598249D01*
X102567230Y-117661614D01*
X102672602Y-117705260D01*
X102784463Y-117727510D01*
X102834489Y-117727510D01*
X102742627Y-117745782D01*
X102637255Y-117789428D01*
X102542424Y-117852793D01*
X102461776Y-117933441D01*
X102398411Y-118028272D01*
X102354765Y-118133644D01*
X102332515Y-118245505D01*
X102332515Y-118359559D01*
X102354765Y-118471420D01*
X102398411Y-118576792D01*
X102461776Y-118671623D01*
X102542424Y-118752271D01*
X102637255Y-118815636D01*
X102742627Y-118859282D01*
X102745542Y-118859862D01*
X102763250Y-118948888D01*
X102806896Y-119054260D01*
X102870261Y-119149091D01*
X102950909Y-119229739D01*
X103045740Y-119293104D01*
X103151112Y-119336750D01*
X103262973Y-119359000D01*
X103377027Y-119359000D01*
X103488888Y-119336750D01*
X103594260Y-119293104D01*
X103689091Y-119229739D01*
X103769739Y-119149091D01*
X103833104Y-119054260D01*
X103876750Y-118948888D01*
X103898573Y-118839175D01*
X103950281Y-118860593D01*
X104042823Y-118879000D01*
X104137177Y-118879000D01*
X104229719Y-118860593D01*
X104316892Y-118824485D01*
X104395345Y-118772064D01*
X104462064Y-118705345D01*
X104514485Y-118626892D01*
X104550593Y-118539719D01*
X104569000Y-118447177D01*
X104569000Y-118373604D01*
X104616936Y-118445345D01*
X104683655Y-118512064D01*
X104762108Y-118564485D01*
X104849281Y-118600593D01*
X104941823Y-118619000D01*
X105036177Y-118619000D01*
X105110000Y-118604316D01*
X105110000Y-118674087D01*
X105039177Y-118660000D01*
X104944823Y-118660000D01*
X104852281Y-118678407D01*
X104765108Y-118714515D01*
X104686655Y-118766936D01*
X104619936Y-118833655D01*
X104567515Y-118912108D01*
X104531407Y-118999281D01*
X104513000Y-119091823D01*
X104513000Y-119186177D01*
X104531407Y-119278719D01*
X104567515Y-119365892D01*
X104619936Y-119444345D01*
X104686655Y-119511064D01*
X104765108Y-119563485D01*
X104852281Y-119599593D01*
X104944823Y-119618000D01*
X105039177Y-119618000D01*
X105131719Y-119599593D01*
X105218892Y-119563485D01*
X105238813Y-119550174D01*
X107100010Y-119550174D01*
X107112457Y-119671394D01*
X107217677Y-119726930D01*
X107331711Y-119760871D01*
X107450176Y-119771913D01*
X107568517Y-119759632D01*
X107682189Y-119724500D01*
X107781543Y-119671394D01*
X107793990Y-119550174D01*
X109650010Y-119550174D01*
X109662457Y-119671394D01*
X109767677Y-119726930D01*
X109881711Y-119760871D01*
X110000176Y-119771913D01*
X110118517Y-119759632D01*
X110232189Y-119724500D01*
X110331543Y-119671394D01*
X110343990Y-119550174D01*
X109997000Y-119203184D01*
X109650010Y-119550174D01*
X107793990Y-119550174D01*
X107447000Y-119203184D01*
X107100010Y-119550174D01*
X105238813Y-119550174D01*
X105297345Y-119511064D01*
X105364064Y-119444345D01*
X105416485Y-119365892D01*
X105452593Y-119278719D01*
X105471000Y-119186177D01*
X105471000Y-119168176D01*
X106840087Y-119168176D01*
X106852368Y-119286517D01*
X106887500Y-119400189D01*
X106940606Y-119499543D01*
X107061826Y-119511990D01*
X107408816Y-119165000D01*
X107485184Y-119165000D01*
X107832174Y-119511990D01*
X107953394Y-119499543D01*
X108008930Y-119394323D01*
X108042871Y-119280289D01*
X108053320Y-119168176D01*
X109390087Y-119168176D01*
X109402368Y-119286517D01*
X109437500Y-119400189D01*
X109490606Y-119499543D01*
X109611826Y-119511990D01*
X109958816Y-119165000D01*
X110035184Y-119165000D01*
X110382174Y-119511990D01*
X110503394Y-119499543D01*
X110558930Y-119394323D01*
X110592871Y-119280289D01*
X110603913Y-119161824D01*
X110591632Y-119043483D01*
X110556500Y-118929811D01*
X110503394Y-118830457D01*
X110382174Y-118818010D01*
X110035184Y-119165000D01*
X109958816Y-119165000D01*
X109611826Y-118818010D01*
X109490606Y-118830457D01*
X109435070Y-118935677D01*
X109401129Y-119049711D01*
X109390087Y-119168176D01*
X108053320Y-119168176D01*
X108053913Y-119161824D01*
X108041632Y-119043483D01*
X108006500Y-118929811D01*
X107953394Y-118830457D01*
X107832174Y-118818010D01*
X107485184Y-119165000D01*
X107408816Y-119165000D01*
X107061826Y-118818010D01*
X106940606Y-118830457D01*
X106885070Y-118935677D01*
X106851129Y-119049711D01*
X106840087Y-119168176D01*
X105471000Y-119168176D01*
X105471000Y-119102913D01*
X105541823Y-119117000D01*
X105636177Y-119117000D01*
X105728719Y-119098593D01*
X105815892Y-119062485D01*
X105894345Y-119010064D01*
X105961064Y-118943345D01*
X106013485Y-118864892D01*
X106048720Y-118779826D01*
X107100010Y-118779826D01*
X107447000Y-119126816D01*
X107793990Y-118779826D01*
X109650010Y-118779826D01*
X109997000Y-119126816D01*
X110343990Y-118779826D01*
X110331543Y-118658606D01*
X110226323Y-118603070D01*
X110112289Y-118569129D01*
X109993824Y-118558087D01*
X109875483Y-118570368D01*
X109761811Y-118605500D01*
X109662457Y-118658606D01*
X109650010Y-118779826D01*
X107793990Y-118779826D01*
X107781543Y-118658606D01*
X107676323Y-118603070D01*
X107562289Y-118569129D01*
X107443824Y-118558087D01*
X107325483Y-118570368D01*
X107211811Y-118605500D01*
X107112457Y-118658606D01*
X107100010Y-118779826D01*
X106048720Y-118779826D01*
X106049593Y-118777719D01*
X106068000Y-118685177D01*
X106068000Y-118590823D01*
X106049593Y-118498281D01*
X106042729Y-118481709D01*
X106056711Y-118485871D01*
X106175176Y-118496913D01*
X106293517Y-118484632D01*
X106407189Y-118449500D01*
X106506543Y-118396394D01*
X106518990Y-118275174D01*
X108375010Y-118275174D01*
X108387457Y-118396394D01*
X108492677Y-118451930D01*
X108606711Y-118485871D01*
X108725176Y-118496913D01*
X108843517Y-118484632D01*
X108957189Y-118449500D01*
X109056543Y-118396394D01*
X109068990Y-118275174D01*
X108722000Y-117928184D01*
X108375010Y-118275174D01*
X106518990Y-118275174D01*
X106172000Y-117928184D01*
X106157858Y-117942326D01*
X106119674Y-117904142D01*
X106133816Y-117890000D01*
X106210184Y-117890000D01*
X106557174Y-118236990D01*
X106678394Y-118224543D01*
X106733930Y-118119323D01*
X106767871Y-118005289D01*
X106778320Y-117893176D01*
X108115087Y-117893176D01*
X108127368Y-118011517D01*
X108162500Y-118125189D01*
X108215606Y-118224543D01*
X108336826Y-118236990D01*
X108683816Y-117890000D01*
X108760184Y-117890000D01*
X109107174Y-118236990D01*
X109228394Y-118224543D01*
X109283930Y-118119323D01*
X109317871Y-118005289D01*
X109328320Y-117893176D01*
X110665087Y-117893176D01*
X110677368Y-118011517D01*
X110712500Y-118125189D01*
X110765606Y-118224543D01*
X110886826Y-118236990D01*
X111233816Y-117890000D01*
X110886826Y-117543010D01*
X110765606Y-117555457D01*
X110710070Y-117660677D01*
X110676129Y-117774711D01*
X110665087Y-117893176D01*
X109328320Y-117893176D01*
X109328913Y-117886824D01*
X109316632Y-117768483D01*
X109281500Y-117654811D01*
X109228394Y-117555457D01*
X109107174Y-117543010D01*
X108760184Y-117890000D01*
X108683816Y-117890000D01*
X108336826Y-117543010D01*
X108215606Y-117555457D01*
X108160070Y-117660677D01*
X108126129Y-117774711D01*
X108115087Y-117893176D01*
X106778320Y-117893176D01*
X106778913Y-117886824D01*
X106766632Y-117768483D01*
X106731500Y-117654811D01*
X106678394Y-117555457D01*
X106557174Y-117543010D01*
X106210184Y-117890000D01*
X106133816Y-117890000D01*
X106119674Y-117875858D01*
X106157858Y-117837674D01*
X106172000Y-117851816D01*
X106518990Y-117504826D01*
X108375010Y-117504826D01*
X108722000Y-117851816D01*
X109068990Y-117504826D01*
X109056543Y-117383606D01*
X108951323Y-117328070D01*
X108837289Y-117294129D01*
X108718824Y-117283087D01*
X108600483Y-117295368D01*
X108486811Y-117330500D01*
X108387457Y-117383606D01*
X108375010Y-117504826D01*
X106518990Y-117504826D01*
X106506543Y-117383606D01*
X106401323Y-117328070D01*
X106287289Y-117294129D01*
X106168824Y-117283087D01*
X106050483Y-117295368D01*
X105940705Y-117329296D01*
X105879345Y-117267936D01*
X105800892Y-117215515D01*
X105713719Y-117179407D01*
X105621177Y-117161000D01*
X105526823Y-117161000D01*
X105473000Y-117171706D01*
X105473000Y-117092823D01*
X105470715Y-117081337D01*
X105511400Y-117064485D01*
X105589853Y-117012064D01*
X105601743Y-117000174D01*
X107100010Y-117000174D01*
X107112457Y-117121394D01*
X107217677Y-117176930D01*
X107331711Y-117210871D01*
X107450176Y-117221913D01*
X107568517Y-117209632D01*
X107682189Y-117174500D01*
X107781543Y-117121394D01*
X107793990Y-117000174D01*
X109650010Y-117000174D01*
X109662457Y-117121394D01*
X109767677Y-117176930D01*
X109881711Y-117210871D01*
X110000176Y-117221913D01*
X110118517Y-117209632D01*
X110232189Y-117174500D01*
X110331543Y-117121394D01*
X110343990Y-117000174D01*
X109997000Y-116653184D01*
X109650010Y-117000174D01*
X107793990Y-117000174D01*
X107447000Y-116653184D01*
X107100010Y-117000174D01*
X105601743Y-117000174D01*
X105656572Y-116945345D01*
X105708993Y-116866892D01*
X105745101Y-116779719D01*
X105763508Y-116687177D01*
X105763508Y-116618176D01*
X106840087Y-116618176D01*
X106852368Y-116736517D01*
X106887500Y-116850189D01*
X106940606Y-116949543D01*
X107061826Y-116961990D01*
X107408816Y-116615000D01*
X107485184Y-116615000D01*
X107832174Y-116961990D01*
X107953394Y-116949543D01*
X108008930Y-116844323D01*
X108042871Y-116730289D01*
X108053320Y-116618176D01*
X109390087Y-116618176D01*
X109402368Y-116736517D01*
X109437500Y-116850189D01*
X109490606Y-116949543D01*
X109611826Y-116961990D01*
X109958816Y-116615000D01*
X110035184Y-116615000D01*
X110382174Y-116961990D01*
X110503394Y-116949543D01*
X110558930Y-116844323D01*
X110592871Y-116730289D01*
X110603913Y-116611824D01*
X110591632Y-116493483D01*
X110556500Y-116379811D01*
X110503394Y-116280457D01*
X110382174Y-116268010D01*
X110035184Y-116615000D01*
X109958816Y-116615000D01*
X109611826Y-116268010D01*
X109490606Y-116280457D01*
X109435070Y-116385677D01*
X109401129Y-116499711D01*
X109390087Y-116618176D01*
X108053320Y-116618176D01*
X108053913Y-116611824D01*
X108041632Y-116493483D01*
X108006500Y-116379811D01*
X107953394Y-116280457D01*
X107832174Y-116268010D01*
X107485184Y-116615000D01*
X107408816Y-116615000D01*
X107061826Y-116268010D01*
X106940606Y-116280457D01*
X106885070Y-116385677D01*
X106851129Y-116499711D01*
X106840087Y-116618176D01*
X105763508Y-116618176D01*
X105763508Y-116592823D01*
X105745101Y-116500281D01*
X105708993Y-116413108D01*
X105656572Y-116334655D01*
X105589853Y-116267936D01*
X105532818Y-116229826D01*
X107100010Y-116229826D01*
X107447000Y-116576816D01*
X107793990Y-116229826D01*
X109650010Y-116229826D01*
X109997000Y-116576816D01*
X110343990Y-116229826D01*
X110331543Y-116108606D01*
X110226323Y-116053070D01*
X110112289Y-116019129D01*
X109993824Y-116008087D01*
X109875483Y-116020368D01*
X109761811Y-116055500D01*
X109662457Y-116108606D01*
X109650010Y-116229826D01*
X107793990Y-116229826D01*
X107781543Y-116108606D01*
X107676323Y-116053070D01*
X107562289Y-116019129D01*
X107443824Y-116008087D01*
X107325483Y-116020368D01*
X107211811Y-116055500D01*
X107112457Y-116108606D01*
X107100010Y-116229826D01*
X105532818Y-116229826D01*
X105511400Y-116215515D01*
X105424227Y-116179407D01*
X105331685Y-116161000D01*
X105237331Y-116161000D01*
X105144789Y-116179407D01*
X105057616Y-116215515D01*
X104979163Y-116267936D01*
X104912444Y-116334655D01*
X104906024Y-116344263D01*
X104906024Y-116262823D01*
X104887617Y-116170281D01*
X104862539Y-116109737D01*
X104884485Y-116076892D01*
X104920593Y-115989719D01*
X104923453Y-115975342D01*
X104924655Y-115976544D01*
X105003108Y-116028965D01*
X105090281Y-116065073D01*
X105182823Y-116083480D01*
X105277177Y-116083480D01*
X105369719Y-116065073D01*
X105456892Y-116028965D01*
X105535345Y-115976544D01*
X105602064Y-115909825D01*
X105654485Y-115831372D01*
X105690593Y-115744199D01*
X105694376Y-115725174D01*
X105825010Y-115725174D01*
X105837457Y-115846394D01*
X105942677Y-115901930D01*
X106056711Y-115935871D01*
X106175176Y-115946913D01*
X106293517Y-115934632D01*
X106407189Y-115899500D01*
X106506543Y-115846394D01*
X106518990Y-115725174D01*
X108375010Y-115725174D01*
X108387457Y-115846394D01*
X108492677Y-115901930D01*
X108606711Y-115935871D01*
X108725176Y-115946913D01*
X108843517Y-115934632D01*
X108957189Y-115899500D01*
X109056543Y-115846394D01*
X109068990Y-115725174D01*
X110925010Y-115725174D01*
X110937457Y-115846394D01*
X111042677Y-115901930D01*
X111156711Y-115935871D01*
X111275176Y-115946913D01*
X111393517Y-115934632D01*
X111507189Y-115899500D01*
X111606543Y-115846394D01*
X111618990Y-115725174D01*
X111272000Y-115378184D01*
X110925010Y-115725174D01*
X109068990Y-115725174D01*
X108722000Y-115378184D01*
X108375010Y-115725174D01*
X106518990Y-115725174D01*
X106172000Y-115378184D01*
X105825010Y-115725174D01*
X105694376Y-115725174D01*
X105703670Y-115678451D01*
X105786826Y-115686990D01*
X106133816Y-115340000D01*
X106210184Y-115340000D01*
X106557174Y-115686990D01*
X106678394Y-115674543D01*
X106733930Y-115569323D01*
X106767871Y-115455289D01*
X106778320Y-115343176D01*
X108115087Y-115343176D01*
X108127368Y-115461517D01*
X108162500Y-115575189D01*
X108215606Y-115674543D01*
X108336826Y-115686990D01*
X108683816Y-115340000D01*
X108760184Y-115340000D01*
X109107174Y-115686990D01*
X109228394Y-115674543D01*
X109283930Y-115569323D01*
X109317871Y-115455289D01*
X109328913Y-115336824D01*
X109316632Y-115218483D01*
X109281500Y-115104811D01*
X109228394Y-115005457D01*
X109107174Y-114993010D01*
X108760184Y-115340000D01*
X108683816Y-115340000D01*
X108336826Y-114993010D01*
X108215606Y-115005457D01*
X108160070Y-115110677D01*
X108126129Y-115224711D01*
X108115087Y-115343176D01*
X106778320Y-115343176D01*
X106778913Y-115336824D01*
X106766632Y-115218483D01*
X106731500Y-115104811D01*
X106678394Y-115005457D01*
X106557174Y-114993010D01*
X106210184Y-115340000D01*
X106133816Y-115340000D01*
X105786826Y-114993010D01*
X105665606Y-115005457D01*
X105610070Y-115110677D01*
X105576129Y-115224711D01*
X105571995Y-115269066D01*
X105535345Y-115232416D01*
X105456892Y-115179995D01*
X105369719Y-115143887D01*
X105277177Y-115125480D01*
X105182823Y-115125480D01*
X105090281Y-115143887D01*
X105003108Y-115179995D01*
X104924655Y-115232416D01*
X104877500Y-115279571D01*
X104877500Y-114954826D01*
X105825010Y-114954826D01*
X106172000Y-115301816D01*
X106518990Y-114954826D01*
X108375010Y-114954826D01*
X108722000Y-115301816D01*
X109068990Y-114954826D01*
X109056543Y-114833606D01*
X108951323Y-114778070D01*
X108837289Y-114744129D01*
X108718824Y-114733087D01*
X108600483Y-114745368D01*
X108486811Y-114780500D01*
X108387457Y-114833606D01*
X108375010Y-114954826D01*
X106518990Y-114954826D01*
X106506543Y-114833606D01*
X106401323Y-114778070D01*
X106287289Y-114744129D01*
X106168824Y-114733087D01*
X106050483Y-114745368D01*
X105936811Y-114780500D01*
X105837457Y-114833606D01*
X105825010Y-114954826D01*
X104877500Y-114954826D01*
X104877500Y-114607397D01*
X104945345Y-114562064D01*
X105012064Y-114495345D01*
X105064485Y-114416892D01*
X105100593Y-114329719D01*
X105119000Y-114237177D01*
X105119000Y-114142823D01*
X105100593Y-114050281D01*
X105064485Y-113963108D01*
X105012064Y-113884655D01*
X104945345Y-113817936D01*
X104866892Y-113765515D01*
X104779719Y-113729407D01*
X104687177Y-113711000D01*
X104592823Y-113711000D01*
X104500281Y-113729407D01*
X104413108Y-113765515D01*
X104334655Y-113817936D01*
X104267936Y-113884655D01*
X104215515Y-113963108D01*
X104190107Y-114024450D01*
X104116892Y-113975529D01*
X104029719Y-113939421D01*
X103937177Y-113921014D01*
X103842823Y-113921014D01*
X103750281Y-113939421D01*
X103663108Y-113975529D01*
X103584655Y-114027950D01*
X103517936Y-114094669D01*
X103465515Y-114173122D01*
X103429407Y-114260295D01*
X103411000Y-114352837D01*
X103411000Y-114447191D01*
X103429407Y-114539733D01*
X103465515Y-114626906D01*
X103517936Y-114705359D01*
X103584655Y-114772078D01*
X103663108Y-114824499D01*
X103750281Y-114860607D01*
X103842823Y-114879014D01*
X103937177Y-114879014D01*
X104029719Y-114860607D01*
X104042501Y-114855313D01*
X104042500Y-115612654D01*
X104035515Y-115623108D01*
X103999407Y-115710281D01*
X103981000Y-115802823D01*
X103981000Y-115897177D01*
X103999407Y-115989719D01*
X104023323Y-116047457D01*
X103998064Y-116009655D01*
X103931345Y-115942936D01*
X103852892Y-115890515D01*
X103765719Y-115854407D01*
X103673177Y-115836000D01*
X103578823Y-115836000D01*
X103486281Y-115854407D01*
X103399108Y-115890515D01*
X103320655Y-115942936D01*
X103253936Y-116009655D01*
X103201515Y-116088108D01*
X103165407Y-116175281D01*
X103147000Y-116267823D01*
X103147000Y-116362177D01*
X103165407Y-116454719D01*
X103201515Y-116541892D01*
X103253936Y-116620345D01*
X103320655Y-116687064D01*
X103399108Y-116739485D01*
X103486281Y-116775593D01*
X103578823Y-116794000D01*
X103673177Y-116794000D01*
X103765719Y-116775593D01*
X103852892Y-116739485D01*
X103931345Y-116687064D01*
X103998064Y-116620345D01*
X104028182Y-116575270D01*
X104054960Y-116615345D01*
X104121679Y-116682064D01*
X104200132Y-116734485D01*
X104287305Y-116770593D01*
X104379847Y-116789000D01*
X104474201Y-116789000D01*
X104566743Y-116770593D01*
X104653916Y-116734485D01*
X104732369Y-116682064D01*
X104799088Y-116615345D01*
X104805508Y-116605737D01*
X104805508Y-116687177D01*
X104807793Y-116698663D01*
X104767108Y-116715515D01*
X104688655Y-116767936D01*
X104621936Y-116834655D01*
X104569515Y-116913108D01*
X104533407Y-117000281D01*
X104515000Y-117092823D01*
X104515000Y-117187177D01*
X104533407Y-117279719D01*
X104569515Y-117366892D01*
X104621936Y-117445345D01*
X104688655Y-117512064D01*
X104767108Y-117564485D01*
X104854281Y-117600593D01*
X104946823Y-117619000D01*
X105041177Y-117619000D01*
X105095000Y-117608294D01*
X105095000Y-117672700D01*
X105036177Y-117661000D01*
X104941823Y-117661000D01*
X104849281Y-117679407D01*
X104762108Y-117715515D01*
X104683655Y-117767936D01*
X104616936Y-117834655D01*
X104564515Y-117913108D01*
X104528407Y-118000281D01*
X104510000Y-118092823D01*
X104510000Y-118166396D01*
X104462064Y-118094655D01*
X104395345Y-118027936D01*
X104316892Y-117975515D01*
X104229719Y-117939407D01*
X104137177Y-117921000D01*
X104042823Y-117921000D01*
X103950281Y-117939407D01*
X103863108Y-117975515D01*
X103784655Y-118027936D01*
X103717936Y-118094655D01*
X103665515Y-118173108D01*
X103629407Y-118260281D01*
X103624122Y-118286850D01*
X103594260Y-118266896D01*
X103488888Y-118223250D01*
X103485973Y-118222670D01*
X103468265Y-118133644D01*
X103424619Y-118028272D01*
X103361254Y-117933441D01*
X103280606Y-117852793D01*
X103185775Y-117789428D01*
X103080403Y-117745782D01*
X102968542Y-117723532D01*
X102918516Y-117723532D01*
X103010378Y-117705260D01*
X103115750Y-117661614D01*
X103210581Y-117598249D01*
X103291229Y-117517601D01*
X103354594Y-117422770D01*
X103398240Y-117317398D01*
X103420490Y-117205537D01*
X103420490Y-117091483D01*
X103398240Y-116979622D01*
X103354594Y-116874250D01*
X103291229Y-116779419D01*
X103210581Y-116698771D01*
X103115750Y-116635406D01*
X103081500Y-116621219D01*
X103081500Y-115909498D01*
X103083519Y-115888999D01*
X103081500Y-115868500D01*
X103081500Y-115868491D01*
X103075459Y-115807156D01*
X103051586Y-115728457D01*
X103012818Y-115655927D01*
X102960645Y-115592355D01*
X102944712Y-115579279D01*
X102744158Y-115378724D01*
X102731086Y-115362796D01*
X102707180Y-115343176D01*
X102701927Y-115338866D01*
X102667514Y-115310623D01*
X102594984Y-115271855D01*
X102516285Y-115247982D01*
X102454950Y-115241941D01*
X102454943Y-115241941D01*
X102434441Y-115239922D01*
X102413939Y-115241941D01*
X102266493Y-115241941D01*
X102185231Y-115175250D01*
X102084646Y-115121486D01*
X101997777Y-115095135D01*
X102004808Y-115086568D01*
X102058572Y-114985983D01*
X102091680Y-114876841D01*
X102102859Y-114763337D01*
X102091680Y-114649833D01*
X102058572Y-114540691D01*
X102004808Y-114440106D01*
X101932453Y-114351942D01*
X101844289Y-114279587D01*
X101743704Y-114225823D01*
X101634562Y-114192715D01*
X101549497Y-114184337D01*
X101549091Y-114184337D01*
X101520662Y-114181537D01*
X101492233Y-114184337D01*
X101492224Y-114184337D01*
X101407159Y-114192715D01*
X101298017Y-114225823D01*
X101197432Y-114279587D01*
X101109268Y-114351942D01*
X101091138Y-114374034D01*
X101072976Y-114392195D01*
X101018750Y-114458269D01*
X100977397Y-114535635D01*
X100935208Y-114472495D01*
X100767505Y-114304792D01*
X100570308Y-114173029D01*
X100351194Y-114082269D01*
X100118584Y-114036000D01*
X99881416Y-114036000D01*
X99648806Y-114082269D01*
X99429692Y-114173029D01*
X99232495Y-114304792D01*
X99109000Y-114428287D01*
X99109000Y-113511713D01*
X99232495Y-113635208D01*
X99429692Y-113766971D01*
X99648806Y-113857731D01*
X99881416Y-113904000D01*
X100118584Y-113904000D01*
X100351194Y-113857731D01*
X100570308Y-113766971D01*
X100767505Y-113635208D01*
X100935208Y-113467505D01*
X101066971Y-113270308D01*
X101157731Y-113051194D01*
X101204000Y-112818584D01*
X101204000Y-112581416D01*
X101157731Y-112348806D01*
X101066971Y-112129692D01*
X100935208Y-111932495D01*
X100829430Y-111826717D01*
X100851626Y-111817524D01*
X100884760Y-111831248D01*
X100977302Y-111849655D01*
X101071656Y-111849655D01*
X101164198Y-111831248D01*
X101251371Y-111795140D01*
X101329824Y-111742719D01*
X101396543Y-111676000D01*
X101448964Y-111597547D01*
X101485072Y-111510374D01*
X101503479Y-111417832D01*
X101503479Y-111323478D01*
X101485072Y-111230936D01*
X101448964Y-111143763D01*
X101396543Y-111065310D01*
X101329824Y-110998591D01*
X101251371Y-110946170D01*
X101164198Y-110910062D01*
X101071656Y-110891655D01*
X100977302Y-110891655D01*
X100956382Y-110895816D01*
X101066971Y-110730308D01*
X101157731Y-110511194D01*
X101204000Y-110278584D01*
X101204000Y-110041416D01*
X101169578Y-109868365D01*
X101251371Y-109834485D01*
X101329824Y-109782064D01*
X101396543Y-109715345D01*
X101448964Y-109636892D01*
X101485072Y-109549719D01*
X101503479Y-109457177D01*
X101503479Y-109362823D01*
X101488995Y-109290000D01*
X102270000Y-109290000D01*
X102270000Y-111050000D01*
X102271921Y-111069509D01*
X102277612Y-111088268D01*
X102286853Y-111105557D01*
X102299289Y-111120711D01*
X102314443Y-111133147D01*
X102331732Y-111142388D01*
X102350491Y-111148079D01*
X102370000Y-111150000D01*
X102924832Y-111150000D01*
X102892407Y-111228281D01*
X102874000Y-111320823D01*
X102874000Y-111415177D01*
X102892407Y-111507719D01*
X102928515Y-111594892D01*
X102980936Y-111673345D01*
X103047655Y-111740064D01*
X103113039Y-111783752D01*
X102419099Y-111790004D01*
X102400491Y-111791921D01*
X102381732Y-111797612D01*
X102364443Y-111806853D01*
X102349289Y-111819289D01*
X102336853Y-111834443D01*
X102327612Y-111851732D01*
X102321921Y-111870491D01*
X102320000Y-111890000D01*
X102320000Y-113650000D01*
X102321921Y-113669509D01*
X102327612Y-113688268D01*
X102336853Y-113705557D01*
X102349289Y-113720711D01*
X102364443Y-113733147D01*
X102381732Y-113742388D01*
X102400491Y-113748079D01*
X102420000Y-113750000D01*
X103540000Y-113750000D01*
X103560063Y-113747967D01*
X103578790Y-113742170D01*
X103596026Y-113732832D01*
X103611109Y-113720310D01*
X103623460Y-113705086D01*
X103632603Y-113687746D01*
X103638187Y-113668955D01*
X103639998Y-113649435D01*
X103634650Y-112702823D01*
X107709078Y-112702823D01*
X107709078Y-112797177D01*
X107727485Y-112889719D01*
X107763593Y-112976892D01*
X107816014Y-113055345D01*
X107830868Y-113070199D01*
X107795515Y-113123108D01*
X107759407Y-113210281D01*
X107741000Y-113302823D01*
X107741000Y-113397177D01*
X107759407Y-113489719D01*
X107795515Y-113576892D01*
X107847936Y-113655345D01*
X107914655Y-113722064D01*
X107993108Y-113774485D01*
X108080281Y-113810593D01*
X108172823Y-113829000D01*
X108267177Y-113829000D01*
X108359719Y-113810593D01*
X108446892Y-113774485D01*
X108525345Y-113722064D01*
X108542414Y-113704995D01*
X108612823Y-113719000D01*
X108707177Y-113719000D01*
X108799719Y-113700593D01*
X108886892Y-113664485D01*
X108965345Y-113612064D01*
X109032064Y-113545345D01*
X109039533Y-113534166D01*
X109065515Y-113596892D01*
X109117936Y-113675345D01*
X109184655Y-113742064D01*
X109246626Y-113783472D01*
X109244108Y-113784515D01*
X109165655Y-113836936D01*
X109098936Y-113903655D01*
X109046515Y-113982108D01*
X109010407Y-114069281D01*
X108992000Y-114161823D01*
X108992000Y-114256177D01*
X109010407Y-114348719D01*
X109046515Y-114435892D01*
X109098936Y-114514345D01*
X109165655Y-114581064D01*
X109244108Y-114633485D01*
X109331281Y-114669593D01*
X109423823Y-114688000D01*
X109492000Y-114688000D01*
X109492000Y-114752177D01*
X109510407Y-114844719D01*
X109546515Y-114931892D01*
X109598936Y-115010345D01*
X109665655Y-115077064D01*
X109744108Y-115129485D01*
X109831281Y-115165593D01*
X109923823Y-115184000D01*
X110018177Y-115184000D01*
X110110719Y-115165593D01*
X110197892Y-115129485D01*
X110276345Y-115077064D01*
X110343064Y-115010345D01*
X110395485Y-114931892D01*
X110431593Y-114844719D01*
X110450000Y-114752177D01*
X110450000Y-114659000D01*
X110492000Y-114659000D01*
X110492000Y-114753177D01*
X110510407Y-114845719D01*
X110546515Y-114932892D01*
X110598936Y-115011345D01*
X110665655Y-115078064D01*
X110711215Y-115108507D01*
X110710070Y-115110677D01*
X110676129Y-115224711D01*
X110665087Y-115343176D01*
X110677368Y-115461517D01*
X110712500Y-115575189D01*
X110765606Y-115674543D01*
X110886826Y-115686990D01*
X111233816Y-115340000D01*
X111310184Y-115340000D01*
X111657174Y-115686990D01*
X111778394Y-115674543D01*
X111833930Y-115569323D01*
X111867871Y-115455289D01*
X111878913Y-115336824D01*
X111866632Y-115218483D01*
X111831500Y-115104811D01*
X111778394Y-115005457D01*
X111657174Y-114993010D01*
X111310184Y-115340000D01*
X111233816Y-115340000D01*
X111219674Y-115325858D01*
X111257858Y-115287674D01*
X111272000Y-115301816D01*
X111618990Y-114954826D01*
X111606543Y-114833606D01*
X111501323Y-114778070D01*
X111448194Y-114762257D01*
X111450000Y-114753177D01*
X111450000Y-114658823D01*
X111431593Y-114566281D01*
X111395485Y-114479108D01*
X111343064Y-114400655D01*
X111276345Y-114333936D01*
X111197892Y-114281515D01*
X111110719Y-114245407D01*
X111018177Y-114227000D01*
X110950000Y-114227000D01*
X110950000Y-114132823D01*
X110931593Y-114040281D01*
X110895485Y-113953108D01*
X110843064Y-113874655D01*
X110776345Y-113807936D01*
X110697892Y-113755515D01*
X110610719Y-113719407D01*
X110518177Y-113701000D01*
X110423823Y-113701000D01*
X110331281Y-113719407D01*
X110244108Y-113755515D01*
X110165655Y-113807936D01*
X110098936Y-113874655D01*
X110046515Y-113953108D01*
X110010407Y-114040281D01*
X109992000Y-114132823D01*
X109992000Y-114226000D01*
X109950000Y-114226000D01*
X109950000Y-114161823D01*
X109931593Y-114069281D01*
X109895485Y-113982108D01*
X109843064Y-113903655D01*
X109776345Y-113836936D01*
X109714374Y-113795528D01*
X109716892Y-113794485D01*
X109795345Y-113742064D01*
X109862064Y-113675345D01*
X109914485Y-113596892D01*
X109950593Y-113509719D01*
X109969000Y-113417177D01*
X109969000Y-113386671D01*
X111882133Y-113386671D01*
X111882133Y-113535195D01*
X111911109Y-113680867D01*
X111967947Y-113818086D01*
X112050463Y-113941580D01*
X112155486Y-114046603D01*
X112161862Y-114050863D01*
X112135250Y-114115112D01*
X112113000Y-114226973D01*
X112113000Y-114341027D01*
X112135250Y-114452888D01*
X112178896Y-114558260D01*
X112242261Y-114653091D01*
X112322909Y-114733739D01*
X112417740Y-114797104D01*
X112523112Y-114840750D01*
X112634973Y-114863000D01*
X112749027Y-114863000D01*
X112860888Y-114840750D01*
X112966260Y-114797104D01*
X113061091Y-114733739D01*
X113141739Y-114653091D01*
X113205104Y-114558260D01*
X113248750Y-114452888D01*
X113271000Y-114341027D01*
X113271000Y-114226973D01*
X113248750Y-114115112D01*
X113205104Y-114009740D01*
X113184491Y-113978892D01*
X113221803Y-113941580D01*
X113304319Y-113818086D01*
X113316177Y-113789458D01*
X113372875Y-113827343D01*
X113469147Y-113867220D01*
X113571349Y-113887549D01*
X113675553Y-113887549D01*
X113777755Y-113867220D01*
X113874027Y-113827343D01*
X113960669Y-113769450D01*
X114034352Y-113695767D01*
X114092245Y-113609125D01*
X114132122Y-113512853D01*
X114152451Y-113410651D01*
X114152451Y-113306447D01*
X114132122Y-113204245D01*
X114092245Y-113107973D01*
X114034352Y-113021331D01*
X113960669Y-112947648D01*
X113874027Y-112889755D01*
X113777755Y-112849878D01*
X113675553Y-112829549D01*
X113571349Y-112829549D01*
X113469147Y-112849878D01*
X113372875Y-112889755D01*
X113286233Y-112947648D01*
X113234537Y-112999344D01*
X113221803Y-112980286D01*
X113116780Y-112875263D01*
X112993286Y-112792747D01*
X112856067Y-112735909D01*
X112710395Y-112706933D01*
X112561871Y-112706933D01*
X112416199Y-112735909D01*
X112278980Y-112792747D01*
X112155486Y-112875263D01*
X112050463Y-112980286D01*
X111967947Y-113103780D01*
X111911109Y-113240999D01*
X111882133Y-113386671D01*
X109969000Y-113386671D01*
X109969000Y-113322823D01*
X109950593Y-113230281D01*
X109914485Y-113143108D01*
X109874022Y-113082551D01*
X109884485Y-113066892D01*
X109920593Y-112979719D01*
X109939000Y-112887177D01*
X109939000Y-112792823D01*
X109920593Y-112700281D01*
X109884485Y-112613108D01*
X109832064Y-112534655D01*
X109765345Y-112467936D01*
X109686892Y-112415515D01*
X109599719Y-112379407D01*
X109507177Y-112361000D01*
X109412823Y-112361000D01*
X109320281Y-112379407D01*
X109233108Y-112415515D01*
X109154655Y-112467936D01*
X109087936Y-112534655D01*
X109035515Y-112613108D01*
X108999407Y-112700281D01*
X108981000Y-112792823D01*
X108981000Y-112883591D01*
X108965345Y-112867936D01*
X108886892Y-112815515D01*
X108799719Y-112779407D01*
X108707177Y-112761000D01*
X108667078Y-112761000D01*
X108667078Y-112702823D01*
X108648671Y-112610281D01*
X108612563Y-112523108D01*
X108560142Y-112444655D01*
X108493423Y-112377936D01*
X108414970Y-112325515D01*
X108327797Y-112289407D01*
X108235255Y-112271000D01*
X108140901Y-112271000D01*
X108048359Y-112289407D01*
X107961186Y-112325515D01*
X107882733Y-112377936D01*
X107816014Y-112444655D01*
X107763593Y-112523108D01*
X107727485Y-112610281D01*
X107709078Y-112702823D01*
X103634650Y-112702823D01*
X103632108Y-112252823D01*
X110221000Y-112252823D01*
X110221000Y-112347177D01*
X110239407Y-112439719D01*
X110275515Y-112526892D01*
X110327936Y-112605345D01*
X110394655Y-112672064D01*
X110473108Y-112724485D01*
X110560281Y-112760593D01*
X110652823Y-112779000D01*
X110747177Y-112779000D01*
X110839719Y-112760593D01*
X110926892Y-112724485D01*
X111005345Y-112672064D01*
X111070800Y-112606609D01*
X111082515Y-112634892D01*
X111134936Y-112713345D01*
X111201655Y-112780064D01*
X111280108Y-112832485D01*
X111367281Y-112868593D01*
X111459823Y-112887000D01*
X111554177Y-112887000D01*
X111646719Y-112868593D01*
X111733892Y-112832485D01*
X111812345Y-112780064D01*
X111879064Y-112713345D01*
X111931485Y-112634892D01*
X111967593Y-112547719D01*
X111986000Y-112455177D01*
X111986000Y-112360823D01*
X111967593Y-112268281D01*
X111931485Y-112181108D01*
X111879064Y-112102655D01*
X111812345Y-112035936D01*
X111733892Y-111983515D01*
X111646719Y-111947407D01*
X111554177Y-111929000D01*
X111459823Y-111929000D01*
X111367281Y-111947407D01*
X111280108Y-111983515D01*
X111201655Y-112035936D01*
X111136200Y-112101391D01*
X111124485Y-112073108D01*
X111072064Y-111994655D01*
X111005345Y-111927936D01*
X110926892Y-111875515D01*
X110839719Y-111839407D01*
X110747177Y-111821000D01*
X110652823Y-111821000D01*
X110560281Y-111839407D01*
X110473108Y-111875515D01*
X110394655Y-111927936D01*
X110327936Y-111994655D01*
X110275515Y-112073108D01*
X110239407Y-112160281D01*
X110221000Y-112252823D01*
X103632108Y-112252823D01*
X103629998Y-111879435D01*
X103627899Y-111859608D01*
X103622039Y-111840901D01*
X103612643Y-111823696D01*
X103600071Y-111808655D01*
X103584806Y-111796356D01*
X103578504Y-111793060D01*
X103579892Y-111792485D01*
X103658345Y-111740064D01*
X103725064Y-111673345D01*
X103777485Y-111594892D01*
X103813593Y-111507719D01*
X103832000Y-111415177D01*
X103832000Y-111320823D01*
X103813593Y-111228281D01*
X103777485Y-111141108D01*
X103771950Y-111132823D01*
X105851000Y-111132823D01*
X105851000Y-111227177D01*
X105869407Y-111319719D01*
X105905515Y-111406892D01*
X105957936Y-111485345D01*
X106024655Y-111552064D01*
X106103108Y-111604485D01*
X106190281Y-111640593D01*
X106282823Y-111659000D01*
X106377177Y-111659000D01*
X106469719Y-111640593D01*
X106520766Y-111619449D01*
X106544018Y-111642701D01*
X106622471Y-111695122D01*
X106709644Y-111731230D01*
X106802186Y-111749637D01*
X106896540Y-111749637D01*
X106989082Y-111731230D01*
X107076255Y-111695122D01*
X107154708Y-111642701D01*
X107221427Y-111575982D01*
X107273848Y-111497529D01*
X107309956Y-111410356D01*
X107328363Y-111317814D01*
X107328363Y-111223460D01*
X107309956Y-111130918D01*
X107273848Y-111043745D01*
X107221427Y-110965292D01*
X107154708Y-110898573D01*
X107076255Y-110846152D01*
X106989082Y-110810044D01*
X106896540Y-110791637D01*
X106802186Y-110791637D01*
X106709644Y-110810044D01*
X106658597Y-110831188D01*
X106635345Y-110807936D01*
X106556892Y-110755515D01*
X106469719Y-110719407D01*
X106397287Y-110705000D01*
X106486102Y-110705000D01*
X106588304Y-110684671D01*
X106684576Y-110644794D01*
X106771218Y-110586901D01*
X106844901Y-110513218D01*
X106902794Y-110426576D01*
X106942671Y-110330304D01*
X106963000Y-110228102D01*
X106963000Y-110123898D01*
X106942671Y-110021696D01*
X106902794Y-109925424D01*
X106844901Y-109838782D01*
X106771218Y-109765099D01*
X106684576Y-109707206D01*
X106588304Y-109667329D01*
X106486102Y-109647000D01*
X106381898Y-109647000D01*
X106279696Y-109667329D01*
X106183424Y-109707206D01*
X106096782Y-109765099D01*
X106023099Y-109838782D01*
X105965206Y-109925424D01*
X105925329Y-110021696D01*
X105905000Y-110123898D01*
X105905000Y-110228102D01*
X105925329Y-110330304D01*
X105965206Y-110426576D01*
X106023099Y-110513218D01*
X106096782Y-110586901D01*
X106183424Y-110644794D01*
X106279696Y-110684671D01*
X106361788Y-110701000D01*
X106282823Y-110701000D01*
X106190281Y-110719407D01*
X106103108Y-110755515D01*
X106024655Y-110807936D01*
X105957936Y-110874655D01*
X105905515Y-110953108D01*
X105869407Y-111040281D01*
X105851000Y-111132823D01*
X103771950Y-111132823D01*
X103725064Y-111062655D01*
X103658345Y-110995936D01*
X103589436Y-110949892D01*
X103579998Y-109279435D01*
X103577899Y-109259608D01*
X103572039Y-109240901D01*
X103562643Y-109223696D01*
X103550071Y-109208655D01*
X103534806Y-109196356D01*
X103517435Y-109187271D01*
X103498625Y-109181750D01*
X103479099Y-109180004D01*
X102369099Y-109190004D01*
X102350491Y-109191921D01*
X102331732Y-109197612D01*
X102314443Y-109206853D01*
X102299289Y-109219289D01*
X102286853Y-109234443D01*
X102277612Y-109251732D01*
X102271921Y-109270491D01*
X102270000Y-109290000D01*
X101488995Y-109290000D01*
X101485072Y-109270281D01*
X101448964Y-109183108D01*
X101438250Y-109167074D01*
X101509091Y-109119739D01*
X101589739Y-109039091D01*
X101653104Y-108944260D01*
X101696750Y-108838888D01*
X101719000Y-108727027D01*
X101719000Y-108612973D01*
X101696750Y-108501112D01*
X101653104Y-108395740D01*
X101589739Y-108300909D01*
X101522803Y-108233973D01*
X102943000Y-108233973D01*
X102943000Y-108348027D01*
X102965250Y-108459888D01*
X103008896Y-108565260D01*
X103072261Y-108660091D01*
X103152909Y-108740739D01*
X103247740Y-108804104D01*
X103353112Y-108847750D01*
X103464973Y-108870000D01*
X103579027Y-108870000D01*
X103690888Y-108847750D01*
X103796260Y-108804104D01*
X103891091Y-108740739D01*
X103914857Y-108716973D01*
X104528000Y-108716973D01*
X104528000Y-108831027D01*
X104550250Y-108942888D01*
X104593896Y-109048260D01*
X104657261Y-109143091D01*
X104737909Y-109223739D01*
X104832740Y-109287104D01*
X104938112Y-109330750D01*
X105049973Y-109353000D01*
X105164027Y-109353000D01*
X105275888Y-109330750D01*
X105381260Y-109287104D01*
X105476091Y-109223739D01*
X105556739Y-109143091D01*
X105620104Y-109048260D01*
X105663750Y-108942888D01*
X105686000Y-108831027D01*
X105686000Y-108716973D01*
X105663750Y-108605112D01*
X105620104Y-108499740D01*
X105556739Y-108404909D01*
X105476091Y-108324261D01*
X105381260Y-108260896D01*
X105275888Y-108217250D01*
X105164027Y-108195000D01*
X105049973Y-108195000D01*
X104938112Y-108217250D01*
X104832740Y-108260896D01*
X104737909Y-108324261D01*
X104657261Y-108404909D01*
X104593896Y-108499740D01*
X104550250Y-108605112D01*
X104528000Y-108716973D01*
X103914857Y-108716973D01*
X103971739Y-108660091D01*
X104035104Y-108565260D01*
X104078750Y-108459888D01*
X104101000Y-108348027D01*
X104101000Y-108233973D01*
X104078750Y-108122112D01*
X104035104Y-108016740D01*
X103971739Y-107921909D01*
X103891091Y-107841261D01*
X103796260Y-107777896D01*
X103690888Y-107734250D01*
X103633440Y-107722823D01*
X106461000Y-107722823D01*
X106461000Y-107817177D01*
X106479407Y-107909719D01*
X106515515Y-107996892D01*
X106567936Y-108075345D01*
X106634655Y-108142064D01*
X106713108Y-108194485D01*
X106800281Y-108230593D01*
X106892823Y-108249000D01*
X106987177Y-108249000D01*
X107079719Y-108230593D01*
X107166892Y-108194485D01*
X107245345Y-108142064D01*
X107312064Y-108075345D01*
X107364485Y-107996892D01*
X107400593Y-107909719D01*
X107419000Y-107817177D01*
X107419000Y-107722823D01*
X107400593Y-107630281D01*
X107364485Y-107543108D01*
X107312064Y-107464655D01*
X107245345Y-107397936D01*
X107166892Y-107345515D01*
X107079719Y-107309407D01*
X106987177Y-107291000D01*
X106892823Y-107291000D01*
X106800281Y-107309407D01*
X106713108Y-107345515D01*
X106634655Y-107397936D01*
X106567936Y-107464655D01*
X106515515Y-107543108D01*
X106479407Y-107630281D01*
X106461000Y-107722823D01*
X103633440Y-107722823D01*
X103579027Y-107712000D01*
X103464973Y-107712000D01*
X103353112Y-107734250D01*
X103247740Y-107777896D01*
X103152909Y-107841261D01*
X103072261Y-107921909D01*
X103008896Y-108016740D01*
X102965250Y-108122112D01*
X102943000Y-108233973D01*
X101522803Y-108233973D01*
X101509091Y-108220261D01*
X101414260Y-108156896D01*
X101308888Y-108113250D01*
X101197027Y-108091000D01*
X101113222Y-108091000D01*
X101182408Y-107876104D01*
X101209653Y-107640507D01*
X101190410Y-107404122D01*
X101125421Y-107176032D01*
X101017182Y-106965005D01*
X100994396Y-106930903D01*
X100811759Y-106846424D01*
X100038184Y-107620000D01*
X100052326Y-107634142D01*
X100014142Y-107672326D01*
X100000000Y-107658184D01*
X99226424Y-108431759D01*
X99310903Y-108614396D01*
X99518140Y-108729726D01*
X99743896Y-108802408D01*
X99979493Y-108829653D01*
X100215878Y-108810410D01*
X100443968Y-108745421D01*
X100561000Y-108685393D01*
X100561000Y-108727027D01*
X100583250Y-108838888D01*
X100626896Y-108944260D01*
X100690261Y-109039091D01*
X100704120Y-109052950D01*
X100652415Y-109104655D01*
X100632442Y-109134546D01*
X100570308Y-109093029D01*
X100351194Y-109002269D01*
X100118584Y-108956000D01*
X99881416Y-108956000D01*
X99648806Y-109002269D01*
X99429692Y-109093029D01*
X99232495Y-109224792D01*
X99109000Y-109348287D01*
X99109000Y-108356923D01*
X99188241Y-108393576D01*
X99961816Y-107620000D01*
X99188241Y-106846424D01*
X99109000Y-106883077D01*
X99109000Y-106808241D01*
X99226424Y-106808241D01*
X100000000Y-107581816D01*
X100773576Y-106808241D01*
X100689097Y-106625604D01*
X100481860Y-106510274D01*
X100256104Y-106437592D01*
X100020507Y-106410347D01*
X99784122Y-106429590D01*
X99556032Y-106494579D01*
X99345005Y-106602818D01*
X99310903Y-106625604D01*
X99226424Y-106808241D01*
X99109000Y-106808241D01*
X99109000Y-105881870D01*
X99163103Y-105945575D01*
X99348049Y-106092214D01*
X99558049Y-106199954D01*
X99785033Y-106264655D01*
X99973000Y-106195198D01*
X99973000Y-105107000D01*
X100027000Y-105107000D01*
X100027000Y-106195198D01*
X100214967Y-106264655D01*
X100441951Y-106199954D01*
X100651951Y-106092214D01*
X100836897Y-105945575D01*
X100989682Y-105765673D01*
X101104434Y-105559421D01*
X101176743Y-105334745D01*
X101184654Y-105294967D01*
X101115173Y-105107000D01*
X100027000Y-105107000D01*
X99973000Y-105107000D01*
X99953000Y-105107000D01*
X99953000Y-105053000D01*
X99973000Y-105053000D01*
X99973000Y-103964802D01*
X100027000Y-103964802D01*
X100027000Y-105053000D01*
X101115173Y-105053000D01*
X101149026Y-104961416D01*
X101336000Y-104961416D01*
X101336000Y-105198584D01*
X101382269Y-105431194D01*
X101473029Y-105650308D01*
X101604792Y-105847505D01*
X101772495Y-106015208D01*
X101969692Y-106146971D01*
X102188806Y-106237731D01*
X102421416Y-106284000D01*
X102658584Y-106284000D01*
X102891194Y-106237731D01*
X103110308Y-106146971D01*
X103307505Y-106015208D01*
X103475208Y-105847505D01*
X103606971Y-105650308D01*
X103697731Y-105431194D01*
X103744000Y-105198584D01*
X103744000Y-104961416D01*
X103876000Y-104961416D01*
X103876000Y-105198584D01*
X103922269Y-105431194D01*
X104013029Y-105650308D01*
X104144792Y-105847505D01*
X104312495Y-106015208D01*
X104509692Y-106146971D01*
X104728806Y-106237731D01*
X104961416Y-106284000D01*
X105198584Y-106284000D01*
X105431194Y-106237731D01*
X105650308Y-106146971D01*
X105847505Y-106015208D01*
X106015208Y-105847505D01*
X106146971Y-105650308D01*
X106237731Y-105431194D01*
X106284000Y-105198584D01*
X106284000Y-104961416D01*
X106416000Y-104961416D01*
X106416000Y-105198584D01*
X106462269Y-105431194D01*
X106553029Y-105650308D01*
X106684792Y-105847505D01*
X106852495Y-106015208D01*
X107049692Y-106146971D01*
X107268806Y-106237731D01*
X107482221Y-106280182D01*
X107480508Y-106285828D01*
X107468846Y-106404232D01*
X107471768Y-106433899D01*
X107471769Y-111397136D01*
X107480509Y-111485874D01*
X107515046Y-111599728D01*
X107571132Y-111704657D01*
X107646610Y-111796628D01*
X107738581Y-111872106D01*
X107843510Y-111928192D01*
X107957364Y-111962729D01*
X108075768Y-111974391D01*
X108194173Y-111962729D01*
X108308027Y-111928192D01*
X108412956Y-111872106D01*
X108504927Y-111796628D01*
X108580405Y-111704657D01*
X108636491Y-111599728D01*
X108671028Y-111485874D01*
X108679768Y-111397136D01*
X108679768Y-106798598D01*
X108750909Y-106869739D01*
X108845740Y-106933104D01*
X108951112Y-106976750D01*
X109062973Y-106999000D01*
X109064019Y-106999000D01*
X109281001Y-107215983D01*
X109281000Y-110298611D01*
X109278828Y-110320664D01*
X109281000Y-110342716D01*
X109284986Y-110383191D01*
X109196652Y-110442215D01*
X109116004Y-110522863D01*
X109052639Y-110617694D01*
X109008993Y-110723066D01*
X108986743Y-110834927D01*
X108986743Y-110948981D01*
X109008993Y-111060842D01*
X109052639Y-111166214D01*
X109116004Y-111261045D01*
X109196652Y-111341693D01*
X109291483Y-111405058D01*
X109396855Y-111448704D01*
X109508716Y-111470954D01*
X109622770Y-111470954D01*
X109734631Y-111448704D01*
X109840003Y-111405058D01*
X109934834Y-111341693D01*
X109948683Y-111327844D01*
X109952096Y-111330124D01*
X110057468Y-111373770D01*
X110169329Y-111396020D01*
X110283383Y-111396020D01*
X110395244Y-111373770D01*
X110500616Y-111330124D01*
X110595447Y-111266759D01*
X110676095Y-111186111D01*
X110739460Y-111091280D01*
X110783106Y-110985908D01*
X110805356Y-110874047D01*
X110805356Y-110759993D01*
X110783106Y-110648132D01*
X110739460Y-110542760D01*
X110676095Y-110447929D01*
X110595447Y-110367281D01*
X110500616Y-110303916D01*
X110395244Y-110260270D01*
X110283383Y-110238020D01*
X110282337Y-110238020D01*
X110179000Y-110134683D01*
X110179000Y-109055738D01*
X112076000Y-109055738D01*
X112076000Y-109204262D01*
X112104976Y-109349934D01*
X112161814Y-109487153D01*
X112244330Y-109610647D01*
X112349353Y-109715670D01*
X112472847Y-109798186D01*
X112610066Y-109855024D01*
X112755738Y-109884000D01*
X112904262Y-109884000D01*
X113049934Y-109855024D01*
X113187153Y-109798186D01*
X113310647Y-109715670D01*
X113415670Y-109610647D01*
X113498186Y-109487153D01*
X113555024Y-109349934D01*
X113584000Y-109204262D01*
X113584000Y-109055738D01*
X113555024Y-108910066D01*
X113498186Y-108772847D01*
X113415670Y-108649353D01*
X113310647Y-108544330D01*
X113187153Y-108461814D01*
X113049934Y-108404976D01*
X112904262Y-108376000D01*
X112755738Y-108376000D01*
X112610066Y-108404976D01*
X112472847Y-108461814D01*
X112349353Y-108544330D01*
X112244330Y-108649353D01*
X112161814Y-108772847D01*
X112104976Y-108910066D01*
X112076000Y-109055738D01*
X110179000Y-109055738D01*
X110179000Y-107125738D01*
X111116000Y-107125738D01*
X111116000Y-107274262D01*
X111144976Y-107419934D01*
X111201814Y-107557153D01*
X111284330Y-107680647D01*
X111389353Y-107785670D01*
X111512847Y-107868186D01*
X111650066Y-107925024D01*
X111795738Y-107954000D01*
X111944262Y-107954000D01*
X112089934Y-107925024D01*
X112227153Y-107868186D01*
X112350647Y-107785670D01*
X112455670Y-107680647D01*
X112538186Y-107557153D01*
X112595024Y-107419934D01*
X112624000Y-107274262D01*
X112624000Y-107125738D01*
X112595024Y-106980066D01*
X112538186Y-106842847D01*
X112455670Y-106719353D01*
X112350647Y-106614330D01*
X112227153Y-106531814D01*
X112089934Y-106474976D01*
X111944262Y-106446000D01*
X111795738Y-106446000D01*
X111650066Y-106474976D01*
X111512847Y-106531814D01*
X111389353Y-106614330D01*
X111284330Y-106719353D01*
X111201814Y-106842847D01*
X111144976Y-106980066D01*
X111116000Y-107125738D01*
X110179000Y-107125738D01*
X110179000Y-107052050D01*
X110181172Y-107029999D01*
X110175927Y-106976750D01*
X110172503Y-106941981D01*
X110146829Y-106857344D01*
X110105136Y-106779342D01*
X110049027Y-106710973D01*
X110031895Y-106696913D01*
X109699000Y-106364019D01*
X109699000Y-106362973D01*
X109676750Y-106251112D01*
X109633104Y-106145740D01*
X109583164Y-106071000D01*
X109976786Y-106071000D01*
X110072847Y-106135186D01*
X110210066Y-106192024D01*
X110355738Y-106221000D01*
X110504262Y-106221000D01*
X110649934Y-106192024D01*
X110787153Y-106135186D01*
X110910647Y-106052670D01*
X111015670Y-105947647D01*
X111098186Y-105824153D01*
X111155024Y-105686934D01*
X111184000Y-105541262D01*
X111184000Y-105392738D01*
X111155024Y-105247066D01*
X111098186Y-105109847D01*
X111025735Y-105001416D01*
X111476000Y-105001416D01*
X111476000Y-105238584D01*
X111522269Y-105471194D01*
X111613029Y-105690308D01*
X111744792Y-105887505D01*
X111912495Y-106055208D01*
X112109692Y-106186971D01*
X112328806Y-106277731D01*
X112561416Y-106324000D01*
X112798584Y-106324000D01*
X113031194Y-106277731D01*
X113250308Y-106186971D01*
X113447505Y-106055208D01*
X113615208Y-105887505D01*
X113746971Y-105690308D01*
X113837731Y-105471194D01*
X113884000Y-105238584D01*
X113884000Y-105001416D01*
X113837731Y-104768806D01*
X113746971Y-104549692D01*
X113615208Y-104352495D01*
X113447505Y-104184792D01*
X113250308Y-104053029D01*
X113031194Y-103962269D01*
X112798584Y-103916000D01*
X112561416Y-103916000D01*
X112328806Y-103962269D01*
X112109692Y-104053029D01*
X111912495Y-104184792D01*
X111744792Y-104352495D01*
X111613029Y-104549692D01*
X111522269Y-104768806D01*
X111476000Y-105001416D01*
X111025735Y-105001416D01*
X111015670Y-104986353D01*
X110910647Y-104881330D01*
X110787153Y-104798814D01*
X110649934Y-104741976D01*
X110504262Y-104713000D01*
X110355738Y-104713000D01*
X110210066Y-104741976D01*
X110072847Y-104798814D01*
X109976786Y-104863000D01*
X109042666Y-104863000D01*
X109012999Y-104860078D01*
X108894595Y-104871740D01*
X108811195Y-104897039D01*
X108777731Y-104728806D01*
X108686971Y-104509692D01*
X108555208Y-104312495D01*
X108387505Y-104144792D01*
X108190308Y-104013029D01*
X107971194Y-103922269D01*
X107738584Y-103876000D01*
X107501416Y-103876000D01*
X107268806Y-103922269D01*
X107049692Y-104013029D01*
X106852495Y-104144792D01*
X106684792Y-104312495D01*
X106553029Y-104509692D01*
X106462269Y-104728806D01*
X106416000Y-104961416D01*
X106284000Y-104961416D01*
X106237731Y-104728806D01*
X106146971Y-104509692D01*
X106015208Y-104312495D01*
X105847505Y-104144792D01*
X105650308Y-104013029D01*
X105431194Y-103922269D01*
X105198584Y-103876000D01*
X104961416Y-103876000D01*
X104728806Y-103922269D01*
X104509692Y-104013029D01*
X104312495Y-104144792D01*
X104144792Y-104312495D01*
X104013029Y-104509692D01*
X103922269Y-104728806D01*
X103876000Y-104961416D01*
X103744000Y-104961416D01*
X103697731Y-104728806D01*
X103606971Y-104509692D01*
X103475208Y-104312495D01*
X103307505Y-104144792D01*
X103110308Y-104013029D01*
X102891194Y-103922269D01*
X102658584Y-103876000D01*
X102421416Y-103876000D01*
X102188806Y-103922269D01*
X101969692Y-104013029D01*
X101772495Y-104144792D01*
X101604792Y-104312495D01*
X101473029Y-104509692D01*
X101382269Y-104728806D01*
X101336000Y-104961416D01*
X101149026Y-104961416D01*
X101184654Y-104865033D01*
X101176743Y-104825255D01*
X101104434Y-104600579D01*
X100989682Y-104394327D01*
X100836897Y-104214425D01*
X100651951Y-104067786D01*
X100441951Y-103960046D01*
X100214967Y-103895345D01*
X100027000Y-103964802D01*
X99973000Y-103964802D01*
X99785033Y-103895345D01*
X99558049Y-103960046D01*
X99348049Y-104067786D01*
X99163103Y-104214425D01*
X99109000Y-104278130D01*
X99109000Y-103351713D01*
X99232495Y-103475208D01*
X99429692Y-103606971D01*
X99648806Y-103697731D01*
X99881416Y-103744000D01*
X100118584Y-103744000D01*
X100351194Y-103697731D01*
X100570308Y-103606971D01*
X100767505Y-103475208D01*
X100935208Y-103307505D01*
X101053101Y-103131065D01*
X101055515Y-103136892D01*
X101107936Y-103215345D01*
X101174655Y-103282064D01*
X101253108Y-103334485D01*
X101340281Y-103370593D01*
X101432823Y-103389000D01*
X101527177Y-103389000D01*
X101619719Y-103370593D01*
X101706892Y-103334485D01*
X101785345Y-103282064D01*
X101852064Y-103215345D01*
X101904485Y-103136892D01*
X101940593Y-103049719D01*
X101959000Y-102957177D01*
X101959000Y-102947005D01*
X101977936Y-102975345D01*
X102044655Y-103042064D01*
X102123108Y-103094485D01*
X102210281Y-103130593D01*
X102302823Y-103149000D01*
X102397177Y-103149000D01*
X102489719Y-103130593D01*
X102576892Y-103094485D01*
X102590133Y-103085637D01*
X102677683Y-103192317D01*
X102815334Y-103305285D01*
X102972380Y-103389228D01*
X103142785Y-103440920D01*
X103320000Y-103458374D01*
X103497214Y-103440920D01*
X103667619Y-103389228D01*
X103824665Y-103305285D01*
X103962317Y-103192317D01*
X104075285Y-103054666D01*
X104159228Y-102897620D01*
X104210920Y-102727215D01*
X104224000Y-102594410D01*
X104224000Y-102177823D01*
X105391000Y-102177823D01*
X105391000Y-102272177D01*
X105409407Y-102364719D01*
X105445515Y-102451892D01*
X105497936Y-102530345D01*
X105564655Y-102597064D01*
X105643108Y-102649485D01*
X105730281Y-102685593D01*
X105822823Y-102704000D01*
X105917177Y-102704000D01*
X106009719Y-102685593D01*
X106096892Y-102649485D01*
X106175345Y-102597064D01*
X106242064Y-102530345D01*
X106294485Y-102451892D01*
X106330593Y-102364719D01*
X106349000Y-102272177D01*
X106349000Y-102177823D01*
X108391000Y-102177823D01*
X108391000Y-102272177D01*
X108409407Y-102364719D01*
X108445515Y-102451892D01*
X108497936Y-102530345D01*
X108564655Y-102597064D01*
X108643108Y-102649485D01*
X108730281Y-102685593D01*
X108822823Y-102704000D01*
X108917177Y-102704000D01*
X109009719Y-102685593D01*
X109096892Y-102649485D01*
X109175345Y-102597064D01*
X109242064Y-102530345D01*
X109294485Y-102451892D01*
X109330593Y-102364719D01*
X109349000Y-102272177D01*
X109349000Y-102177823D01*
X109330593Y-102085281D01*
X109294485Y-101998108D01*
X109242064Y-101919655D01*
X109175345Y-101852936D01*
X109096892Y-101800515D01*
X109009719Y-101764407D01*
X108917177Y-101746000D01*
X108822823Y-101746000D01*
X108730281Y-101764407D01*
X108643108Y-101800515D01*
X108564655Y-101852936D01*
X108497936Y-101919655D01*
X108445515Y-101998108D01*
X108409407Y-102085281D01*
X108391000Y-102177823D01*
X106349000Y-102177823D01*
X106330593Y-102085281D01*
X106294485Y-101998108D01*
X106242064Y-101919655D01*
X106175345Y-101852936D01*
X106096892Y-101800515D01*
X106009719Y-101764407D01*
X105917177Y-101746000D01*
X105822823Y-101746000D01*
X105730281Y-101764407D01*
X105643108Y-101800515D01*
X105564655Y-101852936D01*
X105497936Y-101919655D01*
X105445515Y-101998108D01*
X105409407Y-102085281D01*
X105391000Y-102177823D01*
X104224000Y-102177823D01*
X104224000Y-101903250D01*
X104297163Y-101976413D01*
X104408373Y-102050722D01*
X104531943Y-102101906D01*
X104663124Y-102128000D01*
X104796876Y-102128000D01*
X104928057Y-102101906D01*
X105051627Y-102050722D01*
X105162837Y-101976413D01*
X105257413Y-101881837D01*
X105331722Y-101770627D01*
X105382906Y-101647057D01*
X105409000Y-101515876D01*
X105409000Y-101382124D01*
X105382906Y-101250943D01*
X105331722Y-101127373D01*
X105257413Y-101016163D01*
X105162837Y-100921587D01*
X105051627Y-100847278D01*
X104928057Y-100796094D01*
X104796876Y-100770000D01*
X104663124Y-100770000D01*
X104531943Y-100796094D01*
X104408373Y-100847278D01*
X104297163Y-100921587D01*
X104202587Y-101016163D01*
X104152895Y-101090532D01*
X104075285Y-100945334D01*
X103962317Y-100807683D01*
X103824666Y-100694715D01*
X103667620Y-100610772D01*
X103497215Y-100559080D01*
X103320000Y-100541626D01*
X103142786Y-100559080D01*
X102972381Y-100610772D01*
X102815335Y-100694715D01*
X102677684Y-100807683D01*
X102564716Y-100945334D01*
X102480773Y-101102380D01*
X102429081Y-101272785D01*
X102416001Y-101405590D01*
X102416000Y-102194744D01*
X102397177Y-102191000D01*
X102302823Y-102191000D01*
X102210281Y-102209407D01*
X102123108Y-102245515D01*
X102044655Y-102297936D01*
X101977936Y-102364655D01*
X101925515Y-102443108D01*
X101889407Y-102530281D01*
X101871000Y-102622823D01*
X101871000Y-102632995D01*
X101852064Y-102604655D01*
X101785345Y-102537936D01*
X101706892Y-102485515D01*
X101619719Y-102449407D01*
X101527177Y-102431000D01*
X101432823Y-102431000D01*
X101340281Y-102449407D01*
X101253108Y-102485515D01*
X101204000Y-102518328D01*
X101204000Y-102421416D01*
X101157731Y-102188806D01*
X101066971Y-101969692D01*
X100935208Y-101772495D01*
X100767505Y-101604792D01*
X100669043Y-101539002D01*
X100697177Y-101539002D01*
X100789719Y-101520595D01*
X100876892Y-101484487D01*
X100955345Y-101432066D01*
X101022064Y-101365347D01*
X101074485Y-101286894D01*
X101110593Y-101199721D01*
X101129000Y-101107179D01*
X101129000Y-101031823D01*
X101342000Y-101031823D01*
X101342000Y-101126177D01*
X101360407Y-101218719D01*
X101396515Y-101305892D01*
X101448936Y-101384345D01*
X101515655Y-101451064D01*
X101594108Y-101503485D01*
X101681281Y-101539593D01*
X101773823Y-101558000D01*
X101868177Y-101558000D01*
X101960719Y-101539593D01*
X102047892Y-101503485D01*
X102126345Y-101451064D01*
X102193064Y-101384345D01*
X102245485Y-101305892D01*
X102281593Y-101218719D01*
X102300000Y-101126177D01*
X102300000Y-101031823D01*
X102281593Y-100939281D01*
X102245485Y-100852108D01*
X102193064Y-100773655D01*
X102126345Y-100706936D01*
X102047892Y-100654515D01*
X101960719Y-100618407D01*
X101868177Y-100600000D01*
X101773823Y-100600000D01*
X101681281Y-100618407D01*
X101594108Y-100654515D01*
X101515655Y-100706936D01*
X101448936Y-100773655D01*
X101396515Y-100852108D01*
X101360407Y-100939281D01*
X101342000Y-101031823D01*
X101129000Y-101031823D01*
X101129000Y-101012825D01*
X101110593Y-100920283D01*
X101074485Y-100833110D01*
X101022064Y-100754657D01*
X100975144Y-100707737D01*
X101066971Y-100570308D01*
X101157731Y-100351194D01*
X101204000Y-100118584D01*
X101204000Y-99970000D01*
X106290000Y-99970000D01*
X106290000Y-101730000D01*
X106291921Y-101749509D01*
X106297612Y-101768268D01*
X106306853Y-101785557D01*
X106319289Y-101800711D01*
X106334443Y-101813147D01*
X106351732Y-101822388D01*
X106370491Y-101828079D01*
X106390000Y-101830000D01*
X107510000Y-101830000D01*
X107530063Y-101827967D01*
X107548790Y-101822170D01*
X107566026Y-101812832D01*
X107581109Y-101800310D01*
X107593460Y-101785086D01*
X107602603Y-101767746D01*
X107608187Y-101748955D01*
X107609998Y-101729435D01*
X107608036Y-101382124D01*
X109831000Y-101382124D01*
X109831000Y-101515876D01*
X109857094Y-101647057D01*
X109908278Y-101770627D01*
X109982587Y-101881837D01*
X110077163Y-101976413D01*
X110188373Y-102050722D01*
X110311943Y-102101906D01*
X110443124Y-102128000D01*
X110576876Y-102128000D01*
X110708057Y-102101906D01*
X110831627Y-102050722D01*
X110942837Y-101976413D01*
X111016001Y-101903249D01*
X111016000Y-102594409D01*
X111029080Y-102727214D01*
X111080772Y-102897619D01*
X111164715Y-103054665D01*
X111277683Y-103192317D01*
X111415334Y-103305285D01*
X111572380Y-103389228D01*
X111742785Y-103440920D01*
X111920000Y-103458374D01*
X112097214Y-103440920D01*
X112267619Y-103389228D01*
X112424665Y-103305285D01*
X112562317Y-103192317D01*
X112675285Y-103054666D01*
X112759228Y-102897620D01*
X112802501Y-102754967D01*
X114055346Y-102754967D01*
X114063257Y-102794745D01*
X114135566Y-103019421D01*
X114250318Y-103225673D01*
X114403103Y-103405575D01*
X114588049Y-103552214D01*
X114798049Y-103659954D01*
X115025033Y-103724655D01*
X115213000Y-103655198D01*
X115213000Y-102567000D01*
X114124827Y-102567000D01*
X114055346Y-102754967D01*
X112802501Y-102754967D01*
X112810920Y-102727215D01*
X112824000Y-102594410D01*
X112824000Y-102325033D01*
X114055346Y-102325033D01*
X114124827Y-102513000D01*
X115213000Y-102513000D01*
X115213000Y-101424802D01*
X115025033Y-101355345D01*
X114798049Y-101420046D01*
X114588049Y-101527786D01*
X114403103Y-101674425D01*
X114250318Y-101854327D01*
X114135566Y-102060579D01*
X114063257Y-102285255D01*
X114055346Y-102325033D01*
X112824000Y-102325033D01*
X112824000Y-101405590D01*
X112810920Y-101272785D01*
X112759228Y-101102380D01*
X112727395Y-101042823D01*
X112873000Y-101042823D01*
X112873000Y-101137177D01*
X112891407Y-101229719D01*
X112927515Y-101316892D01*
X112979936Y-101395345D01*
X113046655Y-101462064D01*
X113125108Y-101514485D01*
X113212281Y-101550593D01*
X113304823Y-101569000D01*
X113399177Y-101569000D01*
X113491719Y-101550593D01*
X113578892Y-101514485D01*
X113657345Y-101462064D01*
X113724064Y-101395345D01*
X113776485Y-101316892D01*
X113812593Y-101229719D01*
X113831000Y-101137177D01*
X113831000Y-101042823D01*
X113812593Y-100950281D01*
X113776485Y-100863108D01*
X113724064Y-100784655D01*
X113657345Y-100717936D01*
X113578892Y-100665515D01*
X113491719Y-100629407D01*
X113399177Y-100611000D01*
X113304823Y-100611000D01*
X113212281Y-100629407D01*
X113125108Y-100665515D01*
X113046655Y-100717936D01*
X112979936Y-100784655D01*
X112927515Y-100863108D01*
X112891407Y-100950281D01*
X112873000Y-101042823D01*
X112727395Y-101042823D01*
X112675285Y-100945334D01*
X112562317Y-100807683D01*
X112424666Y-100694715D01*
X112267620Y-100610772D01*
X112097215Y-100559080D01*
X111920000Y-100541626D01*
X111742786Y-100559080D01*
X111572381Y-100610772D01*
X111415335Y-100694715D01*
X111277684Y-100807683D01*
X111164716Y-100945334D01*
X111087106Y-101090532D01*
X111037413Y-101016163D01*
X110942837Y-100921587D01*
X110831627Y-100847278D01*
X110708057Y-100796094D01*
X110576876Y-100770000D01*
X110443124Y-100770000D01*
X110311943Y-100796094D01*
X110188373Y-100847278D01*
X110077163Y-100921587D01*
X109982587Y-101016163D01*
X109908278Y-101127373D01*
X109857094Y-101250943D01*
X109831000Y-101382124D01*
X107608036Y-101382124D01*
X107599998Y-99959435D01*
X107597899Y-99939608D01*
X107592039Y-99920901D01*
X107582643Y-99903696D01*
X107570071Y-99888655D01*
X107554806Y-99876356D01*
X107537435Y-99867271D01*
X107518625Y-99861750D01*
X107499099Y-99860004D01*
X106389099Y-99870004D01*
X106370491Y-99871921D01*
X106351732Y-99877612D01*
X106334443Y-99886853D01*
X106319289Y-99899289D01*
X106306853Y-99914443D01*
X106297612Y-99931732D01*
X106291921Y-99950491D01*
X106290000Y-99970000D01*
X101204000Y-99970000D01*
X101204000Y-99881416D01*
X101157731Y-99648806D01*
X101078277Y-99456986D01*
X101138160Y-99456986D01*
X101250021Y-99434736D01*
X101355393Y-99391090D01*
X101450224Y-99327725D01*
X101530872Y-99247077D01*
X101594237Y-99152246D01*
X101637883Y-99046874D01*
X101660133Y-98935013D01*
X101660133Y-98820959D01*
X101637883Y-98709098D01*
X101594237Y-98603726D01*
X101530872Y-98508895D01*
X101450224Y-98428247D01*
X101355393Y-98364882D01*
X101250021Y-98321236D01*
X101138160Y-98298986D01*
X101024106Y-98298986D01*
X100912245Y-98321236D01*
X100806873Y-98364882D01*
X100712042Y-98428247D01*
X100631394Y-98508895D01*
X100568029Y-98603726D01*
X100524383Y-98709098D01*
X100502133Y-98820959D01*
X100502133Y-98904790D01*
X100351194Y-98842269D01*
X100118584Y-98796000D01*
X99881416Y-98796000D01*
X99648806Y-98842269D01*
X99429692Y-98933029D01*
X99232495Y-99064792D01*
X99109000Y-99188287D01*
X99109000Y-97673844D01*
X99266876Y-97831720D01*
X99488641Y-97979899D01*
X99735053Y-98081966D01*
X99996643Y-98134000D01*
X100263357Y-98134000D01*
X100524947Y-98081966D01*
X100771359Y-97979899D01*
X100993124Y-97831720D01*
X101181720Y-97643124D01*
X101251336Y-97538936D01*
X101265250Y-97608888D01*
X101308896Y-97714260D01*
X101372261Y-97809091D01*
X101452909Y-97889739D01*
X101547740Y-97953104D01*
X101653112Y-97996750D01*
X101764973Y-98019000D01*
X101879027Y-98019000D01*
X101990888Y-97996750D01*
X102096260Y-97953104D01*
X102191091Y-97889739D01*
X102271739Y-97809091D01*
X102316000Y-97742851D01*
X102316000Y-98149313D01*
X102330528Y-98296817D01*
X102387938Y-98486072D01*
X102408139Y-98523866D01*
X102380281Y-98529407D01*
X102293108Y-98565515D01*
X102214655Y-98617936D01*
X102147936Y-98684655D01*
X102095515Y-98763108D01*
X102059407Y-98850281D01*
X102041000Y-98942823D01*
X102041000Y-99037177D01*
X102059407Y-99129719D01*
X102095515Y-99216892D01*
X102147936Y-99295345D01*
X102214655Y-99362064D01*
X102293108Y-99414485D01*
X102380281Y-99450593D01*
X102472823Y-99469000D01*
X102567177Y-99469000D01*
X102659719Y-99450593D01*
X102746892Y-99414485D01*
X102825345Y-99362064D01*
X102892064Y-99295345D01*
X102944485Y-99216892D01*
X102980593Y-99129719D01*
X102996257Y-99050970D01*
X103123182Y-99089472D01*
X103320000Y-99108857D01*
X103516817Y-99089472D01*
X103706072Y-99032062D01*
X103880491Y-98938834D01*
X104033370Y-98813370D01*
X104158834Y-98660491D01*
X104252062Y-98486073D01*
X104309472Y-98296818D01*
X104324000Y-98149314D01*
X104324000Y-97470000D01*
X106240000Y-97470000D01*
X106240000Y-99230000D01*
X106241921Y-99249509D01*
X106247612Y-99268268D01*
X106256853Y-99285557D01*
X106269289Y-99300711D01*
X106284443Y-99313147D01*
X106301732Y-99322388D01*
X106320491Y-99328079D01*
X106340000Y-99330000D01*
X107460000Y-99330000D01*
X107480063Y-99327967D01*
X107498790Y-99322170D01*
X107516026Y-99312832D01*
X107531109Y-99300310D01*
X107543460Y-99285086D01*
X107552603Y-99267746D01*
X107558187Y-99248955D01*
X107559998Y-99229435D01*
X107549998Y-97459435D01*
X107547899Y-97439608D01*
X107542039Y-97420901D01*
X107532643Y-97403696D01*
X107520071Y-97388655D01*
X107504806Y-97376356D01*
X107487435Y-97367271D01*
X107468625Y-97361750D01*
X107449099Y-97360004D01*
X106339099Y-97370004D01*
X106320491Y-97371921D01*
X106301732Y-97377612D01*
X106284443Y-97386853D01*
X106269289Y-97399289D01*
X106256853Y-97414443D01*
X106247612Y-97431732D01*
X106241921Y-97450491D01*
X106240000Y-97470000D01*
X104324000Y-97470000D01*
X104324000Y-97450687D01*
X104309472Y-97303183D01*
X104252062Y-97113927D01*
X104158834Y-96939509D01*
X104033370Y-96786630D01*
X103880491Y-96661166D01*
X103706073Y-96567938D01*
X103516818Y-96510528D01*
X103320000Y-96491143D01*
X103123183Y-96510528D01*
X102933928Y-96567938D01*
X102759510Y-96661166D01*
X102606631Y-96786630D01*
X102481167Y-96939509D01*
X102387939Y-97113927D01*
X102356530Y-97217467D01*
X102335104Y-97165740D01*
X102271739Y-97070909D01*
X102191091Y-96990261D01*
X102096260Y-96926896D01*
X101990888Y-96883250D01*
X101879027Y-96861000D01*
X101764973Y-96861000D01*
X101653112Y-96883250D01*
X101547740Y-96926896D01*
X101471124Y-96978090D01*
X101484000Y-96913357D01*
X101484000Y-96646643D01*
X101431966Y-96385053D01*
X101329899Y-96138641D01*
X101181720Y-95916876D01*
X101023844Y-95759000D01*
X114216156Y-95759000D01*
X114058280Y-95916876D01*
%TD*%
M02*
