M48
; DRILL file {KiCad (5.1.6-0-10_14)} date Friday, March 04, 2022 at 06:58:43 PM
; FORMAT={-:-/ absolute / metric / decimal}
; #@! TF.CreationDate,2022-03-04T18:58:43-06:00
; #@! TF.GenerationSoftware,Kicad,Pcbnew,(5.1.6-0-10_14)
; #@! TF.FileFunction,Plated,1,4,PTH
FMAT,2
METRIC
T1C0.150
T2C0.200
T3C0.400
T4C0.600
T5C1.000
%
G90
G05
T1
X100.565Y-111.396
X100.65Y-101.06
X100.956Y-116.573
X100.964Y-109.411
X100.964Y-111.371
X101.48Y-102.91
X101.505Y-122.852
X101.521Y-114.763
X101.798Y-115.659
X101.82Y-120.39
X101.821Y-101.079
X101.821Y-102.049
X101.833Y-100.269
X101.838Y-116.959
X101.959Y-113.925
X102.16Y-116.314
X102.35Y-102.67
X102.383Y-111.368
X102.52Y-98.99
X103.353Y-111.368
X103.545Y-106.066
X103.626Y-116.315
X103.703Y-121.983
X103.994Y-116.978
X104.025Y-139.668
X104.09Y-118.4
X104.116Y-120.346
X104.37Y-102.688
X104.48Y-113.88
X104.809Y-106.488
X104.841Y-121.266
X104.989Y-118.14
X104.992Y-119.139
X104.994Y-117.14
X104.997Y-116.149
X105.001Y-115.14
X105.239Y-128.442
X105.255Y-127.593
X105.275Y-126.524
X105.565Y-116.64
X105.574Y-117.64
X105.589Y-118.638
X105.593Y-115.639
X105.619Y-110.824
X105.87Y-102.225
X105.992Y-113.227
X106.434Y-110.176
X106.472Y-121.621
X106.497Y-122.615
X106.825Y-124.136
X106.858Y-125.479
X106.971Y-121.136
X106.972Y-114.453
X107.109Y-107.421
X107.277Y-132.79
X107.471Y-121.595
X108.213Y-124.113
X108.213Y-125.524
X108.241Y-112.829
X108.87Y-102.225
X108.972Y-121.585
X109.158Y-112.75
X109.438Y-122.625
X109.468Y-121.056
X109.471Y-114.209
X109.875Y-127.707
X109.971Y-114.705
X110.245Y-136.635
X110.33Y-112.93
X110.471Y-114.18
X110.474Y-121.639
X110.87Y-102.605
X110.971Y-114.706
X111.323Y-123.332
X111.341Y-122.625
X111.432Y-124.39
X111.435Y-126.192
X111.471Y-121.507
X111.507Y-112.408
X111.899Y-117.64
X111.908Y-116.64
X111.914Y-118.641
X111.928Y-121.096
X111.969Y-120.139
X111.973Y-115.635
X112.26Y-121.871
X112.402Y-118.14
X112.405Y-117.141
X112.427Y-123.15
X113.272Y-125.04
X113.317Y-125.676
X113.352Y-101.09
X113.356Y-102.029
X113.358Y-100.082
X113.444Y-120.733
X113.463Y-111.466
X113.482Y-121.666
X113.506Y-118.201
X113.611Y-118.916
X113.623Y-113.359
X114.71Y-119.069
X114.756Y-114.041
T2
X101.062Y-126.157
X101.081Y-98.878
X101.113Y-108.643
X101.254Y-127.582
X101.442Y-139.874
X101.49Y-137.29
X101.509Y-132.132
X101.777Y-119.876
X101.822Y-97.44
X102.682Y-108.251
X102.738Y-127.254
X102.811Y-128.555
X102.841Y-117.149
X102.912Y-118.303
X103.103Y-122.524
X103.155Y-120.79
X103.238Y-126.066
X103.32Y-118.78
X103.395Y-114.962
X103.398Y-131.415
X103.416Y-126.639
X103.463Y-135.365
X103.522Y-108.291
X103.589Y-127.667
X103.707Y-124.758
X104.991Y-130.885
X104.991Y-131.54
X105.107Y-108.774
X105.398Y-122.757
X106.483Y-137.914
X106.593Y-131.745
X106.602Y-143.945
X107.067Y-139.194
X108.654Y-144.953
X109.04Y-137.995
X109.566Y-110.892
X109.663Y-126.436
X109.675Y-139.714
X109.73Y-107.692
X110.226Y-110.817
X110.4Y-123.368
X112.025Y-127.168
X112.186Y-132.581
X112.202Y-130.748
X112.576Y-131.812
X112.692Y-114.284
X113.219Y-136.957
X113.359Y-98.304
X113.617Y-135.508
X113.879Y-110.795
X114.2Y-116.484
X114.208Y-128.781
X106.172Y-115.34
X106.172Y-117.89
X106.172Y-120.44
X107.447Y-116.615
X107.447Y-119.165
X108.722Y-115.34
X108.722Y-117.89
X108.722Y-120.44
X109.997Y-116.615
X109.997Y-119.165
X111.272Y-115.34
X111.272Y-117.89
X111.272Y-120.44
T3
X103.665Y-103.764
X106.364Y-106.197
X107.982Y-111.608
X110.43Y-105.467
X111.87Y-107.2
X112.052Y-109.88
X112.058Y-108.629
X112.636Y-113.461
X114.373Y-98.687
T5
X112.68Y-105.12
X100.0Y-133.02
X100.0Y-135.56
X100.0Y-138.1
X100.0Y-140.64
X100.0Y-143.18
X100.0Y-145.72
X100.0Y-100.0
X100.0Y-102.54
X100.0Y-105.08
X100.0Y-107.62
X100.0Y-110.16
X100.0Y-112.7
X100.0Y-115.24
X100.0Y-117.78
X100.0Y-120.32
X100.0Y-122.86
X100.0Y-125.4
X100.0Y-127.94
X115.24Y-133.02
X115.24Y-135.56
X115.24Y-138.1
X115.24Y-140.64
X115.24Y-143.18
X115.24Y-145.72
X115.24Y-100.0
X115.24Y-102.54
X115.24Y-105.08
X115.24Y-107.62
X115.24Y-110.16
X115.24Y-112.7
X115.24Y-115.24
X115.24Y-117.78
X115.24Y-120.32
X115.24Y-122.86
X115.24Y-125.4
X115.24Y-127.94
X102.54Y-105.08
X105.08Y-105.08
X107.62Y-105.08
T4
G00X103.32Y-98.1
M15
G01X103.32Y-97.5
M16
G05
G00X103.32Y-102.55
M15
G01X103.32Y-101.45
M16
G05
G00X111.92Y-98.1
M15
G01X111.92Y-97.5
M16
G05
G00X111.92Y-102.55
M15
G01X111.92Y-101.45
M16
G05
T0
M30
