%TF.GenerationSoftware,KiCad,Pcbnew,(5.1.6-0-10_14)*%
%TF.CreationDate,2022-03-04T18:58:24-06:00*%
%TF.ProjectId,Bonsai_C4,426f6e73-6169-45f4-9334-2e6b69636164,rev?*%
%TF.SameCoordinates,Original*%
%TF.FileFunction,Copper,L2,Inr*%
%TF.FilePolarity,Positive*%
%FSLAX46Y46*%
G04 Gerber Fmt 4.6, Leading zero omitted, Abs format (unit mm)*
G04 Created by KiCad (PCBNEW (5.1.6-0-10_14)) date 2022-03-04 18:58:24*
%MOMM*%
%LPD*%
G01*
G04 APERTURE LIST*
%TA.AperFunction,ViaPad*%
%ADD10C,1.700000*%
%TD*%
%TA.AperFunction,ViaPad*%
%ADD11O,1.700000X1.700000*%
%TD*%
%TA.AperFunction,ViaPad*%
%ADD12O,1.100000X2.200000*%
%TD*%
%TA.AperFunction,ViaPad*%
%ADD13O,1.300000X1.900000*%
%TD*%
%TA.AperFunction,ViaPad*%
%ADD14C,0.500000*%
%TD*%
%TA.AperFunction,ViaPad*%
%ADD15C,0.250000*%
%TD*%
%TA.AperFunction,ViaPad*%
%ADD16C,0.800000*%
%TD*%
%TA.AperFunction,ViaPad*%
%ADD17C,0.450000*%
%TD*%
%TA.AperFunction,ViaPad*%
%ADD18C,0.350000*%
%TD*%
%TA.AperFunction,Conductor*%
%ADD19C,0.300000*%
%TD*%
%TA.AperFunction,Conductor*%
%ADD20C,0.450000*%
%TD*%
%TA.AperFunction,Conductor*%
%ADD21C,0.127000*%
%TD*%
%TA.AperFunction,Conductor*%
%ADD22C,0.250000*%
%TD*%
%TA.AperFunction,Conductor*%
%ADD23C,0.190000*%
%TD*%
%TA.AperFunction,Conductor*%
%ADD24C,0.500000*%
%TD*%
%TA.AperFunction,Conductor*%
%ADD25C,0.350000*%
%TD*%
%TA.AperFunction,Conductor*%
%ADD26C,0.200000*%
%TD*%
G04 APERTURE END LIST*
D10*
%TO.N,/PD3*%
%TO.C,J4*%
X100000000Y-100000000D03*
D11*
%TO.N,/PD2*%
X100000000Y-102540000D03*
%TO.N,GND*%
X100000000Y-105080000D03*
%TO.N,/PD0*%
X100000000Y-112700000D03*
%TO.N,/PD1*%
X100000000Y-110160000D03*
D10*
%TO.N,GND*%
X100000000Y-107620000D03*
%TO.N,/B10*%
X100000000Y-122860000D03*
D11*
%TO.N,/B8*%
X100000000Y-117780000D03*
D10*
%TO.N,/A4*%
X100000000Y-115240000D03*
D11*
%TO.N,/A8*%
X100000000Y-125400000D03*
%TO.N,/B0*%
X100000000Y-127940000D03*
%TO.N,/A3*%
X100000000Y-120320000D03*
%TD*%
D10*
%TO.N,+5V*%
%TO.C,J5*%
X115240000Y-100000000D03*
D11*
%TO.N,GND*%
X115240000Y-102540000D03*
%TO.N,/DFU*%
X115240000Y-105080000D03*
%TO.N,/A6*%
X115240000Y-112700000D03*
%TO.N,/A7*%
X115240000Y-110160000D03*
D10*
%TO.N,+3V3*%
X115240000Y-107620000D03*
%TO.N,/B14*%
X115240000Y-122860000D03*
D11*
%TO.N,/A1*%
X115240000Y-117780000D03*
D10*
%TO.N,/A5*%
X115240000Y-115240000D03*
D11*
%TO.N,/B15*%
X115240000Y-125400000D03*
%TO.N,/B1*%
X115240000Y-127940000D03*
%TO.N,/B13*%
X115240000Y-120320000D03*
%TD*%
%TO.N,/D+*%
%TO.C,J1*%
X102540000Y-105080000D03*
%TO.N,/D-*%
X105080000Y-105080000D03*
D10*
%TO.N,VBUS*%
X107620000Y-105080000D03*
%TD*%
%TO.N,/A10_5V*%
%TO.C,J2*%
X112680000Y-105120000D03*
%TD*%
%TO.N,/A0_FRAM_CS*%
%TO.C,J7*%
X100000000Y-133020000D03*
D11*
%TO.N,/B3_SCK*%
X100000000Y-135560000D03*
%TO.N,/B4_MISO*%
X100000000Y-138100000D03*
%TO.N,/C13*%
X100000000Y-145720000D03*
%TO.N,/B12_FLASH_CS*%
X100000000Y-143180000D03*
D10*
%TO.N,/B5_MOSI*%
X100000000Y-140640000D03*
%TD*%
%TO.N,/C14*%
%TO.C,J6*%
X115240000Y-133020000D03*
D11*
%TO.N,/C15*%
X115240000Y-135560000D03*
%TO.N,/A2*%
X115240000Y-138100000D03*
%TO.N,/NRST*%
X115240000Y-145720000D03*
%TO.N,/A13*%
X115240000Y-143180000D03*
D10*
%TO.N,/A14*%
X115240000Y-140640000D03*
%TD*%
D12*
%TO.N,Net-(FB1-Pad1)*%
%TO.C,J3*%
X103320000Y-102000000D03*
D13*
X103320000Y-97800000D03*
X111920000Y-97800000D03*
D12*
X111920000Y-102000000D03*
%TD*%
D14*
%TO.N,GND*%
%TO.C,U3*%
X106172000Y-120440000D03*
X106172000Y-117890000D03*
X106172000Y-115340000D03*
X107447000Y-119165000D03*
X107447000Y-116615000D03*
X108722000Y-120440000D03*
X108722000Y-117890000D03*
X108722000Y-115340000D03*
X109997000Y-119165000D03*
X109997000Y-116615000D03*
X111272000Y-120440000D03*
X111272000Y-117890000D03*
X111272000Y-115340000D03*
%TD*%
D15*
%TO.N,GND*%
X113463000Y-111466000D03*
X101821000Y-102049000D03*
X113358000Y-100082000D03*
D16*
X106364000Y-106197000D03*
D17*
X108654000Y-144953000D03*
D15*
X109438000Y-122625000D03*
X111341000Y-122625000D03*
X109468000Y-121056000D03*
X105992000Y-113227000D03*
X105619000Y-110824000D03*
D17*
X106483000Y-137914000D03*
X109675000Y-139714000D03*
D15*
X107277000Y-132790000D03*
D17*
X102681784Y-108250856D03*
X113878955Y-110795454D03*
X114199761Y-116483619D03*
D15*
X111432000Y-124390000D03*
X101959000Y-113925000D03*
X113356000Y-102029000D03*
X111973168Y-115634990D03*
X103994000Y-116978000D03*
X112426990Y-123150000D03*
D17*
X103394958Y-114962490D03*
D15*
X106496761Y-122615239D03*
X106825000Y-124136000D03*
X108213000Y-124113000D03*
X106858000Y-125479000D03*
X108213000Y-125524000D03*
X105275000Y-126524000D03*
X105239000Y-128442000D03*
X109875000Y-127707000D03*
X111435000Y-126192000D03*
X104809000Y-106488000D03*
X103545000Y-106066000D03*
X107109000Y-107421000D03*
X110870000Y-102605000D03*
X104370000Y-102688000D03*
X105255000Y-127593000D03*
D16*
X103665309Y-103763691D03*
D15*
X102383010Y-111367990D03*
X101833019Y-100268916D03*
X104116202Y-120346202D03*
D17*
X101777172Y-119875929D03*
D16*
X112051988Y-109880000D03*
%TO.N,+5V*%
X114373000Y-98687000D03*
X111870000Y-107200000D03*
D15*
%TO.N,+3V3*%
X113317000Y-125676000D03*
D17*
X110400000Y-123368000D03*
X109663000Y-126436002D03*
X106593000Y-131745000D03*
X106602000Y-143945000D03*
D15*
X108241000Y-112829000D03*
D16*
X112636133Y-113460933D03*
D17*
X105398000Y-122757000D03*
D15*
X103353000Y-111368000D03*
D16*
X112058119Y-108629149D03*
%TO.N,Net-(D1-Pad2)*%
X110430000Y-105467000D03*
X107981753Y-111607985D03*
D17*
%TO.N,VBUS*%
X109730000Y-107692000D03*
X110226356Y-110817020D03*
D15*
%TO.N,/A3*%
X112260066Y-121871066D03*
%TO.N,Net-(J3-PadA5)*%
X113352000Y-101090000D03*
X108870000Y-102225000D03*
%TO.N,Net-(J3-PadB5)*%
X105870000Y-102225000D03*
X101821000Y-101079000D03*
%TO.N,/NRST*%
X108972000Y-121585000D03*
X111323000Y-123332000D03*
D17*
X112202000Y-130748000D03*
X112186000Y-132581490D03*
D15*
%TO.N,/BOOT0*%
X105589000Y-118638000D03*
X103626000Y-116315000D03*
%TO.N,/B0*%
X112402000Y-118140000D03*
D17*
X103415880Y-126638750D03*
D15*
%TO.N,/B1*%
X111899000Y-117640000D03*
%TO.N,/B2*%
X112405000Y-117141000D03*
X113443637Y-120733363D03*
X113611000Y-118916000D03*
X102160000Y-116314000D03*
X101521058Y-114763337D03*
%TO.N,/B7*%
X104989000Y-118140000D03*
X101480000Y-102910000D03*
X102350000Y-102670000D03*
X102520000Y-98990000D03*
D17*
X101112532Y-108642532D03*
D15*
%TO.N,/B6*%
X105574000Y-117640000D03*
X104090000Y-118400000D03*
D17*
X103155450Y-120790457D03*
D15*
X100964479Y-109410733D03*
X100964479Y-111371081D03*
%TO.N,/A10*%
X109158000Y-112750000D03*
D18*
X106434000Y-110176000D03*
D15*
%TO.N,/B13*%
X110971000Y-114706000D03*
%TO.N,/B9*%
X100565263Y-111396313D03*
%TO.N,/B15*%
X109971000Y-114705000D03*
%TO.N,/B8*%
X104992000Y-119139000D03*
%TO.N,/B14*%
X110471000Y-114180000D03*
%TO.N,/A2*%
X111471000Y-121507000D03*
D17*
X113617000Y-135508000D03*
D15*
X103703490Y-121983000D03*
%TO.N,/DFU*%
X113272000Y-125040000D03*
D18*
X114756000Y-114041000D03*
X113623451Y-113358549D03*
D15*
X114710243Y-119068635D03*
D17*
%TO.N,/A14*%
X101061567Y-126156653D03*
X113219000Y-136957000D03*
D15*
X105001490Y-115140000D03*
%TO.N,/A13*%
X106972000Y-114452500D03*
D17*
X112576008Y-131812000D03*
D15*
%TO.N,/B10*%
X111908000Y-116640000D03*
X100956000Y-116573000D03*
X104480000Y-113880000D03*
%TO.N,/A15*%
X105593262Y-115638824D03*
D17*
X101822000Y-97440000D03*
D15*
%TO.N,/C13*%
X106472000Y-121621000D03*
D17*
X104990510Y-130885000D03*
D15*
%TO.N,/C14*%
X106971000Y-121135510D03*
D17*
X103707490Y-124758000D03*
X104990510Y-131539929D03*
D15*
%TO.N,/C15*%
X107471000Y-121595000D03*
D17*
X103237511Y-126065876D03*
%TO.N,Net-(C12-Pad1)*%
X113359000Y-98304000D03*
X112025002Y-127168000D03*
X101081133Y-98877986D03*
X102841490Y-117148510D03*
X102911515Y-118302532D03*
D15*
%TO.N,/VBUS_DET*%
X111507000Y-112408000D03*
%TO.N,Net-(D3-Pad-)*%
X101504969Y-122852294D03*
X101798069Y-115659441D03*
D17*
%TO.N,Net-(D5-Pad1)*%
X103522000Y-108291000D03*
X105107000Y-108774000D03*
D15*
X110330000Y-112930000D03*
D17*
%TO.N,/A10_5V*%
X109565743Y-110891954D03*
D15*
%TO.N,/A8*%
X109471000Y-114209000D03*
X101820000Y-120390000D03*
%TO.N,/A4*%
X111969000Y-120139000D03*
%TO.N,/A6*%
X113506000Y-118201000D03*
%TO.N,/A7*%
X111914000Y-118641000D03*
%TO.N,/A0_FRAM_CS*%
X110474000Y-121639000D03*
X104841000Y-121266000D03*
D17*
X103589379Y-127666977D03*
D15*
%TO.N,/B3_SCK*%
X104996807Y-116149244D03*
D17*
X101254000Y-127582000D03*
D15*
X110245000Y-136635000D03*
D17*
X101442000Y-139874000D03*
%TO.N,/B4_MISO*%
X103463000Y-135365000D03*
D15*
X105565000Y-116640000D03*
D17*
X102811000Y-128555000D03*
X103398490Y-131414808D03*
X107067000Y-139194000D03*
%TO.N,/B12_FLASH_CS*%
X114208000Y-128781000D03*
X112692000Y-114284000D03*
D15*
%TO.N,/B5_MOSI*%
X104994000Y-117140000D03*
D17*
X109040500Y-137995500D03*
X103103000Y-122524000D03*
X102738000Y-127254000D03*
X101509000Y-132132000D03*
D15*
X104025000Y-139668000D03*
D17*
X103320000Y-118780000D03*
X101490000Y-137290000D03*
D15*
%TO.N,Net-(Q2-Pad6)*%
X113482000Y-121666000D03*
X101838000Y-116959000D03*
X111928000Y-121096000D03*
%TO.N,/PD2*%
X100650000Y-101060002D03*
%TD*%
D19*
%TO.N,GND*%
X105992000Y-115102000D02*
X105992000Y-113227000D01*
X106172000Y-115282000D02*
X105992000Y-115102000D01*
X106172000Y-115340000D02*
X106172000Y-115282000D01*
D20*
%TO.N,+3V3*%
X108241000Y-112829000D02*
X108241000Y-112838000D01*
D21*
X108241000Y-113254000D02*
X108241000Y-112829000D01*
X108447933Y-113460933D02*
X108241000Y-113254000D01*
X112636133Y-113460933D02*
X108447933Y-113460933D01*
D20*
%TO.N,/A3*%
X112251000Y-121878000D02*
X112289000Y-121878000D01*
D21*
X111228066Y-121871066D02*
X112260066Y-121871066D01*
X109611491Y-120060509D02*
X109611491Y-120254491D01*
X109611491Y-120254491D02*
X111228066Y-121871066D01*
D22*
X109611491Y-120060509D02*
X109232073Y-120060509D01*
X105373727Y-119864999D02*
X105310215Y-119928511D01*
X105310215Y-119928511D02*
X104219785Y-119928511D01*
X104219785Y-119928511D02*
X104189783Y-119898509D01*
X109036563Y-119864999D02*
X105373727Y-119864999D01*
X109232073Y-120060509D02*
X109036563Y-119864999D01*
X103900217Y-119898509D02*
X103790215Y-120008511D01*
X104189783Y-119898509D02*
X103900217Y-119898509D01*
X101747782Y-121169999D02*
X100849999Y-121169999D01*
X103790215Y-120008511D02*
X102909270Y-120008511D01*
X102909270Y-120008511D02*
X101747782Y-121169999D01*
X100849999Y-121169999D02*
X100000000Y-120320000D01*
D23*
%TO.N,Net-(J3-PadA5)*%
X108870000Y-102225000D02*
X108870000Y-101522000D01*
X108870000Y-101522000D02*
X109869000Y-100523000D01*
X112785000Y-100523000D02*
X113352000Y-101090000D01*
X109869000Y-100523000D02*
X112785000Y-100523000D01*
D24*
X113352000Y-101090000D02*
X113278500Y-101016500D01*
X108870000Y-102225000D02*
X108870000Y-102101000D01*
D21*
%TO.N,Net-(J3-PadB5)*%
X105870000Y-102225000D02*
X105870000Y-100648000D01*
X105870000Y-100648000D02*
X105377000Y-100155000D01*
X102745000Y-100155000D02*
X101821000Y-101079000D01*
X105377000Y-100155000D02*
X102745000Y-100155000D01*
D24*
X105870000Y-102225000D02*
X105870000Y-102154000D01*
X101821000Y-101079000D02*
X101865500Y-101034500D01*
D21*
%TO.N,/NRST*%
X109356000Y-121927000D02*
X108972000Y-121543000D01*
D20*
X108975000Y-121443750D02*
X108975000Y-121583250D01*
X111323000Y-123332000D02*
X111319000Y-123332000D01*
D21*
X109918000Y-121927000D02*
X109751000Y-121927000D01*
X111323000Y-123332000D02*
X109918000Y-121927000D01*
X109751000Y-121927000D02*
X109356000Y-121927000D01*
X111977001Y-130972999D02*
X111977001Y-132372491D01*
X111977001Y-132372491D02*
X112186000Y-132581490D01*
X112202000Y-130748000D02*
X111977001Y-130972999D01*
D25*
%TO.N,/BOOT0*%
X105589000Y-118638000D02*
X105590000Y-118638000D01*
D20*
X105589000Y-118637000D02*
X105508000Y-118637000D01*
D25*
X103626000Y-116315000D02*
X103626000Y-116317000D01*
D20*
X103626000Y-116315000D02*
X103626000Y-116509000D01*
D21*
X105589000Y-118638000D02*
X104590020Y-118638000D01*
X104590020Y-118638000D02*
X104444501Y-118492481D01*
X104444501Y-118167519D02*
X103626000Y-117349018D01*
X104444501Y-118492481D02*
X104444501Y-118167519D01*
X103626000Y-117349018D02*
X103626000Y-116315000D01*
D25*
%TO.N,/B7*%
X104989000Y-118140000D02*
X104990000Y-118140000D01*
D20*
X104989000Y-118140000D02*
X104989000Y-118045000D01*
D21*
X104707002Y-113420000D02*
X103210000Y-113420000D01*
X104828501Y-113541499D02*
X104707002Y-113420000D01*
X104828501Y-114032481D02*
X104828501Y-113541499D01*
X104389000Y-114471982D02*
X104828501Y-114032481D01*
X104389000Y-117540000D02*
X104389000Y-114471982D01*
X104989000Y-118140000D02*
X104389000Y-117540000D01*
X103210000Y-113420000D02*
X101302989Y-111512989D01*
X101302989Y-111512989D02*
X101302989Y-108832989D01*
X101302989Y-108832989D02*
X101112532Y-108642532D01*
D25*
%TO.N,/B6*%
X105574000Y-117640000D02*
X105575000Y-117639000D01*
D21*
X103280000Y-116930000D02*
X103060000Y-116710000D01*
X104090000Y-118400000D02*
X103280000Y-117590000D01*
X102630000Y-116710000D02*
X101890000Y-117450000D01*
X101890000Y-117450000D02*
X101220000Y-117450000D01*
X101064479Y-111666231D02*
X100964479Y-111566231D01*
X100500000Y-116737146D02*
X100500000Y-116365854D01*
X100500000Y-116365854D02*
X101064479Y-115801375D01*
X103060000Y-116710000D02*
X102630000Y-116710000D01*
X100781510Y-117011510D02*
X100774364Y-117011510D01*
X100774364Y-117011510D02*
X100500000Y-116737146D01*
X101220000Y-117450000D02*
X100781510Y-117011510D01*
X101064479Y-115801375D02*
X101064479Y-111666231D01*
X103280000Y-117590000D02*
X103280000Y-116930000D01*
X100964479Y-111566231D02*
X100964479Y-111371081D01*
%TO.N,/A10*%
X108695525Y-112287525D02*
X107722961Y-112287525D01*
X107722961Y-112287525D02*
X107130490Y-111695054D01*
X107130490Y-111695054D02*
X107130490Y-110872490D01*
X109158000Y-112750000D02*
X108695525Y-112287525D01*
X107130490Y-110872490D02*
X106434000Y-110176000D01*
D20*
X106434000Y-110176000D02*
X106475500Y-110217500D01*
X109158000Y-112750000D02*
X109114500Y-112706500D01*
%TO.N,/B13*%
X110971000Y-114706000D02*
X110971000Y-114707000D01*
D21*
X110704000Y-116099555D02*
X110704000Y-115149776D01*
X110758499Y-117643519D02*
X110837512Y-117564506D01*
X115240000Y-120320000D02*
X114327000Y-120320000D01*
X110758499Y-118176355D02*
X110758499Y-117643519D01*
X110971000Y-114882776D02*
X110971000Y-114706000D01*
X113137508Y-119130508D02*
X111712652Y-119130508D01*
X110837512Y-116233067D02*
X110704000Y-116099555D01*
X110837512Y-117564506D02*
X110837512Y-116233067D01*
X114327000Y-120320000D02*
X113137508Y-119130508D01*
X110704000Y-115149776D02*
X110971000Y-114882776D01*
X111712652Y-119130508D02*
X110758499Y-118176355D01*
D20*
%TO.N,/B15*%
X109971000Y-114705000D02*
X109970000Y-114704000D01*
D21*
X109483499Y-115192501D02*
X109483499Y-117834425D01*
X109971000Y-114705000D02*
X109483499Y-115192501D01*
X109483499Y-117834425D02*
X111395074Y-119746000D01*
X111395074Y-119746000D02*
X112962248Y-119746000D01*
X112962248Y-119746000D02*
X113922000Y-120705752D01*
X113922000Y-124082000D02*
X115240000Y-125400000D01*
X113922000Y-120705752D02*
X113922000Y-124082000D01*
D20*
%TO.N,/B8*%
X104992000Y-119139000D02*
X104991000Y-119140000D01*
D22*
X103681274Y-119140000D02*
X104991000Y-119140000D01*
X103531273Y-119290001D02*
X103681274Y-119140000D01*
X101510001Y-119290001D02*
X103531273Y-119290001D01*
X100000000Y-117780000D02*
X101510001Y-119290001D01*
D20*
%TO.N,/B14*%
X110471000Y-114180000D02*
X110470000Y-114180000D01*
D21*
X114212011Y-121832011D02*
X115240000Y-122860000D01*
X114212011Y-120604011D02*
X114212011Y-121832011D01*
X113029000Y-119421000D02*
X114212011Y-120604011D01*
X111532537Y-119421000D02*
X113029000Y-119421000D01*
X110431488Y-117362049D02*
X110431488Y-118319951D01*
X110510501Y-116368519D02*
X110510501Y-117283036D01*
X110376989Y-116235007D02*
X110510501Y-116368519D01*
X110376989Y-115014324D02*
X110376989Y-116235007D01*
X110471000Y-114180000D02*
X110471000Y-114920313D01*
X110471000Y-114920313D02*
X110376989Y-115014324D01*
X110431488Y-118319951D02*
X111532537Y-119421000D01*
X110510501Y-117283036D02*
X110431488Y-117362049D01*
D20*
%TO.N,/A2*%
X103703490Y-121983000D02*
X103700490Y-121986000D01*
D21*
X102299499Y-127464481D02*
X102299499Y-124007137D01*
X104201000Y-128904266D02*
X103005235Y-127708501D01*
X102543519Y-127708501D02*
X102299499Y-127464481D01*
X103005235Y-127708501D02*
X102543519Y-127708501D01*
X104201000Y-131824182D02*
X104201000Y-128904266D01*
X104632268Y-132255450D02*
X104201000Y-131824182D01*
X105326012Y-132255450D02*
X104632268Y-132255450D01*
X106456440Y-131125022D02*
X105326012Y-132255450D01*
X108725022Y-131125022D02*
X106456440Y-131125022D01*
X113108000Y-135508000D02*
X108725022Y-131125022D01*
X113617000Y-135508000D02*
X113108000Y-135508000D01*
X103703490Y-122603146D02*
X103633318Y-122673318D01*
X103703490Y-121983000D02*
X103703490Y-122603146D01*
X102299499Y-124007137D02*
X103633318Y-122673318D01*
%TO.N,/DFU*%
X115240000Y-105080000D02*
X112977000Y-107343000D01*
X113543615Y-112986615D02*
X113543615Y-113410385D01*
X112977000Y-112420000D02*
X113543615Y-112986615D01*
X112977000Y-107343000D02*
X112977000Y-112420000D01*
X114167000Y-118525392D02*
X114710243Y-119068635D01*
X114167000Y-117255000D02*
X114167000Y-118525392D01*
X114730000Y-116692000D02*
X114167000Y-117255000D01*
X114730000Y-116323000D02*
X114730000Y-116692000D01*
X114126499Y-115719499D02*
X114730000Y-116323000D01*
X114126499Y-114670501D02*
X114126499Y-115719499D01*
X114756000Y-114041000D02*
X114126499Y-114670501D01*
D20*
X114756000Y-114041000D02*
X114712000Y-114085000D01*
X113623451Y-113358549D02*
X113623451Y-113345451D01*
X114710243Y-119068635D02*
X114668804Y-119027196D01*
D21*
%TO.N,/A14*%
X101061567Y-126618301D02*
X102428778Y-127985512D01*
X102890494Y-127985512D02*
X103858006Y-128953024D01*
X109167065Y-137181999D02*
X112994001Y-137181999D01*
X103858006Y-131872940D02*
X109167065Y-137181999D01*
X112994001Y-137181999D02*
X113219000Y-136957000D01*
X101061567Y-126156653D02*
X101061567Y-126618301D01*
X103858006Y-128953024D02*
X103858006Y-131872940D01*
X102428778Y-127985512D02*
X102890494Y-127985512D01*
D25*
%TO.N,/A13*%
X106972000Y-114452500D02*
X107017250Y-114497750D01*
D21*
X112576000Y-131812000D02*
X112576008Y-131812000D01*
D20*
X106972000Y-114452500D02*
X106972000Y-114553000D01*
D21*
X113824000Y-128018000D02*
X113059999Y-128782001D01*
X113824000Y-124446462D02*
X113824000Y-128018000D01*
X112764000Y-121286000D02*
X112764000Y-122033000D01*
X112764000Y-122033000D02*
X113499989Y-122768989D01*
X113059999Y-128782001D02*
X113059999Y-131328009D01*
X111003919Y-120903501D02*
X111494481Y-120903501D01*
X112221000Y-120743000D02*
X112764000Y-121286000D01*
X111654982Y-120743000D02*
X112221000Y-120743000D01*
X111494481Y-120903501D02*
X111654982Y-120743000D01*
X113499989Y-124122452D02*
X113824000Y-124446462D01*
X113499989Y-122768989D02*
X113499989Y-124122452D01*
X106972000Y-116871582D02*
X111003919Y-120903501D01*
X113059999Y-131328009D02*
X112576008Y-131812000D01*
X106972000Y-114452500D02*
X106972000Y-116871582D01*
D20*
%TO.N,/B10*%
X100956000Y-116573000D02*
X100956000Y-116530000D01*
D21*
X102862000Y-113973000D02*
X101459559Y-115375441D01*
X101459559Y-116069441D02*
X100956000Y-116573000D01*
X101459559Y-115375441D02*
X101459559Y-116069441D01*
X104387000Y-113973000D02*
X104480000Y-113880000D01*
X102862000Y-113973000D02*
X104387000Y-113973000D01*
D20*
%TO.N,/A15*%
X105593262Y-115638824D02*
X105593262Y-115612262D01*
D21*
X103260000Y-113050000D02*
X104750000Y-113050000D01*
X105540000Y-113840000D02*
X105540000Y-115585562D01*
X101580000Y-111370000D02*
X103260000Y-113050000D01*
X101580000Y-108451018D02*
X101580000Y-111370000D01*
X101113501Y-107984519D02*
X101580000Y-108451018D01*
X105540000Y-115585562D02*
X105593262Y-115638824D01*
X104750000Y-113050000D02*
X105540000Y-113840000D01*
X101113501Y-99530501D02*
X101113501Y-107984519D01*
X100610000Y-99027000D02*
X101113501Y-99530501D01*
X100610000Y-98652000D02*
X100610000Y-99027000D01*
X101822000Y-97440000D02*
X100610000Y-98652000D01*
%TO.N,/C14*%
X109253001Y-130556001D02*
X105974438Y-130556001D01*
X115240000Y-133020000D02*
X111717000Y-133020000D01*
X105974438Y-130556001D02*
X104990510Y-131539929D01*
X111717000Y-133020000D02*
X109253001Y-130556001D01*
%TO.N,/C15*%
X103555709Y-126065876D02*
X103237511Y-126065876D01*
X104533000Y-127043167D02*
X103555709Y-126065876D01*
X104533000Y-129587766D02*
X104533000Y-127043167D01*
X104531993Y-129831226D02*
X104531993Y-129588773D01*
X104531993Y-129588773D02*
X104533000Y-129587766D01*
X115240000Y-135560000D02*
X114390001Y-134710001D01*
X104533000Y-129832233D02*
X104531993Y-129831226D01*
X104533000Y-131764430D02*
X104533000Y-129832233D01*
X106341699Y-130848011D02*
X105211271Y-131978439D01*
X104747009Y-131978439D02*
X104533000Y-131764430D01*
X108847011Y-130848011D02*
X106341699Y-130848011D01*
X112709001Y-134710001D02*
X108847011Y-130848011D01*
X105211271Y-131978439D02*
X104747009Y-131978439D01*
X114390001Y-134710001D02*
X112709001Y-134710001D01*
%TO.N,Net-(C12-Pad1)*%
X101877986Y-98877986D02*
X101081133Y-98877986D01*
X102328501Y-99328501D02*
X101877986Y-98877986D01*
X102682481Y-99328501D02*
X102328501Y-99328501D01*
X102899483Y-99111499D02*
X102682481Y-99328501D01*
X112551501Y-99111499D02*
X102899483Y-99111499D01*
X113359000Y-98304000D02*
X112551501Y-99111499D01*
X102841490Y-117148510D02*
X102841490Y-118232507D01*
X102841490Y-118232507D02*
X102911515Y-118302532D01*
D22*
%TO.N,Net-(D5-Pad1)*%
X108900000Y-110985000D02*
X108900000Y-111500000D01*
X108900000Y-111500000D02*
X110330000Y-112930000D01*
X106689000Y-108774000D02*
X108900000Y-110985000D01*
X105107000Y-108774000D02*
X106689000Y-108774000D01*
D20*
X110330000Y-112930000D02*
X110241000Y-112841000D01*
D21*
%TO.N,/A10_5V*%
X109565743Y-110573756D02*
X109565743Y-110891954D01*
X110613000Y-109526499D02*
X109565743Y-110573756D01*
X110613000Y-107187000D02*
X110613000Y-109526499D01*
X110613000Y-107187000D02*
X112680000Y-105120000D01*
D20*
%TO.N,/A8*%
X109471000Y-114209000D02*
X109472000Y-114208000D01*
D21*
X109471000Y-114209000D02*
X107409000Y-114209000D01*
X106790364Y-114013990D02*
X106684354Y-114120000D01*
X107213990Y-114013990D02*
X106790364Y-114013990D01*
X107409000Y-114209000D02*
X107213990Y-114013990D01*
X106684354Y-114885500D02*
X106684354Y-118975646D01*
X106684354Y-118975646D02*
X106133511Y-119526489D01*
X106533490Y-114734636D02*
X106684354Y-114885500D01*
X106533490Y-114270864D02*
X106533490Y-114734636D01*
X106684354Y-114120000D02*
X106533490Y-114270864D01*
X106133511Y-119526489D02*
X105233511Y-119526489D01*
X105233511Y-119526489D02*
X105170000Y-119590000D01*
X105170000Y-119590000D02*
X104380000Y-119590000D01*
X104380000Y-119590000D02*
X104290000Y-119500000D01*
X104290000Y-119500000D02*
X103820000Y-119500000D01*
X103820000Y-119500000D02*
X103650000Y-119670000D01*
X102588359Y-119670000D02*
X102330000Y-119928359D01*
X103650000Y-119670000D02*
X102588359Y-119670000D01*
X101883248Y-120390000D02*
X101820000Y-120390000D01*
X102217523Y-120055725D02*
X101883248Y-120390000D01*
X102217523Y-120012477D02*
X102217523Y-120055725D01*
X102330000Y-119928359D02*
X102301641Y-119928359D01*
X102301641Y-119928359D02*
X102217523Y-120012477D01*
%TO.N,/A6*%
X115240000Y-112700000D02*
X115240000Y-112867321D01*
X115240000Y-112867321D02*
X113506000Y-114601321D01*
X113506000Y-114601321D02*
X113506000Y-118201000D01*
D20*
X113506000Y-118201000D02*
X113506000Y-118144000D01*
%TO.N,/A7*%
X111914000Y-118641000D02*
X111915000Y-118642000D01*
D21*
X115240000Y-110160000D02*
X114061952Y-111338048D01*
X114061952Y-113582906D02*
X113067489Y-114577369D01*
X113067489Y-114577369D02*
X113067489Y-118144529D01*
X113067489Y-118144529D02*
X112571018Y-118641000D01*
X114061952Y-111338048D02*
X114061952Y-113582906D01*
X112571018Y-118641000D02*
X111914000Y-118641000D01*
%TO.N,/A5*%
X115240000Y-115240000D02*
X115240009Y-115239991D01*
%TO.N,/A0_FRAM_CS*%
X102799001Y-126642019D02*
X103589379Y-127432397D01*
X102799001Y-124079999D02*
X102799001Y-126642019D01*
X104841000Y-122038000D02*
X102799001Y-124079999D01*
X104841000Y-121266000D02*
X104841000Y-122038000D01*
X103589379Y-127432397D02*
X103589379Y-127666977D01*
D20*
X104841000Y-121266000D02*
X104841000Y-121312000D01*
%TO.N,/B3_SCK*%
X110245000Y-136635000D02*
X110166000Y-136635000D01*
D21*
X101478999Y-127806999D02*
X101254000Y-127582000D01*
X101684000Y-128012000D02*
X101478999Y-127806999D01*
X101947501Y-131779519D02*
X101684000Y-131516018D01*
X101684000Y-131516018D02*
X101684000Y-128012000D01*
X101947501Y-133612499D02*
X101947501Y-131779519D01*
X100000000Y-135560000D02*
X101947501Y-133612499D01*
X101202081Y-135560000D02*
X102174999Y-136532918D01*
X102174999Y-139141001D02*
X101442000Y-139874000D01*
X100000000Y-135560000D02*
X101202081Y-135560000D01*
X102174999Y-136532918D02*
X102174999Y-139141001D01*
D25*
%TO.N,/B5_MOSI*%
X104994000Y-117140000D02*
X104993000Y-117140000D01*
D20*
X104025000Y-139668000D02*
X104113000Y-139668000D01*
D21*
X107403000Y-139633000D02*
X109040000Y-137996000D01*
X104148000Y-139633000D02*
X107403000Y-139633000D01*
X104113000Y-139668000D02*
X104148000Y-139633000D01*
%TD*%
D26*
%TO.N,GND*%
G36*
X103440507Y-130835808D02*
G01*
X103341463Y-130835808D01*
X103229602Y-130858058D01*
X103124230Y-130901704D01*
X103029399Y-130965069D01*
X102948751Y-131045717D01*
X102885386Y-131140548D01*
X102841740Y-131245920D01*
X102819490Y-131357781D01*
X102819490Y-131471835D01*
X102841740Y-131583696D01*
X102885386Y-131689068D01*
X102948751Y-131783899D01*
X103029399Y-131864547D01*
X103124230Y-131927912D01*
X103229602Y-131971558D01*
X103341463Y-131993808D01*
X103455517Y-131993808D01*
X103458222Y-131993270D01*
X103470421Y-132033483D01*
X103509189Y-132106013D01*
X103548287Y-132153655D01*
X103548295Y-132153663D01*
X103561362Y-132169585D01*
X103577284Y-132182652D01*
X108844579Y-137449947D01*
X108766240Y-137482396D01*
X108671409Y-137545761D01*
X108590761Y-137626409D01*
X108527396Y-137721240D01*
X108483750Y-137826612D01*
X108461500Y-137938473D01*
X108461500Y-137984066D01*
X107558363Y-138887203D01*
X107516739Y-138824909D01*
X107436091Y-138744261D01*
X107341260Y-138680896D01*
X107235888Y-138637250D01*
X107124027Y-138615000D01*
X107009973Y-138615000D01*
X106898112Y-138637250D01*
X106792740Y-138680896D01*
X106697909Y-138744261D01*
X106617261Y-138824909D01*
X106553896Y-138919740D01*
X106510250Y-139025112D01*
X106488000Y-139136973D01*
X106488000Y-139215500D01*
X104474309Y-139215500D01*
X104436231Y-139184250D01*
X104335646Y-139130486D01*
X104226504Y-139097378D01*
X104141439Y-139089000D01*
X103996561Y-139089000D01*
X103911496Y-139097378D01*
X103802354Y-139130486D01*
X103701769Y-139184250D01*
X103613605Y-139256605D01*
X103541250Y-139344769D01*
X103487486Y-139445354D01*
X103454378Y-139554496D01*
X103443199Y-139668000D01*
X103454378Y-139781504D01*
X103487486Y-139890646D01*
X103541250Y-139991231D01*
X103613605Y-140079395D01*
X103701769Y-140151750D01*
X103802354Y-140205514D01*
X103911496Y-140238622D01*
X103996561Y-140247000D01*
X104141439Y-140247000D01*
X104226504Y-140238622D01*
X104335646Y-140205514D01*
X104436231Y-140151750D01*
X104524395Y-140079395D01*
X104548109Y-140050500D01*
X107382498Y-140050500D01*
X107403000Y-140052519D01*
X107423502Y-140050500D01*
X107423509Y-140050500D01*
X107484844Y-140044459D01*
X107563543Y-140020586D01*
X107636073Y-139981818D01*
X107699645Y-139929645D01*
X107712719Y-139913715D01*
X109051934Y-138574500D01*
X109097527Y-138574500D01*
X109209388Y-138552250D01*
X109314760Y-138508604D01*
X109409591Y-138445239D01*
X109490239Y-138364591D01*
X109553604Y-138269760D01*
X109597250Y-138164388D01*
X109619500Y-138052527D01*
X109619500Y-137938473D01*
X109597250Y-137826612D01*
X109553604Y-137721240D01*
X109490239Y-137626409D01*
X109463329Y-137599499D01*
X112973499Y-137599499D01*
X112994001Y-137601518D01*
X113014503Y-137599499D01*
X113014510Y-137599499D01*
X113075845Y-137593458D01*
X113154544Y-137569585D01*
X113217377Y-137536000D01*
X113276027Y-137536000D01*
X113387888Y-137513750D01*
X113493260Y-137470104D01*
X113588091Y-137406739D01*
X113668739Y-137326091D01*
X113732104Y-137231260D01*
X113775750Y-137125888D01*
X113798000Y-137014027D01*
X113798000Y-136899973D01*
X113775750Y-136788112D01*
X113732104Y-136682740D01*
X113668739Y-136587909D01*
X113588091Y-136507261D01*
X113493260Y-136443896D01*
X113387888Y-136400250D01*
X113276027Y-136378000D01*
X113161973Y-136378000D01*
X113050112Y-136400250D01*
X112944740Y-136443896D01*
X112849909Y-136507261D01*
X112769261Y-136587909D01*
X112705896Y-136682740D01*
X112672031Y-136764499D01*
X110810770Y-136764499D01*
X110815622Y-136748504D01*
X110826801Y-136635000D01*
X110815622Y-136521496D01*
X110782514Y-136412354D01*
X110728750Y-136311769D01*
X110656395Y-136223605D01*
X110568231Y-136151250D01*
X110467646Y-136097486D01*
X110358504Y-136064378D01*
X110273439Y-136056000D01*
X110137561Y-136056000D01*
X110052496Y-136064378D01*
X109943354Y-136097486D01*
X109842769Y-136151250D01*
X109754605Y-136223605D01*
X109682250Y-136311769D01*
X109628486Y-136412354D01*
X109595378Y-136521496D01*
X109584199Y-136635000D01*
X109595378Y-136748504D01*
X109600230Y-136764499D01*
X109339999Y-136764499D01*
X105248450Y-132672950D01*
X105305510Y-132672950D01*
X105326012Y-132674969D01*
X105346514Y-132672950D01*
X105346521Y-132672950D01*
X105407856Y-132666909D01*
X105486555Y-132643036D01*
X105559085Y-132604268D01*
X105593498Y-132576025D01*
X105606727Y-132565169D01*
X105606729Y-132565167D01*
X105622657Y-132552095D01*
X105635729Y-132536167D01*
X106109032Y-132062864D01*
X106143261Y-132114091D01*
X106223909Y-132194739D01*
X106318740Y-132258104D01*
X106424112Y-132301750D01*
X106535973Y-132324000D01*
X106650027Y-132324000D01*
X106761888Y-132301750D01*
X106867260Y-132258104D01*
X106962091Y-132194739D01*
X107042739Y-132114091D01*
X107106104Y-132019260D01*
X107149750Y-131913888D01*
X107172000Y-131802027D01*
X107172000Y-131687973D01*
X107149750Y-131576112D01*
X107135837Y-131542522D01*
X108552088Y-131542522D01*
X112798283Y-135788717D01*
X112811355Y-135804645D01*
X112874927Y-135856818D01*
X112947457Y-135895586D01*
X112998910Y-135911194D01*
X113026155Y-135919459D01*
X113033698Y-135920202D01*
X113087491Y-135925500D01*
X113087498Y-135925500D01*
X113108000Y-135927519D01*
X113128502Y-135925500D01*
X113215670Y-135925500D01*
X113247909Y-135957739D01*
X113342740Y-136021104D01*
X113448112Y-136064750D01*
X113559973Y-136087000D01*
X113674027Y-136087000D01*
X113785888Y-136064750D01*
X113891260Y-136021104D01*
X113986091Y-135957739D01*
X114066739Y-135877091D01*
X114073479Y-135867004D01*
X114082269Y-135911194D01*
X114173029Y-136130308D01*
X114304792Y-136327505D01*
X114472495Y-136495208D01*
X114669692Y-136626971D01*
X114888806Y-136717731D01*
X115121416Y-136764000D01*
X115358584Y-136764000D01*
X115591194Y-136717731D01*
X115810308Y-136626971D01*
X116007505Y-136495208D01*
X116131000Y-136371713D01*
X116131000Y-137288287D01*
X116007505Y-137164792D01*
X115810308Y-137033029D01*
X115591194Y-136942269D01*
X115358584Y-136896000D01*
X115121416Y-136896000D01*
X114888806Y-136942269D01*
X114669692Y-137033029D01*
X114472495Y-137164792D01*
X114304792Y-137332495D01*
X114173029Y-137529692D01*
X114082269Y-137748806D01*
X114036000Y-137981416D01*
X114036000Y-138218584D01*
X114082269Y-138451194D01*
X114173029Y-138670308D01*
X114304792Y-138867505D01*
X114472495Y-139035208D01*
X114669692Y-139166971D01*
X114888806Y-139257731D01*
X115121416Y-139304000D01*
X115358584Y-139304000D01*
X115591194Y-139257731D01*
X115810308Y-139166971D01*
X116007505Y-139035208D01*
X116131000Y-138911713D01*
X116131001Y-139828288D01*
X116007505Y-139704792D01*
X115810308Y-139573029D01*
X115591194Y-139482269D01*
X115358584Y-139436000D01*
X115121416Y-139436000D01*
X114888806Y-139482269D01*
X114669692Y-139573029D01*
X114472495Y-139704792D01*
X114304792Y-139872495D01*
X114173029Y-140069692D01*
X114082269Y-140288806D01*
X114036000Y-140521416D01*
X114036000Y-140758584D01*
X114082269Y-140991194D01*
X114173029Y-141210308D01*
X114304792Y-141407505D01*
X114472495Y-141575208D01*
X114669692Y-141706971D01*
X114888806Y-141797731D01*
X115121416Y-141844000D01*
X115358584Y-141844000D01*
X115591194Y-141797731D01*
X115810308Y-141706971D01*
X116007505Y-141575208D01*
X116131001Y-141451712D01*
X116131001Y-142368288D01*
X116007505Y-142244792D01*
X115810308Y-142113029D01*
X115591194Y-142022269D01*
X115358584Y-141976000D01*
X115121416Y-141976000D01*
X114888806Y-142022269D01*
X114669692Y-142113029D01*
X114472495Y-142244792D01*
X114304792Y-142412495D01*
X114173029Y-142609692D01*
X114082269Y-142828806D01*
X114036000Y-143061416D01*
X114036000Y-143298584D01*
X114082269Y-143531194D01*
X114173029Y-143750308D01*
X114304792Y-143947505D01*
X114472495Y-144115208D01*
X114669692Y-144246971D01*
X114888806Y-144337731D01*
X115121416Y-144384000D01*
X115358584Y-144384000D01*
X115591194Y-144337731D01*
X115810308Y-144246971D01*
X116007505Y-144115208D01*
X116131001Y-143991712D01*
X116131001Y-144908288D01*
X116007505Y-144784792D01*
X115810308Y-144653029D01*
X115591194Y-144562269D01*
X115358584Y-144516000D01*
X115121416Y-144516000D01*
X114888806Y-144562269D01*
X114669692Y-144653029D01*
X114472495Y-144784792D01*
X114304792Y-144952495D01*
X114173029Y-145149692D01*
X114082269Y-145368806D01*
X114036000Y-145601416D01*
X114036000Y-145838584D01*
X114082269Y-146071194D01*
X114173029Y-146290308D01*
X114304792Y-146487505D01*
X114428287Y-146611000D01*
X100811713Y-146611000D01*
X100935208Y-146487505D01*
X101066971Y-146290308D01*
X101157731Y-146071194D01*
X101204000Y-145838584D01*
X101204000Y-145601416D01*
X101157731Y-145368806D01*
X101066971Y-145149692D01*
X100935208Y-144952495D01*
X100767505Y-144784792D01*
X100570308Y-144653029D01*
X100351194Y-144562269D01*
X100118584Y-144516000D01*
X99881416Y-144516000D01*
X99648806Y-144562269D01*
X99429692Y-144653029D01*
X99232495Y-144784792D01*
X99109000Y-144908287D01*
X99109000Y-143991713D01*
X99232495Y-144115208D01*
X99429692Y-144246971D01*
X99648806Y-144337731D01*
X99881416Y-144384000D01*
X100118584Y-144384000D01*
X100351194Y-144337731D01*
X100570308Y-144246971D01*
X100767505Y-144115208D01*
X100935208Y-143947505D01*
X100974986Y-143887973D01*
X106023000Y-143887973D01*
X106023000Y-144002027D01*
X106045250Y-144113888D01*
X106088896Y-144219260D01*
X106152261Y-144314091D01*
X106232909Y-144394739D01*
X106327740Y-144458104D01*
X106433112Y-144501750D01*
X106544973Y-144524000D01*
X106659027Y-144524000D01*
X106770888Y-144501750D01*
X106876260Y-144458104D01*
X106971091Y-144394739D01*
X107051739Y-144314091D01*
X107115104Y-144219260D01*
X107158750Y-144113888D01*
X107181000Y-144002027D01*
X107181000Y-143887973D01*
X107158750Y-143776112D01*
X107115104Y-143670740D01*
X107051739Y-143575909D01*
X106971091Y-143495261D01*
X106876260Y-143431896D01*
X106770888Y-143388250D01*
X106659027Y-143366000D01*
X106544973Y-143366000D01*
X106433112Y-143388250D01*
X106327740Y-143431896D01*
X106232909Y-143495261D01*
X106152261Y-143575909D01*
X106088896Y-143670740D01*
X106045250Y-143776112D01*
X106023000Y-143887973D01*
X100974986Y-143887973D01*
X101066971Y-143750308D01*
X101157731Y-143531194D01*
X101204000Y-143298584D01*
X101204000Y-143061416D01*
X101157731Y-142828806D01*
X101066971Y-142609692D01*
X100935208Y-142412495D01*
X100767505Y-142244792D01*
X100570308Y-142113029D01*
X100351194Y-142022269D01*
X100118584Y-141976000D01*
X99881416Y-141976000D01*
X99648806Y-142022269D01*
X99429692Y-142113029D01*
X99232495Y-142244792D01*
X99109000Y-142368287D01*
X99109000Y-141451713D01*
X99232495Y-141575208D01*
X99429692Y-141706971D01*
X99648806Y-141797731D01*
X99881416Y-141844000D01*
X100118584Y-141844000D01*
X100351194Y-141797731D01*
X100570308Y-141706971D01*
X100767505Y-141575208D01*
X100935208Y-141407505D01*
X101066971Y-141210308D01*
X101157731Y-140991194D01*
X101204000Y-140758584D01*
X101204000Y-140521416D01*
X101178141Y-140391412D01*
X101273112Y-140430750D01*
X101384973Y-140453000D01*
X101499027Y-140453000D01*
X101610888Y-140430750D01*
X101716260Y-140387104D01*
X101811091Y-140323739D01*
X101891739Y-140243091D01*
X101955104Y-140148260D01*
X101998750Y-140042888D01*
X102021000Y-139931027D01*
X102021000Y-139885434D01*
X102455722Y-139450713D01*
X102471644Y-139437646D01*
X102484711Y-139421724D01*
X102484718Y-139421717D01*
X102523816Y-139374075D01*
X102529796Y-139362888D01*
X102562585Y-139301544D01*
X102586458Y-139222845D01*
X102592499Y-139161510D01*
X102592499Y-139161501D01*
X102594518Y-139141002D01*
X102592499Y-139120503D01*
X102592499Y-136553420D01*
X102594518Y-136532918D01*
X102592499Y-136512416D01*
X102592499Y-136512409D01*
X102586458Y-136451074D01*
X102562585Y-136372375D01*
X102523817Y-136299845D01*
X102471644Y-136236273D01*
X102455717Y-136223202D01*
X101540488Y-135307973D01*
X102884000Y-135307973D01*
X102884000Y-135422027D01*
X102906250Y-135533888D01*
X102949896Y-135639260D01*
X103013261Y-135734091D01*
X103093909Y-135814739D01*
X103188740Y-135878104D01*
X103294112Y-135921750D01*
X103405973Y-135944000D01*
X103520027Y-135944000D01*
X103631888Y-135921750D01*
X103737260Y-135878104D01*
X103832091Y-135814739D01*
X103912739Y-135734091D01*
X103976104Y-135639260D01*
X104019750Y-135533888D01*
X104042000Y-135422027D01*
X104042000Y-135307973D01*
X104019750Y-135196112D01*
X103976104Y-135090740D01*
X103912739Y-134995909D01*
X103832091Y-134915261D01*
X103737260Y-134851896D01*
X103631888Y-134808250D01*
X103520027Y-134786000D01*
X103405973Y-134786000D01*
X103294112Y-134808250D01*
X103188740Y-134851896D01*
X103093909Y-134915261D01*
X103013261Y-134995909D01*
X102949896Y-135090740D01*
X102906250Y-135196112D01*
X102884000Y-135307973D01*
X101540488Y-135307973D01*
X101511798Y-135279283D01*
X101498726Y-135263355D01*
X101435154Y-135211182D01*
X101362624Y-135172414D01*
X101283925Y-135148541D01*
X101222590Y-135142500D01*
X101222583Y-135142500D01*
X101202081Y-135140481D01*
X101181579Y-135142500D01*
X101130266Y-135142500D01*
X101094436Y-135055998D01*
X102228219Y-133922215D01*
X102244146Y-133909144D01*
X102296319Y-133845572D01*
X102335087Y-133773042D01*
X102358960Y-133694343D01*
X102365001Y-133633008D01*
X102365001Y-133632999D01*
X102367020Y-133612500D01*
X102365001Y-133592001D01*
X102365001Y-131800021D01*
X102367020Y-131779519D01*
X102365001Y-131759017D01*
X102365001Y-131759010D01*
X102358960Y-131697675D01*
X102335087Y-131618976D01*
X102296319Y-131546446D01*
X102244146Y-131482874D01*
X102228213Y-131469798D01*
X102101500Y-131343084D01*
X102101500Y-130640000D01*
X103440507Y-130640000D01*
X103440507Y-130835808D01*
G37*
X103440507Y-130835808D02*
X103341463Y-130835808D01*
X103229602Y-130858058D01*
X103124230Y-130901704D01*
X103029399Y-130965069D01*
X102948751Y-131045717D01*
X102885386Y-131140548D01*
X102841740Y-131245920D01*
X102819490Y-131357781D01*
X102819490Y-131471835D01*
X102841740Y-131583696D01*
X102885386Y-131689068D01*
X102948751Y-131783899D01*
X103029399Y-131864547D01*
X103124230Y-131927912D01*
X103229602Y-131971558D01*
X103341463Y-131993808D01*
X103455517Y-131993808D01*
X103458222Y-131993270D01*
X103470421Y-132033483D01*
X103509189Y-132106013D01*
X103548287Y-132153655D01*
X103548295Y-132153663D01*
X103561362Y-132169585D01*
X103577284Y-132182652D01*
X108844579Y-137449947D01*
X108766240Y-137482396D01*
X108671409Y-137545761D01*
X108590761Y-137626409D01*
X108527396Y-137721240D01*
X108483750Y-137826612D01*
X108461500Y-137938473D01*
X108461500Y-137984066D01*
X107558363Y-138887203D01*
X107516739Y-138824909D01*
X107436091Y-138744261D01*
X107341260Y-138680896D01*
X107235888Y-138637250D01*
X107124027Y-138615000D01*
X107009973Y-138615000D01*
X106898112Y-138637250D01*
X106792740Y-138680896D01*
X106697909Y-138744261D01*
X106617261Y-138824909D01*
X106553896Y-138919740D01*
X106510250Y-139025112D01*
X106488000Y-139136973D01*
X106488000Y-139215500D01*
X104474309Y-139215500D01*
X104436231Y-139184250D01*
X104335646Y-139130486D01*
X104226504Y-139097378D01*
X104141439Y-139089000D01*
X103996561Y-139089000D01*
X103911496Y-139097378D01*
X103802354Y-139130486D01*
X103701769Y-139184250D01*
X103613605Y-139256605D01*
X103541250Y-139344769D01*
X103487486Y-139445354D01*
X103454378Y-139554496D01*
X103443199Y-139668000D01*
X103454378Y-139781504D01*
X103487486Y-139890646D01*
X103541250Y-139991231D01*
X103613605Y-140079395D01*
X103701769Y-140151750D01*
X103802354Y-140205514D01*
X103911496Y-140238622D01*
X103996561Y-140247000D01*
X104141439Y-140247000D01*
X104226504Y-140238622D01*
X104335646Y-140205514D01*
X104436231Y-140151750D01*
X104524395Y-140079395D01*
X104548109Y-140050500D01*
X107382498Y-140050500D01*
X107403000Y-140052519D01*
X107423502Y-140050500D01*
X107423509Y-140050500D01*
X107484844Y-140044459D01*
X107563543Y-140020586D01*
X107636073Y-139981818D01*
X107699645Y-139929645D01*
X107712719Y-139913715D01*
X109051934Y-138574500D01*
X109097527Y-138574500D01*
X109209388Y-138552250D01*
X109314760Y-138508604D01*
X109409591Y-138445239D01*
X109490239Y-138364591D01*
X109553604Y-138269760D01*
X109597250Y-138164388D01*
X109619500Y-138052527D01*
X109619500Y-137938473D01*
X109597250Y-137826612D01*
X109553604Y-137721240D01*
X109490239Y-137626409D01*
X109463329Y-137599499D01*
X112973499Y-137599499D01*
X112994001Y-137601518D01*
X113014503Y-137599499D01*
X113014510Y-137599499D01*
X113075845Y-137593458D01*
X113154544Y-137569585D01*
X113217377Y-137536000D01*
X113276027Y-137536000D01*
X113387888Y-137513750D01*
X113493260Y-137470104D01*
X113588091Y-137406739D01*
X113668739Y-137326091D01*
X113732104Y-137231260D01*
X113775750Y-137125888D01*
X113798000Y-137014027D01*
X113798000Y-136899973D01*
X113775750Y-136788112D01*
X113732104Y-136682740D01*
X113668739Y-136587909D01*
X113588091Y-136507261D01*
X113493260Y-136443896D01*
X113387888Y-136400250D01*
X113276027Y-136378000D01*
X113161973Y-136378000D01*
X113050112Y-136400250D01*
X112944740Y-136443896D01*
X112849909Y-136507261D01*
X112769261Y-136587909D01*
X112705896Y-136682740D01*
X112672031Y-136764499D01*
X110810770Y-136764499D01*
X110815622Y-136748504D01*
X110826801Y-136635000D01*
X110815622Y-136521496D01*
X110782514Y-136412354D01*
X110728750Y-136311769D01*
X110656395Y-136223605D01*
X110568231Y-136151250D01*
X110467646Y-136097486D01*
X110358504Y-136064378D01*
X110273439Y-136056000D01*
X110137561Y-136056000D01*
X110052496Y-136064378D01*
X109943354Y-136097486D01*
X109842769Y-136151250D01*
X109754605Y-136223605D01*
X109682250Y-136311769D01*
X109628486Y-136412354D01*
X109595378Y-136521496D01*
X109584199Y-136635000D01*
X109595378Y-136748504D01*
X109600230Y-136764499D01*
X109339999Y-136764499D01*
X105248450Y-132672950D01*
X105305510Y-132672950D01*
X105326012Y-132674969D01*
X105346514Y-132672950D01*
X105346521Y-132672950D01*
X105407856Y-132666909D01*
X105486555Y-132643036D01*
X105559085Y-132604268D01*
X105593498Y-132576025D01*
X105606727Y-132565169D01*
X105606729Y-132565167D01*
X105622657Y-132552095D01*
X105635729Y-132536167D01*
X106109032Y-132062864D01*
X106143261Y-132114091D01*
X106223909Y-132194739D01*
X106318740Y-132258104D01*
X106424112Y-132301750D01*
X106535973Y-132324000D01*
X106650027Y-132324000D01*
X106761888Y-132301750D01*
X106867260Y-132258104D01*
X106962091Y-132194739D01*
X107042739Y-132114091D01*
X107106104Y-132019260D01*
X107149750Y-131913888D01*
X107172000Y-131802027D01*
X107172000Y-131687973D01*
X107149750Y-131576112D01*
X107135837Y-131542522D01*
X108552088Y-131542522D01*
X112798283Y-135788717D01*
X112811355Y-135804645D01*
X112874927Y-135856818D01*
X112947457Y-135895586D01*
X112998910Y-135911194D01*
X113026155Y-135919459D01*
X113033698Y-135920202D01*
X113087491Y-135925500D01*
X113087498Y-135925500D01*
X113108000Y-135927519D01*
X113128502Y-135925500D01*
X113215670Y-135925500D01*
X113247909Y-135957739D01*
X113342740Y-136021104D01*
X113448112Y-136064750D01*
X113559973Y-136087000D01*
X113674027Y-136087000D01*
X113785888Y-136064750D01*
X113891260Y-136021104D01*
X113986091Y-135957739D01*
X114066739Y-135877091D01*
X114073479Y-135867004D01*
X114082269Y-135911194D01*
X114173029Y-136130308D01*
X114304792Y-136327505D01*
X114472495Y-136495208D01*
X114669692Y-136626971D01*
X114888806Y-136717731D01*
X115121416Y-136764000D01*
X115358584Y-136764000D01*
X115591194Y-136717731D01*
X115810308Y-136626971D01*
X116007505Y-136495208D01*
X116131000Y-136371713D01*
X116131000Y-137288287D01*
X116007505Y-137164792D01*
X115810308Y-137033029D01*
X115591194Y-136942269D01*
X115358584Y-136896000D01*
X115121416Y-136896000D01*
X114888806Y-136942269D01*
X114669692Y-137033029D01*
X114472495Y-137164792D01*
X114304792Y-137332495D01*
X114173029Y-137529692D01*
X114082269Y-137748806D01*
X114036000Y-137981416D01*
X114036000Y-138218584D01*
X114082269Y-138451194D01*
X114173029Y-138670308D01*
X114304792Y-138867505D01*
X114472495Y-139035208D01*
X114669692Y-139166971D01*
X114888806Y-139257731D01*
X115121416Y-139304000D01*
X115358584Y-139304000D01*
X115591194Y-139257731D01*
X115810308Y-139166971D01*
X116007505Y-139035208D01*
X116131000Y-138911713D01*
X116131001Y-139828288D01*
X116007505Y-139704792D01*
X115810308Y-139573029D01*
X115591194Y-139482269D01*
X115358584Y-139436000D01*
X115121416Y-139436000D01*
X114888806Y-139482269D01*
X114669692Y-139573029D01*
X114472495Y-139704792D01*
X114304792Y-139872495D01*
X114173029Y-140069692D01*
X114082269Y-140288806D01*
X114036000Y-140521416D01*
X114036000Y-140758584D01*
X114082269Y-140991194D01*
X114173029Y-141210308D01*
X114304792Y-141407505D01*
X114472495Y-141575208D01*
X114669692Y-141706971D01*
X114888806Y-141797731D01*
X115121416Y-141844000D01*
X115358584Y-141844000D01*
X115591194Y-141797731D01*
X115810308Y-141706971D01*
X116007505Y-141575208D01*
X116131001Y-141451712D01*
X116131001Y-142368288D01*
X116007505Y-142244792D01*
X115810308Y-142113029D01*
X115591194Y-142022269D01*
X115358584Y-141976000D01*
X115121416Y-141976000D01*
X114888806Y-142022269D01*
X114669692Y-142113029D01*
X114472495Y-142244792D01*
X114304792Y-142412495D01*
X114173029Y-142609692D01*
X114082269Y-142828806D01*
X114036000Y-143061416D01*
X114036000Y-143298584D01*
X114082269Y-143531194D01*
X114173029Y-143750308D01*
X114304792Y-143947505D01*
X114472495Y-144115208D01*
X114669692Y-144246971D01*
X114888806Y-144337731D01*
X115121416Y-144384000D01*
X115358584Y-144384000D01*
X115591194Y-144337731D01*
X115810308Y-144246971D01*
X116007505Y-144115208D01*
X116131001Y-143991712D01*
X116131001Y-144908288D01*
X116007505Y-144784792D01*
X115810308Y-144653029D01*
X115591194Y-144562269D01*
X115358584Y-144516000D01*
X115121416Y-144516000D01*
X114888806Y-144562269D01*
X114669692Y-144653029D01*
X114472495Y-144784792D01*
X114304792Y-144952495D01*
X114173029Y-145149692D01*
X114082269Y-145368806D01*
X114036000Y-145601416D01*
X114036000Y-145838584D01*
X114082269Y-146071194D01*
X114173029Y-146290308D01*
X114304792Y-146487505D01*
X114428287Y-146611000D01*
X100811713Y-146611000D01*
X100935208Y-146487505D01*
X101066971Y-146290308D01*
X101157731Y-146071194D01*
X101204000Y-145838584D01*
X101204000Y-145601416D01*
X101157731Y-145368806D01*
X101066971Y-145149692D01*
X100935208Y-144952495D01*
X100767505Y-144784792D01*
X100570308Y-144653029D01*
X100351194Y-144562269D01*
X100118584Y-144516000D01*
X99881416Y-144516000D01*
X99648806Y-144562269D01*
X99429692Y-144653029D01*
X99232495Y-144784792D01*
X99109000Y-144908287D01*
X99109000Y-143991713D01*
X99232495Y-144115208D01*
X99429692Y-144246971D01*
X99648806Y-144337731D01*
X99881416Y-144384000D01*
X100118584Y-144384000D01*
X100351194Y-144337731D01*
X100570308Y-144246971D01*
X100767505Y-144115208D01*
X100935208Y-143947505D01*
X100974986Y-143887973D01*
X106023000Y-143887973D01*
X106023000Y-144002027D01*
X106045250Y-144113888D01*
X106088896Y-144219260D01*
X106152261Y-144314091D01*
X106232909Y-144394739D01*
X106327740Y-144458104D01*
X106433112Y-144501750D01*
X106544973Y-144524000D01*
X106659027Y-144524000D01*
X106770888Y-144501750D01*
X106876260Y-144458104D01*
X106971091Y-144394739D01*
X107051739Y-144314091D01*
X107115104Y-144219260D01*
X107158750Y-144113888D01*
X107181000Y-144002027D01*
X107181000Y-143887973D01*
X107158750Y-143776112D01*
X107115104Y-143670740D01*
X107051739Y-143575909D01*
X106971091Y-143495261D01*
X106876260Y-143431896D01*
X106770888Y-143388250D01*
X106659027Y-143366000D01*
X106544973Y-143366000D01*
X106433112Y-143388250D01*
X106327740Y-143431896D01*
X106232909Y-143495261D01*
X106152261Y-143575909D01*
X106088896Y-143670740D01*
X106045250Y-143776112D01*
X106023000Y-143887973D01*
X100974986Y-143887973D01*
X101066971Y-143750308D01*
X101157731Y-143531194D01*
X101204000Y-143298584D01*
X101204000Y-143061416D01*
X101157731Y-142828806D01*
X101066971Y-142609692D01*
X100935208Y-142412495D01*
X100767505Y-142244792D01*
X100570308Y-142113029D01*
X100351194Y-142022269D01*
X100118584Y-141976000D01*
X99881416Y-141976000D01*
X99648806Y-142022269D01*
X99429692Y-142113029D01*
X99232495Y-142244792D01*
X99109000Y-142368287D01*
X99109000Y-141451713D01*
X99232495Y-141575208D01*
X99429692Y-141706971D01*
X99648806Y-141797731D01*
X99881416Y-141844000D01*
X100118584Y-141844000D01*
X100351194Y-141797731D01*
X100570308Y-141706971D01*
X100767505Y-141575208D01*
X100935208Y-141407505D01*
X101066971Y-141210308D01*
X101157731Y-140991194D01*
X101204000Y-140758584D01*
X101204000Y-140521416D01*
X101178141Y-140391412D01*
X101273112Y-140430750D01*
X101384973Y-140453000D01*
X101499027Y-140453000D01*
X101610888Y-140430750D01*
X101716260Y-140387104D01*
X101811091Y-140323739D01*
X101891739Y-140243091D01*
X101955104Y-140148260D01*
X101998750Y-140042888D01*
X102021000Y-139931027D01*
X102021000Y-139885434D01*
X102455722Y-139450713D01*
X102471644Y-139437646D01*
X102484711Y-139421724D01*
X102484718Y-139421717D01*
X102523816Y-139374075D01*
X102529796Y-139362888D01*
X102562585Y-139301544D01*
X102586458Y-139222845D01*
X102592499Y-139161510D01*
X102592499Y-139161501D01*
X102594518Y-139141002D01*
X102592499Y-139120503D01*
X102592499Y-136553420D01*
X102594518Y-136532918D01*
X102592499Y-136512416D01*
X102592499Y-136512409D01*
X102586458Y-136451074D01*
X102562585Y-136372375D01*
X102523817Y-136299845D01*
X102471644Y-136236273D01*
X102455717Y-136223202D01*
X101540488Y-135307973D01*
X102884000Y-135307973D01*
X102884000Y-135422027D01*
X102906250Y-135533888D01*
X102949896Y-135639260D01*
X103013261Y-135734091D01*
X103093909Y-135814739D01*
X103188740Y-135878104D01*
X103294112Y-135921750D01*
X103405973Y-135944000D01*
X103520027Y-135944000D01*
X103631888Y-135921750D01*
X103737260Y-135878104D01*
X103832091Y-135814739D01*
X103912739Y-135734091D01*
X103976104Y-135639260D01*
X104019750Y-135533888D01*
X104042000Y-135422027D01*
X104042000Y-135307973D01*
X104019750Y-135196112D01*
X103976104Y-135090740D01*
X103912739Y-134995909D01*
X103832091Y-134915261D01*
X103737260Y-134851896D01*
X103631888Y-134808250D01*
X103520027Y-134786000D01*
X103405973Y-134786000D01*
X103294112Y-134808250D01*
X103188740Y-134851896D01*
X103093909Y-134915261D01*
X103013261Y-134995909D01*
X102949896Y-135090740D01*
X102906250Y-135196112D01*
X102884000Y-135307973D01*
X101540488Y-135307973D01*
X101511798Y-135279283D01*
X101498726Y-135263355D01*
X101435154Y-135211182D01*
X101362624Y-135172414D01*
X101283925Y-135148541D01*
X101222590Y-135142500D01*
X101222583Y-135142500D01*
X101202081Y-135140481D01*
X101181579Y-135142500D01*
X101130266Y-135142500D01*
X101094436Y-135055998D01*
X102228219Y-133922215D01*
X102244146Y-133909144D01*
X102296319Y-133845572D01*
X102335087Y-133773042D01*
X102358960Y-133694343D01*
X102365001Y-133633008D01*
X102365001Y-133632999D01*
X102367020Y-133612500D01*
X102365001Y-133592001D01*
X102365001Y-131800021D01*
X102367020Y-131779519D01*
X102365001Y-131759017D01*
X102365001Y-131759010D01*
X102358960Y-131697675D01*
X102335087Y-131618976D01*
X102296319Y-131546446D01*
X102244146Y-131482874D01*
X102228213Y-131469798D01*
X102101500Y-131343084D01*
X102101500Y-130640000D01*
X103440507Y-130640000D01*
X103440507Y-130835808D01*
G36*
X105565087Y-120443176D02*
G01*
X105577368Y-120561517D01*
X105612500Y-120675189D01*
X105665606Y-120774543D01*
X105786826Y-120786990D01*
X106133816Y-120440000D01*
X106119674Y-120425858D01*
X106157858Y-120387674D01*
X106172000Y-120401816D01*
X106186142Y-120387674D01*
X106224326Y-120425858D01*
X106210184Y-120440000D01*
X106224326Y-120454142D01*
X106186142Y-120492326D01*
X106172000Y-120478184D01*
X105825010Y-120825174D01*
X105837457Y-120946394D01*
X105942677Y-121001930D01*
X106056711Y-121035871D01*
X106175176Y-121046913D01*
X106293517Y-121034632D01*
X106407189Y-120999500D01*
X106506543Y-120946394D01*
X106518990Y-120825176D01*
X106568912Y-120875098D01*
X106546515Y-120908618D01*
X106510407Y-120995791D01*
X106492000Y-121088333D01*
X106492000Y-121142000D01*
X106424823Y-121142000D01*
X106332281Y-121160407D01*
X106245108Y-121196515D01*
X106166655Y-121248936D01*
X106099936Y-121315655D01*
X106047515Y-121394108D01*
X106011407Y-121481281D01*
X105993000Y-121573823D01*
X105993000Y-121668177D01*
X106011407Y-121760719D01*
X106047515Y-121847892D01*
X106099936Y-121926345D01*
X106166655Y-121993064D01*
X106245108Y-122045485D01*
X106332281Y-122081593D01*
X106424823Y-122100000D01*
X106519177Y-122100000D01*
X106611719Y-122081593D01*
X106698892Y-122045485D01*
X106777345Y-121993064D01*
X106844064Y-121926345D01*
X106896485Y-121847892D01*
X106932593Y-121760719D01*
X106951000Y-121668177D01*
X106951000Y-121614510D01*
X106992000Y-121614510D01*
X106992000Y-121642177D01*
X107010407Y-121734719D01*
X107046515Y-121821892D01*
X107098936Y-121900345D01*
X107165655Y-121967064D01*
X107244108Y-122019485D01*
X107331281Y-122055593D01*
X107423823Y-122074000D01*
X107518177Y-122074000D01*
X107610719Y-122055593D01*
X107697892Y-122019485D01*
X107776345Y-121967064D01*
X107843064Y-121900345D01*
X107895485Y-121821892D01*
X107931593Y-121734719D01*
X107950000Y-121642177D01*
X107950000Y-121547823D01*
X107931593Y-121455281D01*
X107895485Y-121368108D01*
X107843064Y-121289655D01*
X107776345Y-121222936D01*
X107697892Y-121170515D01*
X107610719Y-121134407D01*
X107518177Y-121116000D01*
X107450000Y-121116000D01*
X107450000Y-121088333D01*
X107431593Y-120995791D01*
X107395485Y-120908618D01*
X107343064Y-120830165D01*
X107276345Y-120763446D01*
X107197892Y-120711025D01*
X107110719Y-120674917D01*
X107018177Y-120656510D01*
X106923823Y-120656510D01*
X106831281Y-120674917D01*
X106744108Y-120711025D01*
X106694382Y-120744251D01*
X106733930Y-120669323D01*
X106767871Y-120555289D01*
X106778913Y-120436824D01*
X106769280Y-120343999D01*
X108124331Y-120343999D01*
X108115087Y-120443176D01*
X108127368Y-120561517D01*
X108162500Y-120675189D01*
X108215606Y-120774543D01*
X108336826Y-120786990D01*
X108683816Y-120440000D01*
X108669674Y-120425858D01*
X108707858Y-120387674D01*
X108722000Y-120401816D01*
X108736142Y-120387674D01*
X108774326Y-120425858D01*
X108760184Y-120440000D01*
X109107174Y-120786990D01*
X109228394Y-120774543D01*
X109283930Y-120669323D01*
X109317871Y-120555289D01*
X109318016Y-120553737D01*
X109330769Y-120564203D01*
X110101249Y-121334683D01*
X110049515Y-121412108D01*
X110013407Y-121499281D01*
X110009585Y-121518496D01*
X109999844Y-121515541D01*
X109938509Y-121509500D01*
X109938502Y-121509500D01*
X109918000Y-121507481D01*
X109897498Y-121509500D01*
X109554000Y-121509500D01*
X109554000Y-121415311D01*
X109545622Y-121330246D01*
X109512514Y-121221104D01*
X109458750Y-121120519D01*
X109386395Y-121032355D01*
X109298230Y-120960000D01*
X109197645Y-120906236D01*
X109088503Y-120873128D01*
X109064311Y-120870745D01*
X109068990Y-120825174D01*
X108722000Y-120478184D01*
X108375010Y-120825174D01*
X108387457Y-120946394D01*
X108492677Y-121001930D01*
X108571934Y-121025520D01*
X108563605Y-121032355D01*
X108491250Y-121120520D01*
X108437486Y-121221105D01*
X108404378Y-121330247D01*
X108396000Y-121415312D01*
X108396000Y-121611689D01*
X108404378Y-121696754D01*
X108437486Y-121805896D01*
X108491250Y-121906481D01*
X108563606Y-121994645D01*
X108651770Y-122067000D01*
X108752355Y-122120764D01*
X108861497Y-122153872D01*
X108975000Y-122165051D01*
X109001050Y-122162485D01*
X109046287Y-122207722D01*
X109059355Y-122223645D01*
X109075277Y-122236712D01*
X109075284Y-122236719D01*
X109102009Y-122258651D01*
X109122927Y-122275818D01*
X109195457Y-122314586D01*
X109245100Y-122329645D01*
X109274155Y-122338459D01*
X109282464Y-122339277D01*
X109335491Y-122344500D01*
X109335497Y-122344500D01*
X109355999Y-122346519D01*
X109376501Y-122344500D01*
X109745066Y-122344500D01*
X110217467Y-122816902D01*
X110125740Y-122854896D01*
X110030909Y-122918261D01*
X109950261Y-122998909D01*
X109886896Y-123093740D01*
X109843250Y-123199112D01*
X109821000Y-123310973D01*
X109821000Y-123425027D01*
X109843250Y-123536888D01*
X109886896Y-123642260D01*
X109950261Y-123737091D01*
X110030909Y-123817739D01*
X110125740Y-123881104D01*
X110231112Y-123924750D01*
X110342973Y-123947000D01*
X110457027Y-123947000D01*
X110568888Y-123924750D01*
X110674260Y-123881104D01*
X110769091Y-123817739D01*
X110849739Y-123737091D01*
X110873387Y-123701700D01*
X110907605Y-123743395D01*
X110995769Y-123815750D01*
X111096354Y-123869514D01*
X111205496Y-123902622D01*
X111290561Y-123911000D01*
X111351439Y-123911000D01*
X111436504Y-123902622D01*
X111545646Y-123869514D01*
X111646231Y-123815750D01*
X111734395Y-123743395D01*
X111806750Y-123655231D01*
X111860514Y-123554646D01*
X111893622Y-123445504D01*
X111904801Y-123332000D01*
X111893622Y-123218496D01*
X111860514Y-123109354D01*
X111806750Y-123008769D01*
X111734395Y-122920605D01*
X111646231Y-122848250D01*
X111545646Y-122794486D01*
X111436504Y-122761378D01*
X111351439Y-122753000D01*
X111334435Y-122753000D01*
X110661313Y-122079879D01*
X110700892Y-122063485D01*
X110778317Y-122011751D01*
X110918349Y-122151783D01*
X110931421Y-122167711D01*
X110947349Y-122180783D01*
X110947350Y-122180784D01*
X110962897Y-122193543D01*
X110994993Y-122219884D01*
X111067523Y-122258652D01*
X111146222Y-122282525D01*
X111207557Y-122288566D01*
X111207566Y-122288566D01*
X111228065Y-122290585D01*
X111248564Y-122288566D01*
X111838925Y-122288566D01*
X111839605Y-122289395D01*
X111927769Y-122361750D01*
X112028354Y-122415514D01*
X112137496Y-122448622D01*
X112222561Y-122457000D01*
X112317439Y-122457000D01*
X112402504Y-122448622D01*
X112511646Y-122415514D01*
X112540602Y-122400036D01*
X113082489Y-122941923D01*
X113082490Y-124101941D01*
X113080470Y-124122452D01*
X113088531Y-124204296D01*
X113112404Y-124282996D01*
X113151172Y-124355525D01*
X113183341Y-124394722D01*
X113203345Y-124419097D01*
X113219273Y-124432169D01*
X113355286Y-124568182D01*
X113319177Y-124561000D01*
X113224823Y-124561000D01*
X113132281Y-124579407D01*
X113045108Y-124615515D01*
X112966655Y-124667936D01*
X112899936Y-124734655D01*
X112847515Y-124813108D01*
X112811407Y-124900281D01*
X112793000Y-124992823D01*
X112793000Y-125087177D01*
X112811407Y-125179719D01*
X112847515Y-125266892D01*
X112899936Y-125345345D01*
X112937049Y-125382458D01*
X112892515Y-125449108D01*
X112856407Y-125536281D01*
X112838000Y-125628823D01*
X112838000Y-125723177D01*
X112856407Y-125815719D01*
X112892515Y-125902892D01*
X112944936Y-125981345D01*
X113011655Y-126048064D01*
X113090108Y-126100485D01*
X113177281Y-126136593D01*
X113269823Y-126155000D01*
X113364177Y-126155000D01*
X113406500Y-126146582D01*
X113406501Y-127845065D01*
X112779282Y-128472284D01*
X112763354Y-128485356D01*
X112750283Y-128501283D01*
X112750280Y-128501286D01*
X112737647Y-128516680D01*
X112711181Y-128548929D01*
X112672413Y-128621459D01*
X112662751Y-128653310D01*
X112648540Y-128700157D01*
X112647816Y-128707505D01*
X112642667Y-128759782D01*
X104950500Y-128759350D01*
X104950500Y-127110973D01*
X111446002Y-127110973D01*
X111446002Y-127225027D01*
X111468252Y-127336888D01*
X111511898Y-127442260D01*
X111575263Y-127537091D01*
X111655911Y-127617739D01*
X111750742Y-127681104D01*
X111856114Y-127724750D01*
X111967975Y-127747000D01*
X112082029Y-127747000D01*
X112193890Y-127724750D01*
X112299262Y-127681104D01*
X112394093Y-127617739D01*
X112474741Y-127537091D01*
X112538106Y-127442260D01*
X112581752Y-127336888D01*
X112604002Y-127225027D01*
X112604002Y-127110973D01*
X112581752Y-126999112D01*
X112538106Y-126893740D01*
X112474741Y-126798909D01*
X112394093Y-126718261D01*
X112299262Y-126654896D01*
X112193890Y-126611250D01*
X112082029Y-126589000D01*
X111967975Y-126589000D01*
X111856114Y-126611250D01*
X111750742Y-126654896D01*
X111655911Y-126718261D01*
X111575263Y-126798909D01*
X111511898Y-126893740D01*
X111468252Y-126999112D01*
X111446002Y-127110973D01*
X104950500Y-127110973D01*
X104950500Y-127063665D01*
X104952519Y-127043166D01*
X104950500Y-127022667D01*
X104950500Y-127022658D01*
X104944459Y-126961323D01*
X104920586Y-126882624D01*
X104881818Y-126810094D01*
X104872639Y-126798909D01*
X104842719Y-126762451D01*
X104842712Y-126762444D01*
X104829645Y-126746522D01*
X104813723Y-126733455D01*
X104459243Y-126378975D01*
X109084000Y-126378975D01*
X109084000Y-126493029D01*
X109106250Y-126604890D01*
X109149896Y-126710262D01*
X109213261Y-126805093D01*
X109293909Y-126885741D01*
X109388740Y-126949106D01*
X109494112Y-126992752D01*
X109605973Y-127015002D01*
X109720027Y-127015002D01*
X109831888Y-126992752D01*
X109937260Y-126949106D01*
X110032091Y-126885741D01*
X110112739Y-126805093D01*
X110176104Y-126710262D01*
X110219750Y-126604890D01*
X110242000Y-126493029D01*
X110242000Y-126378975D01*
X110219750Y-126267114D01*
X110176104Y-126161742D01*
X110112739Y-126066911D01*
X110032091Y-125986263D01*
X109937260Y-125922898D01*
X109831888Y-125879252D01*
X109720027Y-125857002D01*
X109605973Y-125857002D01*
X109494112Y-125879252D01*
X109388740Y-125922898D01*
X109293909Y-125986263D01*
X109213261Y-126066911D01*
X109149896Y-126161742D01*
X109106250Y-126267114D01*
X109084000Y-126378975D01*
X104459243Y-126378975D01*
X103865426Y-125785159D01*
X103852354Y-125769231D01*
X103788782Y-125717058D01*
X103716252Y-125678290D01*
X103648073Y-125657608D01*
X103606602Y-125616137D01*
X103511771Y-125552772D01*
X103406399Y-125509126D01*
X103294538Y-125486876D01*
X103216501Y-125486876D01*
X103216501Y-125065357D01*
X103257751Y-125127091D01*
X103338399Y-125207739D01*
X103433230Y-125271104D01*
X103538602Y-125314750D01*
X103650463Y-125337000D01*
X103764517Y-125337000D01*
X103876378Y-125314750D01*
X103981750Y-125271104D01*
X104076581Y-125207739D01*
X104157229Y-125127091D01*
X104220594Y-125032260D01*
X104264240Y-124926888D01*
X104286490Y-124815027D01*
X104286490Y-124700973D01*
X104264240Y-124589112D01*
X104220594Y-124483740D01*
X104157229Y-124388909D01*
X104076581Y-124308261D01*
X103981750Y-124244896D01*
X103876378Y-124201250D01*
X103764517Y-124179000D01*
X103650463Y-124179000D01*
X103538602Y-124201250D01*
X103433230Y-124244896D01*
X103338399Y-124308261D01*
X103257751Y-124388909D01*
X103216501Y-124450643D01*
X103216501Y-124252933D01*
X104831300Y-122638134D01*
X104819000Y-122699973D01*
X104819000Y-122814027D01*
X104841250Y-122925888D01*
X104884896Y-123031260D01*
X104948261Y-123126091D01*
X105028909Y-123206739D01*
X105123740Y-123270104D01*
X105229112Y-123313750D01*
X105340973Y-123336000D01*
X105455027Y-123336000D01*
X105566888Y-123313750D01*
X105672260Y-123270104D01*
X105767091Y-123206739D01*
X105847739Y-123126091D01*
X105911104Y-123031260D01*
X105954750Y-122925888D01*
X105977000Y-122814027D01*
X105977000Y-122699973D01*
X105954750Y-122588112D01*
X105911104Y-122482740D01*
X105847739Y-122387909D01*
X105767091Y-122307261D01*
X105672260Y-122243896D01*
X105566888Y-122200250D01*
X105455027Y-122178000D01*
X105340973Y-122178000D01*
X105229112Y-122200250D01*
X105227265Y-122201015D01*
X105228586Y-122198543D01*
X105252459Y-122119844D01*
X105258500Y-122058509D01*
X105258500Y-122058502D01*
X105260519Y-122038000D01*
X105258500Y-122017498D01*
X105258500Y-121715956D01*
X105324750Y-121635230D01*
X105378514Y-121534645D01*
X105411622Y-121425503D01*
X105420000Y-121340438D01*
X105420000Y-121237561D01*
X105411622Y-121152496D01*
X105378514Y-121043354D01*
X105324750Y-120942769D01*
X105252395Y-120854605D01*
X105164230Y-120782250D01*
X105063645Y-120728486D01*
X104954503Y-120695378D01*
X104841000Y-120684199D01*
X104727496Y-120695378D01*
X104618354Y-120728486D01*
X104517769Y-120782250D01*
X104429605Y-120854605D01*
X104357250Y-120942770D01*
X104303486Y-121043355D01*
X104270378Y-121152497D01*
X104262000Y-121237562D01*
X104262000Y-121340439D01*
X104270378Y-121425504D01*
X104303486Y-121534646D01*
X104357250Y-121635231D01*
X104423501Y-121715957D01*
X104423501Y-121865065D01*
X104283075Y-122005491D01*
X104285290Y-121983000D01*
X104274111Y-121869496D01*
X104241004Y-121760355D01*
X104187240Y-121659769D01*
X104114885Y-121571605D01*
X104026721Y-121499250D01*
X103926135Y-121445486D01*
X103816994Y-121412379D01*
X103703490Y-121401200D01*
X103589987Y-121412379D01*
X103480845Y-121445486D01*
X103380260Y-121499250D01*
X103314185Y-121553476D01*
X103270966Y-121596695D01*
X103216740Y-121662769D01*
X103162976Y-121763355D01*
X103129869Y-121872496D01*
X103122728Y-121945000D01*
X103045973Y-121945000D01*
X102934112Y-121967250D01*
X102828740Y-122010896D01*
X102733909Y-122074261D01*
X102653261Y-122154909D01*
X102589896Y-122249740D01*
X102546250Y-122355112D01*
X102524000Y-122466973D01*
X102524000Y-122581027D01*
X102546250Y-122692888D01*
X102589896Y-122798260D01*
X102653261Y-122893091D01*
X102733909Y-122973739D01*
X102739037Y-122977165D01*
X102018777Y-123697425D01*
X102002855Y-123710492D01*
X101989788Y-123726414D01*
X101989780Y-123726422D01*
X101950682Y-123774064D01*
X101911914Y-123846594D01*
X101888040Y-123925293D01*
X101879980Y-124007137D01*
X101882000Y-124027649D01*
X101881999Y-126848299D01*
X101530588Y-126496888D01*
X101574671Y-126430913D01*
X101618317Y-126325541D01*
X101640567Y-126213680D01*
X101640567Y-126099626D01*
X101618317Y-125987765D01*
X101574671Y-125882393D01*
X101511306Y-125787562D01*
X101430658Y-125706914D01*
X101335827Y-125643549D01*
X101230455Y-125599903D01*
X101189447Y-125591746D01*
X101204000Y-125518584D01*
X101204000Y-125281416D01*
X101157731Y-125048806D01*
X101066971Y-124829692D01*
X100935208Y-124632495D01*
X100767505Y-124464792D01*
X100570308Y-124333029D01*
X100351194Y-124242269D01*
X100118584Y-124196000D01*
X99881416Y-124196000D01*
X99648806Y-124242269D01*
X99429692Y-124333029D01*
X99232495Y-124464792D01*
X99109000Y-124588287D01*
X99109000Y-123671713D01*
X99232495Y-123795208D01*
X99429692Y-123926971D01*
X99648806Y-124017731D01*
X99881416Y-124064000D01*
X100118584Y-124064000D01*
X100351194Y-124017731D01*
X100570308Y-123926971D01*
X100767505Y-123795208D01*
X100935208Y-123627505D01*
X101066971Y-123430308D01*
X101157731Y-123211194D01*
X101162497Y-123187231D01*
X101199624Y-123224358D01*
X101278077Y-123276779D01*
X101365250Y-123312887D01*
X101457792Y-123331294D01*
X101552146Y-123331294D01*
X101644688Y-123312887D01*
X101731861Y-123276779D01*
X101810314Y-123224358D01*
X101877033Y-123157639D01*
X101929454Y-123079186D01*
X101965562Y-122992013D01*
X101983969Y-122899471D01*
X101983969Y-122805117D01*
X101965562Y-122712575D01*
X101929454Y-122625402D01*
X101877033Y-122546949D01*
X101810314Y-122480230D01*
X101731861Y-122427809D01*
X101644688Y-122391701D01*
X101552146Y-122373294D01*
X101457792Y-122373294D01*
X101365250Y-122391701D01*
X101278077Y-122427809D01*
X101199624Y-122480230D01*
X101159940Y-122519914D01*
X101157731Y-122508806D01*
X101066971Y-122289692D01*
X100935208Y-122092495D01*
X100767505Y-121924792D01*
X100570308Y-121793029D01*
X100351194Y-121702269D01*
X100118584Y-121656000D01*
X99881416Y-121656000D01*
X99648806Y-121702269D01*
X99429692Y-121793029D01*
X99232495Y-121924792D01*
X99109000Y-122048287D01*
X99109000Y-121131713D01*
X99232495Y-121255208D01*
X99429692Y-121386971D01*
X99648806Y-121477731D01*
X99881416Y-121524000D01*
X100118584Y-121524000D01*
X100351194Y-121477731D01*
X100442502Y-121439910D01*
X100494656Y-121492064D01*
X100509656Y-121510342D01*
X100545083Y-121539415D01*
X100582593Y-121570199D01*
X100605878Y-121582645D01*
X100665807Y-121614678D01*
X100756099Y-121642068D01*
X100826473Y-121648999D01*
X100826477Y-121648999D01*
X100849998Y-121651316D01*
X100873519Y-121648999D01*
X101724259Y-121648999D01*
X101747782Y-121651316D01*
X101771305Y-121648999D01*
X101771308Y-121648999D01*
X101841682Y-121642068D01*
X101931974Y-121614678D01*
X102015187Y-121570199D01*
X102088125Y-121510342D01*
X102103129Y-121492059D01*
X102609579Y-120985609D01*
X102642346Y-121064717D01*
X102705711Y-121159548D01*
X102786359Y-121240196D01*
X102881190Y-121303561D01*
X102986562Y-121347207D01*
X103098423Y-121369457D01*
X103212477Y-121369457D01*
X103324338Y-121347207D01*
X103429710Y-121303561D01*
X103524541Y-121240196D01*
X103605189Y-121159548D01*
X103668554Y-121064717D01*
X103712200Y-120959345D01*
X103734450Y-120847484D01*
X103734450Y-120733430D01*
X103712200Y-120621569D01*
X103668554Y-120516197D01*
X103649386Y-120487511D01*
X103766692Y-120487511D01*
X103790215Y-120489828D01*
X103813738Y-120487511D01*
X103813741Y-120487511D01*
X103884115Y-120480580D01*
X103974407Y-120453190D01*
X104057620Y-120408711D01*
X104083277Y-120387655D01*
X104125885Y-120400580D01*
X104196259Y-120407511D01*
X104196264Y-120407511D01*
X104219784Y-120409828D01*
X104243305Y-120407511D01*
X105286692Y-120407511D01*
X105310215Y-120409828D01*
X105333738Y-120407511D01*
X105333741Y-120407511D01*
X105404115Y-120400580D01*
X105494407Y-120373190D01*
X105549019Y-120343999D01*
X105574331Y-120343999D01*
X105565087Y-120443176D01*
G37*
X105565087Y-120443176D02*
X105577368Y-120561517D01*
X105612500Y-120675189D01*
X105665606Y-120774543D01*
X105786826Y-120786990D01*
X106133816Y-120440000D01*
X106119674Y-120425858D01*
X106157858Y-120387674D01*
X106172000Y-120401816D01*
X106186142Y-120387674D01*
X106224326Y-120425858D01*
X106210184Y-120440000D01*
X106224326Y-120454142D01*
X106186142Y-120492326D01*
X106172000Y-120478184D01*
X105825010Y-120825174D01*
X105837457Y-120946394D01*
X105942677Y-121001930D01*
X106056711Y-121035871D01*
X106175176Y-121046913D01*
X106293517Y-121034632D01*
X106407189Y-120999500D01*
X106506543Y-120946394D01*
X106518990Y-120825176D01*
X106568912Y-120875098D01*
X106546515Y-120908618D01*
X106510407Y-120995791D01*
X106492000Y-121088333D01*
X106492000Y-121142000D01*
X106424823Y-121142000D01*
X106332281Y-121160407D01*
X106245108Y-121196515D01*
X106166655Y-121248936D01*
X106099936Y-121315655D01*
X106047515Y-121394108D01*
X106011407Y-121481281D01*
X105993000Y-121573823D01*
X105993000Y-121668177D01*
X106011407Y-121760719D01*
X106047515Y-121847892D01*
X106099936Y-121926345D01*
X106166655Y-121993064D01*
X106245108Y-122045485D01*
X106332281Y-122081593D01*
X106424823Y-122100000D01*
X106519177Y-122100000D01*
X106611719Y-122081593D01*
X106698892Y-122045485D01*
X106777345Y-121993064D01*
X106844064Y-121926345D01*
X106896485Y-121847892D01*
X106932593Y-121760719D01*
X106951000Y-121668177D01*
X106951000Y-121614510D01*
X106992000Y-121614510D01*
X106992000Y-121642177D01*
X107010407Y-121734719D01*
X107046515Y-121821892D01*
X107098936Y-121900345D01*
X107165655Y-121967064D01*
X107244108Y-122019485D01*
X107331281Y-122055593D01*
X107423823Y-122074000D01*
X107518177Y-122074000D01*
X107610719Y-122055593D01*
X107697892Y-122019485D01*
X107776345Y-121967064D01*
X107843064Y-121900345D01*
X107895485Y-121821892D01*
X107931593Y-121734719D01*
X107950000Y-121642177D01*
X107950000Y-121547823D01*
X107931593Y-121455281D01*
X107895485Y-121368108D01*
X107843064Y-121289655D01*
X107776345Y-121222936D01*
X107697892Y-121170515D01*
X107610719Y-121134407D01*
X107518177Y-121116000D01*
X107450000Y-121116000D01*
X107450000Y-121088333D01*
X107431593Y-120995791D01*
X107395485Y-120908618D01*
X107343064Y-120830165D01*
X107276345Y-120763446D01*
X107197892Y-120711025D01*
X107110719Y-120674917D01*
X107018177Y-120656510D01*
X106923823Y-120656510D01*
X106831281Y-120674917D01*
X106744108Y-120711025D01*
X106694382Y-120744251D01*
X106733930Y-120669323D01*
X106767871Y-120555289D01*
X106778913Y-120436824D01*
X106769280Y-120343999D01*
X108124331Y-120343999D01*
X108115087Y-120443176D01*
X108127368Y-120561517D01*
X108162500Y-120675189D01*
X108215606Y-120774543D01*
X108336826Y-120786990D01*
X108683816Y-120440000D01*
X108669674Y-120425858D01*
X108707858Y-120387674D01*
X108722000Y-120401816D01*
X108736142Y-120387674D01*
X108774326Y-120425858D01*
X108760184Y-120440000D01*
X109107174Y-120786990D01*
X109228394Y-120774543D01*
X109283930Y-120669323D01*
X109317871Y-120555289D01*
X109318016Y-120553737D01*
X109330769Y-120564203D01*
X110101249Y-121334683D01*
X110049515Y-121412108D01*
X110013407Y-121499281D01*
X110009585Y-121518496D01*
X109999844Y-121515541D01*
X109938509Y-121509500D01*
X109938502Y-121509500D01*
X109918000Y-121507481D01*
X109897498Y-121509500D01*
X109554000Y-121509500D01*
X109554000Y-121415311D01*
X109545622Y-121330246D01*
X109512514Y-121221104D01*
X109458750Y-121120519D01*
X109386395Y-121032355D01*
X109298230Y-120960000D01*
X109197645Y-120906236D01*
X109088503Y-120873128D01*
X109064311Y-120870745D01*
X109068990Y-120825174D01*
X108722000Y-120478184D01*
X108375010Y-120825174D01*
X108387457Y-120946394D01*
X108492677Y-121001930D01*
X108571934Y-121025520D01*
X108563605Y-121032355D01*
X108491250Y-121120520D01*
X108437486Y-121221105D01*
X108404378Y-121330247D01*
X108396000Y-121415312D01*
X108396000Y-121611689D01*
X108404378Y-121696754D01*
X108437486Y-121805896D01*
X108491250Y-121906481D01*
X108563606Y-121994645D01*
X108651770Y-122067000D01*
X108752355Y-122120764D01*
X108861497Y-122153872D01*
X108975000Y-122165051D01*
X109001050Y-122162485D01*
X109046287Y-122207722D01*
X109059355Y-122223645D01*
X109075277Y-122236712D01*
X109075284Y-122236719D01*
X109102009Y-122258651D01*
X109122927Y-122275818D01*
X109195457Y-122314586D01*
X109245100Y-122329645D01*
X109274155Y-122338459D01*
X109282464Y-122339277D01*
X109335491Y-122344500D01*
X109335497Y-122344500D01*
X109355999Y-122346519D01*
X109376501Y-122344500D01*
X109745066Y-122344500D01*
X110217467Y-122816902D01*
X110125740Y-122854896D01*
X110030909Y-122918261D01*
X109950261Y-122998909D01*
X109886896Y-123093740D01*
X109843250Y-123199112D01*
X109821000Y-123310973D01*
X109821000Y-123425027D01*
X109843250Y-123536888D01*
X109886896Y-123642260D01*
X109950261Y-123737091D01*
X110030909Y-123817739D01*
X110125740Y-123881104D01*
X110231112Y-123924750D01*
X110342973Y-123947000D01*
X110457027Y-123947000D01*
X110568888Y-123924750D01*
X110674260Y-123881104D01*
X110769091Y-123817739D01*
X110849739Y-123737091D01*
X110873387Y-123701700D01*
X110907605Y-123743395D01*
X110995769Y-123815750D01*
X111096354Y-123869514D01*
X111205496Y-123902622D01*
X111290561Y-123911000D01*
X111351439Y-123911000D01*
X111436504Y-123902622D01*
X111545646Y-123869514D01*
X111646231Y-123815750D01*
X111734395Y-123743395D01*
X111806750Y-123655231D01*
X111860514Y-123554646D01*
X111893622Y-123445504D01*
X111904801Y-123332000D01*
X111893622Y-123218496D01*
X111860514Y-123109354D01*
X111806750Y-123008769D01*
X111734395Y-122920605D01*
X111646231Y-122848250D01*
X111545646Y-122794486D01*
X111436504Y-122761378D01*
X111351439Y-122753000D01*
X111334435Y-122753000D01*
X110661313Y-122079879D01*
X110700892Y-122063485D01*
X110778317Y-122011751D01*
X110918349Y-122151783D01*
X110931421Y-122167711D01*
X110947349Y-122180783D01*
X110947350Y-122180784D01*
X110962897Y-122193543D01*
X110994993Y-122219884D01*
X111067523Y-122258652D01*
X111146222Y-122282525D01*
X111207557Y-122288566D01*
X111207566Y-122288566D01*
X111228065Y-122290585D01*
X111248564Y-122288566D01*
X111838925Y-122288566D01*
X111839605Y-122289395D01*
X111927769Y-122361750D01*
X112028354Y-122415514D01*
X112137496Y-122448622D01*
X112222561Y-122457000D01*
X112317439Y-122457000D01*
X112402504Y-122448622D01*
X112511646Y-122415514D01*
X112540602Y-122400036D01*
X113082489Y-122941923D01*
X113082490Y-124101941D01*
X113080470Y-124122452D01*
X113088531Y-124204296D01*
X113112404Y-124282996D01*
X113151172Y-124355525D01*
X113183341Y-124394722D01*
X113203345Y-124419097D01*
X113219273Y-124432169D01*
X113355286Y-124568182D01*
X113319177Y-124561000D01*
X113224823Y-124561000D01*
X113132281Y-124579407D01*
X113045108Y-124615515D01*
X112966655Y-124667936D01*
X112899936Y-124734655D01*
X112847515Y-124813108D01*
X112811407Y-124900281D01*
X112793000Y-124992823D01*
X112793000Y-125087177D01*
X112811407Y-125179719D01*
X112847515Y-125266892D01*
X112899936Y-125345345D01*
X112937049Y-125382458D01*
X112892515Y-125449108D01*
X112856407Y-125536281D01*
X112838000Y-125628823D01*
X112838000Y-125723177D01*
X112856407Y-125815719D01*
X112892515Y-125902892D01*
X112944936Y-125981345D01*
X113011655Y-126048064D01*
X113090108Y-126100485D01*
X113177281Y-126136593D01*
X113269823Y-126155000D01*
X113364177Y-126155000D01*
X113406500Y-126146582D01*
X113406501Y-127845065D01*
X112779282Y-128472284D01*
X112763354Y-128485356D01*
X112750283Y-128501283D01*
X112750280Y-128501286D01*
X112737647Y-128516680D01*
X112711181Y-128548929D01*
X112672413Y-128621459D01*
X112662751Y-128653310D01*
X112648540Y-128700157D01*
X112647816Y-128707505D01*
X112642667Y-128759782D01*
X104950500Y-128759350D01*
X104950500Y-127110973D01*
X111446002Y-127110973D01*
X111446002Y-127225027D01*
X111468252Y-127336888D01*
X111511898Y-127442260D01*
X111575263Y-127537091D01*
X111655911Y-127617739D01*
X111750742Y-127681104D01*
X111856114Y-127724750D01*
X111967975Y-127747000D01*
X112082029Y-127747000D01*
X112193890Y-127724750D01*
X112299262Y-127681104D01*
X112394093Y-127617739D01*
X112474741Y-127537091D01*
X112538106Y-127442260D01*
X112581752Y-127336888D01*
X112604002Y-127225027D01*
X112604002Y-127110973D01*
X112581752Y-126999112D01*
X112538106Y-126893740D01*
X112474741Y-126798909D01*
X112394093Y-126718261D01*
X112299262Y-126654896D01*
X112193890Y-126611250D01*
X112082029Y-126589000D01*
X111967975Y-126589000D01*
X111856114Y-126611250D01*
X111750742Y-126654896D01*
X111655911Y-126718261D01*
X111575263Y-126798909D01*
X111511898Y-126893740D01*
X111468252Y-126999112D01*
X111446002Y-127110973D01*
X104950500Y-127110973D01*
X104950500Y-127063665D01*
X104952519Y-127043166D01*
X104950500Y-127022667D01*
X104950500Y-127022658D01*
X104944459Y-126961323D01*
X104920586Y-126882624D01*
X104881818Y-126810094D01*
X104872639Y-126798909D01*
X104842719Y-126762451D01*
X104842712Y-126762444D01*
X104829645Y-126746522D01*
X104813723Y-126733455D01*
X104459243Y-126378975D01*
X109084000Y-126378975D01*
X109084000Y-126493029D01*
X109106250Y-126604890D01*
X109149896Y-126710262D01*
X109213261Y-126805093D01*
X109293909Y-126885741D01*
X109388740Y-126949106D01*
X109494112Y-126992752D01*
X109605973Y-127015002D01*
X109720027Y-127015002D01*
X109831888Y-126992752D01*
X109937260Y-126949106D01*
X110032091Y-126885741D01*
X110112739Y-126805093D01*
X110176104Y-126710262D01*
X110219750Y-126604890D01*
X110242000Y-126493029D01*
X110242000Y-126378975D01*
X110219750Y-126267114D01*
X110176104Y-126161742D01*
X110112739Y-126066911D01*
X110032091Y-125986263D01*
X109937260Y-125922898D01*
X109831888Y-125879252D01*
X109720027Y-125857002D01*
X109605973Y-125857002D01*
X109494112Y-125879252D01*
X109388740Y-125922898D01*
X109293909Y-125986263D01*
X109213261Y-126066911D01*
X109149896Y-126161742D01*
X109106250Y-126267114D01*
X109084000Y-126378975D01*
X104459243Y-126378975D01*
X103865426Y-125785159D01*
X103852354Y-125769231D01*
X103788782Y-125717058D01*
X103716252Y-125678290D01*
X103648073Y-125657608D01*
X103606602Y-125616137D01*
X103511771Y-125552772D01*
X103406399Y-125509126D01*
X103294538Y-125486876D01*
X103216501Y-125486876D01*
X103216501Y-125065357D01*
X103257751Y-125127091D01*
X103338399Y-125207739D01*
X103433230Y-125271104D01*
X103538602Y-125314750D01*
X103650463Y-125337000D01*
X103764517Y-125337000D01*
X103876378Y-125314750D01*
X103981750Y-125271104D01*
X104076581Y-125207739D01*
X104157229Y-125127091D01*
X104220594Y-125032260D01*
X104264240Y-124926888D01*
X104286490Y-124815027D01*
X104286490Y-124700973D01*
X104264240Y-124589112D01*
X104220594Y-124483740D01*
X104157229Y-124388909D01*
X104076581Y-124308261D01*
X103981750Y-124244896D01*
X103876378Y-124201250D01*
X103764517Y-124179000D01*
X103650463Y-124179000D01*
X103538602Y-124201250D01*
X103433230Y-124244896D01*
X103338399Y-124308261D01*
X103257751Y-124388909D01*
X103216501Y-124450643D01*
X103216501Y-124252933D01*
X104831300Y-122638134D01*
X104819000Y-122699973D01*
X104819000Y-122814027D01*
X104841250Y-122925888D01*
X104884896Y-123031260D01*
X104948261Y-123126091D01*
X105028909Y-123206739D01*
X105123740Y-123270104D01*
X105229112Y-123313750D01*
X105340973Y-123336000D01*
X105455027Y-123336000D01*
X105566888Y-123313750D01*
X105672260Y-123270104D01*
X105767091Y-123206739D01*
X105847739Y-123126091D01*
X105911104Y-123031260D01*
X105954750Y-122925888D01*
X105977000Y-122814027D01*
X105977000Y-122699973D01*
X105954750Y-122588112D01*
X105911104Y-122482740D01*
X105847739Y-122387909D01*
X105767091Y-122307261D01*
X105672260Y-122243896D01*
X105566888Y-122200250D01*
X105455027Y-122178000D01*
X105340973Y-122178000D01*
X105229112Y-122200250D01*
X105227265Y-122201015D01*
X105228586Y-122198543D01*
X105252459Y-122119844D01*
X105258500Y-122058509D01*
X105258500Y-122058502D01*
X105260519Y-122038000D01*
X105258500Y-122017498D01*
X105258500Y-121715956D01*
X105324750Y-121635230D01*
X105378514Y-121534645D01*
X105411622Y-121425503D01*
X105420000Y-121340438D01*
X105420000Y-121237561D01*
X105411622Y-121152496D01*
X105378514Y-121043354D01*
X105324750Y-120942769D01*
X105252395Y-120854605D01*
X105164230Y-120782250D01*
X105063645Y-120728486D01*
X104954503Y-120695378D01*
X104841000Y-120684199D01*
X104727496Y-120695378D01*
X104618354Y-120728486D01*
X104517769Y-120782250D01*
X104429605Y-120854605D01*
X104357250Y-120942770D01*
X104303486Y-121043355D01*
X104270378Y-121152497D01*
X104262000Y-121237562D01*
X104262000Y-121340439D01*
X104270378Y-121425504D01*
X104303486Y-121534646D01*
X104357250Y-121635231D01*
X104423501Y-121715957D01*
X104423501Y-121865065D01*
X104283075Y-122005491D01*
X104285290Y-121983000D01*
X104274111Y-121869496D01*
X104241004Y-121760355D01*
X104187240Y-121659769D01*
X104114885Y-121571605D01*
X104026721Y-121499250D01*
X103926135Y-121445486D01*
X103816994Y-121412379D01*
X103703490Y-121401200D01*
X103589987Y-121412379D01*
X103480845Y-121445486D01*
X103380260Y-121499250D01*
X103314185Y-121553476D01*
X103270966Y-121596695D01*
X103216740Y-121662769D01*
X103162976Y-121763355D01*
X103129869Y-121872496D01*
X103122728Y-121945000D01*
X103045973Y-121945000D01*
X102934112Y-121967250D01*
X102828740Y-122010896D01*
X102733909Y-122074261D01*
X102653261Y-122154909D01*
X102589896Y-122249740D01*
X102546250Y-122355112D01*
X102524000Y-122466973D01*
X102524000Y-122581027D01*
X102546250Y-122692888D01*
X102589896Y-122798260D01*
X102653261Y-122893091D01*
X102733909Y-122973739D01*
X102739037Y-122977165D01*
X102018777Y-123697425D01*
X102002855Y-123710492D01*
X101989788Y-123726414D01*
X101989780Y-123726422D01*
X101950682Y-123774064D01*
X101911914Y-123846594D01*
X101888040Y-123925293D01*
X101879980Y-124007137D01*
X101882000Y-124027649D01*
X101881999Y-126848299D01*
X101530588Y-126496888D01*
X101574671Y-126430913D01*
X101618317Y-126325541D01*
X101640567Y-126213680D01*
X101640567Y-126099626D01*
X101618317Y-125987765D01*
X101574671Y-125882393D01*
X101511306Y-125787562D01*
X101430658Y-125706914D01*
X101335827Y-125643549D01*
X101230455Y-125599903D01*
X101189447Y-125591746D01*
X101204000Y-125518584D01*
X101204000Y-125281416D01*
X101157731Y-125048806D01*
X101066971Y-124829692D01*
X100935208Y-124632495D01*
X100767505Y-124464792D01*
X100570308Y-124333029D01*
X100351194Y-124242269D01*
X100118584Y-124196000D01*
X99881416Y-124196000D01*
X99648806Y-124242269D01*
X99429692Y-124333029D01*
X99232495Y-124464792D01*
X99109000Y-124588287D01*
X99109000Y-123671713D01*
X99232495Y-123795208D01*
X99429692Y-123926971D01*
X99648806Y-124017731D01*
X99881416Y-124064000D01*
X100118584Y-124064000D01*
X100351194Y-124017731D01*
X100570308Y-123926971D01*
X100767505Y-123795208D01*
X100935208Y-123627505D01*
X101066971Y-123430308D01*
X101157731Y-123211194D01*
X101162497Y-123187231D01*
X101199624Y-123224358D01*
X101278077Y-123276779D01*
X101365250Y-123312887D01*
X101457792Y-123331294D01*
X101552146Y-123331294D01*
X101644688Y-123312887D01*
X101731861Y-123276779D01*
X101810314Y-123224358D01*
X101877033Y-123157639D01*
X101929454Y-123079186D01*
X101965562Y-122992013D01*
X101983969Y-122899471D01*
X101983969Y-122805117D01*
X101965562Y-122712575D01*
X101929454Y-122625402D01*
X101877033Y-122546949D01*
X101810314Y-122480230D01*
X101731861Y-122427809D01*
X101644688Y-122391701D01*
X101552146Y-122373294D01*
X101457792Y-122373294D01*
X101365250Y-122391701D01*
X101278077Y-122427809D01*
X101199624Y-122480230D01*
X101159940Y-122519914D01*
X101157731Y-122508806D01*
X101066971Y-122289692D01*
X100935208Y-122092495D01*
X100767505Y-121924792D01*
X100570308Y-121793029D01*
X100351194Y-121702269D01*
X100118584Y-121656000D01*
X99881416Y-121656000D01*
X99648806Y-121702269D01*
X99429692Y-121793029D01*
X99232495Y-121924792D01*
X99109000Y-122048287D01*
X99109000Y-121131713D01*
X99232495Y-121255208D01*
X99429692Y-121386971D01*
X99648806Y-121477731D01*
X99881416Y-121524000D01*
X100118584Y-121524000D01*
X100351194Y-121477731D01*
X100442502Y-121439910D01*
X100494656Y-121492064D01*
X100509656Y-121510342D01*
X100545083Y-121539415D01*
X100582593Y-121570199D01*
X100605878Y-121582645D01*
X100665807Y-121614678D01*
X100756099Y-121642068D01*
X100826473Y-121648999D01*
X100826477Y-121648999D01*
X100849998Y-121651316D01*
X100873519Y-121648999D01*
X101724259Y-121648999D01*
X101747782Y-121651316D01*
X101771305Y-121648999D01*
X101771308Y-121648999D01*
X101841682Y-121642068D01*
X101931974Y-121614678D01*
X102015187Y-121570199D01*
X102088125Y-121510342D01*
X102103129Y-121492059D01*
X102609579Y-120985609D01*
X102642346Y-121064717D01*
X102705711Y-121159548D01*
X102786359Y-121240196D01*
X102881190Y-121303561D01*
X102986562Y-121347207D01*
X103098423Y-121369457D01*
X103212477Y-121369457D01*
X103324338Y-121347207D01*
X103429710Y-121303561D01*
X103524541Y-121240196D01*
X103605189Y-121159548D01*
X103668554Y-121064717D01*
X103712200Y-120959345D01*
X103734450Y-120847484D01*
X103734450Y-120733430D01*
X103712200Y-120621569D01*
X103668554Y-120516197D01*
X103649386Y-120487511D01*
X103766692Y-120487511D01*
X103790215Y-120489828D01*
X103813738Y-120487511D01*
X103813741Y-120487511D01*
X103884115Y-120480580D01*
X103974407Y-120453190D01*
X104057620Y-120408711D01*
X104083277Y-120387655D01*
X104125885Y-120400580D01*
X104196259Y-120407511D01*
X104196264Y-120407511D01*
X104219784Y-120409828D01*
X104243305Y-120407511D01*
X105286692Y-120407511D01*
X105310215Y-120409828D01*
X105333738Y-120407511D01*
X105333741Y-120407511D01*
X105404115Y-120400580D01*
X105494407Y-120373190D01*
X105549019Y-120343999D01*
X105574331Y-120343999D01*
X105565087Y-120443176D01*
G36*
X99232495Y-118715208D02*
G01*
X99429692Y-118846971D01*
X99648806Y-118937731D01*
X99881416Y-118984000D01*
X100118584Y-118984000D01*
X100351194Y-118937731D01*
X100442502Y-118899910D01*
X101154658Y-119612066D01*
X101169658Y-119630344D01*
X101207143Y-119661106D01*
X101242595Y-119690201D01*
X101325808Y-119734680D01*
X101353198Y-119742988D01*
X101416101Y-119762070D01*
X101486475Y-119769001D01*
X101486478Y-119769001D01*
X101510001Y-119771318D01*
X101533524Y-119769001D01*
X101877243Y-119769001D01*
X101868705Y-119779405D01*
X101829937Y-119851935D01*
X101829527Y-119853287D01*
X101771563Y-119911251D01*
X101680281Y-119929407D01*
X101593108Y-119965515D01*
X101514655Y-120017936D01*
X101447936Y-120084655D01*
X101395515Y-120163108D01*
X101359407Y-120250281D01*
X101341000Y-120342823D01*
X101341000Y-120437177D01*
X101359407Y-120529719D01*
X101395515Y-120616892D01*
X101445032Y-120690999D01*
X101149527Y-120690999D01*
X101157731Y-120671194D01*
X101204000Y-120438584D01*
X101204000Y-120201416D01*
X101157731Y-119968806D01*
X101066971Y-119749692D01*
X100935208Y-119552495D01*
X100767505Y-119384792D01*
X100570308Y-119253029D01*
X100351194Y-119162269D01*
X100118584Y-119116000D01*
X99881416Y-119116000D01*
X99648806Y-119162269D01*
X99429692Y-119253029D01*
X99232495Y-119384792D01*
X99109000Y-119508287D01*
X99109000Y-118591713D01*
X99232495Y-118715208D01*
G37*
X99232495Y-118715208D02*
X99429692Y-118846971D01*
X99648806Y-118937731D01*
X99881416Y-118984000D01*
X100118584Y-118984000D01*
X100351194Y-118937731D01*
X100442502Y-118899910D01*
X101154658Y-119612066D01*
X101169658Y-119630344D01*
X101207143Y-119661106D01*
X101242595Y-119690201D01*
X101325808Y-119734680D01*
X101353198Y-119742988D01*
X101416101Y-119762070D01*
X101486475Y-119769001D01*
X101486478Y-119769001D01*
X101510001Y-119771318D01*
X101533524Y-119769001D01*
X101877243Y-119769001D01*
X101868705Y-119779405D01*
X101829937Y-119851935D01*
X101829527Y-119853287D01*
X101771563Y-119911251D01*
X101680281Y-119929407D01*
X101593108Y-119965515D01*
X101514655Y-120017936D01*
X101447936Y-120084655D01*
X101395515Y-120163108D01*
X101359407Y-120250281D01*
X101341000Y-120342823D01*
X101341000Y-120437177D01*
X101359407Y-120529719D01*
X101395515Y-120616892D01*
X101445032Y-120690999D01*
X101149527Y-120690999D01*
X101157731Y-120671194D01*
X101204000Y-120438584D01*
X101204000Y-120201416D01*
X101157731Y-119968806D01*
X101066971Y-119749692D01*
X100935208Y-119552495D01*
X100767505Y-119384792D01*
X100570308Y-119253029D01*
X100351194Y-119162269D01*
X100118584Y-119116000D01*
X99881416Y-119116000D01*
X99648806Y-119162269D01*
X99429692Y-119253029D01*
X99232495Y-119384792D01*
X99109000Y-119508287D01*
X99109000Y-118591713D01*
X99232495Y-118715208D01*
G36*
X109147769Y-114692750D02*
G01*
X109248355Y-114746514D01*
X109317943Y-114767623D01*
X109202782Y-114882784D01*
X109186854Y-114895856D01*
X109173783Y-114911783D01*
X109173780Y-114911786D01*
X109156459Y-114932892D01*
X109134681Y-114959429D01*
X109116234Y-114993940D01*
X109107174Y-114993010D01*
X108760184Y-115340000D01*
X108774326Y-115354142D01*
X108736142Y-115392326D01*
X108722000Y-115378184D01*
X108375010Y-115725174D01*
X108387457Y-115846394D01*
X108492677Y-115901930D01*
X108606711Y-115935871D01*
X108725176Y-115946913D01*
X108843517Y-115934632D01*
X108957189Y-115899500D01*
X109056543Y-115846394D01*
X109065999Y-115754301D01*
X109066000Y-117475705D01*
X109056543Y-117383606D01*
X108951323Y-117328070D01*
X108837289Y-117294129D01*
X108718824Y-117283087D01*
X108600483Y-117295368D01*
X108486811Y-117330500D01*
X108387457Y-117383606D01*
X108375010Y-117504826D01*
X108722000Y-117851816D01*
X108736142Y-117837674D01*
X108774326Y-117875858D01*
X108760184Y-117890000D01*
X109107174Y-118236990D01*
X109228394Y-118224543D01*
X109247322Y-118188682D01*
X109698161Y-118639521D01*
X109662457Y-118658606D01*
X109650010Y-118779826D01*
X109997000Y-119126816D01*
X110011142Y-119112674D01*
X110049326Y-119150858D01*
X110035184Y-119165000D01*
X110382174Y-119511990D01*
X110503394Y-119499543D01*
X110522322Y-119463682D01*
X110973161Y-119914521D01*
X110937457Y-119933606D01*
X110925010Y-120054826D01*
X111272000Y-120401816D01*
X111286142Y-120387674D01*
X111324326Y-120425858D01*
X111310184Y-120440000D01*
X111324326Y-120454142D01*
X111292467Y-120486001D01*
X111279817Y-120486001D01*
X111272000Y-120478184D01*
X111264183Y-120486001D01*
X111251533Y-120486001D01*
X111219674Y-120454142D01*
X111233816Y-120440000D01*
X110886826Y-120093010D01*
X110793450Y-120102598D01*
X110334402Y-119643550D01*
X110343990Y-119550174D01*
X109997000Y-119203184D01*
X109982858Y-119217326D01*
X109944674Y-119179142D01*
X109958816Y-119165000D01*
X109611826Y-118818010D01*
X109518450Y-118827598D01*
X109059402Y-118368550D01*
X109068990Y-118275174D01*
X108722000Y-117928184D01*
X108707858Y-117942326D01*
X108669674Y-117904142D01*
X108683816Y-117890000D01*
X108336826Y-117543010D01*
X108243450Y-117552598D01*
X107784402Y-117093550D01*
X107793990Y-117000174D01*
X107447000Y-116653184D01*
X107432858Y-116667326D01*
X107394674Y-116629142D01*
X107408816Y-116615000D01*
X107485184Y-116615000D01*
X107832174Y-116961990D01*
X107953394Y-116949543D01*
X108008930Y-116844323D01*
X108042871Y-116730289D01*
X108053913Y-116611824D01*
X108041632Y-116493483D01*
X108006500Y-116379811D01*
X107953394Y-116280457D01*
X107832174Y-116268010D01*
X107485184Y-116615000D01*
X107408816Y-116615000D01*
X107394674Y-116600858D01*
X107432858Y-116562674D01*
X107447000Y-116576816D01*
X107793990Y-116229826D01*
X107781543Y-116108606D01*
X107676323Y-116053070D01*
X107562289Y-116019129D01*
X107443824Y-116008087D01*
X107389500Y-116013725D01*
X107389500Y-115343176D01*
X108115087Y-115343176D01*
X108127368Y-115461517D01*
X108162500Y-115575189D01*
X108215606Y-115674543D01*
X108336826Y-115686990D01*
X108683816Y-115340000D01*
X108336826Y-114993010D01*
X108215606Y-115005457D01*
X108160070Y-115110677D01*
X108126129Y-115224711D01*
X108115087Y-115343176D01*
X107389500Y-115343176D01*
X107389500Y-114956956D01*
X107391248Y-114954826D01*
X108375010Y-114954826D01*
X108722000Y-115301816D01*
X109068990Y-114954826D01*
X109056543Y-114833606D01*
X108951323Y-114778070D01*
X108837289Y-114744129D01*
X108718824Y-114733087D01*
X108600483Y-114745368D01*
X108486811Y-114780500D01*
X108387457Y-114833606D01*
X108375010Y-114954826D01*
X107391248Y-114954826D01*
X107455750Y-114876230D01*
X107509514Y-114775645D01*
X107542622Y-114666503D01*
X107546562Y-114626500D01*
X109067044Y-114626500D01*
X109147769Y-114692750D01*
G37*
X109147769Y-114692750D02*
X109248355Y-114746514D01*
X109317943Y-114767623D01*
X109202782Y-114882784D01*
X109186854Y-114895856D01*
X109173783Y-114911783D01*
X109173780Y-114911786D01*
X109156459Y-114932892D01*
X109134681Y-114959429D01*
X109116234Y-114993940D01*
X109107174Y-114993010D01*
X108760184Y-115340000D01*
X108774326Y-115354142D01*
X108736142Y-115392326D01*
X108722000Y-115378184D01*
X108375010Y-115725174D01*
X108387457Y-115846394D01*
X108492677Y-115901930D01*
X108606711Y-115935871D01*
X108725176Y-115946913D01*
X108843517Y-115934632D01*
X108957189Y-115899500D01*
X109056543Y-115846394D01*
X109065999Y-115754301D01*
X109066000Y-117475705D01*
X109056543Y-117383606D01*
X108951323Y-117328070D01*
X108837289Y-117294129D01*
X108718824Y-117283087D01*
X108600483Y-117295368D01*
X108486811Y-117330500D01*
X108387457Y-117383606D01*
X108375010Y-117504826D01*
X108722000Y-117851816D01*
X108736142Y-117837674D01*
X108774326Y-117875858D01*
X108760184Y-117890000D01*
X109107174Y-118236990D01*
X109228394Y-118224543D01*
X109247322Y-118188682D01*
X109698161Y-118639521D01*
X109662457Y-118658606D01*
X109650010Y-118779826D01*
X109997000Y-119126816D01*
X110011142Y-119112674D01*
X110049326Y-119150858D01*
X110035184Y-119165000D01*
X110382174Y-119511990D01*
X110503394Y-119499543D01*
X110522322Y-119463682D01*
X110973161Y-119914521D01*
X110937457Y-119933606D01*
X110925010Y-120054826D01*
X111272000Y-120401816D01*
X111286142Y-120387674D01*
X111324326Y-120425858D01*
X111310184Y-120440000D01*
X111324326Y-120454142D01*
X111292467Y-120486001D01*
X111279817Y-120486001D01*
X111272000Y-120478184D01*
X111264183Y-120486001D01*
X111251533Y-120486001D01*
X111219674Y-120454142D01*
X111233816Y-120440000D01*
X110886826Y-120093010D01*
X110793450Y-120102598D01*
X110334402Y-119643550D01*
X110343990Y-119550174D01*
X109997000Y-119203184D01*
X109982858Y-119217326D01*
X109944674Y-119179142D01*
X109958816Y-119165000D01*
X109611826Y-118818010D01*
X109518450Y-118827598D01*
X109059402Y-118368550D01*
X109068990Y-118275174D01*
X108722000Y-117928184D01*
X108707858Y-117942326D01*
X108669674Y-117904142D01*
X108683816Y-117890000D01*
X108336826Y-117543010D01*
X108243450Y-117552598D01*
X107784402Y-117093550D01*
X107793990Y-117000174D01*
X107447000Y-116653184D01*
X107432858Y-116667326D01*
X107394674Y-116629142D01*
X107408816Y-116615000D01*
X107485184Y-116615000D01*
X107832174Y-116961990D01*
X107953394Y-116949543D01*
X108008930Y-116844323D01*
X108042871Y-116730289D01*
X108053913Y-116611824D01*
X108041632Y-116493483D01*
X108006500Y-116379811D01*
X107953394Y-116280457D01*
X107832174Y-116268010D01*
X107485184Y-116615000D01*
X107408816Y-116615000D01*
X107394674Y-116600858D01*
X107432858Y-116562674D01*
X107447000Y-116576816D01*
X107793990Y-116229826D01*
X107781543Y-116108606D01*
X107676323Y-116053070D01*
X107562289Y-116019129D01*
X107443824Y-116008087D01*
X107389500Y-116013725D01*
X107389500Y-115343176D01*
X108115087Y-115343176D01*
X108127368Y-115461517D01*
X108162500Y-115575189D01*
X108215606Y-115674543D01*
X108336826Y-115686990D01*
X108683816Y-115340000D01*
X108336826Y-114993010D01*
X108215606Y-115005457D01*
X108160070Y-115110677D01*
X108126129Y-115224711D01*
X108115087Y-115343176D01*
X107389500Y-115343176D01*
X107389500Y-114956956D01*
X107391248Y-114954826D01*
X108375010Y-114954826D01*
X108722000Y-115301816D01*
X109068990Y-114954826D01*
X109056543Y-114833606D01*
X108951323Y-114778070D01*
X108837289Y-114744129D01*
X108718824Y-114733087D01*
X108600483Y-114745368D01*
X108486811Y-114780500D01*
X108387457Y-114833606D01*
X108375010Y-114954826D01*
X107391248Y-114954826D01*
X107455750Y-114876230D01*
X107509514Y-114775645D01*
X107542622Y-114666503D01*
X107546562Y-114626500D01*
X109067044Y-114626500D01*
X109147769Y-114692750D01*
G36*
X108895983Y-119385999D02*
G01*
X108011408Y-119385999D01*
X108042871Y-119280289D01*
X108053913Y-119161824D01*
X108041632Y-119043483D01*
X108006500Y-118929811D01*
X107953394Y-118830457D01*
X107832174Y-118818010D01*
X107485184Y-119165000D01*
X107499326Y-119179142D01*
X107461142Y-119217326D01*
X107447000Y-119203184D01*
X107432858Y-119217326D01*
X107394674Y-119179142D01*
X107408816Y-119165000D01*
X107394674Y-119150858D01*
X107432858Y-119112674D01*
X107447000Y-119126816D01*
X107793990Y-118779826D01*
X107781543Y-118658606D01*
X107676323Y-118603070D01*
X107562289Y-118569129D01*
X107443824Y-118558087D01*
X107325483Y-118570368D01*
X107211811Y-118605500D01*
X107112457Y-118658606D01*
X107101854Y-118761867D01*
X107101854Y-117591870D01*
X108895983Y-119385999D01*
G37*
X108895983Y-119385999D02*
X108011408Y-119385999D01*
X108042871Y-119280289D01*
X108053913Y-119161824D01*
X108041632Y-119043483D01*
X108006500Y-118929811D01*
X107953394Y-118830457D01*
X107832174Y-118818010D01*
X107485184Y-119165000D01*
X107499326Y-119179142D01*
X107461142Y-119217326D01*
X107447000Y-119203184D01*
X107432858Y-119217326D01*
X107394674Y-119179142D01*
X107408816Y-119165000D01*
X107394674Y-119150858D01*
X107432858Y-119112674D01*
X107447000Y-119126816D01*
X107793990Y-118779826D01*
X107781543Y-118658606D01*
X107676323Y-118603070D01*
X107562289Y-118569129D01*
X107443824Y-118558087D01*
X107325483Y-118570368D01*
X107211811Y-118605500D01*
X107112457Y-118658606D01*
X107101854Y-118761867D01*
X107101854Y-117591870D01*
X108895983Y-119385999D01*
G36*
X111324326Y-117875858D02*
G01*
X111310184Y-117890000D01*
X111324326Y-117904142D01*
X111286142Y-117942326D01*
X111272000Y-117928184D01*
X111257858Y-117942326D01*
X111219674Y-117904142D01*
X111233816Y-117890000D01*
X111219674Y-117875858D01*
X111257858Y-117837674D01*
X111272000Y-117851816D01*
X111286142Y-117837674D01*
X111324326Y-117875858D01*
G37*
X111324326Y-117875858D02*
X111310184Y-117890000D01*
X111324326Y-117904142D01*
X111286142Y-117942326D01*
X111272000Y-117928184D01*
X111257858Y-117942326D01*
X111219674Y-117904142D01*
X111233816Y-117890000D01*
X111219674Y-117875858D01*
X111257858Y-117837674D01*
X111272000Y-117851816D01*
X111286142Y-117837674D01*
X111324326Y-117875858D01*
G36*
X106224326Y-117875858D02*
G01*
X106210184Y-117890000D01*
X106224326Y-117904142D01*
X106186142Y-117942326D01*
X106172000Y-117928184D01*
X106157858Y-117942326D01*
X106119674Y-117904142D01*
X106133816Y-117890000D01*
X106119674Y-117875858D01*
X106157858Y-117837674D01*
X106172000Y-117851816D01*
X106186142Y-117837674D01*
X106224326Y-117875858D01*
G37*
X106224326Y-117875858D02*
X106210184Y-117890000D01*
X106224326Y-117904142D01*
X106186142Y-117942326D01*
X106172000Y-117928184D01*
X106157858Y-117942326D01*
X106119674Y-117904142D01*
X106133816Y-117890000D01*
X106119674Y-117875858D01*
X106157858Y-117837674D01*
X106172000Y-117851816D01*
X106186142Y-117837674D01*
X106224326Y-117875858D01*
G36*
X112050463Y-113941580D02*
G01*
X112155486Y-114046603D01*
X112161862Y-114050863D01*
X112135250Y-114115112D01*
X112113000Y-114226973D01*
X112113000Y-114341027D01*
X112135250Y-114452888D01*
X112178896Y-114558260D01*
X112242261Y-114653091D01*
X112322909Y-114733739D01*
X112417740Y-114797104D01*
X112523112Y-114840750D01*
X112634973Y-114863000D01*
X112649989Y-114863000D01*
X112649990Y-116728608D01*
X112631892Y-116716515D01*
X112544719Y-116680407D01*
X112452177Y-116662000D01*
X112387000Y-116662000D01*
X112387000Y-116592823D01*
X112368593Y-116500281D01*
X112332485Y-116413108D01*
X112280064Y-116334655D01*
X112213345Y-116267936D01*
X112134892Y-116215515D01*
X112047719Y-116179407D01*
X111955177Y-116161000D01*
X111860823Y-116161000D01*
X111768281Y-116179407D01*
X111681108Y-116215515D01*
X111602655Y-116267936D01*
X111535936Y-116334655D01*
X111483515Y-116413108D01*
X111447407Y-116500281D01*
X111429000Y-116592823D01*
X111429000Y-116687177D01*
X111447407Y-116779719D01*
X111483515Y-116866892D01*
X111535936Y-116945345D01*
X111602655Y-117012064D01*
X111681108Y-117064485D01*
X111768281Y-117100593D01*
X111860823Y-117119000D01*
X111926000Y-117119000D01*
X111926000Y-117161000D01*
X111851823Y-117161000D01*
X111759281Y-117179407D01*
X111672108Y-117215515D01*
X111593655Y-117267936D01*
X111526936Y-117334655D01*
X111523511Y-117339781D01*
X111501323Y-117328070D01*
X111387289Y-117294129D01*
X111268824Y-117283087D01*
X111255012Y-117284520D01*
X111255012Y-116253565D01*
X111257031Y-116233066D01*
X111255012Y-116212567D01*
X111255012Y-116212558D01*
X111248971Y-116151223D01*
X111225098Y-116072524D01*
X111186330Y-115999994D01*
X111134157Y-115936422D01*
X111121500Y-115926035D01*
X111121500Y-115925391D01*
X111156711Y-115935871D01*
X111275176Y-115946913D01*
X111393517Y-115934632D01*
X111507189Y-115899500D01*
X111606543Y-115846394D01*
X111618990Y-115725174D01*
X111272000Y-115378184D01*
X111257858Y-115392326D01*
X111219674Y-115354142D01*
X111233816Y-115340000D01*
X111310184Y-115340000D01*
X111657174Y-115686990D01*
X111778394Y-115674543D01*
X111833930Y-115569323D01*
X111867871Y-115455289D01*
X111878913Y-115336824D01*
X111866632Y-115218483D01*
X111831500Y-115104811D01*
X111778394Y-115005457D01*
X111657174Y-114993010D01*
X111310184Y-115340000D01*
X111233816Y-115340000D01*
X111219674Y-115325858D01*
X111257858Y-115287674D01*
X111272000Y-115301816D01*
X111618990Y-114954826D01*
X111606543Y-114833606D01*
X111543603Y-114800386D01*
X111550000Y-114735438D01*
X111550000Y-114677561D01*
X111541622Y-114592496D01*
X111508514Y-114483354D01*
X111454750Y-114382769D01*
X111382395Y-114294605D01*
X111294230Y-114222250D01*
X111193645Y-114168486D01*
X111084503Y-114135378D01*
X111048053Y-114131788D01*
X111041622Y-114066496D01*
X111008514Y-113957354D01*
X110966330Y-113878433D01*
X112008270Y-113878433D01*
X112050463Y-113941580D01*
G37*
X112050463Y-113941580D02*
X112155486Y-114046603D01*
X112161862Y-114050863D01*
X112135250Y-114115112D01*
X112113000Y-114226973D01*
X112113000Y-114341027D01*
X112135250Y-114452888D01*
X112178896Y-114558260D01*
X112242261Y-114653091D01*
X112322909Y-114733739D01*
X112417740Y-114797104D01*
X112523112Y-114840750D01*
X112634973Y-114863000D01*
X112649989Y-114863000D01*
X112649990Y-116728608D01*
X112631892Y-116716515D01*
X112544719Y-116680407D01*
X112452177Y-116662000D01*
X112387000Y-116662000D01*
X112387000Y-116592823D01*
X112368593Y-116500281D01*
X112332485Y-116413108D01*
X112280064Y-116334655D01*
X112213345Y-116267936D01*
X112134892Y-116215515D01*
X112047719Y-116179407D01*
X111955177Y-116161000D01*
X111860823Y-116161000D01*
X111768281Y-116179407D01*
X111681108Y-116215515D01*
X111602655Y-116267936D01*
X111535936Y-116334655D01*
X111483515Y-116413108D01*
X111447407Y-116500281D01*
X111429000Y-116592823D01*
X111429000Y-116687177D01*
X111447407Y-116779719D01*
X111483515Y-116866892D01*
X111535936Y-116945345D01*
X111602655Y-117012064D01*
X111681108Y-117064485D01*
X111768281Y-117100593D01*
X111860823Y-117119000D01*
X111926000Y-117119000D01*
X111926000Y-117161000D01*
X111851823Y-117161000D01*
X111759281Y-117179407D01*
X111672108Y-117215515D01*
X111593655Y-117267936D01*
X111526936Y-117334655D01*
X111523511Y-117339781D01*
X111501323Y-117328070D01*
X111387289Y-117294129D01*
X111268824Y-117283087D01*
X111255012Y-117284520D01*
X111255012Y-116253565D01*
X111257031Y-116233066D01*
X111255012Y-116212567D01*
X111255012Y-116212558D01*
X111248971Y-116151223D01*
X111225098Y-116072524D01*
X111186330Y-115999994D01*
X111134157Y-115936422D01*
X111121500Y-115926035D01*
X111121500Y-115925391D01*
X111156711Y-115935871D01*
X111275176Y-115946913D01*
X111393517Y-115934632D01*
X111507189Y-115899500D01*
X111606543Y-115846394D01*
X111618990Y-115725174D01*
X111272000Y-115378184D01*
X111257858Y-115392326D01*
X111219674Y-115354142D01*
X111233816Y-115340000D01*
X111310184Y-115340000D01*
X111657174Y-115686990D01*
X111778394Y-115674543D01*
X111833930Y-115569323D01*
X111867871Y-115455289D01*
X111878913Y-115336824D01*
X111866632Y-115218483D01*
X111831500Y-115104811D01*
X111778394Y-115005457D01*
X111657174Y-114993010D01*
X111310184Y-115340000D01*
X111233816Y-115340000D01*
X111219674Y-115325858D01*
X111257858Y-115287674D01*
X111272000Y-115301816D01*
X111618990Y-114954826D01*
X111606543Y-114833606D01*
X111543603Y-114800386D01*
X111550000Y-114735438D01*
X111550000Y-114677561D01*
X111541622Y-114592496D01*
X111508514Y-114483354D01*
X111454750Y-114382769D01*
X111382395Y-114294605D01*
X111294230Y-114222250D01*
X111193645Y-114168486D01*
X111084503Y-114135378D01*
X111048053Y-114131788D01*
X111041622Y-114066496D01*
X111008514Y-113957354D01*
X110966330Y-113878433D01*
X112008270Y-113878433D01*
X112050463Y-113941580D01*
G36*
X114312500Y-116495934D02*
G01*
X114312500Y-116519066D01*
X113923500Y-116908066D01*
X113923500Y-116106934D01*
X114312500Y-116495934D01*
G37*
X114312500Y-116495934D02*
X114312500Y-116519066D01*
X113923500Y-116908066D01*
X113923500Y-116106934D01*
X114312500Y-116495934D01*
G36*
X110049326Y-116600858D02*
G01*
X110035184Y-116615000D01*
X110049326Y-116629142D01*
X110011142Y-116667326D01*
X109997000Y-116653184D01*
X109982858Y-116667326D01*
X109944674Y-116629142D01*
X109958816Y-116615000D01*
X109944674Y-116600858D01*
X109982858Y-116562674D01*
X109997000Y-116576816D01*
X110011142Y-116562674D01*
X110049326Y-116600858D01*
G37*
X110049326Y-116600858D02*
X110035184Y-116615000D01*
X110049326Y-116629142D01*
X110011142Y-116667326D01*
X109997000Y-116653184D01*
X109982858Y-116667326D01*
X109944674Y-116629142D01*
X109958816Y-116615000D01*
X109944674Y-116600858D01*
X109982858Y-116562674D01*
X109997000Y-116576816D01*
X110011142Y-116562674D01*
X110049326Y-116600858D01*
G36*
X103969481Y-114471982D02*
G01*
X103971501Y-114492494D01*
X103971501Y-115849527D01*
X103949230Y-115831250D01*
X103848645Y-115777486D01*
X103739503Y-115744378D01*
X103626000Y-115733199D01*
X103512496Y-115744378D01*
X103403354Y-115777486D01*
X103302769Y-115831250D01*
X103214605Y-115903605D01*
X103142250Y-115991770D01*
X103088486Y-116092355D01*
X103055378Y-116201497D01*
X103047000Y-116286562D01*
X103047000Y-116291761D01*
X103039498Y-116292500D01*
X102650501Y-116292500D01*
X102639000Y-116291367D01*
X102639000Y-116266823D01*
X102620593Y-116174281D01*
X102584485Y-116087108D01*
X102532064Y-116008655D01*
X102465345Y-115941936D01*
X102386892Y-115889515D01*
X102299719Y-115853407D01*
X102241028Y-115841733D01*
X102258662Y-115799160D01*
X102277069Y-115706618D01*
X102277069Y-115612264D01*
X102258662Y-115519722D01*
X102222554Y-115432549D01*
X102170133Y-115354096D01*
X102120736Y-115304699D01*
X103034935Y-114390500D01*
X103977505Y-114390500D01*
X103969481Y-114471982D01*
G37*
X103969481Y-114471982D02*
X103971501Y-114492494D01*
X103971501Y-115849527D01*
X103949230Y-115831250D01*
X103848645Y-115777486D01*
X103739503Y-115744378D01*
X103626000Y-115733199D01*
X103512496Y-115744378D01*
X103403354Y-115777486D01*
X103302769Y-115831250D01*
X103214605Y-115903605D01*
X103142250Y-115991770D01*
X103088486Y-116092355D01*
X103055378Y-116201497D01*
X103047000Y-116286562D01*
X103047000Y-116291761D01*
X103039498Y-116292500D01*
X102650501Y-116292500D01*
X102639000Y-116291367D01*
X102639000Y-116266823D01*
X102620593Y-116174281D01*
X102584485Y-116087108D01*
X102532064Y-116008655D01*
X102465345Y-115941936D01*
X102386892Y-115889515D01*
X102299719Y-115853407D01*
X102241028Y-115841733D01*
X102258662Y-115799160D01*
X102277069Y-115706618D01*
X102277069Y-115612264D01*
X102258662Y-115519722D01*
X102222554Y-115432549D01*
X102170133Y-115354096D01*
X102120736Y-115304699D01*
X103034935Y-114390500D01*
X103977505Y-114390500D01*
X103969481Y-114471982D01*
G36*
X106224326Y-115325858D02*
G01*
X106210184Y-115340000D01*
X106224326Y-115354142D01*
X106186142Y-115392326D01*
X106172000Y-115378184D01*
X106157858Y-115392326D01*
X106119674Y-115354142D01*
X106133816Y-115340000D01*
X106119674Y-115325858D01*
X106157858Y-115287674D01*
X106172000Y-115301816D01*
X106186142Y-115287674D01*
X106224326Y-115325858D01*
G37*
X106224326Y-115325858D02*
X106210184Y-115340000D01*
X106224326Y-115354142D01*
X106186142Y-115392326D01*
X106172000Y-115378184D01*
X106157858Y-115392326D01*
X106119674Y-115354142D01*
X106133816Y-115340000D01*
X106119674Y-115325858D01*
X106157858Y-115287674D01*
X106172000Y-115301816D01*
X106186142Y-115287674D01*
X106224326Y-115325858D01*
G36*
X113647976Y-98906934D02*
G01*
X113704814Y-99044153D01*
X113787330Y-99167647D01*
X113892353Y-99272670D01*
X114015847Y-99355186D01*
X114153066Y-99412024D01*
X114181107Y-99417602D01*
X114173029Y-99429692D01*
X114082269Y-99648806D01*
X114036000Y-99881416D01*
X114036000Y-100118584D01*
X114082269Y-100351194D01*
X114173029Y-100570308D01*
X114304792Y-100767505D01*
X114472495Y-100935208D01*
X114669692Y-101066971D01*
X114888806Y-101157731D01*
X115121416Y-101204000D01*
X115358584Y-101204000D01*
X115591194Y-101157731D01*
X115810308Y-101066971D01*
X116007505Y-100935208D01*
X116131001Y-100811712D01*
X116131001Y-101738131D01*
X116076897Y-101674425D01*
X115891951Y-101527786D01*
X115681951Y-101420046D01*
X115454967Y-101355345D01*
X115267000Y-101424802D01*
X115267000Y-102513000D01*
X115287000Y-102513000D01*
X115287000Y-102567000D01*
X115267000Y-102567000D01*
X115267000Y-103655198D01*
X115454967Y-103724655D01*
X115681951Y-103659954D01*
X115891951Y-103552214D01*
X116076897Y-103405575D01*
X116131001Y-103341869D01*
X116131001Y-104268288D01*
X116007505Y-104144792D01*
X115810308Y-104013029D01*
X115591194Y-103922269D01*
X115358584Y-103876000D01*
X115121416Y-103876000D01*
X114888806Y-103922269D01*
X114669692Y-104013029D01*
X114472495Y-104144792D01*
X114304792Y-104312495D01*
X114173029Y-104509692D01*
X114082269Y-104728806D01*
X114036000Y-104961416D01*
X114036000Y-105198584D01*
X114082269Y-105431194D01*
X114145564Y-105584002D01*
X112696283Y-107033283D01*
X112680355Y-107046355D01*
X112667284Y-107062282D01*
X112667281Y-107062285D01*
X112637296Y-107098823D01*
X112628182Y-107109928D01*
X112622842Y-107119918D01*
X112595024Y-106980066D01*
X112538186Y-106842847D01*
X112455670Y-106719353D01*
X112350647Y-106614330D01*
X112227153Y-106531814D01*
X112089934Y-106474976D01*
X111944405Y-106446029D01*
X112175998Y-106214436D01*
X112328806Y-106277731D01*
X112561416Y-106324000D01*
X112798584Y-106324000D01*
X113031194Y-106277731D01*
X113250308Y-106186971D01*
X113447505Y-106055208D01*
X113615208Y-105887505D01*
X113746971Y-105690308D01*
X113837731Y-105471194D01*
X113884000Y-105238584D01*
X113884000Y-105001416D01*
X113837731Y-104768806D01*
X113746971Y-104549692D01*
X113615208Y-104352495D01*
X113447505Y-104184792D01*
X113250308Y-104053029D01*
X113031194Y-103962269D01*
X112798584Y-103916000D01*
X112561416Y-103916000D01*
X112328806Y-103962269D01*
X112109692Y-104053029D01*
X111912495Y-104184792D01*
X111744792Y-104352495D01*
X111613029Y-104549692D01*
X111522269Y-104768806D01*
X111476000Y-105001416D01*
X111476000Y-105238584D01*
X111522269Y-105471194D01*
X111585564Y-105624002D01*
X110332283Y-106877283D01*
X110316355Y-106890355D01*
X110303284Y-106906282D01*
X110303281Y-106906285D01*
X110273296Y-106942823D01*
X110264182Y-106953928D01*
X110225414Y-107026458D01*
X110201541Y-107105157D01*
X110195500Y-107166492D01*
X110195500Y-107166498D01*
X110193481Y-107187000D01*
X110195500Y-107207502D01*
X110195500Y-107346497D01*
X110179739Y-107322909D01*
X110099091Y-107242261D01*
X110004260Y-107178896D01*
X109898888Y-107135250D01*
X109787027Y-107113000D01*
X109672973Y-107113000D01*
X109561112Y-107135250D01*
X109455740Y-107178896D01*
X109360909Y-107242261D01*
X109280261Y-107322909D01*
X109216896Y-107417740D01*
X109173250Y-107523112D01*
X109151000Y-107634973D01*
X109151000Y-107749027D01*
X109173250Y-107860888D01*
X109216896Y-107966260D01*
X109280261Y-108061091D01*
X109360909Y-108141739D01*
X109455740Y-108205104D01*
X109561112Y-108248750D01*
X109672973Y-108271000D01*
X109787027Y-108271000D01*
X109898888Y-108248750D01*
X110004260Y-108205104D01*
X110099091Y-108141739D01*
X110179739Y-108061091D01*
X110195500Y-108037503D01*
X110195501Y-109353563D01*
X109285026Y-110264039D01*
X109269098Y-110277111D01*
X109256027Y-110293038D01*
X109256024Y-110293041D01*
X109239682Y-110312954D01*
X109216925Y-110340684D01*
X109178157Y-110413214D01*
X109157476Y-110481391D01*
X109116004Y-110522863D01*
X109115710Y-110523302D01*
X107044347Y-108451940D01*
X107029343Y-108433657D01*
X106956405Y-108373800D01*
X106873192Y-108329321D01*
X106782900Y-108301931D01*
X106712526Y-108295000D01*
X106712523Y-108295000D01*
X106689000Y-108292683D01*
X106665477Y-108295000D01*
X105432299Y-108295000D01*
X105381260Y-108260896D01*
X105275888Y-108217250D01*
X105164027Y-108195000D01*
X105049973Y-108195000D01*
X104938112Y-108217250D01*
X104832740Y-108260896D01*
X104737909Y-108324261D01*
X104657261Y-108404909D01*
X104593896Y-108499740D01*
X104550250Y-108605112D01*
X104528000Y-108716973D01*
X104528000Y-108831027D01*
X104550250Y-108942888D01*
X104593896Y-109048260D01*
X104657261Y-109143091D01*
X104737909Y-109223739D01*
X104832740Y-109287104D01*
X104938112Y-109330750D01*
X105049973Y-109353000D01*
X105164027Y-109353000D01*
X105275888Y-109330750D01*
X105381260Y-109287104D01*
X105432299Y-109253000D01*
X106490593Y-109253000D01*
X108100407Y-110862815D01*
X108056015Y-110853985D01*
X107907491Y-110853985D01*
X107761819Y-110882961D01*
X107624600Y-110939799D01*
X107547990Y-110990988D01*
X107547990Y-110892992D01*
X107550009Y-110872490D01*
X107547990Y-110851988D01*
X107547990Y-110851981D01*
X107541949Y-110790646D01*
X107531140Y-110755014D01*
X107518076Y-110711946D01*
X107479308Y-110639417D01*
X107440209Y-110591775D01*
X107440207Y-110591773D01*
X107427135Y-110575845D01*
X107411207Y-110562773D01*
X107056357Y-110207923D01*
X107046121Y-110103997D01*
X107013014Y-109994855D01*
X106959250Y-109894269D01*
X106905024Y-109828195D01*
X106823305Y-109746476D01*
X106757231Y-109692250D01*
X106656645Y-109638486D01*
X106547504Y-109605379D01*
X106434000Y-109594200D01*
X106320496Y-109605379D01*
X106211355Y-109638486D01*
X106110769Y-109692250D01*
X106022605Y-109764605D01*
X105950250Y-109852769D01*
X105896486Y-109953355D01*
X105863379Y-110062496D01*
X105852200Y-110176000D01*
X105863379Y-110289504D01*
X105896486Y-110398645D01*
X105950250Y-110499231D01*
X106004476Y-110565305D01*
X106086195Y-110647024D01*
X106152269Y-110701250D01*
X106252855Y-110755014D01*
X106361997Y-110788121D01*
X106465923Y-110798357D01*
X106712991Y-111045425D01*
X106712990Y-111674552D01*
X106710971Y-111695054D01*
X106712990Y-111715556D01*
X106712990Y-111715562D01*
X106717127Y-111757567D01*
X106719031Y-111776898D01*
X106724129Y-111793704D01*
X106742904Y-111855596D01*
X106781672Y-111928126D01*
X106781673Y-111928127D01*
X106820771Y-111975769D01*
X106820774Y-111975772D01*
X106833845Y-111991699D01*
X106849773Y-112004771D01*
X107413242Y-112568240D01*
X107426316Y-112584170D01*
X107442244Y-112597242D01*
X107442246Y-112597244D01*
X107489888Y-112636343D01*
X107562417Y-112675111D01*
X107641117Y-112698984D01*
X107674393Y-112702261D01*
X107670378Y-112715497D01*
X107662000Y-112800562D01*
X107662000Y-112866439D01*
X107670378Y-112951504D01*
X107703486Y-113060646D01*
X107757250Y-113161231D01*
X107822756Y-113241050D01*
X107821481Y-113254000D01*
X107823500Y-113274502D01*
X107823500Y-113274508D01*
X107828042Y-113320621D01*
X107829541Y-113335844D01*
X107831225Y-113341395D01*
X107853414Y-113414542D01*
X107892182Y-113487072D01*
X107892183Y-113487073D01*
X107931281Y-113534715D01*
X107931284Y-113534718D01*
X107944355Y-113550645D01*
X107960284Y-113563717D01*
X108138212Y-113741645D01*
X108151288Y-113757578D01*
X108192621Y-113791500D01*
X107581934Y-113791500D01*
X107523707Y-113733274D01*
X107510635Y-113717345D01*
X107490087Y-113700481D01*
X107469595Y-113683664D01*
X107447063Y-113665172D01*
X107374533Y-113626404D01*
X107295834Y-113602531D01*
X107234499Y-113596490D01*
X107234492Y-113596490D01*
X107213990Y-113594471D01*
X107193488Y-113596490D01*
X106810866Y-113596490D01*
X106790364Y-113594471D01*
X106769862Y-113596490D01*
X106769855Y-113596490D01*
X106708520Y-113602531D01*
X106629821Y-113626404D01*
X106557291Y-113665172D01*
X106493719Y-113717345D01*
X106480644Y-113733277D01*
X106374635Y-113839285D01*
X106374631Y-113839290D01*
X106252774Y-113961146D01*
X106236845Y-113974219D01*
X106223774Y-113990146D01*
X106223771Y-113990149D01*
X106204206Y-114013990D01*
X106184672Y-114037792D01*
X106145904Y-114110322D01*
X106130618Y-114160714D01*
X106122093Y-114188818D01*
X106122031Y-114189021D01*
X106115990Y-114250356D01*
X106115990Y-114250362D01*
X106113971Y-114270864D01*
X106115990Y-114291366D01*
X106115991Y-114714125D01*
X106113971Y-114734636D01*
X106114375Y-114738738D01*
X106050483Y-114745368D01*
X105957500Y-114774106D01*
X105957500Y-113860502D01*
X105959519Y-113840000D01*
X105957500Y-113819498D01*
X105957500Y-113819491D01*
X105951459Y-113758156D01*
X105927586Y-113679457D01*
X105888818Y-113606927D01*
X105883954Y-113601000D01*
X105849719Y-113559285D01*
X105849717Y-113559283D01*
X105836645Y-113543355D01*
X105820718Y-113530284D01*
X105059717Y-112769283D01*
X105046645Y-112753355D01*
X105025388Y-112735909D01*
X105001914Y-112716645D01*
X104983073Y-112701182D01*
X104910543Y-112662414D01*
X104831844Y-112638541D01*
X104770509Y-112632500D01*
X104770502Y-112632500D01*
X104750000Y-112630481D01*
X104729498Y-112632500D01*
X103432934Y-112632500D01*
X102121257Y-111320823D01*
X102874000Y-111320823D01*
X102874000Y-111415177D01*
X102892407Y-111507719D01*
X102928515Y-111594892D01*
X102980936Y-111673345D01*
X103047655Y-111740064D01*
X103126108Y-111792485D01*
X103213281Y-111828593D01*
X103305823Y-111847000D01*
X103400177Y-111847000D01*
X103492719Y-111828593D01*
X103579892Y-111792485D01*
X103658345Y-111740064D01*
X103725064Y-111673345D01*
X103777485Y-111594892D01*
X103813593Y-111507719D01*
X103832000Y-111415177D01*
X103832000Y-111320823D01*
X103813593Y-111228281D01*
X103777485Y-111141108D01*
X103725064Y-111062655D01*
X103658345Y-110995936D01*
X103579892Y-110943515D01*
X103492719Y-110907407D01*
X103400177Y-110889000D01*
X103305823Y-110889000D01*
X103213281Y-110907407D01*
X103126108Y-110943515D01*
X103047655Y-110995936D01*
X102980936Y-111062655D01*
X102928515Y-111141108D01*
X102892407Y-111228281D01*
X102874000Y-111320823D01*
X102121257Y-111320823D01*
X101997500Y-111197066D01*
X101997500Y-108471516D01*
X101999519Y-108451017D01*
X101997500Y-108430518D01*
X101997500Y-108430509D01*
X101991459Y-108369174D01*
X101967586Y-108290475D01*
X101937386Y-108233973D01*
X102943000Y-108233973D01*
X102943000Y-108348027D01*
X102965250Y-108459888D01*
X103008896Y-108565260D01*
X103072261Y-108660091D01*
X103152909Y-108740739D01*
X103247740Y-108804104D01*
X103353112Y-108847750D01*
X103464973Y-108870000D01*
X103579027Y-108870000D01*
X103690888Y-108847750D01*
X103796260Y-108804104D01*
X103891091Y-108740739D01*
X103971739Y-108660091D01*
X104035104Y-108565260D01*
X104078750Y-108459888D01*
X104101000Y-108348027D01*
X104101000Y-108233973D01*
X104078750Y-108122112D01*
X104035104Y-108016740D01*
X103971739Y-107921909D01*
X103891091Y-107841261D01*
X103796260Y-107777896D01*
X103690888Y-107734250D01*
X103579027Y-107712000D01*
X103464973Y-107712000D01*
X103353112Y-107734250D01*
X103247740Y-107777896D01*
X103152909Y-107841261D01*
X103072261Y-107921909D01*
X103008896Y-108016740D01*
X102965250Y-108122112D01*
X102943000Y-108233973D01*
X101937386Y-108233973D01*
X101928818Y-108217945D01*
X101876645Y-108154373D01*
X101860718Y-108141302D01*
X101531001Y-107811585D01*
X101531001Y-105737069D01*
X101604792Y-105847505D01*
X101772495Y-106015208D01*
X101969692Y-106146971D01*
X102188806Y-106237731D01*
X102421416Y-106284000D01*
X102658584Y-106284000D01*
X102891194Y-106237731D01*
X103110308Y-106146971D01*
X103307505Y-106015208D01*
X103475208Y-105847505D01*
X103606971Y-105650308D01*
X103697731Y-105431194D01*
X103744000Y-105198584D01*
X103744000Y-104961416D01*
X103876000Y-104961416D01*
X103876000Y-105198584D01*
X103922269Y-105431194D01*
X104013029Y-105650308D01*
X104144792Y-105847505D01*
X104312495Y-106015208D01*
X104509692Y-106146971D01*
X104728806Y-106237731D01*
X104961416Y-106284000D01*
X105198584Y-106284000D01*
X105431194Y-106237731D01*
X105650308Y-106146971D01*
X105847505Y-106015208D01*
X106015208Y-105847505D01*
X106146971Y-105650308D01*
X106237731Y-105431194D01*
X106284000Y-105198584D01*
X106284000Y-104961416D01*
X106416000Y-104961416D01*
X106416000Y-105198584D01*
X106462269Y-105431194D01*
X106553029Y-105650308D01*
X106684792Y-105847505D01*
X106852495Y-106015208D01*
X107049692Y-106146971D01*
X107268806Y-106237731D01*
X107501416Y-106284000D01*
X107738584Y-106284000D01*
X107971194Y-106237731D01*
X108190308Y-106146971D01*
X108387505Y-106015208D01*
X108555208Y-105847505D01*
X108686971Y-105650308D01*
X108777731Y-105431194D01*
X108785380Y-105392738D01*
X109676000Y-105392738D01*
X109676000Y-105541262D01*
X109704976Y-105686934D01*
X109761814Y-105824153D01*
X109844330Y-105947647D01*
X109949353Y-106052670D01*
X110072847Y-106135186D01*
X110210066Y-106192024D01*
X110355738Y-106221000D01*
X110504262Y-106221000D01*
X110649934Y-106192024D01*
X110787153Y-106135186D01*
X110910647Y-106052670D01*
X111015670Y-105947647D01*
X111098186Y-105824153D01*
X111155024Y-105686934D01*
X111184000Y-105541262D01*
X111184000Y-105392738D01*
X111155024Y-105247066D01*
X111098186Y-105109847D01*
X111015670Y-104986353D01*
X110910647Y-104881330D01*
X110787153Y-104798814D01*
X110649934Y-104741976D01*
X110504262Y-104713000D01*
X110355738Y-104713000D01*
X110210066Y-104741976D01*
X110072847Y-104798814D01*
X109949353Y-104881330D01*
X109844330Y-104986353D01*
X109761814Y-105109847D01*
X109704976Y-105247066D01*
X109676000Y-105392738D01*
X108785380Y-105392738D01*
X108824000Y-105198584D01*
X108824000Y-104961416D01*
X108777731Y-104728806D01*
X108686971Y-104509692D01*
X108555208Y-104312495D01*
X108387505Y-104144792D01*
X108190308Y-104013029D01*
X107971194Y-103922269D01*
X107738584Y-103876000D01*
X107501416Y-103876000D01*
X107268806Y-103922269D01*
X107049692Y-104013029D01*
X106852495Y-104144792D01*
X106684792Y-104312495D01*
X106553029Y-104509692D01*
X106462269Y-104728806D01*
X106416000Y-104961416D01*
X106284000Y-104961416D01*
X106237731Y-104728806D01*
X106146971Y-104509692D01*
X106015208Y-104312495D01*
X105847505Y-104144792D01*
X105650308Y-104013029D01*
X105431194Y-103922269D01*
X105198584Y-103876000D01*
X104961416Y-103876000D01*
X104728806Y-103922269D01*
X104509692Y-104013029D01*
X104312495Y-104144792D01*
X104144792Y-104312495D01*
X104013029Y-104509692D01*
X103922269Y-104728806D01*
X103876000Y-104961416D01*
X103744000Y-104961416D01*
X103697731Y-104728806D01*
X103606971Y-104509692D01*
X103475208Y-104312495D01*
X103307505Y-104144792D01*
X103110308Y-104013029D01*
X102891194Y-103922269D01*
X102658584Y-103876000D01*
X102421416Y-103876000D01*
X102188806Y-103922269D01*
X101969692Y-104013029D01*
X101772495Y-104144792D01*
X101604792Y-104312495D01*
X101531001Y-104422931D01*
X101531001Y-103388239D01*
X101619719Y-103370593D01*
X101706892Y-103334485D01*
X101785345Y-103282064D01*
X101852064Y-103215345D01*
X101904485Y-103136892D01*
X101940593Y-103049719D01*
X101959000Y-102957177D01*
X101959000Y-102947005D01*
X101977936Y-102975345D01*
X102044655Y-103042064D01*
X102123108Y-103094485D01*
X102210281Y-103130593D01*
X102302823Y-103149000D01*
X102397177Y-103149000D01*
X102489719Y-103130593D01*
X102576892Y-103094485D01*
X102590133Y-103085637D01*
X102677683Y-103192317D01*
X102815334Y-103305285D01*
X102972380Y-103389228D01*
X103142785Y-103440920D01*
X103320000Y-103458374D01*
X103497214Y-103440920D01*
X103667619Y-103389228D01*
X103824665Y-103305285D01*
X103962317Y-103192317D01*
X104075285Y-103054666D01*
X104159228Y-102897620D01*
X104210920Y-102727215D01*
X104224000Y-102594410D01*
X104224000Y-101903250D01*
X104297163Y-101976413D01*
X104408373Y-102050722D01*
X104531943Y-102101906D01*
X104663124Y-102128000D01*
X104796876Y-102128000D01*
X104928057Y-102101906D01*
X105051627Y-102050722D01*
X105162837Y-101976413D01*
X105257413Y-101881837D01*
X105331722Y-101770627D01*
X105382906Y-101647057D01*
X105409000Y-101515876D01*
X105409000Y-101382124D01*
X105382906Y-101250943D01*
X105331722Y-101127373D01*
X105257413Y-101016163D01*
X105162837Y-100921587D01*
X105051627Y-100847278D01*
X104928057Y-100796094D01*
X104796876Y-100770000D01*
X104663124Y-100770000D01*
X104531943Y-100796094D01*
X104408373Y-100847278D01*
X104297163Y-100921587D01*
X104202587Y-101016163D01*
X104152895Y-101090532D01*
X104075285Y-100945334D01*
X103962317Y-100807683D01*
X103824666Y-100694715D01*
X103667620Y-100610772D01*
X103541455Y-100572500D01*
X105204066Y-100572500D01*
X105452501Y-100820935D01*
X105452500Y-101715273D01*
X105440842Y-101724841D01*
X105365363Y-101816812D01*
X105309277Y-101921741D01*
X105274740Y-102035595D01*
X105266000Y-102124333D01*
X105266000Y-102254666D01*
X105274740Y-102343404D01*
X105309277Y-102457258D01*
X105365363Y-102562187D01*
X105440841Y-102654159D01*
X105532812Y-102729637D01*
X105637741Y-102785723D01*
X105751595Y-102820260D01*
X105870000Y-102831922D01*
X105988404Y-102820260D01*
X106102258Y-102785723D01*
X106207187Y-102729637D01*
X106299159Y-102654159D01*
X106374637Y-102562188D01*
X106430723Y-102457259D01*
X106465260Y-102343405D01*
X106474000Y-102254667D01*
X106474000Y-102124334D01*
X106468780Y-102071333D01*
X108266000Y-102071333D01*
X108266000Y-102254666D01*
X108274740Y-102343404D01*
X108309277Y-102457258D01*
X108365363Y-102562187D01*
X108440841Y-102654159D01*
X108532812Y-102729637D01*
X108637741Y-102785723D01*
X108751595Y-102820260D01*
X108870000Y-102831922D01*
X108988404Y-102820260D01*
X109102258Y-102785723D01*
X109207187Y-102729637D01*
X109299159Y-102654159D01*
X109374637Y-102562188D01*
X109430723Y-102457259D01*
X109465260Y-102343405D01*
X109474000Y-102254667D01*
X109474000Y-102071334D01*
X109465260Y-101982596D01*
X109430723Y-101868742D01*
X109374637Y-101763813D01*
X109324392Y-101702589D01*
X109925736Y-101101246D01*
X109908278Y-101127373D01*
X109857094Y-101250943D01*
X109831000Y-101382124D01*
X109831000Y-101515876D01*
X109857094Y-101647057D01*
X109908278Y-101770627D01*
X109982587Y-101881837D01*
X110077163Y-101976413D01*
X110188373Y-102050722D01*
X110311943Y-102101906D01*
X110443124Y-102128000D01*
X110576876Y-102128000D01*
X110708057Y-102101906D01*
X110831627Y-102050722D01*
X110942837Y-101976413D01*
X111016001Y-101903249D01*
X111016000Y-102594409D01*
X111029080Y-102727214D01*
X111080772Y-102897619D01*
X111164715Y-103054665D01*
X111277683Y-103192317D01*
X111415334Y-103305285D01*
X111572380Y-103389228D01*
X111742785Y-103440920D01*
X111920000Y-103458374D01*
X112097214Y-103440920D01*
X112267619Y-103389228D01*
X112424665Y-103305285D01*
X112562317Y-103192317D01*
X112675285Y-103054666D01*
X112759228Y-102897620D01*
X112802501Y-102754967D01*
X114055346Y-102754967D01*
X114063257Y-102794745D01*
X114135566Y-103019421D01*
X114250318Y-103225673D01*
X114403103Y-103405575D01*
X114588049Y-103552214D01*
X114798049Y-103659954D01*
X115025033Y-103724655D01*
X115213000Y-103655198D01*
X115213000Y-102567000D01*
X114124827Y-102567000D01*
X114055346Y-102754967D01*
X112802501Y-102754967D01*
X112810920Y-102727215D01*
X112824000Y-102594410D01*
X112824000Y-102325033D01*
X114055346Y-102325033D01*
X114124827Y-102513000D01*
X115213000Y-102513000D01*
X115213000Y-101424802D01*
X115025033Y-101355345D01*
X114798049Y-101420046D01*
X114588049Y-101527786D01*
X114403103Y-101674425D01*
X114250318Y-101854327D01*
X114135566Y-102060579D01*
X114063257Y-102285255D01*
X114055346Y-102325033D01*
X112824000Y-102325033D01*
X112824000Y-101414779D01*
X112830430Y-101422614D01*
X112945886Y-101538070D01*
X113014813Y-101594637D01*
X113119742Y-101650723D01*
X113233596Y-101685260D01*
X113352000Y-101696922D01*
X113470404Y-101685260D01*
X113584259Y-101650723D01*
X113689187Y-101594637D01*
X113781158Y-101519158D01*
X113856637Y-101427187D01*
X113912723Y-101322259D01*
X113947260Y-101208404D01*
X113958922Y-101090000D01*
X113947260Y-100971596D01*
X113912723Y-100857742D01*
X113856637Y-100752813D01*
X113800070Y-100683886D01*
X113684614Y-100568430D01*
X113615687Y-100511863D01*
X113510759Y-100455778D01*
X113396904Y-100421240D01*
X113309625Y-100412644D01*
X113118091Y-100221110D01*
X113104027Y-100203973D01*
X113035658Y-100147864D01*
X112957656Y-100106171D01*
X112873019Y-100080497D01*
X112807053Y-100074000D01*
X112785000Y-100071828D01*
X112762947Y-100074000D01*
X109891049Y-100074000D01*
X109868999Y-100071828D01*
X109846949Y-100074000D01*
X109846947Y-100074000D01*
X109780981Y-100080497D01*
X109696344Y-100106171D01*
X109618342Y-100147864D01*
X109549973Y-100203973D01*
X109535914Y-100221104D01*
X108568105Y-101188914D01*
X108550974Y-101202973D01*
X108536916Y-101220103D01*
X108494865Y-101271342D01*
X108453172Y-101349344D01*
X108427497Y-101433981D01*
X108418828Y-101522000D01*
X108421001Y-101544063D01*
X108421001Y-101696018D01*
X108365363Y-101763812D01*
X108309277Y-101868741D01*
X108274740Y-101982595D01*
X108266000Y-102071333D01*
X106468780Y-102071333D01*
X106465260Y-102035596D01*
X106430723Y-101921742D01*
X106374637Y-101816813D01*
X106299159Y-101724841D01*
X106287500Y-101715273D01*
X106287500Y-100668498D01*
X106289519Y-100647999D01*
X106287500Y-100627500D01*
X106287500Y-100627491D01*
X106281459Y-100566156D01*
X106257586Y-100487457D01*
X106218818Y-100414927D01*
X106166645Y-100351355D01*
X106150717Y-100338283D01*
X105686717Y-99874283D01*
X105673645Y-99858355D01*
X105610073Y-99806182D01*
X105537543Y-99767414D01*
X105458844Y-99743541D01*
X105397509Y-99737500D01*
X105397502Y-99737500D01*
X105377000Y-99735481D01*
X105356498Y-99737500D01*
X102772435Y-99737500D01*
X102843024Y-99716087D01*
X102915554Y-99677319D01*
X102979126Y-99625146D01*
X102992198Y-99609218D01*
X103072417Y-99528999D01*
X112530999Y-99528999D01*
X112551501Y-99531018D01*
X112572003Y-99528999D01*
X112572010Y-99528999D01*
X112633345Y-99522958D01*
X112712044Y-99499085D01*
X112784574Y-99460317D01*
X112848146Y-99408144D01*
X112861220Y-99392214D01*
X113370435Y-98883000D01*
X113416027Y-98883000D01*
X113527888Y-98860750D01*
X113630348Y-98818310D01*
X113647976Y-98906934D01*
G37*
X113647976Y-98906934D02*
X113704814Y-99044153D01*
X113787330Y-99167647D01*
X113892353Y-99272670D01*
X114015847Y-99355186D01*
X114153066Y-99412024D01*
X114181107Y-99417602D01*
X114173029Y-99429692D01*
X114082269Y-99648806D01*
X114036000Y-99881416D01*
X114036000Y-100118584D01*
X114082269Y-100351194D01*
X114173029Y-100570308D01*
X114304792Y-100767505D01*
X114472495Y-100935208D01*
X114669692Y-101066971D01*
X114888806Y-101157731D01*
X115121416Y-101204000D01*
X115358584Y-101204000D01*
X115591194Y-101157731D01*
X115810308Y-101066971D01*
X116007505Y-100935208D01*
X116131001Y-100811712D01*
X116131001Y-101738131D01*
X116076897Y-101674425D01*
X115891951Y-101527786D01*
X115681951Y-101420046D01*
X115454967Y-101355345D01*
X115267000Y-101424802D01*
X115267000Y-102513000D01*
X115287000Y-102513000D01*
X115287000Y-102567000D01*
X115267000Y-102567000D01*
X115267000Y-103655198D01*
X115454967Y-103724655D01*
X115681951Y-103659954D01*
X115891951Y-103552214D01*
X116076897Y-103405575D01*
X116131001Y-103341869D01*
X116131001Y-104268288D01*
X116007505Y-104144792D01*
X115810308Y-104013029D01*
X115591194Y-103922269D01*
X115358584Y-103876000D01*
X115121416Y-103876000D01*
X114888806Y-103922269D01*
X114669692Y-104013029D01*
X114472495Y-104144792D01*
X114304792Y-104312495D01*
X114173029Y-104509692D01*
X114082269Y-104728806D01*
X114036000Y-104961416D01*
X114036000Y-105198584D01*
X114082269Y-105431194D01*
X114145564Y-105584002D01*
X112696283Y-107033283D01*
X112680355Y-107046355D01*
X112667284Y-107062282D01*
X112667281Y-107062285D01*
X112637296Y-107098823D01*
X112628182Y-107109928D01*
X112622842Y-107119918D01*
X112595024Y-106980066D01*
X112538186Y-106842847D01*
X112455670Y-106719353D01*
X112350647Y-106614330D01*
X112227153Y-106531814D01*
X112089934Y-106474976D01*
X111944405Y-106446029D01*
X112175998Y-106214436D01*
X112328806Y-106277731D01*
X112561416Y-106324000D01*
X112798584Y-106324000D01*
X113031194Y-106277731D01*
X113250308Y-106186971D01*
X113447505Y-106055208D01*
X113615208Y-105887505D01*
X113746971Y-105690308D01*
X113837731Y-105471194D01*
X113884000Y-105238584D01*
X113884000Y-105001416D01*
X113837731Y-104768806D01*
X113746971Y-104549692D01*
X113615208Y-104352495D01*
X113447505Y-104184792D01*
X113250308Y-104053029D01*
X113031194Y-103962269D01*
X112798584Y-103916000D01*
X112561416Y-103916000D01*
X112328806Y-103962269D01*
X112109692Y-104053029D01*
X111912495Y-104184792D01*
X111744792Y-104352495D01*
X111613029Y-104549692D01*
X111522269Y-104768806D01*
X111476000Y-105001416D01*
X111476000Y-105238584D01*
X111522269Y-105471194D01*
X111585564Y-105624002D01*
X110332283Y-106877283D01*
X110316355Y-106890355D01*
X110303284Y-106906282D01*
X110303281Y-106906285D01*
X110273296Y-106942823D01*
X110264182Y-106953928D01*
X110225414Y-107026458D01*
X110201541Y-107105157D01*
X110195500Y-107166492D01*
X110195500Y-107166498D01*
X110193481Y-107187000D01*
X110195500Y-107207502D01*
X110195500Y-107346497D01*
X110179739Y-107322909D01*
X110099091Y-107242261D01*
X110004260Y-107178896D01*
X109898888Y-107135250D01*
X109787027Y-107113000D01*
X109672973Y-107113000D01*
X109561112Y-107135250D01*
X109455740Y-107178896D01*
X109360909Y-107242261D01*
X109280261Y-107322909D01*
X109216896Y-107417740D01*
X109173250Y-107523112D01*
X109151000Y-107634973D01*
X109151000Y-107749027D01*
X109173250Y-107860888D01*
X109216896Y-107966260D01*
X109280261Y-108061091D01*
X109360909Y-108141739D01*
X109455740Y-108205104D01*
X109561112Y-108248750D01*
X109672973Y-108271000D01*
X109787027Y-108271000D01*
X109898888Y-108248750D01*
X110004260Y-108205104D01*
X110099091Y-108141739D01*
X110179739Y-108061091D01*
X110195500Y-108037503D01*
X110195501Y-109353563D01*
X109285026Y-110264039D01*
X109269098Y-110277111D01*
X109256027Y-110293038D01*
X109256024Y-110293041D01*
X109239682Y-110312954D01*
X109216925Y-110340684D01*
X109178157Y-110413214D01*
X109157476Y-110481391D01*
X109116004Y-110522863D01*
X109115710Y-110523302D01*
X107044347Y-108451940D01*
X107029343Y-108433657D01*
X106956405Y-108373800D01*
X106873192Y-108329321D01*
X106782900Y-108301931D01*
X106712526Y-108295000D01*
X106712523Y-108295000D01*
X106689000Y-108292683D01*
X106665477Y-108295000D01*
X105432299Y-108295000D01*
X105381260Y-108260896D01*
X105275888Y-108217250D01*
X105164027Y-108195000D01*
X105049973Y-108195000D01*
X104938112Y-108217250D01*
X104832740Y-108260896D01*
X104737909Y-108324261D01*
X104657261Y-108404909D01*
X104593896Y-108499740D01*
X104550250Y-108605112D01*
X104528000Y-108716973D01*
X104528000Y-108831027D01*
X104550250Y-108942888D01*
X104593896Y-109048260D01*
X104657261Y-109143091D01*
X104737909Y-109223739D01*
X104832740Y-109287104D01*
X104938112Y-109330750D01*
X105049973Y-109353000D01*
X105164027Y-109353000D01*
X105275888Y-109330750D01*
X105381260Y-109287104D01*
X105432299Y-109253000D01*
X106490593Y-109253000D01*
X108100407Y-110862815D01*
X108056015Y-110853985D01*
X107907491Y-110853985D01*
X107761819Y-110882961D01*
X107624600Y-110939799D01*
X107547990Y-110990988D01*
X107547990Y-110892992D01*
X107550009Y-110872490D01*
X107547990Y-110851988D01*
X107547990Y-110851981D01*
X107541949Y-110790646D01*
X107531140Y-110755014D01*
X107518076Y-110711946D01*
X107479308Y-110639417D01*
X107440209Y-110591775D01*
X107440207Y-110591773D01*
X107427135Y-110575845D01*
X107411207Y-110562773D01*
X107056357Y-110207923D01*
X107046121Y-110103997D01*
X107013014Y-109994855D01*
X106959250Y-109894269D01*
X106905024Y-109828195D01*
X106823305Y-109746476D01*
X106757231Y-109692250D01*
X106656645Y-109638486D01*
X106547504Y-109605379D01*
X106434000Y-109594200D01*
X106320496Y-109605379D01*
X106211355Y-109638486D01*
X106110769Y-109692250D01*
X106022605Y-109764605D01*
X105950250Y-109852769D01*
X105896486Y-109953355D01*
X105863379Y-110062496D01*
X105852200Y-110176000D01*
X105863379Y-110289504D01*
X105896486Y-110398645D01*
X105950250Y-110499231D01*
X106004476Y-110565305D01*
X106086195Y-110647024D01*
X106152269Y-110701250D01*
X106252855Y-110755014D01*
X106361997Y-110788121D01*
X106465923Y-110798357D01*
X106712991Y-111045425D01*
X106712990Y-111674552D01*
X106710971Y-111695054D01*
X106712990Y-111715556D01*
X106712990Y-111715562D01*
X106717127Y-111757567D01*
X106719031Y-111776898D01*
X106724129Y-111793704D01*
X106742904Y-111855596D01*
X106781672Y-111928126D01*
X106781673Y-111928127D01*
X106820771Y-111975769D01*
X106820774Y-111975772D01*
X106833845Y-111991699D01*
X106849773Y-112004771D01*
X107413242Y-112568240D01*
X107426316Y-112584170D01*
X107442244Y-112597242D01*
X107442246Y-112597244D01*
X107489888Y-112636343D01*
X107562417Y-112675111D01*
X107641117Y-112698984D01*
X107674393Y-112702261D01*
X107670378Y-112715497D01*
X107662000Y-112800562D01*
X107662000Y-112866439D01*
X107670378Y-112951504D01*
X107703486Y-113060646D01*
X107757250Y-113161231D01*
X107822756Y-113241050D01*
X107821481Y-113254000D01*
X107823500Y-113274502D01*
X107823500Y-113274508D01*
X107828042Y-113320621D01*
X107829541Y-113335844D01*
X107831225Y-113341395D01*
X107853414Y-113414542D01*
X107892182Y-113487072D01*
X107892183Y-113487073D01*
X107931281Y-113534715D01*
X107931284Y-113534718D01*
X107944355Y-113550645D01*
X107960284Y-113563717D01*
X108138212Y-113741645D01*
X108151288Y-113757578D01*
X108192621Y-113791500D01*
X107581934Y-113791500D01*
X107523707Y-113733274D01*
X107510635Y-113717345D01*
X107490087Y-113700481D01*
X107469595Y-113683664D01*
X107447063Y-113665172D01*
X107374533Y-113626404D01*
X107295834Y-113602531D01*
X107234499Y-113596490D01*
X107234492Y-113596490D01*
X107213990Y-113594471D01*
X107193488Y-113596490D01*
X106810866Y-113596490D01*
X106790364Y-113594471D01*
X106769862Y-113596490D01*
X106769855Y-113596490D01*
X106708520Y-113602531D01*
X106629821Y-113626404D01*
X106557291Y-113665172D01*
X106493719Y-113717345D01*
X106480644Y-113733277D01*
X106374635Y-113839285D01*
X106374631Y-113839290D01*
X106252774Y-113961146D01*
X106236845Y-113974219D01*
X106223774Y-113990146D01*
X106223771Y-113990149D01*
X106204206Y-114013990D01*
X106184672Y-114037792D01*
X106145904Y-114110322D01*
X106130618Y-114160714D01*
X106122093Y-114188818D01*
X106122031Y-114189021D01*
X106115990Y-114250356D01*
X106115990Y-114250362D01*
X106113971Y-114270864D01*
X106115990Y-114291366D01*
X106115991Y-114714125D01*
X106113971Y-114734636D01*
X106114375Y-114738738D01*
X106050483Y-114745368D01*
X105957500Y-114774106D01*
X105957500Y-113860502D01*
X105959519Y-113840000D01*
X105957500Y-113819498D01*
X105957500Y-113819491D01*
X105951459Y-113758156D01*
X105927586Y-113679457D01*
X105888818Y-113606927D01*
X105883954Y-113601000D01*
X105849719Y-113559285D01*
X105849717Y-113559283D01*
X105836645Y-113543355D01*
X105820718Y-113530284D01*
X105059717Y-112769283D01*
X105046645Y-112753355D01*
X105025388Y-112735909D01*
X105001914Y-112716645D01*
X104983073Y-112701182D01*
X104910543Y-112662414D01*
X104831844Y-112638541D01*
X104770509Y-112632500D01*
X104770502Y-112632500D01*
X104750000Y-112630481D01*
X104729498Y-112632500D01*
X103432934Y-112632500D01*
X102121257Y-111320823D01*
X102874000Y-111320823D01*
X102874000Y-111415177D01*
X102892407Y-111507719D01*
X102928515Y-111594892D01*
X102980936Y-111673345D01*
X103047655Y-111740064D01*
X103126108Y-111792485D01*
X103213281Y-111828593D01*
X103305823Y-111847000D01*
X103400177Y-111847000D01*
X103492719Y-111828593D01*
X103579892Y-111792485D01*
X103658345Y-111740064D01*
X103725064Y-111673345D01*
X103777485Y-111594892D01*
X103813593Y-111507719D01*
X103832000Y-111415177D01*
X103832000Y-111320823D01*
X103813593Y-111228281D01*
X103777485Y-111141108D01*
X103725064Y-111062655D01*
X103658345Y-110995936D01*
X103579892Y-110943515D01*
X103492719Y-110907407D01*
X103400177Y-110889000D01*
X103305823Y-110889000D01*
X103213281Y-110907407D01*
X103126108Y-110943515D01*
X103047655Y-110995936D01*
X102980936Y-111062655D01*
X102928515Y-111141108D01*
X102892407Y-111228281D01*
X102874000Y-111320823D01*
X102121257Y-111320823D01*
X101997500Y-111197066D01*
X101997500Y-108471516D01*
X101999519Y-108451017D01*
X101997500Y-108430518D01*
X101997500Y-108430509D01*
X101991459Y-108369174D01*
X101967586Y-108290475D01*
X101937386Y-108233973D01*
X102943000Y-108233973D01*
X102943000Y-108348027D01*
X102965250Y-108459888D01*
X103008896Y-108565260D01*
X103072261Y-108660091D01*
X103152909Y-108740739D01*
X103247740Y-108804104D01*
X103353112Y-108847750D01*
X103464973Y-108870000D01*
X103579027Y-108870000D01*
X103690888Y-108847750D01*
X103796260Y-108804104D01*
X103891091Y-108740739D01*
X103971739Y-108660091D01*
X104035104Y-108565260D01*
X104078750Y-108459888D01*
X104101000Y-108348027D01*
X104101000Y-108233973D01*
X104078750Y-108122112D01*
X104035104Y-108016740D01*
X103971739Y-107921909D01*
X103891091Y-107841261D01*
X103796260Y-107777896D01*
X103690888Y-107734250D01*
X103579027Y-107712000D01*
X103464973Y-107712000D01*
X103353112Y-107734250D01*
X103247740Y-107777896D01*
X103152909Y-107841261D01*
X103072261Y-107921909D01*
X103008896Y-108016740D01*
X102965250Y-108122112D01*
X102943000Y-108233973D01*
X101937386Y-108233973D01*
X101928818Y-108217945D01*
X101876645Y-108154373D01*
X101860718Y-108141302D01*
X101531001Y-107811585D01*
X101531001Y-105737069D01*
X101604792Y-105847505D01*
X101772495Y-106015208D01*
X101969692Y-106146971D01*
X102188806Y-106237731D01*
X102421416Y-106284000D01*
X102658584Y-106284000D01*
X102891194Y-106237731D01*
X103110308Y-106146971D01*
X103307505Y-106015208D01*
X103475208Y-105847505D01*
X103606971Y-105650308D01*
X103697731Y-105431194D01*
X103744000Y-105198584D01*
X103744000Y-104961416D01*
X103876000Y-104961416D01*
X103876000Y-105198584D01*
X103922269Y-105431194D01*
X104013029Y-105650308D01*
X104144792Y-105847505D01*
X104312495Y-106015208D01*
X104509692Y-106146971D01*
X104728806Y-106237731D01*
X104961416Y-106284000D01*
X105198584Y-106284000D01*
X105431194Y-106237731D01*
X105650308Y-106146971D01*
X105847505Y-106015208D01*
X106015208Y-105847505D01*
X106146971Y-105650308D01*
X106237731Y-105431194D01*
X106284000Y-105198584D01*
X106284000Y-104961416D01*
X106416000Y-104961416D01*
X106416000Y-105198584D01*
X106462269Y-105431194D01*
X106553029Y-105650308D01*
X106684792Y-105847505D01*
X106852495Y-106015208D01*
X107049692Y-106146971D01*
X107268806Y-106237731D01*
X107501416Y-106284000D01*
X107738584Y-106284000D01*
X107971194Y-106237731D01*
X108190308Y-106146971D01*
X108387505Y-106015208D01*
X108555208Y-105847505D01*
X108686971Y-105650308D01*
X108777731Y-105431194D01*
X108785380Y-105392738D01*
X109676000Y-105392738D01*
X109676000Y-105541262D01*
X109704976Y-105686934D01*
X109761814Y-105824153D01*
X109844330Y-105947647D01*
X109949353Y-106052670D01*
X110072847Y-106135186D01*
X110210066Y-106192024D01*
X110355738Y-106221000D01*
X110504262Y-106221000D01*
X110649934Y-106192024D01*
X110787153Y-106135186D01*
X110910647Y-106052670D01*
X111015670Y-105947647D01*
X111098186Y-105824153D01*
X111155024Y-105686934D01*
X111184000Y-105541262D01*
X111184000Y-105392738D01*
X111155024Y-105247066D01*
X111098186Y-105109847D01*
X111015670Y-104986353D01*
X110910647Y-104881330D01*
X110787153Y-104798814D01*
X110649934Y-104741976D01*
X110504262Y-104713000D01*
X110355738Y-104713000D01*
X110210066Y-104741976D01*
X110072847Y-104798814D01*
X109949353Y-104881330D01*
X109844330Y-104986353D01*
X109761814Y-105109847D01*
X109704976Y-105247066D01*
X109676000Y-105392738D01*
X108785380Y-105392738D01*
X108824000Y-105198584D01*
X108824000Y-104961416D01*
X108777731Y-104728806D01*
X108686971Y-104509692D01*
X108555208Y-104312495D01*
X108387505Y-104144792D01*
X108190308Y-104013029D01*
X107971194Y-103922269D01*
X107738584Y-103876000D01*
X107501416Y-103876000D01*
X107268806Y-103922269D01*
X107049692Y-104013029D01*
X106852495Y-104144792D01*
X106684792Y-104312495D01*
X106553029Y-104509692D01*
X106462269Y-104728806D01*
X106416000Y-104961416D01*
X106284000Y-104961416D01*
X106237731Y-104728806D01*
X106146971Y-104509692D01*
X106015208Y-104312495D01*
X105847505Y-104144792D01*
X105650308Y-104013029D01*
X105431194Y-103922269D01*
X105198584Y-103876000D01*
X104961416Y-103876000D01*
X104728806Y-103922269D01*
X104509692Y-104013029D01*
X104312495Y-104144792D01*
X104144792Y-104312495D01*
X104013029Y-104509692D01*
X103922269Y-104728806D01*
X103876000Y-104961416D01*
X103744000Y-104961416D01*
X103697731Y-104728806D01*
X103606971Y-104509692D01*
X103475208Y-104312495D01*
X103307505Y-104144792D01*
X103110308Y-104013029D01*
X102891194Y-103922269D01*
X102658584Y-103876000D01*
X102421416Y-103876000D01*
X102188806Y-103922269D01*
X101969692Y-104013029D01*
X101772495Y-104144792D01*
X101604792Y-104312495D01*
X101531001Y-104422931D01*
X101531001Y-103388239D01*
X101619719Y-103370593D01*
X101706892Y-103334485D01*
X101785345Y-103282064D01*
X101852064Y-103215345D01*
X101904485Y-103136892D01*
X101940593Y-103049719D01*
X101959000Y-102957177D01*
X101959000Y-102947005D01*
X101977936Y-102975345D01*
X102044655Y-103042064D01*
X102123108Y-103094485D01*
X102210281Y-103130593D01*
X102302823Y-103149000D01*
X102397177Y-103149000D01*
X102489719Y-103130593D01*
X102576892Y-103094485D01*
X102590133Y-103085637D01*
X102677683Y-103192317D01*
X102815334Y-103305285D01*
X102972380Y-103389228D01*
X103142785Y-103440920D01*
X103320000Y-103458374D01*
X103497214Y-103440920D01*
X103667619Y-103389228D01*
X103824665Y-103305285D01*
X103962317Y-103192317D01*
X104075285Y-103054666D01*
X104159228Y-102897620D01*
X104210920Y-102727215D01*
X104224000Y-102594410D01*
X104224000Y-101903250D01*
X104297163Y-101976413D01*
X104408373Y-102050722D01*
X104531943Y-102101906D01*
X104663124Y-102128000D01*
X104796876Y-102128000D01*
X104928057Y-102101906D01*
X105051627Y-102050722D01*
X105162837Y-101976413D01*
X105257413Y-101881837D01*
X105331722Y-101770627D01*
X105382906Y-101647057D01*
X105409000Y-101515876D01*
X105409000Y-101382124D01*
X105382906Y-101250943D01*
X105331722Y-101127373D01*
X105257413Y-101016163D01*
X105162837Y-100921587D01*
X105051627Y-100847278D01*
X104928057Y-100796094D01*
X104796876Y-100770000D01*
X104663124Y-100770000D01*
X104531943Y-100796094D01*
X104408373Y-100847278D01*
X104297163Y-100921587D01*
X104202587Y-101016163D01*
X104152895Y-101090532D01*
X104075285Y-100945334D01*
X103962317Y-100807683D01*
X103824666Y-100694715D01*
X103667620Y-100610772D01*
X103541455Y-100572500D01*
X105204066Y-100572500D01*
X105452501Y-100820935D01*
X105452500Y-101715273D01*
X105440842Y-101724841D01*
X105365363Y-101816812D01*
X105309277Y-101921741D01*
X105274740Y-102035595D01*
X105266000Y-102124333D01*
X105266000Y-102254666D01*
X105274740Y-102343404D01*
X105309277Y-102457258D01*
X105365363Y-102562187D01*
X105440841Y-102654159D01*
X105532812Y-102729637D01*
X105637741Y-102785723D01*
X105751595Y-102820260D01*
X105870000Y-102831922D01*
X105988404Y-102820260D01*
X106102258Y-102785723D01*
X106207187Y-102729637D01*
X106299159Y-102654159D01*
X106374637Y-102562188D01*
X106430723Y-102457259D01*
X106465260Y-102343405D01*
X106474000Y-102254667D01*
X106474000Y-102124334D01*
X106468780Y-102071333D01*
X108266000Y-102071333D01*
X108266000Y-102254666D01*
X108274740Y-102343404D01*
X108309277Y-102457258D01*
X108365363Y-102562187D01*
X108440841Y-102654159D01*
X108532812Y-102729637D01*
X108637741Y-102785723D01*
X108751595Y-102820260D01*
X108870000Y-102831922D01*
X108988404Y-102820260D01*
X109102258Y-102785723D01*
X109207187Y-102729637D01*
X109299159Y-102654159D01*
X109374637Y-102562188D01*
X109430723Y-102457259D01*
X109465260Y-102343405D01*
X109474000Y-102254667D01*
X109474000Y-102071334D01*
X109465260Y-101982596D01*
X109430723Y-101868742D01*
X109374637Y-101763813D01*
X109324392Y-101702589D01*
X109925736Y-101101246D01*
X109908278Y-101127373D01*
X109857094Y-101250943D01*
X109831000Y-101382124D01*
X109831000Y-101515876D01*
X109857094Y-101647057D01*
X109908278Y-101770627D01*
X109982587Y-101881837D01*
X110077163Y-101976413D01*
X110188373Y-102050722D01*
X110311943Y-102101906D01*
X110443124Y-102128000D01*
X110576876Y-102128000D01*
X110708057Y-102101906D01*
X110831627Y-102050722D01*
X110942837Y-101976413D01*
X111016001Y-101903249D01*
X111016000Y-102594409D01*
X111029080Y-102727214D01*
X111080772Y-102897619D01*
X111164715Y-103054665D01*
X111277683Y-103192317D01*
X111415334Y-103305285D01*
X111572380Y-103389228D01*
X111742785Y-103440920D01*
X111920000Y-103458374D01*
X112097214Y-103440920D01*
X112267619Y-103389228D01*
X112424665Y-103305285D01*
X112562317Y-103192317D01*
X112675285Y-103054666D01*
X112759228Y-102897620D01*
X112802501Y-102754967D01*
X114055346Y-102754967D01*
X114063257Y-102794745D01*
X114135566Y-103019421D01*
X114250318Y-103225673D01*
X114403103Y-103405575D01*
X114588049Y-103552214D01*
X114798049Y-103659954D01*
X115025033Y-103724655D01*
X115213000Y-103655198D01*
X115213000Y-102567000D01*
X114124827Y-102567000D01*
X114055346Y-102754967D01*
X112802501Y-102754967D01*
X112810920Y-102727215D01*
X112824000Y-102594410D01*
X112824000Y-102325033D01*
X114055346Y-102325033D01*
X114124827Y-102513000D01*
X115213000Y-102513000D01*
X115213000Y-101424802D01*
X115025033Y-101355345D01*
X114798049Y-101420046D01*
X114588049Y-101527786D01*
X114403103Y-101674425D01*
X114250318Y-101854327D01*
X114135566Y-102060579D01*
X114063257Y-102285255D01*
X114055346Y-102325033D01*
X112824000Y-102325033D01*
X112824000Y-101414779D01*
X112830430Y-101422614D01*
X112945886Y-101538070D01*
X113014813Y-101594637D01*
X113119742Y-101650723D01*
X113233596Y-101685260D01*
X113352000Y-101696922D01*
X113470404Y-101685260D01*
X113584259Y-101650723D01*
X113689187Y-101594637D01*
X113781158Y-101519158D01*
X113856637Y-101427187D01*
X113912723Y-101322259D01*
X113947260Y-101208404D01*
X113958922Y-101090000D01*
X113947260Y-100971596D01*
X113912723Y-100857742D01*
X113856637Y-100752813D01*
X113800070Y-100683886D01*
X113684614Y-100568430D01*
X113615687Y-100511863D01*
X113510759Y-100455778D01*
X113396904Y-100421240D01*
X113309625Y-100412644D01*
X113118091Y-100221110D01*
X113104027Y-100203973D01*
X113035658Y-100147864D01*
X112957656Y-100106171D01*
X112873019Y-100080497D01*
X112807053Y-100074000D01*
X112785000Y-100071828D01*
X112762947Y-100074000D01*
X109891049Y-100074000D01*
X109868999Y-100071828D01*
X109846949Y-100074000D01*
X109846947Y-100074000D01*
X109780981Y-100080497D01*
X109696344Y-100106171D01*
X109618342Y-100147864D01*
X109549973Y-100203973D01*
X109535914Y-100221104D01*
X108568105Y-101188914D01*
X108550974Y-101202973D01*
X108536916Y-101220103D01*
X108494865Y-101271342D01*
X108453172Y-101349344D01*
X108427497Y-101433981D01*
X108418828Y-101522000D01*
X108421001Y-101544063D01*
X108421001Y-101696018D01*
X108365363Y-101763812D01*
X108309277Y-101868741D01*
X108274740Y-101982595D01*
X108266000Y-102071333D01*
X106468780Y-102071333D01*
X106465260Y-102035596D01*
X106430723Y-101921742D01*
X106374637Y-101816813D01*
X106299159Y-101724841D01*
X106287500Y-101715273D01*
X106287500Y-100668498D01*
X106289519Y-100647999D01*
X106287500Y-100627500D01*
X106287500Y-100627491D01*
X106281459Y-100566156D01*
X106257586Y-100487457D01*
X106218818Y-100414927D01*
X106166645Y-100351355D01*
X106150717Y-100338283D01*
X105686717Y-99874283D01*
X105673645Y-99858355D01*
X105610073Y-99806182D01*
X105537543Y-99767414D01*
X105458844Y-99743541D01*
X105397509Y-99737500D01*
X105397502Y-99737500D01*
X105377000Y-99735481D01*
X105356498Y-99737500D01*
X102772435Y-99737500D01*
X102843024Y-99716087D01*
X102915554Y-99677319D01*
X102979126Y-99625146D01*
X102992198Y-99609218D01*
X103072417Y-99528999D01*
X112530999Y-99528999D01*
X112551501Y-99531018D01*
X112572003Y-99528999D01*
X112572010Y-99528999D01*
X112633345Y-99522958D01*
X112712044Y-99499085D01*
X112784574Y-99460317D01*
X112848146Y-99408144D01*
X112861220Y-99392214D01*
X113370435Y-98883000D01*
X113416027Y-98883000D01*
X113527888Y-98860750D01*
X113630348Y-98818310D01*
X113647976Y-98906934D01*
G36*
X102765540Y-113565974D02*
G01*
X102756282Y-113568783D01*
X102701457Y-113585414D01*
X102628927Y-113624182D01*
X102628925Y-113624183D01*
X102628926Y-113624183D01*
X102581284Y-113663281D01*
X102581277Y-113663288D01*
X102565355Y-113676355D01*
X102552288Y-113692277D01*
X101839848Y-114404718D01*
X101826403Y-114391273D01*
X101747950Y-114338852D01*
X101660777Y-114302744D01*
X101568235Y-114284337D01*
X101481979Y-114284337D01*
X101481979Y-112282413D01*
X102765540Y-113565974D01*
G37*
X102765540Y-113565974D02*
X102756282Y-113568783D01*
X102701457Y-113585414D01*
X102628927Y-113624182D01*
X102628925Y-113624183D01*
X102628926Y-113624183D01*
X102581284Y-113663281D01*
X102581277Y-113663288D01*
X102565355Y-113676355D01*
X102552288Y-113692277D01*
X101839848Y-114404718D01*
X101826403Y-114391273D01*
X101747950Y-114338852D01*
X101660777Y-114302744D01*
X101568235Y-114284337D01*
X101481979Y-114284337D01*
X101481979Y-112282413D01*
X102765540Y-113565974D01*
G36*
X111144976Y-107419934D02*
G01*
X111201814Y-107557153D01*
X111284330Y-107680647D01*
X111389353Y-107785670D01*
X111512847Y-107868186D01*
X111650066Y-107925024D01*
X111743069Y-107943523D01*
X111700966Y-107960963D01*
X111577472Y-108043479D01*
X111472449Y-108148502D01*
X111389933Y-108271996D01*
X111333095Y-108409215D01*
X111304119Y-108554887D01*
X111304119Y-108703411D01*
X111333095Y-108849083D01*
X111389933Y-108986302D01*
X111472449Y-109109796D01*
X111577472Y-109214819D01*
X111700966Y-109297335D01*
X111838185Y-109354173D01*
X111983857Y-109383149D01*
X112132381Y-109383149D01*
X112278053Y-109354173D01*
X112415272Y-109297335D01*
X112538766Y-109214819D01*
X112559500Y-109194085D01*
X112559501Y-112399488D01*
X112557481Y-112420000D01*
X112565541Y-112501844D01*
X112589415Y-112580543D01*
X112628183Y-112653073D01*
X112667281Y-112700715D01*
X112667289Y-112700723D01*
X112672385Y-112706933D01*
X112561871Y-112706933D01*
X112416199Y-112735909D01*
X112278980Y-112792747D01*
X112155486Y-112875263D01*
X112050463Y-112980286D01*
X112008270Y-113043433D01*
X110900628Y-113043433D01*
X110911800Y-112929999D01*
X110900621Y-112816496D01*
X110867514Y-112707355D01*
X110813750Y-112606769D01*
X110759524Y-112540695D01*
X110630305Y-112411476D01*
X110568585Y-112360823D01*
X111028000Y-112360823D01*
X111028000Y-112455177D01*
X111046407Y-112547719D01*
X111082515Y-112634892D01*
X111134936Y-112713345D01*
X111201655Y-112780064D01*
X111280108Y-112832485D01*
X111367281Y-112868593D01*
X111459823Y-112887000D01*
X111554177Y-112887000D01*
X111646719Y-112868593D01*
X111733892Y-112832485D01*
X111812345Y-112780064D01*
X111879064Y-112713345D01*
X111931485Y-112634892D01*
X111967593Y-112547719D01*
X111986000Y-112455177D01*
X111986000Y-112360823D01*
X111967593Y-112268281D01*
X111931485Y-112181108D01*
X111879064Y-112102655D01*
X111812345Y-112035936D01*
X111733892Y-111983515D01*
X111646719Y-111947407D01*
X111554177Y-111929000D01*
X111459823Y-111929000D01*
X111367281Y-111947407D01*
X111280108Y-111983515D01*
X111201655Y-112035936D01*
X111134936Y-112102655D01*
X111082515Y-112181108D01*
X111046407Y-112268281D01*
X111028000Y-112360823D01*
X110568585Y-112360823D01*
X110564231Y-112357250D01*
X110463645Y-112303486D01*
X110354504Y-112270379D01*
X110347054Y-112269645D01*
X109548361Y-111470954D01*
X109622770Y-111470954D01*
X109734631Y-111448704D01*
X109840003Y-111405058D01*
X109934834Y-111341693D01*
X109948683Y-111327844D01*
X109952096Y-111330124D01*
X110057468Y-111373770D01*
X110169329Y-111396020D01*
X110283383Y-111396020D01*
X110395244Y-111373770D01*
X110500616Y-111330124D01*
X110595447Y-111266759D01*
X110676095Y-111186111D01*
X110739460Y-111091280D01*
X110783106Y-110985908D01*
X110805356Y-110874047D01*
X110805356Y-110759993D01*
X110783106Y-110648132D01*
X110739460Y-110542760D01*
X110676095Y-110447929D01*
X110595447Y-110367281D01*
X110500616Y-110303916D01*
X110447867Y-110282067D01*
X110893723Y-109836211D01*
X110909645Y-109823144D01*
X110922712Y-109807222D01*
X110922719Y-109807215D01*
X110961817Y-109759573D01*
X110963470Y-109756481D01*
X111000586Y-109687042D01*
X111024459Y-109608343D01*
X111030500Y-109547008D01*
X111030500Y-109547002D01*
X111032519Y-109526500D01*
X111030500Y-109505998D01*
X111030500Y-107359934D01*
X111116029Y-107274405D01*
X111144976Y-107419934D01*
G37*
X111144976Y-107419934D02*
X111201814Y-107557153D01*
X111284330Y-107680647D01*
X111389353Y-107785670D01*
X111512847Y-107868186D01*
X111650066Y-107925024D01*
X111743069Y-107943523D01*
X111700966Y-107960963D01*
X111577472Y-108043479D01*
X111472449Y-108148502D01*
X111389933Y-108271996D01*
X111333095Y-108409215D01*
X111304119Y-108554887D01*
X111304119Y-108703411D01*
X111333095Y-108849083D01*
X111389933Y-108986302D01*
X111472449Y-109109796D01*
X111577472Y-109214819D01*
X111700966Y-109297335D01*
X111838185Y-109354173D01*
X111983857Y-109383149D01*
X112132381Y-109383149D01*
X112278053Y-109354173D01*
X112415272Y-109297335D01*
X112538766Y-109214819D01*
X112559500Y-109194085D01*
X112559501Y-112399488D01*
X112557481Y-112420000D01*
X112565541Y-112501844D01*
X112589415Y-112580543D01*
X112628183Y-112653073D01*
X112667281Y-112700715D01*
X112667289Y-112700723D01*
X112672385Y-112706933D01*
X112561871Y-112706933D01*
X112416199Y-112735909D01*
X112278980Y-112792747D01*
X112155486Y-112875263D01*
X112050463Y-112980286D01*
X112008270Y-113043433D01*
X110900628Y-113043433D01*
X110911800Y-112929999D01*
X110900621Y-112816496D01*
X110867514Y-112707355D01*
X110813750Y-112606769D01*
X110759524Y-112540695D01*
X110630305Y-112411476D01*
X110568585Y-112360823D01*
X111028000Y-112360823D01*
X111028000Y-112455177D01*
X111046407Y-112547719D01*
X111082515Y-112634892D01*
X111134936Y-112713345D01*
X111201655Y-112780064D01*
X111280108Y-112832485D01*
X111367281Y-112868593D01*
X111459823Y-112887000D01*
X111554177Y-112887000D01*
X111646719Y-112868593D01*
X111733892Y-112832485D01*
X111812345Y-112780064D01*
X111879064Y-112713345D01*
X111931485Y-112634892D01*
X111967593Y-112547719D01*
X111986000Y-112455177D01*
X111986000Y-112360823D01*
X111967593Y-112268281D01*
X111931485Y-112181108D01*
X111879064Y-112102655D01*
X111812345Y-112035936D01*
X111733892Y-111983515D01*
X111646719Y-111947407D01*
X111554177Y-111929000D01*
X111459823Y-111929000D01*
X111367281Y-111947407D01*
X111280108Y-111983515D01*
X111201655Y-112035936D01*
X111134936Y-112102655D01*
X111082515Y-112181108D01*
X111046407Y-112268281D01*
X111028000Y-112360823D01*
X110568585Y-112360823D01*
X110564231Y-112357250D01*
X110463645Y-112303486D01*
X110354504Y-112270379D01*
X110347054Y-112269645D01*
X109548361Y-111470954D01*
X109622770Y-111470954D01*
X109734631Y-111448704D01*
X109840003Y-111405058D01*
X109934834Y-111341693D01*
X109948683Y-111327844D01*
X109952096Y-111330124D01*
X110057468Y-111373770D01*
X110169329Y-111396020D01*
X110283383Y-111396020D01*
X110395244Y-111373770D01*
X110500616Y-111330124D01*
X110595447Y-111266759D01*
X110676095Y-111186111D01*
X110739460Y-111091280D01*
X110783106Y-110985908D01*
X110805356Y-110874047D01*
X110805356Y-110759993D01*
X110783106Y-110648132D01*
X110739460Y-110542760D01*
X110676095Y-110447929D01*
X110595447Y-110367281D01*
X110500616Y-110303916D01*
X110447867Y-110282067D01*
X110893723Y-109836211D01*
X110909645Y-109823144D01*
X110922712Y-109807222D01*
X110922719Y-109807215D01*
X110961817Y-109759573D01*
X110963470Y-109756481D01*
X111000586Y-109687042D01*
X111024459Y-109608343D01*
X111030500Y-109547008D01*
X111030500Y-109547002D01*
X111032519Y-109526500D01*
X111030500Y-109505998D01*
X111030500Y-107359934D01*
X111116029Y-107274405D01*
X111144976Y-107419934D01*
G36*
X116131001Y-106808288D02*
G01*
X116007505Y-106684792D01*
X115810308Y-106553029D01*
X115591194Y-106462269D01*
X115358584Y-106416000D01*
X115121416Y-106416000D01*
X114888806Y-106462269D01*
X114669692Y-106553029D01*
X114472495Y-106684792D01*
X114304792Y-106852495D01*
X114173029Y-107049692D01*
X114082269Y-107268806D01*
X114036000Y-107501416D01*
X114036000Y-107738584D01*
X114082269Y-107971194D01*
X114173029Y-108190308D01*
X114304792Y-108387505D01*
X114472495Y-108555208D01*
X114669692Y-108686971D01*
X114888806Y-108777731D01*
X115121416Y-108824000D01*
X115358584Y-108824000D01*
X115591194Y-108777731D01*
X115810308Y-108686971D01*
X116007505Y-108555208D01*
X116131001Y-108431712D01*
X116131001Y-109348288D01*
X116007505Y-109224792D01*
X115810308Y-109093029D01*
X115591194Y-109002269D01*
X115358584Y-108956000D01*
X115121416Y-108956000D01*
X114888806Y-109002269D01*
X114669692Y-109093029D01*
X114472495Y-109224792D01*
X114304792Y-109392495D01*
X114173029Y-109589692D01*
X114082269Y-109808806D01*
X114036000Y-110041416D01*
X114036000Y-110278584D01*
X114082269Y-110511194D01*
X114145564Y-110664002D01*
X113781235Y-111028331D01*
X113765307Y-111041403D01*
X113752236Y-111057330D01*
X113752233Y-111057333D01*
X113734534Y-111078900D01*
X113713134Y-111104976D01*
X113674366Y-111177506D01*
X113666551Y-111203270D01*
X113650928Y-111254772D01*
X113650493Y-111256205D01*
X113644452Y-111317540D01*
X113644452Y-111317546D01*
X113642433Y-111338048D01*
X113644452Y-111358550D01*
X113644453Y-112497019D01*
X113394500Y-112247066D01*
X113394500Y-107515934D01*
X114735998Y-106174436D01*
X114888806Y-106237731D01*
X115121416Y-106284000D01*
X115358584Y-106284000D01*
X115591194Y-106237731D01*
X115810308Y-106146971D01*
X116007505Y-106015208D01*
X116131001Y-105891712D01*
X116131001Y-106808288D01*
G37*
X116131001Y-106808288D02*
X116007505Y-106684792D01*
X115810308Y-106553029D01*
X115591194Y-106462269D01*
X115358584Y-106416000D01*
X115121416Y-106416000D01*
X114888806Y-106462269D01*
X114669692Y-106553029D01*
X114472495Y-106684792D01*
X114304792Y-106852495D01*
X114173029Y-107049692D01*
X114082269Y-107268806D01*
X114036000Y-107501416D01*
X114036000Y-107738584D01*
X114082269Y-107971194D01*
X114173029Y-108190308D01*
X114304792Y-108387505D01*
X114472495Y-108555208D01*
X114669692Y-108686971D01*
X114888806Y-108777731D01*
X115121416Y-108824000D01*
X115358584Y-108824000D01*
X115591194Y-108777731D01*
X115810308Y-108686971D01*
X116007505Y-108555208D01*
X116131001Y-108431712D01*
X116131001Y-109348288D01*
X116007505Y-109224792D01*
X115810308Y-109093029D01*
X115591194Y-109002269D01*
X115358584Y-108956000D01*
X115121416Y-108956000D01*
X114888806Y-109002269D01*
X114669692Y-109093029D01*
X114472495Y-109224792D01*
X114304792Y-109392495D01*
X114173029Y-109589692D01*
X114082269Y-109808806D01*
X114036000Y-110041416D01*
X114036000Y-110278584D01*
X114082269Y-110511194D01*
X114145564Y-110664002D01*
X113781235Y-111028331D01*
X113765307Y-111041403D01*
X113752236Y-111057330D01*
X113752233Y-111057333D01*
X113734534Y-111078900D01*
X113713134Y-111104976D01*
X113674366Y-111177506D01*
X113666551Y-111203270D01*
X113650928Y-111254772D01*
X113650493Y-111256205D01*
X113644452Y-111317540D01*
X113644452Y-111317546D01*
X113642433Y-111338048D01*
X113644452Y-111358550D01*
X113644453Y-112497019D01*
X113394500Y-112247066D01*
X113394500Y-107515934D01*
X114735998Y-106174436D01*
X114888806Y-106237731D01*
X115121416Y-106284000D01*
X115358584Y-106284000D01*
X115591194Y-106237731D01*
X115810308Y-106146971D01*
X116007505Y-106015208D01*
X116131001Y-105891712D01*
X116131001Y-106808288D01*
G36*
X99232495Y-103475208D02*
G01*
X99429692Y-103606971D01*
X99648806Y-103697731D01*
X99881416Y-103744000D01*
X100118584Y-103744000D01*
X100351194Y-103697731D01*
X100570308Y-103606971D01*
X100696001Y-103522985D01*
X100696002Y-104102713D01*
X100651951Y-104067786D01*
X100441951Y-103960046D01*
X100214967Y-103895345D01*
X100027000Y-103964802D01*
X100027000Y-105053000D01*
X100047000Y-105053000D01*
X100047000Y-105107000D01*
X100027000Y-105107000D01*
X100027000Y-106195198D01*
X100214967Y-106264655D01*
X100441951Y-106199954D01*
X100651951Y-106092214D01*
X100696002Y-106057287D01*
X100696002Y-106640532D01*
X100689097Y-106625604D01*
X100481860Y-106510274D01*
X100256104Y-106437592D01*
X100020507Y-106410347D01*
X99784122Y-106429590D01*
X99556032Y-106494579D01*
X99345005Y-106602818D01*
X99310903Y-106625604D01*
X99226424Y-106808241D01*
X100000000Y-107581816D01*
X100014142Y-107567674D01*
X100052326Y-107605858D01*
X100038184Y-107620000D01*
X100052326Y-107634142D01*
X100014142Y-107672326D01*
X100000000Y-107658184D01*
X99226424Y-108431759D01*
X99310903Y-108614396D01*
X99518140Y-108729726D01*
X99743896Y-108802408D01*
X99979493Y-108829653D01*
X100215878Y-108810410D01*
X100443968Y-108745421D01*
X100533532Y-108699482D01*
X100533532Y-108699559D01*
X100555782Y-108811420D01*
X100599428Y-108916792D01*
X100662793Y-109011623D01*
X100677540Y-109026370D01*
X100659134Y-109038669D01*
X100592415Y-109105388D01*
X100591301Y-109107056D01*
X100570308Y-109093029D01*
X100351194Y-109002269D01*
X100118584Y-108956000D01*
X99881416Y-108956000D01*
X99648806Y-109002269D01*
X99429692Y-109093029D01*
X99232495Y-109224792D01*
X99109000Y-109348287D01*
X99109000Y-108356923D01*
X99188241Y-108393576D01*
X99961816Y-107620000D01*
X99188241Y-106846424D01*
X99109000Y-106883077D01*
X99109000Y-105881870D01*
X99163103Y-105945575D01*
X99348049Y-106092214D01*
X99558049Y-106199954D01*
X99785033Y-106264655D01*
X99973000Y-106195198D01*
X99973000Y-105107000D01*
X99953000Y-105107000D01*
X99953000Y-105053000D01*
X99973000Y-105053000D01*
X99973000Y-103964802D01*
X99785033Y-103895345D01*
X99558049Y-103960046D01*
X99348049Y-104067786D01*
X99163103Y-104214425D01*
X99109000Y-104278130D01*
X99109000Y-103351713D01*
X99232495Y-103475208D01*
G37*
X99232495Y-103475208D02*
X99429692Y-103606971D01*
X99648806Y-103697731D01*
X99881416Y-103744000D01*
X100118584Y-103744000D01*
X100351194Y-103697731D01*
X100570308Y-103606971D01*
X100696001Y-103522985D01*
X100696002Y-104102713D01*
X100651951Y-104067786D01*
X100441951Y-103960046D01*
X100214967Y-103895345D01*
X100027000Y-103964802D01*
X100027000Y-105053000D01*
X100047000Y-105053000D01*
X100047000Y-105107000D01*
X100027000Y-105107000D01*
X100027000Y-106195198D01*
X100214967Y-106264655D01*
X100441951Y-106199954D01*
X100651951Y-106092214D01*
X100696002Y-106057287D01*
X100696002Y-106640532D01*
X100689097Y-106625604D01*
X100481860Y-106510274D01*
X100256104Y-106437592D01*
X100020507Y-106410347D01*
X99784122Y-106429590D01*
X99556032Y-106494579D01*
X99345005Y-106602818D01*
X99310903Y-106625604D01*
X99226424Y-106808241D01*
X100000000Y-107581816D01*
X100014142Y-107567674D01*
X100052326Y-107605858D01*
X100038184Y-107620000D01*
X100052326Y-107634142D01*
X100014142Y-107672326D01*
X100000000Y-107658184D01*
X99226424Y-108431759D01*
X99310903Y-108614396D01*
X99518140Y-108729726D01*
X99743896Y-108802408D01*
X99979493Y-108829653D01*
X100215878Y-108810410D01*
X100443968Y-108745421D01*
X100533532Y-108699482D01*
X100533532Y-108699559D01*
X100555782Y-108811420D01*
X100599428Y-108916792D01*
X100662793Y-109011623D01*
X100677540Y-109026370D01*
X100659134Y-109038669D01*
X100592415Y-109105388D01*
X100591301Y-109107056D01*
X100570308Y-109093029D01*
X100351194Y-109002269D01*
X100118584Y-108956000D01*
X99881416Y-108956000D01*
X99648806Y-109002269D01*
X99429692Y-109093029D01*
X99232495Y-109224792D01*
X99109000Y-109348287D01*
X99109000Y-108356923D01*
X99188241Y-108393576D01*
X99961816Y-107620000D01*
X99188241Y-106846424D01*
X99109000Y-106883077D01*
X99109000Y-105881870D01*
X99163103Y-105945575D01*
X99348049Y-106092214D01*
X99558049Y-106199954D01*
X99785033Y-106264655D01*
X99973000Y-106195198D01*
X99973000Y-105107000D01*
X99953000Y-105107000D01*
X99953000Y-105053000D01*
X99973000Y-105053000D01*
X99973000Y-103964802D01*
X99785033Y-103895345D01*
X99558049Y-103960046D01*
X99348049Y-104067786D01*
X99163103Y-104214425D01*
X99109000Y-104278130D01*
X99109000Y-103351713D01*
X99232495Y-103475208D01*
G36*
X102564716Y-100945334D02*
G01*
X102480773Y-101102380D01*
X102429081Y-101272785D01*
X102416001Y-101405590D01*
X102416000Y-102194744D01*
X102397177Y-102191000D01*
X102302823Y-102191000D01*
X102210281Y-102209407D01*
X102123108Y-102245515D01*
X102044655Y-102297936D01*
X101977936Y-102364655D01*
X101925515Y-102443108D01*
X101889407Y-102530281D01*
X101871000Y-102622823D01*
X101871000Y-102632995D01*
X101852064Y-102604655D01*
X101785345Y-102537936D01*
X101706892Y-102485515D01*
X101619719Y-102449407D01*
X101531001Y-102431761D01*
X101531001Y-101608859D01*
X101588741Y-101639722D01*
X101702596Y-101674260D01*
X101821000Y-101685922D01*
X101939404Y-101674260D01*
X102053259Y-101639722D01*
X102158187Y-101583637D01*
X102227114Y-101527070D01*
X102313570Y-101440614D01*
X102370137Y-101371687D01*
X102426223Y-101266758D01*
X102460760Y-101152903D01*
X102472422Y-101034500D01*
X102470944Y-101019490D01*
X102654494Y-100835940D01*
X102564716Y-100945334D01*
G37*
X102564716Y-100945334D02*
X102480773Y-101102380D01*
X102429081Y-101272785D01*
X102416001Y-101405590D01*
X102416000Y-102194744D01*
X102397177Y-102191000D01*
X102302823Y-102191000D01*
X102210281Y-102209407D01*
X102123108Y-102245515D01*
X102044655Y-102297936D01*
X101977936Y-102364655D01*
X101925515Y-102443108D01*
X101889407Y-102530281D01*
X101871000Y-102622823D01*
X101871000Y-102632995D01*
X101852064Y-102604655D01*
X101785345Y-102537936D01*
X101706892Y-102485515D01*
X101619719Y-102449407D01*
X101531001Y-102431761D01*
X101531001Y-101608859D01*
X101588741Y-101639722D01*
X101702596Y-101674260D01*
X101821000Y-101685922D01*
X101939404Y-101674260D01*
X102053259Y-101639722D01*
X102158187Y-101583637D01*
X102227114Y-101527070D01*
X102313570Y-101440614D01*
X102370137Y-101371687D01*
X102426223Y-101266758D01*
X102460760Y-101152903D01*
X102472422Y-101034500D01*
X102470944Y-101019490D01*
X102654494Y-100835940D01*
X102564716Y-100945334D01*
G36*
X102018784Y-99609218D02*
G01*
X102031856Y-99625146D01*
X102095428Y-99677319D01*
X102167958Y-99716087D01*
X102246657Y-99739960D01*
X102307992Y-99746001D01*
X102308001Y-99746001D01*
X102328500Y-99748020D01*
X102348999Y-99746001D01*
X102655046Y-99746001D01*
X102584457Y-99767414D01*
X102511927Y-99806182D01*
X102448355Y-99858355D01*
X102435283Y-99874283D01*
X101880510Y-100429056D01*
X101865500Y-100427578D01*
X101747097Y-100439240D01*
X101633242Y-100473777D01*
X101531001Y-100528426D01*
X101531001Y-99551003D01*
X101533020Y-99530501D01*
X101531001Y-99509999D01*
X101531001Y-99509992D01*
X101524960Y-99448657D01*
X101521867Y-99438459D01*
X101514594Y-99414485D01*
X101501087Y-99369958D01*
X101468659Y-99309290D01*
X101482463Y-99295486D01*
X101705052Y-99295486D01*
X102018784Y-99609218D01*
G37*
X102018784Y-99609218D02*
X102031856Y-99625146D01*
X102095428Y-99677319D01*
X102167958Y-99716087D01*
X102246657Y-99739960D01*
X102307992Y-99746001D01*
X102308001Y-99746001D01*
X102328500Y-99748020D01*
X102348999Y-99746001D01*
X102655046Y-99746001D01*
X102584457Y-99767414D01*
X102511927Y-99806182D01*
X102448355Y-99858355D01*
X102435283Y-99874283D01*
X101880510Y-100429056D01*
X101865500Y-100427578D01*
X101747097Y-100439240D01*
X101633242Y-100473777D01*
X101531001Y-100528426D01*
X101531001Y-99551003D01*
X101533020Y-99530501D01*
X101531001Y-99509999D01*
X101531001Y-99509992D01*
X101524960Y-99448657D01*
X101521867Y-99438459D01*
X101514594Y-99414485D01*
X101501087Y-99369958D01*
X101468659Y-99309290D01*
X101482463Y-99295486D01*
X101705052Y-99295486D01*
X102018784Y-99609218D01*
%TD*%
M02*
