%TF.GenerationSoftware,KiCad,Pcbnew,(5.1.6-0-10_14)*%
%TF.CreationDate,2022-03-04T18:58:24-06:00*%
%TF.ProjectId,Bonsai_C4,426f6e73-6169-45f4-9334-2e6b69636164,rev?*%
%TF.SameCoordinates,Original*%
%TF.FileFunction,Legend,Bot*%
%TF.FilePolarity,Positive*%
%FSLAX46Y46*%
G04 Gerber Fmt 4.6, Leading zero omitted, Abs format (unit mm)*
G04 Created by KiCad (PCBNEW (5.1.6-0-10_14)) date 2022-03-04 18:58:24*
%MOMM*%
%LPD*%
G01*
G04 APERTURE LIST*
%ADD10C,0.120000*%
%ADD11C,0.300000*%
%ADD12C,0.100000*%
%ADD13C,0.010000*%
G04 APERTURE END LIST*
D10*
X100910000Y-99480000D02*
X101210000Y-99250000D01*
X100610000Y-101710000D02*
X101180000Y-100940000D01*
D11*
X105152857Y-132271428D02*
X105224285Y-132485714D01*
X105295714Y-132557142D01*
X105438571Y-132628571D01*
X105652857Y-132628571D01*
X105795714Y-132557142D01*
X105867142Y-132485714D01*
X105938571Y-132342857D01*
X105938571Y-131771428D01*
X104438571Y-131771428D01*
X104438571Y-132271428D01*
X104510000Y-132414285D01*
X104581428Y-132485714D01*
X104724285Y-132557142D01*
X104867142Y-132557142D01*
X105010000Y-132485714D01*
X105081428Y-132414285D01*
X105152857Y-132271428D01*
X105152857Y-131771428D01*
X105938571Y-133485714D02*
X105867142Y-133342857D01*
X105795714Y-133271428D01*
X105652857Y-133200000D01*
X105224285Y-133200000D01*
X105081428Y-133271428D01*
X105010000Y-133342857D01*
X104938571Y-133485714D01*
X104938571Y-133700000D01*
X105010000Y-133842857D01*
X105081428Y-133914285D01*
X105224285Y-133985714D01*
X105652857Y-133985714D01*
X105795714Y-133914285D01*
X105867142Y-133842857D01*
X105938571Y-133700000D01*
X105938571Y-133485714D01*
X104938571Y-134628571D02*
X105938571Y-134628571D01*
X105081428Y-134628571D02*
X105010000Y-134700000D01*
X104938571Y-134842857D01*
X104938571Y-135057142D01*
X105010000Y-135200000D01*
X105152857Y-135271428D01*
X105938571Y-135271428D01*
X105867142Y-135914285D02*
X105938571Y-136057142D01*
X105938571Y-136342857D01*
X105867142Y-136485714D01*
X105724285Y-136557142D01*
X105652857Y-136557142D01*
X105510000Y-136485714D01*
X105438571Y-136342857D01*
X105438571Y-136128571D01*
X105367142Y-135985714D01*
X105224285Y-135914285D01*
X105152857Y-135914285D01*
X105010000Y-135985714D01*
X104938571Y-136128571D01*
X104938571Y-136342857D01*
X105010000Y-136485714D01*
X105938571Y-137842857D02*
X105152857Y-137842857D01*
X105010000Y-137771428D01*
X104938571Y-137628571D01*
X104938571Y-137342857D01*
X105010000Y-137200000D01*
X105867142Y-137842857D02*
X105938571Y-137700000D01*
X105938571Y-137342857D01*
X105867142Y-137200000D01*
X105724285Y-137128571D01*
X105581428Y-137128571D01*
X105438571Y-137200000D01*
X105367142Y-137342857D01*
X105367142Y-137700000D01*
X105295714Y-137842857D01*
X105938571Y-138557142D02*
X104938571Y-138557142D01*
X104438571Y-138557142D02*
X104510000Y-138485714D01*
X104581428Y-138557142D01*
X104510000Y-138628571D01*
X104438571Y-138557142D01*
X104581428Y-138557142D01*
X105795714Y-141271428D02*
X105867142Y-141200000D01*
X105938571Y-140985714D01*
X105938571Y-140842857D01*
X105867142Y-140628571D01*
X105724285Y-140485714D01*
X105581428Y-140414285D01*
X105295714Y-140342857D01*
X105081428Y-140342857D01*
X104795714Y-140414285D01*
X104652857Y-140485714D01*
X104510000Y-140628571D01*
X104438571Y-140842857D01*
X104438571Y-140985714D01*
X104510000Y-141200000D01*
X104581428Y-141271428D01*
X104938571Y-142557142D02*
X105938571Y-142557142D01*
X104367142Y-142200000D02*
X105438571Y-141842857D01*
X105438571Y-142771428D01*
D12*
X114400000Y-104700000D02*
X113880000Y-103940000D01*
X101140000Y-114000000D02*
X100660000Y-113490000D01*
X101410000Y-108640000D02*
X100760000Y-109370000D01*
X108203333Y-108516666D02*
X108203333Y-107816666D01*
X107936666Y-107816666D01*
X107870000Y-107850000D01*
X107836666Y-107883333D01*
X107803333Y-107950000D01*
X107803333Y-108050000D01*
X107836666Y-108116666D01*
X107870000Y-108150000D01*
X107936666Y-108183333D01*
X108203333Y-108183333D01*
X107503333Y-108516666D02*
X107503333Y-107816666D01*
X107336666Y-107816666D01*
X107236666Y-107850000D01*
X107170000Y-107916666D01*
X107136666Y-107983333D01*
X107103333Y-108116666D01*
X107103333Y-108216666D01*
X107136666Y-108350000D01*
X107170000Y-108416666D01*
X107236666Y-108483333D01*
X107336666Y-108516666D01*
X107503333Y-108516666D01*
X106436666Y-108516666D02*
X106836666Y-108516666D01*
X106636666Y-108516666D02*
X106636666Y-107816666D01*
X106703333Y-107916666D01*
X106770000Y-107983333D01*
X106836666Y-108016666D01*
X105970000Y-108750000D02*
X105970000Y-107750000D01*
X105470000Y-108516666D02*
X105470000Y-107816666D01*
X105203333Y-107816666D01*
X105136666Y-107850000D01*
X105103333Y-107883333D01*
X105070000Y-107950000D01*
X105070000Y-108050000D01*
X105103333Y-108116666D01*
X105136666Y-108150000D01*
X105203333Y-108183333D01*
X105470000Y-108183333D01*
X104770000Y-108516666D02*
X104770000Y-107816666D01*
X104603333Y-107816666D01*
X104503333Y-107850000D01*
X104436666Y-107916666D01*
X104403333Y-107983333D01*
X104370000Y-108116666D01*
X104370000Y-108216666D01*
X104403333Y-108350000D01*
X104436666Y-108416666D01*
X104503333Y-108483333D01*
X104603333Y-108516666D01*
X104770000Y-108516666D01*
X103936666Y-107816666D02*
X103870000Y-107816666D01*
X103803333Y-107850000D01*
X103770000Y-107883333D01*
X103736666Y-107950000D01*
X103703333Y-108083333D01*
X103703333Y-108250000D01*
X103736666Y-108383333D01*
X103770000Y-108450000D01*
X103803333Y-108483333D01*
X103870000Y-108516666D01*
X103936666Y-108516666D01*
X104003333Y-108483333D01*
X104036666Y-108450000D01*
X104070000Y-108383333D01*
X104103333Y-108250000D01*
X104103333Y-108083333D01*
X104070000Y-107950000D01*
X104036666Y-107883333D01*
X104003333Y-107850000D01*
X103936666Y-107816666D01*
X111173333Y-106946666D02*
X110840000Y-106946666D01*
X111240000Y-107146666D02*
X111006666Y-106446666D01*
X110773333Y-107146666D01*
X110173333Y-107146666D02*
X110573333Y-107146666D01*
X110373333Y-107146666D02*
X110373333Y-106446666D01*
X110440000Y-106546666D01*
X110506666Y-106613333D01*
X110573333Y-106646666D01*
X109740000Y-106446666D02*
X109673333Y-106446666D01*
X109606666Y-106480000D01*
X109573333Y-106513333D01*
X109540000Y-106580000D01*
X109506666Y-106713333D01*
X109506666Y-106880000D01*
X109540000Y-107013333D01*
X109573333Y-107080000D01*
X109606666Y-107113333D01*
X109673333Y-107146666D01*
X109740000Y-107146666D01*
X109806666Y-107113333D01*
X109840000Y-107080000D01*
X109873333Y-107013333D01*
X109906666Y-106880000D01*
X109906666Y-106713333D01*
X109873333Y-106580000D01*
X109840000Y-106513333D01*
X109806666Y-106480000D01*
X109740000Y-106446666D01*
X109006666Y-107413333D02*
X109040000Y-107380000D01*
X109106666Y-107280000D01*
X109140000Y-107213333D01*
X109173333Y-107113333D01*
X109206666Y-106946666D01*
X109206666Y-106813333D01*
X109173333Y-106646666D01*
X109140000Y-106546666D01*
X109106666Y-106480000D01*
X109040000Y-106380000D01*
X109006666Y-106346666D01*
X108406666Y-106446666D02*
X108740000Y-106446666D01*
X108773333Y-106780000D01*
X108740000Y-106746666D01*
X108673333Y-106713333D01*
X108506666Y-106713333D01*
X108440000Y-106746666D01*
X108406666Y-106780000D01*
X108373333Y-106846666D01*
X108373333Y-107013333D01*
X108406666Y-107080000D01*
X108440000Y-107113333D01*
X108506666Y-107146666D01*
X108673333Y-107146666D01*
X108740000Y-107113333D01*
X108773333Y-107080000D01*
X108173333Y-106446666D02*
X107940000Y-107146666D01*
X107706666Y-106446666D01*
X107540000Y-107413333D02*
X107506666Y-107380000D01*
X107440000Y-107280000D01*
X107406666Y-107213333D01*
X107373333Y-107113333D01*
X107340000Y-106946666D01*
X107340000Y-106813333D01*
X107373333Y-106646666D01*
X107406666Y-106546666D01*
X107440000Y-106480000D01*
X107506666Y-106380000D01*
X107540000Y-106346666D01*
X113820000Y-115466666D02*
X113486666Y-115466666D01*
X113886666Y-115666666D02*
X113653333Y-114966666D01*
X113420000Y-115666666D01*
X112853333Y-114966666D02*
X113186666Y-114966666D01*
X113220000Y-115300000D01*
X113186666Y-115266666D01*
X113120000Y-115233333D01*
X112953333Y-115233333D01*
X112886666Y-115266666D01*
X112853333Y-115300000D01*
X112820000Y-115366666D01*
X112820000Y-115533333D01*
X112853333Y-115600000D01*
X112886666Y-115633333D01*
X112953333Y-115666666D01*
X113120000Y-115666666D01*
X113186666Y-115633333D01*
X113220000Y-115600000D01*
X113800000Y-117926666D02*
X113466666Y-117926666D01*
X113866666Y-118126666D02*
X113633333Y-117426666D01*
X113400000Y-118126666D01*
X112800000Y-118126666D02*
X113200000Y-118126666D01*
X113000000Y-118126666D02*
X113000000Y-117426666D01*
X113066666Y-117526666D01*
X113133333Y-117593333D01*
X113200000Y-117626666D01*
X113686666Y-120300000D02*
X113586666Y-120333333D01*
X113553333Y-120366666D01*
X113520000Y-120433333D01*
X113520000Y-120533333D01*
X113553333Y-120600000D01*
X113586666Y-120633333D01*
X113653333Y-120666666D01*
X113920000Y-120666666D01*
X113920000Y-119966666D01*
X113686666Y-119966666D01*
X113620000Y-120000000D01*
X113586666Y-120033333D01*
X113553333Y-120100000D01*
X113553333Y-120166666D01*
X113586666Y-120233333D01*
X113620000Y-120266666D01*
X113686666Y-120300000D01*
X113920000Y-120300000D01*
X112853333Y-120666666D02*
X113253333Y-120666666D01*
X113053333Y-120666666D02*
X113053333Y-119966666D01*
X113120000Y-120066666D01*
X113186666Y-120133333D01*
X113253333Y-120166666D01*
X112620000Y-119966666D02*
X112186666Y-119966666D01*
X112420000Y-120233333D01*
X112320000Y-120233333D01*
X112253333Y-120266666D01*
X112220000Y-120300000D01*
X112186666Y-120366666D01*
X112186666Y-120533333D01*
X112220000Y-120600000D01*
X112253333Y-120633333D01*
X112320000Y-120666666D01*
X112520000Y-120666666D01*
X112586666Y-120633333D01*
X112620000Y-120600000D01*
X113666666Y-122770000D02*
X113566666Y-122803333D01*
X113533333Y-122836666D01*
X113500000Y-122903333D01*
X113500000Y-123003333D01*
X113533333Y-123070000D01*
X113566666Y-123103333D01*
X113633333Y-123136666D01*
X113900000Y-123136666D01*
X113900000Y-122436666D01*
X113666666Y-122436666D01*
X113600000Y-122470000D01*
X113566666Y-122503333D01*
X113533333Y-122570000D01*
X113533333Y-122636666D01*
X113566666Y-122703333D01*
X113600000Y-122736666D01*
X113666666Y-122770000D01*
X113900000Y-122770000D01*
X112833333Y-123136666D02*
X113233333Y-123136666D01*
X113033333Y-123136666D02*
X113033333Y-122436666D01*
X113100000Y-122536666D01*
X113166666Y-122603333D01*
X113233333Y-122636666D01*
X112233333Y-122670000D02*
X112233333Y-123136666D01*
X112400000Y-122403333D02*
X112566666Y-122903333D01*
X112133333Y-122903333D01*
X113626666Y-125430000D02*
X113526666Y-125463333D01*
X113493333Y-125496666D01*
X113460000Y-125563333D01*
X113460000Y-125663333D01*
X113493333Y-125730000D01*
X113526666Y-125763333D01*
X113593333Y-125796666D01*
X113860000Y-125796666D01*
X113860000Y-125096666D01*
X113626666Y-125096666D01*
X113560000Y-125130000D01*
X113526666Y-125163333D01*
X113493333Y-125230000D01*
X113493333Y-125296666D01*
X113526666Y-125363333D01*
X113560000Y-125396666D01*
X113626666Y-125430000D01*
X113860000Y-125430000D01*
X112793333Y-125796666D02*
X113193333Y-125796666D01*
X112993333Y-125796666D02*
X112993333Y-125096666D01*
X113060000Y-125196666D01*
X113126666Y-125263333D01*
X113193333Y-125296666D01*
X112160000Y-125096666D02*
X112493333Y-125096666D01*
X112526666Y-125430000D01*
X112493333Y-125396666D01*
X112426666Y-125363333D01*
X112260000Y-125363333D01*
X112193333Y-125396666D01*
X112160000Y-125430000D01*
X112126666Y-125496666D01*
X112126666Y-125663333D01*
X112160000Y-125730000D01*
X112193333Y-125763333D01*
X112260000Y-125796666D01*
X112426666Y-125796666D01*
X112493333Y-125763333D01*
X112526666Y-125730000D01*
X113633333Y-127930000D02*
X113533333Y-127963333D01*
X113500000Y-127996666D01*
X113466666Y-128063333D01*
X113466666Y-128163333D01*
X113500000Y-128230000D01*
X113533333Y-128263333D01*
X113600000Y-128296666D01*
X113866666Y-128296666D01*
X113866666Y-127596666D01*
X113633333Y-127596666D01*
X113566666Y-127630000D01*
X113533333Y-127663333D01*
X113500000Y-127730000D01*
X113500000Y-127796666D01*
X113533333Y-127863333D01*
X113566666Y-127896666D01*
X113633333Y-127930000D01*
X113866666Y-127930000D01*
X112800000Y-128296666D02*
X113200000Y-128296666D01*
X113000000Y-128296666D02*
X113000000Y-127596666D01*
X113066666Y-127696666D01*
X113133333Y-127763333D01*
X113200000Y-127796666D01*
X113440000Y-133440000D02*
X113473333Y-133473333D01*
X113573333Y-133506666D01*
X113640000Y-133506666D01*
X113740000Y-133473333D01*
X113806666Y-133406666D01*
X113840000Y-133340000D01*
X113873333Y-133206666D01*
X113873333Y-133106666D01*
X113840000Y-132973333D01*
X113806666Y-132906666D01*
X113740000Y-132840000D01*
X113640000Y-132806666D01*
X113573333Y-132806666D01*
X113473333Y-132840000D01*
X113440000Y-132873333D01*
X112773333Y-133506666D02*
X113173333Y-133506666D01*
X112973333Y-133506666D02*
X112973333Y-132806666D01*
X113040000Y-132906666D01*
X113106666Y-132973333D01*
X113173333Y-133006666D01*
X112173333Y-133040000D02*
X112173333Y-133506666D01*
X112340000Y-132773333D02*
X112506666Y-133273333D01*
X112073333Y-133273333D01*
X113361000Y-135822000D02*
X113394333Y-135855333D01*
X113494333Y-135888666D01*
X113561000Y-135888666D01*
X113661000Y-135855333D01*
X113727666Y-135788666D01*
X113761000Y-135722000D01*
X113794333Y-135588666D01*
X113794333Y-135488666D01*
X113761000Y-135355333D01*
X113727666Y-135288666D01*
X113661000Y-135222000D01*
X113561000Y-135188666D01*
X113494333Y-135188666D01*
X113394333Y-135222000D01*
X113361000Y-135255333D01*
X112694333Y-135888666D02*
X113094333Y-135888666D01*
X112894333Y-135888666D02*
X112894333Y-135188666D01*
X112961000Y-135288666D01*
X113027666Y-135355333D01*
X113094333Y-135388666D01*
X112061000Y-135188666D02*
X112394333Y-135188666D01*
X112427666Y-135522000D01*
X112394333Y-135488666D01*
X112327666Y-135455333D01*
X112161000Y-135455333D01*
X112094333Y-135488666D01*
X112061000Y-135522000D01*
X112027666Y-135588666D01*
X112027666Y-135755333D01*
X112061000Y-135822000D01*
X112094333Y-135855333D01*
X112161000Y-135888666D01*
X112327666Y-135888666D01*
X112394333Y-135855333D01*
X112427666Y-135822000D01*
X113830000Y-138346666D02*
X113496666Y-138346666D01*
X113896666Y-138546666D02*
X113663333Y-137846666D01*
X113430000Y-138546666D01*
X113230000Y-137913333D02*
X113196666Y-137880000D01*
X113130000Y-137846666D01*
X112963333Y-137846666D01*
X112896666Y-137880000D01*
X112863333Y-137913333D01*
X112830000Y-137980000D01*
X112830000Y-138046666D01*
X112863333Y-138146666D01*
X113263333Y-138546666D01*
X112830000Y-138546666D01*
X113763333Y-140866666D02*
X113430000Y-140866666D01*
X113830000Y-141066666D02*
X113596666Y-140366666D01*
X113363333Y-141066666D01*
X112763333Y-141066666D02*
X113163333Y-141066666D01*
X112963333Y-141066666D02*
X112963333Y-140366666D01*
X113030000Y-140466666D01*
X113096666Y-140533333D01*
X113163333Y-140566666D01*
X112163333Y-140600000D02*
X112163333Y-141066666D01*
X112330000Y-140333333D02*
X112496666Y-140833333D01*
X112063333Y-140833333D01*
X113823333Y-143346666D02*
X113490000Y-143346666D01*
X113890000Y-143546666D02*
X113656666Y-142846666D01*
X113423333Y-143546666D01*
X112823333Y-143546666D02*
X113223333Y-143546666D01*
X113023333Y-143546666D02*
X113023333Y-142846666D01*
X113090000Y-142946666D01*
X113156666Y-143013333D01*
X113223333Y-143046666D01*
X112590000Y-142846666D02*
X112156666Y-142846666D01*
X112390000Y-143113333D01*
X112290000Y-143113333D01*
X112223333Y-143146666D01*
X112190000Y-143180000D01*
X112156666Y-143246666D01*
X112156666Y-143413333D01*
X112190000Y-143480000D01*
X112223333Y-143513333D01*
X112290000Y-143546666D01*
X112490000Y-143546666D01*
X112556666Y-143513333D01*
X112590000Y-143480000D01*
X113880000Y-146136666D02*
X113880000Y-145436666D01*
X113480000Y-146136666D01*
X113480000Y-145436666D01*
X112746666Y-146136666D02*
X112980000Y-145803333D01*
X113146666Y-146136666D02*
X113146666Y-145436666D01*
X112880000Y-145436666D01*
X112813333Y-145470000D01*
X112780000Y-145503333D01*
X112746666Y-145570000D01*
X112746666Y-145670000D01*
X112780000Y-145736666D01*
X112813333Y-145770000D01*
X112880000Y-145803333D01*
X113146666Y-145803333D01*
X112480000Y-146103333D02*
X112380000Y-146136666D01*
X112213333Y-146136666D01*
X112146666Y-146103333D01*
X112113333Y-146070000D01*
X112080000Y-146003333D01*
X112080000Y-145936666D01*
X112113333Y-145870000D01*
X112146666Y-145836666D01*
X112213333Y-145803333D01*
X112346666Y-145770000D01*
X112413333Y-145736666D01*
X112446666Y-145703333D01*
X112480000Y-145636666D01*
X112480000Y-145570000D01*
X112446666Y-145503333D01*
X112413333Y-145470000D01*
X112346666Y-145436666D01*
X112180000Y-145436666D01*
X112080000Y-145470000D01*
X111880000Y-145436666D02*
X111480000Y-145436666D01*
X111680000Y-146136666D02*
X111680000Y-145436666D01*
X102730000Y-146020000D02*
X102763333Y-146053333D01*
X102863333Y-146086666D01*
X102930000Y-146086666D01*
X103030000Y-146053333D01*
X103096666Y-145986666D01*
X103130000Y-145920000D01*
X103163333Y-145786666D01*
X103163333Y-145686666D01*
X103130000Y-145553333D01*
X103096666Y-145486666D01*
X103030000Y-145420000D01*
X102930000Y-145386666D01*
X102863333Y-145386666D01*
X102763333Y-145420000D01*
X102730000Y-145453333D01*
X102063333Y-146086666D02*
X102463333Y-146086666D01*
X102263333Y-146086666D02*
X102263333Y-145386666D01*
X102330000Y-145486666D01*
X102396666Y-145553333D01*
X102463333Y-145586666D01*
X101830000Y-145386666D02*
X101396666Y-145386666D01*
X101630000Y-145653333D01*
X101530000Y-145653333D01*
X101463333Y-145686666D01*
X101430000Y-145720000D01*
X101396666Y-145786666D01*
X101396666Y-145953333D01*
X101430000Y-146020000D01*
X101463333Y-146053333D01*
X101530000Y-146086666D01*
X101730000Y-146086666D01*
X101796666Y-146053333D01*
X101830000Y-146020000D01*
X102866666Y-143130000D02*
X102766666Y-143163333D01*
X102733333Y-143196666D01*
X102700000Y-143263333D01*
X102700000Y-143363333D01*
X102733333Y-143430000D01*
X102766666Y-143463333D01*
X102833333Y-143496666D01*
X103100000Y-143496666D01*
X103100000Y-142796666D01*
X102866666Y-142796666D01*
X102800000Y-142830000D01*
X102766666Y-142863333D01*
X102733333Y-142930000D01*
X102733333Y-142996666D01*
X102766666Y-143063333D01*
X102800000Y-143096666D01*
X102866666Y-143130000D01*
X103100000Y-143130000D01*
X102033333Y-143496666D02*
X102433333Y-143496666D01*
X102233333Y-143496666D02*
X102233333Y-142796666D01*
X102300000Y-142896666D01*
X102366666Y-142963333D01*
X102433333Y-142996666D01*
X101766666Y-142863333D02*
X101733333Y-142830000D01*
X101666666Y-142796666D01*
X101500000Y-142796666D01*
X101433333Y-142830000D01*
X101400000Y-142863333D01*
X101366666Y-142930000D01*
X101366666Y-142996666D01*
X101400000Y-143096666D01*
X101800000Y-143496666D01*
X101366666Y-143496666D01*
X102173333Y-140630000D02*
X102073333Y-140663333D01*
X102040000Y-140696666D01*
X102006666Y-140763333D01*
X102006666Y-140863333D01*
X102040000Y-140930000D01*
X102073333Y-140963333D01*
X102140000Y-140996666D01*
X102406666Y-140996666D01*
X102406666Y-140296666D01*
X102173333Y-140296666D01*
X102106666Y-140330000D01*
X102073333Y-140363333D01*
X102040000Y-140430000D01*
X102040000Y-140496666D01*
X102073333Y-140563333D01*
X102106666Y-140596666D01*
X102173333Y-140630000D01*
X102406666Y-140630000D01*
X101373333Y-140296666D02*
X101706666Y-140296666D01*
X101740000Y-140630000D01*
X101706666Y-140596666D01*
X101640000Y-140563333D01*
X101473333Y-140563333D01*
X101406666Y-140596666D01*
X101373333Y-140630000D01*
X101340000Y-140696666D01*
X101340000Y-140863333D01*
X101373333Y-140930000D01*
X101406666Y-140963333D01*
X101473333Y-140996666D01*
X101640000Y-140996666D01*
X101706666Y-140963333D01*
X101740000Y-140930000D01*
X102153333Y-138110000D02*
X102053333Y-138143333D01*
X102020000Y-138176666D01*
X101986666Y-138243333D01*
X101986666Y-138343333D01*
X102020000Y-138410000D01*
X102053333Y-138443333D01*
X102120000Y-138476666D01*
X102386666Y-138476666D01*
X102386666Y-137776666D01*
X102153333Y-137776666D01*
X102086666Y-137810000D01*
X102053333Y-137843333D01*
X102020000Y-137910000D01*
X102020000Y-137976666D01*
X102053333Y-138043333D01*
X102086666Y-138076666D01*
X102153333Y-138110000D01*
X102386666Y-138110000D01*
X101386666Y-138010000D02*
X101386666Y-138476666D01*
X101553333Y-137743333D02*
X101720000Y-138243333D01*
X101286666Y-138243333D01*
X102183333Y-135540000D02*
X102083333Y-135573333D01*
X102050000Y-135606666D01*
X102016666Y-135673333D01*
X102016666Y-135773333D01*
X102050000Y-135840000D01*
X102083333Y-135873333D01*
X102150000Y-135906666D01*
X102416666Y-135906666D01*
X102416666Y-135206666D01*
X102183333Y-135206666D01*
X102116666Y-135240000D01*
X102083333Y-135273333D01*
X102050000Y-135340000D01*
X102050000Y-135406666D01*
X102083333Y-135473333D01*
X102116666Y-135506666D01*
X102183333Y-135540000D01*
X102416666Y-135540000D01*
X101783333Y-135206666D02*
X101350000Y-135206666D01*
X101583333Y-135473333D01*
X101483333Y-135473333D01*
X101416666Y-135506666D01*
X101383333Y-135540000D01*
X101350000Y-135606666D01*
X101350000Y-135773333D01*
X101383333Y-135840000D01*
X101416666Y-135873333D01*
X101483333Y-135906666D01*
X101683333Y-135906666D01*
X101750000Y-135873333D01*
X101783333Y-135840000D01*
X102330000Y-133216666D02*
X101996666Y-133216666D01*
X102396666Y-133416666D02*
X102163333Y-132716666D01*
X101930000Y-133416666D01*
X101563333Y-132716666D02*
X101496666Y-132716666D01*
X101430000Y-132750000D01*
X101396666Y-132783333D01*
X101363333Y-132850000D01*
X101330000Y-132983333D01*
X101330000Y-133150000D01*
X101363333Y-133283333D01*
X101396666Y-133350000D01*
X101430000Y-133383333D01*
X101496666Y-133416666D01*
X101563333Y-133416666D01*
X101630000Y-133383333D01*
X101663333Y-133350000D01*
X101696666Y-133283333D01*
X101730000Y-133150000D01*
X101730000Y-132983333D01*
X101696666Y-132850000D01*
X101663333Y-132783333D01*
X101630000Y-132750000D01*
X101563333Y-132716666D01*
X102253333Y-127670000D02*
X102153333Y-127703333D01*
X102120000Y-127736666D01*
X102086666Y-127803333D01*
X102086666Y-127903333D01*
X102120000Y-127970000D01*
X102153333Y-128003333D01*
X102220000Y-128036666D01*
X102486666Y-128036666D01*
X102486666Y-127336666D01*
X102253333Y-127336666D01*
X102186666Y-127370000D01*
X102153333Y-127403333D01*
X102120000Y-127470000D01*
X102120000Y-127536666D01*
X102153333Y-127603333D01*
X102186666Y-127636666D01*
X102253333Y-127670000D01*
X102486666Y-127670000D01*
X101653333Y-127336666D02*
X101586666Y-127336666D01*
X101520000Y-127370000D01*
X101486666Y-127403333D01*
X101453333Y-127470000D01*
X101420000Y-127603333D01*
X101420000Y-127770000D01*
X101453333Y-127903333D01*
X101486666Y-127970000D01*
X101520000Y-128003333D01*
X101586666Y-128036666D01*
X101653333Y-128036666D01*
X101720000Y-128003333D01*
X101753333Y-127970000D01*
X101786666Y-127903333D01*
X101820000Y-127770000D01*
X101820000Y-127603333D01*
X101786666Y-127470000D01*
X101753333Y-127403333D01*
X101720000Y-127370000D01*
X101653333Y-127336666D01*
X102330000Y-125476666D02*
X101996666Y-125476666D01*
X102396666Y-125676666D02*
X102163333Y-124976666D01*
X101930000Y-125676666D01*
X101596666Y-125276666D02*
X101663333Y-125243333D01*
X101696666Y-125210000D01*
X101730000Y-125143333D01*
X101730000Y-125110000D01*
X101696666Y-125043333D01*
X101663333Y-125010000D01*
X101596666Y-124976666D01*
X101463333Y-124976666D01*
X101396666Y-125010000D01*
X101363333Y-125043333D01*
X101330000Y-125110000D01*
X101330000Y-125143333D01*
X101363333Y-125210000D01*
X101396666Y-125243333D01*
X101463333Y-125276666D01*
X101596666Y-125276666D01*
X101663333Y-125310000D01*
X101696666Y-125343333D01*
X101730000Y-125410000D01*
X101730000Y-125543333D01*
X101696666Y-125610000D01*
X101663333Y-125643333D01*
X101596666Y-125676666D01*
X101463333Y-125676666D01*
X101396666Y-125643333D01*
X101363333Y-125610000D01*
X101330000Y-125543333D01*
X101330000Y-125410000D01*
X101363333Y-125343333D01*
X101396666Y-125310000D01*
X101463333Y-125276666D01*
X102786666Y-122800000D02*
X102686666Y-122833333D01*
X102653333Y-122866666D01*
X102620000Y-122933333D01*
X102620000Y-123033333D01*
X102653333Y-123100000D01*
X102686666Y-123133333D01*
X102753333Y-123166666D01*
X103020000Y-123166666D01*
X103020000Y-122466666D01*
X102786666Y-122466666D01*
X102720000Y-122500000D01*
X102686666Y-122533333D01*
X102653333Y-122600000D01*
X102653333Y-122666666D01*
X102686666Y-122733333D01*
X102720000Y-122766666D01*
X102786666Y-122800000D01*
X103020000Y-122800000D01*
X101953333Y-123166666D02*
X102353333Y-123166666D01*
X102153333Y-123166666D02*
X102153333Y-122466666D01*
X102220000Y-122566666D01*
X102286666Y-122633333D01*
X102353333Y-122666666D01*
X101520000Y-122466666D02*
X101453333Y-122466666D01*
X101386666Y-122500000D01*
X101353333Y-122533333D01*
X101320000Y-122600000D01*
X101286666Y-122733333D01*
X101286666Y-122900000D01*
X101320000Y-123033333D01*
X101353333Y-123100000D01*
X101386666Y-123133333D01*
X101453333Y-123166666D01*
X101520000Y-123166666D01*
X101586666Y-123133333D01*
X101620000Y-123100000D01*
X101653333Y-123033333D01*
X101686666Y-122900000D01*
X101686666Y-122733333D01*
X101653333Y-122600000D01*
X101620000Y-122533333D01*
X101586666Y-122500000D01*
X101520000Y-122466666D01*
X102340000Y-120546666D02*
X102006666Y-120546666D01*
X102406666Y-120746666D02*
X102173333Y-120046666D01*
X101940000Y-120746666D01*
X101773333Y-120046666D02*
X101340000Y-120046666D01*
X101573333Y-120313333D01*
X101473333Y-120313333D01*
X101406666Y-120346666D01*
X101373333Y-120380000D01*
X101340000Y-120446666D01*
X101340000Y-120613333D01*
X101373333Y-120680000D01*
X101406666Y-120713333D01*
X101473333Y-120746666D01*
X101673333Y-120746666D01*
X101740000Y-120713333D01*
X101773333Y-120680000D01*
X102153333Y-117790000D02*
X102053333Y-117823333D01*
X102020000Y-117856666D01*
X101986666Y-117923333D01*
X101986666Y-118023333D01*
X102020000Y-118090000D01*
X102053333Y-118123333D01*
X102120000Y-118156666D01*
X102386666Y-118156666D01*
X102386666Y-117456666D01*
X102153333Y-117456666D01*
X102086666Y-117490000D01*
X102053333Y-117523333D01*
X102020000Y-117590000D01*
X102020000Y-117656666D01*
X102053333Y-117723333D01*
X102086666Y-117756666D01*
X102153333Y-117790000D01*
X102386666Y-117790000D01*
X101586666Y-117756666D02*
X101653333Y-117723333D01*
X101686666Y-117690000D01*
X101720000Y-117623333D01*
X101720000Y-117590000D01*
X101686666Y-117523333D01*
X101653333Y-117490000D01*
X101586666Y-117456666D01*
X101453333Y-117456666D01*
X101386666Y-117490000D01*
X101353333Y-117523333D01*
X101320000Y-117590000D01*
X101320000Y-117623333D01*
X101353333Y-117690000D01*
X101386666Y-117723333D01*
X101453333Y-117756666D01*
X101586666Y-117756666D01*
X101653333Y-117790000D01*
X101686666Y-117823333D01*
X101720000Y-117890000D01*
X101720000Y-118023333D01*
X101686666Y-118090000D01*
X101653333Y-118123333D01*
X101586666Y-118156666D01*
X101453333Y-118156666D01*
X101386666Y-118123333D01*
X101353333Y-118090000D01*
X101320000Y-118023333D01*
X101320000Y-117890000D01*
X101353333Y-117823333D01*
X101386666Y-117790000D01*
X101453333Y-117756666D01*
X102300000Y-115586666D02*
X101966666Y-115586666D01*
X102366666Y-115786666D02*
X102133333Y-115086666D01*
X101900000Y-115786666D01*
X101366666Y-115320000D02*
X101366666Y-115786666D01*
X101533333Y-115053333D02*
X101700000Y-115553333D01*
X101266666Y-115553333D01*
X102163333Y-114250000D02*
X102063333Y-114283333D01*
X102030000Y-114316666D01*
X101996666Y-114383333D01*
X101996666Y-114483333D01*
X102030000Y-114550000D01*
X102063333Y-114583333D01*
X102130000Y-114616666D01*
X102396666Y-114616666D01*
X102396666Y-113916666D01*
X102163333Y-113916666D01*
X102096666Y-113950000D01*
X102063333Y-113983333D01*
X102030000Y-114050000D01*
X102030000Y-114116666D01*
X102063333Y-114183333D01*
X102096666Y-114216666D01*
X102163333Y-114250000D01*
X102396666Y-114250000D01*
X101396666Y-113916666D02*
X101530000Y-113916666D01*
X101596666Y-113950000D01*
X101630000Y-113983333D01*
X101696666Y-114083333D01*
X101730000Y-114216666D01*
X101730000Y-114483333D01*
X101696666Y-114550000D01*
X101663333Y-114583333D01*
X101596666Y-114616666D01*
X101463333Y-114616666D01*
X101396666Y-114583333D01*
X101363333Y-114550000D01*
X101330000Y-114483333D01*
X101330000Y-114316666D01*
X101363333Y-114250000D01*
X101396666Y-114216666D01*
X101463333Y-114183333D01*
X101596666Y-114183333D01*
X101663333Y-114216666D01*
X101696666Y-114250000D01*
X101730000Y-114316666D01*
X102173333Y-108050000D02*
X102073333Y-108083333D01*
X102040000Y-108116666D01*
X102006666Y-108183333D01*
X102006666Y-108283333D01*
X102040000Y-108350000D01*
X102073333Y-108383333D01*
X102140000Y-108416666D01*
X102406666Y-108416666D01*
X102406666Y-107716666D01*
X102173333Y-107716666D01*
X102106666Y-107750000D01*
X102073333Y-107783333D01*
X102040000Y-107850000D01*
X102040000Y-107916666D01*
X102073333Y-107983333D01*
X102106666Y-108016666D01*
X102173333Y-108050000D01*
X102406666Y-108050000D01*
X101673333Y-108416666D02*
X101540000Y-108416666D01*
X101473333Y-108383333D01*
X101440000Y-108350000D01*
X101373333Y-108250000D01*
X101340000Y-108116666D01*
X101340000Y-107850000D01*
X101373333Y-107783333D01*
X101406666Y-107750000D01*
X101473333Y-107716666D01*
X101606666Y-107716666D01*
X101673333Y-107750000D01*
X101706666Y-107783333D01*
X101740000Y-107850000D01*
X101740000Y-108016666D01*
X101706666Y-108083333D01*
X101673333Y-108116666D01*
X101606666Y-108150000D01*
X101473333Y-108150000D01*
X101406666Y-108116666D01*
X101373333Y-108083333D01*
X101340000Y-108016666D01*
X113516666Y-102090000D02*
X113583333Y-102056666D01*
X113683333Y-102056666D01*
X113783333Y-102090000D01*
X113850000Y-102156666D01*
X113883333Y-102223333D01*
X113916666Y-102356666D01*
X113916666Y-102456666D01*
X113883333Y-102590000D01*
X113850000Y-102656666D01*
X113783333Y-102723333D01*
X113683333Y-102756666D01*
X113616666Y-102756666D01*
X113516666Y-102723333D01*
X113483333Y-102690000D01*
X113483333Y-102456666D01*
X113616666Y-102456666D01*
X113493333Y-99756666D02*
X113826666Y-99756666D01*
X113860000Y-100090000D01*
X113826666Y-100056666D01*
X113760000Y-100023333D01*
X113593333Y-100023333D01*
X113526666Y-100056666D01*
X113493333Y-100090000D01*
X113460000Y-100156666D01*
X113460000Y-100323333D01*
X113493333Y-100390000D01*
X113526666Y-100423333D01*
X113593333Y-100456666D01*
X113760000Y-100456666D01*
X113826666Y-100423333D01*
X113860000Y-100390000D01*
X113260000Y-99756666D02*
X113026666Y-100456666D01*
X112793333Y-99756666D01*
X102846666Y-103796666D02*
X102846666Y-103096666D01*
X102680000Y-103096666D01*
X102580000Y-103130000D01*
X102513333Y-103196666D01*
X102480000Y-103263333D01*
X102446666Y-103396666D01*
X102446666Y-103496666D01*
X102480000Y-103630000D01*
X102513333Y-103696666D01*
X102580000Y-103763333D01*
X102680000Y-103796666D01*
X102846666Y-103796666D01*
X102146666Y-103530000D02*
X101613333Y-103530000D01*
X101880000Y-103796666D02*
X101880000Y-103263333D01*
X102023333Y-98710000D02*
X101923333Y-98743333D01*
X101890000Y-98776666D01*
X101856666Y-98843333D01*
X101856666Y-98943333D01*
X101890000Y-99010000D01*
X101923333Y-99043333D01*
X101990000Y-99076666D01*
X102256666Y-99076666D01*
X102256666Y-98376666D01*
X102023333Y-98376666D01*
X101956666Y-98410000D01*
X101923333Y-98443333D01*
X101890000Y-98510000D01*
X101890000Y-98576666D01*
X101923333Y-98643333D01*
X101956666Y-98676666D01*
X102023333Y-98710000D01*
X102256666Y-98710000D01*
X101623333Y-98376666D02*
X101156666Y-98376666D01*
X101456666Y-99076666D01*
X103033333Y-100596666D02*
X102700000Y-100596666D01*
X103100000Y-100796666D02*
X102866666Y-100096666D01*
X102633333Y-100796666D01*
X102033333Y-100796666D02*
X102433333Y-100796666D01*
X102233333Y-100796666D02*
X102233333Y-100096666D01*
X102300000Y-100196666D01*
X102366666Y-100263333D01*
X102433333Y-100296666D01*
X101400000Y-100096666D02*
X101733333Y-100096666D01*
X101766666Y-100430000D01*
X101733333Y-100396666D01*
X101666666Y-100363333D01*
X101500000Y-100363333D01*
X101433333Y-100396666D01*
X101400000Y-100430000D01*
X101366666Y-100496666D01*
X101366666Y-100663333D01*
X101400000Y-100730000D01*
X101433333Y-100763333D01*
X101500000Y-100796666D01*
X101666666Y-100796666D01*
X101733333Y-100763333D01*
X101766666Y-100730000D01*
X101550000Y-106960000D02*
X100876000Y-106955000D01*
X101620000Y-106560000D02*
X100734000Y-105929000D01*
X103233333Y-106650000D02*
X103300000Y-106616666D01*
X103400000Y-106616666D01*
X103500000Y-106650000D01*
X103566666Y-106716666D01*
X103600000Y-106783333D01*
X103633333Y-106916666D01*
X103633333Y-107016666D01*
X103600000Y-107150000D01*
X103566666Y-107216666D01*
X103500000Y-107283333D01*
X103400000Y-107316666D01*
X103333333Y-107316666D01*
X103233333Y-107283333D01*
X103200000Y-107250000D01*
X103200000Y-107016666D01*
X103333333Y-107016666D01*
X102900000Y-107316666D02*
X102900000Y-106616666D01*
X102500000Y-107316666D01*
X102500000Y-106616666D01*
X102166666Y-107316666D02*
X102166666Y-106616666D01*
X102000000Y-106616666D01*
X101900000Y-106650000D01*
X101833333Y-106716666D01*
X101800000Y-106783333D01*
X101766666Y-106916666D01*
X101766666Y-107016666D01*
X101800000Y-107150000D01*
X101833333Y-107216666D01*
X101900000Y-107283333D01*
X102000000Y-107316666D01*
X102166666Y-107316666D01*
X105436666Y-103756666D02*
X105436666Y-103056666D01*
X105270000Y-103056666D01*
X105170000Y-103090000D01*
X105103333Y-103156666D01*
X105070000Y-103223333D01*
X105036666Y-103356666D01*
X105036666Y-103456666D01*
X105070000Y-103590000D01*
X105103333Y-103656666D01*
X105170000Y-103723333D01*
X105270000Y-103756666D01*
X105436666Y-103756666D01*
X104736666Y-103490000D02*
X104203333Y-103490000D01*
X111320000Y-106460000D02*
X111890000Y-105800000D01*
X108933333Y-103056666D02*
X108700000Y-103756666D01*
X108466666Y-103056666D01*
X108000000Y-103390000D02*
X107900000Y-103423333D01*
X107866666Y-103456666D01*
X107833333Y-103523333D01*
X107833333Y-103623333D01*
X107866666Y-103690000D01*
X107900000Y-103723333D01*
X107966666Y-103756666D01*
X108233333Y-103756666D01*
X108233333Y-103056666D01*
X108000000Y-103056666D01*
X107933333Y-103090000D01*
X107900000Y-103123333D01*
X107866666Y-103190000D01*
X107866666Y-103256666D01*
X107900000Y-103323333D01*
X107933333Y-103356666D01*
X108000000Y-103390000D01*
X108233333Y-103390000D01*
X107533333Y-103056666D02*
X107533333Y-103623333D01*
X107500000Y-103690000D01*
X107466666Y-103723333D01*
X107400000Y-103756666D01*
X107266666Y-103756666D01*
X107200000Y-103723333D01*
X107166666Y-103690000D01*
X107133333Y-103623333D01*
X107133333Y-103056666D01*
X106833333Y-103723333D02*
X106733333Y-103756666D01*
X106566666Y-103756666D01*
X106500000Y-103723333D01*
X106466666Y-103690000D01*
X106433333Y-103623333D01*
X106433333Y-103556666D01*
X106466666Y-103490000D01*
X106500000Y-103456666D01*
X106566666Y-103423333D01*
X106700000Y-103390000D01*
X106766666Y-103356666D01*
X106800000Y-103323333D01*
X106833333Y-103256666D01*
X106833333Y-103190000D01*
X106800000Y-103123333D01*
X106766666Y-103090000D01*
X106700000Y-103056666D01*
X106533333Y-103056666D01*
X106433333Y-103090000D01*
X113880000Y-103786666D02*
X113880000Y-103086666D01*
X113713333Y-103086666D01*
X113613333Y-103120000D01*
X113546666Y-103186666D01*
X113513333Y-103253333D01*
X113480000Y-103386666D01*
X113480000Y-103486666D01*
X113513333Y-103620000D01*
X113546666Y-103686666D01*
X113613333Y-103753333D01*
X113713333Y-103786666D01*
X113880000Y-103786666D01*
X112946666Y-103420000D02*
X113180000Y-103420000D01*
X113180000Y-103786666D02*
X113180000Y-103086666D01*
X112846666Y-103086666D01*
X112580000Y-103086666D02*
X112580000Y-103653333D01*
X112546666Y-103720000D01*
X112513333Y-103753333D01*
X112446666Y-103786666D01*
X112313333Y-103786666D01*
X112246666Y-103753333D01*
X112213333Y-103720000D01*
X112180000Y-103653333D01*
X112180000Y-103086666D01*
X114103333Y-107466666D02*
X113670000Y-107466666D01*
X113903333Y-107733333D01*
X113803333Y-107733333D01*
X113736666Y-107766666D01*
X113703333Y-107800000D01*
X113670000Y-107866666D01*
X113670000Y-108033333D01*
X113703333Y-108100000D01*
X113736666Y-108133333D01*
X113803333Y-108166666D01*
X114003333Y-108166666D01*
X114070000Y-108133333D01*
X114103333Y-108100000D01*
X113370000Y-108100000D02*
X113336666Y-108133333D01*
X113370000Y-108166666D01*
X113403333Y-108133333D01*
X113370000Y-108100000D01*
X113370000Y-108166666D01*
X113103333Y-107466666D02*
X112670000Y-107466666D01*
X112903333Y-107733333D01*
X112803333Y-107733333D01*
X112736666Y-107766666D01*
X112703333Y-107800000D01*
X112670000Y-107866666D01*
X112670000Y-108033333D01*
X112703333Y-108100000D01*
X112736666Y-108133333D01*
X112803333Y-108166666D01*
X113003333Y-108166666D01*
X113070000Y-108133333D01*
X113103333Y-108100000D01*
X112470000Y-107466666D02*
X112236666Y-108166666D01*
X112003333Y-107466666D01*
X113830000Y-110326666D02*
X113496666Y-110326666D01*
X113896666Y-110526666D02*
X113663333Y-109826666D01*
X113430000Y-110526666D01*
X113263333Y-109826666D02*
X112796666Y-109826666D01*
X113096666Y-110526666D01*
X113870000Y-112786666D02*
X113536666Y-112786666D01*
X113936666Y-112986666D02*
X113703333Y-112286666D01*
X113470000Y-112986666D01*
X112936666Y-112286666D02*
X113070000Y-112286666D01*
X113136666Y-112320000D01*
X113170000Y-112353333D01*
X113236666Y-112453333D01*
X113270000Y-112586666D01*
X113270000Y-112853333D01*
X113236666Y-112920000D01*
X113203333Y-112953333D01*
X113136666Y-112986666D01*
X113003333Y-112986666D01*
X112936666Y-112953333D01*
X112903333Y-112920000D01*
X112870000Y-112853333D01*
X112870000Y-112686666D01*
X112903333Y-112620000D01*
X112936666Y-112586666D01*
X113003333Y-112553333D01*
X113136666Y-112553333D01*
X113203333Y-112586666D01*
X113236666Y-112620000D01*
X113270000Y-112686666D01*
X110216666Y-113160000D02*
X110216666Y-113493333D01*
X110416666Y-113093333D02*
X109716666Y-113326666D01*
X110416666Y-113560000D01*
X110416666Y-113826666D02*
X110416666Y-113960000D01*
X110383333Y-114026666D01*
X110350000Y-114060000D01*
X110250000Y-114126666D01*
X110116666Y-114160000D01*
X109850000Y-114160000D01*
X109783333Y-114126666D01*
X109750000Y-114093333D01*
X109716666Y-114026666D01*
X109716666Y-113893333D01*
X109750000Y-113826666D01*
X109783333Y-113793333D01*
X109850000Y-113760000D01*
X110016666Y-113760000D01*
X110083333Y-113793333D01*
X110116666Y-113826666D01*
X110150000Y-113893333D01*
X110150000Y-114026666D01*
X110116666Y-114093333D01*
X110083333Y-114126666D01*
X110016666Y-114160000D01*
X109783333Y-96621666D02*
X109783333Y-95921666D01*
X109516666Y-95921666D01*
X109450000Y-95955000D01*
X109416666Y-95988333D01*
X109383333Y-96055000D01*
X109383333Y-96155000D01*
X109416666Y-96221666D01*
X109450000Y-96255000D01*
X109516666Y-96288333D01*
X109783333Y-96288333D01*
X109083333Y-96621666D02*
X109083333Y-95921666D01*
X108916666Y-95921666D01*
X108816666Y-95955000D01*
X108750000Y-96021666D01*
X108716666Y-96088333D01*
X108683333Y-96221666D01*
X108683333Y-96321666D01*
X108716666Y-96455000D01*
X108750000Y-96521666D01*
X108816666Y-96588333D01*
X108916666Y-96621666D01*
X109083333Y-96621666D01*
X108416666Y-95988333D02*
X108383333Y-95955000D01*
X108316666Y-95921666D01*
X108150000Y-95921666D01*
X108083333Y-95955000D01*
X108050000Y-95988333D01*
X108016666Y-96055000D01*
X108016666Y-96121666D01*
X108050000Y-96221666D01*
X108450000Y-96621666D01*
X108016666Y-96621666D01*
X107550000Y-96855000D02*
X107550000Y-95855000D01*
X107050000Y-96621666D02*
X107050000Y-95921666D01*
X106783333Y-95921666D01*
X106716666Y-95955000D01*
X106683333Y-95988333D01*
X106650000Y-96055000D01*
X106650000Y-96155000D01*
X106683333Y-96221666D01*
X106716666Y-96255000D01*
X106783333Y-96288333D01*
X107050000Y-96288333D01*
X106350000Y-96621666D02*
X106350000Y-95921666D01*
X106183333Y-95921666D01*
X106083333Y-95955000D01*
X106016666Y-96021666D01*
X105983333Y-96088333D01*
X105950000Y-96221666D01*
X105950000Y-96321666D01*
X105983333Y-96455000D01*
X106016666Y-96521666D01*
X106083333Y-96588333D01*
X106183333Y-96621666D01*
X106350000Y-96621666D01*
X105716666Y-95921666D02*
X105283333Y-95921666D01*
X105516666Y-96188333D01*
X105416666Y-96188333D01*
X105350000Y-96221666D01*
X105316666Y-96255000D01*
X105283333Y-96321666D01*
X105283333Y-96488333D01*
X105316666Y-96555000D01*
X105350000Y-96588333D01*
X105416666Y-96621666D01*
X105616666Y-96621666D01*
X105683333Y-96588333D01*
X105716666Y-96555000D01*
X108990000Y-118896666D02*
X109023333Y-118996666D01*
X109056666Y-119030000D01*
X109123333Y-119063333D01*
X109223333Y-119063333D01*
X109290000Y-119030000D01*
X109323333Y-118996666D01*
X109356666Y-118930000D01*
X109356666Y-118663333D01*
X108656666Y-118663333D01*
X108656666Y-118896666D01*
X108690000Y-118963333D01*
X108723333Y-118996666D01*
X108790000Y-119030000D01*
X108856666Y-119030000D01*
X108923333Y-118996666D01*
X108956666Y-118963333D01*
X108990000Y-118896666D01*
X108990000Y-118663333D01*
X108723333Y-119330000D02*
X108690000Y-119363333D01*
X108656666Y-119430000D01*
X108656666Y-119596666D01*
X108690000Y-119663333D01*
X108723333Y-119696666D01*
X108790000Y-119730000D01*
X108856666Y-119730000D01*
X108956666Y-119696666D01*
X109356666Y-119296666D01*
X109356666Y-119730000D01*
X105370000Y-119636666D02*
X105403333Y-119736666D01*
X105436666Y-119770000D01*
X105503333Y-119803333D01*
X105603333Y-119803333D01*
X105670000Y-119770000D01*
X105703333Y-119736666D01*
X105736666Y-119670000D01*
X105736666Y-119403333D01*
X105036666Y-119403333D01*
X105036666Y-119636666D01*
X105070000Y-119703333D01*
X105103333Y-119736666D01*
X105170000Y-119770000D01*
X105236666Y-119770000D01*
X105303333Y-119736666D01*
X105336666Y-119703333D01*
X105370000Y-119636666D01*
X105370000Y-119403333D01*
X105036666Y-120236666D02*
X105036666Y-120370000D01*
X105070000Y-120436666D01*
X105136666Y-120503333D01*
X105270000Y-120536666D01*
X105503333Y-120536666D01*
X105636666Y-120503333D01*
X105703333Y-120436666D01*
X105736666Y-120370000D01*
X105736666Y-120236666D01*
X105703333Y-120170000D01*
X105636666Y-120103333D01*
X105503333Y-120070000D01*
X105270000Y-120070000D01*
X105136666Y-120103333D01*
X105070000Y-120170000D01*
X105036666Y-120236666D01*
X105036666Y-120970000D02*
X105036666Y-121103333D01*
X105070000Y-121170000D01*
X105136666Y-121236666D01*
X105270000Y-121270000D01*
X105503333Y-121270000D01*
X105636666Y-121236666D01*
X105703333Y-121170000D01*
X105736666Y-121103333D01*
X105736666Y-120970000D01*
X105703333Y-120903333D01*
X105636666Y-120836666D01*
X105503333Y-120803333D01*
X105270000Y-120803333D01*
X105136666Y-120836666D01*
X105070000Y-120903333D01*
X105036666Y-120970000D01*
X105036666Y-121470000D02*
X105036666Y-121870000D01*
X105736666Y-121670000D02*
X105036666Y-121670000D01*
X105036666Y-122236666D02*
X105036666Y-122303333D01*
X105070000Y-122370000D01*
X105103333Y-122403333D01*
X105170000Y-122436666D01*
X105303333Y-122470000D01*
X105470000Y-122470000D01*
X105603333Y-122436666D01*
X105670000Y-122403333D01*
X105703333Y-122370000D01*
X105736666Y-122303333D01*
X105736666Y-122236666D01*
X105703333Y-122170000D01*
X105670000Y-122136666D01*
X105603333Y-122103333D01*
X105470000Y-122070000D01*
X105303333Y-122070000D01*
X105170000Y-122103333D01*
X105103333Y-122136666D01*
X105070000Y-122170000D01*
X105036666Y-122236666D01*
X108696666Y-122290000D02*
X107996666Y-122290000D01*
X108696666Y-122690000D01*
X107996666Y-122690000D01*
X108696666Y-123423333D02*
X108363333Y-123190000D01*
X108696666Y-123023333D02*
X107996666Y-123023333D01*
X107996666Y-123290000D01*
X108030000Y-123356666D01*
X108063333Y-123390000D01*
X108130000Y-123423333D01*
X108230000Y-123423333D01*
X108296666Y-123390000D01*
X108330000Y-123356666D01*
X108363333Y-123290000D01*
X108363333Y-123023333D01*
X108663333Y-123690000D02*
X108696666Y-123790000D01*
X108696666Y-123956666D01*
X108663333Y-124023333D01*
X108630000Y-124056666D01*
X108563333Y-124090000D01*
X108496666Y-124090000D01*
X108430000Y-124056666D01*
X108396666Y-124023333D01*
X108363333Y-123956666D01*
X108330000Y-123823333D01*
X108296666Y-123756666D01*
X108263333Y-123723333D01*
X108196666Y-123690000D01*
X108130000Y-123690000D01*
X108063333Y-123723333D01*
X108030000Y-123756666D01*
X107996666Y-123823333D01*
X107996666Y-123990000D01*
X108030000Y-124090000D01*
X107996666Y-124290000D02*
X107996666Y-124690000D01*
X108696666Y-124490000D02*
X107996666Y-124490000D01*
D13*
%TO.C,G4*%
G36*
X106775601Y-142870274D02*
G01*
X106775873Y-143057144D01*
X106776391Y-143222870D01*
X106777212Y-143368870D01*
X106778394Y-143496558D01*
X106779993Y-143607350D01*
X106782069Y-143702662D01*
X106784677Y-143783911D01*
X106787877Y-143852511D01*
X106791725Y-143909878D01*
X106796279Y-143957430D01*
X106801597Y-143996580D01*
X106807736Y-144028745D01*
X106814754Y-144055342D01*
X106822708Y-144077785D01*
X106831656Y-144097490D01*
X106841656Y-144115874D01*
X106852765Y-144134352D01*
X106865040Y-144154340D01*
X106868415Y-144159933D01*
X106951865Y-144273820D01*
X107052129Y-144366359D01*
X107167033Y-144435882D01*
X107281855Y-144477575D01*
X107299659Y-144481742D01*
X107320353Y-144485406D01*
X107345752Y-144488600D01*
X107377674Y-144491356D01*
X107417935Y-144493705D01*
X107468351Y-144495678D01*
X107530740Y-144497309D01*
X107606917Y-144498628D01*
X107698699Y-144499668D01*
X107807904Y-144500460D01*
X107936347Y-144501036D01*
X108085846Y-144501428D01*
X108258216Y-144501667D01*
X108455274Y-144501787D01*
X108665889Y-144501817D01*
X108887955Y-144501783D01*
X109083616Y-144501658D01*
X109254688Y-144501410D01*
X109402987Y-144501009D01*
X109530330Y-144500422D01*
X109638535Y-144499618D01*
X109729417Y-144498564D01*
X109804792Y-144497228D01*
X109866479Y-144495580D01*
X109916293Y-144493586D01*
X109956050Y-144491216D01*
X109987568Y-144488437D01*
X110012663Y-144485218D01*
X110033152Y-144481527D01*
X110049924Y-144477575D01*
X110176209Y-144430324D01*
X110289818Y-144358547D01*
X110388580Y-144263912D01*
X110463363Y-144159933D01*
X110475950Y-144139324D01*
X110487355Y-144120591D01*
X110497637Y-144102318D01*
X110506852Y-144083091D01*
X110515058Y-144061492D01*
X110522312Y-144036107D01*
X110528673Y-144005519D01*
X110534198Y-143968312D01*
X110538944Y-143923071D01*
X110542970Y-143868380D01*
X110546332Y-143802823D01*
X110549088Y-143724985D01*
X110551296Y-143633448D01*
X110553013Y-143526799D01*
X110554297Y-143403620D01*
X110555206Y-143262496D01*
X110555797Y-143102011D01*
X110556127Y-142920750D01*
X110556255Y-142717296D01*
X110556237Y-142490234D01*
X110556132Y-142238148D01*
X110555997Y-141959622D01*
X110555964Y-141883047D01*
X110555832Y-141604189D01*
X110555663Y-141352130D01*
X110555439Y-141125445D01*
X110555144Y-140922712D01*
X110554761Y-140742507D01*
X110554271Y-140583407D01*
X110553660Y-140443987D01*
X110552908Y-140322824D01*
X110552001Y-140218495D01*
X110550919Y-140129576D01*
X110549647Y-140054644D01*
X110548167Y-139992274D01*
X110546462Y-139941044D01*
X110544516Y-139899529D01*
X110542311Y-139866307D01*
X110539830Y-139839954D01*
X110537056Y-139819045D01*
X110533972Y-139802158D01*
X110530908Y-139789187D01*
X110484925Y-139666521D01*
X110415781Y-139555291D01*
X110327051Y-139458987D01*
X110222311Y-139381099D01*
X110105138Y-139325116D01*
X110034092Y-139304331D01*
X110000678Y-139300047D01*
X109941597Y-139296168D01*
X109859401Y-139292695D01*
X109756641Y-139289628D01*
X109635871Y-139286967D01*
X109499642Y-139284712D01*
X109350507Y-139282862D01*
X109191017Y-139281418D01*
X109023725Y-139280381D01*
X108851182Y-139279749D01*
X108675942Y-139279523D01*
X108500555Y-139279702D01*
X108327575Y-139280288D01*
X108159553Y-139281279D01*
X107999041Y-139282676D01*
X107848591Y-139284479D01*
X107710757Y-139286688D01*
X107588089Y-139289303D01*
X107483140Y-139292324D01*
X107398462Y-139295750D01*
X107336607Y-139299582D01*
X107318278Y-139301711D01*
X107318278Y-139430500D01*
X110013500Y-139430500D01*
X110093583Y-139468041D01*
X110194750Y-139529411D01*
X110281415Y-139609878D01*
X110349208Y-139704400D01*
X110393761Y-139807938D01*
X110396491Y-139817558D01*
X110399011Y-139832769D01*
X110401279Y-139859650D01*
X110403303Y-139899348D01*
X110405090Y-139953011D01*
X110406649Y-140021787D01*
X110407988Y-140106823D01*
X110409115Y-140209267D01*
X110410037Y-140330266D01*
X110410764Y-140470969D01*
X110411304Y-140632523D01*
X110411663Y-140816075D01*
X110411851Y-141022773D01*
X110411875Y-141253765D01*
X110411744Y-141510199D01*
X110411466Y-141793222D01*
X110411306Y-141921111D01*
X110408611Y-143960166D01*
X110370793Y-144040855D01*
X110308426Y-144142420D01*
X110224914Y-144230719D01*
X110126470Y-144299424D01*
X110107001Y-144309539D01*
X110014094Y-144355277D01*
X107317685Y-144355277D01*
X107224777Y-144309539D01*
X107124240Y-144245179D01*
X107037479Y-144160047D01*
X106970706Y-144060471D01*
X106960985Y-144040855D01*
X106923167Y-143960166D01*
X106923167Y-139825017D01*
X106968905Y-139732110D01*
X107033266Y-139631572D01*
X107118397Y-139544812D01*
X107217973Y-139478039D01*
X107237590Y-139468318D01*
X107318278Y-139430500D01*
X107318278Y-139301711D01*
X107300127Y-139303820D01*
X107297686Y-139304331D01*
X107175021Y-139346253D01*
X107062749Y-139412072D01*
X106964448Y-139498297D01*
X106883692Y-139601439D01*
X106824057Y-139718008D01*
X106800870Y-139789187D01*
X106797491Y-139803667D01*
X106794439Y-139820884D01*
X106791694Y-139842260D01*
X106789240Y-139869221D01*
X106787061Y-139903189D01*
X106785139Y-139945588D01*
X106783457Y-139997841D01*
X106781998Y-140061373D01*
X106780745Y-140137606D01*
X106779682Y-140227965D01*
X106778790Y-140333872D01*
X106778053Y-140456752D01*
X106777454Y-140598028D01*
X106776976Y-140759123D01*
X106776602Y-140941462D01*
X106776314Y-141146467D01*
X106776096Y-141375563D01*
X106775931Y-141630172D01*
X106775814Y-141883047D01*
X106775680Y-142168648D01*
X106775562Y-142427442D01*
X106775516Y-142660845D01*
X106775601Y-142870274D01*
G37*
X106775601Y-142870274D02*
X106775873Y-143057144D01*
X106776391Y-143222870D01*
X106777212Y-143368870D01*
X106778394Y-143496558D01*
X106779993Y-143607350D01*
X106782069Y-143702662D01*
X106784677Y-143783911D01*
X106787877Y-143852511D01*
X106791725Y-143909878D01*
X106796279Y-143957430D01*
X106801597Y-143996580D01*
X106807736Y-144028745D01*
X106814754Y-144055342D01*
X106822708Y-144077785D01*
X106831656Y-144097490D01*
X106841656Y-144115874D01*
X106852765Y-144134352D01*
X106865040Y-144154340D01*
X106868415Y-144159933D01*
X106951865Y-144273820D01*
X107052129Y-144366359D01*
X107167033Y-144435882D01*
X107281855Y-144477575D01*
X107299659Y-144481742D01*
X107320353Y-144485406D01*
X107345752Y-144488600D01*
X107377674Y-144491356D01*
X107417935Y-144493705D01*
X107468351Y-144495678D01*
X107530740Y-144497309D01*
X107606917Y-144498628D01*
X107698699Y-144499668D01*
X107807904Y-144500460D01*
X107936347Y-144501036D01*
X108085846Y-144501428D01*
X108258216Y-144501667D01*
X108455274Y-144501787D01*
X108665889Y-144501817D01*
X108887955Y-144501783D01*
X109083616Y-144501658D01*
X109254688Y-144501410D01*
X109402987Y-144501009D01*
X109530330Y-144500422D01*
X109638535Y-144499618D01*
X109729417Y-144498564D01*
X109804792Y-144497228D01*
X109866479Y-144495580D01*
X109916293Y-144493586D01*
X109956050Y-144491216D01*
X109987568Y-144488437D01*
X110012663Y-144485218D01*
X110033152Y-144481527D01*
X110049924Y-144477575D01*
X110176209Y-144430324D01*
X110289818Y-144358547D01*
X110388580Y-144263912D01*
X110463363Y-144159933D01*
X110475950Y-144139324D01*
X110487355Y-144120591D01*
X110497637Y-144102318D01*
X110506852Y-144083091D01*
X110515058Y-144061492D01*
X110522312Y-144036107D01*
X110528673Y-144005519D01*
X110534198Y-143968312D01*
X110538944Y-143923071D01*
X110542970Y-143868380D01*
X110546332Y-143802823D01*
X110549088Y-143724985D01*
X110551296Y-143633448D01*
X110553013Y-143526799D01*
X110554297Y-143403620D01*
X110555206Y-143262496D01*
X110555797Y-143102011D01*
X110556127Y-142920750D01*
X110556255Y-142717296D01*
X110556237Y-142490234D01*
X110556132Y-142238148D01*
X110555997Y-141959622D01*
X110555964Y-141883047D01*
X110555832Y-141604189D01*
X110555663Y-141352130D01*
X110555439Y-141125445D01*
X110555144Y-140922712D01*
X110554761Y-140742507D01*
X110554271Y-140583407D01*
X110553660Y-140443987D01*
X110552908Y-140322824D01*
X110552001Y-140218495D01*
X110550919Y-140129576D01*
X110549647Y-140054644D01*
X110548167Y-139992274D01*
X110546462Y-139941044D01*
X110544516Y-139899529D01*
X110542311Y-139866307D01*
X110539830Y-139839954D01*
X110537056Y-139819045D01*
X110533972Y-139802158D01*
X110530908Y-139789187D01*
X110484925Y-139666521D01*
X110415781Y-139555291D01*
X110327051Y-139458987D01*
X110222311Y-139381099D01*
X110105138Y-139325116D01*
X110034092Y-139304331D01*
X110000678Y-139300047D01*
X109941597Y-139296168D01*
X109859401Y-139292695D01*
X109756641Y-139289628D01*
X109635871Y-139286967D01*
X109499642Y-139284712D01*
X109350507Y-139282862D01*
X109191017Y-139281418D01*
X109023725Y-139280381D01*
X108851182Y-139279749D01*
X108675942Y-139279523D01*
X108500555Y-139279702D01*
X108327575Y-139280288D01*
X108159553Y-139281279D01*
X107999041Y-139282676D01*
X107848591Y-139284479D01*
X107710757Y-139286688D01*
X107588089Y-139289303D01*
X107483140Y-139292324D01*
X107398462Y-139295750D01*
X107336607Y-139299582D01*
X107318278Y-139301711D01*
X107318278Y-139430500D01*
X110013500Y-139430500D01*
X110093583Y-139468041D01*
X110194750Y-139529411D01*
X110281415Y-139609878D01*
X110349208Y-139704400D01*
X110393761Y-139807938D01*
X110396491Y-139817558D01*
X110399011Y-139832769D01*
X110401279Y-139859650D01*
X110403303Y-139899348D01*
X110405090Y-139953011D01*
X110406649Y-140021787D01*
X110407988Y-140106823D01*
X110409115Y-140209267D01*
X110410037Y-140330266D01*
X110410764Y-140470969D01*
X110411304Y-140632523D01*
X110411663Y-140816075D01*
X110411851Y-141022773D01*
X110411875Y-141253765D01*
X110411744Y-141510199D01*
X110411466Y-141793222D01*
X110411306Y-141921111D01*
X110408611Y-143960166D01*
X110370793Y-144040855D01*
X110308426Y-144142420D01*
X110224914Y-144230719D01*
X110126470Y-144299424D01*
X110107001Y-144309539D01*
X110014094Y-144355277D01*
X107317685Y-144355277D01*
X107224777Y-144309539D01*
X107124240Y-144245179D01*
X107037479Y-144160047D01*
X106970706Y-144060471D01*
X106960985Y-144040855D01*
X106923167Y-143960166D01*
X106923167Y-139825017D01*
X106968905Y-139732110D01*
X107033266Y-139631572D01*
X107118397Y-139544812D01*
X107217973Y-139478039D01*
X107237590Y-139468318D01*
X107318278Y-139430500D01*
X107318278Y-139301711D01*
X107300127Y-139303820D01*
X107297686Y-139304331D01*
X107175021Y-139346253D01*
X107062749Y-139412072D01*
X106964448Y-139498297D01*
X106883692Y-139601439D01*
X106824057Y-139718008D01*
X106800870Y-139789187D01*
X106797491Y-139803667D01*
X106794439Y-139820884D01*
X106791694Y-139842260D01*
X106789240Y-139869221D01*
X106787061Y-139903189D01*
X106785139Y-139945588D01*
X106783457Y-139997841D01*
X106781998Y-140061373D01*
X106780745Y-140137606D01*
X106779682Y-140227965D01*
X106778790Y-140333872D01*
X106778053Y-140456752D01*
X106777454Y-140598028D01*
X106776976Y-140759123D01*
X106776602Y-140941462D01*
X106776314Y-141146467D01*
X106776096Y-141375563D01*
X106775931Y-141630172D01*
X106775814Y-141883047D01*
X106775680Y-142168648D01*
X106775562Y-142427442D01*
X106775516Y-142660845D01*
X106775601Y-142870274D01*
G36*
X107585700Y-135555468D02*
G01*
X107617460Y-135615251D01*
X107671433Y-135659969D01*
X107748467Y-135690241D01*
X107849413Y-135706688D01*
X107889778Y-135709260D01*
X108033031Y-135704247D01*
X108167526Y-135675582D01*
X108296637Y-135622025D01*
X108423737Y-135542338D01*
X108493028Y-135487750D01*
X108595334Y-135401584D01*
X108596740Y-135532208D01*
X108598616Y-135611354D01*
X108603164Y-135666944D01*
X108611754Y-135703617D01*
X108625758Y-135726009D01*
X108646544Y-135738757D01*
X108658926Y-135742704D01*
X108711016Y-135743128D01*
X108764198Y-135721077D01*
X108810329Y-135680742D01*
X108827774Y-135655777D01*
X108838808Y-135633550D01*
X108846868Y-135607447D01*
X108852555Y-135572460D01*
X108856471Y-135523581D01*
X108859218Y-135455802D01*
X108861108Y-135378417D01*
X108862670Y-135289989D01*
X108865069Y-135225835D01*
X108871206Y-135182082D01*
X108883980Y-135154858D01*
X108906289Y-135140289D01*
X108941034Y-135134503D01*
X108991112Y-135133627D01*
X109044186Y-135133859D01*
X109136134Y-135136832D01*
X109228101Y-135145309D01*
X109312029Y-135158186D01*
X109379857Y-135174358D01*
X109405139Y-135183303D01*
X109473680Y-135226116D01*
X109522308Y-135286594D01*
X109548400Y-135360096D01*
X109549746Y-135439062D01*
X109532233Y-135511383D01*
X109498089Y-135577586D01*
X109446615Y-135642509D01*
X109396383Y-135698111D01*
X109281045Y-135698111D01*
X109258556Y-135699938D01*
X109258556Y-136018496D01*
X109325532Y-136019089D01*
X109374375Y-136024313D01*
X109415010Y-136035775D01*
X109444359Y-136048600D01*
X109509210Y-136091514D01*
X109548317Y-136143598D01*
X109561016Y-136202470D01*
X109546647Y-136265752D01*
X109518192Y-136314027D01*
X109480175Y-136351204D01*
X109428422Y-136384904D01*
X109373894Y-136409095D01*
X109329609Y-136417777D01*
X109298586Y-136407441D01*
X109261429Y-136380668D01*
X109249878Y-136369582D01*
X109189823Y-136324022D01*
X109112212Y-136288641D01*
X109026976Y-136267220D01*
X108968749Y-136262555D01*
X108924365Y-136261493D01*
X108901327Y-136256421D01*
X108892784Y-136244516D01*
X108891760Y-136230805D01*
X108903470Y-136186513D01*
X108934681Y-136137852D01*
X108979252Y-136093955D01*
X109049652Y-136053507D01*
X109139310Y-136028627D01*
X109250718Y-136018642D01*
X109258556Y-136018496D01*
X109258556Y-135699938D01*
X109134043Y-135710056D01*
X109001500Y-135746065D01*
X108882710Y-135806404D01*
X108785870Y-135882768D01*
X108709772Y-135969885D01*
X108659179Y-136064987D01*
X108631870Y-136172900D01*
X108626467Y-136229040D01*
X108625929Y-136318074D01*
X108636950Y-136390161D01*
X108661966Y-136455064D01*
X108697577Y-136514115D01*
X108744912Y-136566814D01*
X108810192Y-136617531D01*
X108885280Y-136661734D01*
X108962041Y-136694888D01*
X109032340Y-136712460D01*
X109056458Y-136714111D01*
X109074657Y-136715330D01*
X109084741Y-136722591D01*
X109087477Y-136741299D01*
X109083630Y-136776861D01*
X109073966Y-136834683D01*
X109073729Y-136836047D01*
X109064606Y-136884305D01*
X109055286Y-136911721D01*
X109040970Y-136925296D01*
X109016857Y-136932034D01*
X109006701Y-136933818D01*
X108907673Y-136954275D01*
X108818874Y-136979447D01*
X108745724Y-137007467D01*
X108693639Y-137036471D01*
X108682495Y-137045481D01*
X108655323Y-137073884D01*
X108639667Y-137103236D01*
X108631054Y-137144189D01*
X108627642Y-137176154D01*
X108625881Y-137240033D01*
X108635502Y-137280823D01*
X108658038Y-137301880D01*
X108687265Y-137306777D01*
X108712898Y-137303594D01*
X108759447Y-137294914D01*
X108820437Y-137282039D01*
X108889393Y-137266271D01*
X108893677Y-137265254D01*
X108968693Y-137248182D01*
X109041807Y-137232924D01*
X109104350Y-137221209D01*
X109145667Y-137214983D01*
X109223278Y-137206235D01*
X109144500Y-137239860D01*
X109002316Y-137309376D01*
X108877593Y-137388345D01*
X108792390Y-137457671D01*
X108721277Y-137530219D01*
X108672489Y-137597479D01*
X108642551Y-137665609D01*
X108627992Y-137740764D01*
X108627105Y-137750644D01*
X108624163Y-137801241D01*
X108626860Y-137833164D01*
X108637301Y-137855743D01*
X108655421Y-137876148D01*
X108689537Y-137902537D01*
X108731188Y-137918178D01*
X108785008Y-137923460D01*
X108855628Y-137918768D01*
X108947680Y-137904492D01*
X108962222Y-137901810D01*
X109030041Y-137888993D01*
X109090595Y-137877321D01*
X109136763Y-137868181D01*
X109159778Y-137863345D01*
X109162979Y-137865944D01*
X109144568Y-137879206D01*
X109108030Y-137900881D01*
X109066015Y-137923872D01*
X108930134Y-138004667D01*
X108818191Y-138089417D01*
X108731011Y-138177110D01*
X108669422Y-138266733D01*
X108634251Y-138357272D01*
X108626324Y-138447715D01*
X108627514Y-138461017D01*
X108637713Y-138508662D01*
X108657840Y-138545086D01*
X108690238Y-138570649D01*
X108737251Y-138585710D01*
X108801223Y-138590630D01*
X108884497Y-138585769D01*
X108989416Y-138571485D01*
X109118325Y-138548139D01*
X109151743Y-138541500D01*
X109257911Y-138520624D01*
X109340265Y-138505897D01*
X109402491Y-138497124D01*
X109448273Y-138494109D01*
X109481297Y-138496656D01*
X109505249Y-138504571D01*
X109523815Y-138517657D01*
X109527890Y-138521556D01*
X109547760Y-138552623D01*
X109548749Y-138589227D01*
X109529761Y-138633310D01*
X109489703Y-138686817D01*
X109427481Y-138751692D01*
X109366733Y-138807974D01*
X109321181Y-138850734D01*
X109284038Y-138889335D01*
X109260326Y-138918354D01*
X109254618Y-138928977D01*
X109256171Y-138966445D01*
X109279374Y-138994186D01*
X109319069Y-139011295D01*
X109370097Y-139016867D01*
X109427301Y-139009997D01*
X109485523Y-138989781D01*
X109513410Y-138974380D01*
X109576381Y-138925619D01*
X109643334Y-138859135D01*
X109707125Y-138783142D01*
X109760611Y-138705855D01*
X109784668Y-138662511D01*
X109808423Y-138610386D01*
X109822086Y-138566495D01*
X109828341Y-138518604D01*
X109829872Y-138456495D01*
X109828778Y-138395517D01*
X109823993Y-138353699D01*
X109813618Y-138322036D01*
X109795755Y-138291525D01*
X109794778Y-138290084D01*
X109755973Y-138245609D01*
X109706867Y-138213637D01*
X109644595Y-138193763D01*
X109566289Y-138185580D01*
X109469084Y-138188682D01*
X109350113Y-138202663D01*
X109269668Y-138215656D01*
X109169893Y-138231713D01*
X109096089Y-138240220D01*
X109046908Y-138240711D01*
X109021003Y-138232720D01*
X109017027Y-138215782D01*
X109033632Y-138189431D01*
X109069470Y-138153202D01*
X109074810Y-138148340D01*
X109150848Y-138092123D01*
X109254303Y-138035855D01*
X109384370Y-137979896D01*
X109540248Y-137924607D01*
X109643736Y-137892525D01*
X109702241Y-137873203D01*
X109752625Y-137852918D01*
X109786951Y-137835007D01*
X109794644Y-137829023D01*
X109822587Y-137783179D01*
X109833236Y-137725515D01*
X109824970Y-137667680D01*
X109819096Y-137653148D01*
X109786507Y-137609992D01*
X109734620Y-137578474D01*
X109662085Y-137558370D01*
X109567554Y-137549461D01*
X109449678Y-137551527D01*
X109307109Y-137564345D01*
X109289559Y-137566438D01*
X109198854Y-137577221D01*
X109132177Y-137584191D01*
X109085589Y-137587333D01*
X109055153Y-137586628D01*
X109036929Y-137582062D01*
X109026981Y-137573616D01*
X109022802Y-137565311D01*
X109026549Y-137537398D01*
X109054813Y-137503909D01*
X109104810Y-137466419D01*
X109173756Y-137426504D01*
X109258869Y-137385738D01*
X109357362Y-137345697D01*
X109466453Y-137307955D01*
X109491389Y-137300181D01*
X109595727Y-137267939D01*
X109676105Y-137241598D01*
X109735644Y-137219111D01*
X109777463Y-137198436D01*
X109804684Y-137177527D01*
X109820427Y-137154340D01*
X109827813Y-137126830D01*
X109829963Y-137092954D01*
X109830056Y-137078296D01*
X109824035Y-137026366D01*
X109804201Y-136985475D01*
X109767899Y-136954233D01*
X109712473Y-136931249D01*
X109635268Y-136915131D01*
X109533627Y-136904489D01*
X109493212Y-136901881D01*
X109339813Y-136893147D01*
X109348451Y-136821268D01*
X109353501Y-136775144D01*
X109356674Y-136738312D01*
X109357211Y-136726585D01*
X109371086Y-136706900D01*
X109411576Y-136684802D01*
X109438472Y-136674177D01*
X109561787Y-136617112D01*
X109662436Y-136543830D01*
X109741449Y-136453448D01*
X109786401Y-136375444D01*
X109821837Y-136270621D01*
X109832181Y-136162322D01*
X109818276Y-136055600D01*
X109780962Y-135955510D01*
X109721079Y-135867104D01*
X109697753Y-135842559D01*
X109640278Y-135786781D01*
X109701158Y-135708379D01*
X109759251Y-135626060D01*
X109797669Y-135550635D01*
X109819751Y-135472660D01*
X109828833Y-135382690D01*
X109829565Y-135345036D01*
X109828989Y-135279285D01*
X109825374Y-135231926D01*
X109816748Y-135193152D01*
X109801139Y-135153152D01*
X109783558Y-135116233D01*
X109725458Y-135023527D01*
X109653024Y-134953984D01*
X109579584Y-134911808D01*
X109546607Y-134895461D01*
X109528113Y-134882944D01*
X109526667Y-134880478D01*
X109536695Y-134867739D01*
X109562004Y-134844742D01*
X109576049Y-134833209D01*
X109629044Y-134782456D01*
X109682242Y-134717414D01*
X109728149Y-134648286D01*
X109759269Y-134585272D01*
X109760302Y-134582464D01*
X109775245Y-134532094D01*
X109789119Y-134470691D01*
X109795560Y-134433582D01*
X109809490Y-134371422D01*
X109831199Y-134307190D01*
X109845390Y-134275695D01*
X109874426Y-134198339D01*
X109888675Y-134112627D01*
X109887144Y-134029357D01*
X109873463Y-133970599D01*
X109838014Y-133905066D01*
X109790420Y-133858234D01*
X109735542Y-133830879D01*
X109678243Y-133823778D01*
X109623386Y-133837706D01*
X109575832Y-133873440D01*
X109546259Y-133918367D01*
X109533090Y-133956172D01*
X109528658Y-134001036D01*
X109531969Y-134063096D01*
X109532018Y-134063626D01*
X109535770Y-134116170D01*
X109534448Y-134146089D01*
X109527482Y-134158618D01*
X109521484Y-134160000D01*
X109477221Y-134151414D01*
X109418472Y-134127837D01*
X109352264Y-134092542D01*
X109291197Y-134052811D01*
X109200235Y-133987901D01*
X109291311Y-133934680D01*
X109384120Y-133875829D01*
X109477514Y-133808393D01*
X109564542Y-133737921D01*
X109638248Y-133669959D01*
X109680354Y-133624271D01*
X109752777Y-133523303D01*
X109802816Y-133422636D01*
X109829664Y-133325179D01*
X109832511Y-133233843D01*
X109811278Y-133153169D01*
X109788957Y-133110979D01*
X109761547Y-133082382D01*
X109719087Y-133057702D01*
X109707220Y-133052061D01*
X109650958Y-133031194D01*
X109594840Y-133018827D01*
X109572528Y-133017137D01*
X109535891Y-133014679D01*
X109514675Y-133008660D01*
X109512556Y-133005676D01*
X109524630Y-132994814D01*
X109555498Y-132979471D01*
X109579584Y-132969937D01*
X109670279Y-132926711D01*
X109743422Y-132871044D01*
X109796402Y-132806199D01*
X109826608Y-132735441D01*
X109831429Y-132662035D01*
X109830623Y-132656029D01*
X109808037Y-132589055D01*
X109765264Y-132529664D01*
X109709319Y-132486990D01*
X109696065Y-132480804D01*
X109667076Y-132467310D01*
X109653761Y-132458180D01*
X109653667Y-132457777D01*
X109661222Y-132444225D01*
X109680534Y-132415588D01*
X109695553Y-132394489D01*
X109730828Y-132335475D01*
X109766172Y-132259011D01*
X109797566Y-132175574D01*
X109820990Y-132095639D01*
X109831375Y-132040531D01*
X109833661Y-131966504D01*
X109826381Y-131881912D01*
X109811258Y-131797924D01*
X109790013Y-131725713D01*
X109778882Y-131699970D01*
X109741005Y-131640125D01*
X109689523Y-131579535D01*
X109633004Y-131527224D01*
X109583111Y-131493751D01*
X109485572Y-131457450D01*
X109371627Y-131440140D01*
X109252805Y-131440431D01*
X109112140Y-131460840D01*
X108983592Y-131503334D01*
X108869826Y-131566267D01*
X108773509Y-131647991D01*
X108697306Y-131746861D01*
X108667796Y-131801751D01*
X108648187Y-131848727D01*
X108636815Y-131892857D01*
X108631647Y-131945102D01*
X108630611Y-132002030D01*
X108631594Y-132064028D01*
X108635791Y-132106665D01*
X108645082Y-132138771D01*
X108661341Y-132169177D01*
X108668486Y-132180237D01*
X108724940Y-132240937D01*
X108799621Y-132280258D01*
X108892107Y-132298006D01*
X108925000Y-132299097D01*
X109011299Y-132290517D01*
X109082433Y-132266177D01*
X109135222Y-132228171D01*
X109166483Y-132178596D01*
X109173889Y-132135055D01*
X109166434Y-132092320D01*
X109151573Y-132060085D01*
X109138582Y-132044705D01*
X109121728Y-132035589D01*
X109094397Y-132031465D01*
X109049972Y-132031061D01*
X109006934Y-132032251D01*
X108884611Y-132036277D01*
X108880154Y-131982060D01*
X108880202Y-131947293D01*
X108890550Y-131919956D01*
X108916164Y-131889707D01*
X108931824Y-131874450D01*
X109004794Y-131821796D01*
X109096233Y-131786106D01*
X109208808Y-131766365D01*
X109217776Y-131765534D01*
X109324645Y-131765658D01*
X109413640Y-131785572D01*
X109483515Y-131824211D01*
X109533021Y-131880510D01*
X109560913Y-131953405D01*
X109565941Y-132041831D01*
X109564101Y-132061229D01*
X109549882Y-132118809D01*
X109521674Y-132188667D01*
X109483999Y-132261779D01*
X109441378Y-132329118D01*
X109409630Y-132369568D01*
X109388062Y-132392590D01*
X109367668Y-132408206D01*
X109341801Y-132418774D01*
X109303814Y-132426652D01*
X109247060Y-132434196D01*
X109217703Y-132437638D01*
X109134085Y-132449556D01*
X109041608Y-132466385D01*
X108947988Y-132486386D01*
X108860941Y-132507815D01*
X108788182Y-132528931D01*
X108746347Y-132544050D01*
X108686567Y-132579045D01*
X108648634Y-132627097D01*
X108629254Y-132693057D01*
X108626271Y-132720895D01*
X108624655Y-132769483D01*
X108629756Y-132805483D01*
X108644538Y-132829607D01*
X108671966Y-132842569D01*
X108715003Y-132845081D01*
X108776615Y-132837856D01*
X108859764Y-132821607D01*
X108955046Y-132799953D01*
X109048757Y-132779712D01*
X109142635Y-132762532D01*
X109231308Y-132749121D01*
X109309403Y-132740186D01*
X109371548Y-132736434D01*
X109412369Y-132738569D01*
X109415937Y-132739343D01*
X109446675Y-132753865D01*
X109461451Y-132770673D01*
X109459845Y-132804311D01*
X109432904Y-132842940D01*
X109382818Y-132885315D01*
X109311776Y-132930191D01*
X109221968Y-132976323D01*
X109115585Y-133022466D01*
X108994814Y-133067377D01*
X108868155Y-133107942D01*
X108781696Y-133135430D01*
X108718997Y-133160697D01*
X108676085Y-133186740D01*
X108648985Y-133216559D01*
X108633722Y-133253153D01*
X108627325Y-133289666D01*
X108624795Y-133337734D01*
X108627248Y-133380057D01*
X108629140Y-133390104D01*
X108637437Y-133411725D01*
X108653602Y-133422436D01*
X108685866Y-133425974D01*
X108708731Y-133426222D01*
X108751286Y-133423132D01*
X108812525Y-133414757D01*
X108883697Y-133402440D01*
X108944823Y-133390013D01*
X109094529Y-133358023D01*
X109220002Y-133332816D01*
X109320497Y-133314525D01*
X109395271Y-133303286D01*
X109443578Y-133299234D01*
X109445500Y-133299222D01*
X109491675Y-133307915D01*
X109530110Y-133330153D01*
X109552380Y-133360172D01*
X109554889Y-133374070D01*
X109542927Y-133413660D01*
X109508655Y-133464128D01*
X109454493Y-133522757D01*
X109382864Y-133586827D01*
X109324321Y-133632937D01*
X109259644Y-133680057D01*
X109196889Y-133722216D01*
X109131046Y-133762223D01*
X109057104Y-133802886D01*
X108970054Y-133847015D01*
X108864884Y-133897419D01*
X108792033Y-133931365D01*
X108725671Y-133962921D01*
X108680252Y-133987295D01*
X108650617Y-134008041D01*
X108631611Y-134028714D01*
X108619172Y-134050529D01*
X108604247Y-134098648D01*
X108596664Y-134157710D01*
X108596893Y-134216348D01*
X108605405Y-134263197D01*
X108609941Y-134273816D01*
X108624223Y-134292576D01*
X108644395Y-134299169D01*
X108676138Y-134293232D01*
X108725136Y-134274404D01*
X108746527Y-134265093D01*
X108814094Y-134237445D01*
X108869917Y-134221935D01*
X108919835Y-134219697D01*
X108969685Y-134231864D01*
X109025305Y-134259569D01*
X109092536Y-134303947D01*
X109145650Y-134342584D01*
X109230063Y-134402147D01*
X109300203Y-134444059D01*
X109361534Y-134470846D01*
X109419517Y-134485031D01*
X109462135Y-134488854D01*
X109504962Y-134491732D01*
X109533518Y-134496288D01*
X109540754Y-134500077D01*
X109531380Y-134521280D01*
X109505891Y-134557355D01*
X109468342Y-134603432D01*
X109422787Y-134654641D01*
X109373281Y-134706113D01*
X109351485Y-134727403D01*
X109251500Y-134822977D01*
X109057472Y-134823099D01*
X108863445Y-134823222D01*
X108863445Y-134738555D01*
X108858016Y-134672590D01*
X108839712Y-134629489D01*
X108805506Y-134605665D01*
X108752369Y-134597535D01*
X108744287Y-134597444D01*
X108684303Y-134604537D01*
X108642353Y-134627934D01*
X108615627Y-134670815D01*
X108601320Y-134736360D01*
X108598949Y-134762023D01*
X108591820Y-134861663D01*
X108526551Y-134873226D01*
X108526551Y-135176648D01*
X108540698Y-135179104D01*
X108541132Y-135188045D01*
X108525522Y-135207006D01*
X108491541Y-135239521D01*
X108475389Y-135254291D01*
X108419305Y-135300306D01*
X108354747Y-135345961D01*
X108297699Y-135380242D01*
X108191048Y-135427715D01*
X108085564Y-135458521D01*
X107986638Y-135471709D01*
X107899660Y-135466327D01*
X107863661Y-135456841D01*
X107828889Y-135436969D01*
X107820279Y-135411910D01*
X107836536Y-135383006D01*
X107876365Y-135351597D01*
X107938471Y-135319025D01*
X108021559Y-135286630D01*
X108031184Y-135283381D01*
X108084724Y-135267362D01*
X108153533Y-135249389D01*
X108231269Y-135230830D01*
X108311586Y-135213052D01*
X108388140Y-135197421D01*
X108454587Y-135185306D01*
X108504581Y-135178072D01*
X108526551Y-135176648D01*
X108526551Y-134873226D01*
X108491271Y-134879477D01*
X108345858Y-134911579D01*
X108199236Y-134955621D01*
X108057569Y-135009087D01*
X107927016Y-135069456D01*
X107813738Y-135134210D01*
X107741611Y-135185921D01*
X107661120Y-135264447D01*
X107606553Y-135348155D01*
X107578821Y-135435436D01*
X107575302Y-135480000D01*
X107585700Y-135555468D01*
G37*
X107585700Y-135555468D02*
X107617460Y-135615251D01*
X107671433Y-135659969D01*
X107748467Y-135690241D01*
X107849413Y-135706688D01*
X107889778Y-135709260D01*
X108033031Y-135704247D01*
X108167526Y-135675582D01*
X108296637Y-135622025D01*
X108423737Y-135542338D01*
X108493028Y-135487750D01*
X108595334Y-135401584D01*
X108596740Y-135532208D01*
X108598616Y-135611354D01*
X108603164Y-135666944D01*
X108611754Y-135703617D01*
X108625758Y-135726009D01*
X108646544Y-135738757D01*
X108658926Y-135742704D01*
X108711016Y-135743128D01*
X108764198Y-135721077D01*
X108810329Y-135680742D01*
X108827774Y-135655777D01*
X108838808Y-135633550D01*
X108846868Y-135607447D01*
X108852555Y-135572460D01*
X108856471Y-135523581D01*
X108859218Y-135455802D01*
X108861108Y-135378417D01*
X108862670Y-135289989D01*
X108865069Y-135225835D01*
X108871206Y-135182082D01*
X108883980Y-135154858D01*
X108906289Y-135140289D01*
X108941034Y-135134503D01*
X108991112Y-135133627D01*
X109044186Y-135133859D01*
X109136134Y-135136832D01*
X109228101Y-135145309D01*
X109312029Y-135158186D01*
X109379857Y-135174358D01*
X109405139Y-135183303D01*
X109473680Y-135226116D01*
X109522308Y-135286594D01*
X109548400Y-135360096D01*
X109549746Y-135439062D01*
X109532233Y-135511383D01*
X109498089Y-135577586D01*
X109446615Y-135642509D01*
X109396383Y-135698111D01*
X109281045Y-135698111D01*
X109258556Y-135699938D01*
X109258556Y-136018496D01*
X109325532Y-136019089D01*
X109374375Y-136024313D01*
X109415010Y-136035775D01*
X109444359Y-136048600D01*
X109509210Y-136091514D01*
X109548317Y-136143598D01*
X109561016Y-136202470D01*
X109546647Y-136265752D01*
X109518192Y-136314027D01*
X109480175Y-136351204D01*
X109428422Y-136384904D01*
X109373894Y-136409095D01*
X109329609Y-136417777D01*
X109298586Y-136407441D01*
X109261429Y-136380668D01*
X109249878Y-136369582D01*
X109189823Y-136324022D01*
X109112212Y-136288641D01*
X109026976Y-136267220D01*
X108968749Y-136262555D01*
X108924365Y-136261493D01*
X108901327Y-136256421D01*
X108892784Y-136244516D01*
X108891760Y-136230805D01*
X108903470Y-136186513D01*
X108934681Y-136137852D01*
X108979252Y-136093955D01*
X109049652Y-136053507D01*
X109139310Y-136028627D01*
X109250718Y-136018642D01*
X109258556Y-136018496D01*
X109258556Y-135699938D01*
X109134043Y-135710056D01*
X109001500Y-135746065D01*
X108882710Y-135806404D01*
X108785870Y-135882768D01*
X108709772Y-135969885D01*
X108659179Y-136064987D01*
X108631870Y-136172900D01*
X108626467Y-136229040D01*
X108625929Y-136318074D01*
X108636950Y-136390161D01*
X108661966Y-136455064D01*
X108697577Y-136514115D01*
X108744912Y-136566814D01*
X108810192Y-136617531D01*
X108885280Y-136661734D01*
X108962041Y-136694888D01*
X109032340Y-136712460D01*
X109056458Y-136714111D01*
X109074657Y-136715330D01*
X109084741Y-136722591D01*
X109087477Y-136741299D01*
X109083630Y-136776861D01*
X109073966Y-136834683D01*
X109073729Y-136836047D01*
X109064606Y-136884305D01*
X109055286Y-136911721D01*
X109040970Y-136925296D01*
X109016857Y-136932034D01*
X109006701Y-136933818D01*
X108907673Y-136954275D01*
X108818874Y-136979447D01*
X108745724Y-137007467D01*
X108693639Y-137036471D01*
X108682495Y-137045481D01*
X108655323Y-137073884D01*
X108639667Y-137103236D01*
X108631054Y-137144189D01*
X108627642Y-137176154D01*
X108625881Y-137240033D01*
X108635502Y-137280823D01*
X108658038Y-137301880D01*
X108687265Y-137306777D01*
X108712898Y-137303594D01*
X108759447Y-137294914D01*
X108820437Y-137282039D01*
X108889393Y-137266271D01*
X108893677Y-137265254D01*
X108968693Y-137248182D01*
X109041807Y-137232924D01*
X109104350Y-137221209D01*
X109145667Y-137214983D01*
X109223278Y-137206235D01*
X109144500Y-137239860D01*
X109002316Y-137309376D01*
X108877593Y-137388345D01*
X108792390Y-137457671D01*
X108721277Y-137530219D01*
X108672489Y-137597479D01*
X108642551Y-137665609D01*
X108627992Y-137740764D01*
X108627105Y-137750644D01*
X108624163Y-137801241D01*
X108626860Y-137833164D01*
X108637301Y-137855743D01*
X108655421Y-137876148D01*
X108689537Y-137902537D01*
X108731188Y-137918178D01*
X108785008Y-137923460D01*
X108855628Y-137918768D01*
X108947680Y-137904492D01*
X108962222Y-137901810D01*
X109030041Y-137888993D01*
X109090595Y-137877321D01*
X109136763Y-137868181D01*
X109159778Y-137863345D01*
X109162979Y-137865944D01*
X109144568Y-137879206D01*
X109108030Y-137900881D01*
X109066015Y-137923872D01*
X108930134Y-138004667D01*
X108818191Y-138089417D01*
X108731011Y-138177110D01*
X108669422Y-138266733D01*
X108634251Y-138357272D01*
X108626324Y-138447715D01*
X108627514Y-138461017D01*
X108637713Y-138508662D01*
X108657840Y-138545086D01*
X108690238Y-138570649D01*
X108737251Y-138585710D01*
X108801223Y-138590630D01*
X108884497Y-138585769D01*
X108989416Y-138571485D01*
X109118325Y-138548139D01*
X109151743Y-138541500D01*
X109257911Y-138520624D01*
X109340265Y-138505897D01*
X109402491Y-138497124D01*
X109448273Y-138494109D01*
X109481297Y-138496656D01*
X109505249Y-138504571D01*
X109523815Y-138517657D01*
X109527890Y-138521556D01*
X109547760Y-138552623D01*
X109548749Y-138589227D01*
X109529761Y-138633310D01*
X109489703Y-138686817D01*
X109427481Y-138751692D01*
X109366733Y-138807974D01*
X109321181Y-138850734D01*
X109284038Y-138889335D01*
X109260326Y-138918354D01*
X109254618Y-138928977D01*
X109256171Y-138966445D01*
X109279374Y-138994186D01*
X109319069Y-139011295D01*
X109370097Y-139016867D01*
X109427301Y-139009997D01*
X109485523Y-138989781D01*
X109513410Y-138974380D01*
X109576381Y-138925619D01*
X109643334Y-138859135D01*
X109707125Y-138783142D01*
X109760611Y-138705855D01*
X109784668Y-138662511D01*
X109808423Y-138610386D01*
X109822086Y-138566495D01*
X109828341Y-138518604D01*
X109829872Y-138456495D01*
X109828778Y-138395517D01*
X109823993Y-138353699D01*
X109813618Y-138322036D01*
X109795755Y-138291525D01*
X109794778Y-138290084D01*
X109755973Y-138245609D01*
X109706867Y-138213637D01*
X109644595Y-138193763D01*
X109566289Y-138185580D01*
X109469084Y-138188682D01*
X109350113Y-138202663D01*
X109269668Y-138215656D01*
X109169893Y-138231713D01*
X109096089Y-138240220D01*
X109046908Y-138240711D01*
X109021003Y-138232720D01*
X109017027Y-138215782D01*
X109033632Y-138189431D01*
X109069470Y-138153202D01*
X109074810Y-138148340D01*
X109150848Y-138092123D01*
X109254303Y-138035855D01*
X109384370Y-137979896D01*
X109540248Y-137924607D01*
X109643736Y-137892525D01*
X109702241Y-137873203D01*
X109752625Y-137852918D01*
X109786951Y-137835007D01*
X109794644Y-137829023D01*
X109822587Y-137783179D01*
X109833236Y-137725515D01*
X109824970Y-137667680D01*
X109819096Y-137653148D01*
X109786507Y-137609992D01*
X109734620Y-137578474D01*
X109662085Y-137558370D01*
X109567554Y-137549461D01*
X109449678Y-137551527D01*
X109307109Y-137564345D01*
X109289559Y-137566438D01*
X109198854Y-137577221D01*
X109132177Y-137584191D01*
X109085589Y-137587333D01*
X109055153Y-137586628D01*
X109036929Y-137582062D01*
X109026981Y-137573616D01*
X109022802Y-137565311D01*
X109026549Y-137537398D01*
X109054813Y-137503909D01*
X109104810Y-137466419D01*
X109173756Y-137426504D01*
X109258869Y-137385738D01*
X109357362Y-137345697D01*
X109466453Y-137307955D01*
X109491389Y-137300181D01*
X109595727Y-137267939D01*
X109676105Y-137241598D01*
X109735644Y-137219111D01*
X109777463Y-137198436D01*
X109804684Y-137177527D01*
X109820427Y-137154340D01*
X109827813Y-137126830D01*
X109829963Y-137092954D01*
X109830056Y-137078296D01*
X109824035Y-137026366D01*
X109804201Y-136985475D01*
X109767899Y-136954233D01*
X109712473Y-136931249D01*
X109635268Y-136915131D01*
X109533627Y-136904489D01*
X109493212Y-136901881D01*
X109339813Y-136893147D01*
X109348451Y-136821268D01*
X109353501Y-136775144D01*
X109356674Y-136738312D01*
X109357211Y-136726585D01*
X109371086Y-136706900D01*
X109411576Y-136684802D01*
X109438472Y-136674177D01*
X109561787Y-136617112D01*
X109662436Y-136543830D01*
X109741449Y-136453448D01*
X109786401Y-136375444D01*
X109821837Y-136270621D01*
X109832181Y-136162322D01*
X109818276Y-136055600D01*
X109780962Y-135955510D01*
X109721079Y-135867104D01*
X109697753Y-135842559D01*
X109640278Y-135786781D01*
X109701158Y-135708379D01*
X109759251Y-135626060D01*
X109797669Y-135550635D01*
X109819751Y-135472660D01*
X109828833Y-135382690D01*
X109829565Y-135345036D01*
X109828989Y-135279285D01*
X109825374Y-135231926D01*
X109816748Y-135193152D01*
X109801139Y-135153152D01*
X109783558Y-135116233D01*
X109725458Y-135023527D01*
X109653024Y-134953984D01*
X109579584Y-134911808D01*
X109546607Y-134895461D01*
X109528113Y-134882944D01*
X109526667Y-134880478D01*
X109536695Y-134867739D01*
X109562004Y-134844742D01*
X109576049Y-134833209D01*
X109629044Y-134782456D01*
X109682242Y-134717414D01*
X109728149Y-134648286D01*
X109759269Y-134585272D01*
X109760302Y-134582464D01*
X109775245Y-134532094D01*
X109789119Y-134470691D01*
X109795560Y-134433582D01*
X109809490Y-134371422D01*
X109831199Y-134307190D01*
X109845390Y-134275695D01*
X109874426Y-134198339D01*
X109888675Y-134112627D01*
X109887144Y-134029357D01*
X109873463Y-133970599D01*
X109838014Y-133905066D01*
X109790420Y-133858234D01*
X109735542Y-133830879D01*
X109678243Y-133823778D01*
X109623386Y-133837706D01*
X109575832Y-133873440D01*
X109546259Y-133918367D01*
X109533090Y-133956172D01*
X109528658Y-134001036D01*
X109531969Y-134063096D01*
X109532018Y-134063626D01*
X109535770Y-134116170D01*
X109534448Y-134146089D01*
X109527482Y-134158618D01*
X109521484Y-134160000D01*
X109477221Y-134151414D01*
X109418472Y-134127837D01*
X109352264Y-134092542D01*
X109291197Y-134052811D01*
X109200235Y-133987901D01*
X109291311Y-133934680D01*
X109384120Y-133875829D01*
X109477514Y-133808393D01*
X109564542Y-133737921D01*
X109638248Y-133669959D01*
X109680354Y-133624271D01*
X109752777Y-133523303D01*
X109802816Y-133422636D01*
X109829664Y-133325179D01*
X109832511Y-133233843D01*
X109811278Y-133153169D01*
X109788957Y-133110979D01*
X109761547Y-133082382D01*
X109719087Y-133057702D01*
X109707220Y-133052061D01*
X109650958Y-133031194D01*
X109594840Y-133018827D01*
X109572528Y-133017137D01*
X109535891Y-133014679D01*
X109514675Y-133008660D01*
X109512556Y-133005676D01*
X109524630Y-132994814D01*
X109555498Y-132979471D01*
X109579584Y-132969937D01*
X109670279Y-132926711D01*
X109743422Y-132871044D01*
X109796402Y-132806199D01*
X109826608Y-132735441D01*
X109831429Y-132662035D01*
X109830623Y-132656029D01*
X109808037Y-132589055D01*
X109765264Y-132529664D01*
X109709319Y-132486990D01*
X109696065Y-132480804D01*
X109667076Y-132467310D01*
X109653761Y-132458180D01*
X109653667Y-132457777D01*
X109661222Y-132444225D01*
X109680534Y-132415588D01*
X109695553Y-132394489D01*
X109730828Y-132335475D01*
X109766172Y-132259011D01*
X109797566Y-132175574D01*
X109820990Y-132095639D01*
X109831375Y-132040531D01*
X109833661Y-131966504D01*
X109826381Y-131881912D01*
X109811258Y-131797924D01*
X109790013Y-131725713D01*
X109778882Y-131699970D01*
X109741005Y-131640125D01*
X109689523Y-131579535D01*
X109633004Y-131527224D01*
X109583111Y-131493751D01*
X109485572Y-131457450D01*
X109371627Y-131440140D01*
X109252805Y-131440431D01*
X109112140Y-131460840D01*
X108983592Y-131503334D01*
X108869826Y-131566267D01*
X108773509Y-131647991D01*
X108697306Y-131746861D01*
X108667796Y-131801751D01*
X108648187Y-131848727D01*
X108636815Y-131892857D01*
X108631647Y-131945102D01*
X108630611Y-132002030D01*
X108631594Y-132064028D01*
X108635791Y-132106665D01*
X108645082Y-132138771D01*
X108661341Y-132169177D01*
X108668486Y-132180237D01*
X108724940Y-132240937D01*
X108799621Y-132280258D01*
X108892107Y-132298006D01*
X108925000Y-132299097D01*
X109011299Y-132290517D01*
X109082433Y-132266177D01*
X109135222Y-132228171D01*
X109166483Y-132178596D01*
X109173889Y-132135055D01*
X109166434Y-132092320D01*
X109151573Y-132060085D01*
X109138582Y-132044705D01*
X109121728Y-132035589D01*
X109094397Y-132031465D01*
X109049972Y-132031061D01*
X109006934Y-132032251D01*
X108884611Y-132036277D01*
X108880154Y-131982060D01*
X108880202Y-131947293D01*
X108890550Y-131919956D01*
X108916164Y-131889707D01*
X108931824Y-131874450D01*
X109004794Y-131821796D01*
X109096233Y-131786106D01*
X109208808Y-131766365D01*
X109217776Y-131765534D01*
X109324645Y-131765658D01*
X109413640Y-131785572D01*
X109483515Y-131824211D01*
X109533021Y-131880510D01*
X109560913Y-131953405D01*
X109565941Y-132041831D01*
X109564101Y-132061229D01*
X109549882Y-132118809D01*
X109521674Y-132188667D01*
X109483999Y-132261779D01*
X109441378Y-132329118D01*
X109409630Y-132369568D01*
X109388062Y-132392590D01*
X109367668Y-132408206D01*
X109341801Y-132418774D01*
X109303814Y-132426652D01*
X109247060Y-132434196D01*
X109217703Y-132437638D01*
X109134085Y-132449556D01*
X109041608Y-132466385D01*
X108947988Y-132486386D01*
X108860941Y-132507815D01*
X108788182Y-132528931D01*
X108746347Y-132544050D01*
X108686567Y-132579045D01*
X108648634Y-132627097D01*
X108629254Y-132693057D01*
X108626271Y-132720895D01*
X108624655Y-132769483D01*
X108629756Y-132805483D01*
X108644538Y-132829607D01*
X108671966Y-132842569D01*
X108715003Y-132845081D01*
X108776615Y-132837856D01*
X108859764Y-132821607D01*
X108955046Y-132799953D01*
X109048757Y-132779712D01*
X109142635Y-132762532D01*
X109231308Y-132749121D01*
X109309403Y-132740186D01*
X109371548Y-132736434D01*
X109412369Y-132738569D01*
X109415937Y-132739343D01*
X109446675Y-132753865D01*
X109461451Y-132770673D01*
X109459845Y-132804311D01*
X109432904Y-132842940D01*
X109382818Y-132885315D01*
X109311776Y-132930191D01*
X109221968Y-132976323D01*
X109115585Y-133022466D01*
X108994814Y-133067377D01*
X108868155Y-133107942D01*
X108781696Y-133135430D01*
X108718997Y-133160697D01*
X108676085Y-133186740D01*
X108648985Y-133216559D01*
X108633722Y-133253153D01*
X108627325Y-133289666D01*
X108624795Y-133337734D01*
X108627248Y-133380057D01*
X108629140Y-133390104D01*
X108637437Y-133411725D01*
X108653602Y-133422436D01*
X108685866Y-133425974D01*
X108708731Y-133426222D01*
X108751286Y-133423132D01*
X108812525Y-133414757D01*
X108883697Y-133402440D01*
X108944823Y-133390013D01*
X109094529Y-133358023D01*
X109220002Y-133332816D01*
X109320497Y-133314525D01*
X109395271Y-133303286D01*
X109443578Y-133299234D01*
X109445500Y-133299222D01*
X109491675Y-133307915D01*
X109530110Y-133330153D01*
X109552380Y-133360172D01*
X109554889Y-133374070D01*
X109542927Y-133413660D01*
X109508655Y-133464128D01*
X109454493Y-133522757D01*
X109382864Y-133586827D01*
X109324321Y-133632937D01*
X109259644Y-133680057D01*
X109196889Y-133722216D01*
X109131046Y-133762223D01*
X109057104Y-133802886D01*
X108970054Y-133847015D01*
X108864884Y-133897419D01*
X108792033Y-133931365D01*
X108725671Y-133962921D01*
X108680252Y-133987295D01*
X108650617Y-134008041D01*
X108631611Y-134028714D01*
X108619172Y-134050529D01*
X108604247Y-134098648D01*
X108596664Y-134157710D01*
X108596893Y-134216348D01*
X108605405Y-134263197D01*
X108609941Y-134273816D01*
X108624223Y-134292576D01*
X108644395Y-134299169D01*
X108676138Y-134293232D01*
X108725136Y-134274404D01*
X108746527Y-134265093D01*
X108814094Y-134237445D01*
X108869917Y-134221935D01*
X108919835Y-134219697D01*
X108969685Y-134231864D01*
X109025305Y-134259569D01*
X109092536Y-134303947D01*
X109145650Y-134342584D01*
X109230063Y-134402147D01*
X109300203Y-134444059D01*
X109361534Y-134470846D01*
X109419517Y-134485031D01*
X109462135Y-134488854D01*
X109504962Y-134491732D01*
X109533518Y-134496288D01*
X109540754Y-134500077D01*
X109531380Y-134521280D01*
X109505891Y-134557355D01*
X109468342Y-134603432D01*
X109422787Y-134654641D01*
X109373281Y-134706113D01*
X109351485Y-134727403D01*
X109251500Y-134822977D01*
X109057472Y-134823099D01*
X108863445Y-134823222D01*
X108863445Y-134738555D01*
X108858016Y-134672590D01*
X108839712Y-134629489D01*
X108805506Y-134605665D01*
X108752369Y-134597535D01*
X108744287Y-134597444D01*
X108684303Y-134604537D01*
X108642353Y-134627934D01*
X108615627Y-134670815D01*
X108601320Y-134736360D01*
X108598949Y-134762023D01*
X108591820Y-134861663D01*
X108526551Y-134873226D01*
X108526551Y-135176648D01*
X108540698Y-135179104D01*
X108541132Y-135188045D01*
X108525522Y-135207006D01*
X108491541Y-135239521D01*
X108475389Y-135254291D01*
X108419305Y-135300306D01*
X108354747Y-135345961D01*
X108297699Y-135380242D01*
X108191048Y-135427715D01*
X108085564Y-135458521D01*
X107986638Y-135471709D01*
X107899660Y-135466327D01*
X107863661Y-135456841D01*
X107828889Y-135436969D01*
X107820279Y-135411910D01*
X107836536Y-135383006D01*
X107876365Y-135351597D01*
X107938471Y-135319025D01*
X108021559Y-135286630D01*
X108031184Y-135283381D01*
X108084724Y-135267362D01*
X108153533Y-135249389D01*
X108231269Y-135230830D01*
X108311586Y-135213052D01*
X108388140Y-135197421D01*
X108454587Y-135185306D01*
X108504581Y-135178072D01*
X108526551Y-135176648D01*
X108526551Y-134873226D01*
X108491271Y-134879477D01*
X108345858Y-134911579D01*
X108199236Y-134955621D01*
X108057569Y-135009087D01*
X107927016Y-135069456D01*
X107813738Y-135134210D01*
X107741611Y-135185921D01*
X107661120Y-135264447D01*
X107606553Y-135348155D01*
X107578821Y-135435436D01*
X107575302Y-135480000D01*
X107585700Y-135555468D01*
G36*
X107653417Y-140634717D02*
G01*
X107690491Y-140645822D01*
X107750132Y-140663353D01*
X107827770Y-140685980D01*
X107918836Y-140712377D01*
X108018761Y-140741215D01*
X108122611Y-140771064D01*
X108221843Y-140799757D01*
X108312221Y-140826336D01*
X108390182Y-140849717D01*
X108452160Y-140868816D01*
X108494591Y-140882549D01*
X108513911Y-140889831D01*
X108514555Y-140890261D01*
X108504174Y-140896669D01*
X108469793Y-140910505D01*
X108414339Y-140930748D01*
X108340739Y-140956378D01*
X108251921Y-140986375D01*
X108150812Y-141019719D01*
X108045360Y-141053783D01*
X107565222Y-141207380D01*
X107565222Y-141681222D01*
X109851222Y-141681222D01*
X109851222Y-141314099D01*
X109212695Y-141321404D01*
X109069907Y-141323109D01*
X108926497Y-141324951D01*
X108786920Y-141326864D01*
X108655632Y-141328784D01*
X108537090Y-141330642D01*
X108435750Y-141332374D01*
X108356068Y-141333913D01*
X108327222Y-141334554D01*
X108080278Y-141340398D01*
X108186111Y-141306075D01*
X108226115Y-141293101D01*
X108288664Y-141272817D01*
X108369454Y-141246616D01*
X108464185Y-141215895D01*
X108568555Y-141182047D01*
X108678261Y-141146470D01*
X108722334Y-141132177D01*
X109152722Y-140992602D01*
X109160990Y-140793420D01*
X109022801Y-140750603D01*
X108970904Y-140734563D01*
X108897462Y-140711920D01*
X108807910Y-140684348D01*
X108707684Y-140653519D01*
X108602221Y-140621105D01*
X108517722Y-140595156D01*
X108150834Y-140482527D01*
X109851222Y-140500435D01*
X109851222Y-140143111D01*
X107565222Y-140143111D01*
X107565222Y-140607643D01*
X107653417Y-140634717D01*
G37*
X107653417Y-140634717D02*
X107690491Y-140645822D01*
X107750132Y-140663353D01*
X107827770Y-140685980D01*
X107918836Y-140712377D01*
X108018761Y-140741215D01*
X108122611Y-140771064D01*
X108221843Y-140799757D01*
X108312221Y-140826336D01*
X108390182Y-140849717D01*
X108452160Y-140868816D01*
X108494591Y-140882549D01*
X108513911Y-140889831D01*
X108514555Y-140890261D01*
X108504174Y-140896669D01*
X108469793Y-140910505D01*
X108414339Y-140930748D01*
X108340739Y-140956378D01*
X108251921Y-140986375D01*
X108150812Y-141019719D01*
X108045360Y-141053783D01*
X107565222Y-141207380D01*
X107565222Y-141681222D01*
X109851222Y-141681222D01*
X109851222Y-141314099D01*
X109212695Y-141321404D01*
X109069907Y-141323109D01*
X108926497Y-141324951D01*
X108786920Y-141326864D01*
X108655632Y-141328784D01*
X108537090Y-141330642D01*
X108435750Y-141332374D01*
X108356068Y-141333913D01*
X108327222Y-141334554D01*
X108080278Y-141340398D01*
X108186111Y-141306075D01*
X108226115Y-141293101D01*
X108288664Y-141272817D01*
X108369454Y-141246616D01*
X108464185Y-141215895D01*
X108568555Y-141182047D01*
X108678261Y-141146470D01*
X108722334Y-141132177D01*
X109152722Y-140992602D01*
X109160990Y-140793420D01*
X109022801Y-140750603D01*
X108970904Y-140734563D01*
X108897462Y-140711920D01*
X108807910Y-140684348D01*
X108707684Y-140653519D01*
X108602221Y-140621105D01*
X108517722Y-140595156D01*
X108150834Y-140482527D01*
X109851222Y-140500435D01*
X109851222Y-140143111D01*
X107565222Y-140143111D01*
X107565222Y-140607643D01*
X107653417Y-140634717D01*
G36*
X108096117Y-142471444D02*
G01*
X108235474Y-142471595D01*
X108348897Y-142472103D01*
X108438669Y-142473049D01*
X108507079Y-142474515D01*
X108556410Y-142476583D01*
X108588949Y-142479333D01*
X108606982Y-142482848D01*
X108612794Y-142487209D01*
X108611741Y-142489844D01*
X108597609Y-142501882D01*
X108563209Y-142529047D01*
X108510869Y-142569561D01*
X108442917Y-142621643D01*
X108361682Y-142683513D01*
X108269493Y-142753392D01*
X108168679Y-142829501D01*
X108080904Y-142895538D01*
X107565338Y-143282833D01*
X107565280Y-143513813D01*
X107565222Y-143744794D01*
X107618139Y-143704557D01*
X107640831Y-143687122D01*
X107683071Y-143654489D01*
X107742122Y-143608781D01*
X107815248Y-143552116D01*
X107899712Y-143486616D01*
X107992778Y-143414402D01*
X108091710Y-143337594D01*
X108119306Y-143316161D01*
X108567557Y-142968002D01*
X109844167Y-143783144D01*
X109848065Y-143562287D01*
X109848735Y-143485925D01*
X109848033Y-143419609D01*
X109846115Y-143368423D01*
X109843135Y-143337450D01*
X109841010Y-143330777D01*
X109826942Y-143321245D01*
X109791477Y-143298588D01*
X109737261Y-143264458D01*
X109666941Y-143220510D01*
X109583163Y-143168395D01*
X109488575Y-143109766D01*
X109385823Y-143046277D01*
X109357334Y-143028708D01*
X109252837Y-142964194D01*
X109155788Y-142904095D01*
X109068835Y-142850065D01*
X108994626Y-142803756D01*
X108935810Y-142766824D01*
X108895034Y-142740921D01*
X108874947Y-142727701D01*
X108873422Y-142726529D01*
X108879106Y-142713708D01*
X108902586Y-142686255D01*
X108940284Y-142647969D01*
X108988623Y-142602647D01*
X108998658Y-142593605D01*
X109135082Y-142471444D01*
X109851222Y-142471444D01*
X109851222Y-142090444D01*
X107565222Y-142090444D01*
X107565222Y-142471444D01*
X108096117Y-142471444D01*
G37*
X108096117Y-142471444D02*
X108235474Y-142471595D01*
X108348897Y-142472103D01*
X108438669Y-142473049D01*
X108507079Y-142474515D01*
X108556410Y-142476583D01*
X108588949Y-142479333D01*
X108606982Y-142482848D01*
X108612794Y-142487209D01*
X108611741Y-142489844D01*
X108597609Y-142501882D01*
X108563209Y-142529047D01*
X108510869Y-142569561D01*
X108442917Y-142621643D01*
X108361682Y-142683513D01*
X108269493Y-142753392D01*
X108168679Y-142829501D01*
X108080904Y-142895538D01*
X107565338Y-143282833D01*
X107565280Y-143513813D01*
X107565222Y-143744794D01*
X107618139Y-143704557D01*
X107640831Y-143687122D01*
X107683071Y-143654489D01*
X107742122Y-143608781D01*
X107815248Y-143552116D01*
X107899712Y-143486616D01*
X107992778Y-143414402D01*
X108091710Y-143337594D01*
X108119306Y-143316161D01*
X108567557Y-142968002D01*
X109844167Y-143783144D01*
X109848065Y-143562287D01*
X109848735Y-143485925D01*
X109848033Y-143419609D01*
X109846115Y-143368423D01*
X109843135Y-143337450D01*
X109841010Y-143330777D01*
X109826942Y-143321245D01*
X109791477Y-143298588D01*
X109737261Y-143264458D01*
X109666941Y-143220510D01*
X109583163Y-143168395D01*
X109488575Y-143109766D01*
X109385823Y-143046277D01*
X109357334Y-143028708D01*
X109252837Y-142964194D01*
X109155788Y-142904095D01*
X109068835Y-142850065D01*
X108994626Y-142803756D01*
X108935810Y-142766824D01*
X108895034Y-142740921D01*
X108874947Y-142727701D01*
X108873422Y-142726529D01*
X108879106Y-142713708D01*
X108902586Y-142686255D01*
X108940284Y-142647969D01*
X108988623Y-142602647D01*
X108998658Y-142593605D01*
X109135082Y-142471444D01*
X109851222Y-142471444D01*
X109851222Y-142090444D01*
X107565222Y-142090444D01*
X107565222Y-142471444D01*
X108096117Y-142471444D01*
D10*
%TO.C,JP4*%
X102210000Y-113750000D02*
X105010000Y-113750000D01*
X105660000Y-113050000D02*
X105660000Y-112450000D01*
X105010000Y-111750000D02*
X102210000Y-111750000D01*
X101560000Y-112450000D02*
X101560000Y-113050000D01*
X102410000Y-111550000D02*
X102110000Y-111250000D01*
X102110000Y-111250000D02*
X102710000Y-111250000D01*
X102410000Y-111550000D02*
X102710000Y-111250000D01*
X101560000Y-113050000D02*
G75*
G03*
X102260000Y-113750000I700000J0D01*
G01*
X102260000Y-111750000D02*
G75*
G03*
X101560000Y-112450000I0J-700000D01*
G01*
X105660000Y-112450000D02*
G75*
G03*
X104960000Y-111750000I-700000J0D01*
G01*
X104960000Y-113750000D02*
G75*
G03*
X105660000Y-113050000I0J700000D01*
G01*
%TO.C,JP3*%
X102170000Y-111180000D02*
X104970000Y-111180000D01*
X105620000Y-110480000D02*
X105620000Y-109880000D01*
X104970000Y-109180000D02*
X102170000Y-109180000D01*
X101520000Y-109880000D02*
X101520000Y-110480000D01*
X102370000Y-108980000D02*
X102070000Y-108680000D01*
X102070000Y-108680000D02*
X102670000Y-108680000D01*
X102370000Y-108980000D02*
X102670000Y-108680000D01*
X101520000Y-110480000D02*
G75*
G03*
X102220000Y-111180000I700000J0D01*
G01*
X102220000Y-109180000D02*
G75*
G03*
X101520000Y-109880000I0J-700000D01*
G01*
X105620000Y-109880000D02*
G75*
G03*
X104920000Y-109180000I-700000J0D01*
G01*
X104920000Y-111180000D02*
G75*
G03*
X105620000Y-110480000I0J700000D01*
G01*
%TO.C,JP1*%
X106129000Y-99343000D02*
X108929000Y-99343000D01*
X109579000Y-98643000D02*
X109579000Y-98043000D01*
X108929000Y-97343000D02*
X106129000Y-97343000D01*
X105479000Y-98043000D02*
X105479000Y-98643000D01*
X106329000Y-97143000D02*
X106029000Y-96843000D01*
X106029000Y-96843000D02*
X106629000Y-96843000D01*
X106329000Y-97143000D02*
X106629000Y-96843000D01*
X105479000Y-98643000D02*
G75*
G03*
X106179000Y-99343000I700000J0D01*
G01*
X106179000Y-97343000D02*
G75*
G03*
X105479000Y-98043000I0J-700000D01*
G01*
X109579000Y-98043000D02*
G75*
G03*
X108879000Y-97343000I-700000J0D01*
G01*
X108879000Y-99343000D02*
G75*
G03*
X109579000Y-98643000I0J700000D01*
G01*
%TO.C,JP2*%
X106173000Y-101853000D02*
X108973000Y-101853000D01*
X109623000Y-101153000D02*
X109623000Y-100553000D01*
X108973000Y-99853000D02*
X106173000Y-99853000D01*
X105523000Y-100553000D02*
X105523000Y-101153000D01*
X106373000Y-99653000D02*
X106073000Y-99353000D01*
X106073000Y-99353000D02*
X106673000Y-99353000D01*
X106373000Y-99653000D02*
X106673000Y-99353000D01*
X105523000Y-101153000D02*
G75*
G03*
X106223000Y-101853000I700000J0D01*
G01*
X106223000Y-99853000D02*
G75*
G03*
X105523000Y-100553000I0J-700000D01*
G01*
X109623000Y-100553000D02*
G75*
G03*
X108923000Y-99853000I-700000J0D01*
G01*
X108923000Y-101853000D02*
G75*
G03*
X109623000Y-101153000I0J700000D01*
G01*
%TD*%
M02*
