%TF.GenerationSoftware,KiCad,Pcbnew,(5.1.6-0-10_14)*%
%TF.CreationDate,2022-03-04T18:58:24-06:00*%
%TF.ProjectId,Bonsai_C4,426f6e73-6169-45f4-9334-2e6b69636164,rev?*%
%TF.SameCoordinates,Original*%
%TF.FileFunction,Copper,L1,Top*%
%TF.FilePolarity,Positive*%
%FSLAX46Y46*%
G04 Gerber Fmt 4.6, Leading zero omitted, Abs format (unit mm)*
G04 Created by KiCad (PCBNEW (5.1.6-0-10_14)) date 2022-03-04 18:58:24*
%MOMM*%
%LPD*%
G01*
G04 APERTURE LIST*
%TA.AperFunction,ComponentPad*%
%ADD10C,1.700000*%
%TD*%
%TA.AperFunction,ComponentPad*%
%ADD11O,1.700000X1.700000*%
%TD*%
%TA.AperFunction,ComponentPad*%
%ADD12O,1.100000X2.200000*%
%TD*%
%TA.AperFunction,ComponentPad*%
%ADD13O,1.300000X1.900000*%
%TD*%
%TA.AperFunction,ViaPad*%
%ADD14C,0.500000*%
%TD*%
%TA.AperFunction,SMDPad,CuDef*%
%ADD15R,0.550000X0.600000*%
%TD*%
%TA.AperFunction,SMDPad,CuDef*%
%ADD16R,0.650000X1.060000*%
%TD*%
%TA.AperFunction,SMDPad,CuDef*%
%ADD17R,0.700000X0.600000*%
%TD*%
%TA.AperFunction,SMDPad,CuDef*%
%ADD18R,1.300000X1.400000*%
%TD*%
%TA.AperFunction,SMDPad,CuDef*%
%ADD19R,0.650000X0.400000*%
%TD*%
%TA.AperFunction,SMDPad,CuDef*%
%ADD20R,0.660000X0.300000*%
%TD*%
%TA.AperFunction,SMDPad,CuDef*%
%ADD21R,0.600000X0.700000*%
%TD*%
%TA.AperFunction,SMDPad,CuDef*%
%ADD22R,1.060000X0.650000*%
%TD*%
%TA.AperFunction,SMDPad,CuDef*%
%ADD23R,1.778000X2.032000*%
%TD*%
%TA.AperFunction,SMDPad,CuDef*%
%ADD24R,1.500000X1.000000*%
%TD*%
%TA.AperFunction,ViaPad*%
%ADD25C,0.250000*%
%TD*%
%TA.AperFunction,ViaPad*%
%ADD26C,0.800000*%
%TD*%
%TA.AperFunction,ViaPad*%
%ADD27C,0.450000*%
%TD*%
%TA.AperFunction,ViaPad*%
%ADD28C,0.350000*%
%TD*%
%TA.AperFunction,Conductor*%
%ADD29C,0.250000*%
%TD*%
%TA.AperFunction,Conductor*%
%ADD30C,0.127000*%
%TD*%
%TA.AperFunction,Conductor*%
%ADD31C,0.500000*%
%TD*%
%TA.AperFunction,Conductor*%
%ADD32C,0.380000*%
%TD*%
%TA.AperFunction,Conductor*%
%ADD33C,0.190000*%
%TD*%
%TA.AperFunction,Conductor*%
%ADD34C,0.300000*%
%TD*%
%TA.AperFunction,Conductor*%
%ADD35C,0.220000*%
%TD*%
%TA.AperFunction,Conductor*%
%ADD36C,0.450000*%
%TD*%
%TA.AperFunction,Conductor*%
%ADD37C,0.350000*%
%TD*%
G04 APERTURE END LIST*
D10*
%TO.P,J4,1*%
%TO.N,/PD3*%
X100000000Y-100000000D03*
D11*
%TO.P,J4,2*%
%TO.N,/PD2*%
X100000000Y-102540000D03*
%TO.P,J4,3*%
%TO.N,GND*%
X100000000Y-105080000D03*
%TO.P,J4,6*%
%TO.N,/PD0*%
X100000000Y-112700000D03*
%TO.P,J4,5*%
%TO.N,/PD1*%
X100000000Y-110160000D03*
D10*
%TO.P,J4,4*%
%TO.N,GND*%
X100000000Y-107620000D03*
%TO.P,J4,10*%
%TO.N,/B10*%
X100000000Y-122860000D03*
D11*
%TO.P,J4,8*%
%TO.N,/B8*%
X100000000Y-117780000D03*
D10*
%TO.P,J4,7*%
%TO.N,/A4*%
X100000000Y-115240000D03*
D11*
%TO.P,J4,11*%
%TO.N,/A8*%
X100000000Y-125400000D03*
%TO.P,J4,12*%
%TO.N,/B0*%
X100000000Y-127940000D03*
%TO.P,J4,9*%
%TO.N,/A3*%
X100000000Y-120320000D03*
%TD*%
D10*
%TO.P,J5,1*%
%TO.N,+5V*%
X115240000Y-100000000D03*
D11*
%TO.P,J5,2*%
%TO.N,GND*%
X115240000Y-102540000D03*
%TO.P,J5,3*%
%TO.N,/DFU*%
X115240000Y-105080000D03*
%TO.P,J5,6*%
%TO.N,/A6*%
X115240000Y-112700000D03*
%TO.P,J5,5*%
%TO.N,/A7*%
X115240000Y-110160000D03*
D10*
%TO.P,J5,4*%
%TO.N,+3V3*%
X115240000Y-107620000D03*
%TO.P,J5,10*%
%TO.N,/B14*%
X115240000Y-122860000D03*
D11*
%TO.P,J5,8*%
%TO.N,/A1*%
X115240000Y-117780000D03*
D10*
%TO.P,J5,7*%
%TO.N,/A5*%
X115240000Y-115240000D03*
D11*
%TO.P,J5,11*%
%TO.N,/B15*%
X115240000Y-125400000D03*
%TO.P,J5,12*%
%TO.N,/B1*%
X115240000Y-127940000D03*
%TO.P,J5,9*%
%TO.N,/B13*%
X115240000Y-120320000D03*
%TD*%
%TO.P,J1,3*%
%TO.N,/D+*%
X102540000Y-105080000D03*
%TO.P,J1,2*%
%TO.N,/D-*%
X105080000Y-105080000D03*
D10*
%TO.P,J1,1*%
%TO.N,VBUS*%
X107620000Y-105080000D03*
%TD*%
%TO.P,J2,1*%
%TO.N,/A10_5V*%
X112680000Y-105120000D03*
%TD*%
%TO.P,J7,1*%
%TO.N,/A0_FRAM_CS*%
X100000000Y-133020000D03*
D11*
%TO.P,J7,2*%
%TO.N,/B3_SCK*%
X100000000Y-135560000D03*
%TO.P,J7,3*%
%TO.N,/B4_MISO*%
X100000000Y-138100000D03*
%TO.P,J7,6*%
%TO.N,/C13*%
X100000000Y-145720000D03*
%TO.P,J7,5*%
%TO.N,/B12_FLASH_CS*%
X100000000Y-143180000D03*
D10*
%TO.P,J7,4*%
%TO.N,/B5_MOSI*%
X100000000Y-140640000D03*
%TD*%
%TO.P,J6,1*%
%TO.N,/C14*%
X115240000Y-133020000D03*
D11*
%TO.P,J6,2*%
%TO.N,/C15*%
X115240000Y-135560000D03*
%TO.P,J6,3*%
%TO.N,/A2*%
X115240000Y-138100000D03*
%TO.P,J6,6*%
%TO.N,/NRST*%
X115240000Y-145720000D03*
%TO.P,J6,5*%
%TO.N,/A13*%
X115240000Y-143180000D03*
D10*
%TO.P,J6,4*%
%TO.N,/A14*%
X115240000Y-140640000D03*
%TD*%
%TO.P,C11,2*%
%TO.N,GND*%
%TA.AperFunction,SMDPad,CuDef*%
G36*
G01*
X102678000Y-111195500D02*
X102678000Y-111540500D01*
G75*
G02*
X102530500Y-111688000I-147500J0D01*
G01*
X102235500Y-111688000D01*
G75*
G02*
X102088000Y-111540500I0J147500D01*
G01*
X102088000Y-111195500D01*
G75*
G02*
X102235500Y-111048000I147500J0D01*
G01*
X102530500Y-111048000D01*
G75*
G02*
X102678000Y-111195500I0J-147500D01*
G01*
G37*
%TD.AperFunction*%
%TO.P,C11,1*%
%TO.N,+3V3*%
%TA.AperFunction,SMDPad,CuDef*%
G36*
G01*
X103648000Y-111195500D02*
X103648000Y-111540500D01*
G75*
G02*
X103500500Y-111688000I-147500J0D01*
G01*
X103205500Y-111688000D01*
G75*
G02*
X103058000Y-111540500I0J147500D01*
G01*
X103058000Y-111195500D01*
G75*
G02*
X103205500Y-111048000I147500J0D01*
G01*
X103500500Y-111048000D01*
G75*
G02*
X103648000Y-111195500I0J-147500D01*
G01*
G37*
%TD.AperFunction*%
%TD*%
D12*
%TO.P,J3,S*%
%TO.N,Net-(FB1-Pad1)*%
X103320000Y-102000000D03*
D13*
X103320000Y-97800000D03*
X111920000Y-97800000D03*
%TO.P,J3,A1*%
%TO.N,GND*%
%TA.AperFunction,SMDPad,CuDef*%
G36*
G01*
X111170000Y-102200000D02*
X111170000Y-103350000D01*
G75*
G02*
X111020000Y-103500000I-150000J0D01*
G01*
X110720000Y-103500000D01*
G75*
G02*
X110570000Y-103350000I0J150000D01*
G01*
X110570000Y-102200000D01*
G75*
G02*
X110720000Y-102050000I150000J0D01*
G01*
X111020000Y-102050000D01*
G75*
G02*
X111170000Y-102200000I0J-150000D01*
G01*
G37*
%TD.AperFunction*%
%TO.P,J3,B8*%
%TO.N,Net-(J3-PadB8)*%
%TA.AperFunction,SMDPad,CuDef*%
G36*
G01*
X109520000Y-102125000D02*
X109520000Y-103425000D01*
G75*
G02*
X109445000Y-103500000I-75000J0D01*
G01*
X109295000Y-103500000D01*
G75*
G02*
X109220000Y-103425000I0J75000D01*
G01*
X109220000Y-102125000D01*
G75*
G02*
X109295000Y-102050000I75000J0D01*
G01*
X109445000Y-102050000D01*
G75*
G02*
X109520000Y-102125000I0J-75000D01*
G01*
G37*
%TD.AperFunction*%
%TO.P,J3,A5*%
%TO.N,Net-(J3-PadA5)*%
%TA.AperFunction,SMDPad,CuDef*%
G36*
G01*
X109020000Y-102125000D02*
X109020000Y-103425000D01*
G75*
G02*
X108945000Y-103500000I-75000J0D01*
G01*
X108795000Y-103500000D01*
G75*
G02*
X108720000Y-103425000I0J75000D01*
G01*
X108720000Y-102125000D01*
G75*
G02*
X108795000Y-102050000I75000J0D01*
G01*
X108945000Y-102050000D01*
G75*
G02*
X109020000Y-102125000I0J-75000D01*
G01*
G37*
%TD.AperFunction*%
%TO.P,J3,B7*%
%TO.N,/D-*%
%TA.AperFunction,SMDPad,CuDef*%
G36*
G01*
X108520000Y-102125000D02*
X108520000Y-103425000D01*
G75*
G02*
X108445000Y-103500000I-75000J0D01*
G01*
X108295000Y-103500000D01*
G75*
G02*
X108220000Y-103425000I0J75000D01*
G01*
X108220000Y-102125000D01*
G75*
G02*
X108295000Y-102050000I75000J0D01*
G01*
X108445000Y-102050000D01*
G75*
G02*
X108520000Y-102125000I0J-75000D01*
G01*
G37*
%TD.AperFunction*%
%TO.P,J3,A6*%
%TO.N,/D+*%
%TA.AperFunction,SMDPad,CuDef*%
G36*
G01*
X108020000Y-102125000D02*
X108020000Y-103425000D01*
G75*
G02*
X107945000Y-103500000I-75000J0D01*
G01*
X107795000Y-103500000D01*
G75*
G02*
X107720000Y-103425000I0J75000D01*
G01*
X107720000Y-102125000D01*
G75*
G02*
X107795000Y-102050000I75000J0D01*
G01*
X107945000Y-102050000D01*
G75*
G02*
X108020000Y-102125000I0J-75000D01*
G01*
G37*
%TD.AperFunction*%
%TO.P,J3,B5*%
%TO.N,Net-(J3-PadB5)*%
%TA.AperFunction,SMDPad,CuDef*%
G36*
G01*
X106020000Y-102125000D02*
X106020000Y-103425000D01*
G75*
G02*
X105945000Y-103500000I-75000J0D01*
G01*
X105795000Y-103500000D01*
G75*
G02*
X105720000Y-103425000I0J75000D01*
G01*
X105720000Y-102125000D01*
G75*
G02*
X105795000Y-102050000I75000J0D01*
G01*
X105945000Y-102050000D01*
G75*
G02*
X106020000Y-102125000I0J-75000D01*
G01*
G37*
%TD.AperFunction*%
%TO.P,J3,A8*%
%TO.N,Net-(J3-PadA8)*%
%TA.AperFunction,SMDPad,CuDef*%
G36*
G01*
X106520000Y-102125000D02*
X106520000Y-103425000D01*
G75*
G02*
X106445000Y-103500000I-75000J0D01*
G01*
X106295000Y-103500000D01*
G75*
G02*
X106220000Y-103425000I0J75000D01*
G01*
X106220000Y-102125000D01*
G75*
G02*
X106295000Y-102050000I75000J0D01*
G01*
X106445000Y-102050000D01*
G75*
G02*
X106520000Y-102125000I0J-75000D01*
G01*
G37*
%TD.AperFunction*%
%TO.P,J3,B6*%
%TO.N,/D+*%
%TA.AperFunction,SMDPad,CuDef*%
G36*
G01*
X107020000Y-102125000D02*
X107020000Y-103425000D01*
G75*
G02*
X106945000Y-103500000I-75000J0D01*
G01*
X106795000Y-103500000D01*
G75*
G02*
X106720000Y-103425000I0J75000D01*
G01*
X106720000Y-102125000D01*
G75*
G02*
X106795000Y-102050000I75000J0D01*
G01*
X106945000Y-102050000D01*
G75*
G02*
X107020000Y-102125000I0J-75000D01*
G01*
G37*
%TD.AperFunction*%
%TO.P,J3,A7*%
%TO.N,/D-*%
%TA.AperFunction,SMDPad,CuDef*%
G36*
G01*
X107520000Y-102125000D02*
X107520000Y-103425000D01*
G75*
G02*
X107445000Y-103500000I-75000J0D01*
G01*
X107295000Y-103500000D01*
G75*
G02*
X107220000Y-103425000I0J75000D01*
G01*
X107220000Y-102125000D01*
G75*
G02*
X107295000Y-102050000I75000J0D01*
G01*
X107445000Y-102050000D01*
G75*
G02*
X107520000Y-102125000I0J-75000D01*
G01*
G37*
%TD.AperFunction*%
D12*
%TO.P,J3,S*%
%TO.N,Net-(FB1-Pad1)*%
X111920000Y-102000000D03*
%TO.P,J3,A4*%
%TO.N,VBUS*%
%TA.AperFunction,SMDPad,CuDef*%
G36*
G01*
X110370000Y-102200000D02*
X110370000Y-103350000D01*
G75*
G02*
X110220000Y-103500000I-150000J0D01*
G01*
X109920000Y-103500000D01*
G75*
G02*
X109770000Y-103350000I0J150000D01*
G01*
X109770000Y-102200000D01*
G75*
G02*
X109920000Y-102050000I150000J0D01*
G01*
X110220000Y-102050000D01*
G75*
G02*
X110370000Y-102200000I0J-150000D01*
G01*
G37*
%TD.AperFunction*%
%TO.P,J3,B1*%
%TO.N,GND*%
%TA.AperFunction,SMDPad,CuDef*%
G36*
G01*
X104670000Y-102200000D02*
X104670000Y-103350000D01*
G75*
G02*
X104520000Y-103500000I-150000J0D01*
G01*
X104220000Y-103500000D01*
G75*
G02*
X104070000Y-103350000I0J150000D01*
G01*
X104070000Y-102200000D01*
G75*
G02*
X104220000Y-102050000I150000J0D01*
G01*
X104520000Y-102050000D01*
G75*
G02*
X104670000Y-102200000I0J-150000D01*
G01*
G37*
%TD.AperFunction*%
%TO.P,J3,B4*%
%TO.N,VBUS*%
%TA.AperFunction,SMDPad,CuDef*%
G36*
G01*
X105470000Y-102200000D02*
X105470000Y-103350000D01*
G75*
G02*
X105320000Y-103500000I-150000J0D01*
G01*
X105020000Y-103500000D01*
G75*
G02*
X104870000Y-103350000I0J150000D01*
G01*
X104870000Y-102200000D01*
G75*
G02*
X105020000Y-102050000I150000J0D01*
G01*
X105320000Y-102050000D01*
G75*
G02*
X105470000Y-102200000I0J-150000D01*
G01*
G37*
%TD.AperFunction*%
%TD*%
%TO.P,U3,49*%
%TO.N,GND*%
%TA.AperFunction,SMDPad,CuDef*%
G36*
G01*
X111272000Y-120690000D02*
X106172000Y-120690000D01*
G75*
G02*
X105922000Y-120440000I0J250000D01*
G01*
X105922000Y-115340000D01*
G75*
G02*
X106172000Y-115090000I250000J0D01*
G01*
X111272000Y-115090000D01*
G75*
G02*
X111522000Y-115340000I0J-250000D01*
G01*
X111522000Y-120440000D01*
G75*
G02*
X111272000Y-120690000I-250000J0D01*
G01*
G37*
%TD.AperFunction*%
D14*
%TD*%
%TO.N,GND*%
%TO.C,U3*%
X106172000Y-120440000D03*
%TO.N,GND*%
%TO.C,U3*%
X106172000Y-117890000D03*
X106172000Y-115340000D03*
X107447000Y-119165000D03*
X107447000Y-116615000D03*
X108722000Y-120440000D03*
X108722000Y-117890000D03*
X108722000Y-115340000D03*
X109997000Y-119165000D03*
X109997000Y-116615000D03*
X111272000Y-120440000D03*
X111272000Y-117890000D03*
X111272000Y-115340000D03*
%TD*%
%TO.P,U3,1*%
%TO.N,+3V3*%
%TA.AperFunction,SMDPad,CuDef*%
G36*
G01*
X106034500Y-121765000D02*
X105909500Y-121765000D01*
G75*
G02*
X105847000Y-121702500I0J62500D01*
G01*
X105847000Y-120952500D01*
G75*
G02*
X105909500Y-120890000I62500J0D01*
G01*
X106034500Y-120890000D01*
G75*
G02*
X106097000Y-120952500I0J-62500D01*
G01*
X106097000Y-121702500D01*
G75*
G02*
X106034500Y-121765000I-62500J0D01*
G01*
G37*
%TD.AperFunction*%
%TO.P,U3,2*%
%TO.N,/C13*%
%TA.AperFunction,SMDPad,CuDef*%
G36*
G01*
X106534500Y-121765000D02*
X106409500Y-121765000D01*
G75*
G02*
X106347000Y-121702500I0J62500D01*
G01*
X106347000Y-120952500D01*
G75*
G02*
X106409500Y-120890000I62500J0D01*
G01*
X106534500Y-120890000D01*
G75*
G02*
X106597000Y-120952500I0J-62500D01*
G01*
X106597000Y-121702500D01*
G75*
G02*
X106534500Y-121765000I-62500J0D01*
G01*
G37*
%TD.AperFunction*%
%TO.P,U3,3*%
%TO.N,/C14*%
%TA.AperFunction,SMDPad,CuDef*%
G36*
G01*
X107034500Y-121765000D02*
X106909500Y-121765000D01*
G75*
G02*
X106847000Y-121702500I0J62500D01*
G01*
X106847000Y-120952500D01*
G75*
G02*
X106909500Y-120890000I62500J0D01*
G01*
X107034500Y-120890000D01*
G75*
G02*
X107097000Y-120952500I0J-62500D01*
G01*
X107097000Y-121702500D01*
G75*
G02*
X107034500Y-121765000I-62500J0D01*
G01*
G37*
%TD.AperFunction*%
%TO.P,U3,4*%
%TO.N,/C15*%
%TA.AperFunction,SMDPad,CuDef*%
G36*
G01*
X107534500Y-121765000D02*
X107409500Y-121765000D01*
G75*
G02*
X107347000Y-121702500I0J62500D01*
G01*
X107347000Y-120952500D01*
G75*
G02*
X107409500Y-120890000I62500J0D01*
G01*
X107534500Y-120890000D01*
G75*
G02*
X107597000Y-120952500I0J-62500D01*
G01*
X107597000Y-121702500D01*
G75*
G02*
X107534500Y-121765000I-62500J0D01*
G01*
G37*
%TD.AperFunction*%
%TO.P,U3,5*%
%TO.N,/F0*%
%TA.AperFunction,SMDPad,CuDef*%
G36*
G01*
X108034500Y-121765000D02*
X107909500Y-121765000D01*
G75*
G02*
X107847000Y-121702500I0J62500D01*
G01*
X107847000Y-120952500D01*
G75*
G02*
X107909500Y-120890000I62500J0D01*
G01*
X108034500Y-120890000D01*
G75*
G02*
X108097000Y-120952500I0J-62500D01*
G01*
X108097000Y-121702500D01*
G75*
G02*
X108034500Y-121765000I-62500J0D01*
G01*
G37*
%TD.AperFunction*%
%TO.P,U3,6*%
%TO.N,/F1*%
%TA.AperFunction,SMDPad,CuDef*%
G36*
G01*
X108534500Y-121765000D02*
X108409500Y-121765000D01*
G75*
G02*
X108347000Y-121702500I0J62500D01*
G01*
X108347000Y-120952500D01*
G75*
G02*
X108409500Y-120890000I62500J0D01*
G01*
X108534500Y-120890000D01*
G75*
G02*
X108597000Y-120952500I0J-62500D01*
G01*
X108597000Y-121702500D01*
G75*
G02*
X108534500Y-121765000I-62500J0D01*
G01*
G37*
%TD.AperFunction*%
%TO.P,U3,7*%
%TO.N,/NRST*%
%TA.AperFunction,SMDPad,CuDef*%
G36*
G01*
X109034500Y-121765000D02*
X108909500Y-121765000D01*
G75*
G02*
X108847000Y-121702500I0J62500D01*
G01*
X108847000Y-120952500D01*
G75*
G02*
X108909500Y-120890000I62500J0D01*
G01*
X109034500Y-120890000D01*
G75*
G02*
X109097000Y-120952500I0J-62500D01*
G01*
X109097000Y-121702500D01*
G75*
G02*
X109034500Y-121765000I-62500J0D01*
G01*
G37*
%TD.AperFunction*%
%TO.P,U3,8*%
%TO.N,GND*%
%TA.AperFunction,SMDPad,CuDef*%
G36*
G01*
X109534500Y-121765000D02*
X109409500Y-121765000D01*
G75*
G02*
X109347000Y-121702500I0J62500D01*
G01*
X109347000Y-120952500D01*
G75*
G02*
X109409500Y-120890000I62500J0D01*
G01*
X109534500Y-120890000D01*
G75*
G02*
X109597000Y-120952500I0J-62500D01*
G01*
X109597000Y-121702500D01*
G75*
G02*
X109534500Y-121765000I-62500J0D01*
G01*
G37*
%TD.AperFunction*%
%TO.P,U3,9*%
%TO.N,+3V3*%
%TA.AperFunction,SMDPad,CuDef*%
G36*
G01*
X110034500Y-121765000D02*
X109909500Y-121765000D01*
G75*
G02*
X109847000Y-121702500I0J62500D01*
G01*
X109847000Y-120952500D01*
G75*
G02*
X109909500Y-120890000I62500J0D01*
G01*
X110034500Y-120890000D01*
G75*
G02*
X110097000Y-120952500I0J-62500D01*
G01*
X110097000Y-121702500D01*
G75*
G02*
X110034500Y-121765000I-62500J0D01*
G01*
G37*
%TD.AperFunction*%
%TO.P,U3,10*%
%TO.N,/A0_FRAM_CS*%
%TA.AperFunction,SMDPad,CuDef*%
G36*
G01*
X110534500Y-121765000D02*
X110409500Y-121765000D01*
G75*
G02*
X110347000Y-121702500I0J62500D01*
G01*
X110347000Y-120952500D01*
G75*
G02*
X110409500Y-120890000I62500J0D01*
G01*
X110534500Y-120890000D01*
G75*
G02*
X110597000Y-120952500I0J-62500D01*
G01*
X110597000Y-121702500D01*
G75*
G02*
X110534500Y-121765000I-62500J0D01*
G01*
G37*
%TD.AperFunction*%
%TO.P,U3,11*%
%TO.N,/A1*%
%TA.AperFunction,SMDPad,CuDef*%
G36*
G01*
X111034500Y-121765000D02*
X110909500Y-121765000D01*
G75*
G02*
X110847000Y-121702500I0J62500D01*
G01*
X110847000Y-120952500D01*
G75*
G02*
X110909500Y-120890000I62500J0D01*
G01*
X111034500Y-120890000D01*
G75*
G02*
X111097000Y-120952500I0J-62500D01*
G01*
X111097000Y-121702500D01*
G75*
G02*
X111034500Y-121765000I-62500J0D01*
G01*
G37*
%TD.AperFunction*%
%TO.P,U3,12*%
%TO.N,/A2*%
%TA.AperFunction,SMDPad,CuDef*%
G36*
G01*
X111534500Y-121765000D02*
X111409500Y-121765000D01*
G75*
G02*
X111347000Y-121702500I0J62500D01*
G01*
X111347000Y-120952500D01*
G75*
G02*
X111409500Y-120890000I62500J0D01*
G01*
X111534500Y-120890000D01*
G75*
G02*
X111597000Y-120952500I0J-62500D01*
G01*
X111597000Y-121702500D01*
G75*
G02*
X111534500Y-121765000I-62500J0D01*
G01*
G37*
%TD.AperFunction*%
%TO.P,U3,13*%
%TO.N,/A3*%
%TA.AperFunction,SMDPad,CuDef*%
G36*
G01*
X112534500Y-120765000D02*
X111784500Y-120765000D01*
G75*
G02*
X111722000Y-120702500I0J62500D01*
G01*
X111722000Y-120577500D01*
G75*
G02*
X111784500Y-120515000I62500J0D01*
G01*
X112534500Y-120515000D01*
G75*
G02*
X112597000Y-120577500I0J-62500D01*
G01*
X112597000Y-120702500D01*
G75*
G02*
X112534500Y-120765000I-62500J0D01*
G01*
G37*
%TD.AperFunction*%
%TO.P,U3,14*%
%TO.N,/A4*%
%TA.AperFunction,SMDPad,CuDef*%
G36*
G01*
X112534500Y-120265000D02*
X111784500Y-120265000D01*
G75*
G02*
X111722000Y-120202500I0J62500D01*
G01*
X111722000Y-120077500D01*
G75*
G02*
X111784500Y-120015000I62500J0D01*
G01*
X112534500Y-120015000D01*
G75*
G02*
X112597000Y-120077500I0J-62500D01*
G01*
X112597000Y-120202500D01*
G75*
G02*
X112534500Y-120265000I-62500J0D01*
G01*
G37*
%TD.AperFunction*%
%TO.P,U3,15*%
%TO.N,/A5*%
%TA.AperFunction,SMDPad,CuDef*%
G36*
G01*
X112534500Y-119765000D02*
X111784500Y-119765000D01*
G75*
G02*
X111722000Y-119702500I0J62500D01*
G01*
X111722000Y-119577500D01*
G75*
G02*
X111784500Y-119515000I62500J0D01*
G01*
X112534500Y-119515000D01*
G75*
G02*
X112597000Y-119577500I0J-62500D01*
G01*
X112597000Y-119702500D01*
G75*
G02*
X112534500Y-119765000I-62500J0D01*
G01*
G37*
%TD.AperFunction*%
%TO.P,U3,16*%
%TO.N,/A6*%
%TA.AperFunction,SMDPad,CuDef*%
G36*
G01*
X112534500Y-119265000D02*
X111784500Y-119265000D01*
G75*
G02*
X111722000Y-119202500I0J62500D01*
G01*
X111722000Y-119077500D01*
G75*
G02*
X111784500Y-119015000I62500J0D01*
G01*
X112534500Y-119015000D01*
G75*
G02*
X112597000Y-119077500I0J-62500D01*
G01*
X112597000Y-119202500D01*
G75*
G02*
X112534500Y-119265000I-62500J0D01*
G01*
G37*
%TD.AperFunction*%
%TO.P,U3,17*%
%TO.N,/A7*%
%TA.AperFunction,SMDPad,CuDef*%
G36*
G01*
X112534500Y-118765000D02*
X111784500Y-118765000D01*
G75*
G02*
X111722000Y-118702500I0J62500D01*
G01*
X111722000Y-118577500D01*
G75*
G02*
X111784500Y-118515000I62500J0D01*
G01*
X112534500Y-118515000D01*
G75*
G02*
X112597000Y-118577500I0J-62500D01*
G01*
X112597000Y-118702500D01*
G75*
G02*
X112534500Y-118765000I-62500J0D01*
G01*
G37*
%TD.AperFunction*%
%TO.P,U3,18*%
%TO.N,/B0*%
%TA.AperFunction,SMDPad,CuDef*%
G36*
G01*
X112534500Y-118265000D02*
X111784500Y-118265000D01*
G75*
G02*
X111722000Y-118202500I0J62500D01*
G01*
X111722000Y-118077500D01*
G75*
G02*
X111784500Y-118015000I62500J0D01*
G01*
X112534500Y-118015000D01*
G75*
G02*
X112597000Y-118077500I0J-62500D01*
G01*
X112597000Y-118202500D01*
G75*
G02*
X112534500Y-118265000I-62500J0D01*
G01*
G37*
%TD.AperFunction*%
%TO.P,U3,19*%
%TO.N,/B1*%
%TA.AperFunction,SMDPad,CuDef*%
G36*
G01*
X112534500Y-117765000D02*
X111784500Y-117765000D01*
G75*
G02*
X111722000Y-117702500I0J62500D01*
G01*
X111722000Y-117577500D01*
G75*
G02*
X111784500Y-117515000I62500J0D01*
G01*
X112534500Y-117515000D01*
G75*
G02*
X112597000Y-117577500I0J-62500D01*
G01*
X112597000Y-117702500D01*
G75*
G02*
X112534500Y-117765000I-62500J0D01*
G01*
G37*
%TD.AperFunction*%
%TO.P,U3,20*%
%TO.N,/B2*%
%TA.AperFunction,SMDPad,CuDef*%
G36*
G01*
X112534500Y-117265000D02*
X111784500Y-117265000D01*
G75*
G02*
X111722000Y-117202500I0J62500D01*
G01*
X111722000Y-117077500D01*
G75*
G02*
X111784500Y-117015000I62500J0D01*
G01*
X112534500Y-117015000D01*
G75*
G02*
X112597000Y-117077500I0J-62500D01*
G01*
X112597000Y-117202500D01*
G75*
G02*
X112534500Y-117265000I-62500J0D01*
G01*
G37*
%TD.AperFunction*%
%TO.P,U3,21*%
%TO.N,/B10*%
%TA.AperFunction,SMDPad,CuDef*%
G36*
G01*
X112534500Y-116765000D02*
X111784500Y-116765000D01*
G75*
G02*
X111722000Y-116702500I0J62500D01*
G01*
X111722000Y-116577500D01*
G75*
G02*
X111784500Y-116515000I62500J0D01*
G01*
X112534500Y-116515000D01*
G75*
G02*
X112597000Y-116577500I0J-62500D01*
G01*
X112597000Y-116702500D01*
G75*
G02*
X112534500Y-116765000I-62500J0D01*
G01*
G37*
%TD.AperFunction*%
%TO.P,U3,22*%
%TO.N,/VCAP_1*%
%TA.AperFunction,SMDPad,CuDef*%
G36*
G01*
X112534500Y-116265000D02*
X111784500Y-116265000D01*
G75*
G02*
X111722000Y-116202500I0J62500D01*
G01*
X111722000Y-116077500D01*
G75*
G02*
X111784500Y-116015000I62500J0D01*
G01*
X112534500Y-116015000D01*
G75*
G02*
X112597000Y-116077500I0J-62500D01*
G01*
X112597000Y-116202500D01*
G75*
G02*
X112534500Y-116265000I-62500J0D01*
G01*
G37*
%TD.AperFunction*%
%TO.P,U3,23*%
%TO.N,GND*%
%TA.AperFunction,SMDPad,CuDef*%
G36*
G01*
X112534500Y-115765000D02*
X111784500Y-115765000D01*
G75*
G02*
X111722000Y-115702500I0J62500D01*
G01*
X111722000Y-115577500D01*
G75*
G02*
X111784500Y-115515000I62500J0D01*
G01*
X112534500Y-115515000D01*
G75*
G02*
X112597000Y-115577500I0J-62500D01*
G01*
X112597000Y-115702500D01*
G75*
G02*
X112534500Y-115765000I-62500J0D01*
G01*
G37*
%TD.AperFunction*%
%TO.P,U3,24*%
%TO.N,+3V3*%
%TA.AperFunction,SMDPad,CuDef*%
G36*
G01*
X112534500Y-115265000D02*
X111784500Y-115265000D01*
G75*
G02*
X111722000Y-115202500I0J62500D01*
G01*
X111722000Y-115077500D01*
G75*
G02*
X111784500Y-115015000I62500J0D01*
G01*
X112534500Y-115015000D01*
G75*
G02*
X112597000Y-115077500I0J-62500D01*
G01*
X112597000Y-115202500D01*
G75*
G02*
X112534500Y-115265000I-62500J0D01*
G01*
G37*
%TD.AperFunction*%
%TO.P,U3,25*%
%TO.N,/B12_FLASH_CS*%
%TA.AperFunction,SMDPad,CuDef*%
G36*
G01*
X111534500Y-114890000D02*
X111409500Y-114890000D01*
G75*
G02*
X111347000Y-114827500I0J62500D01*
G01*
X111347000Y-114077500D01*
G75*
G02*
X111409500Y-114015000I62500J0D01*
G01*
X111534500Y-114015000D01*
G75*
G02*
X111597000Y-114077500I0J-62500D01*
G01*
X111597000Y-114827500D01*
G75*
G02*
X111534500Y-114890000I-62500J0D01*
G01*
G37*
%TD.AperFunction*%
%TO.P,U3,26*%
%TO.N,/B13*%
%TA.AperFunction,SMDPad,CuDef*%
G36*
G01*
X111034500Y-114890000D02*
X110909500Y-114890000D01*
G75*
G02*
X110847000Y-114827500I0J62500D01*
G01*
X110847000Y-114077500D01*
G75*
G02*
X110909500Y-114015000I62500J0D01*
G01*
X111034500Y-114015000D01*
G75*
G02*
X111097000Y-114077500I0J-62500D01*
G01*
X111097000Y-114827500D01*
G75*
G02*
X111034500Y-114890000I-62500J0D01*
G01*
G37*
%TD.AperFunction*%
%TO.P,U3,27*%
%TO.N,/B14*%
%TA.AperFunction,SMDPad,CuDef*%
G36*
G01*
X110534500Y-114890000D02*
X110409500Y-114890000D01*
G75*
G02*
X110347000Y-114827500I0J62500D01*
G01*
X110347000Y-114077500D01*
G75*
G02*
X110409500Y-114015000I62500J0D01*
G01*
X110534500Y-114015000D01*
G75*
G02*
X110597000Y-114077500I0J-62500D01*
G01*
X110597000Y-114827500D01*
G75*
G02*
X110534500Y-114890000I-62500J0D01*
G01*
G37*
%TD.AperFunction*%
%TO.P,U3,28*%
%TO.N,/B15*%
%TA.AperFunction,SMDPad,CuDef*%
G36*
G01*
X110034500Y-114890000D02*
X109909500Y-114890000D01*
G75*
G02*
X109847000Y-114827500I0J62500D01*
G01*
X109847000Y-114077500D01*
G75*
G02*
X109909500Y-114015000I62500J0D01*
G01*
X110034500Y-114015000D01*
G75*
G02*
X110097000Y-114077500I0J-62500D01*
G01*
X110097000Y-114827500D01*
G75*
G02*
X110034500Y-114890000I-62500J0D01*
G01*
G37*
%TD.AperFunction*%
%TO.P,U3,29*%
%TO.N,/A8*%
%TA.AperFunction,SMDPad,CuDef*%
G36*
G01*
X109534500Y-114890000D02*
X109409500Y-114890000D01*
G75*
G02*
X109347000Y-114827500I0J62500D01*
G01*
X109347000Y-114077500D01*
G75*
G02*
X109409500Y-114015000I62500J0D01*
G01*
X109534500Y-114015000D01*
G75*
G02*
X109597000Y-114077500I0J-62500D01*
G01*
X109597000Y-114827500D01*
G75*
G02*
X109534500Y-114890000I-62500J0D01*
G01*
G37*
%TD.AperFunction*%
%TO.P,U3,30*%
%TO.N,/VBUS_DET*%
%TA.AperFunction,SMDPad,CuDef*%
G36*
G01*
X109034500Y-114890000D02*
X108909500Y-114890000D01*
G75*
G02*
X108847000Y-114827500I0J62500D01*
G01*
X108847000Y-114077500D01*
G75*
G02*
X108909500Y-114015000I62500J0D01*
G01*
X109034500Y-114015000D01*
G75*
G02*
X109097000Y-114077500I0J-62500D01*
G01*
X109097000Y-114827500D01*
G75*
G02*
X109034500Y-114890000I-62500J0D01*
G01*
G37*
%TD.AperFunction*%
%TO.P,U3,31*%
%TO.N,/A10*%
%TA.AperFunction,SMDPad,CuDef*%
G36*
G01*
X108534500Y-114890000D02*
X108409500Y-114890000D01*
G75*
G02*
X108347000Y-114827500I0J62500D01*
G01*
X108347000Y-114077500D01*
G75*
G02*
X108409500Y-114015000I62500J0D01*
G01*
X108534500Y-114015000D01*
G75*
G02*
X108597000Y-114077500I0J-62500D01*
G01*
X108597000Y-114827500D01*
G75*
G02*
X108534500Y-114890000I-62500J0D01*
G01*
G37*
%TD.AperFunction*%
%TO.P,U3,32*%
%TO.N,/D-*%
%TA.AperFunction,SMDPad,CuDef*%
G36*
G01*
X108034500Y-114890000D02*
X107909500Y-114890000D01*
G75*
G02*
X107847000Y-114827500I0J62500D01*
G01*
X107847000Y-114077500D01*
G75*
G02*
X107909500Y-114015000I62500J0D01*
G01*
X108034500Y-114015000D01*
G75*
G02*
X108097000Y-114077500I0J-62500D01*
G01*
X108097000Y-114827500D01*
G75*
G02*
X108034500Y-114890000I-62500J0D01*
G01*
G37*
%TD.AperFunction*%
%TO.P,U3,33*%
%TO.N,/D+*%
%TA.AperFunction,SMDPad,CuDef*%
G36*
G01*
X107534500Y-114890000D02*
X107409500Y-114890000D01*
G75*
G02*
X107347000Y-114827500I0J62500D01*
G01*
X107347000Y-114077500D01*
G75*
G02*
X107409500Y-114015000I62500J0D01*
G01*
X107534500Y-114015000D01*
G75*
G02*
X107597000Y-114077500I0J-62500D01*
G01*
X107597000Y-114827500D01*
G75*
G02*
X107534500Y-114890000I-62500J0D01*
G01*
G37*
%TD.AperFunction*%
%TO.P,U3,34*%
%TO.N,/A13*%
%TA.AperFunction,SMDPad,CuDef*%
G36*
G01*
X107034500Y-114890000D02*
X106909500Y-114890000D01*
G75*
G02*
X106847000Y-114827500I0J62500D01*
G01*
X106847000Y-114077500D01*
G75*
G02*
X106909500Y-114015000I62500J0D01*
G01*
X107034500Y-114015000D01*
G75*
G02*
X107097000Y-114077500I0J-62500D01*
G01*
X107097000Y-114827500D01*
G75*
G02*
X107034500Y-114890000I-62500J0D01*
G01*
G37*
%TD.AperFunction*%
%TO.P,U3,35*%
%TO.N,GND*%
%TA.AperFunction,SMDPad,CuDef*%
G36*
G01*
X106534500Y-114890000D02*
X106409500Y-114890000D01*
G75*
G02*
X106347000Y-114827500I0J62500D01*
G01*
X106347000Y-114077500D01*
G75*
G02*
X106409500Y-114015000I62500J0D01*
G01*
X106534500Y-114015000D01*
G75*
G02*
X106597000Y-114077500I0J-62500D01*
G01*
X106597000Y-114827500D01*
G75*
G02*
X106534500Y-114890000I-62500J0D01*
G01*
G37*
%TD.AperFunction*%
%TO.P,U3,36*%
%TO.N,+3V3*%
%TA.AperFunction,SMDPad,CuDef*%
G36*
G01*
X106034500Y-114890000D02*
X105909500Y-114890000D01*
G75*
G02*
X105847000Y-114827500I0J62500D01*
G01*
X105847000Y-114077500D01*
G75*
G02*
X105909500Y-114015000I62500J0D01*
G01*
X106034500Y-114015000D01*
G75*
G02*
X106097000Y-114077500I0J-62500D01*
G01*
X106097000Y-114827500D01*
G75*
G02*
X106034500Y-114890000I-62500J0D01*
G01*
G37*
%TD.AperFunction*%
%TO.P,U3,37*%
%TO.N,/A14*%
%TA.AperFunction,SMDPad,CuDef*%
G36*
G01*
X105659500Y-115265000D02*
X104909500Y-115265000D01*
G75*
G02*
X104847000Y-115202500I0J62500D01*
G01*
X104847000Y-115077500D01*
G75*
G02*
X104909500Y-115015000I62500J0D01*
G01*
X105659500Y-115015000D01*
G75*
G02*
X105722000Y-115077500I0J-62500D01*
G01*
X105722000Y-115202500D01*
G75*
G02*
X105659500Y-115265000I-62500J0D01*
G01*
G37*
%TD.AperFunction*%
%TO.P,U3,38*%
%TO.N,/A15*%
%TA.AperFunction,SMDPad,CuDef*%
G36*
G01*
X105659500Y-115765000D02*
X104909500Y-115765000D01*
G75*
G02*
X104847000Y-115702500I0J62500D01*
G01*
X104847000Y-115577500D01*
G75*
G02*
X104909500Y-115515000I62500J0D01*
G01*
X105659500Y-115515000D01*
G75*
G02*
X105722000Y-115577500I0J-62500D01*
G01*
X105722000Y-115702500D01*
G75*
G02*
X105659500Y-115765000I-62500J0D01*
G01*
G37*
%TD.AperFunction*%
%TO.P,U3,39*%
%TO.N,/B3_SCK*%
%TA.AperFunction,SMDPad,CuDef*%
G36*
G01*
X105659500Y-116265000D02*
X104909500Y-116265000D01*
G75*
G02*
X104847000Y-116202500I0J62500D01*
G01*
X104847000Y-116077500D01*
G75*
G02*
X104909500Y-116015000I62500J0D01*
G01*
X105659500Y-116015000D01*
G75*
G02*
X105722000Y-116077500I0J-62500D01*
G01*
X105722000Y-116202500D01*
G75*
G02*
X105659500Y-116265000I-62500J0D01*
G01*
G37*
%TD.AperFunction*%
%TO.P,U3,40*%
%TO.N,/B4_MISO*%
%TA.AperFunction,SMDPad,CuDef*%
G36*
G01*
X105659500Y-116765000D02*
X104909500Y-116765000D01*
G75*
G02*
X104847000Y-116702500I0J62500D01*
G01*
X104847000Y-116577500D01*
G75*
G02*
X104909500Y-116515000I62500J0D01*
G01*
X105659500Y-116515000D01*
G75*
G02*
X105722000Y-116577500I0J-62500D01*
G01*
X105722000Y-116702500D01*
G75*
G02*
X105659500Y-116765000I-62500J0D01*
G01*
G37*
%TD.AperFunction*%
%TO.P,U3,41*%
%TO.N,/B5_MOSI*%
%TA.AperFunction,SMDPad,CuDef*%
G36*
G01*
X105659500Y-117265000D02*
X104909500Y-117265000D01*
G75*
G02*
X104847000Y-117202500I0J62500D01*
G01*
X104847000Y-117077500D01*
G75*
G02*
X104909500Y-117015000I62500J0D01*
G01*
X105659500Y-117015000D01*
G75*
G02*
X105722000Y-117077500I0J-62500D01*
G01*
X105722000Y-117202500D01*
G75*
G02*
X105659500Y-117265000I-62500J0D01*
G01*
G37*
%TD.AperFunction*%
%TO.P,U3,42*%
%TO.N,/B6*%
%TA.AperFunction,SMDPad,CuDef*%
G36*
G01*
X105659500Y-117765000D02*
X104909500Y-117765000D01*
G75*
G02*
X104847000Y-117702500I0J62500D01*
G01*
X104847000Y-117577500D01*
G75*
G02*
X104909500Y-117515000I62500J0D01*
G01*
X105659500Y-117515000D01*
G75*
G02*
X105722000Y-117577500I0J-62500D01*
G01*
X105722000Y-117702500D01*
G75*
G02*
X105659500Y-117765000I-62500J0D01*
G01*
G37*
%TD.AperFunction*%
%TO.P,U3,43*%
%TO.N,/B7*%
%TA.AperFunction,SMDPad,CuDef*%
G36*
G01*
X105659500Y-118265000D02*
X104909500Y-118265000D01*
G75*
G02*
X104847000Y-118202500I0J62500D01*
G01*
X104847000Y-118077500D01*
G75*
G02*
X104909500Y-118015000I62500J0D01*
G01*
X105659500Y-118015000D01*
G75*
G02*
X105722000Y-118077500I0J-62500D01*
G01*
X105722000Y-118202500D01*
G75*
G02*
X105659500Y-118265000I-62500J0D01*
G01*
G37*
%TD.AperFunction*%
%TO.P,U3,44*%
%TO.N,/BOOT0*%
%TA.AperFunction,SMDPad,CuDef*%
G36*
G01*
X105659500Y-118765000D02*
X104909500Y-118765000D01*
G75*
G02*
X104847000Y-118702500I0J62500D01*
G01*
X104847000Y-118577500D01*
G75*
G02*
X104909500Y-118515000I62500J0D01*
G01*
X105659500Y-118515000D01*
G75*
G02*
X105722000Y-118577500I0J-62500D01*
G01*
X105722000Y-118702500D01*
G75*
G02*
X105659500Y-118765000I-62500J0D01*
G01*
G37*
%TD.AperFunction*%
%TO.P,U3,45*%
%TO.N,/B8*%
%TA.AperFunction,SMDPad,CuDef*%
G36*
G01*
X105659500Y-119265000D02*
X104909500Y-119265000D01*
G75*
G02*
X104847000Y-119202500I0J62500D01*
G01*
X104847000Y-119077500D01*
G75*
G02*
X104909500Y-119015000I62500J0D01*
G01*
X105659500Y-119015000D01*
G75*
G02*
X105722000Y-119077500I0J-62500D01*
G01*
X105722000Y-119202500D01*
G75*
G02*
X105659500Y-119265000I-62500J0D01*
G01*
G37*
%TD.AperFunction*%
%TO.P,U3,46*%
%TO.N,/B9*%
%TA.AperFunction,SMDPad,CuDef*%
G36*
G01*
X105659500Y-119765000D02*
X104909500Y-119765000D01*
G75*
G02*
X104847000Y-119702500I0J62500D01*
G01*
X104847000Y-119577500D01*
G75*
G02*
X104909500Y-119515000I62500J0D01*
G01*
X105659500Y-119515000D01*
G75*
G02*
X105722000Y-119577500I0J-62500D01*
G01*
X105722000Y-119702500D01*
G75*
G02*
X105659500Y-119765000I-62500J0D01*
G01*
G37*
%TD.AperFunction*%
%TO.P,U3,47*%
%TO.N,GND*%
%TA.AperFunction,SMDPad,CuDef*%
G36*
G01*
X105659500Y-120265000D02*
X104909500Y-120265000D01*
G75*
G02*
X104847000Y-120202500I0J62500D01*
G01*
X104847000Y-120077500D01*
G75*
G02*
X104909500Y-120015000I62500J0D01*
G01*
X105659500Y-120015000D01*
G75*
G02*
X105722000Y-120077500I0J-62500D01*
G01*
X105722000Y-120202500D01*
G75*
G02*
X105659500Y-120265000I-62500J0D01*
G01*
G37*
%TD.AperFunction*%
%TO.P,U3,48*%
%TO.N,+3V3*%
%TA.AperFunction,SMDPad,CuDef*%
G36*
G01*
X105659500Y-120765000D02*
X104909500Y-120765000D01*
G75*
G02*
X104847000Y-120702500I0J62500D01*
G01*
X104847000Y-120577500D01*
G75*
G02*
X104909500Y-120515000I62500J0D01*
G01*
X105659500Y-120515000D01*
G75*
G02*
X105722000Y-120577500I0J-62500D01*
G01*
X105722000Y-120702500D01*
G75*
G02*
X105659500Y-120765000I-62500J0D01*
G01*
G37*
%TD.AperFunction*%
%TD*%
D15*
%TO.P,K1,2*%
%TO.N,+3V3*%
X109059000Y-126990000D03*
%TO.P,K1,4*%
%TO.N,/SwitchPin*%
X109059000Y-128790000D03*
%TO.P,K1,3*%
%TO.N,Net-(K1-Pad3)*%
X106109000Y-128790000D03*
%TO.P,K1,1*%
%TO.N,Net-(K1-Pad1)*%
X106109000Y-126990000D03*
%TD*%
%TO.P,U7,8*%
%TO.N,+3V3*%
%TA.AperFunction,SMDPad,CuDef*%
G36*
G01*
X109420000Y-134245000D02*
X109420000Y-133945000D01*
G75*
G02*
X109570000Y-133795000I150000J0D01*
G01*
X110920000Y-133795000D01*
G75*
G02*
X111070000Y-133945000I0J-150000D01*
G01*
X111070000Y-134245000D01*
G75*
G02*
X110920000Y-134395000I-150000J0D01*
G01*
X109570000Y-134395000D01*
G75*
G02*
X109420000Y-134245000I0J150000D01*
G01*
G37*
%TD.AperFunction*%
%TO.P,U7,7*%
%TA.AperFunction,SMDPad,CuDef*%
G36*
G01*
X109420000Y-135515000D02*
X109420000Y-135215000D01*
G75*
G02*
X109570000Y-135065000I150000J0D01*
G01*
X110920000Y-135065000D01*
G75*
G02*
X111070000Y-135215000I0J-150000D01*
G01*
X111070000Y-135515000D01*
G75*
G02*
X110920000Y-135665000I-150000J0D01*
G01*
X109570000Y-135665000D01*
G75*
G02*
X109420000Y-135515000I0J150000D01*
G01*
G37*
%TD.AperFunction*%
%TO.P,U7,6*%
%TO.N,/B3_SCK*%
%TA.AperFunction,SMDPad,CuDef*%
G36*
G01*
X109420000Y-136785000D02*
X109420000Y-136485000D01*
G75*
G02*
X109570000Y-136335000I150000J0D01*
G01*
X110920000Y-136335000D01*
G75*
G02*
X111070000Y-136485000I0J-150000D01*
G01*
X111070000Y-136785000D01*
G75*
G02*
X110920000Y-136935000I-150000J0D01*
G01*
X109570000Y-136935000D01*
G75*
G02*
X109420000Y-136785000I0J150000D01*
G01*
G37*
%TD.AperFunction*%
%TO.P,U7,5*%
%TO.N,/B5_MOSI*%
%TA.AperFunction,SMDPad,CuDef*%
G36*
G01*
X109420000Y-138055000D02*
X109420000Y-137755000D01*
G75*
G02*
X109570000Y-137605000I150000J0D01*
G01*
X110920000Y-137605000D01*
G75*
G02*
X111070000Y-137755000I0J-150000D01*
G01*
X111070000Y-138055000D01*
G75*
G02*
X110920000Y-138205000I-150000J0D01*
G01*
X109570000Y-138205000D01*
G75*
G02*
X109420000Y-138055000I0J150000D01*
G01*
G37*
%TD.AperFunction*%
%TO.P,U7,4*%
%TO.N,GND*%
%TA.AperFunction,SMDPad,CuDef*%
G36*
G01*
X104170000Y-138055000D02*
X104170000Y-137755000D01*
G75*
G02*
X104320000Y-137605000I150000J0D01*
G01*
X105670000Y-137605000D01*
G75*
G02*
X105820000Y-137755000I0J-150000D01*
G01*
X105820000Y-138055000D01*
G75*
G02*
X105670000Y-138205000I-150000J0D01*
G01*
X104320000Y-138205000D01*
G75*
G02*
X104170000Y-138055000I0J150000D01*
G01*
G37*
%TD.AperFunction*%
%TO.P,U7,3*%
%TO.N,+3V3*%
%TA.AperFunction,SMDPad,CuDef*%
G36*
G01*
X104170000Y-136785000D02*
X104170000Y-136485000D01*
G75*
G02*
X104320000Y-136335000I150000J0D01*
G01*
X105670000Y-136335000D01*
G75*
G02*
X105820000Y-136485000I0J-150000D01*
G01*
X105820000Y-136785000D01*
G75*
G02*
X105670000Y-136935000I-150000J0D01*
G01*
X104320000Y-136935000D01*
G75*
G02*
X104170000Y-136785000I0J150000D01*
G01*
G37*
%TD.AperFunction*%
%TO.P,U7,2*%
%TO.N,/B4_MISO*%
%TA.AperFunction,SMDPad,CuDef*%
G36*
G01*
X104170000Y-135515000D02*
X104170000Y-135215000D01*
G75*
G02*
X104320000Y-135065000I150000J0D01*
G01*
X105670000Y-135065000D01*
G75*
G02*
X105820000Y-135215000I0J-150000D01*
G01*
X105820000Y-135515000D01*
G75*
G02*
X105670000Y-135665000I-150000J0D01*
G01*
X104320000Y-135665000D01*
G75*
G02*
X104170000Y-135515000I0J150000D01*
G01*
G37*
%TD.AperFunction*%
%TO.P,U7,1*%
%TO.N,/A0_FRAM_CS*%
%TA.AperFunction,SMDPad,CuDef*%
G36*
G01*
X104170000Y-134245000D02*
X104170000Y-133945000D01*
G75*
G02*
X104320000Y-133795000I150000J0D01*
G01*
X105670000Y-133795000D01*
G75*
G02*
X105820000Y-133945000I0J-150000D01*
G01*
X105820000Y-134245000D01*
G75*
G02*
X105670000Y-134395000I-150000J0D01*
G01*
X104320000Y-134395000D01*
G75*
G02*
X104170000Y-134245000I0J150000D01*
G01*
G37*
%TD.AperFunction*%
%TD*%
%TO.P,U6,8*%
%TO.N,+3V3*%
%TA.AperFunction,SMDPad,CuDef*%
G36*
G01*
X104820000Y-143315000D02*
X104820000Y-143615000D01*
G75*
G02*
X104670000Y-143765000I-150000J0D01*
G01*
X103370000Y-143765000D01*
G75*
G02*
X103220000Y-143615000I0J150000D01*
G01*
X103220000Y-143315000D01*
G75*
G02*
X103370000Y-143165000I150000J0D01*
G01*
X104670000Y-143165000D01*
G75*
G02*
X104820000Y-143315000I0J-150000D01*
G01*
G37*
%TD.AperFunction*%
%TO.P,U6,7*%
%TO.N,Net-(U6-Pad7)*%
%TA.AperFunction,SMDPad,CuDef*%
G36*
G01*
X104820000Y-142045000D02*
X104820000Y-142345000D01*
G75*
G02*
X104670000Y-142495000I-150000J0D01*
G01*
X103370000Y-142495000D01*
G75*
G02*
X103220000Y-142345000I0J150000D01*
G01*
X103220000Y-142045000D01*
G75*
G02*
X103370000Y-141895000I150000J0D01*
G01*
X104670000Y-141895000D01*
G75*
G02*
X104820000Y-142045000I0J-150000D01*
G01*
G37*
%TD.AperFunction*%
%TO.P,U6,6*%
%TO.N,/B3_SCK*%
%TA.AperFunction,SMDPad,CuDef*%
G36*
G01*
X104820000Y-140775000D02*
X104820000Y-141075000D01*
G75*
G02*
X104670000Y-141225000I-150000J0D01*
G01*
X103370000Y-141225000D01*
G75*
G02*
X103220000Y-141075000I0J150000D01*
G01*
X103220000Y-140775000D01*
G75*
G02*
X103370000Y-140625000I150000J0D01*
G01*
X104670000Y-140625000D01*
G75*
G02*
X104820000Y-140775000I0J-150000D01*
G01*
G37*
%TD.AperFunction*%
%TO.P,U6,5*%
%TO.N,/B5_MOSI*%
%TA.AperFunction,SMDPad,CuDef*%
G36*
G01*
X104820000Y-139505000D02*
X104820000Y-139805000D01*
G75*
G02*
X104670000Y-139955000I-150000J0D01*
G01*
X103370000Y-139955000D01*
G75*
G02*
X103220000Y-139805000I0J150000D01*
G01*
X103220000Y-139505000D01*
G75*
G02*
X103370000Y-139355000I150000J0D01*
G01*
X104670000Y-139355000D01*
G75*
G02*
X104820000Y-139505000I0J-150000D01*
G01*
G37*
%TD.AperFunction*%
%TO.P,U6,4*%
%TO.N,GND*%
%TA.AperFunction,SMDPad,CuDef*%
G36*
G01*
X112020000Y-139505000D02*
X112020000Y-139805000D01*
G75*
G02*
X111870000Y-139955000I-150000J0D01*
G01*
X110570000Y-139955000D01*
G75*
G02*
X110420000Y-139805000I0J150000D01*
G01*
X110420000Y-139505000D01*
G75*
G02*
X110570000Y-139355000I150000J0D01*
G01*
X111870000Y-139355000D01*
G75*
G02*
X112020000Y-139505000I0J-150000D01*
G01*
G37*
%TD.AperFunction*%
%TO.P,U6,3*%
%TO.N,Net-(U6-Pad3)*%
%TA.AperFunction,SMDPad,CuDef*%
G36*
G01*
X112020000Y-140775000D02*
X112020000Y-141075000D01*
G75*
G02*
X111870000Y-141225000I-150000J0D01*
G01*
X110570000Y-141225000D01*
G75*
G02*
X110420000Y-141075000I0J150000D01*
G01*
X110420000Y-140775000D01*
G75*
G02*
X110570000Y-140625000I150000J0D01*
G01*
X111870000Y-140625000D01*
G75*
G02*
X112020000Y-140775000I0J-150000D01*
G01*
G37*
%TD.AperFunction*%
%TO.P,U6,2*%
%TO.N,/B4_MISO*%
%TA.AperFunction,SMDPad,CuDef*%
G36*
G01*
X112020000Y-142045000D02*
X112020000Y-142345000D01*
G75*
G02*
X111870000Y-142495000I-150000J0D01*
G01*
X110570000Y-142495000D01*
G75*
G02*
X110420000Y-142345000I0J150000D01*
G01*
X110420000Y-142045000D01*
G75*
G02*
X110570000Y-141895000I150000J0D01*
G01*
X111870000Y-141895000D01*
G75*
G02*
X112020000Y-142045000I0J-150000D01*
G01*
G37*
%TD.AperFunction*%
%TO.P,U6,1*%
%TO.N,/B12_FLASH_CS*%
%TA.AperFunction,SMDPad,CuDef*%
G36*
G01*
X112020000Y-143315000D02*
X112020000Y-143615000D01*
G75*
G02*
X111870000Y-143765000I-150000J0D01*
G01*
X110570000Y-143765000D01*
G75*
G02*
X110420000Y-143615000I0J150000D01*
G01*
X110420000Y-143315000D01*
G75*
G02*
X110570000Y-143165000I150000J0D01*
G01*
X111870000Y-143165000D01*
G75*
G02*
X112020000Y-143315000I0J-150000D01*
G01*
G37*
%TD.AperFunction*%
%TD*%
D16*
%TO.P,U2,5*%
%TO.N,Net-(D5-Pad1)*%
X103114000Y-109412000D03*
%TO.P,U2,6*%
%TO.N,/D-*%
X104064000Y-109412000D03*
%TO.P,U2,4*%
%TO.N,/D+*%
X102164000Y-109412000D03*
%TO.P,U2,3*%
X102164000Y-107212000D03*
%TO.P,U2,2*%
%TO.N,GND*%
X103114000Y-107212000D03*
%TO.P,U2,1*%
%TO.N,/D-*%
X104064000Y-107212000D03*
%TD*%
%TO.P,R9,2*%
%TO.N,/B2*%
%TA.AperFunction,SMDPad,CuDef*%
G36*
G01*
X113626500Y-121018000D02*
X113281500Y-121018000D01*
G75*
G02*
X113134000Y-120870500I0J147500D01*
G01*
X113134000Y-120575500D01*
G75*
G02*
X113281500Y-120428000I147500J0D01*
G01*
X113626500Y-120428000D01*
G75*
G02*
X113774000Y-120575500I0J-147500D01*
G01*
X113774000Y-120870500D01*
G75*
G02*
X113626500Y-121018000I-147500J0D01*
G01*
G37*
%TD.AperFunction*%
%TO.P,R9,1*%
%TO.N,Net-(Q2-Pad6)*%
%TA.AperFunction,SMDPad,CuDef*%
G36*
G01*
X113626500Y-121988000D02*
X113281500Y-121988000D01*
G75*
G02*
X113134000Y-121840500I0J147500D01*
G01*
X113134000Y-121545500D01*
G75*
G02*
X113281500Y-121398000I147500J0D01*
G01*
X113626500Y-121398000D01*
G75*
G02*
X113774000Y-121545500I0J-147500D01*
G01*
X113774000Y-121840500D01*
G75*
G02*
X113626500Y-121988000I-147500J0D01*
G01*
G37*
%TD.AperFunction*%
%TD*%
%TO.P,R8,2*%
%TO.N,/A10*%
%TA.AperFunction,SMDPad,CuDef*%
G36*
G01*
X108863000Y-112922500D02*
X108863000Y-112577500D01*
G75*
G02*
X109010500Y-112430000I147500J0D01*
G01*
X109305500Y-112430000D01*
G75*
G02*
X109453000Y-112577500I0J-147500D01*
G01*
X109453000Y-112922500D01*
G75*
G02*
X109305500Y-113070000I-147500J0D01*
G01*
X109010500Y-113070000D01*
G75*
G02*
X108863000Y-112922500I0J147500D01*
G01*
G37*
%TD.AperFunction*%
%TO.P,R8,1*%
%TO.N,+3V3*%
%TA.AperFunction,SMDPad,CuDef*%
G36*
G01*
X107893000Y-112922500D02*
X107893000Y-112577500D01*
G75*
G02*
X108040500Y-112430000I147500J0D01*
G01*
X108335500Y-112430000D01*
G75*
G02*
X108483000Y-112577500I0J-147500D01*
G01*
X108483000Y-112922500D01*
G75*
G02*
X108335500Y-113070000I-147500J0D01*
G01*
X108040500Y-113070000D01*
G75*
G02*
X107893000Y-112922500I0J147500D01*
G01*
G37*
%TD.AperFunction*%
%TD*%
D17*
%TO.P,D5,2*%
%TO.N,VBUS*%
X110330000Y-111530000D03*
%TO.P,D5,1*%
%TO.N,Net-(D5-Pad1)*%
X110330000Y-112930000D03*
%TD*%
D18*
%TO.P,D4,2*%
%TO.N,GND*%
X105691000Y-107561000D03*
%TO.P,D4,1*%
%TO.N,VBUS*%
X108591000Y-107561000D03*
%TD*%
%TO.P,C6,1*%
%TO.N,+3V3*%
%TA.AperFunction,SMDPad,CuDef*%
G36*
G01*
X113634500Y-112731000D02*
X113289500Y-112731000D01*
G75*
G02*
X113142000Y-112583500I0J147500D01*
G01*
X113142000Y-112288500D01*
G75*
G02*
X113289500Y-112141000I147500J0D01*
G01*
X113634500Y-112141000D01*
G75*
G02*
X113782000Y-112288500I0J-147500D01*
G01*
X113782000Y-112583500D01*
G75*
G02*
X113634500Y-112731000I-147500J0D01*
G01*
G37*
%TD.AperFunction*%
%TO.P,C6,2*%
%TO.N,GND*%
%TA.AperFunction,SMDPad,CuDef*%
G36*
G01*
X113634500Y-111761000D02*
X113289500Y-111761000D01*
G75*
G02*
X113142000Y-111613500I0J147500D01*
G01*
X113142000Y-111318500D01*
G75*
G02*
X113289500Y-111171000I147500J0D01*
G01*
X113634500Y-111171000D01*
G75*
G02*
X113782000Y-111318500I0J-147500D01*
G01*
X113782000Y-111613500D01*
G75*
G02*
X113634500Y-111761000I-147500J0D01*
G01*
G37*
%TD.AperFunction*%
%TD*%
D17*
%TO.P,D1,2*%
%TO.N,Net-(D1-Pad2)*%
X108905000Y-111702000D03*
%TO.P,D1,1*%
%TO.N,+5V*%
X108905000Y-110302000D03*
%TD*%
%TO.P,C14,2*%
%TO.N,GND*%
%TA.AperFunction,SMDPad,CuDef*%
G36*
G01*
X113273500Y-117127000D02*
X113618500Y-117127000D01*
G75*
G02*
X113766000Y-117274500I0J-147500D01*
G01*
X113766000Y-117569500D01*
G75*
G02*
X113618500Y-117717000I-147500J0D01*
G01*
X113273500Y-117717000D01*
G75*
G02*
X113126000Y-117569500I0J147500D01*
G01*
X113126000Y-117274500D01*
G75*
G02*
X113273500Y-117127000I147500J0D01*
G01*
G37*
%TD.AperFunction*%
%TO.P,C14,1*%
%TO.N,/VCAP_1*%
%TA.AperFunction,SMDPad,CuDef*%
G36*
G01*
X113273500Y-116157000D02*
X113618500Y-116157000D01*
G75*
G02*
X113766000Y-116304500I0J-147500D01*
G01*
X113766000Y-116599500D01*
G75*
G02*
X113618500Y-116747000I-147500J0D01*
G01*
X113273500Y-116747000D01*
G75*
G02*
X113126000Y-116599500I0J147500D01*
G01*
X113126000Y-116304500D01*
G75*
G02*
X113273500Y-116157000I147500J0D01*
G01*
G37*
%TD.AperFunction*%
%TD*%
D19*
%TO.P,U5,5*%
%TO.N,+3V3*%
X103859000Y-112625000D03*
%TO.P,U5,4*%
%TO.N,/BOOT0*%
X103859000Y-113925000D03*
%TO.P,U5,2*%
%TO.N,Net-(C12-Pad1)*%
X101959000Y-113275000D03*
%TO.P,U5,3*%
%TO.N,GND*%
X101959000Y-113925000D03*
%TO.P,U5,1*%
%TO.N,Net-(U5-Pad1)*%
X101959000Y-112625000D03*
%TD*%
%TO.P,R7,2*%
%TO.N,Net-(D2-Pad+)*%
%TA.AperFunction,SMDPad,CuDef*%
G36*
G01*
X112122000Y-128487500D02*
X112122000Y-128142500D01*
G75*
G02*
X112269500Y-127995000I147500J0D01*
G01*
X112564500Y-127995000D01*
G75*
G02*
X112712000Y-128142500I0J-147500D01*
G01*
X112712000Y-128487500D01*
G75*
G02*
X112564500Y-128635000I-147500J0D01*
G01*
X112269500Y-128635000D01*
G75*
G02*
X112122000Y-128487500I0J147500D01*
G01*
G37*
%TD.AperFunction*%
%TO.P,R7,1*%
%TO.N,/SwitchPin*%
%TA.AperFunction,SMDPad,CuDef*%
G36*
G01*
X111152000Y-128487500D02*
X111152000Y-128142500D01*
G75*
G02*
X111299500Y-127995000I147500J0D01*
G01*
X111594500Y-127995000D01*
G75*
G02*
X111742000Y-128142500I0J-147500D01*
G01*
X111742000Y-128487500D01*
G75*
G02*
X111594500Y-128635000I-147500J0D01*
G01*
X111299500Y-128635000D01*
G75*
G02*
X111152000Y-128487500I0J147500D01*
G01*
G37*
%TD.AperFunction*%
%TD*%
%TO.P,R6,2*%
%TO.N,GND*%
%TA.AperFunction,SMDPad,CuDef*%
G36*
G01*
X112182000Y-112580500D02*
X112182000Y-112235500D01*
G75*
G02*
X112329500Y-112088000I147500J0D01*
G01*
X112624500Y-112088000D01*
G75*
G02*
X112772000Y-112235500I0J-147500D01*
G01*
X112772000Y-112580500D01*
G75*
G02*
X112624500Y-112728000I-147500J0D01*
G01*
X112329500Y-112728000D01*
G75*
G02*
X112182000Y-112580500I0J147500D01*
G01*
G37*
%TD.AperFunction*%
%TO.P,R6,1*%
%TO.N,/VBUS_DET*%
%TA.AperFunction,SMDPad,CuDef*%
G36*
G01*
X111212000Y-112580500D02*
X111212000Y-112235500D01*
G75*
G02*
X111359500Y-112088000I147500J0D01*
G01*
X111654500Y-112088000D01*
G75*
G02*
X111802000Y-112235500I0J-147500D01*
G01*
X111802000Y-112580500D01*
G75*
G02*
X111654500Y-112728000I-147500J0D01*
G01*
X111359500Y-112728000D01*
G75*
G02*
X111212000Y-112580500I0J147500D01*
G01*
G37*
%TD.AperFunction*%
%TD*%
%TO.P,R5,2*%
%TO.N,/VBUS_DET*%
%TA.AperFunction,SMDPad,CuDef*%
G36*
G01*
X111799000Y-111277500D02*
X111799000Y-111622500D01*
G75*
G02*
X111651500Y-111770000I-147500J0D01*
G01*
X111356500Y-111770000D01*
G75*
G02*
X111209000Y-111622500I0J147500D01*
G01*
X111209000Y-111277500D01*
G75*
G02*
X111356500Y-111130000I147500J0D01*
G01*
X111651500Y-111130000D01*
G75*
G02*
X111799000Y-111277500I0J-147500D01*
G01*
G37*
%TD.AperFunction*%
%TO.P,R5,1*%
%TO.N,VBUS*%
%TA.AperFunction,SMDPad,CuDef*%
G36*
G01*
X112769000Y-111277500D02*
X112769000Y-111622500D01*
G75*
G02*
X112621500Y-111770000I-147500J0D01*
G01*
X112326500Y-111770000D01*
G75*
G02*
X112179000Y-111622500I0J147500D01*
G01*
X112179000Y-111277500D01*
G75*
G02*
X112326500Y-111130000I147500J0D01*
G01*
X112621500Y-111130000D01*
G75*
G02*
X112769000Y-111277500I0J-147500D01*
G01*
G37*
%TD.AperFunction*%
%TD*%
D20*
%TO.P,Q2,6*%
%TO.N,Net-(Q2-Pad6)*%
X101982000Y-116967000D03*
%TO.P,Q2,4*%
%TO.N,Net-(D3-Pad-)*%
X101982000Y-115667000D03*
%TO.P,Q2,2*%
%TO.N,/BOOT0*%
X103822000Y-116317000D03*
%TO.P,Q2,5*%
%TO.N,/B2*%
X101982000Y-116317000D03*
%TO.P,Q2,3*%
%TO.N,GND*%
X103822000Y-115667000D03*
%TO.P,Q2,1*%
X103822000Y-116967000D03*
%TD*%
%TO.P,C13,2*%
%TO.N,GND*%
%TA.AperFunction,SMDPad,CuDef*%
G36*
G01*
X106982000Y-132962500D02*
X106982000Y-132617500D01*
G75*
G02*
X107129500Y-132470000I147500J0D01*
G01*
X107424500Y-132470000D01*
G75*
G02*
X107572000Y-132617500I0J-147500D01*
G01*
X107572000Y-132962500D01*
G75*
G02*
X107424500Y-133110000I-147500J0D01*
G01*
X107129500Y-133110000D01*
G75*
G02*
X106982000Y-132962500I0J147500D01*
G01*
G37*
%TD.AperFunction*%
%TO.P,C13,1*%
%TO.N,+3V3*%
%TA.AperFunction,SMDPad,CuDef*%
G36*
G01*
X106012000Y-132962500D02*
X106012000Y-132617500D01*
G75*
G02*
X106159500Y-132470000I147500J0D01*
G01*
X106454500Y-132470000D01*
G75*
G02*
X106602000Y-132617500I0J-147500D01*
G01*
X106602000Y-132962500D01*
G75*
G02*
X106454500Y-133110000I-147500J0D01*
G01*
X106159500Y-133110000D01*
G75*
G02*
X106012000Y-132962500I0J147500D01*
G01*
G37*
%TD.AperFunction*%
%TD*%
%TO.P,C5,2*%
%TO.N,GND*%
%TA.AperFunction,SMDPad,CuDef*%
G36*
G01*
X107236000Y-145097500D02*
X107236000Y-144752500D01*
G75*
G02*
X107383500Y-144605000I147500J0D01*
G01*
X107678500Y-144605000D01*
G75*
G02*
X107826000Y-144752500I0J-147500D01*
G01*
X107826000Y-145097500D01*
G75*
G02*
X107678500Y-145245000I-147500J0D01*
G01*
X107383500Y-145245000D01*
G75*
G02*
X107236000Y-145097500I0J147500D01*
G01*
G37*
%TD.AperFunction*%
%TO.P,C5,1*%
%TO.N,+3V3*%
%TA.AperFunction,SMDPad,CuDef*%
G36*
G01*
X106266000Y-145097500D02*
X106266000Y-144752500D01*
G75*
G02*
X106413500Y-144605000I147500J0D01*
G01*
X106708500Y-144605000D01*
G75*
G02*
X106856000Y-144752500I0J-147500D01*
G01*
X106856000Y-145097500D01*
G75*
G02*
X106708500Y-145245000I-147500J0D01*
G01*
X106413500Y-145245000D01*
G75*
G02*
X106266000Y-145097500I0J147500D01*
G01*
G37*
%TD.AperFunction*%
%TD*%
D21*
%TO.P,D2,+*%
%TO.N,Net-(D2-Pad+)*%
X111300000Y-127145000D03*
%TO.P,D2,-*%
%TO.N,Net-(C12-Pad1)*%
X112700000Y-127145000D03*
%TD*%
D22*
%TO.P,U1,5*%
%TO.N,+3V3*%
X113132000Y-108205000D03*
%TO.P,U1,4*%
%TO.N,Net-(U1-Pad4)*%
X113132000Y-110105000D03*
%TO.P,U1,3*%
%TO.N,+5V*%
X110932000Y-110105000D03*
%TO.P,U1,2*%
%TO.N,GND*%
X110932000Y-109155000D03*
%TO.P,U1,1*%
%TO.N,+5V*%
X110932000Y-108205000D03*
%TD*%
D19*
%TO.P,U4,5*%
%TO.N,+5V*%
X107519000Y-109524000D03*
%TO.P,U4,4*%
%TO.N,/A10_5V*%
X107519000Y-110824000D03*
%TO.P,U4,2*%
%TO.N,/A10*%
X105619000Y-110174000D03*
%TO.P,U4,3*%
%TO.N,GND*%
X105619000Y-110824000D03*
%TO.P,U4,1*%
%TO.N,Net-(U4-Pad1)*%
X105619000Y-109524000D03*
%TD*%
D20*
%TO.P,Q1,6*%
%TO.N,/NRST*%
X113272000Y-124390000D03*
%TO.P,Q1,4*%
%TO.N,+3V3*%
X113272000Y-125690000D03*
%TO.P,Q1,2*%
%TO.N,/SwitchPin*%
X111432000Y-125040000D03*
%TO.P,Q1,5*%
%TO.N,/DFU*%
X113272000Y-125040000D03*
%TO.P,Q1,3*%
%TO.N,/SwitchPin*%
X111432000Y-125690000D03*
%TO.P,Q1,1*%
%TO.N,GND*%
X111432000Y-124390000D03*
%TD*%
%TO.P,C2,2*%
%TO.N,GND*%
%TA.AperFunction,SMDPad,CuDef*%
G36*
G01*
X113274500Y-115252000D02*
X113619500Y-115252000D01*
G75*
G02*
X113767000Y-115399500I0J-147500D01*
G01*
X113767000Y-115694500D01*
G75*
G02*
X113619500Y-115842000I-147500J0D01*
G01*
X113274500Y-115842000D01*
G75*
G02*
X113127000Y-115694500I0J147500D01*
G01*
X113127000Y-115399500D01*
G75*
G02*
X113274500Y-115252000I147500J0D01*
G01*
G37*
%TD.AperFunction*%
%TO.P,C2,1*%
%TO.N,+3V3*%
%TA.AperFunction,SMDPad,CuDef*%
G36*
G01*
X113274500Y-114282000D02*
X113619500Y-114282000D01*
G75*
G02*
X113767000Y-114429500I0J-147500D01*
G01*
X113767000Y-114724500D01*
G75*
G02*
X113619500Y-114872000I-147500J0D01*
G01*
X113274500Y-114872000D01*
G75*
G02*
X113127000Y-114724500I0J147500D01*
G01*
X113127000Y-114429500D01*
G75*
G02*
X113274500Y-114282000I147500J0D01*
G01*
G37*
%TD.AperFunction*%
%TD*%
%TO.P,D3,+*%
%TO.N,Net-(D3-Pad+)*%
%TA.AperFunction,SMDPad,CuDef*%
G36*
G01*
X102327500Y-124541000D02*
X101982500Y-124541000D01*
G75*
G02*
X101835000Y-124393500I0J147500D01*
G01*
X101835000Y-124098500D01*
G75*
G02*
X101982500Y-123951000I147500J0D01*
G01*
X102327500Y-123951000D01*
G75*
G02*
X102475000Y-124098500I0J-147500D01*
G01*
X102475000Y-124393500D01*
G75*
G02*
X102327500Y-124541000I-147500J0D01*
G01*
G37*
%TD.AperFunction*%
%TO.P,D3,-*%
%TO.N,Net-(D3-Pad-)*%
%TA.AperFunction,SMDPad,CuDef*%
G36*
G01*
X102327500Y-125511000D02*
X101982500Y-125511000D01*
G75*
G02*
X101835000Y-125363500I0J147500D01*
G01*
X101835000Y-125068500D01*
G75*
G02*
X101982500Y-124921000I147500J0D01*
G01*
X102327500Y-124921000D01*
G75*
G02*
X102475000Y-125068500I0J-147500D01*
G01*
X102475000Y-125363500D01*
G75*
G02*
X102327500Y-125511000I-147500J0D01*
G01*
G37*
%TD.AperFunction*%
%TD*%
D23*
%TO.P,Y1,2*%
%TO.N,/F1*%
X109668000Y-124880000D03*
%TO.P,Y1,1*%
%TO.N,/F0*%
X105350000Y-124880000D03*
%TD*%
%TO.P,C3,2*%
%TO.N,GND*%
%TA.AperFunction,SMDPad,CuDef*%
G36*
G01*
X111046000Y-122797500D02*
X111046000Y-122452500D01*
G75*
G02*
X111193500Y-122305000I147500J0D01*
G01*
X111488500Y-122305000D01*
G75*
G02*
X111636000Y-122452500I0J-147500D01*
G01*
X111636000Y-122797500D01*
G75*
G02*
X111488500Y-122945000I-147500J0D01*
G01*
X111193500Y-122945000D01*
G75*
G02*
X111046000Y-122797500I0J147500D01*
G01*
G37*
%TD.AperFunction*%
%TO.P,C3,1*%
%TO.N,+3V3*%
%TA.AperFunction,SMDPad,CuDef*%
G36*
G01*
X110076000Y-122797500D02*
X110076000Y-122452500D01*
G75*
G02*
X110223500Y-122305000I147500J0D01*
G01*
X110518500Y-122305000D01*
G75*
G02*
X110666000Y-122452500I0J-147500D01*
G01*
X110666000Y-122797500D01*
G75*
G02*
X110518500Y-122945000I-147500J0D01*
G01*
X110223500Y-122945000D01*
G75*
G02*
X110076000Y-122797500I0J147500D01*
G01*
G37*
%TD.AperFunction*%
%TD*%
%TO.P,C12,2*%
%TO.N,GND*%
%TA.AperFunction,SMDPad,CuDef*%
G36*
G01*
X113185500Y-99787000D02*
X113530500Y-99787000D01*
G75*
G02*
X113678000Y-99934500I0J-147500D01*
G01*
X113678000Y-100229500D01*
G75*
G02*
X113530500Y-100377000I-147500J0D01*
G01*
X113185500Y-100377000D01*
G75*
G02*
X113038000Y-100229500I0J147500D01*
G01*
X113038000Y-99934500D01*
G75*
G02*
X113185500Y-99787000I147500J0D01*
G01*
G37*
%TD.AperFunction*%
%TO.P,C12,1*%
%TO.N,Net-(C12-Pad1)*%
%TA.AperFunction,SMDPad,CuDef*%
G36*
G01*
X113185500Y-98817000D02*
X113530500Y-98817000D01*
G75*
G02*
X113678000Y-98964500I0J-147500D01*
G01*
X113678000Y-99259500D01*
G75*
G02*
X113530500Y-99407000I-147500J0D01*
G01*
X113185500Y-99407000D01*
G75*
G02*
X113038000Y-99259500I0J147500D01*
G01*
X113038000Y-98964500D01*
G75*
G02*
X113185500Y-98817000I147500J0D01*
G01*
G37*
%TD.AperFunction*%
%TD*%
%TO.P,FB1,2*%
%TO.N,GND*%
%TA.AperFunction,SMDPad,CuDef*%
G36*
G01*
X101648500Y-99840000D02*
X101993500Y-99840000D01*
G75*
G02*
X102141000Y-99987500I0J-147500D01*
G01*
X102141000Y-100282500D01*
G75*
G02*
X101993500Y-100430000I-147500J0D01*
G01*
X101648500Y-100430000D01*
G75*
G02*
X101501000Y-100282500I0J147500D01*
G01*
X101501000Y-99987500D01*
G75*
G02*
X101648500Y-99840000I147500J0D01*
G01*
G37*
%TD.AperFunction*%
%TO.P,FB1,1*%
%TO.N,Net-(FB1-Pad1)*%
%TA.AperFunction,SMDPad,CuDef*%
G36*
G01*
X101648500Y-98870000D02*
X101993500Y-98870000D01*
G75*
G02*
X102141000Y-99017500I0J-147500D01*
G01*
X102141000Y-99312500D01*
G75*
G02*
X101993500Y-99460000I-147500J0D01*
G01*
X101648500Y-99460000D01*
G75*
G02*
X101501000Y-99312500I0J147500D01*
G01*
X101501000Y-99017500D01*
G75*
G02*
X101648500Y-98870000I147500J0D01*
G01*
G37*
%TD.AperFunction*%
%TD*%
%TO.P,R4,2*%
%TO.N,Net-(D3-Pad+)*%
%TA.AperFunction,SMDPad,CuDef*%
G36*
G01*
X102938500Y-124921000D02*
X103283500Y-124921000D01*
G75*
G02*
X103431000Y-125068500I0J-147500D01*
G01*
X103431000Y-125363500D01*
G75*
G02*
X103283500Y-125511000I-147500J0D01*
G01*
X102938500Y-125511000D01*
G75*
G02*
X102791000Y-125363500I0J147500D01*
G01*
X102791000Y-125068500D01*
G75*
G02*
X102938500Y-124921000I147500J0D01*
G01*
G37*
%TD.AperFunction*%
%TO.P,R4,1*%
%TO.N,+3V3*%
%TA.AperFunction,SMDPad,CuDef*%
G36*
G01*
X102938500Y-123951000D02*
X103283500Y-123951000D01*
G75*
G02*
X103431000Y-124098500I0J-147500D01*
G01*
X103431000Y-124393500D01*
G75*
G02*
X103283500Y-124541000I-147500J0D01*
G01*
X102938500Y-124541000D01*
G75*
G02*
X102791000Y-124393500I0J147500D01*
G01*
X102791000Y-124098500D01*
G75*
G02*
X102938500Y-123951000I147500J0D01*
G01*
G37*
%TD.AperFunction*%
%TD*%
%TO.P,R3,2*%
%TO.N,Net-(J3-PadB5)*%
%TA.AperFunction,SMDPad,CuDef*%
G36*
G01*
X101993500Y-101374000D02*
X101648500Y-101374000D01*
G75*
G02*
X101501000Y-101226500I0J147500D01*
G01*
X101501000Y-100931500D01*
G75*
G02*
X101648500Y-100784000I147500J0D01*
G01*
X101993500Y-100784000D01*
G75*
G02*
X102141000Y-100931500I0J-147500D01*
G01*
X102141000Y-101226500D01*
G75*
G02*
X101993500Y-101374000I-147500J0D01*
G01*
G37*
%TD.AperFunction*%
%TO.P,R3,1*%
%TO.N,GND*%
%TA.AperFunction,SMDPad,CuDef*%
G36*
G01*
X101993500Y-102344000D02*
X101648500Y-102344000D01*
G75*
G02*
X101501000Y-102196500I0J147500D01*
G01*
X101501000Y-101901500D01*
G75*
G02*
X101648500Y-101754000I147500J0D01*
G01*
X101993500Y-101754000D01*
G75*
G02*
X102141000Y-101901500I0J-147500D01*
G01*
X102141000Y-102196500D01*
G75*
G02*
X101993500Y-102344000I-147500J0D01*
G01*
G37*
%TD.AperFunction*%
%TD*%
%TO.P,R2,2*%
%TO.N,GND*%
%TA.AperFunction,SMDPad,CuDef*%
G36*
G01*
X113179500Y-101765000D02*
X113524500Y-101765000D01*
G75*
G02*
X113672000Y-101912500I0J-147500D01*
G01*
X113672000Y-102207500D01*
G75*
G02*
X113524500Y-102355000I-147500J0D01*
G01*
X113179500Y-102355000D01*
G75*
G02*
X113032000Y-102207500I0J147500D01*
G01*
X113032000Y-101912500D01*
G75*
G02*
X113179500Y-101765000I147500J0D01*
G01*
G37*
%TD.AperFunction*%
%TO.P,R2,1*%
%TO.N,Net-(J3-PadA5)*%
%TA.AperFunction,SMDPad,CuDef*%
G36*
G01*
X113179500Y-100795000D02*
X113524500Y-100795000D01*
G75*
G02*
X113672000Y-100942500I0J-147500D01*
G01*
X113672000Y-101237500D01*
G75*
G02*
X113524500Y-101385000I-147500J0D01*
G01*
X113179500Y-101385000D01*
G75*
G02*
X113032000Y-101237500I0J147500D01*
G01*
X113032000Y-100942500D01*
G75*
G02*
X113179500Y-100795000I147500J0D01*
G01*
G37*
%TD.AperFunction*%
%TD*%
%TO.P,R1,2*%
%TO.N,GND*%
%TA.AperFunction,SMDPad,CuDef*%
G36*
G01*
X101593500Y-118961000D02*
X101938500Y-118961000D01*
G75*
G02*
X102086000Y-119108500I0J-147500D01*
G01*
X102086000Y-119403500D01*
G75*
G02*
X101938500Y-119551000I-147500J0D01*
G01*
X101593500Y-119551000D01*
G75*
G02*
X101446000Y-119403500I0J147500D01*
G01*
X101446000Y-119108500D01*
G75*
G02*
X101593500Y-118961000I147500J0D01*
G01*
G37*
%TD.AperFunction*%
%TO.P,R1,1*%
%TO.N,Net-(C12-Pad1)*%
%TA.AperFunction,SMDPad,CuDef*%
G36*
G01*
X101593500Y-117991000D02*
X101938500Y-117991000D01*
G75*
G02*
X102086000Y-118138500I0J-147500D01*
G01*
X102086000Y-118433500D01*
G75*
G02*
X101938500Y-118581000I-147500J0D01*
G01*
X101593500Y-118581000D01*
G75*
G02*
X101446000Y-118433500I0J147500D01*
G01*
X101446000Y-118138500D01*
G75*
G02*
X101593500Y-117991000I147500J0D01*
G01*
G37*
%TD.AperFunction*%
%TD*%
%TO.P,C9,2*%
%TO.N,GND*%
%TA.AperFunction,SMDPad,CuDef*%
G36*
G01*
X109143000Y-122797500D02*
X109143000Y-122452500D01*
G75*
G02*
X109290500Y-122305000I147500J0D01*
G01*
X109585500Y-122305000D01*
G75*
G02*
X109733000Y-122452500I0J-147500D01*
G01*
X109733000Y-122797500D01*
G75*
G02*
X109585500Y-122945000I-147500J0D01*
G01*
X109290500Y-122945000D01*
G75*
G02*
X109143000Y-122797500I0J147500D01*
G01*
G37*
%TD.AperFunction*%
%TO.P,C9,1*%
%TO.N,/F1*%
%TA.AperFunction,SMDPad,CuDef*%
G36*
G01*
X108173000Y-122797500D02*
X108173000Y-122452500D01*
G75*
G02*
X108320500Y-122305000I147500J0D01*
G01*
X108615500Y-122305000D01*
G75*
G02*
X108763000Y-122452500I0J-147500D01*
G01*
X108763000Y-122797500D01*
G75*
G02*
X108615500Y-122945000I-147500J0D01*
G01*
X108320500Y-122945000D01*
G75*
G02*
X108173000Y-122797500I0J147500D01*
G01*
G37*
%TD.AperFunction*%
%TD*%
%TO.P,C8,2*%
%TO.N,GND*%
%TA.AperFunction,SMDPad,CuDef*%
G36*
G01*
X106793000Y-122441500D02*
X106793000Y-122786500D01*
G75*
G02*
X106645500Y-122934000I-147500J0D01*
G01*
X106350500Y-122934000D01*
G75*
G02*
X106203000Y-122786500I0J147500D01*
G01*
X106203000Y-122441500D01*
G75*
G02*
X106350500Y-122294000I147500J0D01*
G01*
X106645500Y-122294000D01*
G75*
G02*
X106793000Y-122441500I0J-147500D01*
G01*
G37*
%TD.AperFunction*%
%TO.P,C8,1*%
%TO.N,/F0*%
%TA.AperFunction,SMDPad,CuDef*%
G36*
G01*
X107763000Y-122441500D02*
X107763000Y-122786500D01*
G75*
G02*
X107615500Y-122934000I-147500J0D01*
G01*
X107320500Y-122934000D01*
G75*
G02*
X107173000Y-122786500I0J147500D01*
G01*
X107173000Y-122441500D01*
G75*
G02*
X107320500Y-122294000I147500J0D01*
G01*
X107615500Y-122294000D01*
G75*
G02*
X107763000Y-122441500I0J-147500D01*
G01*
G37*
%TD.AperFunction*%
%TD*%
%TO.P,C7,2*%
%TO.N,GND*%
%TA.AperFunction,SMDPad,CuDef*%
G36*
G01*
X112732000Y-122977500D02*
X112732000Y-123322500D01*
G75*
G02*
X112584500Y-123470000I-147500J0D01*
G01*
X112289500Y-123470000D01*
G75*
G02*
X112142000Y-123322500I0J147500D01*
G01*
X112142000Y-122977500D01*
G75*
G02*
X112289500Y-122830000I147500J0D01*
G01*
X112584500Y-122830000D01*
G75*
G02*
X112732000Y-122977500I0J-147500D01*
G01*
G37*
%TD.AperFunction*%
%TO.P,C7,1*%
%TO.N,/NRST*%
%TA.AperFunction,SMDPad,CuDef*%
G36*
G01*
X113702000Y-122977500D02*
X113702000Y-123322500D01*
G75*
G02*
X113554500Y-123470000I-147500J0D01*
G01*
X113259500Y-123470000D01*
G75*
G02*
X113112000Y-123322500I0J147500D01*
G01*
X113112000Y-122977500D01*
G75*
G02*
X113259500Y-122830000I147500J0D01*
G01*
X113554500Y-122830000D01*
G75*
G02*
X113702000Y-122977500I0J-147500D01*
G01*
G37*
%TD.AperFunction*%
%TD*%
%TO.P,C4,2*%
%TO.N,GND*%
%TA.AperFunction,SMDPad,CuDef*%
G36*
G01*
X104265500Y-120618000D02*
X103920500Y-120618000D01*
G75*
G02*
X103773000Y-120470500I0J147500D01*
G01*
X103773000Y-120175500D01*
G75*
G02*
X103920500Y-120028000I147500J0D01*
G01*
X104265500Y-120028000D01*
G75*
G02*
X104413000Y-120175500I0J-147500D01*
G01*
X104413000Y-120470500D01*
G75*
G02*
X104265500Y-120618000I-147500J0D01*
G01*
G37*
%TD.AperFunction*%
%TO.P,C4,1*%
%TO.N,+3V3*%
%TA.AperFunction,SMDPad,CuDef*%
G36*
G01*
X104265500Y-121588000D02*
X103920500Y-121588000D01*
G75*
G02*
X103773000Y-121440500I0J147500D01*
G01*
X103773000Y-121145500D01*
G75*
G02*
X103920500Y-120998000I147500J0D01*
G01*
X104265500Y-120998000D01*
G75*
G02*
X104413000Y-121145500I0J-147500D01*
G01*
X104413000Y-121440500D01*
G75*
G02*
X104265500Y-121588000I-147500J0D01*
G01*
G37*
%TD.AperFunction*%
%TD*%
%TO.P,C1,2*%
%TO.N,GND*%
%TA.AperFunction,SMDPad,CuDef*%
G36*
G01*
X105697000Y-113399500D02*
X105697000Y-113054500D01*
G75*
G02*
X105844500Y-112907000I147500J0D01*
G01*
X106139500Y-112907000D01*
G75*
G02*
X106287000Y-113054500I0J-147500D01*
G01*
X106287000Y-113399500D01*
G75*
G02*
X106139500Y-113547000I-147500J0D01*
G01*
X105844500Y-113547000D01*
G75*
G02*
X105697000Y-113399500I0J147500D01*
G01*
G37*
%TD.AperFunction*%
%TO.P,C1,1*%
%TO.N,+3V3*%
%TA.AperFunction,SMDPad,CuDef*%
G36*
G01*
X104727000Y-113399500D02*
X104727000Y-113054500D01*
G75*
G02*
X104874500Y-112907000I147500J0D01*
G01*
X105169500Y-112907000D01*
G75*
G02*
X105317000Y-113054500I0J-147500D01*
G01*
X105317000Y-113399500D01*
G75*
G02*
X105169500Y-113547000I-147500J0D01*
G01*
X104874500Y-113547000D01*
G75*
G02*
X104727000Y-113399500I0J147500D01*
G01*
G37*
%TD.AperFunction*%
%TD*%
D24*
%TO.P,F1,2*%
%TO.N,VBUS*%
X110313000Y-104313000D03*
%TO.P,F1,1*%
%TO.N,Net-(D1-Pad2)*%
X110313000Y-106513000D03*
%TD*%
%TO.P,C10,2*%
%TO.N,GND*%
%TA.AperFunction,SMDPad,CuDef*%
G36*
G01*
X108961000Y-109081500D02*
X108961000Y-109426500D01*
G75*
G02*
X108813500Y-109574000I-147500J0D01*
G01*
X108518500Y-109574000D01*
G75*
G02*
X108371000Y-109426500I0J147500D01*
G01*
X108371000Y-109081500D01*
G75*
G02*
X108518500Y-108934000I147500J0D01*
G01*
X108813500Y-108934000D01*
G75*
G02*
X108961000Y-109081500I0J-147500D01*
G01*
G37*
%TD.AperFunction*%
%TO.P,C10,1*%
%TO.N,+5V*%
%TA.AperFunction,SMDPad,CuDef*%
G36*
G01*
X109931000Y-109081500D02*
X109931000Y-109426500D01*
G75*
G02*
X109783500Y-109574000I-147500J0D01*
G01*
X109488500Y-109574000D01*
G75*
G02*
X109341000Y-109426500I0J147500D01*
G01*
X109341000Y-109081500D01*
G75*
G02*
X109488500Y-108934000I147500J0D01*
G01*
X109783500Y-108934000D01*
G75*
G02*
X109931000Y-109081500I0J-147500D01*
G01*
G37*
%TD.AperFunction*%
%TD*%
D25*
%TO.N,GND*%
X113463000Y-111466000D03*
X101821000Y-102049000D03*
X113358000Y-100082000D03*
D26*
X106364000Y-106197000D03*
D27*
X108654000Y-144953000D03*
D25*
X109438000Y-122625000D03*
X111341000Y-122625000D03*
X109468000Y-121056000D03*
X105992000Y-113227000D03*
X105619000Y-110824000D03*
D27*
X106483000Y-137914000D03*
X109675000Y-139714000D03*
D25*
X107277000Y-132790000D03*
D27*
X102681784Y-108250856D03*
X113878955Y-110795454D03*
X114199761Y-116483619D03*
D25*
X111432000Y-124390000D03*
X101959000Y-113925000D03*
X113356000Y-102029000D03*
X111973168Y-115634990D03*
X103994000Y-116978000D03*
X112426990Y-123150000D03*
D27*
X103394958Y-114962490D03*
D25*
X106496761Y-122615239D03*
X106825000Y-124136000D03*
X108213000Y-124113000D03*
X106858000Y-125479000D03*
X108213000Y-125524000D03*
X105275000Y-126524000D03*
X105239000Y-128442000D03*
X109875000Y-127707000D03*
X111435000Y-126192000D03*
X104809000Y-106488000D03*
X103545000Y-106066000D03*
X107109000Y-107421000D03*
X110870000Y-102605000D03*
X104370000Y-102688000D03*
X105255000Y-127593000D03*
D26*
X103665309Y-103763691D03*
D25*
X102383010Y-111367990D03*
X101833019Y-100268916D03*
X104116202Y-120346202D03*
D27*
X101777172Y-119875929D03*
D26*
X112051988Y-109880000D03*
%TO.N,+5V*%
X114373000Y-98687000D03*
X111870000Y-107200000D03*
D25*
%TO.N,+3V3*%
X113317000Y-125676000D03*
D27*
X110400000Y-123368000D03*
X109663000Y-126436002D03*
X106593000Y-131745000D03*
X106602000Y-143945000D03*
D25*
X108241000Y-112829000D03*
D26*
X112636133Y-113460933D03*
D27*
X105398000Y-122757000D03*
D25*
X103353000Y-111368000D03*
D26*
X112058119Y-108629149D03*
%TO.N,Net-(D1-Pad2)*%
X110430000Y-105467000D03*
X107981753Y-111607985D03*
D27*
%TO.N,VBUS*%
X109730000Y-107692000D03*
X110226356Y-110817020D03*
D25*
%TO.N,/A3*%
X112260066Y-121871066D03*
%TO.N,Net-(J3-PadA5)*%
X113352000Y-101090000D03*
X108870000Y-102225000D03*
%TO.N,Net-(J3-PadB5)*%
X105870000Y-102225000D03*
X101821000Y-101079000D03*
%TO.N,/NRST*%
X108972000Y-121585000D03*
X111323000Y-123332000D03*
D27*
X112202000Y-130748000D03*
X112186000Y-132581490D03*
D25*
%TO.N,/BOOT0*%
X105589000Y-118638000D03*
X103626000Y-116315000D03*
%TO.N,/B0*%
X112402000Y-118140000D03*
D27*
X103415880Y-126638750D03*
D25*
%TO.N,/B1*%
X111899000Y-117640000D03*
%TO.N,/B2*%
X112405000Y-117141000D03*
X113443637Y-120733363D03*
X113611000Y-118916000D03*
X102160000Y-116314000D03*
X101521058Y-114763337D03*
%TO.N,/B7*%
X104989000Y-118140000D03*
X101480000Y-102910000D03*
X102350000Y-102670000D03*
X102520000Y-98990000D03*
D27*
X101112532Y-108642532D03*
D25*
%TO.N,/B6*%
X105574000Y-117640000D03*
X104090000Y-118400000D03*
D27*
X103155450Y-120790457D03*
D25*
X100964479Y-109410733D03*
X100964479Y-111371081D03*
%TO.N,/A10*%
X109158000Y-112750000D03*
D28*
X106434000Y-110176000D03*
D25*
%TO.N,/B13*%
X110971000Y-114706000D03*
%TO.N,/B9*%
X100565263Y-111396313D03*
%TO.N,/B15*%
X109971000Y-114705000D03*
%TO.N,/B8*%
X104992000Y-119139000D03*
%TO.N,/B14*%
X110471000Y-114180000D03*
%TO.N,/A2*%
X111471000Y-121507000D03*
D27*
X113617000Y-135508000D03*
D25*
X103703490Y-121983000D03*
%TO.N,/DFU*%
X113272000Y-125040000D03*
D28*
X114756000Y-114041000D03*
X113623451Y-113358549D03*
D25*
X114710243Y-119068635D03*
D27*
%TO.N,/A14*%
X101061567Y-126156653D03*
X113219000Y-136957000D03*
D25*
X105001490Y-115140000D03*
%TO.N,/A13*%
X106972000Y-114452500D03*
D27*
X112576008Y-131812000D03*
D25*
%TO.N,/B10*%
X111908000Y-116640000D03*
X100956000Y-116573000D03*
X104480000Y-113880000D03*
%TO.N,/A15*%
X105593262Y-115638824D03*
D27*
X101822000Y-97440000D03*
D25*
%TO.N,/C13*%
X106472000Y-121621000D03*
D27*
X104990510Y-130885000D03*
D25*
%TO.N,/C14*%
X106971000Y-121135510D03*
D27*
X103707490Y-124758000D03*
X104990510Y-131539929D03*
D25*
%TO.N,/C15*%
X107471000Y-121595000D03*
D27*
X103237511Y-126065876D03*
%TO.N,Net-(C12-Pad1)*%
X113359000Y-98304000D03*
X112025002Y-127168000D03*
X101081133Y-98877986D03*
X102841490Y-117148510D03*
X102911515Y-118302532D03*
D25*
%TO.N,/VBUS_DET*%
X111507000Y-112408000D03*
%TO.N,Net-(D3-Pad-)*%
X101504969Y-122852294D03*
X101798069Y-115659441D03*
D27*
%TO.N,Net-(D5-Pad1)*%
X103522000Y-108291000D03*
X105107000Y-108774000D03*
D25*
X110330000Y-112930000D03*
D27*
%TO.N,/A10_5V*%
X109565743Y-110891954D03*
D25*
%TO.N,/A8*%
X109471000Y-114209000D03*
X101820000Y-120390000D03*
%TO.N,/A4*%
X111969000Y-120139000D03*
%TO.N,/A6*%
X113506000Y-118201000D03*
%TO.N,/A7*%
X111914000Y-118641000D03*
%TO.N,/A0_FRAM_CS*%
X110474000Y-121639000D03*
X104841000Y-121266000D03*
D27*
X103589379Y-127666977D03*
D25*
%TO.N,/B3_SCK*%
X104996807Y-116149244D03*
D27*
X101254000Y-127582000D03*
D25*
X110245000Y-136635000D03*
D27*
X101442000Y-139874000D03*
%TO.N,/B4_MISO*%
X103463000Y-135365000D03*
D25*
X105565000Y-116640000D03*
D27*
X102811000Y-128555000D03*
X103398490Y-131414808D03*
X107067000Y-139194000D03*
%TO.N,/B12_FLASH_CS*%
X114208000Y-128781000D03*
X112692000Y-114284000D03*
D25*
%TO.N,/B5_MOSI*%
X104994000Y-117140000D03*
D27*
X109040500Y-137995500D03*
X103103000Y-122524000D03*
X102738000Y-127254000D03*
X101509000Y-132132000D03*
D25*
X104025000Y-139668000D03*
D27*
X103320000Y-118780000D03*
X101490000Y-137290000D03*
D25*
%TO.N,Net-(Q2-Pad6)*%
X113482000Y-121666000D03*
X101838000Y-116959000D03*
X111928000Y-121096000D03*
%TO.N,/PD2*%
X100650000Y-101060002D03*
%TD*%
D29*
%TO.N,GND*%
X105992000Y-113227000D02*
X105992000Y-113227000D01*
X106472000Y-113591000D02*
X106472000Y-114452500D01*
X106108000Y-113227000D02*
X106472000Y-113591000D01*
X112477000Y-112408000D02*
X112477000Y-112408000D01*
X113462000Y-111466000D02*
X113463000Y-111466000D01*
D30*
X101821000Y-100135000D02*
X101821000Y-100135000D01*
X101821000Y-102049000D02*
X101821000Y-102049000D01*
D29*
X104370000Y-102225000D02*
X104370000Y-102688000D01*
D31*
X104370000Y-102225000D02*
X104370000Y-103173000D01*
D30*
X113358000Y-100082000D02*
X113358000Y-100082000D01*
X113352000Y-102060000D02*
X113352000Y-102060000D01*
D31*
X108285999Y-108873999D02*
X107003999Y-108873999D01*
X107003999Y-108873999D02*
X105691000Y-107561000D01*
X108666000Y-109254000D02*
X108285999Y-108873999D01*
X105694000Y-107558000D02*
X105691000Y-107561000D01*
X105691000Y-106870000D02*
X106364000Y-106197000D01*
X105691000Y-107561000D02*
X105691000Y-106870000D01*
X110870000Y-102914227D02*
X111673000Y-103717227D01*
X110870000Y-102225000D02*
X110870000Y-102605000D01*
X114062773Y-103717227D02*
X111673000Y-103717227D01*
X115240000Y-102540000D02*
X114062773Y-103717227D01*
D30*
X114760000Y-102060000D02*
X115240000Y-102540000D01*
D29*
X104093000Y-120323000D02*
X104093000Y-120323000D01*
X101766000Y-119256000D02*
X101766000Y-119256000D01*
D31*
X108626000Y-144925000D02*
X108654000Y-144953000D01*
X107531000Y-144925000D02*
X108626000Y-144925000D01*
D29*
X109472000Y-122591000D02*
X109438000Y-122625000D01*
X106498000Y-122614000D02*
X106498000Y-122614000D01*
X109438000Y-122625000D02*
X109438000Y-122625000D01*
X111341000Y-122625000D02*
X111341000Y-122625000D01*
X105992000Y-113227000D02*
X106108000Y-113227000D01*
D30*
X102383000Y-111368000D02*
X102383000Y-111368000D01*
X106474000Y-137905000D02*
X106483000Y-137914000D01*
X104995000Y-137905000D02*
X106474000Y-137905000D01*
X109734000Y-139655000D02*
X109675000Y-139714000D01*
X111220000Y-139655000D02*
X109734000Y-139655000D01*
X107277000Y-132790000D02*
X107277000Y-132790000D01*
X101959000Y-113925000D02*
X101959000Y-113925000D01*
D29*
X103114000Y-107212000D02*
X103114000Y-107818640D01*
X103114000Y-107818640D02*
X102906783Y-108025857D01*
X102906783Y-108025857D02*
X102681784Y-108250856D01*
D30*
X112159500Y-115640000D02*
X112159500Y-115640000D01*
X113446000Y-117422000D02*
X113446000Y-117422000D01*
X113447000Y-115547000D02*
X113447000Y-115547000D01*
X113462000Y-111212409D02*
X113878955Y-110795454D01*
X113462000Y-111466000D02*
X113462000Y-111212409D01*
X112521000Y-112408000D02*
X112477000Y-112408000D01*
X113463000Y-111466000D02*
X112521000Y-112408000D01*
X113446000Y-117422000D02*
X114199761Y-116668239D01*
X113447000Y-115547000D02*
X114199761Y-116299761D01*
X114199761Y-116668239D02*
X114199761Y-116483619D01*
X114199761Y-116299761D02*
X114199761Y-116483619D01*
D31*
X112437000Y-123150000D02*
X112437000Y-123150000D01*
D30*
X113447000Y-115547000D02*
X112061158Y-115547000D01*
X112061158Y-115547000D02*
X111973168Y-115634990D01*
D29*
X103822000Y-115389532D02*
X103394958Y-114962490D01*
X103822000Y-115667000D02*
X103822000Y-115389532D01*
D31*
X110870000Y-102605000D02*
X110870000Y-102914227D01*
D29*
X104370000Y-102688000D02*
X104370000Y-102844000D01*
D31*
X104370000Y-102225000D02*
X104370000Y-103059000D01*
X104370000Y-103059000D02*
X103665309Y-103763691D01*
D30*
X101959000Y-113925000D02*
X102926982Y-113925000D01*
X103342501Y-113040519D02*
X102844490Y-112542508D01*
X102844490Y-112542508D02*
X102844490Y-111829470D01*
X102926982Y-113925000D02*
X103342501Y-113509481D01*
X103342501Y-113509481D02*
X103342501Y-113040519D01*
X102844490Y-111829470D02*
X102383010Y-111367990D01*
D29*
X101766000Y-119864757D02*
X101777172Y-119875929D01*
X101766000Y-119256000D02*
X101766000Y-119864757D01*
X104322404Y-120140000D02*
X104116202Y-120346202D01*
X105284500Y-120140000D02*
X104322404Y-120140000D01*
D31*
X112051988Y-109771988D02*
X112051988Y-109880000D01*
X111435000Y-109155000D02*
X112051988Y-109771988D01*
X110932000Y-109155000D02*
X111435000Y-109155000D01*
D29*
%TO.N,+5V*%
X108905000Y-110302000D02*
X108905000Y-110273000D01*
X109636000Y-109254000D02*
X109636000Y-109320000D01*
X109636000Y-109320000D02*
X109288000Y-109668000D01*
X109288000Y-109919000D02*
X108905000Y-110302000D01*
X109288000Y-109668000D02*
X109288000Y-109919000D01*
X108297000Y-110302000D02*
X108905000Y-110302000D01*
X107519000Y-109524000D02*
X108297000Y-110302000D01*
D31*
X110365000Y-108205000D02*
X109636000Y-108934000D01*
X109636000Y-108934000D02*
X109636000Y-109254000D01*
X110932000Y-108205000D02*
X110365000Y-108205000D01*
X115240000Y-99554000D02*
X114373000Y-98687000D01*
X115240000Y-100000000D02*
X115240000Y-99554000D01*
X111870000Y-107200000D02*
X110932000Y-108138000D01*
X110932000Y-108138000D02*
X110932000Y-108205000D01*
X109997998Y-109935998D02*
X109636000Y-109574000D01*
X110762998Y-109935998D02*
X109997998Y-109935998D01*
X110932000Y-110105000D02*
X110762998Y-109935998D01*
X109636000Y-109574000D02*
X109636000Y-109254000D01*
D29*
%TO.N,+3V3*%
X105284500Y-120640000D02*
X104764232Y-120640000D01*
X104111232Y-121293000D02*
X104093000Y-121293000D01*
X104764232Y-120640000D02*
X104111232Y-121293000D01*
X105022000Y-113547000D02*
X105391000Y-113916000D01*
X105022000Y-113227000D02*
X105022000Y-113547000D01*
X105391000Y-113916000D02*
X105841000Y-113916000D01*
X105972000Y-114047000D02*
X105972000Y-114452500D01*
X105841000Y-113916000D02*
X105972000Y-114047000D01*
D31*
X114655000Y-108205000D02*
X115240000Y-107620000D01*
X113132000Y-108205000D02*
X114655000Y-108205000D01*
D30*
X103353000Y-111368000D02*
X103353000Y-111448000D01*
D29*
X112159500Y-115140000D02*
X112865768Y-115140000D01*
X113428768Y-114577000D02*
X113447000Y-114577000D01*
X112865768Y-115140000D02*
X113428768Y-114577000D01*
X110371000Y-122569768D02*
X110371000Y-122625000D01*
X109972000Y-122170768D02*
X110371000Y-122569768D01*
X109972000Y-121327500D02*
X109972000Y-122170768D01*
X110371000Y-123339000D02*
X110400000Y-123368000D01*
X110371000Y-122625000D02*
X110371000Y-123339000D01*
X109612998Y-126436002D02*
X109663000Y-126436002D01*
X109059000Y-126990000D02*
X109612998Y-126436002D01*
D31*
X106307000Y-132031000D02*
X106307000Y-132790000D01*
X106593000Y-131745000D02*
X106307000Y-132031000D01*
X106602000Y-144884000D02*
X106561000Y-144925000D01*
X106602000Y-143945000D02*
X106602000Y-144884000D01*
X104020000Y-143465000D02*
X104020000Y-143928000D01*
X105017000Y-144925000D02*
X106561000Y-144925000D01*
X104020000Y-143928000D02*
X105017000Y-144925000D01*
X105956000Y-136635000D02*
X106307000Y-136284000D01*
X104995000Y-136635000D02*
X105956000Y-136635000D01*
X106413000Y-135365000D02*
X106307000Y-135471000D01*
X110245000Y-135365000D02*
X106413000Y-135365000D01*
X106307000Y-136284000D02*
X106307000Y-135471000D01*
X106430000Y-134095000D02*
X106307000Y-133972000D01*
X110245000Y-134095000D02*
X106430000Y-134095000D01*
X106307000Y-133972000D02*
X106307000Y-132790000D01*
X106307000Y-135471000D02*
X106307000Y-133972000D01*
D29*
X108188000Y-112750000D02*
X108188000Y-112750000D01*
D30*
X113462000Y-112635066D02*
X112636133Y-113460933D01*
X113462000Y-112436000D02*
X113462000Y-112635066D01*
D31*
X113447000Y-114577000D02*
X113447000Y-114065996D01*
X112841937Y-113460933D02*
X112636133Y-113460933D01*
X113447000Y-114065996D02*
X112841937Y-113460933D01*
D29*
X105067000Y-122991000D02*
X105401000Y-122657000D01*
X103927998Y-122991000D02*
X105067000Y-122991000D01*
X103111000Y-123807998D02*
X103927998Y-122991000D01*
X103111000Y-124246000D02*
X103111000Y-123807998D01*
X105972000Y-121327500D02*
X105972000Y-121830728D01*
X105650979Y-122151749D02*
X105650979Y-122407021D01*
X105972000Y-121830728D02*
X105650979Y-122151749D01*
X105650979Y-122407021D02*
X105401000Y-122657000D01*
D31*
X105241000Y-122657000D02*
X105401000Y-122657000D01*
X104093000Y-121509000D02*
X105241000Y-122657000D01*
X104093000Y-121293000D02*
X104093000Y-121509000D01*
D29*
X103859000Y-112625000D02*
X103859000Y-112729000D01*
X104357000Y-113227000D02*
X105022000Y-113227000D01*
X103859000Y-112729000D02*
X104357000Y-113227000D01*
D30*
X103879000Y-112605000D02*
X103859000Y-112625000D01*
D29*
X103859000Y-112289000D02*
X103859000Y-112625000D01*
X103353000Y-111783000D02*
X103859000Y-112289000D01*
X103353000Y-111783000D02*
X103353000Y-111368000D01*
D31*
X112460000Y-108590000D02*
X112097268Y-108590000D01*
X112097268Y-108590000D02*
X112058119Y-108629149D01*
X112845000Y-108205000D02*
X112460000Y-108590000D01*
X113132000Y-108205000D02*
X112845000Y-108205000D01*
D29*
%TO.N,Net-(D1-Pad2)*%
X108905000Y-111702000D02*
X108914000Y-111702000D01*
D31*
X110313000Y-105584000D02*
X110430000Y-105467000D01*
X110313000Y-106513000D02*
X110313000Y-105584000D01*
X108905000Y-111702000D02*
X108075768Y-111702000D01*
X108075768Y-111702000D02*
X107981753Y-111607985D01*
D29*
%TO.N,VBUS*%
X110330000Y-111530000D02*
X110330000Y-111530000D01*
D30*
X112474000Y-111450000D02*
X112474000Y-111332000D01*
X112008490Y-110866490D02*
X110993510Y-110866490D01*
X110993510Y-110866490D02*
X110330000Y-111530000D01*
X112474000Y-111332000D02*
X112008490Y-110866490D01*
D31*
X108591000Y-106051000D02*
X107620000Y-105080000D01*
X108591000Y-107561000D02*
X108591000Y-106051000D01*
X110313000Y-104313000D02*
X109546000Y-105080000D01*
X108591000Y-106035000D02*
X108591000Y-107561000D01*
X110313000Y-104313000D02*
X108591000Y-106035000D01*
X110070000Y-104070000D02*
X110070000Y-102319000D01*
X110313000Y-104313000D02*
X110070000Y-104070000D01*
D32*
X105170000Y-102067202D02*
X106390202Y-100847000D01*
X105170000Y-102225000D02*
X105170000Y-102225000D01*
X110070000Y-102092374D02*
X110070000Y-102225000D01*
X108824626Y-100847000D02*
X110070000Y-102092374D01*
X106390202Y-100847000D02*
X108824626Y-100847000D01*
D33*
X108591000Y-107561000D02*
X109599000Y-107561000D01*
X109599000Y-107561000D02*
X109730000Y-107692000D01*
X110330000Y-110920664D02*
X110226356Y-110817020D01*
X110330000Y-111530000D02*
X110330000Y-110920664D01*
D32*
X105170000Y-102225000D02*
X105170000Y-102067202D01*
D31*
X110070000Y-102319000D02*
X110070000Y-102225000D01*
%TO.N,Net-(FB1-Pad1)*%
X103320000Y-97800000D02*
X103320000Y-102000000D01*
X111920000Y-97800000D02*
X111920000Y-102000000D01*
X103578000Y-98058000D02*
X103320000Y-97800000D01*
X111920000Y-97800000D02*
X111662000Y-98058000D01*
D34*
X103320000Y-97800000D02*
X111920000Y-97800000D01*
D30*
X101821000Y-99165000D02*
X103186000Y-97800000D01*
X103186000Y-97800000D02*
X103320000Y-97800000D01*
D29*
%TO.N,/D+*%
X107870000Y-101984298D02*
X107603702Y-101718000D01*
X107870000Y-102225000D02*
X107870000Y-101984298D01*
X106870000Y-101984298D02*
X106870000Y-102225000D01*
X107603702Y-101718000D02*
X107136298Y-101718000D01*
D35*
X102164000Y-105456000D02*
X102164000Y-107212000D01*
X102540000Y-105080000D02*
X102164000Y-105456000D01*
X102164000Y-107212000D02*
X102164000Y-107962000D01*
X103399804Y-105080000D02*
X104640804Y-103839000D01*
X102540000Y-105080000D02*
X103399804Y-105080000D01*
X104640804Y-103839000D02*
X106575488Y-103839000D01*
X106575488Y-103839000D02*
X106870000Y-103544488D01*
X106870000Y-103544488D02*
X106870000Y-102225000D01*
X102146780Y-109394780D02*
X102146780Y-107229220D01*
X102164000Y-109412000D02*
X102146780Y-109394780D01*
X102146780Y-107229220D02*
X102164000Y-107212000D01*
D29*
X107136298Y-101718000D02*
X106870000Y-101984298D01*
D35*
X102512000Y-110510000D02*
X102164000Y-110162000D01*
X103660590Y-110510000D02*
X102512000Y-110510000D01*
X107472000Y-113739982D02*
X106329008Y-112596990D01*
X102164000Y-110162000D02*
X102164000Y-109412000D01*
X105747580Y-112596990D02*
X103660590Y-110510000D01*
X106329008Y-112596990D02*
X105747580Y-112596990D01*
X107472000Y-114452500D02*
X107472000Y-113739982D01*
D29*
%TO.N,/D-*%
X107370000Y-103673000D02*
X107370000Y-102225000D01*
X107601999Y-103904999D02*
X107370000Y-103673000D01*
X108083001Y-103904999D02*
X107601999Y-103904999D01*
X108370000Y-103618000D02*
X108083001Y-103904999D01*
X108370000Y-102225000D02*
X108370000Y-103618000D01*
X107370000Y-103702112D02*
X107370000Y-102225000D01*
D35*
X107306361Y-103702112D02*
X107370000Y-103702112D01*
X105928473Y-105080000D02*
X107306361Y-103702112D01*
X105080000Y-105080000D02*
X105928473Y-105080000D01*
X104064000Y-106096000D02*
X104064000Y-107212000D01*
X105080000Y-105080000D02*
X104064000Y-106096000D01*
D29*
X104095000Y-109443000D02*
X104064000Y-109412000D01*
D35*
X104064000Y-109412000D02*
X104064000Y-107212000D01*
X107972000Y-113645997D02*
X106502982Y-112176979D01*
X107972000Y-114452500D02*
X107972000Y-113645997D01*
X106001177Y-112176979D02*
X104064000Y-110239802D01*
X106502982Y-112176979D02*
X106001177Y-112176979D01*
X104064000Y-110239802D02*
X104064000Y-109412000D01*
D29*
%TO.N,/A3*%
X112159500Y-120640000D02*
X112159500Y-120640000D01*
D36*
X112260065Y-121871065D02*
X112280195Y-121891195D01*
D30*
X112361501Y-120842001D02*
X112361501Y-121651809D01*
X112361501Y-121651809D02*
X112251655Y-121761655D01*
X112159500Y-120640000D02*
X112361501Y-120842001D01*
%TO.N,Net-(J3-PadA5)*%
X113352000Y-101090000D02*
X113352000Y-101090000D01*
D33*
X108870000Y-102225000D02*
X108870000Y-102225000D01*
D30*
%TO.N,Net-(J3-PadB5)*%
X105870000Y-102225000D02*
X105870000Y-102225000D01*
D36*
%TO.N,/NRST*%
X111323000Y-123332000D02*
X111323000Y-123320010D01*
D30*
X113272000Y-123917000D02*
X113272000Y-124390000D01*
X113407000Y-123782000D02*
X113272000Y-123917000D01*
X113407000Y-123150000D02*
X113407000Y-123782000D01*
X112812000Y-138005537D02*
X112186000Y-137379537D01*
X112186000Y-137379537D02*
X112186000Y-132581490D01*
X115240000Y-145720000D02*
X112812000Y-143292000D01*
X112812000Y-143292000D02*
X112812000Y-138005537D01*
X113407000Y-123150000D02*
X112873490Y-123683510D01*
X112873490Y-123683510D02*
X111730510Y-123683510D01*
X111730510Y-123683510D02*
X111345000Y-123298000D01*
X112827000Y-124390000D02*
X112555000Y-124662000D01*
X113272000Y-124390000D02*
X112827000Y-124390000D01*
X112555000Y-124662000D02*
X112555000Y-125788000D01*
X112555000Y-125788000D02*
X113475000Y-126708000D01*
X113070000Y-130748000D02*
X112202000Y-130748000D01*
X113475000Y-128622000D02*
X113251000Y-128846000D01*
X113475000Y-126708000D02*
X113475000Y-128622000D01*
X113251000Y-128846000D02*
X113251000Y-130567000D01*
X113251000Y-130567000D02*
X113070000Y-130748000D01*
D29*
%TO.N,/F0*%
X107972000Y-122110000D02*
X107468000Y-122614000D01*
X107972000Y-121327500D02*
X107972000Y-122110000D01*
X107468000Y-122762000D02*
X105350000Y-124880000D01*
X107468000Y-122614000D02*
X107468000Y-122762000D01*
%TO.N,/F1*%
X108472000Y-122621000D02*
X108468000Y-122625000D01*
X108472000Y-121327500D02*
X108472000Y-122621000D01*
X108468000Y-123574000D02*
X109668000Y-124774000D01*
X109668000Y-124774000D02*
X109668000Y-124880000D01*
X108468000Y-122625000D02*
X108468000Y-123574000D01*
%TO.N,/BOOT0*%
X103859000Y-113925000D02*
X103859000Y-113924000D01*
D30*
X103181011Y-115532548D02*
X103181011Y-116133011D01*
X103859000Y-113925000D02*
X103407000Y-113925000D01*
X102902512Y-114429488D02*
X102902512Y-115254050D01*
X103407000Y-113925000D02*
X102902512Y-114429488D01*
X102902512Y-115254050D02*
X103181011Y-115532548D01*
X103181011Y-116133011D02*
X103365000Y-116317000D01*
D29*
X103822000Y-116317000D02*
X103365000Y-116317000D01*
D30*
%TO.N,/SwitchPin*%
X109059000Y-128790000D02*
X110250000Y-128790000D01*
X110725000Y-128315000D02*
X111447000Y-128315000D01*
X110250000Y-128790000D02*
X110725000Y-128315000D01*
X111432000Y-125040000D02*
X111970000Y-125040000D01*
X111970000Y-125040000D02*
X112092000Y-125162000D01*
X112092000Y-125162000D02*
X112092000Y-125615000D01*
X112017000Y-125690000D02*
X111432000Y-125690000D01*
X112092000Y-125615000D02*
X112017000Y-125690000D01*
X111432000Y-125690000D02*
X111398000Y-125690000D01*
X111398000Y-125690000D02*
X110466000Y-126622000D01*
X110466000Y-128056000D02*
X110725000Y-128315000D01*
X110466000Y-126622000D02*
X110466000Y-128056000D01*
%TO.N,Net-(D3-Pad+)*%
X102155000Y-124260000D02*
X103111000Y-125216000D01*
X102155000Y-124246000D02*
X102155000Y-124260000D01*
%TO.N,/B0*%
X112159500Y-118140000D02*
X112159500Y-118140000D01*
X100000000Y-127940000D02*
X101301250Y-126638750D01*
X101301250Y-126638750D02*
X103415880Y-126638750D01*
%TO.N,/B1*%
X112159500Y-117640000D02*
X112159500Y-117640000D01*
%TO.N,/B2*%
X112159500Y-117140000D02*
X112159500Y-117140000D01*
X113454000Y-120723000D02*
X113454000Y-120723000D01*
D36*
X102153000Y-116314000D02*
X102153000Y-116314000D01*
D30*
%TO.N,/B7*%
X102110000Y-102910000D02*
X102350000Y-102670000D01*
X101480000Y-102910000D02*
X102110000Y-102910000D01*
X102450000Y-102570000D02*
X102350000Y-102670000D01*
X102450000Y-99060000D02*
X102450000Y-102570000D01*
X102520000Y-98990000D02*
X102450000Y-99060000D01*
%TO.N,/B6*%
X100964479Y-109410733D02*
X101179478Y-109625732D01*
X101179478Y-111156082D02*
X100964479Y-111371081D01*
X101179478Y-109625732D02*
X101179478Y-111156082D01*
D29*
%TO.N,/A10*%
X108472000Y-113916000D02*
X108472000Y-114452500D01*
X109158000Y-113230000D02*
X108472000Y-113916000D01*
X109158000Y-112750000D02*
X109158000Y-112750000D01*
X109158000Y-112750000D02*
X109158000Y-113230000D01*
D30*
X106432000Y-110174000D02*
X106434000Y-110176000D01*
X105619000Y-110174000D02*
X106432000Y-110174000D01*
%TO.N,/B13*%
X110972000Y-114452500D02*
X110972000Y-114452500D01*
%TO.N,/B9*%
X101113501Y-113308734D02*
X101113501Y-112121327D01*
X104847000Y-119640000D02*
X103751499Y-118544499D01*
X103751499Y-118544499D02*
X103751499Y-118491499D01*
X101113501Y-112121327D02*
X100565263Y-111573089D01*
X101043488Y-113378747D02*
X101113501Y-113308734D01*
X103751499Y-118491499D02*
X102987490Y-117727490D01*
X105284500Y-119640000D02*
X104847000Y-119640000D01*
X102987490Y-117727490D02*
X101808490Y-117727490D01*
X101063501Y-114729519D02*
X101043488Y-114709506D01*
X101337000Y-115844000D02*
X101063501Y-115570501D01*
X101043488Y-114709506D02*
X101043488Y-113378747D01*
X101808490Y-117727490D02*
X101337000Y-117256000D01*
X101337000Y-117256000D02*
X101337000Y-115844000D01*
X101063501Y-115570501D02*
X101063501Y-114729519D01*
X100565263Y-111573089D02*
X100565263Y-111396313D01*
%TO.N,/B15*%
X109972000Y-114452500D02*
X109972000Y-114452500D01*
D29*
%TO.N,/B8*%
X105284500Y-119140000D02*
X105284500Y-119140000D01*
D30*
%TO.N,/B14*%
X110472000Y-114452500D02*
X110472000Y-114452500D01*
%TO.N,/A2*%
X115240000Y-138100000D02*
X115240000Y-137875000D01*
X113617000Y-136477000D02*
X115240000Y-138100000D01*
X113617000Y-135508000D02*
X113617000Y-136477000D01*
%TO.N,/A1*%
X112094000Y-122439000D02*
X111746490Y-122091490D01*
X112517000Y-122439000D02*
X112094000Y-122439000D01*
X115240000Y-117780000D02*
X114271732Y-118748268D01*
X112860510Y-122095490D02*
X112517000Y-122439000D01*
X111298490Y-122091490D02*
X110972000Y-121765000D01*
X111746490Y-122091490D02*
X111298490Y-122091490D01*
X112860510Y-120480242D02*
X112860510Y-122095490D01*
X110972000Y-121765000D02*
X110972000Y-121327500D01*
X113423741Y-119917011D02*
X112860510Y-120480242D01*
X114271732Y-118748268D02*
X114271732Y-119332020D01*
X113686742Y-119917010D02*
X113423741Y-119917011D01*
X114271732Y-119332020D02*
X113686742Y-119917010D01*
%TO.N,/DFU*%
X113272000Y-125040000D02*
X113272000Y-125040000D01*
D37*
X114073549Y-113358549D02*
X113623451Y-113358549D01*
X114756000Y-114041000D02*
X114073549Y-113358549D01*
D30*
X113729000Y-125040000D02*
X114037510Y-124731490D01*
X114710243Y-119285261D02*
X114710243Y-119068635D01*
X114037510Y-124731490D02*
X114037510Y-119957994D01*
X113272000Y-125040000D02*
X113729000Y-125040000D01*
X114037510Y-119957994D02*
X114710243Y-119285261D01*
D36*
X114710243Y-119068635D02*
X114710243Y-119151757D01*
D30*
%TO.N,/A14*%
X113924000Y-137662000D02*
X113219000Y-136957000D01*
X113924000Y-139324000D02*
X113924000Y-137662000D01*
X115240000Y-140640000D02*
X113924000Y-139324000D01*
%TO.N,/A13*%
X106972000Y-114452500D02*
X106972000Y-114452500D01*
X113646989Y-141586989D02*
X113646989Y-138378063D01*
X112640502Y-132389518D02*
X112576000Y-132325016D01*
X112477488Y-135681361D02*
X112477488Y-132973496D01*
X113646989Y-138378063D02*
X112465452Y-137196526D01*
X112477488Y-132973496D02*
X112640502Y-132810482D01*
X112465452Y-137196526D02*
X112465452Y-135693397D01*
X112465452Y-135693397D02*
X112477488Y-135681361D01*
X112640502Y-132810482D02*
X112640502Y-132389518D01*
X115240000Y-143180000D02*
X113646989Y-141586989D01*
X112576000Y-132325016D02*
X112576000Y-131812000D01*
%TO.N,/A15*%
X105284500Y-115640000D02*
X105284500Y-115640000D01*
%TO.N,/C13*%
X104145991Y-124968481D02*
X104123000Y-124991472D01*
X104145991Y-124968481D02*
X104145991Y-123747009D01*
X104145991Y-123747009D02*
X104559000Y-123334000D01*
X105989490Y-122897510D02*
X105989490Y-122291964D01*
X105989490Y-122291964D02*
X106472000Y-121809454D01*
X104559000Y-123334000D02*
X105553000Y-123334000D01*
X105553000Y-123334000D02*
X105989490Y-122897510D01*
X106472000Y-121809454D02*
X106472000Y-121327500D01*
X104531000Y-130885000D02*
X104990510Y-130885000D01*
X104363000Y-130717000D02*
X104531000Y-130885000D01*
X104145991Y-124968481D02*
X104145991Y-126138991D01*
X104363000Y-126356000D02*
X104363000Y-130717000D01*
X104145991Y-126138991D02*
X104363000Y-126356000D01*
%TO.N,/C14*%
X104032000Y-126440752D02*
X104032000Y-130899617D01*
X103707490Y-124758000D02*
X103707490Y-126116242D01*
X104032000Y-130899617D02*
X104672312Y-131539929D01*
X103707490Y-126116242D02*
X104032000Y-126440752D01*
X104672312Y-131539929D02*
X104990510Y-131539929D01*
%TO.N,Net-(J3-PadA8)*%
X106370000Y-102225000D02*
X106370000Y-102225000D01*
%TO.N,Net-(C12-Pad1)*%
X113358000Y-99112000D02*
X113358000Y-99112000D01*
D33*
X113358000Y-99112000D02*
X113312000Y-99112000D01*
X113358000Y-98305000D02*
X113359000Y-98304000D01*
X113358000Y-99112000D02*
X113358000Y-98305000D01*
D30*
X112048002Y-127145000D02*
X112025002Y-127168000D01*
X112700000Y-127145000D02*
X112048002Y-127145000D01*
X101568501Y-111609501D02*
X101568501Y-109260481D01*
X101081133Y-107952151D02*
X101081133Y-98877986D01*
X101588501Y-108459519D02*
X101081133Y-107952151D01*
X102556000Y-112222698D02*
X102284812Y-111951510D01*
X102284812Y-111951510D02*
X101910510Y-111951510D01*
X101959000Y-113275000D02*
X102411000Y-113275000D01*
X101588501Y-109240481D02*
X101588501Y-108459519D01*
X102556000Y-113130000D02*
X102556000Y-112222698D01*
X102411000Y-113275000D02*
X102556000Y-113130000D01*
X101910510Y-111951510D02*
X101568501Y-111609501D01*
X101568501Y-109260481D02*
X101588501Y-109240481D01*
X101609698Y-113275000D02*
X101370499Y-113514199D01*
X101370499Y-113514199D02*
X101370499Y-114184499D01*
X101370499Y-114184499D02*
X101610411Y-114424411D01*
X101678965Y-114424411D02*
X102841490Y-115586936D01*
X101959000Y-113275000D02*
X101609698Y-113275000D01*
D29*
X102854000Y-118275000D02*
X102881532Y-118302532D01*
X101766000Y-118286000D02*
X102894983Y-118286000D01*
D30*
X102841490Y-115586936D02*
X102841490Y-117148510D01*
D29*
X102894983Y-118286000D02*
X102911515Y-118302532D01*
D30*
X101610411Y-114424411D02*
X101678965Y-114424411D01*
D29*
X102881532Y-118302532D02*
X102911515Y-118302532D01*
%TO.N,/VCAP_1*%
X113126000Y-116452000D02*
X113446000Y-116452000D01*
X112814000Y-116140000D02*
X113126000Y-116452000D01*
X112159500Y-116140000D02*
X112814000Y-116140000D01*
D30*
%TO.N,Net-(D2-Pad+)*%
X112417000Y-128262000D02*
X111300000Y-127145000D01*
X112417000Y-128315000D02*
X112417000Y-128262000D01*
D29*
%TO.N,/VBUS_DET*%
X111504000Y-112405000D02*
X111507000Y-112408000D01*
X111504000Y-111450000D02*
X111504000Y-112405000D01*
D30*
X111507000Y-112408000D02*
X111507000Y-112408000D01*
X111507000Y-112801442D02*
X110658452Y-113649990D01*
X109337010Y-113649990D02*
X108972000Y-114015000D01*
X110658452Y-113649990D02*
X109337010Y-113649990D01*
X108972000Y-114015000D02*
X108972000Y-114452500D01*
X111507000Y-112408000D02*
X111507000Y-112801442D01*
D36*
%TO.N,Net-(D3-Pad-)*%
X101786000Y-115666000D02*
X101786000Y-115666000D01*
X101512706Y-122852294D02*
X101504969Y-122852294D01*
D30*
X101835000Y-125216000D02*
X101504969Y-124885969D01*
X101504969Y-124885969D02*
X101504969Y-122852294D01*
X102155000Y-125216000D02*
X101835000Y-125216000D01*
D29*
%TO.N,Net-(D5-Pad1)*%
X103504000Y-108291000D02*
X103522000Y-108291000D01*
X103114000Y-108681000D02*
X103504000Y-108291000D01*
X103114000Y-109412000D02*
X103114000Y-108681000D01*
X110330000Y-112930000D02*
X110330000Y-112930000D01*
D30*
%TO.N,/A10_5V*%
X107519000Y-110824000D02*
X107586954Y-110891954D01*
X107586954Y-110891954D02*
X109565743Y-110891954D01*
%TO.N,/A8*%
X109472000Y-114452500D02*
X109472000Y-114452500D01*
X101820000Y-120390000D02*
X101820000Y-121710000D01*
X101063501Y-124336499D02*
X100000000Y-125400000D01*
X101063501Y-122466499D02*
X101063501Y-124336499D01*
X101820000Y-121710000D02*
X101063501Y-122466499D01*
%TO.N,/A6*%
X112159500Y-119140000D02*
X112159500Y-119140000D01*
X112159500Y-119140000D02*
X112567000Y-119140000D01*
D36*
X113506000Y-118201000D02*
X113479000Y-118228000D01*
D30*
X112567000Y-119140000D02*
X113479000Y-118228000D01*
%TO.N,/A5*%
X113994721Y-119217279D02*
X113994721Y-117450263D01*
X112159500Y-119640000D02*
X113572000Y-119640000D01*
X113572000Y-119640000D02*
X113994721Y-119217279D01*
X115240009Y-116204975D02*
X115240009Y-115239991D01*
X113994721Y-117450263D02*
X115240009Y-116204975D01*
%TO.N,/A0_FRAM_CS*%
X100000000Y-133020000D02*
X101642000Y-133020000D01*
X102717000Y-134095000D02*
X104995000Y-134095000D01*
X101642000Y-133020000D02*
X102717000Y-134095000D01*
X103066775Y-127666977D02*
X103589379Y-127666977D01*
X101867000Y-128866752D02*
X103066775Y-127666977D01*
X101947502Y-131779518D02*
X101867000Y-131699016D01*
X101947502Y-132714498D02*
X101947502Y-131779518D01*
X101867000Y-131699016D02*
X101867000Y-128866752D01*
X101642000Y-133020000D02*
X101947502Y-132714498D01*
%TO.N,/B3_SCK*%
X110245000Y-136635000D02*
X110245000Y-136635000D01*
X110245000Y-136635000D02*
X108889016Y-136635000D01*
X108889016Y-136635000D02*
X104899016Y-140625000D01*
X104899016Y-140625000D02*
X104320000Y-140625000D01*
X104320000Y-140625000D02*
X104020000Y-140925000D01*
X104020000Y-140925000D02*
X102493000Y-140925000D01*
X102493000Y-140925000D02*
X101442000Y-139874000D01*
%TO.N,/B4_MISO*%
X104995000Y-135365000D02*
X103463000Y-135365000D01*
X102167000Y-129199000D02*
X102167000Y-130183318D01*
X102811000Y-128555000D02*
X102167000Y-129199000D01*
X102167000Y-130183318D02*
X103398490Y-131414808D01*
X111220000Y-142195000D02*
X110068000Y-142195000D01*
X110068000Y-142195000D02*
X107067000Y-139194000D01*
X103463000Y-135365000D02*
X102666018Y-135365000D01*
X102666018Y-135365000D02*
X100000000Y-138031018D01*
X100000000Y-138031018D02*
X100000000Y-138100000D01*
%TO.N,/B12_FLASH_CS*%
X110126000Y-143465000D02*
X111220000Y-143465000D01*
X109525000Y-144066000D02*
X110126000Y-143465000D01*
X108441000Y-146019000D02*
X109525000Y-144935000D01*
X104584000Y-146019000D02*
X108441000Y-146019000D01*
X101745000Y-143180000D02*
X104584000Y-146019000D01*
X109525000Y-144935000D02*
X109525000Y-144066000D01*
X100000000Y-143180000D02*
X101745000Y-143180000D01*
X111472000Y-114452500D02*
X112523500Y-114452500D01*
X112523500Y-114452500D02*
X112692000Y-114284000D01*
X112692000Y-114284000D02*
X112692000Y-114284000D01*
X111747498Y-132016254D02*
X112738741Y-131025011D01*
X112278000Y-143465000D02*
X112444000Y-143299000D01*
X113720996Y-129268004D02*
X114208000Y-128781000D01*
X112444000Y-138315000D02*
X111905000Y-137776000D01*
X113184741Y-131025011D02*
X113720996Y-130488756D01*
X112444000Y-143299000D02*
X112444000Y-138315000D01*
X111905000Y-137776000D02*
X111905000Y-132950984D01*
X111220000Y-143465000D02*
X112278000Y-143465000D01*
X113720996Y-130488756D02*
X113720996Y-129268004D01*
X111905000Y-132950984D02*
X111747498Y-132793482D01*
X111747498Y-132793482D02*
X111747498Y-132016254D01*
X112738741Y-131025011D02*
X113184741Y-131025011D01*
%TO.N,/B5_MOSI*%
X110245000Y-137905000D02*
X109132000Y-137905000D01*
X109132000Y-137905000D02*
X109132000Y-137911000D01*
X109131000Y-137905000D02*
X109040500Y-137995500D01*
X109132000Y-137905000D02*
X109131000Y-137905000D01*
X110245000Y-137905000D02*
X111070000Y-137905000D01*
X109040500Y-137995500D02*
X109040000Y-137996000D01*
X101508006Y-128483994D02*
X101508006Y-131762006D01*
X102738000Y-127254000D02*
X101508006Y-128483994D01*
X101508006Y-132131006D02*
X101509000Y-132132000D01*
X101508006Y-131762006D02*
X101508006Y-132131006D01*
X100815000Y-139825000D02*
X100000000Y-140640000D01*
X100985000Y-139655000D02*
X100815000Y-139825000D01*
X103559490Y-120620036D02*
X103559490Y-119019490D01*
X103629534Y-120925920D02*
X103629534Y-120690080D01*
X103103000Y-121529660D02*
X103559490Y-121073170D01*
X103559490Y-120995964D02*
X103629534Y-120925920D01*
X103559490Y-121073170D02*
X103559490Y-120995964D01*
X103629534Y-120690080D02*
X103559490Y-120620036D01*
X103103000Y-122524000D02*
X103103000Y-121529660D01*
X103559490Y-119019490D02*
X103320000Y-118780000D01*
X100815000Y-139825000D02*
X101490000Y-139150000D01*
X101490000Y-139150000D02*
X101490000Y-137290000D01*
X102270000Y-137290000D02*
X101490000Y-137290000D01*
X104020000Y-139040000D02*
X102270000Y-137290000D01*
X104020000Y-139655000D02*
X104020000Y-139040000D01*
%TO.N,/PD2*%
X100000000Y-102540000D02*
X100650000Y-101890000D01*
X100650000Y-101890000D02*
X100650000Y-101060002D01*
%TO.N,/PD1*%
X100000000Y-110160000D02*
X100000000Y-110999000D01*
%TD*%
M02*
