%TF.GenerationSoftware,KiCad,Pcbnew,(5.1.6-0-10_14)*%
%TF.CreationDate,2022-03-04T18:58:24-06:00*%
%TF.ProjectId,Bonsai_C4,426f6e73-6169-45f4-9334-2e6b69636164,rev?*%
%TF.SameCoordinates,Original*%
%TF.FileFunction,Legend,Top*%
%TF.FilePolarity,Positive*%
%FSLAX46Y46*%
G04 Gerber Fmt 4.6, Leading zero omitted, Abs format (unit mm)*
G04 Created by KiCad (PCBNEW (5.1.6-0-10_14)) date 2022-03-04 18:58:24*
%MOMM*%
%LPD*%
G01*
G04 APERTURE LIST*
%ADD10C,0.120000*%
%ADD11C,0.203200*%
%ADD12C,0.152400*%
%ADD13C,0.254000*%
%ADD14C,0.200000*%
%ADD15C,0.130000*%
%ADD16C,0.127000*%
G04 APERTURE END LIST*
D10*
%TO.C,U3*%
X105112000Y-121025000D02*
X105112000Y-121500000D01*
X112332000Y-114280000D02*
X111857000Y-114280000D01*
X112332000Y-114755000D02*
X112332000Y-114280000D01*
X112332000Y-121500000D02*
X111857000Y-121500000D01*
X112332000Y-121025000D02*
X112332000Y-121500000D01*
X105112000Y-114280000D02*
X105587000Y-114280000D01*
X105112000Y-114755000D02*
X105112000Y-114280000D01*
%TO.C,U7*%
X107620000Y-133440000D02*
X104170000Y-133440000D01*
X107620000Y-133440000D02*
X109570000Y-133440000D01*
X107620000Y-138560000D02*
X105670000Y-138560000D01*
X107620000Y-138560000D02*
X109570000Y-138560000D01*
%TO.C,U6*%
X110345000Y-144025000D02*
X112020000Y-144025000D01*
X110345000Y-144285000D02*
X110345000Y-144025000D01*
X107620000Y-144285000D02*
X110345000Y-144285000D01*
X104895000Y-144285000D02*
X104895000Y-144025000D01*
X107620000Y-144285000D02*
X104895000Y-144285000D01*
X110345000Y-138835000D02*
X110345000Y-139095000D01*
X107620000Y-138835000D02*
X110345000Y-138835000D01*
X104895000Y-138835000D02*
X104895000Y-139095000D01*
X107620000Y-138835000D02*
X104895000Y-138835000D01*
%TO.C,U2*%
X104724000Y-109212000D02*
X104724000Y-106762000D01*
X101504000Y-107412000D02*
X101504000Y-109212000D01*
%TO.C,D5*%
X110787200Y-112223000D02*
X110787200Y-113373000D01*
X109872800Y-112230000D02*
X109872800Y-113380000D01*
X109872800Y-113380000D02*
X110787200Y-113380000D01*
D11*
%TO.C,D4*%
X107291000Y-107561000D02*
X106441000Y-107561000D01*
D12*
X106891000Y-107161000D02*
X107491000Y-107561000D01*
X106891000Y-107961000D02*
X106891000Y-107161000D01*
X107491000Y-107561000D02*
X106891000Y-107961000D01*
D11*
X107491000Y-107561000D02*
X107491000Y-107011000D01*
X107491000Y-107561000D02*
X107491000Y-108111000D01*
X107841000Y-107561000D02*
X107491000Y-107561000D01*
D13*
X106991000Y-107311000D02*
X106991000Y-107811000D01*
X107191000Y-107461000D02*
X107191000Y-107661000D01*
D10*
%TO.C,D1*%
X109362200Y-109852000D02*
X108447800Y-109852000D01*
X109362200Y-111002000D02*
X109362200Y-109852000D01*
X108447800Y-111009000D02*
X108447800Y-109859000D01*
%TO.C,U5*%
X103609000Y-112115000D02*
X101709000Y-112115000D01*
X102209000Y-114435000D02*
X103609000Y-114435000D01*
D14*
%TO.C,Q2*%
X103802000Y-117637000D02*
G75*
G03*
X103802000Y-117637000I-100000J0D01*
G01*
D10*
%TO.C,D2*%
X111993000Y-126687800D02*
X113143000Y-126687800D01*
X112000000Y-127602200D02*
X113150000Y-127602200D01*
X113150000Y-127602200D02*
X113150000Y-126687800D01*
%TO.C,U1*%
X111132000Y-110765000D02*
X112932000Y-110765000D01*
X112932000Y-107545000D02*
X110482000Y-107545000D01*
%TO.C,U4*%
X107269000Y-109014000D02*
X105369000Y-109014000D01*
X105869000Y-111334000D02*
X107269000Y-111334000D01*
D14*
%TO.C,Q1*%
X111652000Y-123720000D02*
G75*
G03*
X111652000Y-123720000I-100000J0D01*
G01*
D10*
%TO.C,D3*%
X101291600Y-124883400D02*
X101520200Y-124629400D01*
X101037600Y-124629400D02*
X101291600Y-124883400D01*
X101520200Y-124629400D02*
X101037600Y-124629400D01*
D15*
X101367800Y-124731000D02*
X101164600Y-124731000D01*
D16*
%TO.C,Y1*%
X105009640Y-123282340D02*
X105009640Y-123681120D01*
X105009640Y-126078880D02*
X105009640Y-126477660D01*
X105009640Y-126477660D02*
X110008360Y-126477660D01*
X110008360Y-126477660D02*
X110008360Y-126078880D01*
X110008360Y-123681120D02*
X110008360Y-123282340D01*
X110008360Y-123282340D02*
X105009640Y-123282340D01*
X107255000Y-123864000D02*
X107255000Y-125896000D01*
X107255000Y-125896000D02*
X107763000Y-125896000D01*
X107763000Y-125896000D02*
X107763000Y-123864000D01*
X107763000Y-123864000D02*
X107255000Y-123864000D01*
X106874000Y-123610000D02*
X106874000Y-124880000D01*
X106874000Y-124880000D02*
X106874000Y-126150000D01*
X108144000Y-123610000D02*
X108144000Y-124880000D01*
X108144000Y-124880000D02*
X108144000Y-126150000D01*
X106874000Y-124880000D02*
X106366000Y-124880000D01*
X108144000Y-124880000D02*
X108652000Y-124880000D01*
%TD*%
M02*
