%TF.GenerationSoftware,KiCad,Pcbnew,(5.1.6-0-10_14)*%
%TF.CreationDate,2022-03-04T18:58:24-06:00*%
%TF.ProjectId,Bonsai_C4,426f6e73-6169-45f4-9334-2e6b69636164,rev?*%
%TF.SameCoordinates,Original*%
%TF.FileFunction,Profile,NP*%
%FSLAX46Y46*%
G04 Gerber Fmt 4.6, Leading zero omitted, Abs format (unit mm)*
G04 Created by KiCad (PCBNEW (5.1.6-0-10_14)) date 2022-03-04 18:58:24*
%MOMM*%
%LPD*%
G01*
G04 APERTURE LIST*
%TA.AperFunction,Profile*%
%ADD10C,0.050000*%
%TD*%
G04 APERTURE END LIST*
D10*
X109970000Y-130210000D02*
G75*
G03*
X109970000Y-129210000I0J500000D01*
G01*
X99230000Y-95380000D02*
G75*
G03*
X98730000Y-95880000I0J-500000D01*
G01*
X116510000Y-95880000D02*
G75*
G03*
X116010000Y-95380000I-500000J0D01*
G01*
X116010000Y-95380000D02*
X99230000Y-95380000D01*
X112120000Y-130210000D02*
X112320000Y-130210000D01*
X112120000Y-129210000D02*
X112320000Y-129210000D01*
X109970000Y-129210000D02*
X105270000Y-129210000D01*
X105270000Y-130210000D02*
X109970000Y-130210000D01*
X102920000Y-130210000D02*
X103120000Y-130210000D01*
X102920000Y-129210000D02*
X103120000Y-129210000D01*
X112120000Y-129210000D02*
G75*
G03*
X112120000Y-130210000I0J-500000D01*
G01*
X112320000Y-130210000D02*
G75*
G03*
X112320000Y-129210000I0J500000D01*
G01*
X105270000Y-129210000D02*
G75*
G03*
X105270000Y-130210000I0J-500000D01*
G01*
X103120000Y-130210000D02*
G75*
G03*
X103120000Y-129210000I0J500000D01*
G01*
X102920000Y-129210000D02*
G75*
G03*
X102920000Y-130210000I0J-500000D01*
G01*
X116010000Y-146990000D02*
G75*
G03*
X116510000Y-146490000I0J500000D01*
G01*
X98730000Y-146490000D02*
G75*
G03*
X99230000Y-146990000I500000J0D01*
G01*
X98730000Y-132250000D02*
X98730000Y-146490000D01*
X100270000Y-131750000D02*
X99230000Y-131750000D01*
X100770000Y-130210000D02*
G75*
G03*
X100770000Y-129210000I0J500000D01*
G01*
X98730000Y-128710000D02*
G75*
G03*
X99230000Y-129210000I500000J0D01*
G01*
X100270000Y-131750000D02*
G75*
G03*
X100770000Y-131250000I0J500000D01*
G01*
X99230000Y-129210000D02*
X100770000Y-129210000D01*
X99230000Y-131750000D02*
G75*
G03*
X98730000Y-132250000I0J-500000D01*
G01*
X100770000Y-131250000D02*
X100770000Y-130210000D01*
X116510000Y-128710000D02*
G75*
G02*
X116010000Y-129210000I-500000J0D01*
G01*
X116010000Y-131750000D02*
G75*
G02*
X116510000Y-132250000I0J-500000D01*
G01*
X114470000Y-131250000D02*
X114470000Y-130210000D01*
X114970000Y-131750000D02*
G75*
G02*
X114470000Y-131250000I0J500000D01*
G01*
X114470000Y-130210000D02*
G75*
G02*
X114470000Y-129210000I0J500000D01*
G01*
X114970000Y-131750000D02*
X116010000Y-131750000D01*
X116510000Y-132250000D02*
X116510000Y-146490000D01*
X116010000Y-129210000D02*
X114470000Y-129210000D01*
X99230000Y-146990000D02*
X116010000Y-146990000D01*
X116510000Y-128710000D02*
X116510000Y-95880000D01*
X98730000Y-95880000D02*
X98730000Y-128710000D01*
M02*
